G75*
%MOIN*%
%OFA0B0*%
%FSLAX24Y24*%
%IPPOS*%
%LPD*%
%AMOC8*
5,1,8,0,0,1.08239X$1,22.5*
%
%ADD10C,0.0000*%
%ADD11C,0.0080*%
%ADD12C,0.0030*%
%ADD13C,0.0050*%
%ADD14C,0.0320*%
%ADD15C,0.0040*%
%ADD16C,0.0060*%
%ADD17R,0.0340X0.0300*%
%ADD18C,0.0079*%
%ADD19C,0.0004*%
%ADD20C,0.0030*%
%ADD21R,0.0669X0.0787*%
D10*
X002062Y000539D02*
X002062Y039909D01*
X060722Y039909D01*
X060722Y000539D01*
X002062Y000539D01*
X055062Y002039D02*
X055064Y002083D01*
X055070Y002127D01*
X055080Y002170D01*
X055093Y002212D01*
X055110Y002253D01*
X055131Y002292D01*
X055155Y002329D01*
X055182Y002364D01*
X055212Y002396D01*
X055245Y002426D01*
X055281Y002452D01*
X055318Y002476D01*
X055358Y002495D01*
X055399Y002512D01*
X055442Y002524D01*
X055485Y002533D01*
X055529Y002538D01*
X055573Y002539D01*
X055617Y002536D01*
X055661Y002529D01*
X055704Y002518D01*
X055746Y002504D01*
X055786Y002486D01*
X055825Y002464D01*
X055861Y002440D01*
X055895Y002412D01*
X055927Y002381D01*
X055956Y002347D01*
X055982Y002311D01*
X056004Y002273D01*
X056023Y002233D01*
X056038Y002191D01*
X056050Y002149D01*
X056058Y002105D01*
X056062Y002061D01*
X056062Y002017D01*
X056058Y001973D01*
X056050Y001929D01*
X056038Y001887D01*
X056023Y001845D01*
X056004Y001805D01*
X055982Y001767D01*
X055956Y001731D01*
X055927Y001697D01*
X055895Y001666D01*
X055861Y001638D01*
X055825Y001614D01*
X055786Y001592D01*
X055746Y001574D01*
X055704Y001560D01*
X055661Y001549D01*
X055617Y001542D01*
X055573Y001539D01*
X055529Y001540D01*
X055485Y001545D01*
X055442Y001554D01*
X055399Y001566D01*
X055358Y001583D01*
X055318Y001602D01*
X055281Y001626D01*
X055245Y001652D01*
X055212Y001682D01*
X055182Y001714D01*
X055155Y001749D01*
X055131Y001786D01*
X055110Y001825D01*
X055093Y001866D01*
X055080Y001908D01*
X055070Y001951D01*
X055064Y001995D01*
X055062Y002039D01*
X057777Y004039D02*
X057779Y004094D01*
X057785Y004149D01*
X057795Y004204D01*
X057808Y004258D01*
X057825Y004310D01*
X057846Y004362D01*
X057871Y004411D01*
X057899Y004459D01*
X057930Y004505D01*
X057965Y004548D01*
X058002Y004589D01*
X058042Y004627D01*
X058085Y004662D01*
X058130Y004695D01*
X058178Y004723D01*
X058227Y004749D01*
X058278Y004771D01*
X058330Y004789D01*
X058383Y004803D01*
X058438Y004814D01*
X058493Y004821D01*
X058548Y004824D01*
X058604Y004823D01*
X058659Y004818D01*
X058713Y004809D01*
X058767Y004797D01*
X058820Y004780D01*
X058872Y004760D01*
X058922Y004737D01*
X058970Y004709D01*
X059017Y004679D01*
X059061Y004645D01*
X059102Y004609D01*
X059141Y004569D01*
X059177Y004527D01*
X059210Y004482D01*
X059240Y004435D01*
X059266Y004387D01*
X059289Y004336D01*
X059308Y004284D01*
X059323Y004231D01*
X059335Y004177D01*
X059343Y004122D01*
X059347Y004067D01*
X059347Y004011D01*
X059343Y003956D01*
X059335Y003901D01*
X059323Y003847D01*
X059308Y003794D01*
X059289Y003742D01*
X059266Y003691D01*
X059240Y003643D01*
X059210Y003596D01*
X059177Y003551D01*
X059141Y003509D01*
X059102Y003469D01*
X059061Y003433D01*
X059017Y003399D01*
X058970Y003369D01*
X058922Y003341D01*
X058872Y003318D01*
X058820Y003298D01*
X058767Y003281D01*
X058713Y003269D01*
X058659Y003260D01*
X058604Y003255D01*
X058548Y003254D01*
X058493Y003257D01*
X058438Y003264D01*
X058383Y003275D01*
X058330Y003289D01*
X058278Y003307D01*
X058227Y003329D01*
X058178Y003355D01*
X058130Y003383D01*
X058085Y003416D01*
X058042Y003451D01*
X058002Y003489D01*
X057965Y003530D01*
X057930Y003573D01*
X057899Y003619D01*
X057871Y003667D01*
X057846Y003716D01*
X057825Y003768D01*
X057808Y003820D01*
X057795Y003874D01*
X057785Y003929D01*
X057779Y003984D01*
X057777Y004039D01*
X057777Y008039D02*
X057779Y008094D01*
X057785Y008149D01*
X057795Y008204D01*
X057808Y008258D01*
X057825Y008310D01*
X057846Y008362D01*
X057871Y008411D01*
X057899Y008459D01*
X057930Y008505D01*
X057965Y008548D01*
X058002Y008589D01*
X058042Y008627D01*
X058085Y008662D01*
X058130Y008695D01*
X058178Y008723D01*
X058227Y008749D01*
X058278Y008771D01*
X058330Y008789D01*
X058383Y008803D01*
X058438Y008814D01*
X058493Y008821D01*
X058548Y008824D01*
X058604Y008823D01*
X058659Y008818D01*
X058713Y008809D01*
X058767Y008797D01*
X058820Y008780D01*
X058872Y008760D01*
X058922Y008737D01*
X058970Y008709D01*
X059017Y008679D01*
X059061Y008645D01*
X059102Y008609D01*
X059141Y008569D01*
X059177Y008527D01*
X059210Y008482D01*
X059240Y008435D01*
X059266Y008387D01*
X059289Y008336D01*
X059308Y008284D01*
X059323Y008231D01*
X059335Y008177D01*
X059343Y008122D01*
X059347Y008067D01*
X059347Y008011D01*
X059343Y007956D01*
X059335Y007901D01*
X059323Y007847D01*
X059308Y007794D01*
X059289Y007742D01*
X059266Y007691D01*
X059240Y007643D01*
X059210Y007596D01*
X059177Y007551D01*
X059141Y007509D01*
X059102Y007469D01*
X059061Y007433D01*
X059017Y007399D01*
X058970Y007369D01*
X058922Y007341D01*
X058872Y007318D01*
X058820Y007298D01*
X058767Y007281D01*
X058713Y007269D01*
X058659Y007260D01*
X058604Y007255D01*
X058548Y007254D01*
X058493Y007257D01*
X058438Y007264D01*
X058383Y007275D01*
X058330Y007289D01*
X058278Y007307D01*
X058227Y007329D01*
X058178Y007355D01*
X058130Y007383D01*
X058085Y007416D01*
X058042Y007451D01*
X058002Y007489D01*
X057965Y007530D01*
X057930Y007573D01*
X057899Y007619D01*
X057871Y007667D01*
X057846Y007716D01*
X057825Y007768D01*
X057808Y007820D01*
X057795Y007874D01*
X057785Y007929D01*
X057779Y007984D01*
X057777Y008039D01*
X055062Y010039D02*
X055064Y010083D01*
X055070Y010127D01*
X055080Y010170D01*
X055093Y010212D01*
X055110Y010253D01*
X055131Y010292D01*
X055155Y010329D01*
X055182Y010364D01*
X055212Y010396D01*
X055245Y010426D01*
X055281Y010452D01*
X055318Y010476D01*
X055358Y010495D01*
X055399Y010512D01*
X055442Y010524D01*
X055485Y010533D01*
X055529Y010538D01*
X055573Y010539D01*
X055617Y010536D01*
X055661Y010529D01*
X055704Y010518D01*
X055746Y010504D01*
X055786Y010486D01*
X055825Y010464D01*
X055861Y010440D01*
X055895Y010412D01*
X055927Y010381D01*
X055956Y010347D01*
X055982Y010311D01*
X056004Y010273D01*
X056023Y010233D01*
X056038Y010191D01*
X056050Y010149D01*
X056058Y010105D01*
X056062Y010061D01*
X056062Y010017D01*
X056058Y009973D01*
X056050Y009929D01*
X056038Y009887D01*
X056023Y009845D01*
X056004Y009805D01*
X055982Y009767D01*
X055956Y009731D01*
X055927Y009697D01*
X055895Y009666D01*
X055861Y009638D01*
X055825Y009614D01*
X055786Y009592D01*
X055746Y009574D01*
X055704Y009560D01*
X055661Y009549D01*
X055617Y009542D01*
X055573Y009539D01*
X055529Y009540D01*
X055485Y009545D01*
X055442Y009554D01*
X055399Y009566D01*
X055358Y009583D01*
X055318Y009602D01*
X055281Y009626D01*
X055245Y009652D01*
X055212Y009682D01*
X055182Y009714D01*
X055155Y009749D01*
X055131Y009786D01*
X055110Y009825D01*
X055093Y009866D01*
X055080Y009908D01*
X055070Y009951D01*
X055064Y009995D01*
X055062Y010039D01*
D11*
X053908Y011602D02*
X057216Y011602D01*
X057216Y013794D01*
X057097Y013794D01*
X057097Y014377D01*
X057216Y014377D01*
X057216Y024798D01*
X057216Y026280D01*
X056605Y026280D01*
X056605Y024798D01*
X057216Y024798D01*
X056851Y024798D02*
X056851Y012045D01*
X054273Y012045D01*
X054273Y013795D01*
X054519Y013798D02*
X054519Y015280D01*
X053908Y015280D01*
X053908Y035798D01*
X054519Y035798D01*
X054519Y037280D01*
X053908Y037280D01*
X053908Y039476D01*
X057216Y039476D01*
X057216Y037377D01*
X057097Y037377D01*
X057097Y036794D01*
X057216Y036794D01*
X057216Y026280D01*
X056851Y026280D02*
X056851Y039033D01*
X054273Y039033D01*
X054273Y037283D01*
X053908Y037280D02*
X053908Y035798D01*
X054273Y035797D02*
X054273Y015281D01*
X053908Y015280D02*
X053908Y013798D01*
X054519Y013798D01*
X053908Y013798D02*
X053908Y011602D01*
X052216Y011602D02*
X048908Y011602D01*
X048908Y013798D01*
X049519Y013798D01*
X049519Y015280D01*
X048908Y015280D01*
X048908Y035798D01*
X049519Y035798D01*
X049519Y037280D01*
X048908Y037280D01*
X048908Y039476D01*
X052216Y039476D01*
X052216Y037377D01*
X052097Y037377D01*
X052097Y036794D01*
X052216Y036794D01*
X052216Y026280D01*
X052216Y024798D01*
X052216Y014377D01*
X052097Y014377D01*
X052097Y013794D01*
X052216Y013794D01*
X052216Y011602D01*
X051851Y012045D02*
X049273Y012045D01*
X049273Y013795D01*
X048908Y013798D02*
X048908Y015280D01*
X049273Y015281D02*
X049273Y035797D01*
X048908Y035798D02*
X048908Y037280D01*
X049273Y037283D02*
X049273Y039033D01*
X051851Y039033D01*
X051851Y026280D01*
X051605Y026280D02*
X052216Y026280D01*
X051605Y026280D02*
X051605Y024798D01*
X052216Y024798D01*
X051851Y024798D02*
X051851Y012045D01*
X039852Y004889D02*
X039852Y002529D01*
X037272Y002529D02*
X037272Y004889D01*
X039852Y004889D01*
X035852Y004889D02*
X035852Y002529D01*
X033272Y002529D02*
X033272Y004889D01*
X035852Y004889D01*
X031852Y004889D02*
X031852Y002529D01*
X029272Y002529D02*
X029272Y004889D01*
X031852Y004889D01*
X027852Y004889D02*
X027852Y002529D01*
X025272Y002529D02*
X025272Y004889D01*
X027852Y004889D01*
X023852Y004889D02*
X023852Y002529D01*
X021272Y002529D02*
X021272Y004889D01*
X023852Y004889D01*
X016852Y004889D02*
X016852Y002529D01*
X014272Y002529D02*
X014272Y004889D01*
X016852Y004889D01*
X017312Y010789D02*
X015812Y010789D01*
X015812Y011039D01*
X012562Y011039D01*
X012562Y013039D01*
X020562Y013039D01*
X020562Y011039D01*
X017312Y011039D01*
X017312Y010789D01*
X016812Y016789D02*
X015312Y016789D01*
X015312Y017039D01*
X011562Y017039D01*
X011562Y019039D01*
X020562Y019039D01*
X020562Y017039D01*
X016812Y017039D01*
X016812Y016789D01*
X016812Y022789D02*
X015312Y022789D01*
X015312Y023039D01*
X011562Y023039D01*
X011562Y025039D01*
X020562Y025039D01*
X020562Y023039D01*
X016812Y023039D01*
X016812Y022789D01*
X016812Y028789D02*
X015312Y028789D01*
X015312Y029039D01*
X011562Y029039D01*
X011562Y031039D01*
X020562Y031039D01*
X020562Y029039D01*
X016812Y029039D01*
X016812Y028789D01*
X016812Y034789D02*
X015312Y034789D01*
X015312Y035039D01*
X011562Y035039D01*
X011562Y037039D01*
X020562Y037039D01*
X020562Y035039D01*
X016812Y035039D01*
X016812Y034789D01*
D12*
X019840Y034524D02*
X020087Y034154D01*
X020209Y034216D02*
X020209Y034277D01*
X020270Y034339D01*
X020394Y034339D01*
X020456Y034277D01*
X020456Y034216D01*
X020394Y034154D01*
X020270Y034154D01*
X020209Y034216D01*
X020270Y034339D02*
X020209Y034401D01*
X020209Y034462D01*
X020270Y034524D01*
X020394Y034524D01*
X020456Y034462D01*
X020456Y034401D01*
X020394Y034339D01*
X020087Y034524D02*
X019840Y034154D01*
X012831Y032529D02*
X012584Y032529D01*
X012462Y032529D02*
X012215Y032529D01*
X012462Y032776D01*
X012462Y032837D01*
X012401Y032899D01*
X012277Y032899D01*
X012215Y032837D01*
X012094Y032837D02*
X012032Y032899D01*
X011847Y032899D01*
X011847Y032529D01*
X011847Y032652D02*
X012032Y032652D01*
X012094Y032714D01*
X012094Y032837D01*
X011971Y032652D02*
X012094Y032529D01*
X012584Y032776D02*
X012707Y032899D01*
X012707Y032529D01*
X010831Y032024D02*
X010831Y031962D01*
X010584Y031716D01*
X010584Y031654D01*
X010462Y031716D02*
X010401Y031654D01*
X010277Y031654D01*
X010215Y031716D01*
X010094Y031716D02*
X010032Y031654D01*
X009909Y031654D01*
X009847Y031716D01*
X009847Y031962D01*
X009909Y032024D01*
X010032Y032024D01*
X010094Y031962D01*
X010215Y031962D02*
X010277Y032024D01*
X010401Y032024D01*
X010462Y031962D01*
X010462Y031901D01*
X010401Y031839D01*
X010462Y031777D01*
X010462Y031716D01*
X010401Y031839D02*
X010339Y031839D01*
X010584Y032024D02*
X010831Y032024D01*
X005186Y031927D02*
X005124Y031989D01*
X004939Y031989D01*
X004939Y031866D01*
X005000Y031804D01*
X005124Y031804D01*
X005186Y031866D01*
X005186Y031927D01*
X005062Y032112D02*
X004939Y031989D01*
X004817Y031927D02*
X004817Y031866D01*
X004755Y031804D01*
X004632Y031804D01*
X004570Y031866D01*
X004449Y031866D02*
X004387Y031804D01*
X004264Y031804D01*
X004202Y031866D01*
X004202Y032112D01*
X004264Y032174D01*
X004387Y032174D01*
X004449Y032112D01*
X004570Y032112D02*
X004632Y032174D01*
X004755Y032174D01*
X004817Y032112D01*
X004817Y032051D01*
X004755Y031989D01*
X004817Y031927D01*
X004755Y031989D02*
X004694Y031989D01*
X005062Y032112D02*
X005186Y032174D01*
X005186Y030174D02*
X004939Y030174D01*
X004939Y029989D01*
X005062Y030051D01*
X005124Y030051D01*
X005186Y029989D01*
X005186Y029866D01*
X005124Y029804D01*
X005000Y029804D01*
X004939Y029866D01*
X004817Y029866D02*
X004755Y029804D01*
X004632Y029804D01*
X004570Y029866D01*
X004449Y029866D02*
X004387Y029804D01*
X004264Y029804D01*
X004202Y029866D01*
X004202Y030112D01*
X004264Y030174D01*
X004387Y030174D01*
X004449Y030112D01*
X004570Y030112D02*
X004632Y030174D01*
X004755Y030174D01*
X004817Y030112D01*
X004817Y030051D01*
X004755Y029989D01*
X004817Y029927D01*
X004817Y029866D01*
X004755Y029989D02*
X004694Y029989D01*
X004755Y028299D02*
X004817Y028237D01*
X004817Y028176D01*
X004755Y028114D01*
X004817Y028052D01*
X004817Y027991D01*
X004755Y027929D01*
X004632Y027929D01*
X004570Y027991D01*
X004449Y027991D02*
X004387Y027929D01*
X004264Y027929D01*
X004202Y027991D01*
X004202Y028237D01*
X004264Y028299D01*
X004387Y028299D01*
X004449Y028237D01*
X004570Y028237D02*
X004632Y028299D01*
X004755Y028299D01*
X004755Y028114D02*
X004694Y028114D01*
X004939Y028114D02*
X005186Y028114D01*
X005124Y027929D02*
X005124Y028299D01*
X004939Y028114D01*
X005000Y026424D02*
X005124Y026424D01*
X005186Y026362D01*
X005186Y026301D01*
X005124Y026239D01*
X005186Y026177D01*
X005186Y026116D01*
X005124Y026054D01*
X005000Y026054D01*
X004939Y026116D01*
X004817Y026116D02*
X004755Y026054D01*
X004632Y026054D01*
X004570Y026116D01*
X004449Y026116D02*
X004387Y026054D01*
X004264Y026054D01*
X004202Y026116D01*
X004202Y026362D01*
X004264Y026424D01*
X004387Y026424D01*
X004449Y026362D01*
X004570Y026362D02*
X004632Y026424D01*
X004755Y026424D01*
X004817Y026362D01*
X004817Y026301D01*
X004755Y026239D01*
X004817Y026177D01*
X004817Y026116D01*
X004755Y026239D02*
X004694Y026239D01*
X004939Y026362D02*
X005000Y026424D01*
X005062Y026239D02*
X005124Y026239D01*
X005249Y025799D02*
X005064Y025614D01*
X005311Y025614D01*
X005249Y025429D02*
X005249Y025799D01*
X004942Y025737D02*
X004880Y025799D01*
X004757Y025799D01*
X004695Y025737D01*
X004574Y025737D02*
X004574Y025614D01*
X004512Y025552D01*
X004327Y025552D01*
X004327Y025429D02*
X004327Y025799D01*
X004512Y025799D01*
X004574Y025737D01*
X004450Y025552D02*
X004574Y025429D01*
X004695Y025429D02*
X004942Y025676D01*
X004942Y025737D01*
X004942Y025429D02*
X004695Y025429D01*
X004651Y023649D02*
X004527Y023649D01*
X004465Y023587D01*
X004344Y023587D02*
X004344Y023464D01*
X004282Y023402D01*
X004097Y023402D01*
X004097Y023279D02*
X004097Y023649D01*
X004282Y023649D01*
X004344Y023587D01*
X004221Y023402D02*
X004344Y023279D01*
X004465Y023279D02*
X004712Y023526D01*
X004712Y023587D01*
X004651Y023649D01*
X004834Y023587D02*
X004895Y023649D01*
X005019Y023649D01*
X005081Y023587D01*
X005081Y023526D01*
X005019Y023464D01*
X005081Y023402D01*
X005081Y023341D01*
X005019Y023279D01*
X004895Y023279D01*
X004834Y023341D01*
X004712Y023279D02*
X004465Y023279D01*
X004957Y023464D02*
X005019Y023464D01*
X005124Y017924D02*
X004939Y017739D01*
X005186Y017739D01*
X005124Y017554D02*
X005124Y017924D01*
X004817Y017862D02*
X004755Y017924D01*
X004632Y017924D01*
X004570Y017862D01*
X004449Y017862D02*
X004387Y017924D01*
X004264Y017924D01*
X004202Y017862D01*
X004202Y017616D01*
X004264Y017554D01*
X004387Y017554D01*
X004449Y017616D01*
X004570Y017554D02*
X004817Y017801D01*
X004817Y017862D01*
X004817Y017554D02*
X004570Y017554D01*
X004632Y015924D02*
X004570Y015862D01*
X004632Y015924D02*
X004755Y015924D01*
X004817Y015862D01*
X004817Y015801D01*
X004570Y015554D01*
X004817Y015554D01*
X004939Y015616D02*
X005000Y015554D01*
X005124Y015554D01*
X005186Y015616D01*
X005186Y015677D01*
X005124Y015739D01*
X005062Y015739D01*
X005124Y015739D02*
X005186Y015801D01*
X005186Y015862D01*
X005124Y015924D01*
X005000Y015924D01*
X004939Y015862D01*
X004449Y015862D02*
X004387Y015924D01*
X004264Y015924D01*
X004202Y015862D01*
X004202Y015616D01*
X004264Y015554D01*
X004387Y015554D01*
X004449Y015616D01*
X004387Y013924D02*
X004264Y013924D01*
X004202Y013862D01*
X004202Y013616D01*
X004264Y013554D01*
X004387Y013554D01*
X004449Y013616D01*
X004570Y013554D02*
X004817Y013801D01*
X004817Y013862D01*
X004755Y013924D01*
X004632Y013924D01*
X004570Y013862D01*
X004449Y013862D02*
X004387Y013924D01*
X004570Y013554D02*
X004817Y013554D01*
X004939Y013554D02*
X005186Y013801D01*
X005186Y013862D01*
X005124Y013924D01*
X005000Y013924D01*
X004939Y013862D01*
X004939Y013554D02*
X005186Y013554D01*
X005062Y011924D02*
X005062Y011554D01*
X004939Y011554D02*
X005186Y011554D01*
X004939Y011801D02*
X005062Y011924D01*
X004817Y011862D02*
X004755Y011924D01*
X004632Y011924D01*
X004570Y011862D01*
X004449Y011862D02*
X004387Y011924D01*
X004264Y011924D01*
X004202Y011862D01*
X004202Y011616D01*
X004264Y011554D01*
X004387Y011554D01*
X004449Y011616D01*
X004570Y011554D02*
X004817Y011801D01*
X004817Y011862D01*
X004817Y011554D02*
X004570Y011554D01*
X004630Y009924D02*
X004507Y009924D01*
X004445Y009862D01*
X004324Y009862D02*
X004262Y009924D01*
X004139Y009924D01*
X004077Y009862D01*
X004077Y009616D01*
X004139Y009554D01*
X004262Y009554D01*
X004324Y009616D01*
X004445Y009554D02*
X004692Y009801D01*
X004692Y009862D01*
X004630Y009924D01*
X004814Y009862D02*
X004875Y009924D01*
X004999Y009924D01*
X005061Y009862D01*
X004814Y009616D01*
X004875Y009554D01*
X004999Y009554D01*
X005061Y009616D01*
X005061Y009862D01*
X004814Y009862D02*
X004814Y009616D01*
X004692Y009554D02*
X004445Y009554D01*
X004507Y007674D02*
X004445Y007612D01*
X004507Y007674D02*
X004630Y007674D01*
X004692Y007612D01*
X004692Y007551D01*
X004445Y007304D01*
X004692Y007304D01*
X004814Y007366D02*
X004875Y007304D01*
X004999Y007304D01*
X005061Y007366D01*
X005061Y007489D01*
X004999Y007551D01*
X004937Y007551D01*
X004814Y007489D01*
X004814Y007674D01*
X005061Y007674D01*
X004324Y007612D02*
X004262Y007674D01*
X004139Y007674D01*
X004077Y007612D01*
X004077Y007366D01*
X004139Y007304D01*
X004262Y007304D01*
X004324Y007366D01*
X004262Y006674D02*
X004077Y006674D01*
X004077Y006304D01*
X004077Y006427D02*
X004262Y006427D01*
X004324Y006489D01*
X004324Y006612D01*
X004262Y006674D01*
X004445Y006551D02*
X004569Y006674D01*
X004569Y006304D01*
X004692Y006304D02*
X004445Y006304D01*
X004324Y006304D02*
X004200Y006427D01*
X004814Y006489D02*
X005061Y006489D01*
X004999Y006304D02*
X004999Y006674D01*
X004814Y006489D01*
X012552Y006162D02*
X012552Y005915D01*
X012613Y005794D02*
X012552Y005732D01*
X012552Y005609D01*
X012613Y005547D01*
X012613Y005426D02*
X012552Y005364D01*
X012552Y005241D01*
X012613Y005179D01*
X012860Y005179D01*
X012922Y005241D01*
X012922Y005364D01*
X012860Y005426D01*
X012922Y005547D02*
X012675Y005794D01*
X012613Y005794D01*
X012860Y005915D02*
X012613Y006162D01*
X012552Y006162D01*
X012860Y005915D02*
X012922Y005915D01*
X012922Y005794D02*
X012922Y005547D01*
X018260Y005687D02*
X018321Y005564D01*
X018445Y005440D01*
X018445Y005626D01*
X018507Y005687D01*
X018568Y005687D01*
X018630Y005626D01*
X018630Y005502D01*
X018568Y005440D01*
X018445Y005440D01*
X018383Y005319D02*
X018321Y005319D01*
X018260Y005257D01*
X018260Y005134D01*
X018321Y005072D01*
X018321Y004951D02*
X018260Y004889D01*
X018260Y004766D01*
X018321Y004704D01*
X018568Y004704D01*
X018630Y004766D01*
X018630Y004889D01*
X018568Y004951D01*
X018630Y005072D02*
X018383Y005319D01*
X018630Y005319D02*
X018630Y005072D01*
X015876Y001299D02*
X015691Y001114D01*
X015938Y001114D01*
X015876Y000929D02*
X015876Y001299D01*
X015569Y001237D02*
X015508Y001299D01*
X015384Y001299D01*
X015323Y001237D01*
X015323Y000991D01*
X015384Y000929D01*
X015508Y000929D01*
X015569Y000991D01*
X015200Y000929D02*
X015077Y000929D01*
X015139Y000929D02*
X015139Y001299D01*
X015200Y001299D02*
X015077Y001299D01*
X022202Y001237D02*
X022202Y000991D01*
X022264Y000929D01*
X022387Y000929D01*
X022449Y000991D01*
X022449Y001237D01*
X022387Y001299D01*
X022264Y001299D01*
X022202Y001237D01*
X022325Y001052D02*
X022449Y000929D01*
X022570Y000929D02*
X022817Y001176D01*
X022817Y001237D01*
X022755Y001299D01*
X022632Y001299D01*
X022570Y001237D01*
X022570Y000929D02*
X022817Y000929D01*
X026077Y000991D02*
X026139Y000929D01*
X026262Y000929D01*
X026324Y000991D01*
X026324Y001237D01*
X026262Y001299D01*
X026139Y001299D01*
X026077Y001237D01*
X026077Y000991D01*
X026200Y001052D02*
X026324Y000929D01*
X026445Y000991D02*
X026507Y000929D01*
X026630Y000929D01*
X026692Y000991D01*
X026692Y001114D01*
X026630Y001176D01*
X026569Y001176D01*
X026445Y001114D01*
X026445Y001299D01*
X026692Y001299D01*
X030202Y001237D02*
X030202Y000991D01*
X030264Y000929D01*
X030387Y000929D01*
X030449Y000991D01*
X030449Y001237D01*
X030387Y001299D01*
X030264Y001299D01*
X030202Y001237D01*
X030325Y001052D02*
X030449Y000929D01*
X030570Y000929D02*
X030817Y000929D01*
X030694Y000929D02*
X030694Y001299D01*
X030570Y001176D01*
X034202Y001237D02*
X034202Y000991D01*
X034264Y000929D01*
X034387Y000929D01*
X034449Y000991D01*
X034449Y001237D01*
X034387Y001299D01*
X034264Y001299D01*
X034202Y001237D01*
X034325Y001052D02*
X034449Y000929D01*
X034570Y000991D02*
X034632Y000929D01*
X034755Y000929D01*
X034817Y000991D01*
X034817Y001052D01*
X034755Y001114D01*
X034570Y001114D01*
X034570Y000991D01*
X034570Y001114D02*
X034694Y001237D01*
X034817Y001299D01*
X038202Y001237D02*
X038202Y000991D01*
X038264Y000929D01*
X038387Y000929D01*
X038449Y000991D01*
X038449Y001237D01*
X038387Y001299D01*
X038264Y001299D01*
X038202Y001237D01*
X038325Y001052D02*
X038449Y000929D01*
X038570Y000929D02*
X038570Y000991D01*
X038817Y001237D01*
X038817Y001299D01*
X038570Y001299D01*
X041613Y005554D02*
X041860Y005554D01*
X041922Y005616D01*
X041922Y005739D01*
X041860Y005801D01*
X041860Y005922D02*
X041799Y005922D01*
X041737Y005984D01*
X041737Y006107D01*
X041799Y006169D01*
X041860Y006169D01*
X041922Y006107D01*
X041922Y005984D01*
X041860Y005922D01*
X041737Y005984D02*
X041675Y005922D01*
X041613Y005922D01*
X041552Y005984D01*
X041552Y006107D01*
X041613Y006169D01*
X041675Y006169D01*
X041737Y006107D01*
X041613Y005801D02*
X041552Y005739D01*
X041552Y005616D01*
X041613Y005554D01*
X044823Y007055D02*
X044823Y007301D01*
X044885Y007363D01*
X045008Y007363D01*
X045070Y007301D01*
X045191Y007363D02*
X045438Y007363D01*
X045438Y007301D01*
X045191Y007055D01*
X045191Y006993D01*
X045070Y007055D02*
X045008Y006993D01*
X044885Y006993D01*
X044823Y007055D01*
X046940Y007229D02*
X047187Y007229D01*
X047309Y007291D02*
X047370Y007229D01*
X047494Y007229D01*
X047556Y007291D01*
X047556Y007352D01*
X047494Y007414D01*
X047432Y007414D01*
X047494Y007414D02*
X047556Y007476D01*
X047556Y007537D01*
X047494Y007599D01*
X047370Y007599D01*
X047309Y007537D01*
X046940Y007599D02*
X046940Y007229D01*
X051073Y007301D02*
X051073Y007055D01*
X051135Y006993D01*
X051258Y006993D01*
X051320Y007055D01*
X051441Y007055D02*
X051503Y006993D01*
X051627Y006993D01*
X051688Y007055D01*
X051688Y007178D01*
X051627Y007240D01*
X051565Y007240D01*
X051441Y007178D01*
X051441Y007363D01*
X051688Y007363D01*
X051320Y007301D02*
X051258Y007363D01*
X051135Y007363D01*
X051073Y007301D01*
X052577Y007261D02*
X052638Y007199D01*
X052885Y007199D01*
X052947Y007261D01*
X052947Y007384D01*
X052885Y007446D01*
X052947Y007567D02*
X052947Y007814D01*
X052947Y007936D02*
X052947Y008182D01*
X052947Y008059D02*
X052577Y008059D01*
X052700Y007936D01*
X052577Y007691D02*
X052947Y007691D01*
X052700Y007567D02*
X052577Y007691D01*
X052638Y007446D02*
X052577Y007384D01*
X052577Y007261D01*
X052699Y004307D02*
X052637Y004246D01*
X052637Y004061D01*
X052760Y004061D01*
X052822Y004122D01*
X052822Y004246D01*
X052760Y004307D01*
X052699Y004307D01*
X052513Y004184D02*
X052637Y004061D01*
X052760Y003939D02*
X052822Y003877D01*
X052822Y003754D01*
X052760Y003692D01*
X052513Y003692D01*
X052452Y003754D01*
X052452Y003877D01*
X052513Y003939D01*
X052513Y004184D02*
X052452Y004307D01*
X047556Y003912D02*
X047494Y003974D01*
X047370Y003974D01*
X047309Y003912D01*
X047556Y003912D02*
X047556Y003851D01*
X047309Y003604D01*
X047556Y003604D01*
X047187Y003604D02*
X046940Y003604D01*
X046940Y003974D01*
X041922Y008491D02*
X041922Y008614D01*
X041860Y008676D01*
X041922Y008797D02*
X041922Y009044D01*
X041922Y008921D02*
X041552Y008921D01*
X041675Y008797D01*
X041613Y008676D02*
X041552Y008614D01*
X041552Y008491D01*
X041613Y008429D01*
X041860Y008429D01*
X041922Y008491D01*
X041860Y009165D02*
X041922Y009227D01*
X041922Y009351D01*
X041860Y009412D01*
X041799Y009412D01*
X041737Y009351D01*
X041737Y009289D01*
X041737Y009351D02*
X041675Y009412D01*
X041613Y009412D01*
X041552Y009351D01*
X041552Y009227D01*
X041613Y009165D01*
X044763Y010634D02*
X044763Y010881D01*
X044825Y010943D01*
X044948Y010943D01*
X045010Y010881D01*
X045131Y010819D02*
X045255Y010943D01*
X045255Y010573D01*
X045378Y010573D02*
X045131Y010573D01*
X045010Y010634D02*
X044948Y010573D01*
X044825Y010573D01*
X044763Y010634D01*
X045500Y010573D02*
X045747Y010819D01*
X045747Y010881D01*
X045685Y010943D01*
X045561Y010943D01*
X045500Y010881D01*
X045500Y010573D02*
X045747Y010573D01*
X051013Y010634D02*
X051075Y010573D01*
X051198Y010573D01*
X051260Y010634D01*
X051381Y010573D02*
X051628Y010573D01*
X051505Y010573D02*
X051505Y010943D01*
X051381Y010819D01*
X051260Y010881D02*
X051198Y010943D01*
X051075Y010943D01*
X051013Y010881D01*
X051013Y010634D01*
X051750Y010634D02*
X051997Y010881D01*
X051997Y010634D01*
X051935Y010573D01*
X051811Y010573D01*
X051750Y010634D01*
X051750Y010881D01*
X051811Y010943D01*
X051935Y010943D01*
X051997Y010881D01*
X052627Y011442D02*
X052997Y011689D01*
X052997Y011811D02*
X052750Y012057D01*
X052688Y012057D01*
X052627Y011996D01*
X052627Y011872D01*
X052688Y011811D01*
X052627Y011689D02*
X052997Y011442D01*
X052997Y011811D02*
X052997Y012057D01*
X057502Y011934D02*
X057872Y011934D01*
X057872Y011811D02*
X057872Y012057D01*
X057625Y011811D02*
X057502Y011934D01*
X057502Y011689D02*
X057872Y011442D01*
X057872Y011689D02*
X057502Y011442D01*
X030563Y025616D02*
X030501Y025554D01*
X030378Y025554D01*
X030316Y025616D01*
X030194Y025616D02*
X030133Y025554D01*
X030009Y025554D01*
X029948Y025616D01*
X029948Y025862D01*
X030009Y025924D01*
X030133Y025924D01*
X030194Y025862D01*
X030316Y025862D02*
X030378Y025924D01*
X030501Y025924D01*
X030563Y025862D01*
X030563Y025801D01*
X030501Y025739D01*
X030563Y025677D01*
X030563Y025616D01*
X030501Y025739D02*
X030439Y025739D01*
X029825Y025554D02*
X029702Y025554D01*
X029764Y025554D02*
X029764Y025924D01*
X029825Y025924D02*
X029702Y025924D01*
X027706Y024087D02*
X027706Y024026D01*
X027644Y023964D01*
X027520Y023964D01*
X027459Y024026D01*
X027459Y024087D01*
X027520Y024149D01*
X027644Y024149D01*
X027706Y024087D01*
X027644Y023964D02*
X027706Y023902D01*
X027706Y023841D01*
X027644Y023779D01*
X027520Y023779D01*
X027459Y023841D01*
X027459Y023902D01*
X027520Y023964D01*
X027337Y023779D02*
X027090Y023779D01*
X027214Y023779D02*
X027214Y024149D01*
X027090Y024026D01*
X026969Y024087D02*
X026907Y024149D01*
X026784Y024149D01*
X026722Y024087D01*
X026722Y023841D01*
X026784Y023779D01*
X026907Y023779D01*
X026969Y023841D01*
X028722Y022962D02*
X028722Y022716D01*
X028784Y022654D01*
X028907Y022654D01*
X028969Y022716D01*
X029090Y022654D02*
X029337Y022654D01*
X029214Y022654D02*
X029214Y023024D01*
X029090Y022901D01*
X028969Y022962D02*
X028907Y023024D01*
X028784Y023024D01*
X028722Y022962D01*
X029459Y022839D02*
X029644Y022839D01*
X029706Y022777D01*
X029706Y022716D01*
X029644Y022654D01*
X029520Y022654D01*
X029459Y022716D01*
X029459Y022839D01*
X029582Y022962D01*
X029706Y023024D01*
X022581Y023466D02*
X022519Y023404D01*
X022395Y023404D01*
X022334Y023466D01*
X022212Y023404D02*
X022089Y023527D01*
X022151Y023527D02*
X021965Y023527D01*
X021965Y023404D02*
X021965Y023774D01*
X022151Y023774D01*
X022212Y023712D01*
X022212Y023589D01*
X022151Y023527D01*
X022334Y023712D02*
X022395Y023774D01*
X022519Y023774D01*
X022581Y023712D01*
X022581Y023651D01*
X022519Y023589D01*
X022581Y023527D01*
X022581Y023466D01*
X022519Y023589D02*
X022457Y023589D01*
X022334Y024404D02*
X022581Y024651D01*
X022581Y024712D01*
X022519Y024774D01*
X022395Y024774D01*
X022334Y024712D01*
X022212Y024712D02*
X022212Y024589D01*
X022151Y024527D01*
X021965Y024527D01*
X021965Y024404D02*
X021965Y024774D01*
X022151Y024774D01*
X022212Y024712D01*
X022089Y024527D02*
X022212Y024404D01*
X022334Y024404D02*
X022581Y024404D01*
X020456Y022649D02*
X020209Y022649D01*
X020209Y022464D01*
X020332Y022526D01*
X020394Y022526D01*
X020456Y022464D01*
X020456Y022341D01*
X020394Y022279D01*
X020270Y022279D01*
X020209Y022341D01*
X020087Y022279D02*
X019840Y022649D01*
X020087Y022649D02*
X019840Y022279D01*
X019840Y016649D02*
X020087Y016279D01*
X020209Y016464D02*
X020456Y016464D01*
X020394Y016279D02*
X020394Y016649D01*
X020209Y016464D01*
X020087Y016649D02*
X019840Y016279D01*
X019944Y015924D02*
X019944Y015554D01*
X020067Y015554D02*
X019820Y015554D01*
X019699Y015616D02*
X019637Y015554D01*
X019514Y015554D01*
X019452Y015616D01*
X019452Y015862D01*
X019514Y015924D01*
X019637Y015924D01*
X019699Y015862D01*
X019820Y015801D02*
X019944Y015924D01*
X020189Y015924D02*
X020436Y015924D01*
X020436Y015862D01*
X020189Y015616D01*
X020189Y015554D01*
X018811Y015616D02*
X018811Y015862D01*
X018749Y015924D01*
X018625Y015924D01*
X018564Y015862D01*
X018564Y015801D01*
X018625Y015739D01*
X018811Y015739D01*
X018811Y015616D02*
X018749Y015554D01*
X018625Y015554D01*
X018564Y015616D01*
X018442Y015554D02*
X018195Y015554D01*
X018319Y015554D02*
X018319Y015924D01*
X018195Y015801D01*
X018074Y015862D02*
X018012Y015924D01*
X017889Y015924D01*
X017827Y015862D01*
X017827Y015616D01*
X017889Y015554D01*
X018012Y015554D01*
X018074Y015616D01*
X019840Y010774D02*
X020087Y010404D01*
X020209Y010466D02*
X020270Y010404D01*
X020394Y010404D01*
X020456Y010466D01*
X020456Y010527D01*
X020394Y010589D01*
X020209Y010589D01*
X020209Y010466D01*
X020209Y010589D02*
X020332Y010712D01*
X020456Y010774D01*
X020087Y010774D02*
X019840Y010404D01*
X019840Y028404D02*
X020087Y028774D01*
X020209Y028774D02*
X020456Y028774D01*
X020456Y028712D01*
X020209Y028466D01*
X020209Y028404D01*
X020087Y028404D02*
X019840Y028774D01*
X022090Y028774D02*
X022090Y028404D01*
X022090Y028527D02*
X022276Y028527D01*
X022337Y028589D01*
X022337Y028712D01*
X022276Y028774D01*
X022090Y028774D01*
X022214Y028527D02*
X022337Y028404D01*
X022459Y028466D02*
X022520Y028404D01*
X022644Y028404D01*
X022706Y028466D01*
X022706Y028589D01*
X022644Y028651D01*
X022582Y028651D01*
X022459Y028589D01*
X022459Y028774D01*
X022706Y028774D01*
X022644Y029279D02*
X022644Y029649D01*
X022459Y029464D01*
X022706Y029464D01*
X022337Y029464D02*
X022276Y029402D01*
X022090Y029402D01*
X022090Y029279D02*
X022090Y029649D01*
X022276Y029649D01*
X022337Y029587D01*
X022337Y029464D01*
X022214Y029402D02*
X022337Y029279D01*
X009047Y037554D02*
X008677Y037554D01*
X008677Y037739D01*
X008738Y037801D01*
X008862Y037801D01*
X008924Y037739D01*
X008924Y037554D01*
X008924Y037677D02*
X009047Y037801D01*
X009047Y037922D02*
X009047Y038169D01*
X009047Y038046D02*
X008677Y038046D01*
X008800Y037922D01*
X007422Y037984D02*
X007422Y038107D01*
X007360Y038169D01*
X007113Y038169D01*
X007052Y038107D01*
X007052Y037984D01*
X007113Y037922D01*
X007175Y037922D01*
X007237Y037984D01*
X007237Y038169D01*
X007422Y037984D02*
X007360Y037922D01*
X007360Y037801D02*
X007422Y037739D01*
X007422Y037616D01*
X007360Y037554D01*
X007113Y037554D01*
X007052Y037616D01*
X007052Y037739D01*
X007113Y037801D01*
X037302Y037482D02*
X037487Y037297D01*
X037487Y037544D01*
X037672Y037482D02*
X037302Y037482D01*
X037363Y037176D02*
X037302Y037114D01*
X037302Y036991D01*
X037363Y036929D01*
X037610Y036929D01*
X037672Y036991D01*
X037672Y037114D01*
X037610Y037176D01*
X038904Y035944D02*
X038904Y035697D01*
X038966Y035635D01*
X039090Y035635D01*
X039151Y035697D01*
X039273Y035697D02*
X039334Y035635D01*
X039458Y035635D01*
X039520Y035697D01*
X039520Y035759D01*
X039458Y035820D01*
X039396Y035820D01*
X039458Y035820D02*
X039520Y035882D01*
X039520Y035944D01*
X039458Y036005D01*
X039334Y036005D01*
X039273Y035944D01*
X039151Y035944D02*
X039090Y036005D01*
X038966Y036005D01*
X038904Y035944D01*
X043102Y038854D02*
X043349Y038854D01*
X043470Y038854D02*
X043717Y038854D01*
X043594Y038854D02*
X043594Y039224D01*
X043470Y039101D01*
X043102Y039224D02*
X043102Y038854D01*
X045216Y036005D02*
X045154Y035944D01*
X045154Y035697D01*
X045216Y035635D01*
X045340Y035635D01*
X045401Y035697D01*
X045523Y035635D02*
X045770Y035635D01*
X045646Y035635D02*
X045646Y036005D01*
X045523Y035882D01*
X045401Y035944D02*
X045340Y036005D01*
X045216Y036005D01*
X047764Y038929D02*
X047887Y038929D01*
X047949Y038991D01*
X048070Y038929D02*
X048317Y039176D01*
X048317Y039237D01*
X048255Y039299D01*
X048132Y039299D01*
X048070Y039237D01*
X047949Y039237D02*
X047887Y039299D01*
X047764Y039299D01*
X047702Y039237D01*
X047702Y038991D01*
X047764Y038929D01*
X048070Y038929D02*
X048317Y038929D01*
D13*
X044788Y038733D02*
X044788Y036095D01*
X041836Y036095D01*
X041836Y038733D01*
X044788Y038733D01*
X030002Y025348D02*
X029372Y025348D01*
X029372Y024230D02*
X030002Y024230D01*
X045961Y010358D02*
X045961Y007720D01*
X048913Y007720D01*
X048913Y010358D01*
X045961Y010358D01*
X045961Y006858D02*
X045961Y004220D01*
X048913Y004220D01*
X048913Y006858D01*
X045961Y006858D01*
X053562Y011039D02*
X056562Y011039D01*
X056562Y001039D01*
X059562Y001039D01*
X059562Y011039D01*
X056562Y011039D01*
X053562Y011039D02*
X053562Y001039D01*
X056562Y001039D01*
D14*
X054562Y003039D02*
X058562Y003039D01*
X058562Y005039D02*
X054562Y005039D01*
X054562Y007039D02*
X058562Y007039D01*
X058562Y009039D02*
X054562Y009039D01*
D15*
X053292Y010309D02*
X052932Y010549D01*
X052992Y010677D02*
X052932Y010737D01*
X052932Y010857D01*
X052992Y010917D01*
X053052Y010917D01*
X053112Y010857D01*
X053172Y010917D01*
X053232Y010917D01*
X053292Y010857D01*
X053292Y010737D01*
X053232Y010677D01*
X053292Y010549D02*
X052932Y010309D01*
X053112Y010797D02*
X053112Y010857D01*
X051842Y010318D02*
X051842Y008429D01*
X051172Y007759D01*
X050936Y007759D01*
X050188Y007759D02*
X049952Y007759D01*
X049282Y008429D01*
X049282Y010318D01*
X050188Y010318D01*
X050936Y010318D02*
X051842Y010318D01*
X050188Y010200D02*
X050124Y010178D01*
X050061Y010151D01*
X049999Y010121D01*
X049940Y010088D01*
X049882Y010052D01*
X049826Y010012D01*
X049773Y009969D01*
X049722Y009924D01*
X049674Y009876D01*
X049629Y009825D01*
X049586Y009771D01*
X049547Y009715D01*
X049510Y009658D01*
X049477Y009598D01*
X049448Y009536D01*
X049422Y009473D01*
X049399Y009409D01*
X049380Y009343D01*
X049365Y009276D01*
X049354Y009209D01*
X049346Y009141D01*
X049342Y009073D01*
X049342Y009005D01*
X049346Y008937D01*
X049354Y008869D01*
X049365Y008802D01*
X049380Y008735D01*
X049399Y008669D01*
X049422Y008605D01*
X049448Y008542D01*
X049477Y008480D01*
X049510Y008420D01*
X049547Y008363D01*
X049586Y008307D01*
X049629Y008253D01*
X049674Y008202D01*
X049722Y008154D01*
X049773Y008109D01*
X049826Y008066D01*
X049882Y008026D01*
X049940Y007990D01*
X049999Y007957D01*
X050061Y007927D01*
X050124Y007900D01*
X050188Y007878D01*
X050188Y006818D02*
X049282Y006818D01*
X049282Y004929D01*
X049952Y004259D01*
X050188Y004259D01*
X050936Y004259D02*
X051172Y004259D01*
X051842Y004929D01*
X051842Y006818D01*
X050936Y006818D01*
X050188Y006700D02*
X050124Y006678D01*
X050061Y006651D01*
X049999Y006621D01*
X049940Y006588D01*
X049882Y006552D01*
X049826Y006512D01*
X049773Y006469D01*
X049722Y006424D01*
X049674Y006376D01*
X049629Y006325D01*
X049586Y006271D01*
X049547Y006215D01*
X049510Y006158D01*
X049477Y006098D01*
X049448Y006036D01*
X049422Y005973D01*
X049399Y005909D01*
X049380Y005843D01*
X049365Y005776D01*
X049354Y005709D01*
X049346Y005641D01*
X049342Y005573D01*
X049342Y005505D01*
X049346Y005437D01*
X049354Y005369D01*
X049365Y005302D01*
X049380Y005235D01*
X049399Y005169D01*
X049422Y005105D01*
X049448Y005042D01*
X049477Y004980D01*
X049510Y004920D01*
X049547Y004863D01*
X049586Y004807D01*
X049629Y004753D01*
X049674Y004702D01*
X049722Y004654D01*
X049773Y004609D01*
X049826Y004566D01*
X049882Y004526D01*
X049940Y004490D01*
X049999Y004457D01*
X050061Y004427D01*
X050124Y004400D01*
X050188Y004378D01*
X050936Y004378D02*
X051000Y004400D01*
X051063Y004427D01*
X051125Y004457D01*
X051184Y004490D01*
X051242Y004526D01*
X051298Y004566D01*
X051351Y004609D01*
X051402Y004654D01*
X051450Y004702D01*
X051495Y004753D01*
X051538Y004807D01*
X051577Y004863D01*
X051614Y004920D01*
X051647Y004980D01*
X051676Y005042D01*
X051702Y005105D01*
X051725Y005169D01*
X051744Y005235D01*
X051759Y005302D01*
X051770Y005369D01*
X051778Y005437D01*
X051782Y005505D01*
X051782Y005573D01*
X051778Y005641D01*
X051770Y005709D01*
X051759Y005776D01*
X051744Y005843D01*
X051725Y005909D01*
X051702Y005973D01*
X051676Y006036D01*
X051647Y006098D01*
X051614Y006158D01*
X051577Y006215D01*
X051538Y006271D01*
X051495Y006325D01*
X051450Y006376D01*
X051402Y006424D01*
X051351Y006469D01*
X051298Y006512D01*
X051242Y006552D01*
X051184Y006588D01*
X051125Y006621D01*
X051063Y006651D01*
X051000Y006678D01*
X050936Y006700D01*
X050936Y007878D02*
X051000Y007900D01*
X051063Y007927D01*
X051125Y007957D01*
X051184Y007990D01*
X051242Y008026D01*
X051298Y008066D01*
X051351Y008109D01*
X051402Y008154D01*
X051450Y008202D01*
X051495Y008253D01*
X051538Y008307D01*
X051577Y008363D01*
X051614Y008420D01*
X051647Y008480D01*
X051676Y008542D01*
X051702Y008605D01*
X051725Y008669D01*
X051744Y008735D01*
X051759Y008802D01*
X051770Y008869D01*
X051778Y008937D01*
X051782Y009005D01*
X051782Y009073D01*
X051778Y009141D01*
X051770Y009209D01*
X051759Y009276D01*
X051744Y009343D01*
X051725Y009409D01*
X051702Y009473D01*
X051676Y009536D01*
X051647Y009598D01*
X051614Y009658D01*
X051577Y009715D01*
X051538Y009771D01*
X051495Y009825D01*
X051450Y009876D01*
X051402Y009924D01*
X051351Y009969D01*
X051298Y010012D01*
X051242Y010052D01*
X051184Y010088D01*
X051125Y010121D01*
X051063Y010151D01*
X051000Y010178D01*
X050936Y010200D01*
X045592Y010318D02*
X045592Y008429D01*
X044922Y007759D01*
X044686Y007759D01*
X043938Y007759D02*
X043702Y007759D01*
X043032Y008429D01*
X043032Y010318D01*
X043938Y010318D01*
X044686Y010318D02*
X045592Y010318D01*
X043938Y010200D02*
X043874Y010178D01*
X043811Y010151D01*
X043749Y010121D01*
X043690Y010088D01*
X043632Y010052D01*
X043576Y010012D01*
X043523Y009969D01*
X043472Y009924D01*
X043424Y009876D01*
X043379Y009825D01*
X043336Y009771D01*
X043297Y009715D01*
X043260Y009658D01*
X043227Y009598D01*
X043198Y009536D01*
X043172Y009473D01*
X043149Y009409D01*
X043130Y009343D01*
X043115Y009276D01*
X043104Y009209D01*
X043096Y009141D01*
X043092Y009073D01*
X043092Y009005D01*
X043096Y008937D01*
X043104Y008869D01*
X043115Y008802D01*
X043130Y008735D01*
X043149Y008669D01*
X043172Y008605D01*
X043198Y008542D01*
X043227Y008480D01*
X043260Y008420D01*
X043297Y008363D01*
X043336Y008307D01*
X043379Y008253D01*
X043424Y008202D01*
X043472Y008154D01*
X043523Y008109D01*
X043576Y008066D01*
X043632Y008026D01*
X043690Y007990D01*
X043749Y007957D01*
X043811Y007927D01*
X043874Y007900D01*
X043938Y007878D01*
X043938Y006818D02*
X043032Y006818D01*
X043032Y004929D01*
X043702Y004259D01*
X043938Y004259D01*
X044686Y004259D02*
X044922Y004259D01*
X045592Y004929D01*
X045592Y006818D01*
X044686Y006818D01*
X043938Y006700D02*
X043874Y006678D01*
X043811Y006651D01*
X043749Y006621D01*
X043690Y006588D01*
X043632Y006552D01*
X043576Y006512D01*
X043523Y006469D01*
X043472Y006424D01*
X043424Y006376D01*
X043379Y006325D01*
X043336Y006271D01*
X043297Y006215D01*
X043260Y006158D01*
X043227Y006098D01*
X043198Y006036D01*
X043172Y005973D01*
X043149Y005909D01*
X043130Y005843D01*
X043115Y005776D01*
X043104Y005709D01*
X043096Y005641D01*
X043092Y005573D01*
X043092Y005505D01*
X043096Y005437D01*
X043104Y005369D01*
X043115Y005302D01*
X043130Y005235D01*
X043149Y005169D01*
X043172Y005105D01*
X043198Y005042D01*
X043227Y004980D01*
X043260Y004920D01*
X043297Y004863D01*
X043336Y004807D01*
X043379Y004753D01*
X043424Y004702D01*
X043472Y004654D01*
X043523Y004609D01*
X043576Y004566D01*
X043632Y004526D01*
X043690Y004490D01*
X043749Y004457D01*
X043811Y004427D01*
X043874Y004400D01*
X043938Y004378D01*
X044686Y004378D02*
X044750Y004400D01*
X044813Y004427D01*
X044875Y004457D01*
X044934Y004490D01*
X044992Y004526D01*
X045048Y004566D01*
X045101Y004609D01*
X045152Y004654D01*
X045200Y004702D01*
X045245Y004753D01*
X045288Y004807D01*
X045327Y004863D01*
X045364Y004920D01*
X045397Y004980D01*
X045426Y005042D01*
X045452Y005105D01*
X045475Y005169D01*
X045494Y005235D01*
X045509Y005302D01*
X045520Y005369D01*
X045528Y005437D01*
X045532Y005505D01*
X045532Y005573D01*
X045528Y005641D01*
X045520Y005709D01*
X045509Y005776D01*
X045494Y005843D01*
X045475Y005909D01*
X045452Y005973D01*
X045426Y006036D01*
X045397Y006098D01*
X045364Y006158D01*
X045327Y006215D01*
X045288Y006271D01*
X045245Y006325D01*
X045200Y006376D01*
X045152Y006424D01*
X045101Y006469D01*
X045048Y006512D01*
X044992Y006552D01*
X044934Y006588D01*
X044875Y006621D01*
X044813Y006651D01*
X044750Y006678D01*
X044686Y006700D01*
X044686Y007878D02*
X044750Y007900D01*
X044813Y007927D01*
X044875Y007957D01*
X044934Y007990D01*
X044992Y008026D01*
X045048Y008066D01*
X045101Y008109D01*
X045152Y008154D01*
X045200Y008202D01*
X045245Y008253D01*
X045288Y008307D01*
X045327Y008363D01*
X045364Y008420D01*
X045397Y008480D01*
X045426Y008542D01*
X045452Y008605D01*
X045475Y008669D01*
X045494Y008735D01*
X045509Y008802D01*
X045520Y008869D01*
X045528Y008937D01*
X045532Y009005D01*
X045532Y009073D01*
X045528Y009141D01*
X045520Y009209D01*
X045509Y009276D01*
X045494Y009343D01*
X045475Y009409D01*
X045452Y009473D01*
X045426Y009536D01*
X045397Y009598D01*
X045364Y009658D01*
X045327Y009715D01*
X045288Y009771D01*
X045245Y009825D01*
X045200Y009876D01*
X045152Y009924D01*
X045101Y009969D01*
X045048Y010012D01*
X044992Y010052D01*
X044934Y010088D01*
X044875Y010121D01*
X044813Y010151D01*
X044750Y010178D01*
X044686Y010200D01*
X049182Y002411D02*
X049182Y002170D01*
X049362Y002170D01*
X049302Y002291D01*
X049302Y002351D01*
X049362Y002411D01*
X049482Y002411D01*
X049542Y002351D01*
X049542Y002231D01*
X049482Y002170D01*
X049362Y002042D02*
X049422Y001982D01*
X049422Y001802D01*
X049542Y001802D02*
X049182Y001802D01*
X049182Y001982D01*
X049242Y002042D01*
X049362Y002042D01*
X049182Y001674D02*
X049182Y001434D01*
X049182Y001554D02*
X049542Y001554D01*
X058702Y014809D02*
X058702Y015169D01*
X058582Y015169D02*
X058822Y015169D01*
X058950Y015169D02*
X059130Y015169D01*
X059191Y015109D01*
X059191Y014989D01*
X059130Y014929D01*
X058950Y014929D01*
X058950Y014809D02*
X058950Y015169D01*
X059319Y015049D02*
X059439Y015169D01*
X059439Y014809D01*
X059319Y014809D02*
X059559Y014809D01*
X027641Y026289D02*
X027580Y026229D01*
X027460Y026229D01*
X027400Y026289D01*
X027272Y026289D02*
X027272Y026589D01*
X027400Y026529D02*
X027460Y026589D01*
X027580Y026589D01*
X027641Y026529D01*
X027641Y026469D01*
X027580Y026409D01*
X027641Y026349D01*
X027641Y026289D01*
X027580Y026409D02*
X027520Y026409D01*
X027272Y026289D02*
X027212Y026229D01*
X027092Y026229D01*
X027032Y026289D01*
X027032Y026589D01*
X038907Y036134D02*
X038907Y038024D01*
X039577Y038693D01*
X039813Y038693D01*
X040561Y038693D02*
X040797Y038693D01*
X041467Y038024D01*
X041467Y036134D01*
X040561Y036134D01*
X039813Y036134D02*
X038907Y036134D01*
X040561Y036253D02*
X040625Y036275D01*
X040688Y036302D01*
X040750Y036332D01*
X040809Y036365D01*
X040867Y036401D01*
X040923Y036441D01*
X040976Y036484D01*
X041027Y036529D01*
X041075Y036577D01*
X041120Y036628D01*
X041163Y036682D01*
X041202Y036738D01*
X041239Y036795D01*
X041272Y036855D01*
X041301Y036917D01*
X041327Y036980D01*
X041350Y037044D01*
X041369Y037110D01*
X041384Y037177D01*
X041395Y037244D01*
X041403Y037312D01*
X041407Y037380D01*
X041407Y037448D01*
X041403Y037516D01*
X041395Y037584D01*
X041384Y037651D01*
X041369Y037718D01*
X041350Y037784D01*
X041327Y037848D01*
X041301Y037911D01*
X041272Y037973D01*
X041239Y038033D01*
X041202Y038090D01*
X041163Y038146D01*
X041120Y038200D01*
X041075Y038251D01*
X041027Y038299D01*
X040976Y038344D01*
X040923Y038387D01*
X040867Y038427D01*
X040809Y038463D01*
X040750Y038496D01*
X040688Y038526D01*
X040625Y038553D01*
X040561Y038575D01*
X039813Y038575D02*
X039749Y038553D01*
X039686Y038526D01*
X039624Y038496D01*
X039565Y038463D01*
X039507Y038427D01*
X039451Y038387D01*
X039398Y038344D01*
X039347Y038299D01*
X039299Y038251D01*
X039254Y038200D01*
X039211Y038146D01*
X039172Y038090D01*
X039135Y038033D01*
X039102Y037973D01*
X039073Y037911D01*
X039047Y037848D01*
X039024Y037784D01*
X039005Y037718D01*
X038990Y037651D01*
X038979Y037584D01*
X038971Y037516D01*
X038967Y037448D01*
X038967Y037380D01*
X038971Y037312D01*
X038979Y037244D01*
X038990Y037177D01*
X039005Y037110D01*
X039024Y037044D01*
X039047Y036980D01*
X039073Y036917D01*
X039102Y036855D01*
X039135Y036795D01*
X039172Y036738D01*
X039211Y036682D01*
X039254Y036628D01*
X039299Y036577D01*
X039347Y036529D01*
X039398Y036484D01*
X039451Y036441D01*
X039507Y036401D01*
X039565Y036365D01*
X039624Y036332D01*
X039686Y036302D01*
X039749Y036275D01*
X039813Y036253D01*
X045157Y036134D02*
X045157Y038024D01*
X045827Y038693D01*
X046063Y038693D01*
X046811Y038693D02*
X047047Y038693D01*
X047717Y038024D01*
X047717Y036134D01*
X046811Y036134D01*
X046063Y036134D02*
X045157Y036134D01*
X046811Y036253D02*
X046875Y036275D01*
X046938Y036302D01*
X047000Y036332D01*
X047059Y036365D01*
X047117Y036401D01*
X047173Y036441D01*
X047226Y036484D01*
X047277Y036529D01*
X047325Y036577D01*
X047370Y036628D01*
X047413Y036682D01*
X047452Y036738D01*
X047489Y036795D01*
X047522Y036855D01*
X047551Y036917D01*
X047577Y036980D01*
X047600Y037044D01*
X047619Y037110D01*
X047634Y037177D01*
X047645Y037244D01*
X047653Y037312D01*
X047657Y037380D01*
X047657Y037448D01*
X047653Y037516D01*
X047645Y037584D01*
X047634Y037651D01*
X047619Y037718D01*
X047600Y037784D01*
X047577Y037848D01*
X047551Y037911D01*
X047522Y037973D01*
X047489Y038033D01*
X047452Y038090D01*
X047413Y038146D01*
X047370Y038200D01*
X047325Y038251D01*
X047277Y038299D01*
X047226Y038344D01*
X047173Y038387D01*
X047117Y038427D01*
X047059Y038463D01*
X047000Y038496D01*
X046938Y038526D01*
X046875Y038553D01*
X046811Y038575D01*
X046063Y038575D02*
X045999Y038553D01*
X045936Y038526D01*
X045874Y038496D01*
X045815Y038463D01*
X045757Y038427D01*
X045701Y038387D01*
X045648Y038344D01*
X045597Y038299D01*
X045549Y038251D01*
X045504Y038200D01*
X045461Y038146D01*
X045422Y038090D01*
X045385Y038033D01*
X045352Y037973D01*
X045323Y037911D01*
X045297Y037848D01*
X045274Y037784D01*
X045255Y037718D01*
X045240Y037651D01*
X045229Y037584D01*
X045221Y037516D01*
X045217Y037448D01*
X045217Y037380D01*
X045221Y037312D01*
X045229Y037244D01*
X045240Y037177D01*
X045255Y037110D01*
X045274Y037044D01*
X045297Y036980D01*
X045323Y036917D01*
X045352Y036855D01*
X045385Y036795D01*
X045422Y036738D01*
X045461Y036682D01*
X045504Y036628D01*
X045549Y036577D01*
X045597Y036529D01*
X045648Y036484D01*
X045701Y036441D01*
X045757Y036401D01*
X045815Y036365D01*
X045874Y036332D01*
X045936Y036302D01*
X045999Y036275D01*
X046063Y036253D01*
X058582Y036294D02*
X058822Y036294D01*
X058702Y036294D02*
X058702Y035934D01*
X058950Y035934D02*
X058950Y036294D01*
X059130Y036294D01*
X059191Y036234D01*
X059191Y036114D01*
X059130Y036054D01*
X058950Y036054D01*
X059319Y035934D02*
X059559Y036174D01*
X059559Y036234D01*
X059499Y036294D01*
X059379Y036294D01*
X059319Y036234D01*
X059319Y035934D02*
X059559Y035934D01*
X021641Y014529D02*
X021580Y014589D01*
X021460Y014589D01*
X021400Y014529D01*
X021272Y014589D02*
X021272Y014289D01*
X021212Y014229D01*
X021092Y014229D01*
X021032Y014289D01*
X021032Y014589D01*
X021400Y014229D02*
X021641Y014469D01*
X021641Y014529D01*
X021641Y014229D02*
X021400Y014229D01*
X017122Y013992D02*
X017122Y013752D01*
X017122Y013872D02*
X016762Y013872D01*
X016882Y013752D01*
X016762Y013624D02*
X017062Y013624D01*
X017122Y013564D01*
X017122Y013444D01*
X017062Y013384D01*
X016762Y013384D01*
X006042Y003101D02*
X006042Y002981D01*
X005982Y002920D01*
X005862Y003041D02*
X005862Y003101D01*
X005922Y003161D01*
X005982Y003161D01*
X006042Y003101D01*
X005862Y003101D02*
X005802Y003161D01*
X005742Y003161D01*
X005682Y003101D01*
X005682Y002981D01*
X005742Y002920D01*
X005742Y002792D02*
X005862Y002792D01*
X005922Y002732D01*
X005922Y002552D01*
X006042Y002552D02*
X005682Y002552D01*
X005682Y002732D01*
X005742Y002792D01*
X005682Y002424D02*
X005682Y002184D01*
X005682Y002304D02*
X006042Y002304D01*
X005557Y037559D02*
X005557Y037799D01*
X005557Y037679D02*
X005917Y037679D01*
X005917Y037927D02*
X005557Y037927D01*
X005557Y038107D01*
X005617Y038167D01*
X005737Y038167D01*
X005797Y038107D01*
X005797Y037927D01*
X005737Y038295D02*
X005737Y038536D01*
X005917Y038476D02*
X005557Y038476D01*
X005737Y038295D01*
D16*
X005162Y038539D02*
X005162Y037539D01*
X004562Y036939D01*
X003562Y036939D01*
X002962Y037539D01*
X002962Y038539D01*
X003562Y039139D01*
X004562Y039139D01*
X005162Y038539D01*
X027005Y026099D02*
X027619Y026099D01*
X027619Y024979D02*
X027005Y024979D01*
X020369Y014599D02*
X019755Y014599D01*
X018369Y014599D02*
X017755Y014599D01*
X017755Y013479D02*
X018369Y013479D01*
X019755Y013479D02*
X020369Y013479D01*
X005162Y003039D02*
X005162Y002039D01*
X004562Y001439D01*
X003562Y001439D01*
X002962Y002039D01*
X002962Y003039D01*
X003562Y003639D01*
X004562Y003639D01*
X005162Y003039D01*
X049962Y002539D02*
X049962Y001539D01*
X050562Y000939D01*
X051562Y000939D01*
X052162Y001539D01*
X052162Y002539D01*
X051562Y003139D01*
X050562Y003139D01*
X049962Y002539D01*
X058562Y011939D02*
X059562Y011939D01*
X060162Y012539D01*
X060162Y013539D01*
X059562Y014139D01*
X058562Y014139D01*
X057962Y013539D01*
X057962Y012539D01*
X058562Y011939D01*
X058562Y036939D02*
X059562Y036939D01*
X060162Y037539D01*
X060162Y038539D01*
X059562Y039139D01*
X058562Y039139D01*
X057962Y038539D01*
X057962Y037539D01*
X058562Y036939D01*
D17*
X038562Y005079D03*
X034562Y005079D03*
X030562Y005079D03*
X026562Y005079D03*
X022562Y005079D03*
X015562Y005079D03*
D18*
X018259Y013586D03*
X020259Y013586D03*
X027509Y025086D03*
D19*
X030195Y024789D02*
X030199Y024789D01*
D20*
X029947Y024289D02*
X029431Y024289D01*
X029431Y025293D01*
X029947Y025293D01*
X029947Y024289D01*
D21*
X042190Y037414D03*
X044434Y037414D03*
X046315Y009039D03*
X048559Y009039D03*
X048559Y005539D03*
X046315Y005539D03*
M02*
