%
M48
M72
T01C0.0236
T02C0.0394
T03C0.0512
T04C0.0600
T05C0.1000
T06C0.1250
T07C0.1570
%
T01
X14062Y5039
X15562Y6039
X19562Y4539
X19562Y2039
X24562Y2039
X24562Y4539
X23562Y6539
X27562Y6539
X29562Y7789
X31562Y6539
X33562Y7789
X33562Y8789
X35562Y6539
X37562Y7789
X37562Y8789
X39562Y6539
X36562Y4539
X36562Y2039
X32562Y2039
X32562Y4539
X28562Y4539
X28562Y2039
X29562Y11539
X30062Y12414
X30312Y13664
X30812Y14039
X31812Y14039
X32812Y14414
X33312Y15039
X32312Y15414
X29562Y15539
X28062Y15039
X27687Y14039
X25437Y14414
X24562Y13789
X23562Y13414
X23187Y14039
X22062Y13039
X21437Y13789
X21437Y15039
X21437Y15914
X20437Y15664
X18562Y16414
X16562Y16414
X16562Y15914
X15562Y16664
X15062Y15539
X16062Y14164
X16937Y14414
X18062Y13664
X20937Y12539
X20937Y11789
X20312Y11539
X26062Y12414
X25187Y15539
X24687Y17039
X23062Y17414
X20937Y18539
X20562Y17414
X21437Y20664
X22062Y21664
X20687Y23539
X19062Y24039
X21062Y24539
X22562Y25914
X24687Y24539
X26062Y23664
X25062Y23539
X26062Y22539
X26187Y24539
X25687Y25664
X25062Y27414
X26187Y27664
X27562Y27664
X29812Y27664
X29812Y29414
X25687Y29539
X23812Y29289
X23437Y30164
X23437Y31914
X22687Y31914
X24312Y33164
X26062Y34539
X26062Y35789
X24312Y35539
X23812Y35289
X23062Y35789
X21562Y36039
X21062Y35539
X17062Y33789
X16562Y33789
X16062Y33539
X15187Y33289
X15562Y32539
X15062Y32164
X15562Y31539
X16562Y31789
X17062Y31539
X18062Y32039
X18562Y31664
X17562Y32539
X20312Y30664
X20562Y29289
X18937Y29039
X22437Y27664
X18562Y26164
X18062Y26414
X17562Y26539
X17062Y26789
X16062Y25414
X15062Y27164
X15562Y28039
X15562Y28664
X15062Y29039
X14562Y28539
X12562Y25914
X11562Y25789
X9187Y25414
X8187Y25414
X6812Y24789
X5937Y24414
X3937Y25039
X3687Y24664
X8187Y23789
X9187Y23789
X14562Y22539
X15562Y21039
X17562Y21039
X25562Y19039
X29562Y19039
X31937Y19039
X33812Y20664
X34687Y19039
X36562Y19039
X38312Y19039
X38562Y18164
X39812Y18164
X41187Y17539
X41562Y19039
X40562Y19539
X40187Y20039
X39062Y20039
X41187Y21039
X42312Y20039
X42687Y21039
X43062Y22039
X41562Y22164
X42312Y22914
X43437Y23039
X43812Y24039
X44187Y25039
X44562Y26039
X46062Y26414
X46562Y26914
X49062Y27539
X49062Y28539
X49062Y29539
X49062Y30539
X49062Y31539
X49062Y32539
X49062Y33539
X49062Y34414
X49187Y35414
X48187Y35664
X48562Y36289
X49062Y36414
X53062Y36039
X53062Y35039
X53062Y34039
X53062Y33039
X53062Y32039
X53062Y31039
X53062Y30039
X53062Y29039
X53062Y28039
X53062Y27039
X53062Y26039
X53062Y25039
X53062Y24039
X53062Y23039
X53062Y22039
X53062Y21039
X53062Y20039
X53062Y19039
X53062Y18039
X53062Y17039
X53062Y16039
X53062Y15039
X53062Y14039
X53062Y13039
X45687Y13039
X46062Y13539
X46562Y14539
X49062Y14539
X49062Y15539
X49062Y16539
X49062Y17539
X49062Y18539
X49062Y19539
X49062Y20414
X49062Y21664
X49062Y22539
X49062Y23539
X49062Y24539
X43812Y28039
X44187Y28414
X44562Y28789
X43437Y27664
X43062Y27289
X42687Y26914
X40937Y25164
X37562Y25164
X36562Y25539
X36062Y25914
X33812Y25164
X33312Y25539
X32812Y25914
X32312Y24539
X30687Y25164
X29312Y25914
X28312Y25539
X29187Y24039
X29812Y24039
X30437Y23914
X36062Y22539
X36937Y23539
X36562Y20414
X38562Y15414
X39687Y15039
X40562Y15039
X39062Y14039
X38187Y12414
X35687Y14039
X34062Y12414
X45687Y16664
X49062Y13539
X36937Y27664
X37562Y29289
X40937Y29289
X33812Y29414
X31562Y33164
X32187Y33539
X32562Y34164
X30312Y34414
X28937Y34289
X30312Y33164
X27437Y33164
X29312Y36039
X29187Y37539
X32187Y37539
X35187Y37539
X25687Y37539
X22062Y38539
X16562Y34914
X14812Y34914
X14562Y34539
X12562Y33414
X11562Y32539
X11562Y32039
X10062Y33414
X9562Y32539
X9312Y32164
X9312Y31414
X9312Y34164
X10937Y34664
X8062Y28164
T02
X12562Y36539
X13562Y36539
X14562Y36539
X15562Y36539
X16562Y36539
X17562Y36539
X18562Y36539
X19562Y36539
X19562Y35539
X18562Y35539
X17562Y35539
X16562Y35539
X15562Y35539
X14562Y35539
X13562Y35539
X12562Y35539
X12562Y30539
X13562Y30539
X14562Y30539
X15562Y30539
X16562Y30539
X17562Y30539
X18562Y30539
X19562Y30539
X19562Y29539
X18562Y29539
X17562Y29539
X16562Y29539
X15562Y29539
X14562Y29539
X13562Y29539
X12562Y29539
X12562Y24539
X13562Y24539
X14562Y24539
X15562Y24539
X16562Y24539
X17562Y24539
X18562Y24539
X19562Y24539
X19562Y23539
X18562Y23539
X17562Y23539
X16562Y23539
X15562Y23539
X14562Y23539
X13562Y23539
X12562Y23539
X12562Y18539
X13562Y18539
X14562Y18539
X15562Y18539
X16562Y18539
X17562Y18539
X18562Y18539
X19562Y18539
X19562Y17539
X18562Y17539
X17562Y17539
X16562Y17539
X15562Y17539
X14562Y17539
X13562Y17539
X12562Y17539
X13562Y12539
X14562Y12539
X15562Y12539
X16562Y12539
X17562Y12539
X18562Y12539
X19562Y12539
X19562Y11539
X18562Y11539
X17562Y11539
X16562Y11539
X15562Y11539
X14562Y11539
X13562Y11539
X50062Y13539
X51062Y13539
X51062Y14539
X50062Y14539
X50062Y15539
X51062Y15539
X51062Y16539
X50062Y16539
X50062Y17539
X51062Y17539
X51062Y18539
X50062Y18539
X50062Y19539
X51062Y19539
X51062Y20539
X50062Y20539
X50062Y21539
X51062Y21539
X51062Y22539
X50062Y22539
X50062Y23539
X51062Y23539
X51062Y24539
X50062Y24539
X50062Y25539
X51062Y25539
X51062Y26539
X50062Y26539
X50062Y27539
X51062Y27539
X51062Y28539
X50062Y28539
X50062Y29539
X51062Y29539
X51062Y30539
X50062Y30539
X50062Y31539
X51062Y31539
X51062Y32539
X50062Y32539
X50062Y33539
X51062Y33539
X51062Y34539
X50062Y34539
X50062Y35539
X51062Y35539
X51062Y36539
X50062Y36539
X50062Y37539
X51062Y37539
X55062Y37539
X56062Y37539
X56062Y36539
X55062Y36539
X55062Y35539
X56062Y35539
X56062Y34539
X55062Y34539
X55062Y33539
X56062Y33539
X56062Y32539
X55062Y32539
X55062Y31539
X56062Y31539
X56062Y30539
X55062Y30539
X55062Y29539
X56062Y29539
X56062Y28539
X55062Y28539
X55062Y27539
X56062Y27539
X56062Y26539
X55062Y26539
X55062Y25539
X56062Y25539
X56062Y24539
X55062Y24539
X55062Y23539
X56062Y23539
X56062Y22539
X55062Y22539
X55062Y21539
X56062Y21539
X56062Y20539
X55062Y20539
X55062Y19539
X56062Y19539
X56062Y18539
X55062Y18539
X55062Y17539
X56062Y17539
X56062Y16539
X55062Y16539
X55062Y15539
X56062Y15539
X56062Y14539
X55062Y14539
X55062Y13539
X56062Y13539
T03
X4062Y8539
X4062Y10539
X4062Y12539
X4062Y14539
X4062Y16539
X4062Y18539
X4062Y20539
X4062Y27039
X4062Y29039
X4062Y31039
X4062Y33039
X4062Y35039
T04
X54562Y3039
X54562Y5039
X54562Y7039
X54562Y9039
T05
X55562Y2039
X55562Y10039
T06
X4062Y2539
X51062Y2039
X59062Y13039
X59062Y38039
X4062Y38039
T07
X58562Y8039
X58562Y4039
M30
