G75*
%MOIN*%
%OFA0B0*%
%FSLAX24Y24*%
%IPPOS*%
%LPD*%
%AMOC8*
5,1,8,0,0,1.08239X$1,22.5*
%
%ADD10C,0.0000*%
%ADD11R,0.0634X0.0634*%
%ADD12C,0.0634*%
%ADD13C,0.0808*%
%ADD14C,0.0940*%
%ADD15C,0.1040*%
%ADD16C,0.1610*%
%ADD17C,0.2540*%
%ADD18R,0.0340X0.0890*%
%ADD19R,0.0631X0.0552*%
%ADD20R,0.0749X0.0709*%
%ADD21R,0.0434X0.0591*%
%ADD22R,0.0790X0.0290*%
%ADD23R,0.0552X0.0631*%
%ADD24R,0.0453X0.0276*%
%ADD25R,0.0300X0.0840*%
%ADD26R,0.0240X0.0350*%
%ADD27R,0.0240X0.0240*%
D10*
X002062Y000539D02*
X002062Y039909D01*
X060722Y039909D01*
X060722Y000539D01*
X002062Y000539D01*
X055062Y002039D02*
X055064Y002083D01*
X055070Y002127D01*
X055080Y002170D01*
X055093Y002212D01*
X055110Y002253D01*
X055131Y002292D01*
X055155Y002329D01*
X055182Y002364D01*
X055212Y002396D01*
X055245Y002426D01*
X055281Y002452D01*
X055318Y002476D01*
X055358Y002495D01*
X055399Y002512D01*
X055442Y002524D01*
X055485Y002533D01*
X055529Y002538D01*
X055573Y002539D01*
X055617Y002536D01*
X055661Y002529D01*
X055704Y002518D01*
X055746Y002504D01*
X055786Y002486D01*
X055825Y002464D01*
X055861Y002440D01*
X055895Y002412D01*
X055927Y002381D01*
X055956Y002347D01*
X055982Y002311D01*
X056004Y002273D01*
X056023Y002233D01*
X056038Y002191D01*
X056050Y002149D01*
X056058Y002105D01*
X056062Y002061D01*
X056062Y002017D01*
X056058Y001973D01*
X056050Y001929D01*
X056038Y001887D01*
X056023Y001845D01*
X056004Y001805D01*
X055982Y001767D01*
X055956Y001731D01*
X055927Y001697D01*
X055895Y001666D01*
X055861Y001638D01*
X055825Y001614D01*
X055786Y001592D01*
X055746Y001574D01*
X055704Y001560D01*
X055661Y001549D01*
X055617Y001542D01*
X055573Y001539D01*
X055529Y001540D01*
X055485Y001545D01*
X055442Y001554D01*
X055399Y001566D01*
X055358Y001583D01*
X055318Y001602D01*
X055281Y001626D01*
X055245Y001652D01*
X055212Y001682D01*
X055182Y001714D01*
X055155Y001749D01*
X055131Y001786D01*
X055110Y001825D01*
X055093Y001866D01*
X055080Y001908D01*
X055070Y001951D01*
X055064Y001995D01*
X055062Y002039D01*
X057777Y004039D02*
X057779Y004094D01*
X057785Y004149D01*
X057795Y004204D01*
X057808Y004258D01*
X057825Y004310D01*
X057846Y004362D01*
X057871Y004411D01*
X057899Y004459D01*
X057930Y004505D01*
X057965Y004548D01*
X058002Y004589D01*
X058042Y004627D01*
X058085Y004662D01*
X058130Y004695D01*
X058178Y004723D01*
X058227Y004749D01*
X058278Y004771D01*
X058330Y004789D01*
X058383Y004803D01*
X058438Y004814D01*
X058493Y004821D01*
X058548Y004824D01*
X058604Y004823D01*
X058659Y004818D01*
X058713Y004809D01*
X058767Y004797D01*
X058820Y004780D01*
X058872Y004760D01*
X058922Y004737D01*
X058970Y004709D01*
X059017Y004679D01*
X059061Y004645D01*
X059102Y004609D01*
X059141Y004569D01*
X059177Y004527D01*
X059210Y004482D01*
X059240Y004435D01*
X059266Y004387D01*
X059289Y004336D01*
X059308Y004284D01*
X059323Y004231D01*
X059335Y004177D01*
X059343Y004122D01*
X059347Y004067D01*
X059347Y004011D01*
X059343Y003956D01*
X059335Y003901D01*
X059323Y003847D01*
X059308Y003794D01*
X059289Y003742D01*
X059266Y003691D01*
X059240Y003643D01*
X059210Y003596D01*
X059177Y003551D01*
X059141Y003509D01*
X059102Y003469D01*
X059061Y003433D01*
X059017Y003399D01*
X058970Y003369D01*
X058922Y003341D01*
X058872Y003318D01*
X058820Y003298D01*
X058767Y003281D01*
X058713Y003269D01*
X058659Y003260D01*
X058604Y003255D01*
X058548Y003254D01*
X058493Y003257D01*
X058438Y003264D01*
X058383Y003275D01*
X058330Y003289D01*
X058278Y003307D01*
X058227Y003329D01*
X058178Y003355D01*
X058130Y003383D01*
X058085Y003416D01*
X058042Y003451D01*
X058002Y003489D01*
X057965Y003530D01*
X057930Y003573D01*
X057899Y003619D01*
X057871Y003667D01*
X057846Y003716D01*
X057825Y003768D01*
X057808Y003820D01*
X057795Y003874D01*
X057785Y003929D01*
X057779Y003984D01*
X057777Y004039D01*
X057777Y008039D02*
X057779Y008094D01*
X057785Y008149D01*
X057795Y008204D01*
X057808Y008258D01*
X057825Y008310D01*
X057846Y008362D01*
X057871Y008411D01*
X057899Y008459D01*
X057930Y008505D01*
X057965Y008548D01*
X058002Y008589D01*
X058042Y008627D01*
X058085Y008662D01*
X058130Y008695D01*
X058178Y008723D01*
X058227Y008749D01*
X058278Y008771D01*
X058330Y008789D01*
X058383Y008803D01*
X058438Y008814D01*
X058493Y008821D01*
X058548Y008824D01*
X058604Y008823D01*
X058659Y008818D01*
X058713Y008809D01*
X058767Y008797D01*
X058820Y008780D01*
X058872Y008760D01*
X058922Y008737D01*
X058970Y008709D01*
X059017Y008679D01*
X059061Y008645D01*
X059102Y008609D01*
X059141Y008569D01*
X059177Y008527D01*
X059210Y008482D01*
X059240Y008435D01*
X059266Y008387D01*
X059289Y008336D01*
X059308Y008284D01*
X059323Y008231D01*
X059335Y008177D01*
X059343Y008122D01*
X059347Y008067D01*
X059347Y008011D01*
X059343Y007956D01*
X059335Y007901D01*
X059323Y007847D01*
X059308Y007794D01*
X059289Y007742D01*
X059266Y007691D01*
X059240Y007643D01*
X059210Y007596D01*
X059177Y007551D01*
X059141Y007509D01*
X059102Y007469D01*
X059061Y007433D01*
X059017Y007399D01*
X058970Y007369D01*
X058922Y007341D01*
X058872Y007318D01*
X058820Y007298D01*
X058767Y007281D01*
X058713Y007269D01*
X058659Y007260D01*
X058604Y007255D01*
X058548Y007254D01*
X058493Y007257D01*
X058438Y007264D01*
X058383Y007275D01*
X058330Y007289D01*
X058278Y007307D01*
X058227Y007329D01*
X058178Y007355D01*
X058130Y007383D01*
X058085Y007416D01*
X058042Y007451D01*
X058002Y007489D01*
X057965Y007530D01*
X057930Y007573D01*
X057899Y007619D01*
X057871Y007667D01*
X057846Y007716D01*
X057825Y007768D01*
X057808Y007820D01*
X057795Y007874D01*
X057785Y007929D01*
X057779Y007984D01*
X057777Y008039D01*
X055062Y010039D02*
X055064Y010083D01*
X055070Y010127D01*
X055080Y010170D01*
X055093Y010212D01*
X055110Y010253D01*
X055131Y010292D01*
X055155Y010329D01*
X055182Y010364D01*
X055212Y010396D01*
X055245Y010426D01*
X055281Y010452D01*
X055318Y010476D01*
X055358Y010495D01*
X055399Y010512D01*
X055442Y010524D01*
X055485Y010533D01*
X055529Y010538D01*
X055573Y010539D01*
X055617Y010536D01*
X055661Y010529D01*
X055704Y010518D01*
X055746Y010504D01*
X055786Y010486D01*
X055825Y010464D01*
X055861Y010440D01*
X055895Y010412D01*
X055927Y010381D01*
X055956Y010347D01*
X055982Y010311D01*
X056004Y010273D01*
X056023Y010233D01*
X056038Y010191D01*
X056050Y010149D01*
X056058Y010105D01*
X056062Y010061D01*
X056062Y010017D01*
X056058Y009973D01*
X056050Y009929D01*
X056038Y009887D01*
X056023Y009845D01*
X056004Y009805D01*
X055982Y009767D01*
X055956Y009731D01*
X055927Y009697D01*
X055895Y009666D01*
X055861Y009638D01*
X055825Y009614D01*
X055786Y009592D01*
X055746Y009574D01*
X055704Y009560D01*
X055661Y009549D01*
X055617Y009542D01*
X055573Y009539D01*
X055529Y009540D01*
X055485Y009545D01*
X055442Y009554D01*
X055399Y009566D01*
X055358Y009583D01*
X055318Y009602D01*
X055281Y009626D01*
X055245Y009652D01*
X055212Y009682D01*
X055182Y009714D01*
X055155Y009749D01*
X055131Y009786D01*
X055110Y009825D01*
X055093Y009866D01*
X055080Y009908D01*
X055070Y009951D01*
X055064Y009995D01*
X055062Y010039D01*
D11*
X019562Y011539D03*
X019562Y017539D03*
X019562Y023539D03*
X019562Y029539D03*
X019562Y035539D03*
D12*
X018562Y035539D03*
X017562Y035539D03*
X016562Y035539D03*
X015562Y035539D03*
X014562Y035539D03*
X013562Y035539D03*
X012562Y035539D03*
X012562Y036539D03*
X013562Y036539D03*
X014562Y036539D03*
X015562Y036539D03*
X016562Y036539D03*
X017562Y036539D03*
X018562Y036539D03*
X019562Y036539D03*
X019562Y030539D03*
X018562Y030539D03*
X017562Y030539D03*
X016562Y030539D03*
X015562Y030539D03*
X014562Y030539D03*
X013562Y030539D03*
X012562Y030539D03*
X012562Y029539D03*
X013562Y029539D03*
X014562Y029539D03*
X015562Y029539D03*
X016562Y029539D03*
X017562Y029539D03*
X018562Y029539D03*
X018562Y024539D03*
X017562Y024539D03*
X016562Y024539D03*
X015562Y024539D03*
X014562Y024539D03*
X013562Y024539D03*
X012562Y024539D03*
X012562Y023539D03*
X013562Y023539D03*
X014562Y023539D03*
X015562Y023539D03*
X016562Y023539D03*
X017562Y023539D03*
X018562Y023539D03*
X019562Y024539D03*
X019562Y018539D03*
X018562Y018539D03*
X017562Y018539D03*
X016562Y018539D03*
X015562Y018539D03*
X014562Y018539D03*
X013562Y018539D03*
X012562Y018539D03*
X012562Y017539D03*
X013562Y017539D03*
X014562Y017539D03*
X015562Y017539D03*
X016562Y017539D03*
X017562Y017539D03*
X018562Y017539D03*
X018562Y012539D03*
X017562Y012539D03*
X016562Y012539D03*
X015562Y012539D03*
X014562Y012539D03*
X013562Y012539D03*
X013562Y011539D03*
X014562Y011539D03*
X015562Y011539D03*
X016562Y011539D03*
X017562Y011539D03*
X018562Y011539D03*
X019562Y012539D03*
X050062Y013539D03*
X051062Y013539D03*
X051062Y014539D03*
X050062Y014539D03*
X050062Y015539D03*
X051062Y015539D03*
X051062Y016539D03*
X050062Y016539D03*
X050062Y017539D03*
X051062Y017539D03*
X051062Y018539D03*
X050062Y018539D03*
X050062Y019539D03*
X051062Y019539D03*
X051062Y020539D03*
X050062Y020539D03*
X050062Y021539D03*
X051062Y021539D03*
X051062Y022539D03*
X050062Y022539D03*
X050062Y023539D03*
X051062Y023539D03*
X051062Y024539D03*
X050062Y024539D03*
X050062Y025539D03*
X051062Y025539D03*
X051062Y026539D03*
X050062Y026539D03*
X050062Y027539D03*
X051062Y027539D03*
X051062Y028539D03*
X050062Y028539D03*
X050062Y029539D03*
X051062Y029539D03*
X051062Y030539D03*
X050062Y030539D03*
X050062Y031539D03*
X051062Y031539D03*
X051062Y032539D03*
X050062Y032539D03*
X050062Y033539D03*
X051062Y033539D03*
X051062Y034539D03*
X050062Y034539D03*
X050062Y035539D03*
X051062Y035539D03*
X051062Y036539D03*
X050062Y036539D03*
X050062Y037539D03*
X051062Y037539D03*
X055062Y037539D03*
X056062Y037539D03*
X056062Y036539D03*
X055062Y036539D03*
X055062Y035539D03*
X056062Y035539D03*
X056062Y034539D03*
X055062Y034539D03*
X055062Y033539D03*
X056062Y033539D03*
X056062Y032539D03*
X055062Y032539D03*
X055062Y031539D03*
X056062Y031539D03*
X056062Y030539D03*
X055062Y030539D03*
X055062Y029539D03*
X056062Y029539D03*
X056062Y028539D03*
X055062Y028539D03*
X055062Y027539D03*
X056062Y027539D03*
X056062Y026539D03*
X055062Y026539D03*
X055062Y025539D03*
X056062Y025539D03*
X056062Y024539D03*
X055062Y024539D03*
X055062Y023539D03*
X056062Y023539D03*
X056062Y022539D03*
X055062Y022539D03*
X055062Y021539D03*
X056062Y021539D03*
X056062Y020539D03*
X055062Y020539D03*
X055062Y019539D03*
X056062Y019539D03*
X056062Y018539D03*
X055062Y018539D03*
X055062Y017539D03*
X056062Y017539D03*
X056062Y016539D03*
X055062Y016539D03*
X055062Y015539D03*
X056062Y015539D03*
X056062Y014539D03*
X055062Y014539D03*
X055062Y013539D03*
X056062Y013539D03*
D13*
X004062Y014539D03*
X004062Y016539D03*
X004062Y018539D03*
X004062Y020539D03*
X004062Y027039D03*
X004062Y029039D03*
X004062Y031039D03*
X004062Y033039D03*
X004062Y035039D03*
X004062Y012539D03*
X004062Y010539D03*
X004062Y008539D03*
D14*
X054562Y009039D03*
X054562Y007039D03*
X054562Y005039D03*
X054562Y003039D03*
D15*
X055562Y002039D03*
X055562Y010039D03*
D16*
X058562Y008039D03*
X058562Y004039D03*
D17*
X051062Y002039D03*
X059062Y013039D03*
X059062Y038039D03*
X004062Y038039D03*
X004062Y002539D03*
D18*
X023062Y007359D03*
X023562Y007359D03*
X024062Y007359D03*
X027062Y007359D03*
X027562Y007359D03*
X028062Y007359D03*
X031062Y007359D03*
X031562Y007359D03*
X032062Y007359D03*
X035062Y007359D03*
X035562Y007359D03*
X036062Y007359D03*
X039062Y007359D03*
X039562Y007359D03*
X040062Y007359D03*
X040062Y010719D03*
X039562Y010719D03*
X039062Y010719D03*
X036062Y010719D03*
X035562Y010719D03*
X035062Y010719D03*
X032062Y010719D03*
X031562Y010719D03*
X031062Y010719D03*
X028062Y010719D03*
X027562Y010719D03*
X027062Y010719D03*
X024062Y010719D03*
X023562Y010719D03*
X023062Y010719D03*
D19*
X022562Y011790D03*
X023562Y011790D03*
X023562Y012538D03*
X022562Y012538D03*
X021562Y012538D03*
X021562Y011790D03*
X023187Y014665D03*
X023187Y015413D03*
X024562Y015413D03*
X024562Y014665D03*
X026062Y014665D03*
X026062Y015413D03*
X027437Y015413D03*
X027437Y014665D03*
X026812Y012663D03*
X026812Y011915D03*
X030812Y011915D03*
X030812Y012663D03*
X034812Y012663D03*
X034812Y011915D03*
X038812Y011915D03*
X038812Y012663D03*
X038312Y007413D03*
X038312Y006665D03*
X034312Y006665D03*
X034312Y007413D03*
X030312Y007413D03*
X030312Y006665D03*
X026312Y006665D03*
X026312Y007413D03*
X022312Y007413D03*
X022312Y006665D03*
X028562Y023665D03*
X028562Y024413D03*
X023062Y026665D03*
X023062Y027413D03*
X008062Y029165D03*
X008062Y029913D03*
X007062Y029913D03*
X007062Y029165D03*
D20*
X006255Y018539D03*
X007869Y018539D03*
X007869Y016539D03*
X006255Y016539D03*
X006255Y014539D03*
X007869Y014539D03*
X007869Y012539D03*
X006255Y012539D03*
X006255Y010539D03*
X007869Y010539D03*
D21*
X024563Y013011D03*
X025311Y013011D03*
X024937Y012066D03*
X027688Y013011D03*
X028436Y013011D03*
X028062Y012066D03*
X031688Y013011D03*
X032436Y013011D03*
X032062Y012066D03*
X035688Y013011D03*
X036436Y013011D03*
X036062Y012066D03*
X039688Y013011D03*
X040436Y013011D03*
X040062Y012066D03*
D22*
X008662Y031789D03*
X008662Y032289D03*
X008662Y032789D03*
X008662Y033289D03*
X006462Y033289D03*
X006462Y032789D03*
X006462Y032289D03*
X006462Y031789D03*
D23*
X007188Y034039D03*
X007936Y034039D03*
X010188Y034039D03*
X010936Y034039D03*
X010936Y031039D03*
X010188Y031039D03*
D24*
X010031Y032165D03*
X010031Y032539D03*
X010031Y032913D03*
X011094Y032913D03*
X011094Y032539D03*
X011094Y032165D03*
D25*
X019062Y028249D03*
X019562Y028249D03*
X020062Y028249D03*
X020562Y028249D03*
X021062Y028249D03*
X021562Y028249D03*
X022062Y028249D03*
X022062Y025829D03*
X021562Y025829D03*
X021062Y025829D03*
X020562Y025829D03*
X020062Y025829D03*
X019562Y025829D03*
X019062Y025829D03*
X029312Y027019D03*
X029812Y027019D03*
X030312Y027019D03*
X030812Y027019D03*
X031312Y027019D03*
X031812Y027019D03*
X032312Y027019D03*
X032812Y027019D03*
X033312Y027019D03*
X033812Y027019D03*
X033812Y023059D03*
X033312Y023059D03*
X032812Y023059D03*
X032312Y023059D03*
X031812Y023059D03*
X031312Y023059D03*
X030812Y023059D03*
X030312Y023059D03*
X029812Y023059D03*
X029312Y023059D03*
D26*
X002312Y023984D03*
X002312Y025094D03*
D27*
X002412Y024699D03*
X002412Y024379D03*
M02*
