G75*
%MOIN*%
%OFA0B0*%
%FSLAX24Y24*%
%IPPOS*%
%LPD*%
%AMOC8*
5,1,8,0,0,1.08239X$1,22.5*
%
%ADD10C,0.0000*%
%ADD11C,0.0050*%
%ADD12C,0.0040*%
%ADD13C,0.0080*%
%ADD14C,0.0030*%
%ADD15C,0.0100*%
%ADD16R,0.0118X0.0827*%
%ADD17C,0.0060*%
%ADD18C,0.0079*%
%ADD19C,0.0020*%
D10*
X002062Y000539D02*
X002062Y039909D01*
X060722Y039909D01*
X060722Y000539D01*
X002062Y000539D01*
X055062Y002039D02*
X055064Y002083D01*
X055070Y002127D01*
X055080Y002170D01*
X055093Y002212D01*
X055110Y002253D01*
X055131Y002292D01*
X055155Y002329D01*
X055182Y002364D01*
X055212Y002396D01*
X055245Y002426D01*
X055281Y002452D01*
X055318Y002476D01*
X055358Y002495D01*
X055399Y002512D01*
X055442Y002524D01*
X055485Y002533D01*
X055529Y002538D01*
X055573Y002539D01*
X055617Y002536D01*
X055661Y002529D01*
X055704Y002518D01*
X055746Y002504D01*
X055786Y002486D01*
X055825Y002464D01*
X055861Y002440D01*
X055895Y002412D01*
X055927Y002381D01*
X055956Y002347D01*
X055982Y002311D01*
X056004Y002273D01*
X056023Y002233D01*
X056038Y002191D01*
X056050Y002149D01*
X056058Y002105D01*
X056062Y002061D01*
X056062Y002017D01*
X056058Y001973D01*
X056050Y001929D01*
X056038Y001887D01*
X056023Y001845D01*
X056004Y001805D01*
X055982Y001767D01*
X055956Y001731D01*
X055927Y001697D01*
X055895Y001666D01*
X055861Y001638D01*
X055825Y001614D01*
X055786Y001592D01*
X055746Y001574D01*
X055704Y001560D01*
X055661Y001549D01*
X055617Y001542D01*
X055573Y001539D01*
X055529Y001540D01*
X055485Y001545D01*
X055442Y001554D01*
X055399Y001566D01*
X055358Y001583D01*
X055318Y001602D01*
X055281Y001626D01*
X055245Y001652D01*
X055212Y001682D01*
X055182Y001714D01*
X055155Y001749D01*
X055131Y001786D01*
X055110Y001825D01*
X055093Y001866D01*
X055080Y001908D01*
X055070Y001951D01*
X055064Y001995D01*
X055062Y002039D01*
X057777Y004039D02*
X057779Y004094D01*
X057785Y004149D01*
X057795Y004204D01*
X057808Y004258D01*
X057825Y004310D01*
X057846Y004362D01*
X057871Y004411D01*
X057899Y004459D01*
X057930Y004505D01*
X057965Y004548D01*
X058002Y004589D01*
X058042Y004627D01*
X058085Y004662D01*
X058130Y004695D01*
X058178Y004723D01*
X058227Y004749D01*
X058278Y004771D01*
X058330Y004789D01*
X058383Y004803D01*
X058438Y004814D01*
X058493Y004821D01*
X058548Y004824D01*
X058604Y004823D01*
X058659Y004818D01*
X058713Y004809D01*
X058767Y004797D01*
X058820Y004780D01*
X058872Y004760D01*
X058922Y004737D01*
X058970Y004709D01*
X059017Y004679D01*
X059061Y004645D01*
X059102Y004609D01*
X059141Y004569D01*
X059177Y004527D01*
X059210Y004482D01*
X059240Y004435D01*
X059266Y004387D01*
X059289Y004336D01*
X059308Y004284D01*
X059323Y004231D01*
X059335Y004177D01*
X059343Y004122D01*
X059347Y004067D01*
X059347Y004011D01*
X059343Y003956D01*
X059335Y003901D01*
X059323Y003847D01*
X059308Y003794D01*
X059289Y003742D01*
X059266Y003691D01*
X059240Y003643D01*
X059210Y003596D01*
X059177Y003551D01*
X059141Y003509D01*
X059102Y003469D01*
X059061Y003433D01*
X059017Y003399D01*
X058970Y003369D01*
X058922Y003341D01*
X058872Y003318D01*
X058820Y003298D01*
X058767Y003281D01*
X058713Y003269D01*
X058659Y003260D01*
X058604Y003255D01*
X058548Y003254D01*
X058493Y003257D01*
X058438Y003264D01*
X058383Y003275D01*
X058330Y003289D01*
X058278Y003307D01*
X058227Y003329D01*
X058178Y003355D01*
X058130Y003383D01*
X058085Y003416D01*
X058042Y003451D01*
X058002Y003489D01*
X057965Y003530D01*
X057930Y003573D01*
X057899Y003619D01*
X057871Y003667D01*
X057846Y003716D01*
X057825Y003768D01*
X057808Y003820D01*
X057795Y003874D01*
X057785Y003929D01*
X057779Y003984D01*
X057777Y004039D01*
X057777Y008039D02*
X057779Y008094D01*
X057785Y008149D01*
X057795Y008204D01*
X057808Y008258D01*
X057825Y008310D01*
X057846Y008362D01*
X057871Y008411D01*
X057899Y008459D01*
X057930Y008505D01*
X057965Y008548D01*
X058002Y008589D01*
X058042Y008627D01*
X058085Y008662D01*
X058130Y008695D01*
X058178Y008723D01*
X058227Y008749D01*
X058278Y008771D01*
X058330Y008789D01*
X058383Y008803D01*
X058438Y008814D01*
X058493Y008821D01*
X058548Y008824D01*
X058604Y008823D01*
X058659Y008818D01*
X058713Y008809D01*
X058767Y008797D01*
X058820Y008780D01*
X058872Y008760D01*
X058922Y008737D01*
X058970Y008709D01*
X059017Y008679D01*
X059061Y008645D01*
X059102Y008609D01*
X059141Y008569D01*
X059177Y008527D01*
X059210Y008482D01*
X059240Y008435D01*
X059266Y008387D01*
X059289Y008336D01*
X059308Y008284D01*
X059323Y008231D01*
X059335Y008177D01*
X059343Y008122D01*
X059347Y008067D01*
X059347Y008011D01*
X059343Y007956D01*
X059335Y007901D01*
X059323Y007847D01*
X059308Y007794D01*
X059289Y007742D01*
X059266Y007691D01*
X059240Y007643D01*
X059210Y007596D01*
X059177Y007551D01*
X059141Y007509D01*
X059102Y007469D01*
X059061Y007433D01*
X059017Y007399D01*
X058970Y007369D01*
X058922Y007341D01*
X058872Y007318D01*
X058820Y007298D01*
X058767Y007281D01*
X058713Y007269D01*
X058659Y007260D01*
X058604Y007255D01*
X058548Y007254D01*
X058493Y007257D01*
X058438Y007264D01*
X058383Y007275D01*
X058330Y007289D01*
X058278Y007307D01*
X058227Y007329D01*
X058178Y007355D01*
X058130Y007383D01*
X058085Y007416D01*
X058042Y007451D01*
X058002Y007489D01*
X057965Y007530D01*
X057930Y007573D01*
X057899Y007619D01*
X057871Y007667D01*
X057846Y007716D01*
X057825Y007768D01*
X057808Y007820D01*
X057795Y007874D01*
X057785Y007929D01*
X057779Y007984D01*
X057777Y008039D01*
X055062Y010039D02*
X055064Y010083D01*
X055070Y010127D01*
X055080Y010170D01*
X055093Y010212D01*
X055110Y010253D01*
X055131Y010292D01*
X055155Y010329D01*
X055182Y010364D01*
X055212Y010396D01*
X055245Y010426D01*
X055281Y010452D01*
X055318Y010476D01*
X055358Y010495D01*
X055399Y010512D01*
X055442Y010524D01*
X055485Y010533D01*
X055529Y010538D01*
X055573Y010539D01*
X055617Y010536D01*
X055661Y010529D01*
X055704Y010518D01*
X055746Y010504D01*
X055786Y010486D01*
X055825Y010464D01*
X055861Y010440D01*
X055895Y010412D01*
X055927Y010381D01*
X055956Y010347D01*
X055982Y010311D01*
X056004Y010273D01*
X056023Y010233D01*
X056038Y010191D01*
X056050Y010149D01*
X056058Y010105D01*
X056062Y010061D01*
X056062Y010017D01*
X056058Y009973D01*
X056050Y009929D01*
X056038Y009887D01*
X056023Y009845D01*
X056004Y009805D01*
X055982Y009767D01*
X055956Y009731D01*
X055927Y009697D01*
X055895Y009666D01*
X055861Y009638D01*
X055825Y009614D01*
X055786Y009592D01*
X055746Y009574D01*
X055704Y009560D01*
X055661Y009549D01*
X055617Y009542D01*
X055573Y009539D01*
X055529Y009540D01*
X055485Y009545D01*
X055442Y009554D01*
X055399Y009566D01*
X055358Y009583D01*
X055318Y009602D01*
X055281Y009626D01*
X055245Y009652D01*
X055212Y009682D01*
X055182Y009714D01*
X055155Y009749D01*
X055131Y009786D01*
X055110Y009825D01*
X055093Y009866D01*
X055080Y009908D01*
X055070Y009951D01*
X055064Y009995D01*
X055062Y010039D01*
D11*
X004849Y007149D02*
X004849Y021932D01*
X003275Y021932D01*
X003275Y021527D01*
X003275Y021133D02*
X003275Y020728D01*
X003275Y020334D02*
X003275Y019929D01*
X003275Y019536D02*
X003275Y019130D01*
X003275Y018737D02*
X003275Y018332D01*
X003275Y017938D02*
X003275Y017533D01*
X003275Y017139D02*
X003275Y016734D01*
X003275Y016340D02*
X003275Y015935D01*
X003275Y015542D02*
X003275Y015137D01*
X003275Y014743D02*
X003275Y014338D01*
X003275Y013944D02*
X003275Y013539D01*
X003275Y013145D02*
X003275Y012740D01*
X003275Y012347D02*
X003275Y011941D01*
X003275Y011548D02*
X003275Y011143D01*
X003275Y010749D02*
X003275Y010344D01*
X003275Y009950D02*
X003275Y009545D01*
X003275Y009151D02*
X003275Y008746D01*
X003275Y008353D02*
X003275Y007948D01*
X003275Y007554D02*
X003275Y007149D01*
X000125Y007149D01*
X000125Y021932D01*
X003275Y021932D01*
X002392Y023859D02*
X002242Y023859D01*
X002242Y025219D01*
X002392Y025219D01*
X002392Y023859D01*
X002212Y024139D02*
X002012Y024139D01*
X001986Y024141D01*
X001960Y024146D01*
X001935Y024154D01*
X001912Y024166D01*
X001890Y024180D01*
X001871Y024198D01*
X001853Y024217D01*
X001839Y024239D01*
X001827Y024262D01*
X001819Y024287D01*
X001814Y024313D01*
X001812Y024339D01*
X001812Y024739D01*
X001814Y024765D01*
X001819Y024791D01*
X001827Y024816D01*
X001839Y024839D01*
X001853Y024861D01*
X001871Y024880D01*
X001890Y024898D01*
X001912Y024912D01*
X001935Y024924D01*
X001960Y024932D01*
X001986Y024937D01*
X002012Y024939D01*
X002212Y024939D01*
X002012Y024639D02*
X001912Y024539D01*
X002012Y024439D01*
X001912Y024539D02*
X002132Y024539D01*
X003275Y025649D02*
X000125Y025649D01*
X000125Y036429D01*
X003275Y036429D01*
X003275Y036024D01*
X003275Y035631D02*
X003275Y035226D01*
X003275Y034833D02*
X003275Y034428D01*
X003275Y034034D02*
X003275Y033630D01*
X003275Y033236D02*
X003275Y032832D01*
X003275Y032438D02*
X003275Y032034D01*
X003275Y031640D02*
X003275Y031236D01*
X003275Y030842D02*
X003275Y030438D01*
X003275Y030044D02*
X003275Y029639D01*
X003275Y029246D02*
X003275Y028841D01*
X003275Y028448D02*
X003275Y028043D01*
X003275Y027650D02*
X003275Y027245D01*
X003275Y026851D02*
X003275Y026447D01*
X003275Y026053D02*
X003275Y025649D01*
X004849Y025649D01*
X004849Y036429D01*
X003275Y036429D01*
X000362Y035139D02*
X000131Y035139D01*
X000134Y034939D02*
X000362Y034939D01*
X000362Y033139D02*
X000131Y033139D01*
X000127Y032939D02*
X000362Y032939D01*
X000362Y031139D02*
X000127Y031139D01*
X000131Y030939D02*
X000362Y030939D01*
X000362Y029139D02*
X000127Y029139D01*
X000127Y028939D02*
X000362Y028939D01*
X000362Y027139D02*
X000162Y027139D01*
X000132Y026939D02*
X000362Y026939D01*
X000362Y020639D02*
X000131Y020639D01*
X000134Y020439D02*
X000362Y020439D01*
X000362Y018639D02*
X000131Y018639D01*
X000134Y018439D02*
X000362Y018439D01*
X000362Y016639D02*
X000131Y016639D01*
X000134Y016439D02*
X000362Y016439D01*
X000362Y014639D02*
X000131Y014639D01*
X000127Y014439D02*
X000362Y014439D01*
X000362Y012639D02*
X000127Y012639D01*
X000131Y012439D02*
X000362Y012439D01*
X000362Y010639D02*
X000127Y010639D01*
X000127Y010439D02*
X000362Y010439D01*
X000362Y008639D02*
X000162Y008639D01*
X000132Y008439D02*
X000362Y008439D01*
X003275Y007149D02*
X004849Y007149D01*
D12*
X005082Y007184D02*
X005442Y007424D01*
X005382Y007552D02*
X005322Y007552D01*
X005262Y007612D01*
X005262Y007792D01*
X005142Y007792D02*
X005382Y007792D01*
X005442Y007732D01*
X005442Y007612D01*
X005382Y007552D01*
X005142Y007552D02*
X005082Y007612D01*
X005082Y007732D01*
X005142Y007792D01*
X005082Y007424D02*
X005442Y007184D01*
X008426Y010112D02*
X008426Y010292D01*
X008486Y010352D01*
X008726Y010352D01*
X008786Y010292D01*
X008786Y010112D01*
X008426Y010112D01*
X008426Y010480D02*
X008666Y010720D01*
X008726Y010720D01*
X008786Y010660D01*
X008786Y010540D01*
X008726Y010480D01*
X008426Y010480D02*
X008426Y010720D01*
X008426Y012112D02*
X008426Y012292D01*
X008486Y012352D01*
X008726Y012352D01*
X008786Y012292D01*
X008786Y012112D01*
X008426Y012112D01*
X008486Y012480D02*
X008426Y012540D01*
X008426Y012660D01*
X008486Y012720D01*
X008546Y012720D01*
X008606Y012660D01*
X008606Y012600D01*
X008606Y012660D02*
X008666Y012720D01*
X008726Y012720D01*
X008786Y012660D01*
X008786Y012540D01*
X008726Y012480D01*
X008786Y014112D02*
X008426Y014112D01*
X008426Y014292D01*
X008486Y014352D01*
X008726Y014352D01*
X008786Y014292D01*
X008786Y014112D01*
X008666Y014480D02*
X008786Y014600D01*
X008426Y014600D01*
X008426Y014480D02*
X008426Y014720D01*
X008426Y016112D02*
X008426Y016292D01*
X008486Y016352D01*
X008726Y016352D01*
X008786Y016292D01*
X008786Y016112D01*
X008426Y016112D01*
X008606Y016480D02*
X008606Y016720D01*
X008786Y016660D02*
X008606Y016480D01*
X008426Y016660D02*
X008786Y016660D01*
X008786Y018237D02*
X008426Y018237D01*
X008426Y018417D01*
X008486Y018477D01*
X008726Y018477D01*
X008786Y018417D01*
X008786Y018237D01*
X008786Y018605D02*
X008606Y018605D01*
X008666Y018725D01*
X008666Y018785D01*
X008606Y018845D01*
X008486Y018845D01*
X008426Y018785D01*
X008426Y018665D01*
X008486Y018605D01*
X008786Y018605D02*
X008786Y018845D01*
X005442Y025684D02*
X005082Y025924D01*
X005082Y026052D02*
X005082Y026292D01*
X005082Y026172D02*
X005442Y026172D01*
X005322Y026052D01*
X005442Y025924D02*
X005082Y025684D01*
X005142Y026420D02*
X005382Y026661D01*
X005142Y026661D01*
X005082Y026601D01*
X005082Y026481D01*
X005142Y026420D01*
X005382Y026420D01*
X005442Y026481D01*
X005442Y026601D01*
X005382Y026661D01*
X010233Y031539D02*
X010233Y031779D01*
X010294Y031839D01*
X010414Y031839D01*
X010474Y031779D01*
X010474Y031719D01*
X010414Y031659D01*
X010233Y031659D01*
X010233Y031539D02*
X010294Y031479D01*
X010414Y031479D01*
X010474Y031539D01*
X010602Y031539D02*
X010602Y031839D01*
X010842Y031839D02*
X010842Y031539D01*
X010782Y031479D01*
X010662Y031479D01*
X010602Y031539D01*
X007122Y031819D02*
X007124Y031843D01*
X007130Y031867D01*
X007139Y031889D01*
X007152Y031909D01*
X007168Y031927D01*
X007187Y031942D01*
X007208Y031955D01*
X007230Y031963D01*
X007254Y031968D01*
X007278Y031969D01*
X007302Y031966D01*
X007325Y031959D01*
X007347Y031949D01*
X007367Y031935D01*
X007384Y031918D01*
X007399Y031899D01*
X007410Y031878D01*
X007418Y031855D01*
X007422Y031831D01*
X007422Y031807D01*
X007418Y031783D01*
X007410Y031760D01*
X007399Y031739D01*
X007384Y031720D01*
X007367Y031703D01*
X007347Y031689D01*
X007325Y031679D01*
X007302Y031672D01*
X007278Y031669D01*
X007254Y031670D01*
X007230Y031675D01*
X007208Y031683D01*
X007187Y031696D01*
X007168Y031711D01*
X007152Y031729D01*
X007139Y031749D01*
X007130Y031771D01*
X007124Y031795D01*
X007122Y031819D01*
X018332Y027506D02*
X018332Y027266D01*
X018332Y027386D02*
X018692Y027386D01*
X018572Y027266D01*
X018632Y027137D02*
X018692Y027077D01*
X018692Y026957D01*
X018632Y026897D01*
X018392Y026897D01*
X018332Y026957D01*
X018332Y027077D01*
X018392Y027137D01*
X018332Y026772D02*
X018332Y026652D01*
X018332Y026712D02*
X018692Y026712D01*
X018692Y026652D02*
X018692Y026772D01*
X034282Y025538D02*
X034282Y025298D01*
X034522Y025538D01*
X034582Y025538D01*
X034642Y025478D01*
X034642Y025358D01*
X034582Y025298D01*
X034582Y025170D02*
X034642Y025110D01*
X034642Y024989D01*
X034582Y024929D01*
X034342Y024929D01*
X034282Y024989D01*
X034282Y025110D01*
X034342Y025170D01*
X034282Y024804D02*
X034282Y024684D01*
X034282Y024744D02*
X034642Y024744D01*
X034642Y024684D02*
X034642Y024804D01*
X034942Y009829D02*
X034944Y009853D01*
X034950Y009877D01*
X034959Y009899D01*
X034972Y009919D01*
X034988Y009937D01*
X035007Y009952D01*
X035028Y009965D01*
X035050Y009973D01*
X035074Y009978D01*
X035098Y009979D01*
X035122Y009976D01*
X035145Y009969D01*
X035167Y009959D01*
X035187Y009945D01*
X035204Y009928D01*
X035219Y009909D01*
X035230Y009888D01*
X035238Y009865D01*
X035242Y009841D01*
X035242Y009817D01*
X035238Y009793D01*
X035230Y009770D01*
X035219Y009749D01*
X035204Y009730D01*
X035187Y009713D01*
X035167Y009699D01*
X035145Y009689D01*
X035122Y009682D01*
X035098Y009679D01*
X035074Y009680D01*
X035050Y009685D01*
X035028Y009693D01*
X035007Y009706D01*
X034988Y009721D01*
X034972Y009739D01*
X034959Y009759D01*
X034950Y009781D01*
X034944Y009805D01*
X034942Y009829D01*
X030942Y009829D02*
X030944Y009853D01*
X030950Y009877D01*
X030959Y009899D01*
X030972Y009919D01*
X030988Y009937D01*
X031007Y009952D01*
X031028Y009965D01*
X031050Y009973D01*
X031074Y009978D01*
X031098Y009979D01*
X031122Y009976D01*
X031145Y009969D01*
X031167Y009959D01*
X031187Y009945D01*
X031204Y009928D01*
X031219Y009909D01*
X031230Y009888D01*
X031238Y009865D01*
X031242Y009841D01*
X031242Y009817D01*
X031238Y009793D01*
X031230Y009770D01*
X031219Y009749D01*
X031204Y009730D01*
X031187Y009713D01*
X031167Y009699D01*
X031145Y009689D01*
X031122Y009682D01*
X031098Y009679D01*
X031074Y009680D01*
X031050Y009685D01*
X031028Y009693D01*
X031007Y009706D01*
X030988Y009721D01*
X030972Y009739D01*
X030959Y009759D01*
X030950Y009781D01*
X030944Y009805D01*
X030942Y009829D01*
X026942Y009829D02*
X026944Y009853D01*
X026950Y009877D01*
X026959Y009899D01*
X026972Y009919D01*
X026988Y009937D01*
X027007Y009952D01*
X027028Y009965D01*
X027050Y009973D01*
X027074Y009978D01*
X027098Y009979D01*
X027122Y009976D01*
X027145Y009969D01*
X027167Y009959D01*
X027187Y009945D01*
X027204Y009928D01*
X027219Y009909D01*
X027230Y009888D01*
X027238Y009865D01*
X027242Y009841D01*
X027242Y009817D01*
X027238Y009793D01*
X027230Y009770D01*
X027219Y009749D01*
X027204Y009730D01*
X027187Y009713D01*
X027167Y009699D01*
X027145Y009689D01*
X027122Y009682D01*
X027098Y009679D01*
X027074Y009680D01*
X027050Y009685D01*
X027028Y009693D01*
X027007Y009706D01*
X026988Y009721D01*
X026972Y009739D01*
X026959Y009759D01*
X026950Y009781D01*
X026944Y009805D01*
X026942Y009829D01*
X022942Y009829D02*
X022944Y009853D01*
X022950Y009877D01*
X022959Y009899D01*
X022972Y009919D01*
X022988Y009937D01*
X023007Y009952D01*
X023028Y009965D01*
X023050Y009973D01*
X023074Y009978D01*
X023098Y009979D01*
X023122Y009976D01*
X023145Y009969D01*
X023167Y009959D01*
X023187Y009945D01*
X023204Y009928D01*
X023219Y009909D01*
X023230Y009888D01*
X023238Y009865D01*
X023242Y009841D01*
X023242Y009817D01*
X023238Y009793D01*
X023230Y009770D01*
X023219Y009749D01*
X023204Y009730D01*
X023187Y009713D01*
X023167Y009699D01*
X023145Y009689D01*
X023122Y009682D01*
X023098Y009679D01*
X023074Y009680D01*
X023050Y009685D01*
X023028Y009693D01*
X023007Y009706D01*
X022988Y009721D01*
X022972Y009739D01*
X022959Y009759D01*
X022950Y009781D01*
X022944Y009805D01*
X022942Y009829D01*
X038942Y009829D02*
X038944Y009853D01*
X038950Y009877D01*
X038959Y009899D01*
X038972Y009919D01*
X038988Y009937D01*
X039007Y009952D01*
X039028Y009965D01*
X039050Y009973D01*
X039074Y009978D01*
X039098Y009979D01*
X039122Y009976D01*
X039145Y009969D01*
X039167Y009959D01*
X039187Y009945D01*
X039204Y009928D01*
X039219Y009909D01*
X039230Y009888D01*
X039238Y009865D01*
X039242Y009841D01*
X039242Y009817D01*
X039238Y009793D01*
X039230Y009770D01*
X039219Y009749D01*
X039204Y009730D01*
X039187Y009713D01*
X039167Y009699D01*
X039145Y009689D01*
X039122Y009682D01*
X039098Y009679D01*
X039074Y009680D01*
X039050Y009685D01*
X039028Y009693D01*
X039007Y009706D01*
X038988Y009721D01*
X038972Y009739D01*
X038959Y009759D01*
X038950Y009781D01*
X038944Y009805D01*
X038942Y009829D01*
D13*
X038852Y010075D02*
X038852Y010281D01*
X040272Y010281D01*
X040272Y007797D01*
X038852Y007797D01*
X038852Y010075D01*
X040262Y010075D01*
X036272Y010281D02*
X036272Y007797D01*
X034852Y007797D01*
X034852Y010075D01*
X034852Y010281D01*
X036272Y010281D01*
X036262Y010075D02*
X034852Y010075D01*
X032272Y010281D02*
X030852Y010281D01*
X030852Y010075D01*
X030852Y007797D01*
X032272Y007797D01*
X032272Y010281D01*
X032262Y010075D02*
X030852Y010075D01*
X028272Y010281D02*
X026852Y010281D01*
X026852Y010075D01*
X026852Y007797D01*
X028272Y007797D01*
X028272Y010281D01*
X028262Y010075D02*
X026852Y010075D01*
X024272Y010281D02*
X022852Y010281D01*
X022852Y010075D01*
X022852Y007797D01*
X024272Y007797D01*
X024272Y010281D01*
X024262Y010075D02*
X022852Y010075D01*
X008304Y031579D02*
X007026Y031579D01*
X006820Y031579D01*
X006820Y033499D01*
X008304Y033499D01*
X008304Y031579D01*
X007026Y031579D02*
X007026Y033489D01*
D14*
X007230Y034529D02*
X007354Y034529D01*
X007415Y034591D01*
X007415Y034652D01*
X007354Y034714D01*
X007230Y034714D01*
X007168Y034652D01*
X007168Y034591D01*
X007230Y034529D01*
X007230Y034714D02*
X007168Y034776D01*
X007168Y034837D01*
X007230Y034899D01*
X007354Y034899D01*
X007415Y034837D01*
X007415Y034776D01*
X007354Y034714D01*
X007537Y034652D02*
X007537Y034591D01*
X007598Y034529D01*
X007722Y034529D01*
X007784Y034591D01*
X007905Y034591D02*
X007967Y034529D01*
X008090Y034529D01*
X008152Y034591D01*
X008152Y034837D01*
X008090Y034899D01*
X007967Y034899D01*
X007905Y034837D01*
X007784Y034837D02*
X007722Y034899D01*
X007598Y034899D01*
X007537Y034837D01*
X007537Y034776D01*
X007598Y034714D01*
X007537Y034652D01*
X007598Y034714D02*
X007660Y034714D01*
X011543Y034087D02*
X011543Y034026D01*
X011605Y033964D01*
X011729Y033964D01*
X011790Y034026D01*
X011790Y034087D01*
X011729Y034149D01*
X011605Y034149D01*
X011543Y034087D01*
X011605Y033964D02*
X011543Y033902D01*
X011543Y033841D01*
X011605Y033779D01*
X011729Y033779D01*
X011790Y033841D01*
X011790Y033902D01*
X011729Y033964D01*
X011912Y033779D02*
X012159Y033779D01*
X012280Y033779D02*
X012404Y033902D01*
X012342Y033902D02*
X012527Y033902D01*
X012527Y033779D02*
X012527Y034149D01*
X012342Y034149D01*
X012280Y034087D01*
X012280Y033964D01*
X012342Y033902D01*
X012159Y034026D02*
X012035Y034149D01*
X012035Y033779D01*
X008152Y031399D02*
X008152Y031091D01*
X008090Y031029D01*
X007967Y031029D01*
X007905Y031091D01*
X007905Y031399D01*
X007784Y031276D02*
X007660Y031399D01*
X007660Y031029D01*
X007537Y031029D02*
X007784Y031029D01*
X007415Y031091D02*
X007168Y031337D01*
X007168Y031091D01*
X007230Y031029D01*
X007354Y031029D01*
X007415Y031091D01*
X007415Y031337D01*
X007354Y031399D01*
X007230Y031399D01*
X007168Y031337D01*
X006486Y029932D02*
X006239Y029686D01*
X006177Y029747D01*
X006177Y029871D01*
X006239Y029932D01*
X006486Y029932D01*
X006547Y029871D01*
X006547Y029747D01*
X006486Y029686D01*
X006239Y029686D01*
X006177Y029564D02*
X006177Y029317D01*
X006424Y029564D01*
X006486Y029564D01*
X006547Y029502D01*
X006547Y029379D01*
X006486Y029317D01*
X006486Y029196D02*
X006362Y029196D01*
X006300Y029134D01*
X006300Y028949D01*
X006177Y028949D02*
X006547Y028949D01*
X006547Y029134D01*
X006486Y029196D01*
X006300Y029072D02*
X006177Y029196D01*
X008552Y029196D02*
X008675Y029072D01*
X008675Y029134D02*
X008675Y028949D01*
X008552Y028949D02*
X008922Y028949D01*
X008922Y029134D01*
X008861Y029196D01*
X008737Y029196D01*
X008675Y029134D01*
X008552Y029317D02*
X008799Y029564D01*
X008861Y029564D01*
X008922Y029502D01*
X008922Y029379D01*
X008861Y029317D01*
X008552Y029317D02*
X008552Y029564D01*
X008552Y029686D02*
X008799Y029932D01*
X008861Y029932D01*
X008922Y029871D01*
X008922Y029747D01*
X008861Y029686D01*
X008552Y029686D02*
X008552Y029932D01*
X010293Y030216D02*
X010293Y030462D01*
X010355Y030524D01*
X010479Y030524D01*
X010540Y030462D01*
X010540Y030401D01*
X010479Y030339D01*
X010293Y030339D01*
X010293Y030216D02*
X010355Y030154D01*
X010479Y030154D01*
X010540Y030216D01*
X010662Y030154D02*
X010909Y030154D01*
X011030Y030154D02*
X011154Y030277D01*
X011092Y030277D02*
X011277Y030277D01*
X011277Y030154D02*
X011277Y030524D01*
X011092Y030524D01*
X011030Y030462D01*
X011030Y030339D01*
X011092Y030277D01*
X010909Y030401D02*
X010785Y030524D01*
X010785Y030154D01*
X003022Y024819D02*
X002961Y024696D01*
X002837Y024572D01*
X002837Y024757D01*
X002775Y024819D01*
X002714Y024819D01*
X002652Y024757D01*
X002652Y024634D01*
X002714Y024572D01*
X002837Y024572D01*
X002714Y024451D02*
X002961Y024451D01*
X003022Y024389D01*
X003022Y024204D01*
X002652Y024204D01*
X002652Y024389D01*
X002714Y024451D01*
X022807Y016237D02*
X022807Y015991D01*
X022869Y015929D01*
X022992Y015929D01*
X023054Y015991D01*
X023175Y015929D02*
X023299Y016052D01*
X023237Y016052D02*
X023422Y016052D01*
X023422Y015929D02*
X023422Y016299D01*
X023237Y016299D01*
X023175Y016237D01*
X023175Y016114D01*
X023237Y016052D01*
X023054Y016176D02*
X022992Y016114D01*
X022807Y016114D01*
X022807Y016237D02*
X022869Y016299D01*
X022992Y016299D01*
X023054Y016237D01*
X023054Y016176D01*
X024064Y015929D02*
X024310Y015929D01*
X024432Y015929D02*
X024679Y015929D01*
X024800Y015929D02*
X024924Y016052D01*
X024862Y016052D02*
X025047Y016052D01*
X025047Y015929D02*
X025047Y016299D01*
X024862Y016299D01*
X024800Y016237D01*
X024800Y016114D01*
X024862Y016052D01*
X024679Y016176D02*
X024555Y016299D01*
X024555Y015929D01*
X024310Y016176D02*
X024187Y016299D01*
X024187Y015929D01*
X025682Y015991D02*
X025744Y015929D01*
X025867Y015929D01*
X025929Y015991D01*
X025929Y016052D01*
X025867Y016114D01*
X025744Y016114D01*
X025682Y016052D01*
X025682Y015991D01*
X025744Y016114D02*
X025682Y016176D01*
X025682Y016237D01*
X025744Y016299D01*
X025867Y016299D01*
X025929Y016237D01*
X025929Y016176D01*
X025867Y016114D01*
X026050Y016114D02*
X026112Y016052D01*
X026297Y016052D01*
X026297Y015929D02*
X026297Y016299D01*
X026112Y016299D01*
X026050Y016237D01*
X026050Y016114D01*
X026174Y016052D02*
X026050Y015929D01*
X026814Y015991D02*
X026875Y015929D01*
X026999Y015929D01*
X027060Y015991D01*
X026814Y016237D01*
X026814Y015991D01*
X027060Y015991D02*
X027060Y016237D01*
X026999Y016299D01*
X026875Y016299D01*
X026814Y016237D01*
X027182Y015929D02*
X027429Y015929D01*
X027550Y015929D02*
X027674Y016052D01*
X027612Y016052D02*
X027797Y016052D01*
X027797Y015929D02*
X027797Y016299D01*
X027612Y016299D01*
X027550Y016237D01*
X027550Y016114D01*
X027612Y016052D01*
X027429Y016176D02*
X027305Y016299D01*
X027305Y015929D01*
X027297Y013549D02*
X027112Y013549D01*
X027050Y013487D01*
X027050Y013364D01*
X027112Y013302D01*
X027297Y013302D01*
X027297Y013179D02*
X027297Y013549D01*
X027174Y013302D02*
X027050Y013179D01*
X026929Y013179D02*
X026682Y013179D01*
X026805Y013179D02*
X026805Y013549D01*
X026929Y013426D01*
X026560Y013364D02*
X026437Y013426D01*
X026375Y013426D01*
X026314Y013364D01*
X026314Y013241D01*
X026375Y013179D01*
X026499Y013179D01*
X026560Y013241D01*
X026560Y013364D02*
X026560Y013549D01*
X026314Y013549D01*
X026097Y011899D02*
X025973Y011899D01*
X025912Y011837D01*
X025912Y011591D01*
X025973Y011529D01*
X026097Y011529D01*
X026159Y011591D01*
X026159Y011837D01*
X026097Y011899D01*
X026035Y011652D02*
X025912Y011529D01*
X025790Y011714D02*
X025543Y011714D01*
X025605Y011529D02*
X025605Y011899D01*
X025790Y011714D01*
X025152Y011649D02*
X025152Y011279D01*
X025152Y011402D02*
X024967Y011402D01*
X024905Y011464D01*
X024905Y011587D01*
X024967Y011649D01*
X025152Y011649D01*
X025029Y011402D02*
X024905Y011279D01*
X024784Y011279D02*
X024537Y011279D01*
X024660Y011279D02*
X024660Y011649D01*
X024784Y011526D01*
X024415Y011587D02*
X024354Y011649D01*
X024230Y011649D01*
X024168Y011587D01*
X024168Y011526D01*
X024230Y011464D01*
X024168Y011402D01*
X024168Y011341D01*
X024230Y011279D01*
X024354Y011279D01*
X024415Y011341D01*
X024292Y011464D02*
X024230Y011464D01*
X022672Y011182D02*
X022611Y011182D01*
X022364Y010936D01*
X022302Y010936D01*
X022302Y010814D02*
X022425Y010691D01*
X022425Y010752D02*
X022425Y010567D01*
X022302Y010567D02*
X022672Y010567D01*
X022672Y010752D01*
X022611Y010814D01*
X022487Y010814D01*
X022425Y010752D01*
X022672Y010936D02*
X022672Y011182D01*
X021672Y011182D02*
X021611Y011059D01*
X021487Y010936D01*
X021487Y011121D01*
X021425Y011182D01*
X021364Y011182D01*
X021302Y011121D01*
X021302Y010997D01*
X021364Y010936D01*
X021487Y010936D01*
X021487Y010814D02*
X021425Y010752D01*
X021425Y010567D01*
X021302Y010567D02*
X021672Y010567D01*
X021672Y010752D01*
X021611Y010814D01*
X021487Y010814D01*
X021425Y010691D02*
X021302Y010814D01*
X022364Y009557D02*
X022302Y009496D01*
X022302Y009372D01*
X022364Y009311D01*
X022364Y009189D02*
X022672Y009189D01*
X022672Y009311D02*
X022487Y009311D01*
X022549Y009434D01*
X022549Y009496D01*
X022487Y009557D01*
X022364Y009557D01*
X022672Y009557D02*
X022672Y009311D01*
X022364Y009189D02*
X022302Y009127D01*
X022302Y009004D01*
X022364Y008942D01*
X022672Y008942D01*
X021736Y007307D02*
X021797Y007246D01*
X021797Y007122D01*
X021736Y007061D01*
X021674Y007061D01*
X021612Y007122D01*
X021612Y007307D01*
X021489Y007307D02*
X021736Y007307D01*
X021489Y007307D02*
X021427Y007246D01*
X021427Y007122D01*
X021489Y007061D01*
X021427Y006939D02*
X021427Y006692D01*
X021674Y006939D01*
X021736Y006939D01*
X021797Y006877D01*
X021797Y006754D01*
X021736Y006692D01*
X021736Y006571D02*
X021797Y006509D01*
X021797Y006386D01*
X021736Y006324D01*
X021489Y006324D01*
X021427Y006386D01*
X021427Y006509D01*
X021489Y006571D01*
X025427Y006509D02*
X025427Y006386D01*
X025489Y006324D01*
X025736Y006324D01*
X025797Y006386D01*
X025797Y006509D01*
X025736Y006571D01*
X025736Y006692D02*
X025797Y006754D01*
X025797Y006877D01*
X025736Y006939D01*
X025674Y006939D01*
X025427Y006692D01*
X025427Y006939D01*
X025489Y007061D02*
X025550Y007061D01*
X025612Y007122D01*
X025612Y007246D01*
X025550Y007307D01*
X025489Y007307D01*
X025427Y007246D01*
X025427Y007122D01*
X025489Y007061D01*
X025612Y007122D02*
X025674Y007061D01*
X025736Y007061D01*
X025797Y007122D01*
X025797Y007246D01*
X025736Y007307D01*
X025674Y007307D01*
X025612Y007246D01*
X025489Y006571D02*
X025427Y006509D01*
X026364Y008942D02*
X026302Y009004D01*
X026302Y009127D01*
X026364Y009189D01*
X026672Y009189D01*
X026487Y009311D02*
X026487Y009496D01*
X026425Y009557D01*
X026364Y009557D01*
X026302Y009496D01*
X026302Y009372D01*
X026364Y009311D01*
X026487Y009311D01*
X026611Y009434D01*
X026672Y009557D01*
X026672Y008942D02*
X026364Y008942D01*
X029427Y007246D02*
X029427Y007122D01*
X029489Y007061D01*
X029736Y007307D01*
X029489Y007307D01*
X029427Y007246D01*
X029489Y007061D02*
X029736Y007061D01*
X029797Y007122D01*
X029797Y007246D01*
X029736Y007307D01*
X029736Y006939D02*
X029674Y006939D01*
X029612Y006877D01*
X029550Y006939D01*
X029489Y006939D01*
X029427Y006877D01*
X029427Y006754D01*
X029489Y006692D01*
X029489Y006571D02*
X029427Y006509D01*
X029427Y006386D01*
X029489Y006324D01*
X029736Y006324D01*
X029797Y006386D01*
X029797Y006509D01*
X029736Y006571D01*
X029736Y006692D02*
X029797Y006754D01*
X029797Y006877D01*
X029736Y006939D01*
X029612Y006877D02*
X029612Y006816D01*
X030364Y008942D02*
X030302Y009004D01*
X030302Y009127D01*
X030364Y009189D01*
X030672Y009189D01*
X030487Y009311D02*
X030487Y009557D01*
X030302Y009496D02*
X030672Y009496D01*
X030487Y009311D01*
X030364Y008942D02*
X030672Y008942D01*
X033427Y007307D02*
X033427Y007061D01*
X033427Y007184D02*
X033797Y007184D01*
X033674Y007061D01*
X033674Y006939D02*
X033612Y006877D01*
X033550Y006939D01*
X033489Y006939D01*
X033427Y006877D01*
X033427Y006754D01*
X033489Y006692D01*
X033489Y006571D02*
X033427Y006509D01*
X033427Y006386D01*
X033489Y006324D01*
X033736Y006324D01*
X033797Y006386D01*
X033797Y006509D01*
X033736Y006571D01*
X033736Y006692D02*
X033797Y006754D01*
X033797Y006877D01*
X033736Y006939D01*
X033674Y006939D01*
X033612Y006877D02*
X033612Y006816D01*
X034364Y008942D02*
X034302Y009004D01*
X034302Y009127D01*
X034364Y009189D01*
X034672Y009189D01*
X034672Y009311D02*
X034672Y009557D01*
X034611Y009557D01*
X034364Y009311D01*
X034302Y009311D01*
X034364Y008942D02*
X034672Y008942D01*
X037427Y007307D02*
X037427Y007061D01*
X037674Y007307D01*
X037736Y007307D01*
X037797Y007246D01*
X037797Y007122D01*
X037736Y007061D01*
X037736Y006939D02*
X037674Y006939D01*
X037612Y006877D01*
X037550Y006939D01*
X037489Y006939D01*
X037427Y006877D01*
X037427Y006754D01*
X037489Y006692D01*
X037489Y006571D02*
X037427Y006509D01*
X037427Y006386D01*
X037489Y006324D01*
X037736Y006324D01*
X037797Y006386D01*
X037797Y006509D01*
X037736Y006571D01*
X037736Y006692D02*
X037797Y006754D01*
X037797Y006877D01*
X037736Y006939D01*
X037612Y006877D02*
X037612Y006816D01*
X038364Y008942D02*
X038302Y009004D01*
X038302Y009127D01*
X038364Y009189D01*
X038672Y009189D01*
X038611Y009311D02*
X038549Y009311D01*
X038487Y009372D01*
X038487Y009496D01*
X038425Y009557D01*
X038364Y009557D01*
X038302Y009496D01*
X038302Y009372D01*
X038364Y009311D01*
X038425Y009311D01*
X038487Y009372D01*
X038487Y009496D02*
X038549Y009557D01*
X038611Y009557D01*
X038672Y009496D01*
X038672Y009372D01*
X038611Y009311D01*
X038672Y008942D02*
X038364Y008942D01*
X037136Y012179D02*
X036889Y012179D01*
X036827Y012241D01*
X036827Y012364D01*
X036889Y012426D01*
X037136Y012426D01*
X037197Y012364D01*
X037197Y012241D01*
X037136Y012179D01*
X036950Y012302D02*
X036827Y012426D01*
X036889Y012547D02*
X036827Y012609D01*
X036827Y012732D01*
X036889Y012794D01*
X037136Y012794D01*
X037197Y012732D01*
X037197Y012609D01*
X037136Y012547D01*
X037074Y012547D01*
X037012Y012609D01*
X037012Y012794D01*
X038189Y013487D02*
X038435Y013241D01*
X038435Y013179D01*
X038557Y013179D02*
X038804Y013179D01*
X038925Y013179D02*
X039049Y013302D01*
X038987Y013302D02*
X039172Y013302D01*
X039172Y013179D02*
X039172Y013549D01*
X038987Y013549D01*
X038925Y013487D01*
X038925Y013364D01*
X038987Y013302D01*
X038804Y013426D02*
X038680Y013549D01*
X038680Y013179D01*
X038435Y013549D02*
X038189Y013549D01*
X038189Y013487D01*
X040827Y013101D02*
X040827Y012977D01*
X040889Y012915D01*
X041136Y013162D01*
X040889Y013162D01*
X040827Y013101D01*
X040889Y012915D02*
X041136Y012915D01*
X041197Y012977D01*
X041197Y013101D01*
X041136Y013162D01*
X040827Y012794D02*
X040827Y012547D01*
X040827Y012426D02*
X040950Y012302D01*
X040827Y012241D02*
X040889Y012179D01*
X041136Y012179D01*
X041197Y012241D01*
X041197Y012364D01*
X041136Y012426D01*
X040889Y012426D01*
X040827Y012364D01*
X040827Y012241D01*
X041074Y012547D02*
X041197Y012671D01*
X040827Y012671D01*
X035172Y013179D02*
X035172Y013549D01*
X034987Y013549D01*
X034925Y013487D01*
X034925Y013364D01*
X034987Y013302D01*
X035172Y013302D01*
X035049Y013302D02*
X034925Y013179D01*
X034804Y013179D02*
X034557Y013179D01*
X034680Y013179D02*
X034680Y013549D01*
X034804Y013426D01*
X034435Y013364D02*
X034250Y013364D01*
X034189Y013302D01*
X034189Y013241D01*
X034250Y013179D01*
X034374Y013179D01*
X034435Y013241D01*
X034435Y013364D01*
X034312Y013487D01*
X034189Y013549D01*
X033197Y012732D02*
X033136Y012794D01*
X033074Y012794D01*
X033012Y012732D01*
X032950Y012794D01*
X032889Y012794D01*
X032827Y012732D01*
X032827Y012609D01*
X032889Y012547D01*
X032889Y012426D02*
X032827Y012364D01*
X032827Y012241D01*
X032889Y012179D01*
X033136Y012179D01*
X033197Y012241D01*
X033197Y012364D01*
X033136Y012426D01*
X032889Y012426D01*
X032827Y012426D02*
X032950Y012302D01*
X033136Y012547D02*
X033197Y012609D01*
X033197Y012732D01*
X033012Y012732D02*
X033012Y012671D01*
X030297Y011871D02*
X030297Y011747D01*
X030236Y011686D01*
X030297Y011871D02*
X030236Y011932D01*
X030174Y011932D01*
X029927Y011686D01*
X029927Y011932D01*
X029927Y011564D02*
X029927Y011317D01*
X029927Y011196D02*
X030050Y011072D01*
X030050Y011134D02*
X030050Y010949D01*
X029927Y010949D02*
X030297Y010949D01*
X030297Y011134D01*
X030236Y011196D01*
X030112Y011196D01*
X030050Y011134D01*
X030174Y011317D02*
X030297Y011441D01*
X029927Y011441D01*
X029136Y012179D02*
X029197Y012241D01*
X029197Y012364D01*
X029136Y012426D01*
X028889Y012426D01*
X028827Y012364D01*
X028827Y012241D01*
X028889Y012179D01*
X029136Y012179D01*
X028950Y012302D02*
X028827Y012426D01*
X028889Y012547D02*
X028950Y012547D01*
X029012Y012609D01*
X029012Y012732D01*
X028950Y012794D01*
X028889Y012794D01*
X028827Y012732D01*
X028827Y012609D01*
X028889Y012547D01*
X029012Y012609D02*
X029074Y012547D01*
X029136Y012547D01*
X029197Y012609D01*
X029197Y012732D01*
X029136Y012794D01*
X029074Y012794D01*
X029012Y012732D01*
X028011Y023554D02*
X027764Y023554D01*
X027702Y023616D01*
X027702Y023739D01*
X027764Y023801D01*
X027702Y023922D02*
X027702Y024169D01*
X027702Y024046D02*
X028072Y024046D01*
X027949Y023922D01*
X028011Y023801D02*
X028072Y023739D01*
X028072Y023616D01*
X028011Y023554D01*
X028072Y024290D02*
X027887Y024290D01*
X027949Y024414D01*
X027949Y024476D01*
X027887Y024537D01*
X027764Y024537D01*
X027702Y024476D01*
X027702Y024352D01*
X027764Y024290D01*
X028072Y024290D02*
X028072Y024537D01*
X023947Y026616D02*
X023886Y026554D01*
X023639Y026554D01*
X023577Y026616D01*
X023577Y026739D01*
X023639Y026801D01*
X023577Y026922D02*
X023577Y027169D01*
X023577Y027046D02*
X023947Y027046D01*
X023824Y026922D01*
X023886Y026801D02*
X023947Y026739D01*
X023947Y026616D01*
X023762Y027290D02*
X023762Y027537D01*
X023577Y027476D02*
X023947Y027476D01*
X023762Y027290D01*
D15*
X007377Y018539D02*
X006964Y018263D01*
X006964Y018834D01*
X007377Y018539D01*
X006964Y016834D02*
X006964Y016263D01*
X007377Y016539D01*
X006964Y016834D01*
X006964Y014834D02*
X006964Y014263D01*
X007377Y014539D01*
X006964Y014834D01*
X006964Y012834D02*
X006964Y012263D01*
X007377Y012539D01*
X006964Y012834D01*
X006964Y010834D02*
X006964Y010263D01*
X007377Y010539D01*
X006964Y010834D01*
D16*
X007397Y010539D03*
X007397Y012539D03*
X007397Y014539D03*
X007397Y016539D03*
X007397Y018539D03*
D17*
X018812Y026419D02*
X018812Y027659D01*
X018814Y027682D01*
X018819Y027705D01*
X018828Y027727D01*
X018841Y027747D01*
X018856Y027765D01*
X018874Y027780D01*
X018894Y027793D01*
X018916Y027802D01*
X018939Y027807D01*
X018962Y027809D01*
X022162Y027809D01*
X022185Y027807D01*
X022208Y027802D01*
X022230Y027793D01*
X022250Y027780D01*
X022268Y027765D01*
X022283Y027747D01*
X022296Y027727D01*
X022305Y027705D01*
X022310Y027682D01*
X022312Y027659D01*
X022312Y027239D01*
X022312Y026839D01*
X022312Y026419D01*
X022310Y026396D01*
X022305Y026373D01*
X022296Y026351D01*
X022283Y026331D01*
X022268Y026313D01*
X022250Y026298D01*
X022230Y026285D01*
X022208Y026276D01*
X022185Y026271D01*
X022162Y026269D01*
X018962Y026269D01*
X018939Y026271D01*
X018916Y026276D01*
X018894Y026285D01*
X018874Y026298D01*
X018856Y026313D01*
X018841Y026331D01*
X018828Y026351D01*
X018819Y026373D01*
X018814Y026396D01*
X018812Y026419D01*
X022312Y026839D02*
X022285Y026841D01*
X022258Y026846D01*
X022232Y026856D01*
X022208Y026868D01*
X022186Y026884D01*
X022166Y026902D01*
X022149Y026924D01*
X022134Y026947D01*
X022124Y026972D01*
X022116Y026998D01*
X022112Y027025D01*
X022112Y027053D01*
X022116Y027080D01*
X022124Y027106D01*
X022134Y027131D01*
X022149Y027154D01*
X022166Y027176D01*
X022186Y027194D01*
X022208Y027210D01*
X022232Y027222D01*
X022258Y027232D01*
X022285Y027237D01*
X022312Y027239D01*
X029002Y026359D02*
X029002Y025539D01*
X029002Y024539D01*
X029002Y023719D01*
X029004Y023696D01*
X029009Y023673D01*
X029018Y023651D01*
X029031Y023631D01*
X029046Y023613D01*
X029064Y023598D01*
X029084Y023585D01*
X029106Y023576D01*
X029129Y023571D01*
X029152Y023569D01*
X029002Y024539D02*
X029046Y024541D01*
X029089Y024547D01*
X029131Y024556D01*
X029173Y024569D01*
X029213Y024586D01*
X029252Y024606D01*
X029289Y024629D01*
X029323Y024656D01*
X029356Y024685D01*
X029385Y024718D01*
X029412Y024752D01*
X029435Y024789D01*
X029455Y024828D01*
X029472Y024868D01*
X029485Y024910D01*
X029494Y024952D01*
X029500Y024995D01*
X029502Y025039D01*
X029500Y025083D01*
X029494Y025126D01*
X029485Y025168D01*
X029472Y025210D01*
X029455Y025250D01*
X029435Y025289D01*
X029412Y025326D01*
X029385Y025360D01*
X029356Y025393D01*
X029323Y025422D01*
X029289Y025449D01*
X029252Y025472D01*
X029213Y025492D01*
X029173Y025509D01*
X029131Y025522D01*
X029089Y025531D01*
X029046Y025537D01*
X029002Y025539D01*
X029002Y026359D02*
X029004Y026382D01*
X029009Y026405D01*
X029018Y026427D01*
X029031Y026447D01*
X029046Y026465D01*
X029064Y026480D01*
X029084Y026493D01*
X029106Y026502D01*
X029129Y026507D01*
X029152Y026509D01*
X033972Y026509D02*
X033995Y026507D01*
X034018Y026502D01*
X034040Y026493D01*
X034060Y026480D01*
X034078Y026465D01*
X034093Y026447D01*
X034106Y026427D01*
X034115Y026405D01*
X034120Y026382D01*
X034122Y026359D01*
X034122Y023719D01*
X034120Y023696D01*
X034115Y023673D01*
X034106Y023651D01*
X034093Y023631D01*
X034078Y023613D01*
X034060Y023598D01*
X034040Y023585D01*
X034018Y023576D01*
X033995Y023571D01*
X033972Y023569D01*
X010869Y031979D02*
X010255Y031979D01*
X010255Y033099D02*
X010869Y033099D01*
D18*
X010365Y032086D03*
D19*
X018812Y026409D02*
X022312Y026409D01*
X029012Y026369D02*
X034112Y026369D01*
M02*
