G75*
%MOIN*%
%OFA0B0*%
%FSLAX24Y24*%
%IPPOS*%
%LPD*%
%AMOC8*
5,1,8,0,0,1.08239X$1,22.5*
%
%ADD10C,0.0000*%
%ADD11C,0.0030*%
%ADD12R,0.0118X0.0059*%
%ADD13R,0.0118X0.0118*%
%ADD14C,0.0060*%
%ADD15C,0.0050*%
%ADD16C,0.0040*%
%ADD17R,0.2402X0.0157*%
%ADD18R,0.1417X0.0157*%
%ADD19R,0.1220X0.0157*%
%ADD20C,0.0080*%
%ADD21C,0.0004*%
%ADD22C,0.0030*%
D10*
X004062Y003000D02*
X004062Y022292D01*
X023353Y022292D01*
X023353Y003000D01*
X004062Y003000D01*
X006471Y009079D02*
X006473Y009127D01*
X006479Y009175D01*
X006489Y009222D01*
X006502Y009268D01*
X006520Y009313D01*
X006540Y009357D01*
X006565Y009399D01*
X006593Y009438D01*
X006623Y009475D01*
X006657Y009509D01*
X006694Y009541D01*
X006732Y009570D01*
X006773Y009595D01*
X006816Y009617D01*
X006861Y009635D01*
X006907Y009649D01*
X006954Y009660D01*
X007002Y009667D01*
X007050Y009670D01*
X007098Y009669D01*
X007146Y009664D01*
X007194Y009655D01*
X007240Y009643D01*
X007285Y009626D01*
X007329Y009606D01*
X007371Y009583D01*
X007411Y009556D01*
X007449Y009526D01*
X007484Y009493D01*
X007516Y009457D01*
X007546Y009419D01*
X007572Y009378D01*
X007594Y009335D01*
X007614Y009291D01*
X007629Y009246D01*
X007641Y009199D01*
X007649Y009151D01*
X007653Y009103D01*
X007653Y009055D01*
X007649Y009007D01*
X007641Y008959D01*
X007629Y008912D01*
X007614Y008867D01*
X007594Y008823D01*
X007572Y008780D01*
X007546Y008739D01*
X007516Y008701D01*
X007484Y008665D01*
X007449Y008632D01*
X007411Y008602D01*
X007371Y008575D01*
X007329Y008552D01*
X007285Y008532D01*
X007240Y008515D01*
X007194Y008503D01*
X007146Y008494D01*
X007098Y008489D01*
X007050Y008488D01*
X007002Y008491D01*
X006954Y008498D01*
X006907Y008509D01*
X006861Y008523D01*
X006816Y008541D01*
X006773Y008563D01*
X006732Y008588D01*
X006694Y008617D01*
X006657Y008649D01*
X006623Y008683D01*
X006593Y008720D01*
X006565Y008759D01*
X006540Y008801D01*
X006520Y008845D01*
X006502Y008890D01*
X006489Y008936D01*
X006479Y008983D01*
X006473Y009031D01*
X006471Y009079D01*
X006471Y018921D02*
X006473Y018969D01*
X006479Y019017D01*
X006489Y019064D01*
X006502Y019110D01*
X006520Y019155D01*
X006540Y019199D01*
X006565Y019241D01*
X006593Y019280D01*
X006623Y019317D01*
X006657Y019351D01*
X006694Y019383D01*
X006732Y019412D01*
X006773Y019437D01*
X006816Y019459D01*
X006861Y019477D01*
X006907Y019491D01*
X006954Y019502D01*
X007002Y019509D01*
X007050Y019512D01*
X007098Y019511D01*
X007146Y019506D01*
X007194Y019497D01*
X007240Y019485D01*
X007285Y019468D01*
X007329Y019448D01*
X007371Y019425D01*
X007411Y019398D01*
X007449Y019368D01*
X007484Y019335D01*
X007516Y019299D01*
X007546Y019261D01*
X007572Y019220D01*
X007594Y019177D01*
X007614Y019133D01*
X007629Y019088D01*
X007641Y019041D01*
X007649Y018993D01*
X007653Y018945D01*
X007653Y018897D01*
X007649Y018849D01*
X007641Y018801D01*
X007629Y018754D01*
X007614Y018709D01*
X007594Y018665D01*
X007572Y018622D01*
X007546Y018581D01*
X007516Y018543D01*
X007484Y018507D01*
X007449Y018474D01*
X007411Y018444D01*
X007371Y018417D01*
X007329Y018394D01*
X007285Y018374D01*
X007240Y018357D01*
X007194Y018345D01*
X007146Y018336D01*
X007098Y018331D01*
X007050Y018330D01*
X007002Y018333D01*
X006954Y018340D01*
X006907Y018351D01*
X006861Y018365D01*
X006816Y018383D01*
X006773Y018405D01*
X006732Y018430D01*
X006694Y018459D01*
X006657Y018491D01*
X006623Y018525D01*
X006593Y018562D01*
X006565Y018601D01*
X006540Y018643D01*
X006520Y018687D01*
X006502Y018732D01*
X006489Y018778D01*
X006479Y018825D01*
X006473Y018873D01*
X006471Y018921D01*
D11*
X006555Y020615D02*
X006309Y020615D01*
X006555Y020862D01*
X006555Y020924D01*
X006494Y020986D01*
X006370Y020986D01*
X006309Y020924D01*
X006187Y020924D02*
X006125Y020986D01*
X005940Y020986D01*
X005940Y020615D01*
X006125Y020615D01*
X006187Y020677D01*
X006187Y020924D01*
X005819Y020986D02*
X005572Y020986D01*
X005572Y020615D01*
X005819Y020615D01*
X005695Y020800D02*
X005572Y020800D01*
X005451Y020615D02*
X005204Y020615D01*
X005204Y020986D01*
X007990Y020986D02*
X007990Y020615D01*
X007990Y020739D02*
X008175Y020739D01*
X008237Y020800D01*
X008237Y020924D01*
X008175Y020986D01*
X007990Y020986D01*
X008114Y020739D02*
X008237Y020615D01*
X008359Y020677D02*
X008420Y020615D01*
X008544Y020615D01*
X008605Y020677D01*
X008605Y020739D01*
X008544Y020800D01*
X008359Y020800D01*
X008359Y020677D01*
X008359Y020800D02*
X008482Y020924D01*
X008605Y020986D01*
X012077Y019494D02*
X012077Y019247D01*
X012138Y019125D02*
X012077Y019064D01*
X012077Y018940D01*
X012138Y018879D01*
X012385Y018879D01*
X012447Y018940D01*
X012447Y019064D01*
X012385Y019125D01*
X012385Y019247D02*
X012447Y019247D01*
X012385Y019247D02*
X012138Y019494D01*
X012077Y019494D01*
X013140Y019186D02*
X013140Y018877D01*
X013202Y018815D01*
X013325Y018815D01*
X013387Y018877D01*
X013387Y019186D01*
X013509Y019124D02*
X013570Y019186D01*
X013694Y019186D01*
X013755Y019124D01*
X013755Y019062D01*
X013509Y018815D01*
X013755Y018815D01*
X015690Y017974D02*
X015690Y017727D01*
X015752Y017665D01*
X015875Y017665D01*
X015937Y017727D01*
X015937Y017974D01*
X015875Y018036D01*
X015752Y018036D01*
X015690Y017974D01*
X015814Y017789D02*
X015937Y017665D01*
X016059Y017665D02*
X016305Y017665D01*
X016182Y017665D02*
X016182Y018036D01*
X016059Y017912D01*
X017977Y017744D02*
X017977Y017497D01*
X018038Y017375D02*
X018162Y017375D01*
X018223Y017314D01*
X018223Y017129D01*
X018223Y017252D02*
X018347Y017375D01*
X018347Y017497D02*
X018285Y017497D01*
X018038Y017744D01*
X017977Y017744D01*
X018038Y017375D02*
X017977Y017314D01*
X017977Y017129D01*
X018347Y017129D01*
X018347Y015444D02*
X018347Y015197D01*
X018347Y015075D02*
X018347Y014829D01*
X018347Y014707D02*
X018223Y014584D01*
X018223Y014645D02*
X018223Y014460D01*
X018347Y014460D02*
X017977Y014460D01*
X017977Y014645D01*
X018038Y014707D01*
X018162Y014707D01*
X018223Y014645D01*
X018100Y014829D02*
X017977Y014952D01*
X018347Y014952D01*
X018347Y015320D02*
X017977Y015320D01*
X018100Y015197D01*
X016305Y015227D02*
X016244Y015165D01*
X016120Y015165D01*
X016059Y015227D01*
X015937Y015227D02*
X015937Y015474D01*
X015875Y015536D01*
X015752Y015536D01*
X015690Y015474D01*
X015690Y015227D01*
X015752Y015165D01*
X015875Y015165D01*
X015937Y015227D01*
X015937Y015165D02*
X015814Y015289D01*
X016059Y015350D02*
X016182Y015412D01*
X016244Y015412D01*
X016305Y015350D01*
X016305Y015227D01*
X016059Y015350D02*
X016059Y015536D01*
X016305Y015536D01*
X016244Y013036D02*
X016120Y013036D01*
X016059Y012974D01*
X015937Y012974D02*
X015937Y012727D01*
X015875Y012665D01*
X015752Y012665D01*
X015690Y012727D01*
X015690Y012974D01*
X015752Y013036D01*
X015875Y013036D01*
X015937Y012974D01*
X015814Y012789D02*
X015937Y012665D01*
X016059Y012665D02*
X016305Y012912D01*
X016305Y012974D01*
X016244Y013036D01*
X016305Y012665D02*
X016059Y012665D01*
X017977Y012682D02*
X017977Y012559D01*
X018038Y012497D01*
X018100Y012497D01*
X018162Y012559D01*
X018162Y012682D01*
X018223Y012744D01*
X018285Y012744D01*
X018347Y012682D01*
X018347Y012559D01*
X018285Y012497D01*
X018223Y012497D01*
X018162Y012559D01*
X018162Y012682D02*
X018100Y012744D01*
X018038Y012744D01*
X017977Y012682D01*
X018038Y012375D02*
X018162Y012375D01*
X018223Y012314D01*
X018223Y012129D01*
X018223Y012252D02*
X018347Y012375D01*
X018347Y012129D02*
X017977Y012129D01*
X017977Y012314D01*
X018038Y012375D01*
X016244Y010536D02*
X016120Y010536D01*
X016059Y010474D01*
X015937Y010474D02*
X015937Y010227D01*
X015875Y010165D01*
X015752Y010165D01*
X015690Y010227D01*
X015690Y010474D01*
X015752Y010536D01*
X015875Y010536D01*
X015937Y010474D01*
X015814Y010289D02*
X015937Y010165D01*
X016059Y010227D02*
X016120Y010165D01*
X016244Y010165D01*
X016305Y010227D01*
X016305Y010289D01*
X016244Y010350D01*
X016182Y010350D01*
X016244Y010350D02*
X016305Y010412D01*
X016305Y010474D01*
X016244Y010536D01*
X017977Y010182D02*
X017977Y010059D01*
X018038Y009997D01*
X018100Y009997D01*
X018162Y010059D01*
X018162Y010244D01*
X018285Y010244D02*
X018038Y010244D01*
X017977Y010182D01*
X018285Y010244D02*
X018347Y010182D01*
X018347Y010059D01*
X018285Y009997D01*
X018347Y009875D02*
X018223Y009752D01*
X018223Y009814D02*
X018223Y009629D01*
X018347Y009629D02*
X017977Y009629D01*
X017977Y009814D01*
X018038Y009875D01*
X018162Y009875D01*
X018223Y009814D01*
X018100Y007844D02*
X018038Y007844D01*
X017977Y007782D01*
X017977Y007659D01*
X018038Y007597D01*
X017977Y007352D02*
X018347Y007352D01*
X018347Y007229D02*
X018347Y007475D01*
X018347Y007597D02*
X018347Y007844D01*
X018347Y007597D02*
X018100Y007844D01*
X017977Y007352D02*
X018100Y007229D01*
X018038Y007107D02*
X018162Y007107D01*
X018223Y007045D01*
X018223Y006860D01*
X018223Y006984D02*
X018347Y007107D01*
X018347Y006860D02*
X017977Y006860D01*
X017977Y007045D01*
X018038Y007107D01*
X016305Y007727D02*
X016305Y007789D01*
X016244Y007850D01*
X016059Y007850D01*
X016059Y007727D01*
X016120Y007665D01*
X016244Y007665D01*
X016305Y007727D01*
X016182Y007974D02*
X016059Y007850D01*
X015937Y007974D02*
X015937Y007727D01*
X015875Y007665D01*
X015752Y007665D01*
X015690Y007727D01*
X015690Y007974D01*
X015752Y008036D01*
X015875Y008036D01*
X015937Y007974D01*
X015814Y007789D02*
X015937Y007665D01*
X016182Y007974D02*
X016305Y008036D01*
X015085Y006730D02*
X015147Y006669D01*
X015147Y006545D01*
X015085Y006484D01*
X015085Y006362D02*
X015147Y006300D01*
X015147Y006177D01*
X015085Y006115D01*
X014838Y006115D01*
X014777Y006177D01*
X014777Y006300D01*
X014838Y006362D01*
X014838Y006484D02*
X014777Y006545D01*
X014777Y006669D01*
X014838Y006730D01*
X014900Y006730D01*
X014962Y006669D01*
X015023Y006730D01*
X015085Y006730D01*
X014962Y006669D02*
X014962Y006607D01*
X013509Y008815D02*
X013509Y008877D01*
X013755Y009124D01*
X013755Y009186D01*
X013509Y009186D01*
X013387Y009186D02*
X013387Y008877D01*
X013325Y008815D01*
X013202Y008815D01*
X013140Y008877D01*
X013140Y009186D01*
X012447Y009064D02*
X012385Y009125D01*
X012447Y009064D02*
X012447Y008940D01*
X012385Y008879D01*
X012138Y008879D01*
X012077Y008940D01*
X012077Y009064D01*
X012138Y009125D01*
X012262Y009247D02*
X012138Y009370D01*
X012077Y009494D01*
X012262Y009432D02*
X012262Y009247D01*
X012385Y009247D01*
X012447Y009309D01*
X012447Y009432D01*
X012385Y009494D01*
X012323Y009494D01*
X012262Y009432D01*
X013202Y011315D02*
X013325Y011315D01*
X013387Y011377D01*
X013387Y011686D01*
X013509Y011500D02*
X013755Y011500D01*
X013694Y011315D02*
X013694Y011686D01*
X013509Y011500D01*
X013202Y011315D02*
X013140Y011377D01*
X013140Y011686D01*
X012447Y011564D02*
X012385Y011625D01*
X012447Y011564D02*
X012447Y011440D01*
X012385Y011379D01*
X012138Y011379D01*
X012077Y011440D01*
X012077Y011564D01*
X012138Y011625D01*
X012077Y011747D02*
X012262Y011747D01*
X012200Y011870D01*
X012200Y011932D01*
X012262Y011994D01*
X012385Y011994D01*
X012447Y011932D01*
X012447Y011809D01*
X012385Y011747D01*
X012077Y011747D02*
X012077Y011994D01*
X013102Y013815D02*
X013225Y013815D01*
X013287Y013877D01*
X013287Y014186D01*
X013409Y014124D02*
X013470Y014186D01*
X013594Y014186D01*
X013655Y014124D01*
X013655Y014062D01*
X013594Y014000D01*
X013655Y013939D01*
X013655Y013877D01*
X013594Y013815D01*
X013470Y013815D01*
X013409Y013877D01*
X013532Y014000D02*
X013594Y014000D01*
X013102Y013815D02*
X013040Y013877D01*
X013040Y014186D01*
X012447Y014064D02*
X012385Y014125D01*
X012447Y014064D02*
X012447Y013940D01*
X012385Y013879D01*
X012138Y013879D01*
X012077Y013940D01*
X012077Y014064D01*
X012138Y014125D01*
X012138Y014247D02*
X012200Y014247D01*
X012262Y014309D01*
X012262Y014432D01*
X012323Y014494D01*
X012385Y014494D01*
X012447Y014432D01*
X012447Y014309D01*
X012385Y014247D01*
X012323Y014247D01*
X012262Y014309D01*
X012262Y014432D02*
X012200Y014494D01*
X012138Y014494D01*
X012077Y014432D01*
X012077Y014309D01*
X012138Y014247D01*
X012138Y016379D02*
X012385Y016379D01*
X012447Y016440D01*
X012447Y016564D01*
X012385Y016625D01*
X012262Y016747D02*
X012262Y016994D01*
X012447Y016932D02*
X012077Y016932D01*
X012262Y016747D01*
X012138Y016625D02*
X012077Y016564D01*
X012077Y016440D01*
X012138Y016379D01*
X013140Y016377D02*
X013202Y016315D01*
X013325Y016315D01*
X013387Y016377D01*
X013387Y016686D01*
X013509Y016500D02*
X013694Y016500D01*
X013755Y016439D01*
X013755Y016377D01*
X013694Y016315D01*
X013570Y016315D01*
X013509Y016377D01*
X013509Y016500D01*
X013632Y016624D01*
X013755Y016686D01*
X013140Y016686D02*
X013140Y016377D01*
X015752Y020065D02*
X015690Y020127D01*
X015690Y020374D01*
X015752Y020436D01*
X015875Y020436D01*
X015937Y020374D01*
X015937Y020127D01*
X015875Y020065D01*
X015752Y020065D01*
X015814Y020189D02*
X015937Y020065D01*
X016059Y020250D02*
X016305Y020250D01*
X016244Y020065D02*
X016244Y020436D01*
X016059Y020250D01*
X017977Y020282D02*
X017977Y020159D01*
X018038Y020097D01*
X018285Y020097D01*
X018038Y020344D01*
X018285Y020344D01*
X018347Y020282D01*
X018347Y020159D01*
X018285Y020097D01*
X018347Y019975D02*
X018347Y019729D01*
X018347Y019607D02*
X018223Y019484D01*
X018223Y019545D02*
X018223Y019360D01*
X018347Y019360D02*
X017977Y019360D01*
X017977Y019545D01*
X018038Y019607D01*
X018162Y019607D01*
X018223Y019545D01*
X018100Y019729D02*
X017977Y019852D01*
X018347Y019852D01*
X017977Y020282D02*
X018038Y020344D01*
X018577Y021415D02*
X018824Y021415D01*
X018945Y021415D02*
X019192Y021415D01*
X019314Y021415D02*
X019499Y021415D01*
X019560Y021477D01*
X019560Y021724D01*
X019499Y021786D01*
X019314Y021786D01*
X019314Y021415D01*
X019069Y021600D02*
X018945Y021600D01*
X018945Y021415D02*
X018945Y021786D01*
X019192Y021786D01*
X019682Y021662D02*
X019805Y021786D01*
X019805Y021415D01*
X019682Y021415D02*
X019929Y021415D01*
X019977Y020244D02*
X019977Y019997D01*
X020162Y019997D01*
X020100Y020120D01*
X020100Y020182D01*
X020162Y020244D01*
X020285Y020244D01*
X020347Y020182D01*
X020347Y020059D01*
X020285Y019997D01*
X020347Y019875D02*
X020223Y019752D01*
X020223Y019814D02*
X020223Y019629D01*
X020347Y019629D02*
X019977Y019629D01*
X019977Y019814D01*
X020038Y019875D01*
X020162Y019875D01*
X020223Y019814D01*
X018577Y021415D02*
X018577Y021786D01*
X013755Y021686D02*
X013509Y021686D01*
X013509Y021500D01*
X013632Y021562D01*
X013694Y021562D01*
X013755Y021500D01*
X013755Y021377D01*
X013694Y021315D01*
X013570Y021315D01*
X013509Y021377D01*
X013387Y021377D02*
X013387Y021686D01*
X013140Y021686D02*
X013140Y021377D01*
X013202Y021315D01*
X013325Y021315D01*
X013387Y021377D01*
X012285Y006994D02*
X012038Y006994D01*
X011977Y006932D01*
X011977Y006809D01*
X012038Y006747D01*
X012100Y006747D01*
X012162Y006809D01*
X012162Y006994D01*
X012285Y006994D02*
X012347Y006932D01*
X012347Y006809D01*
X012285Y006747D01*
X012285Y006625D02*
X012347Y006564D01*
X012347Y006440D01*
X012285Y006379D01*
X012038Y006379D01*
X011977Y006440D01*
X011977Y006564D01*
X012038Y006625D01*
X011362Y005249D02*
X011362Y005002D01*
X011177Y005187D01*
X011547Y005187D01*
X011547Y004880D02*
X011547Y004634D01*
X011547Y004512D02*
X011423Y004389D01*
X011423Y004450D02*
X011423Y004265D01*
X011547Y004265D02*
X011177Y004265D01*
X011177Y004450D01*
X011238Y004512D01*
X011362Y004512D01*
X011423Y004450D01*
X011300Y004634D02*
X011177Y004757D01*
X011547Y004757D01*
X011991Y003992D02*
X011929Y003930D01*
X011929Y003683D01*
X011991Y003622D01*
X012114Y003622D01*
X012176Y003683D01*
X012298Y003622D02*
X012544Y003868D01*
X012544Y003930D01*
X012483Y003992D01*
X012359Y003992D01*
X012298Y003930D01*
X012176Y003930D02*
X012114Y003992D01*
X011991Y003992D01*
X012298Y003622D02*
X012544Y003622D01*
X009392Y005477D02*
X009330Y005415D01*
X009207Y005415D01*
X009145Y005477D01*
X009145Y005539D01*
X009207Y005600D01*
X009330Y005600D01*
X009392Y005539D01*
X009392Y005477D01*
X009330Y005600D02*
X009392Y005662D01*
X009392Y005724D01*
X009330Y005786D01*
X009207Y005786D01*
X009145Y005724D01*
X009145Y005662D01*
X009207Y005600D01*
X009024Y005477D02*
X008962Y005415D01*
X008839Y005415D01*
X008777Y005477D01*
X008777Y005786D01*
X009024Y005786D02*
X009024Y005477D01*
X008155Y003686D02*
X007909Y003686D01*
X007909Y003500D01*
X008032Y003562D01*
X008094Y003562D01*
X008155Y003500D01*
X008155Y003377D01*
X008094Y003315D01*
X007970Y003315D01*
X007909Y003377D01*
X007787Y003315D02*
X007540Y003315D01*
X007664Y003315D02*
X007664Y003686D01*
X007540Y003562D01*
X007419Y003624D02*
X007357Y003686D01*
X007234Y003686D01*
X007172Y003624D01*
X007172Y003377D01*
X007234Y003315D01*
X007357Y003315D01*
X007419Y003377D01*
X022240Y004015D02*
X022487Y004386D01*
X022609Y004262D02*
X022732Y004386D01*
X022732Y004015D01*
X022609Y004015D02*
X022855Y004015D01*
X022487Y004015D02*
X022240Y004386D01*
D12*
X019103Y020764D03*
X019103Y021236D03*
X006003Y021264D03*
X006003Y021736D03*
D13*
X006003Y021500D03*
X019103Y021000D03*
D14*
X008812Y019900D02*
X008812Y017950D01*
X008612Y017750D01*
X004062Y017750D01*
X003812Y017735D02*
X002980Y017735D01*
X002980Y017785D01*
X002623Y017785D01*
X002980Y017735D02*
X002980Y010265D01*
X003812Y010265D01*
X003842Y010267D01*
X003872Y010272D01*
X003901Y010281D01*
X003928Y010294D01*
X003954Y010309D01*
X003978Y010328D01*
X003999Y010349D01*
X004018Y010373D01*
X004033Y010399D01*
X004046Y010426D01*
X004055Y010455D01*
X004060Y010485D01*
X004062Y010515D01*
X004062Y010250D02*
X008612Y010250D01*
X008812Y010050D01*
X008812Y008150D01*
X008562Y007900D01*
X002623Y007900D01*
X002615Y007907D02*
X002615Y020055D01*
X002623Y020100D02*
X004062Y020100D01*
X004062Y007908D01*
X002980Y010215D02*
X002623Y010215D01*
X002980Y010215D02*
X002980Y010265D01*
X002619Y010550D02*
X002617Y010580D01*
X002612Y010610D01*
X002603Y010639D01*
X002590Y010666D01*
X002575Y010692D01*
X002556Y010716D01*
X002535Y010737D01*
X002511Y010756D01*
X002485Y010771D01*
X002458Y010784D01*
X002429Y010793D01*
X002399Y010798D01*
X002369Y010800D01*
X000330Y010800D01*
X000304Y010802D01*
X000278Y010807D01*
X000253Y010815D01*
X000230Y010827D01*
X000208Y010841D01*
X000189Y010859D01*
X000171Y010878D01*
X000157Y010900D01*
X000145Y010923D01*
X000137Y010948D01*
X000132Y010974D01*
X000130Y011000D01*
X000130Y017000D01*
X000132Y017026D01*
X000137Y017052D01*
X000145Y017077D01*
X000157Y017100D01*
X000171Y017122D01*
X000189Y017141D01*
X000208Y017159D01*
X000230Y017173D01*
X000253Y017185D01*
X000278Y017193D01*
X000304Y017198D01*
X000330Y017200D01*
X002369Y017200D01*
X002399Y017202D01*
X002429Y017207D01*
X002458Y017216D01*
X002485Y017229D01*
X002511Y017244D01*
X002535Y017263D01*
X002556Y017284D01*
X002575Y017308D01*
X002590Y017334D01*
X002603Y017361D01*
X002612Y017390D01*
X002617Y017420D01*
X002619Y017450D01*
X003812Y017735D02*
X003842Y017733D01*
X003872Y017728D01*
X003901Y017719D01*
X003928Y017706D01*
X003954Y017691D01*
X003978Y017672D01*
X003999Y017651D01*
X004018Y017627D01*
X004033Y017601D01*
X004046Y017574D01*
X004055Y017545D01*
X004060Y017515D01*
X004062Y017485D01*
X004062Y020100D02*
X008612Y020100D01*
X008812Y019900D01*
X006412Y018921D02*
X006414Y018971D01*
X006420Y019021D01*
X006430Y019071D01*
X006443Y019119D01*
X006460Y019167D01*
X006481Y019213D01*
X006505Y019257D01*
X006533Y019299D01*
X006564Y019339D01*
X006598Y019376D01*
X006635Y019411D01*
X006674Y019442D01*
X006715Y019471D01*
X006759Y019496D01*
X006805Y019518D01*
X006852Y019536D01*
X006900Y019550D01*
X006949Y019561D01*
X006999Y019568D01*
X007049Y019571D01*
X007100Y019570D01*
X007150Y019565D01*
X007200Y019556D01*
X007248Y019544D01*
X007296Y019527D01*
X007342Y019507D01*
X007387Y019484D01*
X007430Y019457D01*
X007470Y019427D01*
X007508Y019394D01*
X007543Y019358D01*
X007576Y019319D01*
X007605Y019278D01*
X007631Y019235D01*
X007654Y019190D01*
X007673Y019143D01*
X007688Y019095D01*
X007700Y019046D01*
X007708Y018996D01*
X007712Y018946D01*
X007712Y018896D01*
X007708Y018846D01*
X007700Y018796D01*
X007688Y018747D01*
X007673Y018699D01*
X007654Y018652D01*
X007631Y018607D01*
X007605Y018564D01*
X007576Y018523D01*
X007543Y018484D01*
X007508Y018448D01*
X007470Y018415D01*
X007430Y018385D01*
X007387Y018358D01*
X007342Y018335D01*
X007296Y018315D01*
X007248Y018298D01*
X007200Y018286D01*
X007150Y018277D01*
X007100Y018272D01*
X007049Y018271D01*
X006999Y018274D01*
X006949Y018281D01*
X006900Y018292D01*
X006852Y018306D01*
X006805Y018324D01*
X006759Y018346D01*
X006715Y018371D01*
X006674Y018400D01*
X006635Y018431D01*
X006598Y018466D01*
X006564Y018503D01*
X006533Y018543D01*
X006505Y018585D01*
X006481Y018629D01*
X006460Y018675D01*
X006443Y018723D01*
X006430Y018771D01*
X006420Y018821D01*
X006414Y018871D01*
X006412Y018921D01*
X006412Y009079D02*
X006414Y009129D01*
X006420Y009179D01*
X006430Y009229D01*
X006443Y009277D01*
X006460Y009325D01*
X006481Y009371D01*
X006505Y009415D01*
X006533Y009457D01*
X006564Y009497D01*
X006598Y009534D01*
X006635Y009569D01*
X006674Y009600D01*
X006715Y009629D01*
X006759Y009654D01*
X006805Y009676D01*
X006852Y009694D01*
X006900Y009708D01*
X006949Y009719D01*
X006999Y009726D01*
X007049Y009729D01*
X007100Y009728D01*
X007150Y009723D01*
X007200Y009714D01*
X007248Y009702D01*
X007296Y009685D01*
X007342Y009665D01*
X007387Y009642D01*
X007430Y009615D01*
X007470Y009585D01*
X007508Y009552D01*
X007543Y009516D01*
X007576Y009477D01*
X007605Y009436D01*
X007631Y009393D01*
X007654Y009348D01*
X007673Y009301D01*
X007688Y009253D01*
X007700Y009204D01*
X007708Y009154D01*
X007712Y009104D01*
X007712Y009054D01*
X007708Y009004D01*
X007700Y008954D01*
X007688Y008905D01*
X007673Y008857D01*
X007654Y008810D01*
X007631Y008765D01*
X007605Y008722D01*
X007576Y008681D01*
X007543Y008642D01*
X007508Y008606D01*
X007470Y008573D01*
X007430Y008543D01*
X007387Y008516D01*
X007342Y008493D01*
X007296Y008473D01*
X007248Y008456D01*
X007200Y008444D01*
X007150Y008435D01*
X007100Y008430D01*
X007049Y008429D01*
X006999Y008432D01*
X006949Y008439D01*
X006900Y008450D01*
X006852Y008464D01*
X006805Y008482D01*
X006759Y008504D01*
X006715Y008529D01*
X006674Y008558D01*
X006635Y008589D01*
X006598Y008624D01*
X006564Y008661D01*
X006533Y008701D01*
X006505Y008743D01*
X006481Y008787D01*
X006460Y008833D01*
X006443Y008881D01*
X006430Y008929D01*
X006420Y008979D01*
X006414Y009029D01*
X006412Y009079D01*
D15*
X006330Y010711D02*
X006330Y011011D01*
X006330Y010861D02*
X005880Y010861D01*
X006030Y010711D01*
X006105Y011171D02*
X005880Y011171D01*
X005880Y011471D01*
X006030Y011396D02*
X006030Y011321D01*
X006105Y011171D01*
X006255Y011171D02*
X006330Y011246D01*
X006330Y011396D01*
X006255Y011471D01*
X006105Y011471D01*
X006030Y011396D01*
X006864Y011480D02*
X006864Y011631D01*
X006939Y011706D01*
X007239Y011405D01*
X007314Y011480D01*
X007314Y011631D01*
X007239Y011706D01*
X006939Y011706D01*
X006864Y011480D02*
X006939Y011405D01*
X007239Y011405D01*
X007314Y011245D02*
X007314Y010945D01*
X007314Y011095D02*
X006864Y011095D01*
X007014Y010945D01*
X007833Y011169D02*
X008058Y011169D01*
X007983Y011319D01*
X007983Y011394D01*
X008058Y011469D01*
X008208Y011469D01*
X008283Y011394D01*
X008283Y011244D01*
X008208Y011169D01*
X007833Y011169D02*
X007833Y011469D01*
X007983Y016092D02*
X007833Y016243D01*
X008283Y016243D01*
X008283Y016393D02*
X008283Y016092D01*
X007314Y016758D02*
X007314Y016908D01*
X007239Y016983D01*
X007164Y016983D01*
X007089Y016908D01*
X007089Y016683D01*
X007239Y016683D01*
X007314Y016758D01*
X007089Y016683D02*
X006939Y016833D01*
X006864Y016983D01*
X006291Y016983D02*
X006291Y016683D01*
X006291Y016833D02*
X005840Y016833D01*
X005991Y016683D01*
X006291Y016523D02*
X006291Y016223D01*
X006291Y016373D02*
X005840Y016373D01*
X005991Y016223D01*
X008747Y005259D02*
X009377Y005259D01*
X009377Y004141D02*
X008747Y004141D01*
D16*
X012038Y004077D02*
X012038Y004726D01*
X012038Y004077D02*
X013554Y004077D01*
X014086Y004608D01*
X014086Y004726D01*
X014086Y005474D02*
X014086Y005592D01*
X013554Y006124D01*
X012038Y006124D01*
X012038Y005474D01*
X012157Y004765D02*
X012180Y004708D01*
X012207Y004653D01*
X012237Y004599D01*
X012271Y004547D01*
X012308Y004498D01*
X012348Y004451D01*
X012391Y004406D01*
X012437Y004365D01*
X012485Y004326D01*
X012536Y004291D01*
X012589Y004259D01*
X012644Y004230D01*
X012700Y004205D01*
X012758Y004184D01*
X012817Y004166D01*
X012878Y004153D01*
X012939Y004143D01*
X013000Y004137D01*
X013062Y004135D01*
X013124Y004137D01*
X013185Y004143D01*
X013246Y004153D01*
X013307Y004166D01*
X013366Y004184D01*
X013424Y004205D01*
X013480Y004230D01*
X013535Y004259D01*
X013588Y004291D01*
X013639Y004326D01*
X013687Y004365D01*
X013733Y004406D01*
X013776Y004451D01*
X013816Y004498D01*
X013853Y004547D01*
X013887Y004599D01*
X013917Y004653D01*
X013944Y004708D01*
X013967Y004765D01*
X013967Y005435D02*
X013944Y005492D01*
X013917Y005547D01*
X013887Y005601D01*
X013853Y005653D01*
X013816Y005702D01*
X013776Y005749D01*
X013733Y005794D01*
X013687Y005835D01*
X013639Y005874D01*
X013588Y005909D01*
X013535Y005941D01*
X013480Y005970D01*
X013424Y005995D01*
X013366Y006016D01*
X013307Y006034D01*
X013246Y006047D01*
X013185Y006057D01*
X013124Y006063D01*
X013062Y006065D01*
X013000Y006063D01*
X012939Y006057D01*
X012878Y006047D01*
X012817Y006034D01*
X012758Y006016D01*
X012700Y005995D01*
X012644Y005970D01*
X012589Y005941D01*
X012536Y005909D01*
X012485Y005874D01*
X012437Y005835D01*
X012391Y005794D01*
X012348Y005749D01*
X012308Y005702D01*
X012271Y005653D01*
X012237Y005601D01*
X012207Y005547D01*
X012180Y005492D01*
X012157Y005435D01*
X013202Y007530D02*
X013204Y007554D01*
X013210Y007578D01*
X013219Y007600D01*
X013232Y007620D01*
X013248Y007638D01*
X013267Y007653D01*
X013288Y007666D01*
X013310Y007674D01*
X013334Y007679D01*
X013358Y007680D01*
X013382Y007677D01*
X013405Y007670D01*
X013427Y007660D01*
X013447Y007646D01*
X013464Y007629D01*
X013479Y007610D01*
X013490Y007589D01*
X013498Y007566D01*
X013502Y007542D01*
X013502Y007518D01*
X013498Y007494D01*
X013490Y007471D01*
X013479Y007450D01*
X013464Y007431D01*
X013447Y007414D01*
X013427Y007400D01*
X013405Y007390D01*
X013382Y007383D01*
X013358Y007380D01*
X013334Y007381D01*
X013310Y007386D01*
X013288Y007394D01*
X013267Y007407D01*
X013248Y007422D01*
X013232Y007440D01*
X013219Y007460D01*
X013210Y007482D01*
X013204Y007506D01*
X013202Y007530D01*
X013202Y010030D02*
X013204Y010054D01*
X013210Y010078D01*
X013219Y010100D01*
X013232Y010120D01*
X013248Y010138D01*
X013267Y010153D01*
X013288Y010166D01*
X013310Y010174D01*
X013334Y010179D01*
X013358Y010180D01*
X013382Y010177D01*
X013405Y010170D01*
X013427Y010160D01*
X013447Y010146D01*
X013464Y010129D01*
X013479Y010110D01*
X013490Y010089D01*
X013498Y010066D01*
X013502Y010042D01*
X013502Y010018D01*
X013498Y009994D01*
X013490Y009971D01*
X013479Y009950D01*
X013464Y009931D01*
X013447Y009914D01*
X013427Y009900D01*
X013405Y009890D01*
X013382Y009883D01*
X013358Y009880D01*
X013334Y009881D01*
X013310Y009886D01*
X013288Y009894D01*
X013267Y009907D01*
X013248Y009922D01*
X013232Y009940D01*
X013219Y009960D01*
X013210Y009982D01*
X013204Y010006D01*
X013202Y010030D01*
X013202Y012530D02*
X013204Y012554D01*
X013210Y012578D01*
X013219Y012600D01*
X013232Y012620D01*
X013248Y012638D01*
X013267Y012653D01*
X013288Y012666D01*
X013310Y012674D01*
X013334Y012679D01*
X013358Y012680D01*
X013382Y012677D01*
X013405Y012670D01*
X013427Y012660D01*
X013447Y012646D01*
X013464Y012629D01*
X013479Y012610D01*
X013490Y012589D01*
X013498Y012566D01*
X013502Y012542D01*
X013502Y012518D01*
X013498Y012494D01*
X013490Y012471D01*
X013479Y012450D01*
X013464Y012431D01*
X013447Y012414D01*
X013427Y012400D01*
X013405Y012390D01*
X013382Y012383D01*
X013358Y012380D01*
X013334Y012381D01*
X013310Y012386D01*
X013288Y012394D01*
X013267Y012407D01*
X013248Y012422D01*
X013232Y012440D01*
X013219Y012460D01*
X013210Y012482D01*
X013204Y012506D01*
X013202Y012530D01*
X013202Y015030D02*
X013204Y015054D01*
X013210Y015078D01*
X013219Y015100D01*
X013232Y015120D01*
X013248Y015138D01*
X013267Y015153D01*
X013288Y015166D01*
X013310Y015174D01*
X013334Y015179D01*
X013358Y015180D01*
X013382Y015177D01*
X013405Y015170D01*
X013427Y015160D01*
X013447Y015146D01*
X013464Y015129D01*
X013479Y015110D01*
X013490Y015089D01*
X013498Y015066D01*
X013502Y015042D01*
X013502Y015018D01*
X013498Y014994D01*
X013490Y014971D01*
X013479Y014950D01*
X013464Y014931D01*
X013447Y014914D01*
X013427Y014900D01*
X013405Y014890D01*
X013382Y014883D01*
X013358Y014880D01*
X013334Y014881D01*
X013310Y014886D01*
X013288Y014894D01*
X013267Y014907D01*
X013248Y014922D01*
X013232Y014940D01*
X013219Y014960D01*
X013210Y014982D01*
X013204Y015006D01*
X013202Y015030D01*
X013202Y017530D02*
X013204Y017554D01*
X013210Y017578D01*
X013219Y017600D01*
X013232Y017620D01*
X013248Y017638D01*
X013267Y017653D01*
X013288Y017666D01*
X013310Y017674D01*
X013334Y017679D01*
X013358Y017680D01*
X013382Y017677D01*
X013405Y017670D01*
X013427Y017660D01*
X013447Y017646D01*
X013464Y017629D01*
X013479Y017610D01*
X013490Y017589D01*
X013498Y017566D01*
X013502Y017542D01*
X013502Y017518D01*
X013498Y017494D01*
X013490Y017471D01*
X013479Y017450D01*
X013464Y017431D01*
X013447Y017414D01*
X013427Y017400D01*
X013405Y017390D01*
X013382Y017383D01*
X013358Y017380D01*
X013334Y017381D01*
X013310Y017386D01*
X013288Y017394D01*
X013267Y017407D01*
X013248Y017422D01*
X013232Y017440D01*
X013219Y017460D01*
X013210Y017482D01*
X013204Y017506D01*
X013202Y017530D01*
X013202Y020030D02*
X013204Y020054D01*
X013210Y020078D01*
X013219Y020100D01*
X013232Y020120D01*
X013248Y020138D01*
X013267Y020153D01*
X013288Y020166D01*
X013310Y020174D01*
X013334Y020179D01*
X013358Y020180D01*
X013382Y020177D01*
X013405Y020170D01*
X013427Y020160D01*
X013447Y020146D01*
X013464Y020129D01*
X013479Y020110D01*
X013490Y020089D01*
X013498Y020066D01*
X013502Y020042D01*
X013502Y020018D01*
X013498Y019994D01*
X013490Y019971D01*
X013479Y019950D01*
X013464Y019931D01*
X013447Y019914D01*
X013427Y019900D01*
X013405Y019890D01*
X013382Y019883D01*
X013358Y019880D01*
X013334Y019881D01*
X013310Y019886D01*
X013288Y019894D01*
X013267Y019907D01*
X013248Y019922D01*
X013232Y019940D01*
X013219Y019960D01*
X013210Y019982D01*
X013204Y020006D01*
X013202Y020030D01*
X009342Y019329D02*
X009342Y019089D01*
X009102Y019329D01*
X009042Y019329D01*
X008982Y019269D01*
X008982Y019149D01*
X009042Y019089D01*
X008982Y018960D02*
X009342Y018720D01*
X009342Y018960D02*
X008982Y018720D01*
X003742Y016640D02*
X003742Y016487D01*
X003665Y016410D01*
X003512Y016410D01*
X003435Y016487D01*
X003435Y016640D01*
X003512Y016717D01*
X003588Y016717D01*
X003588Y016410D01*
X003742Y016256D02*
X003742Y016103D01*
X003742Y016180D02*
X003281Y016180D01*
X003281Y016103D01*
X003435Y015873D02*
X003512Y015949D01*
X003742Y015949D01*
X003742Y015719D01*
X003665Y015643D01*
X003588Y015719D01*
X003588Y015949D01*
X003435Y015873D02*
X003435Y015719D01*
X003281Y015489D02*
X003742Y015489D01*
X003742Y015182D02*
X003281Y015182D01*
X003435Y015336D01*
X003281Y015489D01*
D17*
X005271Y015255D03*
X005271Y014355D03*
X005271Y013455D03*
X005271Y012555D03*
X005271Y016155D03*
D18*
X004778Y015705D03*
X004778Y014805D03*
X004778Y013905D03*
X004778Y013005D03*
X004778Y012105D03*
D19*
X007042Y012105D03*
X007042Y013005D03*
X007042Y013905D03*
X007042Y014805D03*
X007042Y015705D03*
D20*
X011320Y016210D02*
X011320Y014790D01*
X013598Y014790D01*
X013804Y014790D01*
X013804Y016210D01*
X011320Y016210D01*
X011320Y017290D02*
X013598Y017290D01*
X013804Y017290D01*
X013804Y018710D01*
X011320Y018710D01*
X011320Y017290D01*
X013598Y017290D02*
X013598Y018700D01*
X013598Y019790D02*
X013804Y019790D01*
X013804Y021210D01*
X011320Y021210D01*
X011320Y019790D01*
X013598Y019790D01*
X013598Y021200D01*
X013598Y016200D02*
X013598Y014790D01*
X013598Y013700D02*
X013598Y012290D01*
X013804Y012290D01*
X013804Y013710D01*
X011320Y013710D01*
X011320Y012290D01*
X013598Y012290D01*
X013598Y011200D02*
X013598Y009790D01*
X013804Y009790D01*
X013804Y011210D01*
X011320Y011210D01*
X011320Y009790D01*
X013598Y009790D01*
X013598Y008700D02*
X013598Y007290D01*
X013804Y007290D01*
X013804Y008710D01*
X011320Y008710D01*
X011320Y007290D01*
X013598Y007290D01*
X013125Y003762D02*
X014525Y003762D01*
X013125Y003762D02*
X013125Y000140D01*
X015724Y000140D01*
X015724Y000522D01*
X016306Y000522D01*
X016306Y000140D01*
X017321Y000140D01*
X018803Y000140D01*
X022999Y000140D01*
X022999Y003762D01*
X021604Y003762D01*
X021064Y001205D02*
X021566Y000191D01*
X020562Y000191D01*
X021064Y001205D01*
X021059Y001195D02*
X021069Y001195D01*
X021108Y001116D02*
X021020Y001116D01*
X020981Y001038D02*
X021147Y001038D01*
X021186Y000959D02*
X020942Y000959D01*
X020903Y000881D02*
X021224Y000881D01*
X021263Y000802D02*
X020864Y000802D01*
X020826Y000724D02*
X021302Y000724D01*
X021341Y000645D02*
X020787Y000645D01*
X020748Y000567D02*
X021380Y000567D01*
X021419Y000488D02*
X020709Y000488D01*
X020670Y000410D02*
X021458Y000410D01*
X021496Y000331D02*
X020631Y000331D01*
X020592Y000253D02*
X021535Y000253D01*
X018803Y000140D02*
X018803Y002921D01*
X017321Y002921D01*
X017321Y000140D01*
X016306Y000140D02*
X015724Y000140D01*
D21*
X009574Y004700D02*
X009570Y004700D01*
D22*
X009322Y004200D02*
X009322Y005204D01*
X008806Y005204D01*
X008806Y004200D01*
X009322Y004200D01*
M02*
