G75*
%MOIN*%
%OFA0B0*%
%FSLAX24Y24*%
%IPPOS*%
%LPD*%
%AMOC8*
5,1,8,0,0,1.08239X$1,22.5*
%
%ADD10C,0.0000*%
%ADD11R,0.0512X0.0591*%
%ADD12R,0.0472X0.0472*%
%ADD13R,0.0551X0.0394*%
%ADD14R,0.0850X0.0300*%
%ADD15R,0.0591X0.0512*%
%ADD16R,0.1024X0.0551*%
%ADD17R,0.0390X0.0272*%
D10*
X004062Y003000D02*
X004062Y022292D01*
X023353Y022292D01*
X023353Y003000D01*
X004062Y003000D01*
X006471Y009079D02*
X006473Y009127D01*
X006479Y009175D01*
X006489Y009222D01*
X006502Y009268D01*
X006520Y009313D01*
X006540Y009357D01*
X006565Y009399D01*
X006593Y009438D01*
X006623Y009475D01*
X006657Y009509D01*
X006694Y009541D01*
X006732Y009570D01*
X006773Y009595D01*
X006816Y009617D01*
X006861Y009635D01*
X006907Y009649D01*
X006954Y009660D01*
X007002Y009667D01*
X007050Y009670D01*
X007098Y009669D01*
X007146Y009664D01*
X007194Y009655D01*
X007240Y009643D01*
X007285Y009626D01*
X007329Y009606D01*
X007371Y009583D01*
X007411Y009556D01*
X007449Y009526D01*
X007484Y009493D01*
X007516Y009457D01*
X007546Y009419D01*
X007572Y009378D01*
X007594Y009335D01*
X007614Y009291D01*
X007629Y009246D01*
X007641Y009199D01*
X007649Y009151D01*
X007653Y009103D01*
X007653Y009055D01*
X007649Y009007D01*
X007641Y008959D01*
X007629Y008912D01*
X007614Y008867D01*
X007594Y008823D01*
X007572Y008780D01*
X007546Y008739D01*
X007516Y008701D01*
X007484Y008665D01*
X007449Y008632D01*
X007411Y008602D01*
X007371Y008575D01*
X007329Y008552D01*
X007285Y008532D01*
X007240Y008515D01*
X007194Y008503D01*
X007146Y008494D01*
X007098Y008489D01*
X007050Y008488D01*
X007002Y008491D01*
X006954Y008498D01*
X006907Y008509D01*
X006861Y008523D01*
X006816Y008541D01*
X006773Y008563D01*
X006732Y008588D01*
X006694Y008617D01*
X006657Y008649D01*
X006623Y008683D01*
X006593Y008720D01*
X006565Y008759D01*
X006540Y008801D01*
X006520Y008845D01*
X006502Y008890D01*
X006489Y008936D01*
X006479Y008983D01*
X006473Y009031D01*
X006471Y009079D01*
X006471Y018921D02*
X006473Y018969D01*
X006479Y019017D01*
X006489Y019064D01*
X006502Y019110D01*
X006520Y019155D01*
X006540Y019199D01*
X006565Y019241D01*
X006593Y019280D01*
X006623Y019317D01*
X006657Y019351D01*
X006694Y019383D01*
X006732Y019412D01*
X006773Y019437D01*
X006816Y019459D01*
X006861Y019477D01*
X006907Y019491D01*
X006954Y019502D01*
X007002Y019509D01*
X007050Y019512D01*
X007098Y019511D01*
X007146Y019506D01*
X007194Y019497D01*
X007240Y019485D01*
X007285Y019468D01*
X007329Y019448D01*
X007371Y019425D01*
X007411Y019398D01*
X007449Y019368D01*
X007484Y019335D01*
X007516Y019299D01*
X007546Y019261D01*
X007572Y019220D01*
X007594Y019177D01*
X007614Y019133D01*
X007629Y019088D01*
X007641Y019041D01*
X007649Y018993D01*
X007653Y018945D01*
X007653Y018897D01*
X007649Y018849D01*
X007641Y018801D01*
X007629Y018754D01*
X007614Y018709D01*
X007594Y018665D01*
X007572Y018622D01*
X007546Y018581D01*
X007516Y018543D01*
X007484Y018507D01*
X007449Y018474D01*
X007411Y018444D01*
X007371Y018417D01*
X007329Y018394D01*
X007285Y018374D01*
X007240Y018357D01*
X007194Y018345D01*
X007146Y018336D01*
X007098Y018331D01*
X007050Y018330D01*
X007002Y018333D01*
X006954Y018340D01*
X006907Y018351D01*
X006861Y018365D01*
X006816Y018383D01*
X006773Y018405D01*
X006732Y018430D01*
X006694Y018459D01*
X006657Y018491D01*
X006623Y018525D01*
X006593Y018562D01*
X006565Y018601D01*
X006540Y018643D01*
X006520Y018687D01*
X006502Y018732D01*
X006489Y018778D01*
X006479Y018825D01*
X006473Y018873D01*
X006471Y018921D01*
D11*
X007988Y021500D03*
X008736Y021500D03*
X010888Y019300D03*
X011636Y019300D03*
X011636Y016800D03*
X010888Y016800D03*
X010888Y014300D03*
X011636Y014300D03*
X011636Y011800D03*
X010888Y011800D03*
X010888Y009300D03*
X011636Y009300D03*
X011536Y006800D03*
X010788Y006800D03*
X009436Y003500D03*
X008688Y003500D03*
X016788Y007500D03*
X017536Y007500D03*
X017536Y010000D03*
X016788Y010000D03*
X016788Y012500D03*
X017536Y012500D03*
X017536Y015000D03*
X016788Y015000D03*
X016788Y017500D03*
X017536Y017500D03*
X017536Y020000D03*
X016788Y020000D03*
X018788Y020000D03*
X019536Y020000D03*
D12*
X019575Y021000D03*
X018749Y021000D03*
X006475Y021500D03*
X005649Y021500D03*
D13*
X015589Y021200D03*
X016534Y020826D03*
X016534Y021574D03*
X016534Y019074D03*
X016534Y018326D03*
X015589Y018700D03*
X016534Y016574D03*
X016534Y015826D03*
X015589Y016200D03*
X016534Y014074D03*
X016534Y013326D03*
X015589Y013700D03*
X016534Y011574D03*
X016534Y010826D03*
X015589Y011200D03*
X016534Y009074D03*
X016534Y008326D03*
X015589Y008700D03*
D14*
X014242Y008500D03*
X014242Y008000D03*
X014242Y007500D03*
X014242Y010000D03*
X014242Y010500D03*
X014242Y011000D03*
X014242Y012500D03*
X014242Y013000D03*
X014242Y013500D03*
X014242Y015000D03*
X014242Y015500D03*
X014242Y016000D03*
X014242Y017500D03*
X014242Y018000D03*
X014242Y018500D03*
X014242Y020000D03*
X014242Y020500D03*
X014242Y021000D03*
X010882Y021000D03*
X010882Y020500D03*
X010882Y020000D03*
X010882Y018500D03*
X010882Y018000D03*
X010882Y017500D03*
X010882Y016000D03*
X010882Y015500D03*
X010882Y015000D03*
X010882Y013500D03*
X010882Y013000D03*
X010882Y012500D03*
X010882Y011000D03*
X010882Y010500D03*
X010882Y010000D03*
X010882Y008500D03*
X010882Y008000D03*
X010882Y007500D03*
D15*
X010762Y005074D03*
X010762Y004326D03*
X015562Y006126D03*
X015562Y006874D03*
D16*
X013869Y005100D03*
X012255Y005100D03*
D17*
X009570Y005074D03*
X009570Y004700D03*
X009570Y004326D03*
X008550Y004326D03*
X008550Y005074D03*
M02*
