%
M48
M72
T01C0.0236
T02C0.0354
T03C0.0394
T04C0.1181
%
T01
X5862Y3800
X8062Y4600
X8562Y6200
X9562Y7200
X10062Y7200
X10162Y7700
X10162Y8900
X9362Y9300
X8762Y9900
X9962Y10200
X10062Y11000
X10062Y12600
X10062Y13300
X10062Y14000
X10062Y15000
X10062Y16500
X11662Y15700
X12262Y15100
X14162Y14000
X17062Y13200
X17536Y14000
X18062Y14400
X17062Y15800
X18062Y16900
X17062Y18300
X18062Y18900
X17162Y20800
X13062Y20400
X13062Y17900
X10062Y19000
X9062Y20500
X4962Y15300
X4962Y13000
X6362Y11200
X5462Y8900
X4362Y8300
X4362Y7700
X4362Y7100
X4362Y6500
X7362Y6500
X7362Y7100
X7362Y7700
X10262Y5200
X10162Y4700
X10162Y4000
X10662Y3400
X11262Y5600
X10962Y5900
X10362Y6200
X13962Y6900
X15062Y8700
X17062Y8300
X17536Y9300
X17062Y10800
X17536Y11800
X19562Y11400
X21362Y10800
X19562Y9400
X21162Y8300
X19562Y7400
X21962Y13200
X22562Y13500
X22262Y13800
X21262Y15800
X21862Y18300
X22562Y19400
X21362Y20800
X12962Y10600
T02
X6062Y12105
X6062Y13005
X6062Y13905
X6062Y14805
X6062Y15705
X7062Y16155
X7062Y15255
X7062Y14355
X7062Y13455
X7062Y12555
X8062Y13005
X8062Y13905
X8062Y14805
X8062Y15705
X8062Y12105
T03
X15062Y5000
X15062Y4000
X16062Y4000
X17062Y4000
X18062Y4000
X18062Y5000
X17062Y5000
X16062Y5000
X19062Y5000
X19062Y4000
X20062Y4000
X21062Y4000
X21062Y5000
X20062Y5000
T04
X7062Y18921
X7062Y9079
M30
