G75*
%MOIN*%
%OFA0B0*%
%FSLAX24Y24*%
%IPPOS*%
%LPD*%
%AMOC8*
5,1,8,0,0,1.08239X$1,22.5*
%
%ADD10C,0.0000*%
%ADD11C,0.0030*%
%ADD12C,0.0060*%
%ADD13C,0.0079*%
%ADD14C,0.0040*%
%ADD15C,0.0080*%
%ADD16C,0.0157*%
%ADD17R,0.0340X0.0300*%
D10*
X004062Y003000D02*
X004062Y022292D01*
X023353Y022292D01*
X023353Y003000D01*
X004062Y003000D01*
X006471Y009079D02*
X006473Y009127D01*
X006479Y009175D01*
X006489Y009222D01*
X006502Y009268D01*
X006520Y009313D01*
X006540Y009357D01*
X006565Y009399D01*
X006593Y009438D01*
X006623Y009475D01*
X006657Y009509D01*
X006694Y009541D01*
X006732Y009570D01*
X006773Y009595D01*
X006816Y009617D01*
X006861Y009635D01*
X006907Y009649D01*
X006954Y009660D01*
X007002Y009667D01*
X007050Y009670D01*
X007098Y009669D01*
X007146Y009664D01*
X007194Y009655D01*
X007240Y009643D01*
X007285Y009626D01*
X007329Y009606D01*
X007371Y009583D01*
X007411Y009556D01*
X007449Y009526D01*
X007484Y009493D01*
X007516Y009457D01*
X007546Y009419D01*
X007572Y009378D01*
X007594Y009335D01*
X007614Y009291D01*
X007629Y009246D01*
X007641Y009199D01*
X007649Y009151D01*
X007653Y009103D01*
X007653Y009055D01*
X007649Y009007D01*
X007641Y008959D01*
X007629Y008912D01*
X007614Y008867D01*
X007594Y008823D01*
X007572Y008780D01*
X007546Y008739D01*
X007516Y008701D01*
X007484Y008665D01*
X007449Y008632D01*
X007411Y008602D01*
X007371Y008575D01*
X007329Y008552D01*
X007285Y008532D01*
X007240Y008515D01*
X007194Y008503D01*
X007146Y008494D01*
X007098Y008489D01*
X007050Y008488D01*
X007002Y008491D01*
X006954Y008498D01*
X006907Y008509D01*
X006861Y008523D01*
X006816Y008541D01*
X006773Y008563D01*
X006732Y008588D01*
X006694Y008617D01*
X006657Y008649D01*
X006623Y008683D01*
X006593Y008720D01*
X006565Y008759D01*
X006540Y008801D01*
X006520Y008845D01*
X006502Y008890D01*
X006489Y008936D01*
X006479Y008983D01*
X006473Y009031D01*
X006471Y009079D01*
X006471Y018921D02*
X006473Y018969D01*
X006479Y019017D01*
X006489Y019064D01*
X006502Y019110D01*
X006520Y019155D01*
X006540Y019199D01*
X006565Y019241D01*
X006593Y019280D01*
X006623Y019317D01*
X006657Y019351D01*
X006694Y019383D01*
X006732Y019412D01*
X006773Y019437D01*
X006816Y019459D01*
X006861Y019477D01*
X006907Y019491D01*
X006954Y019502D01*
X007002Y019509D01*
X007050Y019512D01*
X007098Y019511D01*
X007146Y019506D01*
X007194Y019497D01*
X007240Y019485D01*
X007285Y019468D01*
X007329Y019448D01*
X007371Y019425D01*
X007411Y019398D01*
X007449Y019368D01*
X007484Y019335D01*
X007516Y019299D01*
X007546Y019261D01*
X007572Y019220D01*
X007594Y019177D01*
X007614Y019133D01*
X007629Y019088D01*
X007641Y019041D01*
X007649Y018993D01*
X007653Y018945D01*
X007653Y018897D01*
X007649Y018849D01*
X007641Y018801D01*
X007629Y018754D01*
X007614Y018709D01*
X007594Y018665D01*
X007572Y018622D01*
X007546Y018581D01*
X007516Y018543D01*
X007484Y018507D01*
X007449Y018474D01*
X007411Y018444D01*
X007371Y018417D01*
X007329Y018394D01*
X007285Y018374D01*
X007240Y018357D01*
X007194Y018345D01*
X007146Y018336D01*
X007098Y018331D01*
X007050Y018330D01*
X007002Y018333D01*
X006954Y018340D01*
X006907Y018351D01*
X006861Y018365D01*
X006816Y018383D01*
X006773Y018405D01*
X006732Y018430D01*
X006694Y018459D01*
X006657Y018491D01*
X006623Y018525D01*
X006593Y018562D01*
X006565Y018601D01*
X006540Y018643D01*
X006520Y018687D01*
X006502Y018732D01*
X006489Y018778D01*
X006479Y018825D01*
X006473Y018873D01*
X006471Y018921D01*
D11*
X005977Y017780D02*
X005977Y017534D01*
X005977Y017657D02*
X006347Y017657D01*
X006224Y017534D01*
X006285Y017412D02*
X006347Y017350D01*
X006347Y017165D01*
X005977Y017165D01*
X005977Y017350D01*
X006039Y017412D01*
X006285Y017412D01*
X004535Y015344D02*
X004597Y015282D01*
X004597Y015159D01*
X004535Y015097D01*
X004535Y014975D02*
X004289Y014975D01*
X004227Y014914D01*
X004227Y014729D01*
X004597Y014729D01*
X004597Y014914D01*
X004535Y014975D01*
X004227Y015097D02*
X004227Y015344D01*
X004227Y015097D02*
X004474Y015344D01*
X004535Y015344D01*
X004535Y012980D02*
X004474Y012980D01*
X004412Y012919D01*
X004350Y012980D01*
X004289Y012980D01*
X004227Y012919D01*
X004227Y012795D01*
X004289Y012734D01*
X004289Y012612D02*
X004535Y012612D01*
X004597Y012550D01*
X004597Y012365D01*
X004227Y012365D01*
X004227Y012550D01*
X004289Y012612D01*
X004412Y012857D02*
X004412Y012919D01*
X004535Y012980D02*
X004597Y012919D01*
X004597Y012795D01*
X004535Y012734D01*
X004730Y009986D02*
X004668Y009924D01*
X004915Y009677D01*
X004853Y009615D01*
X004730Y009615D01*
X004668Y009677D01*
X004668Y009924D01*
X004730Y009986D02*
X004853Y009986D01*
X004915Y009924D01*
X004915Y009677D01*
X005037Y009615D02*
X005284Y009615D01*
X005160Y009615D02*
X005160Y009986D01*
X005284Y009862D01*
X005405Y009924D02*
X005467Y009986D01*
X005590Y009986D01*
X005652Y009924D01*
X005652Y009677D01*
X005590Y009615D01*
X005467Y009615D01*
X005405Y009677D01*
X008218Y007585D02*
X008218Y007461D01*
X008280Y007400D01*
X008526Y007647D01*
X008280Y007647D01*
X008218Y007585D01*
X008280Y007400D02*
X008526Y007400D01*
X008588Y007461D01*
X008588Y007585D01*
X008526Y007647D01*
X008218Y007278D02*
X008218Y007031D01*
X008218Y007155D02*
X008588Y007155D01*
X008465Y007031D01*
X008588Y006910D02*
X008280Y006910D01*
X008218Y006848D01*
X008218Y006725D01*
X008280Y006663D01*
X008588Y006663D01*
X008019Y005869D02*
X007957Y005869D01*
X007895Y005807D01*
X007833Y005869D01*
X007772Y005869D01*
X007710Y005807D01*
X007710Y005684D01*
X007772Y005622D01*
X007710Y005501D02*
X007710Y005254D01*
X007710Y005377D02*
X008080Y005377D01*
X007957Y005254D01*
X008019Y005132D02*
X008080Y005070D01*
X008080Y004947D01*
X008019Y004885D01*
X007772Y004885D01*
X007710Y004947D01*
X007710Y005070D01*
X007772Y005132D01*
X008019Y005622D02*
X008080Y005684D01*
X008080Y005807D01*
X008019Y005869D01*
X007895Y005807D02*
X007895Y005745D01*
X008730Y003886D02*
X008915Y003700D01*
X008668Y003700D01*
X008730Y003515D02*
X008730Y003886D01*
X009160Y003886D02*
X009160Y003515D01*
X009037Y003515D02*
X009284Y003515D01*
X009405Y003577D02*
X009467Y003515D01*
X009590Y003515D01*
X009652Y003577D01*
X009652Y003824D01*
X009590Y003886D01*
X009467Y003886D01*
X009405Y003824D01*
X009284Y003762D02*
X009160Y003886D01*
X011577Y004972D02*
X011639Y004910D01*
X011885Y004910D01*
X011947Y004972D01*
X011947Y005095D01*
X011885Y005157D01*
X011824Y005279D02*
X011947Y005402D01*
X011577Y005402D01*
X011577Y005279D02*
X011577Y005525D01*
X011577Y005647D02*
X011824Y005894D01*
X011885Y005894D01*
X011947Y005832D01*
X011947Y005709D01*
X011885Y005647D01*
X011577Y005647D02*
X011577Y005894D01*
X011639Y005157D02*
X011577Y005095D01*
X011577Y004972D01*
X013077Y006465D02*
X013447Y006465D01*
X013447Y006650D01*
X013385Y006712D01*
X013262Y006712D01*
X013200Y006650D01*
X013200Y006465D01*
X013200Y006589D02*
X013077Y006712D01*
X013077Y006834D02*
X013077Y007080D01*
X013077Y006957D02*
X013447Y006957D01*
X013324Y006834D01*
X013262Y007202D02*
X013139Y007202D01*
X013077Y007264D01*
X013077Y007387D01*
X013139Y007449D01*
X013200Y007449D01*
X013262Y007387D01*
X013262Y007202D01*
X013385Y007325D01*
X013447Y007449D01*
X013447Y007665D02*
X013447Y007850D01*
X013385Y007912D01*
X013262Y007912D01*
X013200Y007850D01*
X013200Y007665D01*
X013077Y007665D02*
X013447Y007665D01*
X013200Y007789D02*
X013077Y007912D01*
X013077Y008034D02*
X013077Y008280D01*
X013077Y008157D02*
X013447Y008157D01*
X013324Y008034D01*
X013262Y008402D02*
X013324Y008525D01*
X013324Y008587D01*
X013262Y008649D01*
X013139Y008649D01*
X013077Y008587D01*
X013077Y008464D01*
X013139Y008402D01*
X013262Y008402D02*
X013447Y008402D01*
X013447Y008649D01*
X012185Y010415D02*
X012062Y010415D01*
X012000Y010477D01*
X012000Y010786D01*
X011879Y010724D02*
X011879Y010662D01*
X011817Y010600D01*
X011632Y010600D01*
X011632Y010477D02*
X011632Y010724D01*
X011693Y010786D01*
X011817Y010786D01*
X011879Y010724D01*
X011879Y010477D02*
X011817Y010415D01*
X011693Y010415D01*
X011632Y010477D01*
X012185Y010415D02*
X012247Y010477D01*
X012247Y010786D01*
X012980Y012115D02*
X012918Y012177D01*
X012918Y012239D01*
X012980Y012300D01*
X013042Y012300D01*
X012980Y012300D02*
X012918Y012362D01*
X012918Y012424D01*
X012980Y012486D01*
X013103Y012486D01*
X013165Y012424D01*
X013287Y012424D02*
X013287Y012300D01*
X013348Y012239D01*
X013534Y012239D01*
X013534Y012115D02*
X013534Y012486D01*
X013348Y012486D01*
X013287Y012424D01*
X013410Y012239D02*
X013287Y012115D01*
X013165Y012177D02*
X013103Y012115D01*
X012980Y012115D01*
X015018Y013000D02*
X015265Y013000D01*
X015080Y013186D01*
X015080Y012815D01*
X015387Y012815D02*
X015510Y012939D01*
X015448Y012939D02*
X015634Y012939D01*
X015634Y012815D02*
X015634Y013186D01*
X015448Y013186D01*
X015387Y013124D01*
X015387Y013000D01*
X015448Y012939D01*
X014185Y014815D02*
X013939Y014815D01*
X013877Y014877D01*
X013877Y015000D01*
X013939Y015062D01*
X013877Y015184D02*
X013877Y015430D01*
X013877Y015307D02*
X014247Y015307D01*
X014124Y015184D01*
X014185Y015062D02*
X014247Y015000D01*
X014247Y014877D01*
X014185Y014815D01*
X014882Y014915D02*
X015129Y014915D01*
X014882Y015162D01*
X014882Y015224D01*
X014943Y015286D01*
X015067Y015286D01*
X015129Y015224D01*
X015250Y015224D02*
X015250Y015100D01*
X015312Y015039D01*
X015497Y015039D01*
X015373Y015039D02*
X015250Y014915D01*
X015497Y014915D02*
X015497Y015286D01*
X015312Y015286D01*
X015250Y015224D01*
X013434Y016515D02*
X013434Y016886D01*
X013248Y016886D01*
X013187Y016824D01*
X013187Y016700D01*
X013248Y016639D01*
X013434Y016639D01*
X013310Y016639D02*
X013187Y016515D01*
X013065Y016515D02*
X012818Y016515D01*
X012942Y016515D02*
X012942Y016886D01*
X013065Y016762D01*
X015575Y010886D02*
X015513Y010824D01*
X015513Y010762D01*
X015575Y010700D01*
X015513Y010639D01*
X015513Y010577D01*
X015575Y010515D01*
X015699Y010515D01*
X015760Y010577D01*
X015882Y010515D02*
X016129Y010515D01*
X016250Y010515D02*
X016373Y010639D01*
X016312Y010639D02*
X016497Y010639D01*
X016497Y010515D02*
X016497Y010886D01*
X016312Y010886D01*
X016250Y010824D01*
X016250Y010700D01*
X016312Y010639D01*
X016129Y010762D02*
X016005Y010886D01*
X016005Y010515D01*
X015760Y010824D02*
X015699Y010886D01*
X015575Y010886D01*
X015575Y010700D02*
X015637Y010700D01*
X011447Y008024D02*
X011447Y007777D01*
X011385Y007715D01*
X011262Y007715D01*
X011200Y007777D01*
X011079Y007715D02*
X010832Y007715D01*
X010710Y007715D02*
X010463Y007715D01*
X010587Y007715D02*
X010587Y008086D01*
X010710Y007962D01*
X010955Y008086D02*
X010955Y007715D01*
X011079Y007962D02*
X010955Y008086D01*
X011200Y008024D02*
X011262Y008086D01*
X011385Y008086D01*
X011447Y008024D01*
X006104Y003486D02*
X005857Y003486D01*
X005981Y003486D02*
X005981Y003115D01*
X005736Y003115D02*
X005489Y003115D01*
X005613Y003115D02*
X005613Y003486D01*
X005736Y003362D01*
D12*
X005522Y011940D02*
X005522Y012260D01*
X005302Y012260D01*
X004622Y012260D02*
X004402Y012260D01*
X004402Y011940D01*
X004402Y014240D02*
X004402Y014560D01*
X004622Y014560D01*
X005302Y014560D02*
X005522Y014560D01*
X005522Y014240D01*
X012754Y014560D02*
X013369Y014560D01*
X013369Y013440D02*
X012754Y013440D01*
D13*
X012865Y013547D03*
D14*
X012112Y013670D02*
X011812Y013670D01*
X011752Y013730D01*
X011752Y013850D01*
X011812Y013910D01*
X012112Y013910D01*
X011992Y014039D02*
X012112Y014159D01*
X011752Y014159D01*
X011752Y014039D02*
X011752Y014279D01*
X013202Y009970D02*
X013204Y009994D01*
X013210Y010018D01*
X013219Y010040D01*
X013232Y010060D01*
X013248Y010078D01*
X013267Y010093D01*
X013288Y010106D01*
X013310Y010114D01*
X013334Y010119D01*
X013358Y010120D01*
X013382Y010117D01*
X013405Y010110D01*
X013427Y010100D01*
X013447Y010086D01*
X013464Y010069D01*
X013479Y010050D01*
X013490Y010029D01*
X013498Y010006D01*
X013502Y009982D01*
X013502Y009958D01*
X013498Y009934D01*
X013490Y009911D01*
X013479Y009890D01*
X013464Y009871D01*
X013447Y009854D01*
X013427Y009840D01*
X013405Y009830D01*
X013382Y009823D01*
X013358Y009820D01*
X013334Y009821D01*
X013310Y009826D01*
X013288Y009834D01*
X013267Y009847D01*
X013248Y009862D01*
X013232Y009880D01*
X013219Y009900D01*
X013210Y009922D01*
X013204Y009946D01*
X013202Y009970D01*
X005790Y016618D02*
X005790Y018382D01*
X004334Y018382D01*
X004334Y016618D01*
X005790Y016618D01*
D15*
X011320Y010210D02*
X013598Y010210D01*
X013804Y010210D01*
X013804Y008790D01*
X011320Y008790D01*
X011320Y010210D01*
X013598Y010210D02*
X013598Y008800D01*
X009913Y007851D02*
X009913Y006749D01*
X008811Y006749D01*
X008811Y007851D01*
X009913Y007851D01*
X007152Y007271D02*
X007152Y004832D01*
X004572Y004832D01*
X004572Y007271D01*
D16*
X009756Y006907D03*
D17*
X005862Y004642D03*
M02*
