G04 #@! TF.FileFunction,Copper,L2,Bot,Signal*
%FSLAX46Y46*%
G04 Gerber Fmt 4.6, Leading zero omitted, Abs format (unit mm)*
G04 Created by KiCad (PCBNEW 4.0.3+e1-6302~38~ubuntu15.10.1-stable) date Wed Nov  9 08:21:01 2016*
%MOMM*%
%LPD*%
G01*
G04 APERTURE LIST*
%ADD10C,0.100000*%
%ADD11C,3.810000*%
%ADD12C,1.300000*%
%ADD13R,2.540000X2.540000*%
%ADD14C,2.540000*%
%ADD15C,1.600000*%
%ADD16C,0.600000*%
%ADD17C,0.800000*%
%ADD18C,0.800000*%
%ADD19C,0.500000*%
%ADD20C,0.600000*%
G04 APERTURE END LIST*
D10*
D11*
X43500000Y-94000000D03*
X43500000Y-69000000D03*
D12*
X45480000Y-77170000D03*
X45480000Y-79460000D03*
X45480000Y-81750000D03*
X45480000Y-84040000D03*
X45480000Y-86330000D03*
X43500000Y-76030000D03*
X43500000Y-78320000D03*
X43500000Y-80610000D03*
X43500000Y-82900000D03*
X43500000Y-85190000D03*
X41520000Y-77200000D03*
X41520000Y-79460000D03*
X41520000Y-81750000D03*
X41520000Y-84040000D03*
X41520000Y-86330000D03*
D13*
X220000000Y-74960000D03*
D14*
X220000000Y-80040000D03*
D13*
X220000000Y-64960000D03*
D14*
X220000000Y-70040000D03*
D11*
X84990000Y-133850000D03*
X59990000Y-133850000D03*
D15*
X66950000Y-132430000D03*
X69720000Y-132430000D03*
X72490000Y-132430000D03*
X75260000Y-132430000D03*
X78030000Y-132430000D03*
X68335000Y-135270000D03*
X71105000Y-135270000D03*
X73875000Y-135270000D03*
X76645000Y-135270000D03*
D11*
X118090000Y-133850000D03*
X93090000Y-133850000D03*
D15*
X100050000Y-132430000D03*
X102820000Y-132430000D03*
X105590000Y-132430000D03*
X108360000Y-132430000D03*
X111130000Y-132430000D03*
X101435000Y-135270000D03*
X104205000Y-135270000D03*
X106975000Y-135270000D03*
X109745000Y-135270000D03*
D11*
X151190000Y-133850000D03*
X126190000Y-133850000D03*
D15*
X133150000Y-132430000D03*
X135920000Y-132430000D03*
X138690000Y-132430000D03*
X141460000Y-132430000D03*
X144230000Y-132430000D03*
X134535000Y-135270000D03*
X137305000Y-135270000D03*
X140075000Y-135270000D03*
X142845000Y-135270000D03*
D11*
X184290000Y-133850000D03*
X159290000Y-133850000D03*
D15*
X166250000Y-132430000D03*
X169020000Y-132430000D03*
X171790000Y-132430000D03*
X174560000Y-132430000D03*
X177330000Y-132430000D03*
X167635000Y-135270000D03*
X170405000Y-135270000D03*
X173175000Y-135270000D03*
X175945000Y-135270000D03*
D13*
X220000000Y-84960000D03*
D14*
X220000000Y-90040000D03*
D13*
X220000000Y-94960000D03*
D14*
X220000000Y-100040000D03*
D13*
X220000000Y-104960000D03*
D14*
X220000000Y-110040000D03*
D11*
X43500000Y-136000000D03*
X43500000Y-111000000D03*
D12*
X45480000Y-119170000D03*
X45480000Y-121460000D03*
X45480000Y-123750000D03*
X45480000Y-126040000D03*
X45480000Y-128330000D03*
X43500000Y-118030000D03*
X43500000Y-120320000D03*
X43500000Y-122610000D03*
X43500000Y-124900000D03*
X43500000Y-127190000D03*
X41520000Y-119200000D03*
X41520000Y-121460000D03*
X41520000Y-123750000D03*
X41520000Y-126040000D03*
X41520000Y-128330000D03*
D13*
X57460000Y-65000000D03*
D14*
X62540000Y-65000000D03*
D13*
X67460000Y-65000000D03*
D14*
X72540000Y-65000000D03*
D13*
X77460000Y-65000000D03*
D14*
X82540000Y-65000000D03*
D13*
X220000000Y-114960000D03*
D14*
X220000000Y-120040000D03*
D11*
X217000000Y-139500000D03*
X192000000Y-139500000D03*
D12*
X200170000Y-137520000D03*
X202460000Y-137520000D03*
X204750000Y-137520000D03*
X207040000Y-137520000D03*
X209330000Y-137520000D03*
X199030000Y-139500000D03*
X201320000Y-139500000D03*
X203610000Y-139500000D03*
X205900000Y-139500000D03*
X208190000Y-139500000D03*
X200200000Y-141480000D03*
X202460000Y-141480000D03*
X204750000Y-141480000D03*
X207040000Y-141480000D03*
X209330000Y-141480000D03*
D13*
X220000000Y-124960000D03*
D14*
X220000000Y-130040000D03*
D16*
X68500000Y-128500000D03*
X75500000Y-128500000D03*
X204000000Y-119000000D03*
X210500000Y-119000000D03*
X98500000Y-117500000D03*
X98500000Y-128500000D03*
X158500000Y-128500000D03*
X158500000Y-116000000D03*
X83500000Y-84500000D03*
X83500000Y-74500000D03*
X63500000Y-81000000D03*
X63500000Y-86000000D03*
X87500000Y-81500000D03*
X87500000Y-86000000D03*
X103500000Y-86000000D03*
X103500000Y-80500000D03*
X127500000Y-86000000D03*
X127500000Y-81500000D03*
X57000000Y-120500000D03*
X58500000Y-86000000D03*
X58500000Y-77000000D03*
X57000000Y-114500000D03*
X143500000Y-86000000D03*
X143500000Y-81500000D03*
X60000000Y-76000000D03*
X60000000Y-86000000D03*
X167500000Y-86000000D03*
X167500000Y-81500000D03*
X58500000Y-114500000D03*
X58500000Y-122500000D03*
X81000000Y-86000000D03*
X81000000Y-82000000D03*
X121000000Y-80500000D03*
X121000000Y-86000000D03*
X49500000Y-85000000D03*
X49500000Y-78000000D03*
X207500000Y-110000000D03*
X211500000Y-110000000D03*
X205500000Y-105000000D03*
X211500000Y-105000000D03*
X80000000Y-127000000D03*
D17*
X80000000Y-117000000D03*
D16*
X202000000Y-83000000D03*
X202000000Y-86000000D03*
X85500000Y-83000000D03*
X85500000Y-86000000D03*
X142000000Y-129000000D03*
X142000000Y-117500000D03*
X163500000Y-83000000D03*
X163500000Y-86000000D03*
X142000000Y-83000000D03*
X142000000Y-86000000D03*
X123500000Y-83000000D03*
X123500000Y-86000000D03*
X102000000Y-83000000D03*
X102000000Y-86000000D03*
X49000000Y-110500000D03*
X49000000Y-132000000D03*
X69500000Y-121500000D03*
X74000000Y-121500000D03*
X200500000Y-132500000D03*
X213000000Y-132500000D03*
X51000000Y-110500000D03*
X51000000Y-121500000D03*
X51000000Y-77000000D03*
X51000000Y-90000000D03*
X52500000Y-88500000D03*
X52500000Y-77000000D03*
X52500000Y-123500000D03*
X52500000Y-110500000D03*
X214500000Y-123000000D03*
X202500000Y-123000000D03*
X134500000Y-123500000D03*
X140000000Y-123500000D03*
X100500000Y-123500000D03*
X73500000Y-123500000D03*
X68500000Y-123500000D03*
X107000000Y-123500000D03*
X173500000Y-123500000D03*
X167500000Y-123500000D03*
X202500000Y-125500000D03*
X214500000Y-125500000D03*
X167500000Y-125500000D03*
X173500000Y-125500000D03*
X140000000Y-125500000D03*
X134500000Y-125500000D03*
X107000000Y-125500000D03*
X100500000Y-125500000D03*
X73500000Y-125500000D03*
X68500000Y-125500000D03*
X54000000Y-87000000D03*
X54000000Y-77000000D03*
X54000000Y-114500000D03*
X54000000Y-110500000D03*
X55500000Y-86000000D03*
X55500000Y-77000000D03*
X57000000Y-86000000D03*
X57000000Y-77000000D03*
X50500000Y-130500000D03*
X55500000Y-114500000D03*
X55500000Y-124000000D03*
X56000000Y-130500000D03*
D18*
X68500000Y-128500000D02*
X75500000Y-128500000D01*
D19*
X210500000Y-119000000D02*
X204000000Y-119000000D01*
D18*
X98500000Y-117500000D02*
X98500000Y-128500000D01*
D20*
X98500000Y-128500000D02*
X98500000Y-128500000D01*
X158500000Y-116000000D02*
X158500000Y-128500000D01*
D18*
X83500000Y-74500000D02*
X83500000Y-84500000D01*
D19*
X63500000Y-81000000D02*
X63500000Y-86000000D01*
X87500000Y-86000000D02*
X87500000Y-81500000D01*
X103500000Y-80500000D02*
X103500000Y-86000000D01*
X127500000Y-81500000D02*
X127500000Y-86000000D01*
X57000000Y-114500000D02*
X57000000Y-120500000D01*
X58500000Y-86000000D02*
X58500000Y-77000000D01*
X143500000Y-81500000D02*
X143500000Y-86000000D01*
X60000000Y-86000000D02*
X60000000Y-76000000D01*
X167500000Y-81500000D02*
X167500000Y-86000000D01*
X58500000Y-114500000D02*
X58500000Y-122500000D01*
X81000000Y-86000000D02*
X81000000Y-82000000D01*
X121000000Y-86000000D02*
X121000000Y-80500000D01*
X49500000Y-85000000D02*
X49500000Y-78000000D01*
X207500000Y-110000000D02*
X211500000Y-110000000D01*
X205500000Y-105000000D02*
X211500000Y-105000000D01*
D20*
X80000000Y-117000000D02*
X80000000Y-127000000D01*
D18*
X202000000Y-86000000D02*
X202000000Y-83000000D01*
D19*
X85500000Y-86000000D02*
X85500000Y-83000000D01*
D20*
X142000000Y-117500000D02*
X142000000Y-129000000D01*
D19*
X163500000Y-86000000D02*
X163500000Y-83000000D01*
X142000000Y-86000000D02*
X142000000Y-83000000D01*
X123500000Y-86000000D02*
X123500000Y-83000000D01*
X102000000Y-86000000D02*
X102000000Y-83000000D01*
D18*
X49000000Y-132000000D02*
X49000000Y-110500000D01*
D20*
X69500000Y-121500000D02*
X74000000Y-121500000D01*
D19*
X213000000Y-132500000D02*
X200500000Y-132500000D01*
X51000000Y-121500000D02*
X51000000Y-110500000D01*
X51000000Y-90000000D02*
X51000000Y-77000000D01*
X52500000Y-88500000D02*
X52500000Y-77000000D01*
X52500000Y-123500000D02*
X52500000Y-110500000D01*
X214500000Y-123000000D02*
X202500000Y-123000000D01*
D20*
X134500000Y-123500000D02*
X140000000Y-123500000D01*
X107000000Y-123500000D02*
X100500000Y-123500000D01*
X68500000Y-123500000D02*
X73500000Y-123500000D01*
X167500000Y-123500000D02*
X173500000Y-123500000D01*
D19*
X202500000Y-125500000D02*
X214500000Y-125500000D01*
D20*
X167500000Y-125500000D02*
X173500000Y-125500000D01*
X134500000Y-125500000D02*
X140000000Y-125500000D01*
X100500000Y-125500000D02*
X107000000Y-125500000D01*
X68500000Y-125500000D02*
X73500000Y-125500000D01*
D19*
X54000000Y-87000000D02*
X54000000Y-77000000D01*
X54000000Y-114500000D02*
X54000000Y-110500000D01*
X55500000Y-86000000D02*
X55500000Y-77000000D01*
X57000000Y-86000000D02*
X57000000Y-77000000D01*
X55500000Y-124000000D02*
X55500000Y-114500000D01*
X50500000Y-130500000D02*
X56000000Y-130500000D01*
M02*
