G04 #@! TF.FileFunction,Copper,L1,Top,Signal*
%FSLAX46Y46*%
G04 Gerber Fmt 4.6, Leading zero omitted, Abs format (unit mm)*
G04 Created by KiCad (PCBNEW 4.0.3+e1-6302~38~ubuntu15.10.1-stable) date Wed Nov  9 08:21:01 2016*
%MOMM*%
%LPD*%
G01*
G04 APERTURE LIST*
%ADD10C,0.100000*%
%ADD11C,3.810000*%
%ADD12C,1.300000*%
%ADD13R,0.900000X1.700000*%
%ADD14R,1.597660X1.800860*%
%ADD15R,2.540000X2.540000*%
%ADD16C,2.540000*%
%ADD17R,0.800100X0.800100*%
%ADD18R,1.700000X0.900000*%
%ADD19C,1.600000*%
%ADD20R,1.300000X0.900000*%
%ADD21R,2.500000X1.500000*%
%ADD22R,0.910000X1.220000*%
%ADD23C,0.600000*%
%ADD24C,0.800000*%
%ADD25C,0.600000*%
%ADD26C,0.800000*%
%ADD27C,0.500000*%
%ADD28C,1.500000*%
%ADD29C,0.250000*%
G04 APERTURE END LIST*
D10*
D11*
X43500000Y-94000000D03*
X43500000Y-69000000D03*
D12*
X45480000Y-77170000D03*
X45480000Y-79460000D03*
X45480000Y-81750000D03*
X45480000Y-84040000D03*
X45480000Y-86330000D03*
X43500000Y-76030000D03*
X43500000Y-78320000D03*
X43500000Y-80610000D03*
X43500000Y-82900000D03*
X43500000Y-85190000D03*
X41520000Y-77200000D03*
X41520000Y-79460000D03*
X41520000Y-81750000D03*
X41520000Y-84040000D03*
X41520000Y-86330000D03*
D13*
X64950000Y-108500000D03*
X62050000Y-108500000D03*
D14*
X68080140Y-108500000D03*
X70919860Y-108500000D03*
X88080140Y-108500000D03*
X90919860Y-108500000D03*
X108080140Y-108500000D03*
X110919860Y-108500000D03*
X128080140Y-108500000D03*
X130919860Y-108500000D03*
X148080140Y-108500000D03*
X150919860Y-108500000D03*
X168080140Y-108500000D03*
X170919860Y-108500000D03*
X68080140Y-96500000D03*
X70919860Y-96500000D03*
X88080140Y-96500000D03*
X90919860Y-96500000D03*
X108080140Y-96500000D03*
X110919860Y-96500000D03*
X128080140Y-96500000D03*
X130919860Y-96500000D03*
X148080140Y-96500000D03*
X150919860Y-96500000D03*
X168080140Y-96500000D03*
X170919860Y-96500000D03*
D15*
X220000000Y-74960000D03*
D16*
X220000000Y-80040000D03*
D15*
X220000000Y-64960000D03*
D16*
X220000000Y-70040000D03*
D17*
X74550000Y-114500760D03*
X76450000Y-114500760D03*
X75500000Y-112501780D03*
X94550000Y-114500760D03*
X96450000Y-114500760D03*
X95500000Y-112501780D03*
X114550000Y-114500760D03*
X116450000Y-114500760D03*
X115500000Y-112501780D03*
X134550000Y-114500760D03*
X136450000Y-114500760D03*
X135500000Y-112501780D03*
X154550000Y-114500760D03*
X156450000Y-114500760D03*
X155500000Y-112501780D03*
X174550000Y-114500760D03*
X176450000Y-114500760D03*
X175500000Y-112501780D03*
X73550000Y-109500760D03*
X75450000Y-109500760D03*
X74500000Y-107501780D03*
X93550000Y-109500760D03*
X95450000Y-109500760D03*
X94500000Y-107501780D03*
D18*
X111500000Y-114950000D03*
X111500000Y-112050000D03*
X131500000Y-114950000D03*
X131500000Y-112050000D03*
X151500000Y-114950000D03*
X151500000Y-112050000D03*
X171500000Y-114950000D03*
X171500000Y-112050000D03*
D13*
X62050000Y-114500000D03*
X64950000Y-114500000D03*
X82050000Y-114500000D03*
X84950000Y-114500000D03*
X102050000Y-114500000D03*
X104950000Y-114500000D03*
X122050000Y-114500000D03*
X124950000Y-114500000D03*
X142050000Y-114500000D03*
X144950000Y-114500000D03*
X162050000Y-114500000D03*
X164950000Y-114500000D03*
D18*
X67500000Y-112050000D03*
X67500000Y-114950000D03*
X87500000Y-112050000D03*
X87500000Y-114950000D03*
X107500000Y-112050000D03*
X107500000Y-114950000D03*
X127500000Y-112050000D03*
X127500000Y-114950000D03*
X147500000Y-112050000D03*
X147500000Y-114950000D03*
X167500000Y-112050000D03*
X167500000Y-114950000D03*
D13*
X84950000Y-108500000D03*
X82050000Y-108500000D03*
X102050000Y-108500000D03*
X104950000Y-108500000D03*
X122050000Y-108500000D03*
X124950000Y-108500000D03*
X142050000Y-108500000D03*
X144950000Y-108500000D03*
X162050000Y-108500000D03*
X164950000Y-108500000D03*
X73050000Y-104500000D03*
X75950000Y-104500000D03*
X93050000Y-104500000D03*
X95950000Y-104500000D03*
X113050000Y-104500000D03*
X115950000Y-104500000D03*
X133050000Y-104500000D03*
X135950000Y-104500000D03*
X153050000Y-104500000D03*
X155950000Y-104500000D03*
X173050000Y-104500000D03*
X175950000Y-104500000D03*
X64950000Y-96500000D03*
X62050000Y-96500000D03*
X82050000Y-96500000D03*
X84950000Y-96500000D03*
X102050000Y-96500000D03*
X104950000Y-96500000D03*
X122050000Y-96500000D03*
X124950000Y-96500000D03*
X142050000Y-96500000D03*
X144950000Y-96500000D03*
X162050000Y-96500000D03*
X164950000Y-96500000D03*
X64950000Y-92500000D03*
X62050000Y-92500000D03*
X84950000Y-92500000D03*
X82050000Y-92500000D03*
X104950000Y-92500000D03*
X102050000Y-92500000D03*
D11*
X84990000Y-133850000D03*
X59990000Y-133850000D03*
D19*
X66950000Y-132430000D03*
X69720000Y-132430000D03*
X72490000Y-132430000D03*
X75260000Y-132430000D03*
X78030000Y-132430000D03*
X68335000Y-135270000D03*
X71105000Y-135270000D03*
X73875000Y-135270000D03*
X76645000Y-135270000D03*
D11*
X118090000Y-133850000D03*
X93090000Y-133850000D03*
D19*
X100050000Y-132430000D03*
X102820000Y-132430000D03*
X105590000Y-132430000D03*
X108360000Y-132430000D03*
X111130000Y-132430000D03*
X101435000Y-135270000D03*
X104205000Y-135270000D03*
X106975000Y-135270000D03*
X109745000Y-135270000D03*
D11*
X151190000Y-133850000D03*
X126190000Y-133850000D03*
D19*
X133150000Y-132430000D03*
X135920000Y-132430000D03*
X138690000Y-132430000D03*
X141460000Y-132430000D03*
X144230000Y-132430000D03*
X134535000Y-135270000D03*
X137305000Y-135270000D03*
X140075000Y-135270000D03*
X142845000Y-135270000D03*
D11*
X184290000Y-133850000D03*
X159290000Y-133850000D03*
D19*
X166250000Y-132430000D03*
X169020000Y-132430000D03*
X171790000Y-132430000D03*
X174560000Y-132430000D03*
X177330000Y-132430000D03*
X167635000Y-135270000D03*
X170405000Y-135270000D03*
X173175000Y-135270000D03*
X175945000Y-135270000D03*
D20*
X192350000Y-133135000D03*
X192350000Y-131865000D03*
X198650000Y-131865000D03*
X198650000Y-133135000D03*
X192350000Y-129135000D03*
X192350000Y-127865000D03*
X198650000Y-127865000D03*
X198650000Y-129135000D03*
D17*
X113550000Y-109500760D03*
X115450000Y-109500760D03*
X114500000Y-107501780D03*
X133550000Y-109500760D03*
X135450000Y-109500760D03*
X134500000Y-107501780D03*
X153550000Y-109500760D03*
X155450000Y-109500760D03*
X154500000Y-107501780D03*
X173550000Y-109500760D03*
X175450000Y-109500760D03*
X174500000Y-107501780D03*
X73550000Y-100500760D03*
X75450000Y-100500760D03*
X74500000Y-98501780D03*
X93550000Y-100500760D03*
X95450000Y-100500760D03*
X94500000Y-98501780D03*
X113550000Y-100500760D03*
X115450000Y-100500760D03*
X114500000Y-98501780D03*
X133550000Y-100500760D03*
X135450000Y-100500760D03*
X134500000Y-98501780D03*
X153550000Y-100500760D03*
X155450000Y-100500760D03*
X154500000Y-98501780D03*
X173550000Y-100500760D03*
X175450000Y-100500760D03*
X174500000Y-98501780D03*
D18*
X71500000Y-114950000D03*
X71500000Y-112050000D03*
X91500000Y-114950000D03*
X91500000Y-112050000D03*
D13*
X124950000Y-92500000D03*
X122050000Y-92500000D03*
X144950000Y-92500000D03*
X142050000Y-92500000D03*
X164950000Y-92500000D03*
X162050000Y-92500000D03*
X72950000Y-92500000D03*
X70050000Y-92500000D03*
X92950000Y-92500000D03*
X90050000Y-92500000D03*
X112950000Y-92500000D03*
X110050000Y-92500000D03*
X132950000Y-92500000D03*
X130050000Y-92500000D03*
X152950000Y-92500000D03*
X150050000Y-92500000D03*
X172950000Y-92500000D03*
X170050000Y-92500000D03*
D18*
X189500000Y-131950000D03*
X189500000Y-129050000D03*
D13*
X192950000Y-125500000D03*
X190050000Y-125500000D03*
X102050000Y-88500000D03*
X104950000Y-88500000D03*
X142050000Y-88500000D03*
X144950000Y-88500000D03*
X62050000Y-88500000D03*
X64950000Y-88500000D03*
D14*
X158080140Y-88500000D03*
X160919860Y-88500000D03*
X78080140Y-88500000D03*
X80919860Y-88500000D03*
X118080140Y-88500000D03*
X120919860Y-88500000D03*
D15*
X220000000Y-84960000D03*
D16*
X220000000Y-90040000D03*
D15*
X220000000Y-94960000D03*
D16*
X220000000Y-100040000D03*
D15*
X220000000Y-104960000D03*
D16*
X220000000Y-110040000D03*
D10*
G36*
X66750000Y-99750000D02*
X68250000Y-99750000D01*
X68750000Y-101250000D01*
X66250000Y-101250000D01*
X66750000Y-99750000D01*
X66750000Y-99750000D01*
G37*
G36*
X66250000Y-103750000D02*
X68750000Y-103750000D01*
X68250000Y-105250000D01*
X66750000Y-105250000D01*
X66250000Y-103750000D01*
X66250000Y-103750000D01*
G37*
D21*
X67500000Y-102500000D03*
D10*
G36*
X86750000Y-99750000D02*
X88250000Y-99750000D01*
X88750000Y-101250000D01*
X86250000Y-101250000D01*
X86750000Y-99750000D01*
X86750000Y-99750000D01*
G37*
G36*
X86250000Y-103750000D02*
X88750000Y-103750000D01*
X88250000Y-105250000D01*
X86750000Y-105250000D01*
X86250000Y-103750000D01*
X86250000Y-103750000D01*
G37*
D21*
X87500000Y-102500000D03*
D10*
G36*
X106750000Y-99750000D02*
X108250000Y-99750000D01*
X108750000Y-101250000D01*
X106250000Y-101250000D01*
X106750000Y-99750000D01*
X106750000Y-99750000D01*
G37*
G36*
X106250000Y-103750000D02*
X108750000Y-103750000D01*
X108250000Y-105250000D01*
X106750000Y-105250000D01*
X106250000Y-103750000D01*
X106250000Y-103750000D01*
G37*
D21*
X107500000Y-102500000D03*
D10*
G36*
X126750000Y-99750000D02*
X128250000Y-99750000D01*
X128750000Y-101250000D01*
X126250000Y-101250000D01*
X126750000Y-99750000D01*
X126750000Y-99750000D01*
G37*
G36*
X126250000Y-103750000D02*
X128750000Y-103750000D01*
X128250000Y-105250000D01*
X126750000Y-105250000D01*
X126250000Y-103750000D01*
X126250000Y-103750000D01*
G37*
D21*
X127500000Y-102500000D03*
D10*
G36*
X146750000Y-99750000D02*
X148250000Y-99750000D01*
X148750000Y-101250000D01*
X146250000Y-101250000D01*
X146750000Y-99750000D01*
X146750000Y-99750000D01*
G37*
G36*
X146250000Y-103750000D02*
X148750000Y-103750000D01*
X148250000Y-105250000D01*
X146750000Y-105250000D01*
X146250000Y-103750000D01*
X146250000Y-103750000D01*
G37*
D21*
X147500000Y-102500000D03*
D10*
G36*
X166750000Y-99750000D02*
X168250000Y-99750000D01*
X168750000Y-101250000D01*
X166250000Y-101250000D01*
X166750000Y-99750000D01*
X166750000Y-99750000D01*
G37*
G36*
X166250000Y-103750000D02*
X168750000Y-103750000D01*
X168250000Y-105250000D01*
X166750000Y-105250000D01*
X166250000Y-103750000D01*
X166250000Y-103750000D01*
G37*
D21*
X167500000Y-102500000D03*
D22*
X77135000Y-95500000D03*
X73865000Y-95500000D03*
X97135000Y-95500000D03*
X93865000Y-95500000D03*
X117135000Y-95500000D03*
X113865000Y-95500000D03*
X137135000Y-95500000D03*
X133865000Y-95500000D03*
X157135000Y-95500000D03*
X153865000Y-95500000D03*
X177135000Y-95500000D03*
X173865000Y-95500000D03*
D11*
X43500000Y-136000000D03*
X43500000Y-111000000D03*
D12*
X45480000Y-119170000D03*
X45480000Y-121460000D03*
X45480000Y-123750000D03*
X45480000Y-126040000D03*
X45480000Y-128330000D03*
X43500000Y-118030000D03*
X43500000Y-120320000D03*
X43500000Y-122610000D03*
X43500000Y-124900000D03*
X43500000Y-127190000D03*
X41520000Y-119200000D03*
X41520000Y-121460000D03*
X41520000Y-123750000D03*
X41520000Y-126040000D03*
X41520000Y-128330000D03*
D15*
X57460000Y-65000000D03*
D16*
X62540000Y-65000000D03*
D15*
X67460000Y-65000000D03*
D16*
X72540000Y-65000000D03*
D15*
X77460000Y-65000000D03*
D16*
X82540000Y-65000000D03*
D15*
X220000000Y-114960000D03*
D16*
X220000000Y-120040000D03*
D11*
X217000000Y-139500000D03*
X192000000Y-139500000D03*
D12*
X200170000Y-137520000D03*
X202460000Y-137520000D03*
X204750000Y-137520000D03*
X207040000Y-137520000D03*
X209330000Y-137520000D03*
X199030000Y-139500000D03*
X201320000Y-139500000D03*
X203610000Y-139500000D03*
X205900000Y-139500000D03*
X208190000Y-139500000D03*
X200200000Y-141480000D03*
X202460000Y-141480000D03*
X204750000Y-141480000D03*
X207040000Y-141480000D03*
X209330000Y-141480000D03*
D15*
X220000000Y-124960000D03*
D16*
X220000000Y-130040000D03*
D23*
X68500000Y-128500000D03*
X75500000Y-128500000D03*
X204000000Y-119000000D03*
X210500000Y-119000000D03*
X98500000Y-117500000D03*
X98500000Y-128500000D03*
X158500000Y-128500000D03*
X158500000Y-116000000D03*
X83500000Y-84500000D03*
X83500000Y-74500000D03*
X63500000Y-81000000D03*
X63500000Y-86000000D03*
X87500000Y-81500000D03*
X87500000Y-86000000D03*
X103500000Y-86000000D03*
X103500000Y-80500000D03*
X127500000Y-86000000D03*
X127500000Y-81500000D03*
X57000000Y-120500000D03*
X58500000Y-86000000D03*
X58500000Y-77000000D03*
X57000000Y-114500000D03*
X143500000Y-86000000D03*
X143500000Y-81500000D03*
X60000000Y-76000000D03*
X60000000Y-86000000D03*
X167500000Y-86000000D03*
X167500000Y-81500000D03*
X58500000Y-114500000D03*
X58500000Y-122500000D03*
X81000000Y-86000000D03*
X81000000Y-82000000D03*
X121000000Y-80500000D03*
X121000000Y-86000000D03*
X49500000Y-85000000D03*
X49500000Y-78000000D03*
X207500000Y-110000000D03*
X211500000Y-110000000D03*
X205500000Y-105000000D03*
X211500000Y-105000000D03*
X80000000Y-127000000D03*
D24*
X80000000Y-117000000D03*
D23*
X202000000Y-83000000D03*
X202000000Y-86000000D03*
X85500000Y-83000000D03*
X85500000Y-86000000D03*
X142000000Y-129000000D03*
X142000000Y-117500000D03*
X163500000Y-83000000D03*
X163500000Y-86000000D03*
X142000000Y-83000000D03*
X142000000Y-86000000D03*
X123500000Y-83000000D03*
X123500000Y-86000000D03*
X102000000Y-83000000D03*
X102000000Y-86000000D03*
X49000000Y-110500000D03*
X49000000Y-132000000D03*
X69500000Y-121500000D03*
X74000000Y-121500000D03*
X200500000Y-132500000D03*
X213000000Y-132500000D03*
X51000000Y-110500000D03*
X51000000Y-121500000D03*
X51000000Y-77000000D03*
X51000000Y-90000000D03*
X52500000Y-88500000D03*
X52500000Y-77000000D03*
X52500000Y-123500000D03*
X52500000Y-110500000D03*
X214500000Y-123000000D03*
X202500000Y-123000000D03*
X134500000Y-123500000D03*
X140000000Y-123500000D03*
X100500000Y-123500000D03*
X73500000Y-123500000D03*
X68500000Y-123500000D03*
X107000000Y-123500000D03*
X173500000Y-123500000D03*
X167500000Y-123500000D03*
X202500000Y-125500000D03*
X214500000Y-125500000D03*
X167500000Y-125500000D03*
X173500000Y-125500000D03*
X140000000Y-125500000D03*
X134500000Y-125500000D03*
X107000000Y-125500000D03*
X100500000Y-125500000D03*
X73500000Y-125500000D03*
X68500000Y-125500000D03*
X54000000Y-87000000D03*
X54000000Y-77000000D03*
X54000000Y-114500000D03*
X54000000Y-110500000D03*
X55500000Y-86000000D03*
X55500000Y-77000000D03*
X57000000Y-86000000D03*
X57000000Y-77000000D03*
X50500000Y-130500000D03*
X55500000Y-114500000D03*
X55500000Y-124000000D03*
X56000000Y-130500000D03*
D25*
X119500000Y-129000000D02*
X107000000Y-129000000D01*
X102500000Y-117500000D02*
X98500000Y-117500000D01*
X105500000Y-120500000D02*
X102500000Y-117500000D01*
X105500000Y-127500000D02*
X105500000Y-120500000D01*
X107000000Y-129000000D02*
X105500000Y-127500000D01*
D26*
X66500000Y-128500000D02*
X68500000Y-128500000D01*
X94500000Y-128500000D02*
X97000000Y-128500000D01*
X75500000Y-128500000D02*
X94500000Y-128500000D01*
X97000000Y-128500000D02*
X98500000Y-128500000D01*
X204000000Y-84500000D02*
X204000000Y-93500000D01*
X204000000Y-119000000D02*
X204000000Y-93500000D01*
D27*
X210500000Y-136350000D02*
X209330000Y-137520000D01*
X210500000Y-136350000D02*
X210500000Y-119000000D01*
D26*
X171500000Y-84500000D02*
X204000000Y-84500000D01*
X204000000Y-84500000D02*
X219540000Y-84500000D01*
D27*
X219540000Y-84500000D02*
X220000000Y-84960000D01*
D25*
X133000000Y-130000000D02*
X133000000Y-132280000D01*
X132000000Y-129000000D02*
X133000000Y-130000000D01*
X119500000Y-129000000D02*
X132000000Y-129000000D01*
D27*
X133000000Y-132280000D02*
X133150000Y-132430000D01*
D26*
X98500000Y-109500000D02*
X98500000Y-117500000D01*
X98500000Y-128500000D02*
X98500000Y-128500000D01*
D25*
X100000000Y-131000000D02*
X100050000Y-132430000D01*
X98500000Y-128500000D02*
X100000000Y-130000000D01*
X100000000Y-130000000D02*
X100000000Y-131000000D01*
X100000000Y-131000000D02*
X100000000Y-131000000D01*
X158500000Y-109500000D02*
X158500000Y-116000000D01*
X166000000Y-129500000D02*
X166000000Y-132180000D01*
X165000000Y-128500000D02*
X166000000Y-129500000D01*
X158500000Y-128500000D02*
X165000000Y-128500000D01*
X166000000Y-132180000D02*
X166250000Y-132430000D01*
D27*
X82540000Y-65000000D02*
X82500000Y-65040000D01*
D26*
X82500000Y-65040000D02*
X82500000Y-73500000D01*
X82500000Y-73500000D02*
X83500000Y-74500000D01*
D27*
X171500000Y-90500000D02*
X171500000Y-84500000D01*
D26*
X171500000Y-84500000D02*
X162000000Y-84500000D01*
X162000000Y-84500000D02*
X159500000Y-84500000D01*
D25*
X158500000Y-93500000D02*
X158500000Y-91500000D01*
X159500000Y-90500000D02*
X159500000Y-84500000D01*
X158500000Y-91500000D02*
X159500000Y-90500000D01*
D26*
X159500000Y-84500000D02*
X141500000Y-84500000D01*
X141500000Y-84500000D02*
X131500000Y-84500000D01*
D25*
X118500000Y-93500000D02*
X118500000Y-91500000D01*
X119500000Y-90500000D02*
X119500000Y-84500000D01*
X118500000Y-91500000D02*
X119500000Y-90500000D01*
X131500000Y-90500000D02*
X131500000Y-84500000D01*
D26*
X131500000Y-84500000D02*
X126000000Y-84500000D01*
X126000000Y-84500000D02*
X119500000Y-84500000D01*
X119500000Y-84500000D02*
X91500000Y-84500000D01*
X79500000Y-84500000D02*
X83500000Y-84500000D01*
X83500000Y-84500000D02*
X91500000Y-84500000D01*
X91500000Y-84500000D02*
X91500000Y-90500000D01*
X219540000Y-74500000D02*
X220000000Y-74960000D01*
D27*
X79500000Y-84500000D02*
X79500000Y-84500000D01*
X79500000Y-90000000D02*
X79500000Y-84500000D01*
X78500000Y-93500000D02*
X78500000Y-91000000D01*
X78500000Y-91000000D02*
X79500000Y-90000000D01*
D26*
X49500000Y-74500000D02*
X49500000Y-72000000D01*
X46830000Y-77170000D02*
X49500000Y-74500000D01*
X45480000Y-77170000D02*
X46830000Y-77170000D01*
X82540000Y-63040000D02*
X82540000Y-65000000D01*
X81500000Y-62000000D02*
X82540000Y-63040000D01*
X55500000Y-62000000D02*
X81500000Y-62000000D01*
X53500000Y-64000000D02*
X55500000Y-62000000D01*
X53500000Y-68000000D02*
X53500000Y-64000000D01*
X49500000Y-72000000D02*
X53500000Y-68000000D01*
X66500000Y-131980000D02*
X66500000Y-129500000D01*
X57670000Y-119170000D02*
X66500000Y-128000000D01*
X66500000Y-128000000D02*
X66500000Y-128500000D01*
X66500000Y-128500000D02*
X66500000Y-129500000D01*
X57670000Y-119170000D02*
X45480000Y-119170000D01*
X66500000Y-131980000D02*
X66950000Y-132430000D01*
D28*
X220000000Y-74960000D02*
X220000000Y-80040000D01*
X220000000Y-80040000D02*
X220000000Y-84960000D01*
D27*
X208190000Y-139500000D02*
X209330000Y-138360000D01*
X209330000Y-138360000D02*
X209330000Y-137520000D01*
D25*
X178500000Y-102500000D02*
X178500000Y-109501780D01*
X178500000Y-109501780D02*
X175500000Y-112501780D01*
X174500000Y-107501780D02*
X174500000Y-102500000D01*
X171500000Y-90500000D02*
X171500000Y-95919860D01*
D27*
X175500000Y-90500000D02*
X171500000Y-90500000D01*
X178500000Y-93500000D02*
X175500000Y-90500000D01*
D25*
X178500000Y-99500000D02*
X178500000Y-93500000D01*
X178500000Y-102500000D02*
X178500000Y-99500000D01*
X174500000Y-102500000D02*
X178500000Y-102500000D01*
X154500000Y-98501780D02*
X154500000Y-98135000D01*
X154500000Y-98135000D02*
X152865000Y-96500000D01*
X150919860Y-96500000D02*
X152865000Y-96500000D01*
X152865000Y-96500000D02*
X153865000Y-95500000D01*
X158500000Y-102500000D02*
X158500000Y-109500000D01*
X158500000Y-109500000D02*
X158500000Y-109501780D01*
X158500000Y-109501780D02*
X155500000Y-112501780D01*
X154500000Y-107501780D02*
X154500000Y-102500000D01*
X158500000Y-102500000D02*
X158500000Y-99500000D01*
X154500000Y-102500000D02*
X158500000Y-102500000D01*
X151500000Y-92500000D02*
X151500000Y-90500000D01*
X151500000Y-90500000D02*
X155500000Y-90500000D01*
X155500000Y-90500000D02*
X158500000Y-93500000D01*
X158500000Y-93500000D02*
X158500000Y-99500000D01*
X151500000Y-95919860D02*
X151500000Y-92500000D01*
X138500000Y-102500000D02*
X138500000Y-94500000D01*
X131500000Y-90500000D02*
X131500000Y-96500000D01*
X135500000Y-90500000D02*
X131500000Y-90500000D01*
X138500000Y-93500000D02*
X135500000Y-90500000D01*
X138500000Y-94500000D02*
X138500000Y-93500000D01*
X131500000Y-96500000D02*
X130919860Y-96500000D01*
X134500000Y-107501780D02*
X134500000Y-102500000D01*
X138500000Y-109501780D02*
X135500000Y-112501780D01*
X138500000Y-102500000D02*
X138500000Y-109501780D01*
X134500000Y-102500000D02*
X138500000Y-102500000D01*
X134500000Y-98501780D02*
X134500000Y-98135000D01*
X134500000Y-98135000D02*
X132865000Y-96500000D01*
X130919860Y-96500000D02*
X132865000Y-96500000D01*
X132865000Y-96500000D02*
X133865000Y-95500000D01*
X74500000Y-98501780D02*
X74500000Y-98135000D01*
X74500000Y-98135000D02*
X72865000Y-96500000D01*
X70919860Y-96500000D02*
X72865000Y-96500000D01*
X72865000Y-96500000D02*
X73865000Y-95500000D01*
D27*
X118500000Y-102500000D02*
X118500000Y-109500000D01*
X118500000Y-109500000D02*
X118500000Y-109501780D01*
X118500000Y-109501780D02*
X115500000Y-112501780D01*
D25*
X114500000Y-107501780D02*
X114500000Y-102500000D01*
X111500000Y-90500000D02*
X111500000Y-95919860D01*
X115500000Y-90500000D02*
X111500000Y-90500000D01*
X118500000Y-93500000D02*
X118250000Y-93250000D01*
X118250000Y-93250000D02*
X115500000Y-90500000D01*
X118500000Y-99500000D02*
X118500000Y-93500000D01*
X118500000Y-102500000D02*
X118500000Y-99500000D01*
X114500000Y-102500000D02*
X118500000Y-102500000D01*
X114500000Y-98501780D02*
X114500000Y-98135000D01*
X114500000Y-98135000D02*
X112865000Y-96500000D01*
D26*
X98500000Y-102500000D02*
X98500000Y-109500000D01*
D25*
X98500000Y-109500000D02*
X98500000Y-109501780D01*
X98500000Y-109501780D02*
X95500000Y-112501780D01*
X94500000Y-107501780D02*
X94500000Y-102500000D01*
D26*
X91500000Y-90500000D02*
X95500000Y-90500000D01*
X98500000Y-93500000D02*
X98500000Y-102500000D01*
X95500000Y-90500000D02*
X98500000Y-93500000D01*
D25*
X91500000Y-90500000D02*
X91500000Y-95919860D01*
X94500000Y-102500000D02*
X98500000Y-102500000D01*
X90919860Y-96500000D02*
X91500000Y-95919860D01*
X94500000Y-98501780D02*
X94500000Y-98135000D01*
X94500000Y-98135000D02*
X92865000Y-96500000D01*
X90919860Y-96500000D02*
X92865000Y-96500000D01*
X92865000Y-96500000D02*
X93865000Y-95500000D01*
X74500000Y-107501780D02*
X74500000Y-103500000D01*
X74500000Y-102500000D02*
X78500000Y-102500000D01*
X74500000Y-103500000D02*
X74500000Y-102500000D01*
X70919860Y-96500000D02*
X71500000Y-95919860D01*
X71500000Y-95919860D02*
X71500000Y-90500000D01*
X78500000Y-93500000D02*
X78500000Y-102500000D01*
X75500000Y-90500000D02*
X78500000Y-93500000D01*
X71500000Y-90500000D02*
X75500000Y-90500000D01*
X78500000Y-102500000D02*
X78500000Y-109501780D01*
X78500000Y-109501780D02*
X75500000Y-112501780D01*
X171500000Y-112050000D02*
X175048220Y-112050000D01*
X175048220Y-112050000D02*
X175500000Y-112501780D01*
X151500000Y-112050000D02*
X155048220Y-112050000D01*
X155048220Y-112050000D02*
X155500000Y-112501780D01*
X131500000Y-112050000D02*
X135048220Y-112050000D01*
X135048220Y-112050000D02*
X135500000Y-112501780D01*
X111500000Y-112050000D02*
X115050000Y-112050000D01*
X115050000Y-112050000D02*
X115500000Y-112500000D01*
X115500000Y-112500000D02*
X115500000Y-112501780D01*
X91500000Y-112050000D02*
X95048220Y-112050000D01*
X95048220Y-112050000D02*
X95500000Y-112501780D01*
X75500000Y-112501780D02*
X75500000Y-112500000D01*
X71500000Y-112050000D02*
X75048220Y-112050000D01*
X75048220Y-112050000D02*
X75500000Y-112501780D01*
X171500000Y-95919860D02*
X170919860Y-96500000D01*
X170919860Y-108500000D02*
X171918080Y-107501780D01*
X171918080Y-107501780D02*
X174500000Y-107501780D01*
X173865000Y-95500000D02*
X173865000Y-97866780D01*
X173865000Y-97866780D02*
X174500000Y-98501780D01*
X170919860Y-96500000D02*
X171919860Y-95500000D01*
X171919860Y-95500000D02*
X173865000Y-95500000D01*
X150919860Y-96500000D02*
X151500000Y-95919860D01*
X150919860Y-108500000D02*
X151918080Y-107501780D01*
X151918080Y-107501780D02*
X154500000Y-107501780D01*
X130919860Y-108500000D02*
X131918080Y-107501780D01*
X131918080Y-107501780D02*
X134500000Y-107501780D01*
X111500000Y-95919860D02*
X110919860Y-96500000D01*
X114500000Y-107501780D02*
X111918080Y-107501780D01*
X111918080Y-107501780D02*
X110919860Y-108500000D01*
X110919860Y-96500000D02*
X112865000Y-96500000D01*
X112865000Y-96500000D02*
X113865000Y-95500000D01*
X90919860Y-108500000D02*
X91918080Y-107501780D01*
X91918080Y-107501780D02*
X94500000Y-107501780D01*
X70919860Y-108500000D02*
X71918080Y-107501780D01*
X71918080Y-107501780D02*
X74500000Y-107501780D01*
D27*
X46900000Y-82900000D02*
X47100000Y-82900000D01*
X63500000Y-86000000D02*
X63500000Y-91000000D01*
X64950000Y-92450000D02*
X63500000Y-91000000D01*
X49000000Y-81000000D02*
X63500000Y-81000000D01*
X44800000Y-82900000D02*
X46900000Y-82900000D01*
X44800000Y-82900000D02*
X43500000Y-80610000D01*
X47100000Y-82900000D02*
X49000000Y-81000000D01*
X64950000Y-92450000D02*
X64950000Y-92500000D01*
D25*
X64950000Y-92500000D02*
X64950000Y-91950000D01*
X64950000Y-92500000D02*
X70050000Y-92500000D01*
D27*
X87500000Y-92500000D02*
X87500000Y-86000000D01*
X46999205Y-85200002D02*
X47000000Y-85200000D01*
X87500000Y-81500000D02*
X87500000Y-81500000D01*
X47299998Y-85200002D02*
X50500000Y-82000000D01*
X46999205Y-85200002D02*
X47299998Y-85200002D01*
X66000000Y-81000000D02*
X87000000Y-81000000D01*
X87000000Y-81000000D02*
X87500000Y-81500000D01*
X65000000Y-82000000D02*
X66000000Y-81000000D01*
X50500000Y-82000000D02*
X65000000Y-82000000D01*
X43500000Y-82900000D02*
X44862173Y-85205665D01*
X44862173Y-85205665D02*
X46999205Y-85200002D01*
D25*
X87500000Y-92500000D02*
X90050000Y-92500000D01*
X84950000Y-92500000D02*
X87500000Y-92500000D01*
D27*
X103500000Y-80500000D02*
X103500000Y-80500000D01*
X48000000Y-79000000D02*
X89000000Y-79000000D01*
X89000000Y-79000000D02*
X90500000Y-80500000D01*
X90500000Y-80500000D02*
X103500000Y-80500000D01*
X47500000Y-79500000D02*
X48000000Y-79000000D01*
X103500000Y-80500000D02*
X103500000Y-80500000D01*
X103500000Y-91050000D02*
X104950000Y-92500000D01*
X103500000Y-86000000D02*
X103500000Y-91050000D01*
X45480000Y-79460000D02*
X46960000Y-79460000D01*
X47500000Y-79500000D02*
X47500000Y-79500000D01*
X46960000Y-79460000D02*
X47500000Y-79500000D01*
D25*
X104950000Y-92500000D02*
X104950000Y-91950000D01*
X104950000Y-92500000D02*
X110050000Y-92500000D01*
D27*
X127500000Y-81500000D02*
X127500000Y-81500000D01*
X48500000Y-80000000D02*
X88000000Y-80000000D01*
X88000000Y-80000000D02*
X89500000Y-81500000D01*
X48000000Y-80500000D02*
X48500000Y-80000000D01*
X46230000Y-80500000D02*
X48000000Y-80500000D01*
X89500000Y-81500000D02*
X126500000Y-81500000D01*
X126500000Y-81500000D02*
X127500000Y-81500000D01*
X45480000Y-81750000D02*
X46230000Y-80500000D01*
X127500000Y-86000000D02*
X127500000Y-92500000D01*
D25*
X124950000Y-92500000D02*
X127500000Y-92500000D01*
X127500000Y-92500000D02*
X130050000Y-92500000D01*
D27*
X129500000Y-81500000D02*
X143500000Y-81500000D01*
X46600000Y-120300000D02*
X44800000Y-120300000D01*
X43500000Y-122610000D02*
X44800000Y-120300000D01*
X47500000Y-120500000D02*
X52000000Y-120500000D01*
X52000000Y-120500000D02*
X53000000Y-120500000D01*
X53000000Y-120500000D02*
X57000000Y-120500000D01*
X47000000Y-120300000D02*
X47500000Y-120500000D01*
X46600000Y-120300000D02*
X47000000Y-120300000D01*
X57000000Y-114500000D02*
X57000000Y-113500000D01*
X57000000Y-113500000D02*
X58500000Y-112000000D01*
X58500000Y-112000000D02*
X58500000Y-86000000D01*
X143500000Y-91050000D02*
X144950000Y-92500000D01*
X128500000Y-80500000D02*
X129500000Y-81500000D01*
X61000000Y-77000000D02*
X91000000Y-77000000D01*
X91000000Y-77000000D02*
X92500000Y-78500000D01*
X92500000Y-78500000D02*
X105000000Y-78500000D01*
X105000000Y-78500000D02*
X106000000Y-79500000D01*
X106000000Y-79500000D02*
X121500000Y-79500000D01*
X121500000Y-79500000D02*
X122500000Y-80500000D01*
X122500000Y-80500000D02*
X128500000Y-80500000D01*
X60500000Y-77000000D02*
X61000000Y-77000000D01*
X58500000Y-77000000D02*
X60500000Y-77000000D01*
X143500000Y-86000000D02*
X143500000Y-91050000D01*
D25*
X144950000Y-92500000D02*
X144950000Y-91950000D01*
X144950000Y-92500000D02*
X150050000Y-92500000D01*
D27*
X146000000Y-81500000D02*
X167500000Y-81500000D01*
X123500000Y-79500000D02*
X129500000Y-79500000D01*
X129500000Y-79500000D02*
X130500000Y-80500000D01*
X130500000Y-80500000D02*
X145000000Y-80500000D01*
X145000000Y-80500000D02*
X146000000Y-81500000D01*
X60000000Y-76000000D02*
X92000000Y-76000000D01*
X92000000Y-76000000D02*
X93500000Y-77500000D01*
X93500000Y-77500000D02*
X106000000Y-77500000D01*
X106000000Y-77500000D02*
X107000000Y-78500000D01*
X107000000Y-78500000D02*
X122500000Y-78500000D01*
X122500000Y-78500000D02*
X123500000Y-79500000D01*
X167500000Y-86000000D02*
X167500000Y-92500000D01*
X60000000Y-86000000D02*
X60000000Y-112500000D01*
X60000000Y-112500000D02*
X58500000Y-114000000D01*
X58500000Y-114000000D02*
X58500000Y-114500000D01*
X44817905Y-122610306D02*
X46589694Y-122610306D01*
X44817905Y-122610306D02*
X43500000Y-124900000D01*
X46589694Y-122610306D02*
X47000000Y-122500000D01*
X47000000Y-122500000D02*
X51500000Y-122500000D01*
X51500000Y-122500000D02*
X53500000Y-122500000D01*
X53500000Y-122500000D02*
X58500000Y-122500000D01*
X60000000Y-86000000D02*
X60000000Y-86000000D01*
D25*
X164950000Y-92500000D02*
X167500000Y-92500000D01*
X167500000Y-92500000D02*
X170050000Y-92500000D01*
X170405000Y-135270000D02*
X170405000Y-137595000D01*
X169000000Y-139000000D02*
X170405000Y-137595000D01*
X58500000Y-139000000D02*
X169000000Y-139000000D01*
D27*
X54500000Y-135000000D02*
X58500000Y-139000000D01*
X54500000Y-128000000D02*
X54500000Y-135000000D01*
X51400000Y-124900000D02*
X54500000Y-128000000D01*
X51400000Y-124900000D02*
X47500000Y-124900000D01*
X47500000Y-124900000D02*
X44900000Y-124900000D01*
X44160000Y-126040000D02*
X41720000Y-126040000D01*
X44160000Y-126040000D02*
X44900000Y-124900000D01*
X47400000Y-124900000D02*
X47500000Y-124900000D01*
D25*
X170405000Y-135270000D02*
X170405000Y-131000000D01*
X170405000Y-131000000D02*
X170500000Y-130500000D01*
X170500000Y-130500000D02*
X170500000Y-122000000D01*
X160919860Y-90580140D02*
X160500000Y-91000000D01*
X160500000Y-91000000D02*
X160500000Y-117500000D01*
X160919860Y-90580140D02*
X160919860Y-88500000D01*
X170500000Y-122000000D02*
X168500000Y-120000000D01*
X168500000Y-120000000D02*
X163000000Y-120000000D01*
X163000000Y-120000000D02*
X160500000Y-117500000D01*
X71105000Y-135270000D02*
X71105000Y-131000000D01*
X71105000Y-131000000D02*
X71000000Y-130500000D01*
X71000000Y-130500000D02*
X71000000Y-121000000D01*
X80919860Y-88500000D02*
X80919860Y-90580140D01*
X71000000Y-121000000D02*
X74000000Y-118000000D01*
X74000000Y-118000000D02*
X76000000Y-118000000D01*
X76000000Y-118000000D02*
X80000000Y-114000000D01*
X80000000Y-91500000D02*
X80919860Y-90580140D01*
X80000000Y-91500000D02*
X80000000Y-114000000D01*
D27*
X81000000Y-88419860D02*
X81000000Y-86000000D01*
X81000000Y-88419860D02*
X80919860Y-88500000D01*
X47500000Y-89000000D02*
X53500000Y-83000000D01*
X67000000Y-82000000D02*
X81000000Y-82000000D01*
X66000000Y-83000000D02*
X67000000Y-82000000D01*
X53500000Y-83000000D02*
X66000000Y-83000000D01*
X41520000Y-87520000D02*
X41520000Y-86330000D01*
X43000000Y-89000000D02*
X47500000Y-89000000D01*
X41520000Y-87520000D02*
X43000000Y-89000000D01*
X81000000Y-82000000D02*
X81000000Y-82000000D01*
X81000000Y-88419860D02*
X80919860Y-88500000D01*
X71105000Y-135270000D02*
X71105000Y-137105000D01*
X104205000Y-137295000D02*
X104205000Y-135270000D01*
X104000000Y-137500000D02*
X104205000Y-137295000D01*
X71500000Y-137500000D02*
X104000000Y-137500000D01*
X71105000Y-137105000D02*
X71500000Y-137500000D01*
X91500000Y-79500000D02*
X91500000Y-79500000D01*
X105000000Y-80500000D02*
X121000000Y-80500000D01*
X121000000Y-88419860D02*
X121000000Y-86000000D01*
X104000000Y-79500000D02*
X105000000Y-80500000D01*
X104000000Y-79500000D02*
X91500000Y-79500000D01*
X121000000Y-88419860D02*
X120919860Y-88500000D01*
X51500000Y-78000000D02*
X90000000Y-78000000D01*
X51000000Y-78000000D02*
X51500000Y-78000000D01*
X49500000Y-78000000D02*
X51000000Y-78000000D01*
X90000000Y-78000000D02*
X91500000Y-79500000D01*
X43500000Y-87500000D02*
X44000000Y-88000000D01*
X41520000Y-84040000D02*
X43500000Y-87500000D01*
X46500000Y-88000000D02*
X49500000Y-85000000D01*
X44000000Y-88000000D02*
X46500000Y-88000000D01*
D25*
X120500000Y-117000000D02*
X123500000Y-120000000D01*
X120919860Y-90580140D02*
X120500000Y-91000000D01*
X120500000Y-91000000D02*
X120500000Y-117000000D01*
X120919860Y-88500000D02*
X120919860Y-90580140D01*
X137305000Y-121805000D02*
X137305000Y-135270000D01*
X135500000Y-120000000D02*
X137305000Y-121805000D01*
X123500000Y-120000000D02*
X135500000Y-120000000D01*
D27*
X206500000Y-105500000D02*
X206500000Y-105500000D01*
X219960000Y-90000000D02*
X214000000Y-90000000D01*
X206500000Y-132000000D02*
X206500000Y-105500000D01*
X202500000Y-136000000D02*
X206500000Y-132000000D01*
X202500000Y-136000000D02*
X202500000Y-137480000D01*
X206500000Y-97500000D02*
X214000000Y-90000000D01*
X206500000Y-105500000D02*
X206500000Y-97500000D01*
X202460000Y-137520000D02*
X202500000Y-137480000D01*
X220000000Y-90040000D02*
X219960000Y-90000000D01*
X208500000Y-128500000D02*
X208500000Y-100500000D01*
X219960000Y-95000000D02*
X217000000Y-95000000D01*
X208500000Y-133000000D02*
X208500000Y-128500000D01*
X205000000Y-136500000D02*
X208500000Y-133000000D01*
X205000000Y-136500000D02*
X205000000Y-137270000D01*
X214000000Y-95000000D02*
X217000000Y-95000000D01*
X208500000Y-100500000D02*
X214000000Y-95000000D01*
X204750000Y-137520000D02*
X205000000Y-137270000D01*
X220000000Y-94960000D02*
X219960000Y-95000000D01*
X219960000Y-110000000D02*
X217000000Y-110000000D01*
X203610000Y-136390000D02*
X207500000Y-132500000D01*
X207500000Y-132500000D02*
X207500000Y-110000000D01*
X203610000Y-136390000D02*
X203610000Y-139500000D01*
X211500000Y-110000000D02*
X217000000Y-110000000D01*
X220000000Y-110040000D02*
X219960000Y-110000000D01*
X219960000Y-105000000D02*
X217000000Y-105000000D01*
X201320000Y-135680000D02*
X205500000Y-131500000D01*
X205500000Y-131500000D02*
X205500000Y-105000000D01*
X205500000Y-105000000D02*
X205500000Y-105000000D01*
X201320000Y-135680000D02*
X201320000Y-139500000D01*
X211500000Y-105000000D02*
X217000000Y-105000000D01*
X220000000Y-104960000D02*
X219960000Y-105000000D01*
X209500000Y-104500000D02*
X214000000Y-100000000D01*
X219960000Y-100000000D02*
X217000000Y-100000000D01*
X209500000Y-134000000D02*
X209500000Y-104500000D01*
X207500000Y-136000000D02*
X209500000Y-134000000D01*
X207500000Y-137060000D02*
X207500000Y-136000000D01*
X207500000Y-137060000D02*
X207040000Y-137520000D01*
X214000000Y-100000000D02*
X217000000Y-100000000D01*
X220000000Y-100040000D02*
X219960000Y-100000000D01*
X45480000Y-126040000D02*
X50540000Y-126040000D01*
D25*
X190985000Y-134500000D02*
X192350000Y-133135000D01*
X188500000Y-134500000D02*
X190985000Y-134500000D01*
X182500000Y-140500000D02*
X188500000Y-134500000D01*
X58000000Y-140500000D02*
X182500000Y-140500000D01*
D27*
X50540000Y-126040000D02*
X53000000Y-128500000D01*
X53000000Y-128500000D02*
X53000000Y-135500000D01*
X53000000Y-135500000D02*
X58000000Y-140500000D01*
D25*
X193635000Y-129135000D02*
X194500000Y-130000000D01*
X194500000Y-130000000D02*
X194500000Y-133500000D01*
X194500000Y-133500000D02*
X192000000Y-136000000D01*
X192000000Y-136000000D02*
X189500000Y-136000000D01*
D27*
X45480000Y-128330000D02*
X50830000Y-128330000D01*
D25*
X183500000Y-142000000D02*
X189500000Y-136000000D01*
X57500000Y-142000000D02*
X183500000Y-142000000D01*
D27*
X51500000Y-129000000D02*
X51500000Y-136000000D01*
X51500000Y-136000000D02*
X57500000Y-142000000D01*
X50830000Y-128330000D02*
X51500000Y-129000000D01*
D25*
X193635000Y-129135000D02*
X192350000Y-129135000D01*
D27*
X82050000Y-114500000D02*
X82050000Y-114950000D01*
X82050000Y-114950000D02*
X80000000Y-117000000D01*
D25*
X78730000Y-135270000D02*
X76645000Y-135270000D01*
X80500000Y-133500000D02*
X78730000Y-135270000D01*
X80500000Y-131000000D02*
X80500000Y-133500000D01*
X79500000Y-130000000D02*
X80500000Y-131000000D01*
X74500000Y-130000000D02*
X79500000Y-130000000D01*
X74000000Y-129500000D02*
X74500000Y-130000000D01*
X74000000Y-127500000D02*
X74000000Y-129500000D01*
X74500000Y-127000000D02*
X74000000Y-127500000D01*
X80000000Y-127000000D02*
X74500000Y-127000000D01*
D26*
X202000000Y-120000000D02*
X202000000Y-111500000D01*
X204000000Y-122000000D02*
X202000000Y-120000000D01*
X204000000Y-129500000D02*
X204000000Y-122000000D01*
X202000000Y-89500000D02*
X202000000Y-86000000D01*
X202000000Y-111500000D02*
X202000000Y-89500000D01*
X201000000Y-126500000D02*
X204000000Y-129500000D01*
D27*
X200170000Y-134830000D02*
X200170000Y-137520000D01*
D26*
X204000000Y-131000000D02*
X204000000Y-129500000D01*
X200170000Y-134830000D02*
X204000000Y-131000000D01*
D28*
X220000000Y-64960000D02*
X220000000Y-70040000D01*
D27*
X82050000Y-92500000D02*
X82050000Y-91450000D01*
X85500000Y-88000000D02*
X85500000Y-86000000D01*
X82050000Y-91450000D02*
X85500000Y-88000000D01*
X102000000Y-114500000D02*
X102050000Y-114500000D01*
X142050000Y-114500000D02*
X142050000Y-116550000D01*
D25*
X145230000Y-135270000D02*
X142845000Y-135270000D01*
X146500000Y-134000000D02*
X145230000Y-135270000D01*
X146500000Y-130500000D02*
X146500000Y-134000000D01*
X142000000Y-129000000D02*
X145000000Y-129000000D01*
X145000000Y-129000000D02*
X146500000Y-130500000D01*
D27*
X142000000Y-129000000D02*
X142000000Y-129000000D01*
X142000000Y-129000000D02*
X142000000Y-129000000D01*
X142000000Y-117500000D02*
X142000000Y-117500000D01*
X142050000Y-116550000D02*
X142000000Y-117500000D01*
X109745000Y-135270000D02*
X109745000Y-136745000D01*
X109745000Y-136745000D02*
X110500000Y-137500000D01*
X110500000Y-137500000D02*
X142500000Y-137500000D01*
X142500000Y-137500000D02*
X142845000Y-137155000D01*
X142845000Y-137155000D02*
X142845000Y-135270000D01*
X162050000Y-92500000D02*
X162050000Y-91450000D01*
X163500000Y-90000000D02*
X163500000Y-86000000D01*
X162050000Y-91450000D02*
X163500000Y-90000000D01*
X142050000Y-88500000D02*
X142000000Y-88450000D01*
X142000000Y-88450000D02*
X142000000Y-86000000D01*
X122050000Y-92500000D02*
X122050000Y-91950000D01*
X122050000Y-91950000D02*
X123500000Y-90500000D01*
X123500000Y-90500000D02*
X123500000Y-86000000D01*
X102000000Y-88450000D02*
X102000000Y-86000000D01*
D26*
X165000000Y-83000000D02*
X202000000Y-83000000D01*
X165000000Y-83000000D02*
X163500000Y-83000000D01*
X202000000Y-83000000D02*
X214500000Y-83000000D01*
D28*
X214500000Y-70000000D02*
X219960000Y-70000000D01*
D26*
X214500000Y-83000000D02*
X214500000Y-70000000D01*
X141500000Y-83000000D02*
X126000000Y-83000000D01*
X118000000Y-83000000D02*
X102000000Y-83000000D01*
X102000000Y-83000000D02*
X100000000Y-83000000D01*
X89500000Y-83000000D02*
X93000000Y-83000000D01*
X85500000Y-83000000D02*
X89500000Y-83000000D01*
X100000000Y-83000000D02*
X93000000Y-83000000D01*
X80000000Y-83000000D02*
X85500000Y-83000000D01*
X79000000Y-83000000D02*
X80000000Y-83000000D01*
X79000000Y-83000000D02*
X79000000Y-83000000D01*
X77500000Y-84500000D02*
X79000000Y-83000000D01*
X62000000Y-84500000D02*
X77500000Y-84500000D01*
X126000000Y-83000000D02*
X123500000Y-83000000D01*
X123500000Y-83000000D02*
X118000000Y-83000000D01*
X163500000Y-83000000D02*
X142000000Y-83000000D01*
X142000000Y-83000000D02*
X141500000Y-83000000D01*
X219960000Y-70000000D02*
X220000000Y-70040000D01*
X201000000Y-126500000D02*
X198000000Y-123500000D01*
D27*
X201000000Y-126500000D02*
X201000000Y-126500000D01*
D26*
X190050000Y-123950000D02*
X190050000Y-125500000D01*
X190500000Y-123500000D02*
X190050000Y-123950000D01*
X198000000Y-123500000D02*
X190500000Y-123500000D01*
D25*
X82050000Y-96500000D02*
X82050000Y-108500000D01*
D26*
X42000000Y-132000000D02*
X49000000Y-132000000D01*
X40000000Y-130000000D02*
X42000000Y-132000000D01*
X40000000Y-125000000D02*
X40000000Y-130000000D01*
X41250000Y-123750000D02*
X40000000Y-125000000D01*
X49000000Y-110500000D02*
X49000000Y-90000000D01*
D27*
X102000000Y-88450000D02*
X102050000Y-88500000D01*
D26*
X62000000Y-88450000D02*
X62000000Y-84500000D01*
D27*
X40000000Y-83000000D02*
X41250000Y-81750000D01*
D26*
X40000000Y-83000000D02*
X40000000Y-88500000D01*
X42000000Y-90500000D02*
X40000000Y-88500000D01*
X48500000Y-90500000D02*
X42000000Y-90500000D01*
X49000000Y-90000000D02*
X48500000Y-90500000D01*
X62000000Y-84500000D02*
X54500000Y-84500000D01*
X54500000Y-84500000D02*
X49000000Y-90000000D01*
X62000000Y-88450000D02*
X62050000Y-88500000D01*
D27*
X199030000Y-139500000D02*
X199030000Y-138660000D01*
X199030000Y-138660000D02*
X200170000Y-137520000D01*
X41520000Y-81750000D02*
X41250000Y-81750000D01*
X41520000Y-123750000D02*
X41250000Y-123750000D01*
D26*
X189500000Y-129050000D02*
X189500000Y-126050000D01*
X189500000Y-126050000D02*
X190050000Y-125500000D01*
X175945000Y-135270000D02*
X178730000Y-135270000D01*
X182500000Y-129500000D02*
X189050000Y-129500000D01*
X179500000Y-132500000D02*
X182500000Y-129500000D01*
X179500000Y-134500000D02*
X179500000Y-132500000D01*
X178730000Y-135270000D02*
X179500000Y-134500000D01*
X189050000Y-129500000D02*
X189500000Y-129050000D01*
D25*
X162050000Y-96500000D02*
X162050000Y-92500000D01*
X162050000Y-108500000D02*
X162050000Y-96500000D01*
X162050000Y-114500000D02*
X162050000Y-108500000D01*
X142050000Y-92500000D02*
X142050000Y-96500000D01*
X142050000Y-96500000D02*
X142050000Y-108500000D01*
X142050000Y-108500000D02*
X142050000Y-114500000D01*
X122050000Y-114500000D02*
X122050000Y-108500000D01*
X122050000Y-108500000D02*
X122050000Y-96500000D01*
X122050000Y-96500000D02*
X122050000Y-92500000D01*
X102050000Y-96500000D02*
X102050000Y-92500000D01*
X102050000Y-108500000D02*
X102050000Y-96500000D01*
X102050000Y-114500000D02*
X102050000Y-108500000D01*
X82050000Y-92500000D02*
X82050000Y-96500000D01*
X62050000Y-96500000D02*
X62050000Y-108500000D01*
X142050000Y-92500000D02*
X142050000Y-88500000D01*
X102050000Y-92500000D02*
X102050000Y-88500000D01*
X62050000Y-92500000D02*
X62050000Y-88500000D01*
X82050000Y-114500000D02*
X82050000Y-108500000D01*
X62050000Y-108500000D02*
X62050000Y-114500000D01*
X62050000Y-92500000D02*
X62050000Y-96500000D01*
X69500000Y-121500000D02*
X69500000Y-130500000D01*
X69720000Y-131000000D02*
X69500000Y-130500000D01*
X69720000Y-131000000D02*
X69720000Y-132430000D01*
X67500000Y-121500000D02*
X69500000Y-121500000D01*
X81000000Y-121500000D02*
X74000000Y-121500000D01*
X64950000Y-118950000D02*
X64950000Y-114500000D01*
X64950000Y-118950000D02*
X67500000Y-121500000D01*
X102500000Y-123000000D02*
X101000000Y-121500000D01*
X102500000Y-130500000D02*
X102500000Y-123000000D01*
X102820000Y-131000000D02*
X102500000Y-130500000D01*
X102820000Y-132430000D02*
X102820000Y-131000000D01*
X101000000Y-121500000D02*
X81000000Y-121500000D01*
D27*
X81000000Y-121500000D02*
X81000000Y-121500000D01*
D25*
X64950000Y-114500000D02*
X64950000Y-114050000D01*
X64950000Y-114050000D02*
X65500000Y-113500000D01*
X65500000Y-113500000D02*
X70050000Y-113500000D01*
X70050000Y-113500000D02*
X71500000Y-114950000D01*
X71500000Y-114950000D02*
X74100760Y-114950000D01*
X74100760Y-114950000D02*
X74550000Y-114500760D01*
X84950000Y-114500000D02*
X85000000Y-119500000D01*
X81500000Y-119500000D02*
X85000000Y-119500000D01*
X72491500Y-121508500D02*
X74500000Y-119500000D01*
X74500000Y-119500000D02*
X79500000Y-119500000D01*
X79500000Y-119500000D02*
X81500000Y-119500000D01*
X72490000Y-132430000D02*
X72490000Y-131000000D01*
X72490000Y-131000000D02*
X72500000Y-130000000D01*
X72500000Y-130000000D02*
X72491500Y-121508500D01*
X85000000Y-119500000D02*
X101500000Y-119500000D01*
X101500000Y-119500000D02*
X104000000Y-122000000D01*
X104000000Y-122000000D02*
X103987133Y-128987862D01*
X103987133Y-128987862D02*
X105590000Y-130500000D01*
X105590000Y-130500000D02*
X105590000Y-132430000D01*
X91500000Y-114950000D02*
X94100760Y-114950000D01*
X94100760Y-114950000D02*
X94550000Y-114500760D01*
X84950000Y-114500000D02*
X85950000Y-113500000D01*
X90050000Y-113500000D02*
X91500000Y-114950000D01*
X85950000Y-113500000D02*
X90050000Y-113500000D01*
X135920000Y-132430000D02*
X135920000Y-122420000D01*
X104950000Y-116950000D02*
X104950000Y-114500000D01*
X109500000Y-121500000D02*
X104950000Y-116950000D01*
X135000000Y-121500000D02*
X109500000Y-121500000D01*
X135920000Y-122420000D02*
X135000000Y-121500000D01*
X111500000Y-114950000D02*
X114100760Y-114950000D01*
X114100760Y-114950000D02*
X114550000Y-114500760D01*
X104950000Y-114500000D02*
X105950000Y-113500000D01*
X110050000Y-113500000D02*
X111500000Y-114950000D01*
X105950000Y-113500000D02*
X110050000Y-113500000D01*
X138690000Y-132430000D02*
X138690000Y-121190000D01*
X124950000Y-115950000D02*
X124950000Y-114500000D01*
X127500000Y-118500000D02*
X124950000Y-115950000D01*
X136000000Y-118500000D02*
X127500000Y-118500000D01*
X138690000Y-121190000D02*
X136000000Y-118500000D01*
X131500000Y-114950000D02*
X134100760Y-114950000D01*
X134100760Y-114950000D02*
X134550000Y-114500760D01*
X124950000Y-114500000D02*
X125950000Y-113500000D01*
X130050000Y-113500000D02*
X131500000Y-114950000D01*
X125950000Y-113500000D02*
X130050000Y-113500000D01*
X169020000Y-132430000D02*
X169020000Y-131000000D01*
X169020000Y-131000000D02*
X169000000Y-130000000D01*
X169000000Y-130000000D02*
X169000000Y-122500000D01*
X144950000Y-115950000D02*
X144950000Y-114500000D01*
X150500000Y-121500000D02*
X144950000Y-115950000D01*
X169000000Y-122500000D02*
X168000000Y-121500000D01*
X168000000Y-121500000D02*
X150500000Y-121500000D01*
X151500000Y-114950000D02*
X154100760Y-114950000D01*
X154100760Y-114950000D02*
X154550000Y-114500760D01*
X144950000Y-114500000D02*
X145950000Y-113500000D01*
X150050000Y-113500000D02*
X151500000Y-114950000D01*
X149500000Y-113500000D02*
X150050000Y-113500000D01*
X145950000Y-113500000D02*
X149500000Y-113500000D01*
X171790000Y-132430000D02*
X171790000Y-131000000D01*
X171790000Y-131000000D02*
X172000000Y-130500000D01*
X172000000Y-130500000D02*
X172000000Y-121500000D01*
X164950000Y-116950000D02*
X164950000Y-114500000D01*
X172000000Y-121500000D02*
X169000000Y-118500000D01*
X169000000Y-118500000D02*
X166500000Y-118500000D01*
X166500000Y-118500000D02*
X164950000Y-116950000D01*
X171500000Y-114950000D02*
X174100760Y-114950000D01*
X174100760Y-114950000D02*
X174550000Y-114500760D01*
X164950000Y-114500000D02*
X165950000Y-113500000D01*
X170050000Y-113500000D02*
X171500000Y-114950000D01*
X165950000Y-113500000D02*
X170050000Y-113500000D01*
D27*
X212500000Y-134000000D02*
X213000000Y-133500000D01*
X212500000Y-139000000D02*
X212500000Y-134000000D01*
X210000000Y-141500000D02*
X212500000Y-139000000D01*
X209350000Y-141500000D02*
X210000000Y-141500000D01*
X213000000Y-133500000D02*
X213000000Y-132500000D01*
X209330000Y-141480000D02*
X209350000Y-141500000D01*
D25*
X198650000Y-129135000D02*
X198650000Y-129650000D01*
X198650000Y-129650000D02*
X199500000Y-130500000D01*
X200500000Y-131500000D02*
X199500000Y-130500000D01*
X200500000Y-132500000D02*
X200500000Y-131500000D01*
X199865000Y-133135000D02*
X200500000Y-132500000D01*
X199865000Y-133135000D02*
X198650000Y-133135000D01*
X67500000Y-104500000D02*
X67500000Y-108500000D01*
X67500000Y-108500000D02*
X68080140Y-108500000D01*
X68080140Y-108500000D02*
X66500000Y-108500000D01*
X66500000Y-108500000D02*
X64950000Y-108500000D01*
X68080140Y-108500000D02*
X68080140Y-110080140D01*
X72550760Y-110500000D02*
X73550000Y-109500760D01*
X68500000Y-110500000D02*
X72550760Y-110500000D01*
X68080140Y-110080140D02*
X68500000Y-110500000D01*
X87500000Y-104500000D02*
X87500000Y-108500000D01*
X87500000Y-108500000D02*
X88080140Y-108500000D01*
X88080140Y-108500000D02*
X86500000Y-108500000D01*
X86500000Y-108500000D02*
X84950000Y-108500000D01*
X93550000Y-109500760D02*
X92550760Y-110500000D01*
X88080140Y-110080140D02*
X88080140Y-108500000D01*
X88500000Y-110500000D02*
X88080140Y-110080140D01*
X92550760Y-110500000D02*
X88500000Y-110500000D01*
X107500000Y-104500000D02*
X107500000Y-108500000D01*
X107500000Y-108500000D02*
X108080140Y-108500000D01*
X104950000Y-108500000D02*
X106500000Y-108500000D01*
X106500000Y-108500000D02*
X108080140Y-108500000D01*
X113550000Y-109500760D02*
X112550760Y-110500000D01*
X108080140Y-110080140D02*
X108080140Y-108500000D01*
X108500000Y-110500000D02*
X108080140Y-110080140D01*
X112550760Y-110500000D02*
X108500000Y-110500000D01*
X127500000Y-104500000D02*
X127500000Y-108500000D01*
X127500000Y-108500000D02*
X128080140Y-108500000D01*
X124950000Y-108500000D02*
X126500000Y-108500000D01*
X126500000Y-108500000D02*
X128080140Y-108500000D01*
X128080140Y-108500000D02*
X128080140Y-110080140D01*
X132550760Y-110500000D02*
X133550000Y-109500760D01*
X128500000Y-110500000D02*
X132550760Y-110500000D01*
X128080140Y-110080140D02*
X128500000Y-110500000D01*
X147500000Y-104500000D02*
X147500000Y-108500000D01*
X147500000Y-108500000D02*
X148080140Y-108500000D01*
X144950000Y-108500000D02*
X146500000Y-108500000D01*
X146500000Y-108500000D02*
X148080140Y-108500000D01*
X148080140Y-108500000D02*
X148080140Y-110080140D01*
X152550760Y-110500000D02*
X153550000Y-109500760D01*
X148500000Y-110500000D02*
X152550760Y-110500000D01*
X148080140Y-110080140D02*
X148500000Y-110500000D01*
X167500000Y-104500000D02*
X167500000Y-108500000D01*
X167500000Y-108500000D02*
X168080140Y-108500000D01*
X164950000Y-108500000D02*
X166500000Y-108500000D01*
X166500000Y-108500000D02*
X168080140Y-108500000D01*
X168080140Y-108500000D02*
X168080140Y-110080140D01*
X172550760Y-110500000D02*
X173550000Y-109500760D01*
X168500000Y-110500000D02*
X172550760Y-110500000D01*
X168080140Y-110080140D02*
X168500000Y-110500000D01*
X67500000Y-114950000D02*
X67500000Y-115500000D01*
D27*
X76450000Y-115550000D02*
X76450000Y-114500760D01*
X75500000Y-116500000D02*
X76450000Y-115550000D01*
X68500000Y-116500000D02*
X75500000Y-116500000D01*
X67500000Y-115500000D02*
X68500000Y-116500000D01*
X87500000Y-114950000D02*
X87500000Y-115500000D01*
X96450000Y-115550000D02*
X96450000Y-114500760D01*
X95500000Y-116500000D02*
X96450000Y-115550000D01*
X88500000Y-116500000D02*
X95500000Y-116500000D01*
X87500000Y-115500000D02*
X88500000Y-116500000D01*
X107500000Y-114950000D02*
X107500000Y-115500000D01*
X116450000Y-115550000D02*
X116450000Y-114500760D01*
X115500000Y-116500000D02*
X116450000Y-115550000D01*
X108500000Y-116500000D02*
X115500000Y-116500000D01*
X107500000Y-115500000D02*
X108500000Y-116500000D01*
D25*
X127500000Y-114950000D02*
X127500000Y-115500000D01*
X136450000Y-115550000D02*
X136450000Y-114500760D01*
X135500000Y-116500000D02*
X136450000Y-115550000D01*
X128500000Y-116500000D02*
X135500000Y-116500000D01*
X127500000Y-115500000D02*
X128500000Y-116500000D01*
X147500000Y-114950000D02*
X147500000Y-115500000D01*
X156450000Y-115550000D02*
X156450000Y-114500760D01*
X155500000Y-116500000D02*
X156450000Y-115550000D01*
X148500000Y-116500000D02*
X155500000Y-116500000D01*
X147500000Y-115500000D02*
X148500000Y-116500000D01*
X167500000Y-114950000D02*
X167500000Y-115500000D01*
X176450000Y-115550000D02*
X176450000Y-114500760D01*
D27*
X175500000Y-116500000D02*
X176450000Y-115550000D01*
X168500000Y-116500000D02*
X175500000Y-116500000D01*
X167500000Y-115500000D02*
X168500000Y-116500000D01*
D25*
X75450000Y-109500760D02*
X76500000Y-108450760D01*
X76500000Y-105050000D02*
X75950000Y-104500000D01*
X76500000Y-108450760D02*
X76500000Y-105050000D01*
X95450000Y-109500760D02*
X96450760Y-108500000D01*
X96450760Y-105000760D02*
X95950000Y-104500000D01*
X96450760Y-108500000D02*
X96450760Y-105000760D01*
D27*
X51000000Y-74000000D02*
X56000000Y-69000000D01*
X51000000Y-110000000D02*
X51000000Y-90000000D01*
X51000000Y-110500000D02*
X51000000Y-110000000D01*
X45520000Y-121500000D02*
X51000000Y-121500000D01*
X51000000Y-77000000D02*
X51000000Y-74000000D01*
X57460000Y-68040000D02*
X57460000Y-65000000D01*
X56500000Y-69000000D02*
X57460000Y-68040000D01*
X56000000Y-69000000D02*
X56500000Y-69000000D01*
X45480000Y-121460000D02*
X45520000Y-121500000D01*
X52500000Y-74500000D02*
X56500000Y-70500000D01*
X52500000Y-77000000D02*
X52500000Y-74500000D01*
X45730000Y-123500000D02*
X52500000Y-123500000D01*
X52500000Y-110500000D02*
X52500000Y-110000000D01*
X52500000Y-110000000D02*
X52500000Y-88500000D01*
X62540000Y-69460000D02*
X62540000Y-65000000D01*
X61500000Y-70500000D02*
X62540000Y-69460000D01*
X56500000Y-70500000D02*
X61500000Y-70500000D01*
X45480000Y-123750000D02*
X45730000Y-123500000D01*
X214500000Y-123000000D02*
X217000000Y-123000000D01*
D25*
X202500000Y-123000000D02*
X199500000Y-120000000D01*
X199500000Y-120000000D02*
X187500000Y-120000000D01*
D27*
X173500000Y-123500000D02*
X173500000Y-123500000D01*
D25*
X162500000Y-123500000D02*
X167500000Y-123500000D01*
X140000000Y-123500000D02*
X162500000Y-123500000D01*
X129000000Y-123500000D02*
X107000000Y-123500000D01*
X73500000Y-123500000D02*
X83000000Y-123500000D01*
D27*
X83000000Y-123500000D02*
X83000000Y-123500000D01*
D25*
X83000000Y-123500000D02*
X100500000Y-123500000D01*
X129000000Y-123500000D02*
X134500000Y-123500000D01*
D27*
X173500000Y-123500000D02*
X173500000Y-123500000D01*
D25*
X184000000Y-123500000D02*
X187500000Y-120000000D01*
X173500000Y-123500000D02*
X184000000Y-123500000D01*
D27*
X219000000Y-125000000D02*
X219960000Y-125000000D01*
X217000000Y-123000000D02*
X219000000Y-125000000D01*
X219960000Y-125000000D02*
X220000000Y-124960000D01*
X68500000Y-123500000D02*
X68500000Y-123500000D01*
D25*
X59500000Y-116000000D02*
X67000000Y-123500000D01*
X67000000Y-123500000D02*
X68500000Y-123500000D01*
D27*
X47500000Y-116000000D02*
X47000000Y-116000000D01*
X45000000Y-116000000D02*
X47500000Y-116000000D01*
X43500000Y-117500000D02*
X45000000Y-116000000D01*
X47000000Y-116000000D02*
X59500000Y-116000000D01*
X47000000Y-116000000D02*
X47000000Y-116000000D01*
X43500000Y-118030000D02*
X43500000Y-117500000D01*
X214500000Y-125500000D02*
X216000000Y-125500000D01*
X216000000Y-125500000D02*
X217000000Y-126500000D01*
X218500000Y-130000000D02*
X219960000Y-130000000D01*
X217000000Y-129000000D02*
X218000000Y-130000000D01*
X218000000Y-130000000D02*
X218500000Y-130000000D01*
X217000000Y-126500000D02*
X217000000Y-129000000D01*
X219960000Y-130000000D02*
X220000000Y-130040000D01*
X202500000Y-125500000D02*
X202500000Y-125500000D01*
D25*
X202500000Y-125500000D02*
X199000000Y-122000000D01*
X173500000Y-125500000D02*
X185000000Y-125500000D01*
D27*
X173500000Y-125500000D02*
X173500000Y-125500000D01*
D25*
X58500000Y-117500000D02*
X66500000Y-125500000D01*
D27*
X47000000Y-117500000D02*
X58500000Y-117500000D01*
X43500000Y-120320000D02*
X45100000Y-117500000D01*
X47000000Y-117500000D02*
X45100000Y-117500000D01*
D25*
X140000000Y-125500000D02*
X162500000Y-125500000D01*
X107000000Y-125500000D02*
X134500000Y-125500000D01*
X73500000Y-125500000D02*
X81000000Y-125500000D01*
X81000000Y-125500000D02*
X82000000Y-125500000D01*
X82000000Y-125500000D02*
X100500000Y-125500000D01*
X66500000Y-125500000D02*
X68500000Y-125500000D01*
X162500000Y-125500000D02*
X167500000Y-125500000D01*
X188500000Y-122000000D02*
X199000000Y-122000000D01*
X185000000Y-125500000D02*
X188500000Y-122000000D01*
X198650000Y-131865000D02*
X197135000Y-131865000D01*
X198480000Y-141480000D02*
X200200000Y-141480000D01*
X196500000Y-139500000D02*
X198480000Y-141480000D01*
X196500000Y-132500000D02*
X196500000Y-139500000D01*
X197135000Y-131865000D02*
X196500000Y-132500000D01*
X195500000Y-131500000D02*
X196500000Y-130500000D01*
X195500000Y-131500000D02*
X195500000Y-140500000D01*
X195500000Y-140500000D02*
X198000000Y-143000000D01*
X198000000Y-143000000D02*
X202000000Y-143000000D01*
X202000000Y-143000000D02*
X202460000Y-142540000D01*
X202460000Y-141480000D02*
X202460000Y-142540000D01*
X197135000Y-127865000D02*
X198650000Y-127865000D01*
X196500000Y-128500000D02*
X197135000Y-127865000D01*
X196500000Y-130500000D02*
X196500000Y-128500000D01*
D27*
X204750000Y-141480000D02*
X204750000Y-142250000D01*
X204750000Y-142250000D02*
X205500000Y-143000000D01*
X205500000Y-143000000D02*
X210500000Y-143000000D01*
X210500000Y-143000000D02*
X213500000Y-140000000D01*
X213500000Y-140000000D02*
X213500000Y-135000000D01*
X213500000Y-135000000D02*
X214500000Y-134000000D01*
X214500000Y-134000000D02*
X214500000Y-131500000D01*
X214500000Y-131500000D02*
X213000000Y-130000000D01*
X213000000Y-130000000D02*
X213000000Y-121000000D01*
X213000000Y-121000000D02*
X213960000Y-120040000D01*
X213960000Y-120040000D02*
X220000000Y-120040000D01*
X214040000Y-114960000D02*
X220000000Y-114960000D01*
X211500000Y-117500000D02*
X214040000Y-114960000D01*
X211500000Y-138000000D02*
X211500000Y-117500000D01*
X209331081Y-140168919D02*
X211500000Y-138000000D01*
D29*
X207040000Y-141480000D02*
X209331081Y-140168919D01*
D25*
X67500000Y-98500000D02*
X70500000Y-98500000D01*
X72500000Y-100500000D02*
X73549240Y-100500000D01*
X71500000Y-99500000D02*
X72500000Y-100500000D01*
X70500000Y-98500000D02*
X71500000Y-99500000D01*
X73549240Y-100500000D02*
X73550000Y-100500760D01*
X73050000Y-104500000D02*
X73050000Y-100500000D01*
X73050000Y-100500000D02*
X73549240Y-100500000D01*
X73549240Y-100500000D02*
X73550000Y-100500760D01*
X67500000Y-100500000D02*
X67500000Y-98500000D01*
X67500000Y-98500000D02*
X67500000Y-96500000D01*
X67500000Y-96500000D02*
X68080140Y-96500000D01*
X64950000Y-96500000D02*
X68080140Y-96500000D01*
X93050000Y-104500000D02*
X93050000Y-100500760D01*
X87500000Y-98500000D02*
X90500000Y-98500000D01*
X92500760Y-100500760D02*
X93050000Y-100500760D01*
X93050000Y-100500760D02*
X93550000Y-100500760D01*
X90500000Y-98500000D02*
X92500760Y-100500760D01*
X87500000Y-100500000D02*
X87500000Y-98500000D01*
X87500000Y-98500000D02*
X87500000Y-96500000D01*
X87500000Y-96500000D02*
X88080140Y-96500000D01*
X84950000Y-96500000D02*
X88080140Y-96500000D01*
X107500000Y-98500000D02*
X110500000Y-98500000D01*
X112500760Y-100500760D02*
X113550000Y-100500760D01*
X110500000Y-98500000D02*
X112500760Y-100500760D01*
X113050000Y-104500000D02*
X113050000Y-101000760D01*
X113050000Y-101000760D02*
X113550000Y-100500760D01*
X107500000Y-100500000D02*
X107500000Y-98500000D01*
X107500000Y-98500000D02*
X107500000Y-96500000D01*
X107500000Y-96500000D02*
X108080140Y-96500000D01*
X104950000Y-96500000D02*
X108080140Y-96500000D01*
X133050000Y-104500000D02*
X133050000Y-101000760D01*
X133050000Y-101000760D02*
X133550000Y-100500760D01*
X127500000Y-98500000D02*
X130500000Y-98500000D01*
X132500760Y-100500760D02*
X133550000Y-100500760D01*
X130500000Y-98500000D02*
X132500760Y-100500760D01*
X127500000Y-100500000D02*
X127500000Y-98500000D01*
X127500000Y-98500000D02*
X127500000Y-96500000D01*
X127500000Y-96500000D02*
X128080140Y-96500000D01*
X124950000Y-96500000D02*
X128080140Y-96500000D01*
X153050000Y-104500000D02*
X153050000Y-101000760D01*
X153050000Y-101000760D02*
X153550000Y-100500760D01*
X153500000Y-100500000D02*
X152500000Y-100500000D01*
X150500000Y-98500000D02*
X152500000Y-100500000D01*
X150500000Y-98500000D02*
X147500000Y-98500000D01*
X153500000Y-100500000D02*
X153550000Y-100500760D01*
X147500000Y-100500000D02*
X147500000Y-98500000D01*
X147500000Y-98500000D02*
X147500000Y-96500000D01*
X147500000Y-96500000D02*
X148080140Y-96500000D01*
X144950000Y-96500000D02*
X148080140Y-96500000D01*
X173050000Y-104500000D02*
X173050000Y-101000760D01*
X173050000Y-101000760D02*
X173550000Y-100500760D01*
X167500000Y-98500000D02*
X170500000Y-98500000D01*
X172500760Y-100500760D02*
X173550000Y-100500760D01*
X170500000Y-98500000D02*
X172500760Y-100500760D01*
X167500000Y-100500000D02*
X167500000Y-98500000D01*
X167500000Y-98500000D02*
X167500000Y-96500000D01*
X167500000Y-96500000D02*
X168080140Y-96500000D01*
X164950000Y-96500000D02*
X168080140Y-96500000D01*
X135450000Y-100500760D02*
X137135000Y-98815760D01*
X137135000Y-98815760D02*
X137135000Y-95500000D01*
X132950000Y-92500000D02*
X135500000Y-92500000D01*
X137135000Y-94135000D02*
X137135000Y-95500000D01*
X135500000Y-92500000D02*
X137135000Y-94135000D01*
X155450000Y-100500760D02*
X157135000Y-98815760D01*
X157135000Y-98815760D02*
X157135000Y-95500000D01*
X152950000Y-92500000D02*
X155500000Y-92500000D01*
X157135000Y-94135000D02*
X157135000Y-95500000D01*
X155500000Y-92500000D02*
X157135000Y-94135000D01*
X172950000Y-92500000D02*
X175500000Y-92500000D01*
X177135000Y-94135000D02*
X177135000Y-95500000D01*
X175500000Y-92500000D02*
X177135000Y-94135000D01*
X175450000Y-100500760D02*
X177135000Y-98815760D01*
X177135000Y-98815760D02*
X177135000Y-95500000D01*
X115450000Y-109500760D02*
X116500000Y-108450760D01*
X116500000Y-105050000D02*
X115950000Y-104500000D01*
X116500000Y-108450760D02*
X116500000Y-105050000D01*
X135950000Y-104500000D02*
X136500000Y-105050000D01*
X136500000Y-108450760D02*
X135450000Y-109500760D01*
X136500000Y-105050000D02*
X136500000Y-108450760D01*
X155450000Y-109500760D02*
X156500000Y-108450760D01*
X156500000Y-105050000D02*
X155950000Y-104500000D01*
X156500000Y-108450760D02*
X156500000Y-105050000D01*
X175450000Y-109500760D02*
X176450760Y-108500000D01*
X176450760Y-105000760D02*
X175950000Y-104500000D01*
X176450760Y-108500000D02*
X176450760Y-105000760D01*
X63500000Y-104500000D02*
X65500000Y-102500000D01*
X63500000Y-104500000D02*
X63500000Y-110500000D01*
X67500000Y-112050000D02*
X65050000Y-112050000D01*
X63500000Y-110500000D02*
X65050000Y-112050000D01*
X65500000Y-102500000D02*
X67500000Y-102500000D01*
X83500000Y-104500000D02*
X85500000Y-102500000D01*
X83500000Y-104500000D02*
X83500000Y-110500000D01*
X83500000Y-110500000D02*
X85050000Y-112050000D01*
X87500000Y-112050000D02*
X85050000Y-112050000D01*
X85500000Y-102500000D02*
X87500000Y-102500000D01*
X103500000Y-104500000D02*
X105500000Y-102500000D01*
X107500000Y-112050000D02*
X105050000Y-112050000D01*
X103500000Y-110500000D02*
X105050000Y-112050000D01*
X103500000Y-104500000D02*
X103500000Y-110500000D01*
X105500000Y-102500000D02*
X107500000Y-102500000D01*
X127500000Y-102500000D02*
X125500000Y-102500000D01*
X125050000Y-112050000D02*
X127500000Y-112050000D01*
X123500000Y-110500000D02*
X125050000Y-112050000D01*
X123500000Y-104500000D02*
X123500000Y-110500000D01*
X125500000Y-102500000D02*
X123500000Y-104500000D01*
X143500000Y-104500000D02*
X145500000Y-102500000D01*
X143500000Y-104500000D02*
X143500000Y-110500000D01*
X143500000Y-110500000D02*
X145050000Y-112050000D01*
X147500000Y-112050000D02*
X145050000Y-112050000D01*
X145500000Y-102500000D02*
X147500000Y-102500000D01*
X163500000Y-110500000D02*
X163500000Y-104500000D01*
X163500000Y-110500000D02*
X165050000Y-112050000D01*
X167500000Y-112050000D02*
X165050000Y-112050000D01*
X165500000Y-102500000D02*
X167500000Y-102500000D01*
X163500000Y-104500000D02*
X165500000Y-102500000D01*
X77135000Y-95500000D02*
X77135000Y-98815760D01*
X77135000Y-98815760D02*
X75450000Y-100500760D01*
X72950000Y-92500000D02*
X75500000Y-92500000D01*
X77135000Y-94135000D02*
X77135000Y-95500000D01*
X75500000Y-92500000D02*
X77135000Y-94135000D01*
X95450000Y-100500760D02*
X97135000Y-98815760D01*
X97135000Y-98815760D02*
X97135000Y-95500000D01*
X92950000Y-92500000D02*
X95500000Y-92500000D01*
X97135000Y-94135000D02*
X97135000Y-95500000D01*
X95500000Y-92500000D02*
X97135000Y-94135000D01*
X115450000Y-100500760D02*
X117135000Y-98815760D01*
X117135000Y-98815760D02*
X117135000Y-95500000D01*
X112950000Y-92500000D02*
X115500000Y-92500000D01*
X117135000Y-94135000D02*
X117135000Y-95500000D01*
X115500000Y-92500000D02*
X117135000Y-94135000D01*
X144950000Y-88500000D02*
X158080140Y-88500000D01*
X64950000Y-88500000D02*
X78080140Y-88500000D01*
X104950000Y-88500000D02*
X118080140Y-88500000D01*
X189500000Y-131950000D02*
X189585000Y-131865000D01*
X189585000Y-131865000D02*
X192350000Y-131865000D01*
X192350000Y-127865000D02*
X192950000Y-127265000D01*
X192950000Y-127265000D02*
X192950000Y-125500000D01*
D27*
X54000000Y-75000000D02*
X57000000Y-72000000D01*
X54000000Y-77000000D02*
X54000000Y-75000000D01*
X41520000Y-117480000D02*
X44000000Y-115000000D01*
X44000000Y-115000000D02*
X47000000Y-115000000D01*
X47000000Y-115000000D02*
X47500000Y-114500000D01*
X47500000Y-114500000D02*
X54000000Y-114500000D01*
X41520000Y-119200000D02*
X41520000Y-117480000D01*
X54000000Y-110500000D02*
X54000000Y-110000000D01*
X54000000Y-110000000D02*
X54000000Y-87000000D01*
X67460000Y-70040000D02*
X67460000Y-65000000D01*
X65500000Y-72000000D02*
X67460000Y-70040000D01*
X57000000Y-72000000D02*
X65500000Y-72000000D01*
X55500000Y-75500000D02*
X57500000Y-73500000D01*
X55500000Y-77000000D02*
X55500000Y-75500000D01*
X55500000Y-110000000D02*
X55500000Y-111000000D01*
X55500000Y-111000000D02*
X53500000Y-113000000D01*
X43500000Y-114000000D02*
X46000000Y-114000000D01*
X46000000Y-114000000D02*
X47000000Y-113000000D01*
X47000000Y-113000000D02*
X53500000Y-113000000D01*
X40000000Y-117500000D02*
X43500000Y-114000000D01*
X40000000Y-120000000D02*
X40000000Y-117500000D01*
X41460000Y-121460000D02*
X40000000Y-120000000D01*
X55500000Y-110000000D02*
X55500000Y-86000000D01*
X72540000Y-71960000D02*
X72540000Y-65000000D01*
X71000000Y-73500000D02*
X72540000Y-71960000D01*
X57500000Y-73500000D02*
X71000000Y-73500000D01*
X41520000Y-121460000D02*
X41460000Y-121460000D01*
X57000000Y-76000000D02*
X58000000Y-75000000D01*
X57000000Y-77000000D02*
X57000000Y-76000000D01*
X43690000Y-130500000D02*
X50500000Y-130500000D01*
X41520000Y-128330000D02*
X43690000Y-130500000D01*
X55500000Y-114500000D02*
X55500000Y-113000000D01*
X55500000Y-113000000D02*
X57000000Y-111500000D01*
X57000000Y-111500000D02*
X57000000Y-110000000D01*
X56000000Y-125000000D02*
X55500000Y-124000000D01*
X56000000Y-130500000D02*
X56000000Y-125000000D01*
X57000000Y-110000000D02*
X57000000Y-86000000D01*
X77460000Y-72040000D02*
X77460000Y-65000000D01*
X74500000Y-75000000D02*
X77460000Y-72040000D01*
X58000000Y-75000000D02*
X74500000Y-75000000D01*
M02*
