M48
;DRILL file {KiCad 4.0.3+e1-6302~38~ubuntu15.10.1-stable} date Wed Nov  9 08:21:05 2016
;FORMAT={-:-/ absolute / metric / decimal}
FMAT,2
METRIC,TZ
T1C0.400
T2C0.600
T3C0.900
T4C1.200
T5C1.524
T6C3.200
%
G90
G05
M71
T1
X49.Y-110.5
X49.Y-132.
X49.5Y-78.
X49.5Y-85.
X50.5Y-130.5
X51.Y-77.
X51.Y-90.
X51.Y-110.5
X51.Y-121.5
X52.5Y-77.
X52.5Y-88.5
X52.5Y-110.5
X52.5Y-123.5
X54.Y-77.
X54.Y-87.
X54.Y-110.5
X54.Y-114.5
X55.5Y-77.
X55.5Y-86.
X55.5Y-114.5
X55.5Y-124.
X56.Y-130.5
X57.Y-77.
X57.Y-86.
X57.Y-114.5
X57.Y-120.5
X58.5Y-77.
X58.5Y-86.
X58.5Y-114.5
X58.5Y-122.5
X60.Y-76.
X60.Y-86.
X63.5Y-81.
X63.5Y-86.
X68.5Y-123.5
X68.5Y-125.5
X68.5Y-128.5
X69.5Y-121.5
X73.5Y-123.5
X73.5Y-125.5
X74.Y-121.5
X75.5Y-128.5
X80.Y-127.
X81.Y-82.
X81.Y-86.
X83.5Y-74.5
X83.5Y-84.5
X85.5Y-83.
X85.5Y-86.
X87.5Y-81.5
X87.5Y-86.
X98.5Y-117.5
X98.5Y-128.5
X100.5Y-123.5
X100.5Y-125.5
X102.Y-83.
X102.Y-86.
X103.5Y-80.5
X103.5Y-86.
X107.Y-123.5
X107.Y-125.5
X121.Y-80.5
X121.Y-86.
X123.5Y-83.
X123.5Y-86.
X127.5Y-81.5
X127.5Y-86.
X134.5Y-123.5
X134.5Y-125.5
X140.Y-123.5
X140.Y-125.5
X142.Y-83.
X142.Y-86.
X142.Y-117.5
X142.Y-129.
X143.5Y-81.5
X143.5Y-86.
X158.5Y-116.
X158.5Y-128.5
X163.5Y-83.
X163.5Y-86.
X167.5Y-81.5
X167.5Y-86.
X167.5Y-123.5
X167.5Y-125.5
X173.5Y-123.5
X173.5Y-125.5
X200.5Y-132.5
X202.Y-83.
X202.Y-86.
X202.5Y-123.
X202.5Y-125.5
X204.Y-119.
X205.5Y-105.
X207.5Y-110.
X210.5Y-119.
X211.5Y-105.
X211.5Y-110.
X213.Y-132.5
X214.5Y-123.
X214.5Y-125.5
T2
X80.Y-117.
T3
X41.52Y-77.2
X41.52Y-79.46
X41.52Y-81.75
X41.52Y-84.04
X41.52Y-86.33
X41.52Y-119.2
X41.52Y-121.46
X41.52Y-123.75
X41.52Y-126.04
X41.52Y-128.33
X43.5Y-76.03
X43.5Y-78.32
X43.5Y-80.61
X43.5Y-82.9
X43.5Y-85.19
X43.5Y-118.03
X43.5Y-120.32
X43.5Y-122.61
X43.5Y-124.9
X43.5Y-127.19
X45.48Y-77.17
X45.48Y-79.46
X45.48Y-81.75
X45.48Y-84.04
X45.48Y-86.33
X45.48Y-119.17
X45.48Y-121.46
X45.48Y-123.75
X45.48Y-126.04
X45.48Y-128.33
X199.03Y-139.5
X200.17Y-137.52
X200.2Y-141.48
X201.32Y-139.5
X202.46Y-137.52
X202.46Y-141.48
X203.61Y-139.5
X204.75Y-137.52
X204.75Y-141.48
X205.9Y-139.5
X207.04Y-137.52
X207.04Y-141.48
X208.19Y-139.5
X209.33Y-137.52
X209.33Y-141.48
T4
X66.95Y-132.43
X68.335Y-135.27
X69.72Y-132.43
X71.105Y-135.27
X72.49Y-132.43
X73.875Y-135.27
X75.26Y-132.43
X76.645Y-135.27
X78.03Y-132.43
X100.05Y-132.43
X101.435Y-135.27
X102.82Y-132.43
X104.205Y-135.27
X105.59Y-132.43
X106.975Y-135.27
X108.36Y-132.43
X109.745Y-135.27
X111.13Y-132.43
X133.15Y-132.43
X134.535Y-135.27
X135.92Y-132.43
X137.305Y-135.27
X138.69Y-132.43
X140.075Y-135.27
X141.46Y-132.43
X142.845Y-135.27
X144.23Y-132.43
X166.25Y-132.43
X167.635Y-135.27
X169.02Y-132.43
X170.405Y-135.27
X171.79Y-132.43
X173.175Y-135.27
X174.56Y-132.43
X175.945Y-135.27
X177.33Y-132.43
T5
X57.46Y-65.
X62.54Y-65.
X67.46Y-65.
X72.54Y-65.
X77.46Y-65.
X82.54Y-65.
X220.Y-64.96
X220.Y-70.04
X220.Y-74.96
X220.Y-80.04
X220.Y-84.96
X220.Y-90.04
X220.Y-94.96
X220.Y-100.04
X220.Y-104.96
X220.Y-110.04
X220.Y-114.96
X220.Y-120.04
X220.Y-124.96
X220.Y-130.04
T6
X43.5Y-69.
X43.5Y-94.
X43.5Y-111.
X43.5Y-136.
X59.99Y-133.85
X84.99Y-133.85
X93.09Y-133.85
X118.09Y-133.85
X126.19Y-133.85
X151.19Y-133.85
X159.29Y-133.85
X184.29Y-133.85
X192.Y-139.5
X217.Y-139.5
T0
M30
