G75*
%MOIN*%
%OFA0B0*%
%FSLAX24Y24*%
%IPPOS*%
%LPD*%
%AMOC8*
5,1,8,0,0,1.08239X$1,22.5*
%
%ADD10C,0.0000*%
%ADD11C,0.0634*%
%ADD12R,0.0790X0.0290*%
%ADD13R,0.0552X0.0631*%
%ADD14R,0.0631X0.0552*%
%ADD15R,0.0840X0.0300*%
%ADD16R,0.0453X0.0276*%
%ADD17R,0.0512X0.0512*%
%ADD18R,0.0591X0.1064*%
%ADD19OC8,0.0640*%
%ADD20C,0.2040*%
D10*
X004030Y003000D02*
X004030Y024792D01*
X023321Y024792D01*
X023321Y003000D01*
X004030Y003000D01*
D11*
X014030Y004000D03*
X015030Y004000D03*
X015030Y005000D03*
X014030Y005000D03*
X016030Y005000D03*
X016030Y004000D03*
X017030Y004000D03*
X018030Y004000D03*
X018030Y005000D03*
X017030Y005000D03*
X019030Y005000D03*
X019030Y004000D03*
X020030Y004000D03*
X021030Y004000D03*
X021030Y005000D03*
X020030Y005000D03*
D12*
X015130Y006650D03*
X015130Y007150D03*
X015130Y007750D03*
X015130Y008250D03*
X015130Y010250D03*
X015130Y010750D03*
X015130Y011250D03*
X015130Y011750D03*
X015130Y013250D03*
X015130Y013750D03*
X015130Y014250D03*
X015130Y014750D03*
X012930Y014750D03*
X012930Y014250D03*
X012930Y013750D03*
X012930Y013250D03*
X012930Y011750D03*
X012930Y011250D03*
X012930Y010750D03*
X012930Y010250D03*
X012930Y008250D03*
X012930Y007750D03*
X012930Y007150D03*
X012930Y006650D03*
X012930Y022250D03*
X012930Y022750D03*
X015130Y022750D03*
X015130Y022250D03*
D13*
X014404Y021000D03*
X013656Y021000D03*
X010804Y022400D03*
X010056Y022400D03*
X010056Y018100D03*
X010804Y018100D03*
X010804Y017200D03*
X010056Y017200D03*
X010156Y014700D03*
X010904Y014700D03*
X010904Y013300D03*
X010156Y013300D03*
X010156Y012000D03*
X010904Y012000D03*
X010904Y010900D03*
X010156Y010900D03*
X010656Y008400D03*
X011404Y008400D03*
X011404Y007200D03*
X010656Y007200D03*
X014556Y009300D03*
X015304Y009300D03*
X018256Y012000D03*
X019004Y012000D03*
X020656Y011500D03*
X021404Y011500D03*
X021404Y010500D03*
X020656Y010500D03*
X019104Y008500D03*
X018356Y008500D03*
X020656Y008000D03*
X021404Y008000D03*
X021404Y007000D03*
X020656Y007000D03*
X020656Y013500D03*
X021404Y013500D03*
X021404Y014500D03*
X020656Y014500D03*
X019004Y015000D03*
X018256Y015000D03*
X020856Y016500D03*
X021604Y016500D03*
X021604Y017300D03*
X020856Y017300D03*
X019904Y018000D03*
X019156Y018000D03*
X017504Y022300D03*
X016756Y022300D03*
X015204Y015400D03*
X014456Y015400D03*
D14*
X016030Y015074D03*
X016030Y014326D03*
X017130Y014326D03*
X017130Y015074D03*
X017030Y017526D03*
X017030Y018274D03*
X017830Y018274D03*
X017830Y017526D03*
X019030Y020226D03*
X019030Y020974D03*
X017130Y012074D03*
X017130Y011326D03*
X016030Y011326D03*
X016030Y012074D03*
X016130Y008974D03*
X016130Y008226D03*
X017230Y008226D03*
X017230Y008974D03*
D15*
X015240Y016750D03*
X015240Y017250D03*
X015240Y017750D03*
X015240Y018250D03*
X015240Y018750D03*
X015240Y019250D03*
X015240Y019750D03*
X015240Y020250D03*
X012820Y020250D03*
X012820Y019750D03*
X012820Y019250D03*
X012820Y018750D03*
X012820Y018250D03*
X012820Y017750D03*
X012820Y017250D03*
X012820Y016750D03*
D16*
X018499Y016626D03*
X018499Y017000D03*
X018499Y017374D03*
X019561Y017374D03*
X019561Y017000D03*
X019561Y016626D03*
X019561Y014374D03*
X019561Y014000D03*
X019561Y013626D03*
X018499Y013626D03*
X018499Y014000D03*
X018499Y014374D03*
X018499Y011374D03*
X018499Y011000D03*
X018499Y010626D03*
X019561Y010626D03*
X019561Y011000D03*
X019561Y011374D03*
X019561Y007874D03*
X019561Y007500D03*
X019561Y007126D03*
X018499Y007126D03*
X018499Y007500D03*
X018499Y007874D03*
D17*
X019030Y021787D03*
X019030Y022614D03*
D18*
X011630Y005607D03*
X011630Y003993D03*
X009430Y003993D03*
X009430Y005607D03*
D19*
X007530Y007480D03*
X007530Y008570D03*
X007530Y009650D03*
X007530Y010740D03*
X007530Y011830D03*
X007530Y012910D03*
X007530Y014000D03*
X007530Y015090D03*
X007530Y016170D03*
X007530Y017260D03*
X007530Y018350D03*
X007530Y019430D03*
X007530Y020520D03*
X006530Y019980D03*
X006530Y018890D03*
X006530Y017800D03*
X006530Y016720D03*
X006530Y015630D03*
X006530Y014540D03*
X006530Y013460D03*
X006530Y012370D03*
X006530Y011280D03*
X006530Y010200D03*
X006530Y009110D03*
X006530Y008020D03*
D20*
X007030Y004740D03*
X007030Y023260D03*
M02*
