G75*
%MOIN*%
%OFA0B0*%
%FSLAX24Y24*%
%IPPOS*%
%LPD*%
%AMOC8*
5,1,8,0,0,1.08239X$1,22.5*
%
%ADD10C,0.0000*%
%ADD11C,0.0634*%
%ADD12R,0.0631X0.0552*%
%ADD13R,0.0552X0.0631*%
%ADD14OC8,0.0640*%
%ADD15C,0.2040*%
%ADD16R,0.0512X0.0512*%
%ADD17R,0.0790X0.0290*%
D10*
X004030Y003000D02*
X004030Y024792D01*
X023321Y024792D01*
X023321Y003000D01*
X004030Y003000D01*
D11*
X014030Y004000D03*
X015030Y004000D03*
X015030Y005000D03*
X014030Y005000D03*
X016030Y005000D03*
X016030Y004000D03*
X017030Y004000D03*
X018030Y004000D03*
X018030Y005000D03*
X017030Y005000D03*
X019030Y005000D03*
X019030Y004000D03*
X020030Y004000D03*
X021030Y004000D03*
X021030Y005000D03*
X020030Y005000D03*
D12*
X012830Y005074D03*
X012830Y004326D03*
X010430Y004326D03*
X010430Y005074D03*
X005030Y008126D03*
X005030Y008874D03*
D13*
X010156Y016700D03*
X010904Y016700D03*
X010904Y018000D03*
X010156Y018000D03*
D14*
X007530Y018350D03*
X007530Y019430D03*
X007530Y020520D03*
X006530Y019980D03*
X006530Y018890D03*
X006530Y017800D03*
X006530Y016720D03*
X006530Y015630D03*
X006530Y014540D03*
X006530Y013460D03*
X006530Y012370D03*
X006530Y011280D03*
X006530Y010200D03*
X006530Y009110D03*
X006530Y008020D03*
X007530Y007480D03*
X007530Y008570D03*
X007530Y009650D03*
X007530Y010740D03*
X007530Y011830D03*
X007530Y012910D03*
X007530Y014000D03*
X007530Y015090D03*
X007530Y016170D03*
X007530Y017260D03*
D15*
X007030Y023260D03*
X007030Y004740D03*
D16*
X005443Y006500D03*
X004617Y006500D03*
D17*
X012430Y016750D03*
X012430Y017250D03*
X012430Y018250D03*
X012430Y018750D03*
X014630Y018750D03*
X014630Y018250D03*
X014630Y017250D03*
X014630Y016750D03*
M02*
