G75*
%MOIN*%
%OFA0B0*%
%FSLAX24Y24*%
%IPPOS*%
%LPD*%
%AMOC8*
5,1,8,0,0,1.08239X$1,22.5*
%
%ADD10C,0.0000*%
%ADD11C,0.0030*%
%ADD12R,0.0118X0.0059*%
%ADD13R,0.0118X0.0118*%
%ADD14C,0.0080*%
%ADD15C,0.0040*%
D10*
X004030Y003000D02*
X004030Y024792D01*
X023321Y024792D01*
X023321Y003000D01*
X004030Y003000D01*
D11*
X004436Y005715D02*
X004683Y005715D01*
X004436Y005962D01*
X004436Y006024D01*
X004498Y006086D01*
X004622Y006086D01*
X004683Y006024D01*
X004805Y006024D02*
X004805Y005777D01*
X004866Y005715D01*
X005052Y005715D01*
X005052Y006086D01*
X004866Y006086D01*
X004805Y006024D01*
X005173Y006086D02*
X005420Y006086D01*
X005420Y005715D01*
X005173Y005715D01*
X005297Y005900D02*
X005420Y005900D01*
X005541Y005715D02*
X005788Y005715D01*
X005788Y006086D01*
X005815Y008165D02*
X005445Y008165D01*
X005568Y008165D02*
X005568Y008350D01*
X005630Y008412D01*
X005754Y008412D01*
X005815Y008350D01*
X005815Y008165D01*
X005568Y008289D02*
X005445Y008412D01*
X005507Y008534D02*
X005445Y008595D01*
X005445Y008719D01*
X005507Y008780D01*
X005754Y008780D01*
X005815Y008719D01*
X005815Y008595D01*
X005754Y008534D01*
X005692Y008534D01*
X005630Y008595D01*
X005630Y008780D01*
X010845Y004969D02*
X010907Y005030D01*
X010968Y005030D01*
X011030Y004969D01*
X011030Y004784D01*
X010907Y004784D01*
X010845Y004845D01*
X010845Y004969D01*
X011030Y004784D02*
X011154Y004907D01*
X011215Y005030D01*
X011154Y004662D02*
X011215Y004600D01*
X011215Y004477D01*
X011154Y004415D01*
X010907Y004415D01*
X010845Y004477D01*
X010845Y004600D01*
X010907Y004662D01*
X012045Y004832D02*
X012415Y004832D01*
X012230Y004647D01*
X012230Y004894D01*
X012107Y004525D02*
X012045Y004464D01*
X012045Y004340D01*
X012107Y004279D01*
X012354Y004279D01*
X012415Y004340D01*
X012415Y004464D01*
X012354Y004525D01*
X013398Y016015D02*
X013336Y016077D01*
X013336Y016139D01*
X013398Y016200D01*
X013460Y016200D01*
X013398Y016200D02*
X013336Y016262D01*
X013336Y016324D01*
X013398Y016386D01*
X013522Y016386D01*
X013583Y016324D01*
X013705Y016386D02*
X013705Y016077D01*
X013766Y016015D01*
X013890Y016015D01*
X013952Y016077D01*
X013952Y016386D01*
X013583Y016077D02*
X013522Y016015D01*
X013398Y016015D01*
X010865Y017115D02*
X010865Y017486D01*
X010680Y017486D01*
X010618Y017424D01*
X010618Y017300D01*
X010680Y017239D01*
X010865Y017239D01*
X010742Y017239D02*
X010618Y017115D01*
X010497Y017115D02*
X010497Y017177D01*
X010250Y017424D01*
X010250Y017486D01*
X010497Y017486D01*
X010473Y018415D02*
X010473Y018786D01*
X010597Y018662D01*
X010718Y018600D02*
X010780Y018539D01*
X010965Y018539D01*
X010842Y018539D02*
X010718Y018415D01*
X010597Y018415D02*
X010350Y018415D01*
X010228Y018415D02*
X009981Y018662D01*
X009981Y018724D01*
X010043Y018786D01*
X010167Y018786D01*
X010228Y018724D01*
X010228Y018415D02*
X009981Y018415D01*
X010718Y018600D02*
X010718Y018724D01*
X010780Y018786D01*
X010965Y018786D01*
X010965Y018415D01*
X013200Y019177D02*
X013262Y019115D01*
X013385Y019115D01*
X013447Y019177D01*
X013568Y019177D02*
X013568Y019486D01*
X013447Y019486D02*
X013447Y019300D01*
X013323Y019362D01*
X013262Y019362D01*
X013200Y019300D01*
X013200Y019177D01*
X013568Y019177D02*
X013630Y019115D01*
X013753Y019115D01*
X013815Y019177D01*
X013815Y019486D01*
X013447Y019486D02*
X013200Y019486D01*
D12*
X005089Y006736D03*
X005089Y006264D03*
D13*
X005089Y006500D03*
D14*
X012788Y016540D02*
X012788Y017460D01*
X014272Y017460D01*
X014272Y016540D01*
X012994Y016540D01*
X012788Y016540D01*
X012994Y016540D02*
X012994Y017450D01*
X012994Y018040D02*
X012788Y018040D01*
X012788Y018960D01*
X014272Y018960D01*
X014272Y018040D01*
X012994Y018040D01*
X012994Y018950D01*
D15*
X013090Y018280D02*
X013092Y018304D01*
X013098Y018328D01*
X013107Y018350D01*
X013120Y018370D01*
X013136Y018388D01*
X013155Y018403D01*
X013176Y018416D01*
X013198Y018424D01*
X013222Y018429D01*
X013246Y018430D01*
X013270Y018427D01*
X013293Y018420D01*
X013315Y018410D01*
X013335Y018396D01*
X013352Y018379D01*
X013367Y018360D01*
X013378Y018339D01*
X013386Y018316D01*
X013390Y018292D01*
X013390Y018268D01*
X013386Y018244D01*
X013378Y018221D01*
X013367Y018200D01*
X013352Y018181D01*
X013335Y018164D01*
X013315Y018150D01*
X013293Y018140D01*
X013270Y018133D01*
X013246Y018130D01*
X013222Y018131D01*
X013198Y018136D01*
X013176Y018144D01*
X013155Y018157D01*
X013136Y018172D01*
X013120Y018190D01*
X013107Y018210D01*
X013098Y018232D01*
X013092Y018256D01*
X013090Y018280D01*
X013090Y016780D02*
X013092Y016804D01*
X013098Y016828D01*
X013107Y016850D01*
X013120Y016870D01*
X013136Y016888D01*
X013155Y016903D01*
X013176Y016916D01*
X013198Y016924D01*
X013222Y016929D01*
X013246Y016930D01*
X013270Y016927D01*
X013293Y016920D01*
X013315Y016910D01*
X013335Y016896D01*
X013352Y016879D01*
X013367Y016860D01*
X013378Y016839D01*
X013386Y016816D01*
X013390Y016792D01*
X013390Y016768D01*
X013386Y016744D01*
X013378Y016721D01*
X013367Y016700D01*
X013352Y016681D01*
X013335Y016664D01*
X013315Y016650D01*
X013293Y016640D01*
X013270Y016633D01*
X013246Y016630D01*
X013222Y016631D01*
X013198Y016636D01*
X013176Y016644D01*
X013155Y016657D01*
X013136Y016672D01*
X013120Y016690D01*
X013107Y016710D01*
X013098Y016732D01*
X013092Y016756D01*
X013090Y016780D01*
M02*
