G75*
%MOIN*%
%OFA0B0*%
%FSLAX24Y24*%
%IPPOS*%
%LPD*%
%AMOC8*
5,1,8,0,0,1.08239X$1,22.5*
%
%ADD10C,0.0000*%
%ADD11C,0.0060*%
%ADD12C,0.0594*%
%ADD13R,0.0591X0.0512*%
%ADD14R,0.0512X0.0591*%
%ADD15OC8,0.0600*%
%ADD16C,0.2000*%
%ADD17R,0.0472X0.0472*%
%ADD18R,0.0750X0.0250*%
%ADD19C,0.0356*%
%ADD20C,0.0120*%
%ADD21C,0.0240*%
D10*
X004030Y003000D02*
X004030Y024792D01*
X023321Y024792D01*
X023321Y003000D01*
X004030Y003000D01*
D11*
X018679Y022630D02*
X018623Y022687D01*
X018679Y022630D02*
X018793Y022630D01*
X018850Y022687D01*
X018850Y022914D01*
X018793Y022971D01*
X018679Y022971D01*
X018623Y022914D01*
X018675Y023230D02*
X018675Y023571D01*
X018788Y023457D01*
X018930Y023514D02*
X019156Y023287D01*
X019100Y023230D01*
X018986Y023230D01*
X018930Y023287D01*
X018930Y023514D01*
X018986Y023571D01*
X019100Y023571D01*
X019156Y023514D01*
X019156Y023287D01*
X019298Y023230D02*
X019525Y023230D01*
X019298Y023457D01*
X019298Y023514D01*
X019355Y023571D01*
X019468Y023571D01*
X019525Y023514D01*
X019636Y023830D02*
X019636Y024000D01*
X019692Y024057D01*
X019862Y024057D01*
X019862Y023830D01*
X020004Y023887D02*
X020004Y024000D01*
X020061Y024057D01*
X020174Y024057D01*
X020231Y024000D01*
X020231Y023887D01*
X020174Y023830D01*
X020061Y023830D01*
X020004Y023887D01*
X020372Y023887D02*
X020429Y023830D01*
X020542Y023830D01*
X020599Y023887D01*
X020599Y024114D01*
X020542Y024171D01*
X020429Y024171D01*
X020372Y024114D01*
X020450Y023571D02*
X020450Y023230D01*
X020394Y023230D02*
X020507Y023230D01*
X020648Y023230D02*
X020648Y023457D01*
X020507Y023571D02*
X020450Y023571D01*
X020261Y023457D02*
X020261Y023287D01*
X020205Y023230D01*
X020035Y023230D01*
X020035Y023174D02*
X020035Y023457D01*
X020035Y023174D02*
X020091Y023117D01*
X020148Y023117D01*
X020143Y023027D02*
X020143Y022971D01*
X020143Y022857D02*
X020143Y022630D01*
X020087Y022630D02*
X020200Y022630D01*
X020341Y022687D02*
X020398Y022744D01*
X020512Y022744D01*
X020568Y022800D01*
X020512Y022857D01*
X020341Y022857D01*
X020200Y022857D02*
X020143Y022857D01*
X019954Y022800D02*
X019954Y022687D01*
X019898Y022630D01*
X019784Y022630D01*
X019728Y022687D01*
X019728Y022800D01*
X019784Y022857D01*
X019898Y022857D01*
X019954Y022800D01*
X019586Y022857D02*
X019586Y022630D01*
X019359Y022630D02*
X019359Y022800D01*
X019416Y022857D01*
X019586Y022857D01*
X020341Y022687D02*
X020398Y022630D01*
X020568Y022630D01*
X020700Y022630D02*
X020814Y022630D01*
X020757Y022630D02*
X020757Y022857D01*
X020814Y022857D01*
X020757Y022971D02*
X020757Y023027D01*
X020819Y023230D02*
X020648Y023230D01*
X020819Y023230D02*
X020875Y023287D01*
X020875Y023457D01*
X021017Y023571D02*
X021130Y023571D01*
X021073Y023571D02*
X021073Y023287D01*
X021130Y023230D01*
X021187Y023230D01*
X021244Y023287D01*
X021182Y022857D02*
X021069Y022630D01*
X020955Y022857D01*
X021324Y022800D02*
X021324Y022744D01*
X021550Y022744D01*
X021550Y022800D02*
X021494Y022857D01*
X021380Y022857D01*
X021324Y022800D01*
X021380Y022630D02*
X021494Y022630D01*
X021550Y022687D01*
X021550Y022800D01*
X021692Y022800D02*
X021749Y022744D01*
X021919Y022744D01*
X021805Y022744D02*
X021692Y022630D01*
X021692Y022800D02*
X021692Y022914D01*
X021749Y022971D01*
X021919Y022971D01*
X021919Y022630D01*
X021980Y023230D02*
X021753Y023457D01*
X021753Y023514D01*
X021810Y023571D01*
X021923Y023571D01*
X021980Y023514D01*
X022235Y023571D02*
X022235Y023230D01*
X022122Y023230D02*
X022349Y023230D01*
X022349Y023457D02*
X022235Y023571D01*
X022072Y023830D02*
X022072Y024171D01*
X022016Y024000D02*
X021845Y023830D01*
X021704Y023830D02*
X021704Y024171D01*
X021534Y024171D01*
X021477Y024114D01*
X021477Y024000D01*
X021534Y023944D01*
X021704Y023944D01*
X021591Y023944D02*
X021477Y023830D01*
X021336Y023887D02*
X021279Y023830D01*
X021165Y023830D01*
X021109Y023887D01*
X021109Y023944D01*
X021165Y024000D01*
X021279Y024000D01*
X021336Y024057D01*
X021336Y024114D01*
X021279Y024171D01*
X021165Y024171D01*
X021109Y024114D01*
X021845Y024171D02*
X022072Y023944D01*
X021980Y023230D02*
X021753Y023230D01*
X019494Y024057D02*
X019381Y024057D01*
X019437Y024114D02*
X019437Y023887D01*
X019381Y023830D01*
X019249Y023830D02*
X019249Y024057D01*
X019249Y023944D02*
X019135Y024057D01*
X019078Y024057D01*
X018942Y024000D02*
X018942Y023887D01*
X018885Y023830D01*
X018771Y023830D01*
X018715Y023887D01*
X018715Y024000D01*
X018771Y024057D01*
X018885Y024057D01*
X018942Y024000D01*
X018573Y023830D02*
X018460Y023830D01*
X018517Y023830D02*
X018517Y024171D01*
X018573Y024171D01*
X018420Y023571D02*
X018193Y023571D01*
X018250Y023457D02*
X018193Y023400D01*
X018193Y023287D01*
X018250Y023230D01*
X018363Y023230D01*
X018420Y023287D01*
X018420Y023400D02*
X018306Y023457D01*
X018250Y023457D01*
X018420Y023400D02*
X018420Y023571D01*
X018561Y023230D02*
X018788Y023230D01*
D12*
X019030Y005000D03*
X019030Y004000D03*
X020030Y004000D03*
X021030Y004000D03*
X021030Y005000D03*
X020030Y005000D03*
X018030Y005000D03*
X018030Y004000D03*
X017030Y004000D03*
X016030Y004000D03*
X016030Y005000D03*
X017030Y005000D03*
X015030Y005000D03*
X015030Y004000D03*
X014030Y004000D03*
X014030Y005000D03*
D13*
X012830Y005074D03*
X012830Y004326D03*
X010430Y004326D03*
X010430Y005074D03*
X005030Y008126D03*
X005030Y008874D03*
D14*
X010156Y016700D03*
X010904Y016700D03*
X010904Y018000D03*
X010156Y018000D03*
D15*
X007530Y018350D03*
X007530Y019430D03*
X007530Y020520D03*
X006530Y019980D03*
X006530Y018890D03*
X006530Y017800D03*
X006530Y016720D03*
X006530Y015630D03*
X006530Y014540D03*
X006530Y013460D03*
X006530Y012370D03*
X006530Y011280D03*
X006530Y010200D03*
X006530Y009110D03*
X006530Y008020D03*
X007530Y007480D03*
X007530Y008570D03*
X007530Y009650D03*
X007530Y010740D03*
X007530Y011830D03*
X007530Y012910D03*
X007530Y014000D03*
X007530Y015090D03*
X007530Y016170D03*
X007530Y017260D03*
D16*
X007030Y023260D03*
X007030Y004740D03*
D17*
X005443Y006500D03*
X004617Y006500D03*
D18*
X012430Y016750D03*
X012430Y017250D03*
X012430Y018250D03*
X012430Y018750D03*
X014630Y018750D03*
X014630Y018250D03*
X014630Y017250D03*
X014630Y016750D03*
D19*
X013930Y016700D03*
X012730Y016300D03*
X012130Y015900D03*
X011430Y015600D03*
X010730Y015500D03*
X009530Y015800D03*
X008830Y016700D03*
X008530Y017600D03*
X008130Y017800D03*
X009130Y018800D03*
X011430Y021300D03*
X012330Y021300D03*
X012930Y021000D03*
X012330Y020600D03*
X013630Y020100D03*
X015230Y021600D03*
X016030Y019800D03*
X015930Y018500D03*
X017030Y017000D03*
X017830Y017000D03*
X018430Y017800D03*
X017830Y019400D03*
X018130Y020400D03*
X020330Y021400D03*
X021530Y020700D03*
X022130Y020800D03*
X022130Y020200D03*
X022030Y018800D03*
X022330Y017300D03*
X022330Y016500D03*
X022630Y015300D03*
X022030Y014500D03*
X022530Y013500D03*
X022030Y011500D03*
X021130Y009800D03*
X020030Y009200D03*
X018130Y007500D03*
X017830Y007900D03*
X017830Y008500D03*
X016930Y007500D03*
X016630Y008200D03*
X016830Y010200D03*
X015830Y010300D03*
X016530Y011400D03*
X017830Y011400D03*
X018030Y011000D03*
X017730Y012000D03*
X016230Y013200D03*
X016530Y014300D03*
X017730Y014400D03*
X018030Y014000D03*
X017730Y015000D03*
X016930Y015900D03*
X016530Y015600D03*
X016130Y015900D03*
X015930Y016700D03*
X012830Y015200D03*
X012130Y015100D03*
X011630Y017500D03*
X008630Y015100D03*
X008630Y014600D03*
X008130Y015400D03*
X008830Y013700D03*
X008830Y013200D03*
X008330Y013200D03*
X008330Y012700D03*
X008230Y012000D03*
X009230Y012000D03*
X009530Y010900D03*
X010430Y009800D03*
X010030Y009000D03*
X009530Y008000D03*
X008830Y008300D03*
X008830Y007100D03*
X010030Y007200D03*
X010530Y005800D03*
X011830Y006500D03*
X013730Y005500D03*
X014830Y005800D03*
X014230Y006800D03*
X014430Y008400D03*
X016530Y005800D03*
X018530Y006000D03*
X019530Y005700D03*
X022630Y004300D03*
X019930Y012400D03*
X020130Y015300D03*
X020130Y017000D03*
X020430Y018000D03*
X014430Y012400D03*
X012030Y012500D03*
X011730Y011200D03*
X009530Y013300D03*
X008830Y022400D03*
X011930Y022800D03*
X012830Y003700D03*
X010430Y003700D03*
D20*
X010152Y003593D02*
X004190Y003593D01*
X004190Y003711D02*
X006572Y003711D01*
X006598Y003697D02*
X006342Y003844D01*
X006134Y004053D01*
X005986Y004308D01*
X005910Y004593D01*
X005910Y004888D01*
X005986Y005173D01*
X006134Y005428D01*
X006342Y005636D01*
X006598Y005784D01*
X006883Y005860D01*
X007177Y005860D01*
X007462Y005784D01*
X007718Y005636D01*
X007926Y005428D01*
X008074Y005173D01*
X008150Y004888D01*
X008150Y004593D01*
X008074Y004308D01*
X007926Y004053D01*
X007718Y003844D01*
X007462Y003697D01*
X007177Y003620D01*
X006883Y003620D01*
X006598Y003697D01*
X006367Y003830D02*
X004190Y003830D01*
X004190Y003948D02*
X006238Y003948D01*
X006126Y004067D02*
X004190Y004067D01*
X004190Y004185D02*
X006057Y004185D01*
X005989Y004304D02*
X004190Y004304D01*
X004190Y004422D02*
X005956Y004422D01*
X005924Y004541D02*
X004190Y004541D01*
X004190Y004659D02*
X005910Y004659D01*
X005910Y004778D02*
X004190Y004778D01*
X004190Y004896D02*
X005912Y004896D01*
X005944Y005015D02*
X004190Y005015D01*
X004190Y005133D02*
X005976Y005133D01*
X006032Y005252D02*
X004190Y005252D01*
X004190Y005370D02*
X006100Y005370D01*
X006195Y005489D02*
X004190Y005489D01*
X004190Y005607D02*
X006313Y005607D01*
X006497Y005726D02*
X004190Y005726D01*
X004190Y005844D02*
X006823Y005844D01*
X007237Y005844D02*
X016147Y005844D01*
X016232Y005759D02*
X016232Y005741D01*
X016277Y005631D01*
X016361Y005548D01*
X016471Y005502D01*
X016577Y005502D01*
X016347Y005272D01*
X016266Y005354D01*
X016113Y005417D01*
X015947Y005417D01*
X015794Y005354D01*
X015677Y005236D01*
X015613Y005083D01*
X015613Y004917D01*
X015677Y004764D01*
X015794Y004647D01*
X015947Y004583D01*
X016113Y004583D01*
X016266Y004647D01*
X016383Y004764D01*
X016408Y004824D01*
X016510Y004926D01*
X016613Y005029D01*
X016613Y004917D01*
X016677Y004764D01*
X016794Y004647D01*
X016947Y004583D01*
X017113Y004583D01*
X017266Y004647D01*
X017350Y004731D01*
X017350Y004575D01*
X017169Y004394D01*
X017113Y004417D01*
X016947Y004417D01*
X016794Y004354D01*
X016677Y004236D01*
X016613Y004083D01*
X016613Y003917D01*
X016677Y003764D01*
X016794Y003647D01*
X016947Y003583D01*
X017113Y003583D01*
X017266Y003647D01*
X017383Y003764D01*
X017447Y003917D01*
X017447Y004083D01*
X017424Y004139D01*
X017605Y004320D01*
X017710Y004426D01*
X017710Y004731D01*
X017794Y004647D01*
X017947Y004583D01*
X018113Y004583D01*
X018266Y004647D01*
X018383Y004764D01*
X018447Y004917D01*
X018447Y005063D01*
X019205Y005820D01*
X019257Y005820D01*
X019232Y005760D01*
X019232Y005641D01*
X019277Y005531D01*
X019361Y005448D01*
X019471Y005402D01*
X019477Y005402D01*
X019347Y005272D01*
X019266Y005354D01*
X019113Y005417D01*
X018947Y005417D01*
X018794Y005354D01*
X018677Y005236D01*
X018613Y005083D01*
X018613Y004917D01*
X018677Y004764D01*
X018794Y004647D01*
X018947Y004583D01*
X019113Y004583D01*
X019266Y004647D01*
X019383Y004764D01*
X019408Y004824D01*
X019613Y005029D01*
X019613Y004917D01*
X019677Y004764D01*
X019794Y004647D01*
X019947Y004583D01*
X020113Y004583D01*
X020266Y004647D01*
X020350Y004731D01*
X020350Y004575D01*
X020169Y004394D01*
X020113Y004417D01*
X019947Y004417D01*
X019794Y004354D01*
X019677Y004236D01*
X019613Y004083D01*
X019613Y003917D01*
X019677Y003764D01*
X019794Y003647D01*
X019947Y003583D01*
X020113Y003583D01*
X020266Y003647D01*
X020383Y003764D01*
X020447Y003917D01*
X020447Y004083D01*
X020424Y004139D01*
X020605Y004320D01*
X020710Y004426D01*
X020710Y004731D01*
X020794Y004647D01*
X020947Y004583D01*
X021113Y004583D01*
X021266Y004647D01*
X021383Y004764D01*
X021447Y004917D01*
X021447Y005083D01*
X021383Y005236D01*
X021266Y005354D01*
X021113Y005417D01*
X020947Y005417D01*
X020794Y005354D01*
X020710Y005270D01*
X020710Y005426D01*
X022905Y007620D01*
X023010Y007726D01*
X023010Y011575D01*
X022310Y012275D01*
X022310Y013026D01*
X022486Y013202D01*
X022589Y013202D01*
X022699Y013248D01*
X022783Y013331D01*
X022828Y013441D01*
X022828Y013560D01*
X022783Y013669D01*
X022699Y013753D01*
X022589Y013798D01*
X022471Y013798D01*
X022361Y013753D01*
X022277Y013669D01*
X022232Y013560D01*
X022232Y013457D01*
X022110Y013335D01*
X022110Y014211D01*
X022199Y014248D01*
X022283Y014331D01*
X022328Y014441D01*
X022328Y014560D01*
X022283Y014669D01*
X022199Y014753D01*
X022089Y014798D01*
X021971Y014798D01*
X021910Y014773D01*
X021910Y015826D01*
X022286Y016202D01*
X022389Y016202D01*
X022499Y016248D01*
X022583Y016331D01*
X022628Y016441D01*
X022628Y016560D01*
X022583Y016669D01*
X022499Y016753D01*
X022389Y016798D01*
X022271Y016798D01*
X022161Y016753D01*
X022077Y016669D01*
X022032Y016560D01*
X022032Y016457D01*
X021710Y016135D01*
X021710Y016426D01*
X022286Y017002D01*
X022389Y017002D01*
X022499Y017048D01*
X022583Y017131D01*
X022628Y017241D01*
X022628Y017360D01*
X022583Y017469D01*
X022499Y017553D01*
X022389Y017598D01*
X022271Y017598D01*
X022161Y017553D01*
X022077Y017469D01*
X022032Y017360D01*
X022032Y017257D01*
X021350Y016575D01*
X021350Y016335D01*
X021210Y016475D01*
X021210Y018575D01*
X020710Y019075D01*
X020605Y019180D01*
X015605Y019180D01*
X014610Y020175D01*
X014565Y020220D01*
X017888Y020220D01*
X017961Y020148D01*
X018071Y020102D01*
X018189Y020102D01*
X018299Y020148D01*
X018383Y020231D01*
X018428Y020341D01*
X018428Y020460D01*
X018383Y020569D01*
X018299Y020653D01*
X018189Y020698D01*
X018071Y020698D01*
X017961Y020653D01*
X017888Y020580D01*
X012710Y020580D01*
X012710Y021320D01*
X014105Y021320D01*
X014210Y021426D01*
X014210Y024632D01*
X023161Y024632D01*
X023161Y003160D01*
X015529Y003160D01*
X015533Y003164D01*
X015953Y003583D01*
X016113Y003583D01*
X016266Y003647D01*
X016383Y003764D01*
X016447Y003917D01*
X016447Y004083D01*
X016383Y004236D01*
X016266Y004354D01*
X016113Y004417D01*
X015947Y004417D01*
X015794Y004354D01*
X015677Y004236D01*
X015613Y004083D01*
X015613Y003923D01*
X015231Y003540D01*
X013086Y003540D01*
X013128Y003641D01*
X013128Y003760D01*
X013083Y003869D01*
X013070Y003882D01*
X013070Y003950D01*
X013175Y003950D01*
X013245Y004021D01*
X013245Y004632D01*
X013200Y004677D01*
X013224Y004690D01*
X013253Y004720D01*
X013274Y004757D01*
X013285Y004797D01*
X013285Y005014D01*
X012890Y005014D01*
X012890Y005134D01*
X013285Y005134D01*
X013285Y005351D01*
X013274Y005392D01*
X013253Y005428D01*
X013224Y005458D01*
X013187Y005479D01*
X013146Y005490D01*
X012890Y005490D01*
X012890Y005134D01*
X012770Y005134D01*
X012770Y005014D01*
X012375Y005014D01*
X012375Y004797D01*
X012386Y004757D01*
X012407Y004720D01*
X012436Y004690D01*
X012460Y004677D01*
X012415Y004632D01*
X012415Y004021D01*
X012485Y003950D01*
X012590Y003950D01*
X012590Y003882D01*
X012577Y003869D01*
X012532Y003760D01*
X012532Y003641D01*
X012574Y003540D01*
X010929Y003540D01*
X010728Y003742D01*
X010728Y003760D01*
X010683Y003869D01*
X010670Y003882D01*
X010670Y003950D01*
X010775Y003950D01*
X010845Y004021D01*
X010845Y004632D01*
X010800Y004677D01*
X010824Y004690D01*
X010853Y004720D01*
X010874Y004757D01*
X010885Y004797D01*
X010885Y005014D01*
X010490Y005014D01*
X010490Y005134D01*
X010885Y005134D01*
X010885Y005351D01*
X010874Y005392D01*
X010853Y005428D01*
X010824Y005458D01*
X010787Y005479D01*
X010746Y005490D01*
X010490Y005490D01*
X010490Y005134D01*
X010370Y005134D01*
X010370Y005014D01*
X009975Y005014D01*
X009975Y004797D01*
X009986Y004757D01*
X010007Y004720D01*
X010036Y004690D01*
X010060Y004677D01*
X010015Y004632D01*
X010015Y004021D01*
X010085Y003950D01*
X010190Y003950D01*
X010190Y003882D01*
X010177Y003869D01*
X010132Y003760D01*
X010132Y003641D01*
X010177Y003531D01*
X010261Y003448D01*
X010371Y003402D01*
X010389Y003402D01*
X010631Y003160D01*
X004190Y003160D01*
X004190Y006120D01*
X013705Y006120D01*
X013810Y006226D01*
X013810Y010075D01*
X013705Y010180D01*
X012710Y010180D01*
X012710Y015420D01*
X012805Y015420D01*
X012910Y015526D01*
X013005Y015620D01*
X015655Y015620D01*
X015750Y015526D01*
X015750Y015526D01*
X015855Y015420D01*
X016288Y015420D01*
X016361Y015348D01*
X016471Y015302D01*
X016589Y015302D01*
X016699Y015348D01*
X016783Y015431D01*
X016828Y015541D01*
X016828Y015660D01*
X016783Y015769D01*
X016699Y015853D01*
X016589Y015898D01*
X016471Y015898D01*
X016428Y015881D01*
X016428Y015960D01*
X016403Y016020D01*
X020555Y016020D01*
X020750Y015826D01*
X020750Y010826D01*
X020855Y010720D01*
X021250Y010326D01*
X021250Y010073D01*
X021189Y010098D01*
X021071Y010098D01*
X020961Y010053D01*
X020877Y009969D01*
X020832Y009860D01*
X020832Y009741D01*
X020877Y009631D01*
X020961Y009548D01*
X021050Y009511D01*
X021050Y008675D01*
X019355Y006980D01*
X018155Y006980D01*
X017655Y006480D01*
X017550Y006375D01*
X017550Y006075D01*
X017155Y005680D01*
X016803Y005680D01*
X016828Y005741D01*
X016828Y005860D01*
X016783Y005969D01*
X016699Y006053D01*
X016589Y006098D01*
X016571Y006098D01*
X015940Y006730D01*
X015852Y006766D01*
X014603Y006766D01*
X014528Y006842D01*
X014528Y006860D01*
X014483Y006969D01*
X014399Y007053D01*
X014289Y007098D01*
X014171Y007098D01*
X014061Y007053D01*
X013977Y006969D01*
X013932Y006860D01*
X013932Y006741D01*
X013977Y006631D01*
X014061Y006548D01*
X014171Y006502D01*
X014189Y006502D01*
X014301Y006390D01*
X014368Y006323D01*
X014456Y006286D01*
X015705Y006286D01*
X016232Y005759D01*
X016238Y005726D02*
X013926Y005726D01*
X013899Y005753D02*
X013983Y005669D01*
X014028Y005560D01*
X014028Y005441D01*
X013992Y005353D01*
X013992Y005039D01*
X014068Y005039D01*
X014068Y005457D01*
X014137Y005446D01*
X014205Y005424D01*
X014269Y005391D01*
X014328Y005349D01*
X014378Y005298D01*
X014421Y005240D01*
X014453Y005176D01*
X014476Y005107D01*
X014486Y005039D01*
X014068Y005039D01*
X014068Y004962D01*
X014068Y004544D01*
X014137Y004555D01*
X014205Y004577D01*
X014269Y004610D01*
X014328Y004652D01*
X014378Y004703D01*
X014421Y004761D01*
X014453Y004825D01*
X014476Y004893D01*
X014486Y004962D01*
X014068Y004962D01*
X013992Y004962D01*
X013992Y004544D01*
X013923Y004555D01*
X013855Y004577D01*
X013791Y004610D01*
X013732Y004652D01*
X013682Y004703D01*
X013639Y004761D01*
X013607Y004825D01*
X013584Y004893D01*
X013574Y004962D01*
X013992Y004962D01*
X013992Y005039D01*
X013574Y005039D01*
X013584Y005107D01*
X013607Y005176D01*
X013629Y005219D01*
X013561Y005248D01*
X013477Y005331D01*
X013432Y005441D01*
X013432Y005560D01*
X013477Y005669D01*
X013561Y005753D01*
X013671Y005798D01*
X013789Y005798D01*
X013899Y005753D01*
X014008Y005607D02*
X016301Y005607D01*
X016226Y005370D02*
X016445Y005370D01*
X016564Y005489D02*
X014028Y005489D01*
X013999Y005370D02*
X014068Y005370D01*
X014068Y005252D02*
X013992Y005252D01*
X013992Y005133D02*
X014068Y005133D01*
X014068Y005015D02*
X014613Y005015D01*
X014613Y005083D02*
X014613Y004917D01*
X014677Y004764D01*
X014794Y004647D01*
X014947Y004583D01*
X015113Y004583D01*
X015266Y004647D01*
X015383Y004764D01*
X015447Y004917D01*
X015447Y005083D01*
X015383Y005236D01*
X015266Y005354D01*
X015113Y005417D01*
X014947Y005417D01*
X014794Y005354D01*
X014677Y005236D01*
X014613Y005083D01*
X014634Y005133D02*
X014467Y005133D01*
X014412Y005252D02*
X014692Y005252D01*
X014834Y005370D02*
X014298Y005370D01*
X013992Y005015D02*
X012890Y005015D01*
X012890Y005133D02*
X013593Y005133D01*
X013557Y005252D02*
X013285Y005252D01*
X013280Y005370D02*
X013461Y005370D01*
X013432Y005489D02*
X013152Y005489D01*
X012890Y005489D02*
X012770Y005489D01*
X012770Y005490D02*
X012514Y005490D01*
X012473Y005479D01*
X012436Y005458D01*
X012407Y005428D01*
X012386Y005392D01*
X012375Y005351D01*
X012375Y005134D01*
X012770Y005134D01*
X012770Y005490D01*
X012770Y005370D02*
X012890Y005370D01*
X012890Y005252D02*
X012770Y005252D01*
X012770Y005133D02*
X010490Y005133D01*
X010490Y005015D02*
X012770Y005015D01*
X012508Y005489D02*
X010752Y005489D01*
X010880Y005370D02*
X012380Y005370D01*
X012375Y005252D02*
X010885Y005252D01*
X010885Y004896D02*
X012375Y004896D01*
X012380Y004778D02*
X010880Y004778D01*
X010818Y004659D02*
X012442Y004659D01*
X012415Y004541D02*
X010845Y004541D01*
X010845Y004422D02*
X012415Y004422D01*
X012415Y004304D02*
X010845Y004304D01*
X010845Y004185D02*
X012415Y004185D01*
X012415Y004067D02*
X010845Y004067D01*
X010670Y003948D02*
X012590Y003948D01*
X012561Y003830D02*
X010699Y003830D01*
X010758Y003711D02*
X012532Y003711D01*
X012552Y003593D02*
X010877Y003593D01*
X010554Y003237D02*
X004190Y003237D01*
X004190Y003356D02*
X010435Y003356D01*
X010234Y003474D02*
X004190Y003474D01*
X004190Y005963D02*
X016028Y005963D01*
X015910Y006081D02*
X004190Y006081D01*
X004190Y006300D02*
X004190Y024632D01*
X014030Y024632D01*
X014030Y021500D01*
X012530Y021500D01*
X012530Y020822D01*
X012499Y020853D01*
X012389Y020898D01*
X012271Y020898D01*
X012161Y020853D01*
X012077Y020769D01*
X012032Y020660D01*
X012032Y020541D01*
X012077Y020431D01*
X012161Y020348D01*
X012271Y020302D01*
X012374Y020302D01*
X012455Y020220D01*
X012530Y020220D01*
X012530Y018995D01*
X012005Y018995D01*
X011940Y018930D01*
X011805Y018930D01*
X011455Y018580D01*
X011350Y018475D01*
X011350Y018180D01*
X011280Y018180D01*
X011280Y018345D01*
X011210Y018416D01*
X010598Y018416D01*
X010530Y018347D01*
X010462Y018416D01*
X009850Y018416D01*
X009780Y018345D01*
X009780Y018180D01*
X009755Y018180D01*
X009650Y018075D01*
X009450Y017875D01*
X009450Y016126D01*
X009477Y016098D01*
X009471Y016098D01*
X009410Y016073D01*
X009410Y018697D01*
X009428Y018741D01*
X009428Y018860D01*
X009383Y018969D01*
X009299Y019053D01*
X009189Y019098D01*
X009071Y019098D01*
X009010Y019073D01*
X009010Y022159D01*
X009083Y022231D01*
X009128Y022341D01*
X009128Y022460D01*
X009083Y022569D01*
X008999Y022653D01*
X008889Y022698D01*
X008771Y022698D01*
X008661Y022653D01*
X008577Y022569D01*
X008532Y022460D01*
X008532Y022341D01*
X008577Y022231D01*
X008650Y022159D01*
X008650Y017275D01*
X008455Y017080D01*
X008350Y016975D01*
X008350Y016426D01*
X008650Y016126D01*
X008650Y015398D01*
X008571Y015398D01*
X008461Y015353D01*
X008413Y015305D01*
X008428Y015341D01*
X008428Y015460D01*
X008383Y015569D01*
X008310Y015642D01*
X008310Y017559D01*
X008383Y017631D01*
X008428Y017741D01*
X008428Y017860D01*
X008383Y017969D01*
X008299Y018053D01*
X008189Y018098D01*
X008071Y018098D01*
X007961Y018053D01*
X007877Y017969D01*
X007832Y017860D01*
X007832Y017741D01*
X007877Y017631D01*
X007950Y017559D01*
X007950Y015642D01*
X007877Y015569D01*
X007832Y015460D01*
X007832Y015382D01*
X007704Y015510D01*
X007356Y015510D01*
X007110Y015264D01*
X007110Y014916D01*
X007356Y014670D01*
X007704Y014670D01*
X007950Y014916D01*
X007950Y015159D01*
X007961Y015148D01*
X008071Y015102D01*
X008189Y015102D01*
X008299Y015148D01*
X008347Y015195D01*
X008332Y015160D01*
X008332Y015041D01*
X008377Y014931D01*
X008458Y014850D01*
X007884Y014850D01*
X007950Y014969D02*
X008362Y014969D01*
X008332Y015087D02*
X007950Y015087D01*
X008130Y015400D02*
X008130Y017800D01*
X008409Y017694D02*
X008650Y017694D01*
X008650Y017576D02*
X008327Y017576D01*
X008310Y017457D02*
X008650Y017457D01*
X008650Y017339D02*
X008310Y017339D01*
X008310Y017220D02*
X008595Y017220D01*
X008477Y017102D02*
X008310Y017102D01*
X008310Y016983D02*
X008358Y016983D01*
X008350Y016865D02*
X008310Y016865D01*
X008310Y016746D02*
X008350Y016746D01*
X008350Y016628D02*
X008310Y016628D01*
X008310Y016509D02*
X008350Y016509D01*
X008385Y016391D02*
X008310Y016391D01*
X008310Y016272D02*
X008503Y016272D01*
X008622Y016154D02*
X008310Y016154D01*
X008310Y016035D02*
X008650Y016035D01*
X008650Y015917D02*
X008310Y015917D01*
X008310Y015798D02*
X008650Y015798D01*
X008650Y015680D02*
X008310Y015680D01*
X008386Y015561D02*
X008650Y015561D01*
X008650Y015443D02*
X008428Y015443D01*
X008421Y015324D02*
X008432Y015324D01*
X008630Y015100D02*
X008830Y015300D01*
X008830Y016200D01*
X008530Y016500D01*
X008530Y016900D01*
X008830Y017200D01*
X008830Y022400D01*
X008611Y022197D02*
X007390Y022197D01*
X007462Y022217D02*
X007718Y022364D01*
X007926Y022573D01*
X008074Y022828D01*
X008150Y023113D01*
X008150Y023408D01*
X008074Y023693D01*
X007926Y023948D01*
X007718Y024156D01*
X007462Y024304D01*
X007177Y024380D01*
X006883Y024380D01*
X006598Y024304D01*
X006342Y024156D01*
X006134Y023948D01*
X005986Y023693D01*
X005910Y023408D01*
X005910Y023113D01*
X005986Y022828D01*
X006134Y022573D01*
X006342Y022364D01*
X006598Y022217D01*
X006883Y022140D01*
X007177Y022140D01*
X007462Y022217D01*
X007634Y022316D02*
X008542Y022316D01*
X008532Y022434D02*
X007788Y022434D01*
X007906Y022553D02*
X008571Y022553D01*
X008705Y022671D02*
X007983Y022671D01*
X008052Y022790D02*
X014030Y022790D01*
X014030Y022908D02*
X008095Y022908D01*
X008127Y023027D02*
X014030Y023027D01*
X014030Y023145D02*
X008150Y023145D01*
X008150Y023264D02*
X014030Y023264D01*
X014030Y023382D02*
X008150Y023382D01*
X008125Y023501D02*
X014030Y023501D01*
X014030Y023619D02*
X008093Y023619D01*
X008048Y023738D02*
X014030Y023738D01*
X014030Y023856D02*
X007979Y023856D01*
X007899Y023975D02*
X014030Y023975D01*
X014030Y024093D02*
X007781Y024093D01*
X007622Y024212D02*
X014030Y024212D01*
X014030Y024330D02*
X007364Y024330D01*
X006696Y024330D02*
X004190Y024330D01*
X004190Y024212D02*
X006438Y024212D01*
X006279Y024093D02*
X004190Y024093D01*
X004190Y023975D02*
X006161Y023975D01*
X006081Y023856D02*
X004190Y023856D01*
X004190Y023738D02*
X006012Y023738D01*
X005967Y023619D02*
X004190Y023619D01*
X004190Y023501D02*
X005935Y023501D01*
X005910Y023382D02*
X004190Y023382D01*
X004190Y023264D02*
X005910Y023264D01*
X005910Y023145D02*
X004190Y023145D01*
X004190Y023027D02*
X005933Y023027D01*
X005965Y022908D02*
X004190Y022908D01*
X004190Y022790D02*
X006008Y022790D01*
X006077Y022671D02*
X004190Y022671D01*
X004190Y022553D02*
X006154Y022553D01*
X006272Y022434D02*
X004190Y022434D01*
X004190Y022316D02*
X006426Y022316D01*
X006670Y022197D02*
X004190Y022197D01*
X004190Y022079D02*
X008650Y022079D01*
X008650Y021960D02*
X004190Y021960D01*
X004190Y021842D02*
X008650Y021842D01*
X008650Y021723D02*
X004190Y021723D01*
X004190Y021605D02*
X008650Y021605D01*
X008650Y021486D02*
X004190Y021486D01*
X004190Y021368D02*
X008650Y021368D01*
X008650Y021249D02*
X004190Y021249D01*
X004190Y021131D02*
X008650Y021131D01*
X008650Y021012D02*
X004190Y021012D01*
X004190Y020894D02*
X007310Y020894D01*
X007356Y020940D02*
X007110Y020694D01*
X007110Y020346D01*
X007356Y020100D01*
X007704Y020100D01*
X007950Y020346D01*
X007950Y020694D01*
X007704Y020940D01*
X007356Y020940D01*
X007191Y020775D02*
X004190Y020775D01*
X004190Y020657D02*
X007110Y020657D01*
X007110Y020538D02*
X004190Y020538D01*
X004190Y020420D02*
X007110Y020420D01*
X007155Y020301D02*
X006803Y020301D01*
X006704Y020400D02*
X006356Y020400D01*
X006110Y020154D01*
X006110Y019806D01*
X006356Y019560D01*
X006704Y019560D01*
X006950Y019806D01*
X006950Y020154D01*
X006704Y020400D01*
X006921Y020183D02*
X007273Y020183D01*
X007356Y019850D02*
X007110Y019604D01*
X007110Y019256D01*
X007356Y019010D01*
X007704Y019010D01*
X007950Y019256D01*
X007950Y019604D01*
X007704Y019850D01*
X007356Y019850D01*
X007333Y019827D02*
X006950Y019827D01*
X006950Y019946D02*
X008650Y019946D01*
X008650Y020064D02*
X006950Y020064D01*
X006853Y019709D02*
X007215Y019709D01*
X007110Y019590D02*
X006734Y019590D01*
X006704Y019310D02*
X006356Y019310D01*
X006110Y019064D01*
X006110Y018716D01*
X006356Y018470D01*
X006704Y018470D01*
X006950Y018716D01*
X006950Y019064D01*
X006704Y019310D01*
X006779Y019235D02*
X007131Y019235D01*
X007110Y019353D02*
X004190Y019353D01*
X004190Y019235D02*
X006281Y019235D01*
X006162Y019116D02*
X004190Y019116D01*
X004190Y018998D02*
X006110Y018998D01*
X006110Y018879D02*
X004190Y018879D01*
X004190Y018761D02*
X006110Y018761D01*
X006184Y018642D02*
X004190Y018642D01*
X004190Y018524D02*
X006302Y018524D01*
X006356Y018220D02*
X006110Y017974D01*
X006110Y017626D01*
X006356Y017380D01*
X006704Y017380D01*
X006950Y017626D01*
X006950Y017974D01*
X006704Y018220D01*
X006356Y018220D01*
X006304Y018168D02*
X004190Y018168D01*
X004190Y018050D02*
X006186Y018050D01*
X006110Y017931D02*
X004190Y017931D01*
X004190Y017813D02*
X006110Y017813D01*
X006110Y017694D02*
X004190Y017694D01*
X004190Y017576D02*
X006160Y017576D01*
X006279Y017457D02*
X004190Y017457D01*
X004190Y017339D02*
X007110Y017339D01*
X007110Y017434D02*
X007110Y017086D01*
X007356Y016840D01*
X007704Y016840D01*
X007950Y017086D01*
X007950Y017434D01*
X007704Y017680D01*
X007356Y017680D01*
X007110Y017434D01*
X007133Y017457D02*
X006781Y017457D01*
X006899Y017576D02*
X007252Y017576D01*
X006950Y017694D02*
X007851Y017694D01*
X007832Y017813D02*
X006950Y017813D01*
X006950Y017931D02*
X007355Y017931D01*
X007356Y017930D02*
X007704Y017930D01*
X007950Y018176D01*
X007950Y018524D01*
X007704Y018770D01*
X007356Y018770D01*
X007110Y018524D01*
X007110Y018176D01*
X007356Y017930D01*
X007236Y018050D02*
X006874Y018050D01*
X006756Y018168D02*
X007118Y018168D01*
X007110Y018287D02*
X004190Y018287D01*
X004190Y018405D02*
X007110Y018405D01*
X007110Y018524D02*
X006758Y018524D01*
X006876Y018642D02*
X007228Y018642D01*
X007347Y018761D02*
X006950Y018761D01*
X006950Y018879D02*
X008650Y018879D01*
X008650Y018761D02*
X007713Y018761D01*
X007832Y018642D02*
X008650Y018642D01*
X008650Y018524D02*
X007950Y018524D01*
X007950Y018405D02*
X008650Y018405D01*
X008650Y018287D02*
X007950Y018287D01*
X007942Y018168D02*
X008650Y018168D01*
X008650Y018050D02*
X008302Y018050D01*
X008398Y017931D02*
X008650Y017931D01*
X008650Y017813D02*
X008428Y017813D01*
X007958Y018050D02*
X007824Y018050D01*
X007862Y017931D02*
X007705Y017931D01*
X007808Y017576D02*
X007933Y017576D01*
X007927Y017457D02*
X007950Y017457D01*
X007950Y017339D02*
X007950Y017339D01*
X007950Y017220D02*
X007950Y017220D01*
X007950Y017102D02*
X007950Y017102D01*
X007950Y016983D02*
X007847Y016983D01*
X007950Y016865D02*
X007728Y016865D01*
X007950Y016746D02*
X006950Y016746D01*
X006950Y016628D02*
X007950Y016628D01*
X007950Y016509D02*
X007785Y016509D01*
X007704Y016590D02*
X007950Y016344D01*
X007950Y015996D01*
X007704Y015750D01*
X007356Y015750D01*
X007110Y015996D01*
X007110Y016344D01*
X007356Y016590D01*
X007704Y016590D01*
X007903Y016391D02*
X007950Y016391D01*
X007950Y016272D02*
X007950Y016272D01*
X007950Y016154D02*
X007950Y016154D01*
X007950Y016035D02*
X007950Y016035D01*
X007950Y015917D02*
X007870Y015917D01*
X007950Y015798D02*
X007752Y015798D01*
X007950Y015680D02*
X006950Y015680D01*
X006950Y015798D02*
X007308Y015798D01*
X007190Y015917D02*
X006837Y015917D01*
X006950Y015804D02*
X006704Y016050D01*
X006356Y016050D01*
X006110Y015804D01*
X006110Y015456D01*
X006356Y015210D01*
X006704Y015210D01*
X006950Y015456D01*
X006950Y015804D01*
X006950Y015561D02*
X007874Y015561D01*
X007832Y015443D02*
X007771Y015443D01*
X007289Y015443D02*
X006936Y015443D01*
X006818Y015324D02*
X007170Y015324D01*
X007110Y015206D02*
X004190Y015206D01*
X004190Y015324D02*
X006242Y015324D01*
X006124Y015443D02*
X004190Y015443D01*
X004190Y015561D02*
X006110Y015561D01*
X006110Y015680D02*
X004190Y015680D01*
X004190Y015798D02*
X006110Y015798D01*
X006223Y015917D02*
X004190Y015917D01*
X004190Y016035D02*
X006341Y016035D01*
X006356Y016300D02*
X006704Y016300D01*
X006950Y016546D01*
X006950Y016894D01*
X006704Y017140D01*
X006356Y017140D01*
X006110Y016894D01*
X006110Y016546D01*
X006356Y016300D01*
X006266Y016391D02*
X004190Y016391D01*
X004190Y016509D02*
X006147Y016509D01*
X006110Y016628D02*
X004190Y016628D01*
X004190Y016746D02*
X006110Y016746D01*
X006110Y016865D02*
X004190Y016865D01*
X004190Y016983D02*
X006199Y016983D01*
X006318Y017102D02*
X004190Y017102D01*
X004190Y017220D02*
X007110Y017220D01*
X007110Y017102D02*
X006742Y017102D01*
X006861Y016983D02*
X007213Y016983D01*
X007332Y016865D02*
X006950Y016865D01*
X006913Y016509D02*
X007275Y016509D01*
X007157Y016391D02*
X006794Y016391D01*
X006719Y016035D02*
X007110Y016035D01*
X007110Y016154D02*
X004190Y016154D01*
X004190Y016272D02*
X007110Y016272D01*
X007110Y015087D02*
X004190Y015087D01*
X004190Y014969D02*
X007110Y014969D01*
X007176Y014850D02*
X006814Y014850D01*
X006704Y014960D02*
X006950Y014714D01*
X006950Y014366D01*
X006704Y014120D01*
X006356Y014120D01*
X006110Y014366D01*
X006110Y014714D01*
X006356Y014960D01*
X006704Y014960D01*
X006932Y014732D02*
X007295Y014732D01*
X007356Y014420D02*
X007110Y014174D01*
X007110Y013826D01*
X007356Y013580D01*
X007704Y013580D01*
X007950Y013826D01*
X007950Y014174D01*
X007704Y014420D01*
X007356Y014420D01*
X007312Y014376D02*
X006950Y014376D01*
X006950Y014495D02*
X008270Y014495D01*
X008255Y014480D02*
X008150Y014375D01*
X008150Y013442D01*
X008077Y013369D01*
X008032Y013260D01*
X008032Y013141D01*
X008077Y013031D01*
X008161Y012948D01*
X008271Y012902D01*
X008389Y012902D01*
X008499Y012948D01*
X008580Y013029D01*
X008650Y012959D01*
X008650Y008542D01*
X008577Y008469D01*
X008532Y008360D01*
X008532Y008241D01*
X008577Y008131D01*
X008661Y008048D01*
X008771Y008002D01*
X008889Y008002D01*
X008999Y008048D01*
X009083Y008131D01*
X009128Y008241D01*
X009128Y008360D01*
X009083Y008469D01*
X009010Y008542D01*
X009010Y011799D01*
X009061Y011748D01*
X009171Y011702D01*
X009289Y011702D01*
X009399Y011748D01*
X009483Y011831D01*
X009528Y011941D01*
X009528Y012060D01*
X009483Y012169D01*
X009410Y012242D01*
X009410Y013027D01*
X009471Y013002D01*
X009589Y013002D01*
X009699Y013048D01*
X009783Y013131D01*
X009828Y013241D01*
X009828Y013360D01*
X009783Y013469D01*
X009710Y013542D01*
X009710Y015559D01*
X009783Y015631D01*
X009828Y015741D01*
X009828Y015748D01*
X009950Y015626D01*
X009950Y010075D01*
X009850Y009975D01*
X009850Y009242D01*
X009777Y009169D01*
X009732Y009060D01*
X009732Y008941D01*
X009777Y008831D01*
X009861Y008748D01*
X009971Y008702D01*
X010089Y008702D01*
X010199Y008748D01*
X010283Y008831D01*
X010328Y008941D01*
X010328Y009060D01*
X010283Y009169D01*
X010210Y009242D01*
X010210Y009599D01*
X010261Y009548D01*
X010371Y009502D01*
X010489Y009502D01*
X010599Y009548D01*
X010683Y009631D01*
X010728Y009741D01*
X010728Y009860D01*
X010683Y009969D01*
X010599Y010053D01*
X010510Y010090D01*
X010510Y015299D01*
X010561Y015248D01*
X010671Y015202D01*
X010774Y015202D01*
X011550Y014426D01*
X011550Y011442D01*
X011477Y011369D01*
X011432Y011260D01*
X011432Y011141D01*
X011477Y011031D01*
X011561Y010948D01*
X011671Y010902D01*
X011789Y010902D01*
X011850Y010927D01*
X011850Y010075D01*
X009955Y008180D01*
X009850Y008075D01*
X009850Y007442D01*
X009777Y007369D01*
X009732Y007260D01*
X009732Y007141D01*
X009777Y007031D01*
X009861Y006948D01*
X009971Y006902D01*
X010089Y006902D01*
X010199Y006948D01*
X010283Y007031D01*
X010328Y007141D01*
X010328Y007260D01*
X010283Y007369D01*
X010210Y007442D01*
X010210Y007926D01*
X012210Y009926D01*
X012210Y012259D01*
X012283Y012331D01*
X012328Y012441D01*
X012328Y012560D01*
X012283Y012669D01*
X012199Y012753D01*
X012089Y012798D01*
X011971Y012798D01*
X011910Y012773D01*
X011910Y014575D01*
X011028Y015457D01*
X011028Y015560D01*
X010983Y015669D01*
X010899Y015753D01*
X010789Y015798D01*
X010671Y015798D01*
X010561Y015753D01*
X010510Y015702D01*
X010510Y015975D01*
X010405Y016080D01*
X010336Y016149D01*
X010336Y016285D01*
X010462Y016285D01*
X010530Y016353D01*
X010598Y016285D01*
X011210Y016285D01*
X011280Y016355D01*
X011280Y016520D01*
X011505Y016520D01*
X011610Y016626D01*
X011997Y017013D01*
X012005Y017005D01*
X012530Y017005D01*
X012530Y016995D01*
X012005Y016995D01*
X011935Y016925D01*
X011935Y016576D01*
X012005Y016505D01*
X012513Y016505D01*
X012477Y016469D01*
X012432Y016360D01*
X012432Y016241D01*
X012477Y016131D01*
X012528Y016080D01*
X012372Y016080D01*
X012299Y016153D01*
X012189Y016198D01*
X012071Y016198D01*
X011961Y016153D01*
X011877Y016069D01*
X011832Y015960D01*
X011832Y015841D01*
X011857Y015780D01*
X011672Y015780D01*
X011599Y015853D01*
X011489Y015898D01*
X011371Y015898D01*
X011261Y015853D01*
X011177Y015769D01*
X011132Y015660D01*
X011132Y015541D01*
X011177Y015431D01*
X011261Y015348D01*
X011371Y015302D01*
X011489Y015302D01*
X011599Y015348D01*
X011672Y015420D01*
X012530Y015420D01*
X012530Y010000D01*
X013630Y010000D01*
X013630Y006300D01*
X005800Y006300D01*
X005800Y006786D01*
X005729Y006856D01*
X005623Y006856D01*
X005623Y007239D01*
X005705Y007320D01*
X005810Y007426D01*
X005810Y009226D01*
X006055Y009470D01*
X006296Y009470D01*
X006110Y009284D01*
X006110Y008936D01*
X006356Y008690D01*
X006704Y008690D01*
X006950Y008936D01*
X006950Y009284D01*
X006764Y009470D01*
X007116Y009470D01*
X007356Y009230D01*
X007704Y009230D01*
X007950Y009476D01*
X007950Y009824D01*
X007704Y010070D01*
X007356Y010070D01*
X007116Y009830D01*
X006754Y009830D01*
X006950Y010026D01*
X006950Y010374D01*
X006704Y010620D01*
X006356Y010620D01*
X006110Y010374D01*
X006110Y010026D01*
X006306Y009830D01*
X005905Y009830D01*
X005800Y009725D01*
X005450Y009375D01*
X005450Y007575D01*
X005263Y007388D01*
X005263Y006856D01*
X005157Y006856D01*
X005087Y006786D01*
X005087Y006300D01*
X004973Y006300D01*
X004973Y006786D01*
X004903Y006856D01*
X004797Y006856D01*
X004797Y006912D01*
X005105Y007220D01*
X005210Y007326D01*
X005210Y007750D01*
X005375Y007750D01*
X005445Y007821D01*
X005445Y008432D01*
X005377Y008500D01*
X005445Y008569D01*
X005445Y009180D01*
X005375Y009250D01*
X005210Y009250D01*
X005210Y011126D01*
X005735Y011650D01*
X006306Y011650D01*
X006110Y011454D01*
X006110Y011106D01*
X006356Y010860D01*
X006704Y010860D01*
X006950Y011106D01*
X006950Y011454D01*
X006754Y011650D01*
X007116Y011650D01*
X007356Y011410D01*
X007704Y011410D01*
X007950Y011656D01*
X007950Y012004D01*
X007704Y012250D01*
X007356Y012250D01*
X007116Y012010D01*
X006764Y012010D01*
X006950Y012196D01*
X006950Y012544D01*
X006704Y012790D01*
X006356Y012790D01*
X006110Y012544D01*
X006110Y012196D01*
X006296Y012010D01*
X005585Y012010D01*
X005480Y011905D01*
X005480Y011905D01*
X004955Y011380D01*
X004850Y011275D01*
X004850Y009250D01*
X004685Y009250D01*
X004615Y009180D01*
X004615Y008569D01*
X004683Y008500D01*
X004615Y008432D01*
X004615Y007821D01*
X004685Y007750D01*
X004850Y007750D01*
X004850Y007475D01*
X004437Y007061D01*
X004437Y006856D01*
X004331Y006856D01*
X004260Y006786D01*
X004260Y006300D01*
X004190Y006300D01*
X004190Y006318D02*
X004260Y006318D01*
X004260Y006437D02*
X004190Y006437D01*
X004190Y006555D02*
X004260Y006555D01*
X004260Y006674D02*
X004190Y006674D01*
X004190Y006792D02*
X004266Y006792D01*
X004190Y006911D02*
X004437Y006911D01*
X004437Y007029D02*
X004190Y007029D01*
X004190Y007148D02*
X004523Y007148D01*
X004641Y007266D02*
X004190Y007266D01*
X004190Y007385D02*
X004760Y007385D01*
X004850Y007503D02*
X004190Y007503D01*
X004190Y007622D02*
X004850Y007622D01*
X004850Y007740D02*
X004190Y007740D01*
X004190Y007859D02*
X004615Y007859D01*
X004615Y007977D02*
X004190Y007977D01*
X004190Y008096D02*
X004615Y008096D01*
X004615Y008214D02*
X004190Y008214D01*
X004190Y008333D02*
X004615Y008333D01*
X004634Y008451D02*
X004190Y008451D01*
X004190Y008570D02*
X004615Y008570D01*
X004615Y008688D02*
X004190Y008688D01*
X004190Y008807D02*
X004615Y008807D01*
X004615Y008925D02*
X004190Y008925D01*
X004190Y009044D02*
X004615Y009044D01*
X004615Y009162D02*
X004190Y009162D01*
X004190Y009281D02*
X004850Y009281D01*
X004850Y009399D02*
X004190Y009399D01*
X004190Y009518D02*
X004850Y009518D01*
X004850Y009636D02*
X004190Y009636D01*
X004190Y009755D02*
X004850Y009755D01*
X004850Y009873D02*
X004190Y009873D01*
X004190Y009992D02*
X004850Y009992D01*
X004850Y010110D02*
X004190Y010110D01*
X004190Y010229D02*
X004850Y010229D01*
X004850Y010347D02*
X004190Y010347D01*
X004190Y010466D02*
X004850Y010466D01*
X004850Y010584D02*
X004190Y010584D01*
X004190Y010703D02*
X004850Y010703D01*
X004850Y010821D02*
X004190Y010821D01*
X004190Y010940D02*
X004850Y010940D01*
X004850Y011058D02*
X004190Y011058D01*
X004190Y011177D02*
X004850Y011177D01*
X004870Y011295D02*
X004190Y011295D01*
X004190Y011414D02*
X004989Y011414D01*
X004955Y011380D02*
X004955Y011380D01*
X005030Y011200D02*
X005660Y011830D01*
X007530Y011830D01*
X007826Y011532D02*
X008650Y011532D01*
X008650Y011414D02*
X007707Y011414D01*
X007721Y011200D02*
X007570Y011200D01*
X007570Y010780D01*
X007990Y010780D01*
X007990Y010931D01*
X007721Y011200D01*
X007744Y011177D02*
X008650Y011177D01*
X008650Y011295D02*
X006950Y011295D01*
X006950Y011177D02*
X007316Y011177D01*
X007339Y011200D02*
X007070Y010931D01*
X007070Y010780D01*
X007490Y010780D01*
X007490Y010700D01*
X007570Y010700D01*
X007570Y010280D01*
X007721Y010280D01*
X007990Y010550D01*
X007990Y010700D01*
X007570Y010700D01*
X007570Y010780D01*
X007490Y010780D01*
X007490Y011200D01*
X007339Y011200D01*
X007490Y011177D02*
X007570Y011177D01*
X007570Y011058D02*
X007490Y011058D01*
X007490Y010940D02*
X007570Y010940D01*
X007570Y010821D02*
X007490Y010821D01*
X007490Y010703D02*
X005210Y010703D01*
X005210Y010821D02*
X007070Y010821D01*
X007079Y010940D02*
X006783Y010940D01*
X006902Y011058D02*
X007197Y011058D01*
X007353Y011414D02*
X006950Y011414D01*
X006872Y011532D02*
X007234Y011532D01*
X007231Y012125D02*
X006878Y012125D01*
X006950Y012243D02*
X007349Y012243D01*
X007356Y012490D02*
X007704Y012490D01*
X007950Y012736D01*
X007950Y013084D01*
X007704Y013330D01*
X007356Y013330D01*
X007110Y013084D01*
X007110Y012736D01*
X007356Y012490D01*
X007248Y012599D02*
X006895Y012599D01*
X006950Y012480D02*
X008650Y012480D01*
X008650Y012362D02*
X006950Y012362D01*
X006777Y012717D02*
X007129Y012717D01*
X007110Y012836D02*
X004190Y012836D01*
X004190Y012954D02*
X007110Y012954D01*
X007110Y013073D02*
X006736Y013073D01*
X006704Y013040D02*
X006950Y013286D01*
X006950Y013634D01*
X006704Y013880D01*
X006356Y013880D01*
X006110Y013634D01*
X006110Y013286D01*
X006356Y013040D01*
X006704Y013040D01*
X006855Y013191D02*
X007217Y013191D01*
X007336Y013310D02*
X006950Y013310D01*
X006950Y013428D02*
X008136Y013428D01*
X008150Y013547D02*
X006950Y013547D01*
X006919Y013665D02*
X007271Y013665D01*
X007153Y013784D02*
X006800Y013784D01*
X006723Y014139D02*
X007110Y014139D01*
X007110Y014021D02*
X004190Y014021D01*
X004190Y014139D02*
X006337Y014139D01*
X006219Y014258D02*
X004190Y014258D01*
X004190Y014376D02*
X006110Y014376D01*
X006110Y014495D02*
X004190Y014495D01*
X004190Y014613D02*
X006110Y014613D01*
X006128Y014732D02*
X004190Y014732D01*
X004190Y014850D02*
X006246Y014850D01*
X006950Y014613D02*
X008332Y014613D01*
X008332Y014660D02*
X008332Y014557D01*
X008255Y014480D01*
X008151Y014376D02*
X007748Y014376D01*
X007866Y014258D02*
X008150Y014258D01*
X008150Y014139D02*
X007950Y014139D01*
X007950Y014021D02*
X008150Y014021D01*
X008150Y013902D02*
X007950Y013902D01*
X007907Y013784D02*
X008150Y013784D01*
X008150Y013665D02*
X007789Y013665D01*
X007724Y013310D02*
X008053Y013310D01*
X008032Y013191D02*
X007843Y013191D01*
X007950Y013073D02*
X008060Y013073D01*
X008154Y012954D02*
X007950Y012954D01*
X007950Y012836D02*
X008650Y012836D01*
X008650Y012954D02*
X008506Y012954D01*
X008650Y012717D02*
X007931Y012717D01*
X007812Y012599D02*
X008650Y012599D01*
X008650Y012243D02*
X007711Y012243D01*
X007829Y012125D02*
X008650Y012125D01*
X008650Y012006D02*
X007948Y012006D01*
X007950Y011888D02*
X008650Y011888D01*
X008650Y011769D02*
X007950Y011769D01*
X007944Y011651D02*
X008650Y011651D01*
X009010Y011651D02*
X009950Y011651D01*
X009950Y011769D02*
X009421Y011769D01*
X009506Y011888D02*
X009950Y011888D01*
X009950Y012006D02*
X009528Y012006D01*
X009501Y012125D02*
X009950Y012125D01*
X009950Y012243D02*
X009410Y012243D01*
X009410Y012362D02*
X009950Y012362D01*
X009950Y012480D02*
X009410Y012480D01*
X009410Y012599D02*
X009950Y012599D01*
X009950Y012717D02*
X009410Y012717D01*
X009410Y012836D02*
X009950Y012836D01*
X009950Y012954D02*
X009410Y012954D01*
X009724Y013073D02*
X009950Y013073D01*
X009950Y013191D02*
X009808Y013191D01*
X009828Y013310D02*
X009950Y013310D01*
X009950Y013428D02*
X009800Y013428D01*
X009710Y013547D02*
X009950Y013547D01*
X009950Y013665D02*
X009710Y013665D01*
X009710Y013784D02*
X009950Y013784D01*
X009950Y013902D02*
X009710Y013902D01*
X009710Y014021D02*
X009950Y014021D01*
X009950Y014139D02*
X009710Y014139D01*
X009710Y014258D02*
X009950Y014258D01*
X009950Y014376D02*
X009710Y014376D01*
X009710Y014495D02*
X009950Y014495D01*
X009950Y014613D02*
X009710Y014613D01*
X009710Y014732D02*
X009950Y014732D01*
X009950Y014850D02*
X009710Y014850D01*
X009710Y014969D02*
X009950Y014969D01*
X009950Y015087D02*
X009710Y015087D01*
X009710Y015206D02*
X009950Y015206D01*
X009950Y015324D02*
X009710Y015324D01*
X009710Y015443D02*
X009950Y015443D01*
X009950Y015561D02*
X009713Y015561D01*
X009803Y015680D02*
X009896Y015680D01*
X010130Y015700D02*
X009630Y016200D01*
X009630Y017800D01*
X009830Y018000D01*
X010156Y018000D01*
X010472Y018405D02*
X010588Y018405D01*
X010904Y018000D02*
X011430Y018000D01*
X011530Y018100D01*
X011530Y018400D01*
X011880Y018750D01*
X012430Y018750D01*
X012530Y018505D02*
X012005Y018505D01*
X011947Y018563D01*
X011710Y018326D01*
X011710Y018175D01*
X011710Y018026D01*
X011610Y017926D01*
X011505Y017820D01*
X011280Y017820D01*
X011280Y017655D01*
X011210Y017585D01*
X010598Y017585D01*
X010530Y017653D01*
X010462Y017585D01*
X009850Y017585D01*
X009810Y017625D01*
X009810Y017075D01*
X009850Y017116D01*
X010462Y017116D01*
X010530Y017047D01*
X010598Y017116D01*
X011210Y017116D01*
X011280Y017045D01*
X011280Y016880D01*
X011355Y016880D01*
X011905Y017430D01*
X011940Y017430D01*
X012005Y017495D01*
X012530Y017495D01*
X012530Y018005D01*
X012005Y018005D01*
X011935Y018076D01*
X011935Y018425D01*
X012005Y018495D01*
X012530Y018495D01*
X012530Y018505D01*
X012710Y018505D02*
X012855Y018505D01*
X012925Y018576D01*
X012925Y018925D01*
X012855Y018995D01*
X012710Y018995D01*
X012710Y020220D01*
X013357Y020220D01*
X013332Y020160D01*
X013332Y020041D01*
X013377Y019931D01*
X013461Y019848D01*
X013571Y019802D01*
X013689Y019802D01*
X013799Y019848D01*
X013872Y019920D01*
X014355Y019920D01*
X015455Y018820D01*
X020455Y018820D01*
X020850Y018426D01*
X020850Y016535D01*
X020805Y016580D01*
X016805Y016580D01*
X016505Y016880D01*
X016172Y016880D01*
X016099Y016953D01*
X015989Y016998D01*
X015871Y016998D01*
X015761Y016953D01*
X015677Y016869D01*
X015632Y016760D01*
X015632Y016641D01*
X015677Y016531D01*
X015761Y016448D01*
X015871Y016402D01*
X015989Y016402D01*
X016099Y016448D01*
X016172Y016520D01*
X016355Y016520D01*
X016495Y016380D01*
X013020Y016380D01*
X012983Y016469D01*
X012901Y016551D01*
X012920Y016570D01*
X013661Y016570D01*
X013677Y016531D01*
X013761Y016448D01*
X013871Y016402D01*
X013989Y016402D01*
X014099Y016448D01*
X014181Y016530D01*
X014205Y016505D01*
X015055Y016505D01*
X015120Y016570D01*
X015255Y016570D01*
X015805Y017120D01*
X016655Y017120D01*
X016732Y017044D01*
X016732Y016941D01*
X016777Y016831D01*
X016861Y016748D01*
X016971Y016702D01*
X017089Y016702D01*
X017199Y016748D01*
X017283Y016831D01*
X017328Y016941D01*
X017328Y017060D01*
X017283Y017169D01*
X017199Y017253D01*
X017089Y017298D01*
X016986Y017298D01*
X016965Y017320D01*
X018205Y017320D01*
X018386Y017502D01*
X018489Y017502D01*
X018599Y017548D01*
X018683Y017631D01*
X018728Y017741D01*
X018728Y017860D01*
X018683Y017969D01*
X018599Y018053D01*
X018489Y018098D01*
X018371Y018098D01*
X018261Y018053D01*
X018177Y017969D01*
X018132Y017860D01*
X018132Y017757D01*
X018055Y017680D01*
X016105Y017680D01*
X015355Y018430D01*
X015120Y018430D01*
X015071Y018479D01*
X015103Y018497D01*
X015133Y018527D01*
X015154Y018563D01*
X015165Y018604D01*
X015165Y018748D01*
X014633Y018748D01*
X014633Y018753D01*
X015165Y018753D01*
X015165Y018896D01*
X015154Y018937D01*
X015133Y018973D01*
X015103Y019003D01*
X015067Y019024D01*
X015026Y019035D01*
X014633Y019035D01*
X014633Y018753D01*
X014627Y018753D01*
X014627Y018748D01*
X014095Y018748D01*
X014095Y018604D01*
X014106Y018563D01*
X014127Y018527D01*
X014157Y018497D01*
X014189Y018479D01*
X014135Y018425D01*
X014135Y018076D01*
X014205Y018005D01*
X015055Y018005D01*
X015120Y018070D01*
X015205Y018070D01*
X015795Y017480D01*
X015655Y017480D01*
X015550Y017375D01*
X015113Y016937D01*
X015071Y016979D01*
X015103Y016997D01*
X015133Y017027D01*
X015154Y017063D01*
X015165Y017104D01*
X015165Y017248D01*
X014633Y017248D01*
X014633Y017253D01*
X015165Y017253D01*
X015165Y017396D01*
X015154Y017437D01*
X015133Y017473D01*
X015103Y017503D01*
X015067Y017524D01*
X015026Y017535D01*
X014633Y017535D01*
X014633Y017253D01*
X014627Y017253D01*
X014627Y017248D01*
X014095Y017248D01*
X014095Y017104D01*
X014106Y017063D01*
X014127Y017027D01*
X014157Y016997D01*
X014189Y016979D01*
X014135Y016925D01*
X014135Y016917D01*
X014099Y016953D01*
X013989Y016998D01*
X013871Y016998D01*
X013761Y016953D01*
X013738Y016930D01*
X013210Y016930D01*
X013210Y018075D01*
X013105Y018180D01*
X012925Y018360D01*
X012925Y018425D01*
X012855Y018495D01*
X012710Y018495D01*
X012710Y018505D01*
X012873Y018524D02*
X014130Y018524D01*
X014135Y018405D02*
X012925Y018405D01*
X012998Y018287D02*
X014135Y018287D01*
X014135Y018168D02*
X013117Y018168D01*
X013210Y018050D02*
X014161Y018050D01*
X014630Y018250D02*
X015280Y018250D01*
X016030Y017500D01*
X018130Y017500D01*
X018430Y017800D01*
X018709Y017694D02*
X020850Y017694D01*
X020850Y017576D02*
X018627Y017576D01*
X018728Y017813D02*
X020850Y017813D01*
X020850Y017931D02*
X018698Y017931D01*
X018602Y018050D02*
X020850Y018050D01*
X020850Y018168D02*
X015617Y018168D01*
X015735Y018050D02*
X018258Y018050D01*
X018162Y017931D02*
X015854Y017931D01*
X015972Y017813D02*
X018132Y017813D01*
X018069Y017694D02*
X016091Y017694D01*
X015700Y017576D02*
X013210Y017576D01*
X013210Y017694D02*
X015581Y017694D01*
X015463Y017813D02*
X013210Y017813D01*
X013210Y017931D02*
X015344Y017931D01*
X015226Y018050D02*
X015099Y018050D01*
X015380Y018405D02*
X020850Y018405D01*
X020850Y018287D02*
X015498Y018287D01*
X015130Y018524D02*
X020752Y018524D01*
X020633Y018642D02*
X015165Y018642D01*
X015165Y018761D02*
X020515Y018761D01*
X020530Y019000D02*
X015530Y019000D01*
X014430Y020100D01*
X013630Y020100D01*
X013750Y019827D02*
X014448Y019827D01*
X014567Y019709D02*
X012710Y019709D01*
X012710Y019827D02*
X013510Y019827D01*
X013371Y019946D02*
X012710Y019946D01*
X012710Y020064D02*
X013332Y020064D01*
X013342Y020183D02*
X012710Y020183D01*
X012530Y020183D02*
X009010Y020183D01*
X009010Y020301D02*
X012374Y020301D01*
X012530Y020400D02*
X012330Y020600D01*
X012530Y020400D02*
X018130Y020400D01*
X018334Y020183D02*
X023161Y020183D01*
X023161Y020301D02*
X018412Y020301D01*
X018428Y020420D02*
X023161Y020420D01*
X023161Y020538D02*
X018395Y020538D01*
X018290Y020657D02*
X023161Y020657D01*
X023161Y020775D02*
X012710Y020775D01*
X012710Y020657D02*
X017970Y020657D01*
X017926Y020183D02*
X014602Y020183D01*
X014721Y020064D02*
X023161Y020064D01*
X023161Y019946D02*
X014839Y019946D01*
X014958Y019827D02*
X023161Y019827D01*
X023161Y019709D02*
X015076Y019709D01*
X015195Y019590D02*
X023161Y019590D01*
X023161Y019472D02*
X015313Y019472D01*
X015432Y019353D02*
X023161Y019353D01*
X023161Y019235D02*
X015550Y019235D01*
X015278Y018998D02*
X015109Y018998D01*
X015159Y019116D02*
X012710Y019116D01*
X012710Y018998D02*
X014151Y018998D01*
X014157Y019003D02*
X014127Y018973D01*
X014106Y018937D01*
X014095Y018896D01*
X014095Y018753D01*
X014627Y018753D01*
X014627Y019035D01*
X014234Y019035D01*
X014193Y019024D01*
X014157Y019003D01*
X014095Y018879D02*
X012925Y018879D01*
X012925Y018761D02*
X014095Y018761D01*
X014095Y018642D02*
X012925Y018642D01*
X012780Y018250D02*
X013030Y018000D01*
X013030Y017000D01*
X012780Y016750D01*
X013880Y016750D01*
X013930Y016700D01*
X014161Y016509D02*
X014201Y016509D01*
X014181Y016983D02*
X014026Y016983D01*
X014096Y017102D02*
X013210Y017102D01*
X013210Y017220D02*
X014095Y017220D01*
X014095Y017253D02*
X014627Y017253D01*
X014627Y017535D01*
X014234Y017535D01*
X014193Y017524D01*
X014157Y017503D01*
X014127Y017473D01*
X014106Y017437D01*
X014095Y017396D01*
X014095Y017253D01*
X014095Y017339D02*
X013210Y017339D01*
X013210Y017457D02*
X014118Y017457D01*
X014627Y017457D02*
X014633Y017457D01*
X014627Y017339D02*
X014633Y017339D01*
X015142Y017457D02*
X015632Y017457D01*
X015514Y017339D02*
X015165Y017339D01*
X015165Y017220D02*
X015395Y017220D01*
X015277Y017102D02*
X015164Y017102D01*
X015158Y016983D02*
X015079Y016983D01*
X015180Y016750D02*
X015730Y017300D01*
X016730Y017300D01*
X017030Y017000D01*
X017311Y017102D02*
X020850Y017102D01*
X020850Y017220D02*
X017232Y017220D01*
X017328Y016983D02*
X020850Y016983D01*
X020850Y016865D02*
X017297Y016865D01*
X017196Y016746D02*
X020850Y016746D01*
X020850Y016628D02*
X016757Y016628D01*
X016864Y016746D02*
X016639Y016746D01*
X016520Y016865D02*
X016763Y016865D01*
X016732Y016983D02*
X016026Y016983D01*
X015834Y016983D02*
X015668Y016983D01*
X015675Y016865D02*
X015549Y016865D01*
X015632Y016746D02*
X015431Y016746D01*
X015312Y016628D02*
X015637Y016628D01*
X015699Y016509D02*
X015059Y016509D01*
X015180Y016750D02*
X014630Y016750D01*
X013834Y016983D02*
X013210Y016983D01*
X012780Y016750D02*
X012430Y016750D01*
X012001Y016509D02*
X011280Y016509D01*
X011280Y016391D02*
X012445Y016391D01*
X012432Y016272D02*
X010336Y016272D01*
X010336Y016154D02*
X011963Y016154D01*
X011863Y016035D02*
X010450Y016035D01*
X010510Y015917D02*
X011832Y015917D01*
X011850Y015798D02*
X011654Y015798D01*
X011430Y015600D02*
X012530Y015600D01*
X012730Y015600D01*
X012930Y015800D01*
X015730Y015800D01*
X015930Y015600D01*
X016530Y015600D01*
X016417Y015324D02*
X012710Y015324D01*
X012710Y015206D02*
X020750Y015206D01*
X020750Y015324D02*
X016643Y015324D01*
X016787Y015443D02*
X020750Y015443D01*
X020750Y015561D02*
X016828Y015561D01*
X016820Y015680D02*
X020750Y015680D01*
X020750Y015798D02*
X016754Y015798D01*
X016428Y015917D02*
X020659Y015917D01*
X020930Y015900D02*
X020630Y016200D01*
X012830Y016200D01*
X012730Y016300D01*
X012943Y016509D02*
X013699Y016509D01*
X013015Y016391D02*
X016485Y016391D01*
X016366Y016509D02*
X016161Y016509D01*
X015930Y016700D02*
X016430Y016700D01*
X016730Y016400D01*
X020730Y016400D01*
X021130Y016000D01*
X021130Y011000D01*
X021630Y010500D01*
X021630Y008400D01*
X019630Y006400D01*
X018430Y006400D01*
X018130Y006100D01*
X018130Y005800D01*
X017530Y005200D01*
X017530Y004500D01*
X017030Y004000D01*
X016744Y004304D02*
X016316Y004304D01*
X016405Y004185D02*
X016655Y004185D01*
X016613Y004067D02*
X016447Y004067D01*
X016447Y003948D02*
X016613Y003948D01*
X016649Y003830D02*
X016411Y003830D01*
X016331Y003711D02*
X016729Y003711D01*
X016925Y003593D02*
X016135Y003593D01*
X015843Y003474D02*
X023161Y003474D01*
X023161Y003356D02*
X015725Y003356D01*
X015606Y003237D02*
X023161Y003237D01*
X023161Y003593D02*
X021135Y003593D01*
X021113Y003583D02*
X021266Y003647D01*
X021383Y003764D01*
X021447Y003917D01*
X021447Y004083D01*
X021383Y004236D01*
X021266Y004354D01*
X021113Y004417D01*
X020947Y004417D01*
X020794Y004354D01*
X020677Y004236D01*
X020613Y004083D01*
X020613Y003917D01*
X020677Y003764D01*
X020794Y003647D01*
X020947Y003583D01*
X021113Y003583D01*
X020925Y003593D02*
X020135Y003593D01*
X019925Y003593D02*
X019135Y003593D01*
X019113Y003583D02*
X019266Y003647D01*
X019383Y003764D01*
X019447Y003917D01*
X019447Y004083D01*
X019383Y004236D01*
X019266Y004354D01*
X019113Y004417D01*
X018947Y004417D01*
X018794Y004354D01*
X018677Y004236D01*
X018613Y004083D01*
X018613Y003917D01*
X018677Y003764D01*
X018794Y003647D01*
X018947Y003583D01*
X019113Y003583D01*
X018925Y003593D02*
X018135Y003593D01*
X018113Y003583D02*
X018266Y003647D01*
X018383Y003764D01*
X018447Y003917D01*
X018447Y004083D01*
X018383Y004236D01*
X018266Y004354D01*
X018113Y004417D01*
X017947Y004417D01*
X017794Y004354D01*
X017677Y004236D01*
X017613Y004083D01*
X017613Y003917D01*
X017677Y003764D01*
X017794Y003647D01*
X017947Y003583D01*
X018113Y003583D01*
X017925Y003593D02*
X017135Y003593D01*
X017331Y003711D02*
X017729Y003711D01*
X017649Y003830D02*
X017411Y003830D01*
X017447Y003948D02*
X017613Y003948D01*
X017613Y004067D02*
X017447Y004067D01*
X017470Y004185D02*
X017655Y004185D01*
X017588Y004304D02*
X017744Y004304D01*
X017707Y004422D02*
X020197Y004422D01*
X020316Y004541D02*
X017710Y004541D01*
X017710Y004659D02*
X017781Y004659D01*
X018030Y005000D02*
X018130Y005000D01*
X019130Y006000D01*
X019830Y006000D01*
X022030Y008200D01*
X022030Y010700D01*
X021530Y011200D01*
X021530Y016500D01*
X022330Y017300D01*
X022216Y017576D02*
X021210Y017576D01*
X021210Y017694D02*
X023161Y017694D01*
X023161Y017576D02*
X022444Y017576D01*
X022588Y017457D02*
X023161Y017457D01*
X023161Y017339D02*
X022628Y017339D01*
X022620Y017220D02*
X023161Y017220D01*
X023161Y017102D02*
X022553Y017102D01*
X022506Y016746D02*
X023161Y016746D01*
X023161Y016628D02*
X022600Y016628D01*
X022628Y016509D02*
X023161Y016509D01*
X023161Y016391D02*
X022607Y016391D01*
X022524Y016272D02*
X023161Y016272D01*
X023161Y016154D02*
X022238Y016154D01*
X022120Y016035D02*
X023161Y016035D01*
X023161Y015917D02*
X022001Y015917D01*
X021910Y015798D02*
X023161Y015798D01*
X023161Y015680D02*
X021910Y015680D01*
X021910Y015561D02*
X023161Y015561D01*
X023161Y015443D02*
X021910Y015443D01*
X021910Y015324D02*
X023161Y015324D01*
X023161Y015206D02*
X021910Y015206D01*
X021910Y015087D02*
X023161Y015087D01*
X023161Y014969D02*
X021910Y014969D01*
X021910Y014850D02*
X023161Y014850D01*
X023161Y014732D02*
X022220Y014732D01*
X022306Y014613D02*
X023161Y014613D01*
X023161Y014495D02*
X022328Y014495D01*
X022301Y014376D02*
X023161Y014376D01*
X023161Y014258D02*
X022209Y014258D01*
X022110Y014139D02*
X023161Y014139D01*
X023161Y014021D02*
X022110Y014021D01*
X022110Y013902D02*
X023161Y013902D01*
X023161Y013784D02*
X022625Y013784D01*
X022435Y013784D02*
X022110Y013784D01*
X022110Y013665D02*
X022276Y013665D01*
X022232Y013547D02*
X022110Y013547D01*
X022110Y013428D02*
X022203Y013428D01*
X022530Y013500D02*
X022130Y013100D01*
X022130Y012200D01*
X022830Y011500D01*
X022830Y007800D01*
X020530Y005500D01*
X020530Y004500D01*
X020030Y004000D01*
X020411Y003830D02*
X020649Y003830D01*
X020613Y003948D02*
X020447Y003948D01*
X020447Y004067D02*
X020613Y004067D01*
X020655Y004185D02*
X020470Y004185D01*
X020588Y004304D02*
X020744Y004304D01*
X020707Y004422D02*
X023161Y004422D01*
X023161Y004304D02*
X021316Y004304D01*
X021405Y004185D02*
X023161Y004185D01*
X023161Y004067D02*
X021447Y004067D01*
X021447Y003948D02*
X023161Y003948D01*
X023161Y003830D02*
X021411Y003830D01*
X021331Y003711D02*
X023161Y003711D01*
X023161Y004541D02*
X020710Y004541D01*
X020710Y004659D02*
X020781Y004659D01*
X020350Y004659D02*
X020279Y004659D01*
X020030Y005000D02*
X020030Y005300D01*
X022630Y007900D01*
X022630Y011400D01*
X021930Y012100D01*
X021930Y014400D01*
X022030Y014500D01*
X022784Y013665D02*
X023161Y013665D01*
X023161Y013547D02*
X022828Y013547D01*
X022823Y013428D02*
X023161Y013428D01*
X023161Y013310D02*
X022761Y013310D01*
X022476Y013191D02*
X023161Y013191D01*
X023161Y013073D02*
X022357Y013073D01*
X022310Y012954D02*
X023161Y012954D01*
X023161Y012836D02*
X022310Y012836D01*
X022310Y012717D02*
X023161Y012717D01*
X023161Y012599D02*
X022310Y012599D01*
X022310Y012480D02*
X023161Y012480D01*
X023161Y012362D02*
X022310Y012362D01*
X022342Y012243D02*
X023161Y012243D01*
X023161Y012125D02*
X022460Y012125D01*
X022579Y012006D02*
X023161Y012006D01*
X023161Y011888D02*
X022697Y011888D01*
X022816Y011769D02*
X023161Y011769D01*
X023161Y011651D02*
X022934Y011651D01*
X023010Y011532D02*
X023161Y011532D01*
X023161Y011414D02*
X023010Y011414D01*
X023010Y011295D02*
X023161Y011295D01*
X023161Y011177D02*
X023010Y011177D01*
X023010Y011058D02*
X023161Y011058D01*
X023161Y010940D02*
X023010Y010940D01*
X023010Y010821D02*
X023161Y010821D01*
X023161Y010703D02*
X023010Y010703D01*
X023010Y010584D02*
X023161Y010584D01*
X023161Y010466D02*
X023010Y010466D01*
X023010Y010347D02*
X023161Y010347D01*
X023161Y010229D02*
X023010Y010229D01*
X023010Y010110D02*
X023161Y010110D01*
X023161Y009992D02*
X023010Y009992D01*
X023010Y009873D02*
X023161Y009873D01*
X023161Y009755D02*
X023010Y009755D01*
X023010Y009636D02*
X023161Y009636D01*
X023161Y009518D02*
X023010Y009518D01*
X023010Y009399D02*
X023161Y009399D01*
X023161Y009281D02*
X023010Y009281D01*
X023010Y009162D02*
X023161Y009162D01*
X023161Y009044D02*
X023010Y009044D01*
X023010Y008925D02*
X023161Y008925D01*
X023161Y008807D02*
X023010Y008807D01*
X023010Y008688D02*
X023161Y008688D01*
X023161Y008570D02*
X023010Y008570D01*
X023010Y008451D02*
X023161Y008451D01*
X023161Y008333D02*
X023010Y008333D01*
X023010Y008214D02*
X023161Y008214D01*
X023161Y008096D02*
X023010Y008096D01*
X023010Y007977D02*
X023161Y007977D01*
X023161Y007859D02*
X023010Y007859D01*
X023010Y007740D02*
X023161Y007740D01*
X023161Y007622D02*
X022906Y007622D01*
X022788Y007503D02*
X023161Y007503D01*
X023161Y007385D02*
X022669Y007385D01*
X022551Y007266D02*
X023161Y007266D01*
X023161Y007148D02*
X022432Y007148D01*
X022314Y007029D02*
X023161Y007029D01*
X023161Y006911D02*
X022195Y006911D01*
X022077Y006792D02*
X023161Y006792D01*
X023161Y006674D02*
X021958Y006674D01*
X021840Y006555D02*
X023161Y006555D01*
X023161Y006437D02*
X021721Y006437D01*
X021603Y006318D02*
X023161Y006318D01*
X023161Y006200D02*
X021484Y006200D01*
X021366Y006081D02*
X023161Y006081D01*
X023161Y005963D02*
X021247Y005963D01*
X021129Y005844D02*
X023161Y005844D01*
X023161Y005726D02*
X021010Y005726D01*
X020892Y005607D02*
X023161Y005607D01*
X023161Y005489D02*
X020773Y005489D01*
X020834Y005370D02*
X020710Y005370D01*
X021226Y005370D02*
X023161Y005370D01*
X023161Y005252D02*
X021368Y005252D01*
X021426Y005133D02*
X023161Y005133D01*
X023161Y005015D02*
X021447Y005015D01*
X021438Y004896D02*
X023161Y004896D01*
X023161Y004778D02*
X021389Y004778D01*
X021279Y004659D02*
X023161Y004659D01*
X020729Y003711D02*
X020331Y003711D01*
X019729Y003711D02*
X019331Y003711D01*
X019411Y003830D02*
X019649Y003830D01*
X019613Y003948D02*
X019447Y003948D01*
X019447Y004067D02*
X019613Y004067D01*
X019655Y004185D02*
X019405Y004185D01*
X019316Y004304D02*
X019744Y004304D01*
X019781Y004659D02*
X019279Y004659D01*
X019389Y004778D02*
X019671Y004778D01*
X019622Y004896D02*
X019481Y004896D01*
X019599Y005015D02*
X019613Y005015D01*
X019330Y005000D02*
X019930Y005600D01*
X020030Y005600D01*
X022430Y008000D01*
X022430Y011100D01*
X022030Y011500D01*
X021730Y011300D02*
X021730Y015900D01*
X022330Y016500D01*
X022154Y016746D02*
X022031Y016746D01*
X022060Y016628D02*
X021912Y016628D01*
X021794Y016509D02*
X022032Y016509D01*
X021966Y016391D02*
X021710Y016391D01*
X021710Y016272D02*
X021847Y016272D01*
X021729Y016154D02*
X021710Y016154D01*
X021330Y016100D02*
X021030Y016400D01*
X021030Y018500D01*
X020530Y019000D01*
X020669Y019116D02*
X023161Y019116D01*
X023161Y018998D02*
X020787Y018998D01*
X020906Y018879D02*
X023161Y018879D01*
X023161Y018761D02*
X021024Y018761D01*
X021143Y018642D02*
X023161Y018642D01*
X023161Y018524D02*
X021210Y018524D01*
X021210Y018405D02*
X023161Y018405D01*
X023161Y018287D02*
X021210Y018287D01*
X021210Y018168D02*
X023161Y018168D01*
X023161Y018050D02*
X021210Y018050D01*
X021210Y017931D02*
X023161Y017931D01*
X023161Y017813D02*
X021210Y017813D01*
X021210Y017457D02*
X022072Y017457D01*
X022032Y017339D02*
X021210Y017339D01*
X021210Y017220D02*
X021995Y017220D01*
X021877Y017102D02*
X021210Y017102D01*
X021210Y016983D02*
X021758Y016983D01*
X021640Y016865D02*
X021210Y016865D01*
X021210Y016746D02*
X021521Y016746D01*
X021403Y016628D02*
X021210Y016628D01*
X021210Y016509D02*
X021350Y016509D01*
X021350Y016391D02*
X021294Y016391D01*
X021330Y016100D02*
X021330Y011100D01*
X021830Y010600D01*
X021830Y008300D01*
X019730Y006200D01*
X018730Y006200D01*
X018530Y006000D01*
X018992Y005607D02*
X019246Y005607D01*
X019232Y005726D02*
X019110Y005726D01*
X019320Y005489D02*
X018873Y005489D01*
X018834Y005370D02*
X018755Y005370D01*
X018692Y005252D02*
X018636Y005252D01*
X018634Y005133D02*
X018518Y005133D01*
X018447Y005015D02*
X018613Y005015D01*
X018622Y004896D02*
X018438Y004896D01*
X018389Y004778D02*
X018671Y004778D01*
X018781Y004659D02*
X018279Y004659D01*
X018316Y004304D02*
X018744Y004304D01*
X018655Y004185D02*
X018405Y004185D01*
X018447Y004067D02*
X018613Y004067D01*
X018613Y003948D02*
X018447Y003948D01*
X018411Y003830D02*
X018649Y003830D01*
X018729Y003711D02*
X018331Y003711D01*
X017316Y004541D02*
X013245Y004541D01*
X013245Y004422D02*
X013852Y004422D01*
X013855Y004424D02*
X013791Y004391D01*
X013732Y004349D01*
X013682Y004298D01*
X013639Y004240D01*
X013607Y004176D01*
X013584Y004107D01*
X013574Y004039D01*
X013992Y004039D01*
X013992Y004457D01*
X013923Y004446D01*
X013855Y004424D01*
X013992Y004422D02*
X014068Y004422D01*
X014068Y004457D02*
X014137Y004446D01*
X014205Y004424D01*
X014269Y004391D01*
X014328Y004349D01*
X014378Y004298D01*
X014421Y004240D01*
X014453Y004176D01*
X014476Y004107D01*
X014486Y004039D01*
X014068Y004039D01*
X013992Y004039D01*
X013992Y003962D01*
X014068Y003962D01*
X014068Y003544D01*
X014137Y003555D01*
X014205Y003577D01*
X014269Y003610D01*
X014328Y003652D01*
X014378Y003703D01*
X014421Y003761D01*
X014453Y003825D01*
X014476Y003893D01*
X014486Y003962D01*
X014068Y003962D01*
X014068Y004039D01*
X014068Y004457D01*
X014208Y004422D02*
X017197Y004422D01*
X017279Y004659D02*
X017350Y004659D01*
X017030Y005000D02*
X017930Y005900D01*
X017930Y006200D01*
X018330Y006600D01*
X019530Y006600D01*
X021430Y008500D01*
X021430Y010400D01*
X020930Y010900D01*
X020930Y015900D01*
X020750Y015087D02*
X012710Y015087D01*
X012710Y014969D02*
X020750Y014969D01*
X020750Y014850D02*
X012710Y014850D01*
X012710Y014732D02*
X020750Y014732D01*
X020750Y014613D02*
X017939Y014613D01*
X017899Y014653D02*
X017789Y014698D01*
X017671Y014698D01*
X017561Y014653D01*
X017477Y014569D01*
X017440Y014480D01*
X016772Y014480D01*
X016699Y014553D01*
X016589Y014598D01*
X016471Y014598D01*
X016361Y014553D01*
X016277Y014469D01*
X016232Y014360D01*
X016232Y014241D01*
X016277Y014131D01*
X016361Y014048D01*
X016471Y014002D01*
X016589Y014002D01*
X016699Y014048D01*
X016772Y014120D01*
X017627Y014120D01*
X017671Y014102D01*
X017789Y014102D01*
X017899Y014148D01*
X017983Y014231D01*
X018028Y014341D01*
X018028Y014460D01*
X017983Y014569D01*
X017899Y014653D01*
X018014Y014495D02*
X020750Y014495D01*
X020750Y014376D02*
X018028Y014376D01*
X017994Y014258D02*
X020750Y014258D01*
X020750Y014139D02*
X017879Y014139D01*
X017630Y014300D02*
X017730Y014400D01*
X017630Y014300D02*
X016530Y014300D01*
X016426Y014021D02*
X012710Y014021D01*
X012710Y014139D02*
X016274Y014139D01*
X016232Y014258D02*
X012710Y014258D01*
X012710Y014376D02*
X016239Y014376D01*
X016303Y014495D02*
X012710Y014495D01*
X012710Y014613D02*
X017521Y014613D01*
X017446Y014495D02*
X016757Y014495D01*
X016634Y014021D02*
X020750Y014021D01*
X020750Y013902D02*
X012710Y013902D01*
X012710Y013784D02*
X020750Y013784D01*
X020750Y013665D02*
X012710Y013665D01*
X012710Y013547D02*
X020750Y013547D01*
X020750Y013428D02*
X012710Y013428D01*
X012710Y013310D02*
X020750Y013310D01*
X020750Y013191D02*
X012710Y013191D01*
X012710Y013073D02*
X020750Y013073D01*
X020750Y012954D02*
X012710Y012954D01*
X012710Y012836D02*
X020750Y012836D01*
X020750Y012717D02*
X012710Y012717D01*
X012710Y012599D02*
X020750Y012599D01*
X020750Y012480D02*
X012710Y012480D01*
X012710Y012362D02*
X020750Y012362D01*
X020750Y012243D02*
X012710Y012243D01*
X012710Y012125D02*
X020750Y012125D01*
X020750Y012006D02*
X012710Y012006D01*
X012710Y011888D02*
X020750Y011888D01*
X020750Y011769D02*
X012710Y011769D01*
X012710Y011651D02*
X016359Y011651D01*
X016361Y011653D02*
X016277Y011569D01*
X016232Y011460D01*
X016232Y011341D01*
X016277Y011231D01*
X016361Y011148D01*
X016471Y011102D01*
X016589Y011102D01*
X016699Y011148D01*
X016772Y011220D01*
X017588Y011220D01*
X017661Y011148D01*
X017771Y011102D01*
X017889Y011102D01*
X017999Y011148D01*
X018083Y011231D01*
X018128Y011341D01*
X018128Y011460D01*
X018083Y011569D01*
X017999Y011653D01*
X017889Y011698D01*
X017771Y011698D01*
X017661Y011653D01*
X017588Y011580D01*
X016772Y011580D01*
X016699Y011653D01*
X016589Y011698D01*
X016471Y011698D01*
X016361Y011653D01*
X016262Y011532D02*
X012710Y011532D01*
X012710Y011414D02*
X016232Y011414D01*
X016251Y011295D02*
X012710Y011295D01*
X012710Y011177D02*
X016332Y011177D01*
X016530Y011400D02*
X017830Y011400D01*
X017632Y011177D02*
X016728Y011177D01*
X016701Y011651D02*
X017659Y011651D01*
X018001Y011651D02*
X020750Y011651D01*
X020750Y011532D02*
X018098Y011532D01*
X018128Y011414D02*
X020750Y011414D01*
X020750Y011295D02*
X018109Y011295D01*
X018028Y011177D02*
X020750Y011177D01*
X020750Y011058D02*
X012710Y011058D01*
X012710Y010940D02*
X020750Y010940D01*
X020754Y010821D02*
X012710Y010821D01*
X012710Y010703D02*
X020873Y010703D01*
X020991Y010584D02*
X012710Y010584D01*
X012710Y010466D02*
X021110Y010466D01*
X021228Y010347D02*
X012710Y010347D01*
X012710Y010229D02*
X021250Y010229D01*
X021250Y010110D02*
X013775Y010110D01*
X013810Y009992D02*
X020900Y009992D01*
X020838Y009873D02*
X013810Y009873D01*
X013810Y009755D02*
X020832Y009755D01*
X020875Y009636D02*
X013810Y009636D01*
X013810Y009518D02*
X021033Y009518D01*
X021050Y009399D02*
X013810Y009399D01*
X013810Y009281D02*
X021050Y009281D01*
X021050Y009162D02*
X013810Y009162D01*
X013810Y009044D02*
X021050Y009044D01*
X021050Y008925D02*
X013810Y008925D01*
X013810Y008807D02*
X021050Y008807D01*
X021050Y008688D02*
X013810Y008688D01*
X013810Y008570D02*
X020945Y008570D01*
X020826Y008451D02*
X016801Y008451D01*
X016799Y008453D02*
X016872Y008380D01*
X017605Y008380D01*
X017786Y008198D01*
X017889Y008198D01*
X017999Y008153D01*
X018083Y008069D01*
X018128Y007960D01*
X018128Y007841D01*
X018083Y007731D01*
X017999Y007648D01*
X017889Y007602D01*
X017771Y007602D01*
X017661Y007648D01*
X017577Y007731D01*
X017532Y007841D01*
X017532Y007944D01*
X017455Y008020D01*
X016872Y008020D01*
X016799Y007948D01*
X016689Y007902D01*
X016571Y007902D01*
X016461Y007948D01*
X016377Y008031D01*
X016332Y008141D01*
X016332Y008260D01*
X016377Y008369D01*
X016461Y008453D01*
X016571Y008498D01*
X016689Y008498D01*
X016799Y008453D01*
X016630Y008200D02*
X017530Y008200D01*
X017830Y007900D01*
X017937Y007622D02*
X019997Y007622D01*
X020115Y007740D02*
X018086Y007740D01*
X018128Y007859D02*
X020234Y007859D01*
X020352Y007977D02*
X018121Y007977D01*
X018056Y008096D02*
X020471Y008096D01*
X020589Y008214D02*
X017771Y008214D01*
X017652Y008333D02*
X020708Y008333D01*
X021230Y008600D02*
X019430Y006800D01*
X018230Y006800D01*
X017730Y006300D01*
X017730Y006000D01*
X017230Y005500D01*
X016830Y005500D01*
X016330Y005000D01*
X016030Y005000D01*
X015834Y005370D02*
X015226Y005370D01*
X015368Y005252D02*
X015692Y005252D01*
X015634Y005133D02*
X015426Y005133D01*
X015447Y005015D02*
X015613Y005015D01*
X015622Y004896D02*
X015438Y004896D01*
X015389Y004778D02*
X015671Y004778D01*
X015781Y004659D02*
X015279Y004659D01*
X015113Y004417D02*
X014947Y004417D01*
X014794Y004354D01*
X014677Y004236D01*
X014613Y004083D01*
X014613Y003917D01*
X014677Y003764D01*
X014794Y003647D01*
X014947Y003583D01*
X015113Y003583D01*
X015266Y003647D01*
X015383Y003764D01*
X015447Y003917D01*
X015447Y004083D01*
X015383Y004236D01*
X015266Y004354D01*
X015113Y004417D01*
X015316Y004304D02*
X015744Y004304D01*
X015655Y004185D02*
X015405Y004185D01*
X015447Y004067D02*
X015613Y004067D01*
X015613Y003948D02*
X015447Y003948D01*
X015411Y003830D02*
X015520Y003830D01*
X015402Y003711D02*
X015331Y003711D01*
X015283Y003593D02*
X015135Y003593D01*
X014925Y003593D02*
X014237Y003593D01*
X014068Y003593D02*
X013992Y003593D01*
X013992Y003544D02*
X013992Y003962D01*
X013574Y003962D01*
X013584Y003893D01*
X013607Y003825D01*
X013639Y003761D01*
X013682Y003703D01*
X013732Y003652D01*
X013791Y003610D01*
X013855Y003577D01*
X013923Y003555D01*
X013992Y003544D01*
X013992Y003711D02*
X014068Y003711D01*
X014068Y003830D02*
X013992Y003830D01*
X013992Y003948D02*
X014068Y003948D01*
X014068Y004067D02*
X013992Y004067D01*
X013992Y004185D02*
X014068Y004185D01*
X014068Y004304D02*
X013992Y004304D01*
X013687Y004304D02*
X013245Y004304D01*
X013245Y004185D02*
X013612Y004185D01*
X013578Y004067D02*
X013245Y004067D01*
X013070Y003948D02*
X013576Y003948D01*
X013605Y003830D02*
X013099Y003830D01*
X013128Y003711D02*
X013675Y003711D01*
X013823Y003593D02*
X013108Y003593D01*
X013218Y004659D02*
X013725Y004659D01*
X013631Y004778D02*
X013280Y004778D01*
X013285Y004896D02*
X013584Y004896D01*
X013992Y004896D02*
X014068Y004896D01*
X014068Y004778D02*
X013992Y004778D01*
X013992Y004659D02*
X014068Y004659D01*
X014335Y004659D02*
X014781Y004659D01*
X014671Y004778D02*
X014429Y004778D01*
X014476Y004896D02*
X014622Y004896D01*
X014744Y004304D02*
X014373Y004304D01*
X014448Y004185D02*
X014655Y004185D01*
X014613Y004067D02*
X014482Y004067D01*
X014484Y003948D02*
X014613Y003948D01*
X014649Y003830D02*
X014455Y003830D01*
X014385Y003711D02*
X014729Y003711D01*
X016279Y004659D02*
X016781Y004659D01*
X016671Y004778D02*
X016389Y004778D01*
X016481Y004896D02*
X016622Y004896D01*
X016613Y005015D02*
X016599Y005015D01*
X016822Y005726D02*
X017201Y005726D01*
X017319Y005844D02*
X016828Y005844D01*
X016785Y005963D02*
X017438Y005963D01*
X017550Y006081D02*
X016631Y006081D01*
X016470Y006200D02*
X017550Y006200D01*
X017550Y006318D02*
X016351Y006318D01*
X016233Y006437D02*
X017612Y006437D01*
X017730Y006555D02*
X016114Y006555D01*
X015996Y006674D02*
X017849Y006674D01*
X017967Y006792D02*
X014577Y006792D01*
X014507Y006911D02*
X018086Y006911D01*
X017723Y007622D02*
X013810Y007622D01*
X013810Y007740D02*
X017574Y007740D01*
X017532Y007859D02*
X013810Y007859D01*
X013810Y007977D02*
X016431Y007977D01*
X016351Y008096D02*
X013810Y008096D01*
X013810Y008214D02*
X016332Y008214D01*
X016362Y008333D02*
X013810Y008333D01*
X013810Y008451D02*
X016459Y008451D01*
X016829Y007977D02*
X017498Y007977D01*
X015791Y006200D02*
X013784Y006200D01*
X013810Y006318D02*
X014379Y006318D01*
X014254Y006437D02*
X013810Y006437D01*
X013810Y006555D02*
X014053Y006555D01*
X013960Y006674D02*
X013810Y006674D01*
X013810Y006792D02*
X013932Y006792D01*
X013953Y006911D02*
X013810Y006911D01*
X013810Y007029D02*
X014037Y007029D01*
X013810Y007148D02*
X019523Y007148D01*
X019641Y007266D02*
X013810Y007266D01*
X013810Y007385D02*
X019760Y007385D01*
X019878Y007503D02*
X013810Y007503D01*
X013630Y007503D02*
X010210Y007503D01*
X010210Y007622D02*
X013630Y007622D01*
X013630Y007740D02*
X010210Y007740D01*
X010210Y007859D02*
X013630Y007859D01*
X013630Y007977D02*
X010262Y007977D01*
X010380Y008096D02*
X013630Y008096D01*
X013630Y008214D02*
X010499Y008214D01*
X010617Y008333D02*
X013630Y008333D01*
X013630Y008451D02*
X010736Y008451D01*
X010854Y008570D02*
X013630Y008570D01*
X013630Y008688D02*
X010973Y008688D01*
X011091Y008807D02*
X013630Y008807D01*
X013630Y008925D02*
X011210Y008925D01*
X011328Y009044D02*
X013630Y009044D01*
X013630Y009162D02*
X011447Y009162D01*
X011565Y009281D02*
X013630Y009281D01*
X013630Y009399D02*
X011684Y009399D01*
X011802Y009518D02*
X013630Y009518D01*
X013630Y009636D02*
X011921Y009636D01*
X012039Y009755D02*
X013630Y009755D01*
X013630Y009873D02*
X012158Y009873D01*
X012210Y009992D02*
X013630Y009992D01*
X012530Y010110D02*
X012210Y010110D01*
X012210Y010229D02*
X012530Y010229D01*
X012530Y010347D02*
X012210Y010347D01*
X012210Y010466D02*
X012530Y010466D01*
X012530Y010584D02*
X012210Y010584D01*
X012210Y010703D02*
X012530Y010703D01*
X012530Y010821D02*
X012210Y010821D01*
X012210Y010940D02*
X012530Y010940D01*
X012530Y011058D02*
X012210Y011058D01*
X012210Y011177D02*
X012530Y011177D01*
X012530Y011295D02*
X012210Y011295D01*
X012210Y011414D02*
X012530Y011414D01*
X012530Y011532D02*
X012210Y011532D01*
X012210Y011651D02*
X012530Y011651D01*
X012530Y011769D02*
X012210Y011769D01*
X012210Y011888D02*
X012530Y011888D01*
X012530Y012006D02*
X012210Y012006D01*
X012210Y012125D02*
X012530Y012125D01*
X012530Y012243D02*
X012210Y012243D01*
X012295Y012362D02*
X012530Y012362D01*
X012530Y012480D02*
X012328Y012480D01*
X012312Y012599D02*
X012530Y012599D01*
X012530Y012717D02*
X012235Y012717D01*
X012030Y012500D02*
X012030Y010000D01*
X010030Y008000D01*
X010030Y007200D01*
X010110Y006911D02*
X013630Y006911D01*
X013630Y007029D02*
X010281Y007029D01*
X010328Y007148D02*
X013630Y007148D01*
X013630Y007266D02*
X010325Y007266D01*
X010267Y007385D02*
X013630Y007385D01*
X013630Y006792D02*
X005794Y006792D01*
X005800Y006674D02*
X013630Y006674D01*
X013630Y006555D02*
X005800Y006555D01*
X005800Y006437D02*
X013630Y006437D01*
X013630Y006318D02*
X005800Y006318D01*
X005443Y006500D02*
X005443Y007314D01*
X005630Y007500D01*
X005630Y009300D01*
X005980Y009650D01*
X007530Y009650D01*
X007950Y009636D02*
X008650Y009636D01*
X008650Y009518D02*
X007950Y009518D01*
X007873Y009399D02*
X008650Y009399D01*
X008650Y009281D02*
X007754Y009281D01*
X007704Y008990D02*
X007356Y008990D01*
X007110Y008744D01*
X007110Y008396D01*
X007356Y008150D01*
X007704Y008150D01*
X007950Y008396D01*
X007950Y008744D01*
X007704Y008990D01*
X007769Y008925D02*
X008650Y008925D01*
X008650Y008807D02*
X007887Y008807D01*
X007950Y008688D02*
X008650Y008688D01*
X008650Y008570D02*
X007950Y008570D01*
X007950Y008451D02*
X008570Y008451D01*
X008532Y008333D02*
X007886Y008333D01*
X007768Y008214D02*
X008543Y008214D01*
X008613Y008096D02*
X006950Y008096D01*
X006950Y008194D02*
X006704Y008440D01*
X006356Y008440D01*
X006110Y008194D01*
X006110Y007846D01*
X006356Y007600D01*
X006704Y007600D01*
X006950Y007846D01*
X006950Y008194D01*
X006930Y008214D02*
X007292Y008214D01*
X007174Y008333D02*
X006811Y008333D01*
X007110Y008451D02*
X005810Y008451D01*
X005810Y008333D02*
X006249Y008333D01*
X006130Y008214D02*
X005810Y008214D01*
X005810Y008096D02*
X006110Y008096D01*
X006110Y007977D02*
X005810Y007977D01*
X005810Y007859D02*
X006110Y007859D01*
X006216Y007740D02*
X005810Y007740D01*
X005810Y007622D02*
X006335Y007622D01*
X006725Y007622D02*
X007110Y007622D01*
X007110Y007654D02*
X007110Y007306D01*
X007356Y007060D01*
X007704Y007060D01*
X007950Y007306D01*
X007950Y007654D01*
X007704Y007900D01*
X007356Y007900D01*
X007110Y007654D01*
X007196Y007740D02*
X006844Y007740D01*
X006950Y007859D02*
X007315Y007859D01*
X007110Y007503D02*
X005810Y007503D01*
X005769Y007385D02*
X007110Y007385D01*
X007150Y007266D02*
X005651Y007266D01*
X005623Y007148D02*
X007269Y007148D01*
X007791Y007148D02*
X009732Y007148D01*
X009735Y007266D02*
X007910Y007266D01*
X007950Y007385D02*
X009793Y007385D01*
X009850Y007503D02*
X007950Y007503D01*
X007950Y007622D02*
X009850Y007622D01*
X009850Y007740D02*
X009681Y007740D01*
X009699Y007748D02*
X009783Y007831D01*
X009828Y007941D01*
X009828Y008060D01*
X009783Y008169D01*
X009710Y008242D01*
X009710Y010659D01*
X009783Y010731D01*
X009828Y010841D01*
X009828Y010960D01*
X009783Y011069D01*
X009699Y011153D01*
X009589Y011198D01*
X009471Y011198D01*
X009361Y011153D01*
X009277Y011069D01*
X009232Y010960D01*
X009232Y010841D01*
X009277Y010731D01*
X009350Y010659D01*
X009350Y008242D01*
X009277Y008169D01*
X009232Y008060D01*
X009232Y007941D01*
X009277Y007831D01*
X009361Y007748D01*
X009471Y007702D01*
X009589Y007702D01*
X009699Y007748D01*
X009794Y007859D02*
X009850Y007859D01*
X009850Y007977D02*
X009828Y007977D01*
X009813Y008096D02*
X009871Y008096D01*
X009989Y008214D02*
X009738Y008214D01*
X009710Y008333D02*
X010108Y008333D01*
X010226Y008451D02*
X009710Y008451D01*
X009710Y008570D02*
X010345Y008570D01*
X010463Y008688D02*
X009710Y008688D01*
X009710Y008807D02*
X009802Y008807D01*
X009738Y008925D02*
X009710Y008925D01*
X009710Y009044D02*
X009732Y009044D01*
X009710Y009162D02*
X009774Y009162D01*
X009710Y009281D02*
X009850Y009281D01*
X009850Y009399D02*
X009710Y009399D01*
X009710Y009518D02*
X009850Y009518D01*
X009850Y009636D02*
X009710Y009636D01*
X009710Y009755D02*
X009850Y009755D01*
X009850Y009873D02*
X009710Y009873D01*
X009710Y009992D02*
X009867Y009992D01*
X009950Y010110D02*
X009710Y010110D01*
X009710Y010229D02*
X009950Y010229D01*
X009950Y010347D02*
X009710Y010347D01*
X009710Y010466D02*
X009950Y010466D01*
X009950Y010584D02*
X009710Y010584D01*
X009754Y010703D02*
X009950Y010703D01*
X009950Y010821D02*
X009820Y010821D01*
X009828Y010940D02*
X009950Y010940D01*
X009950Y011058D02*
X009787Y011058D01*
X009641Y011177D02*
X009950Y011177D01*
X009950Y011295D02*
X009010Y011295D01*
X009010Y011177D02*
X009419Y011177D01*
X009273Y011058D02*
X009010Y011058D01*
X009010Y010940D02*
X009232Y010940D01*
X009240Y010821D02*
X009010Y010821D01*
X009010Y010703D02*
X009306Y010703D01*
X009350Y010584D02*
X009010Y010584D01*
X009010Y010466D02*
X009350Y010466D01*
X009350Y010347D02*
X009010Y010347D01*
X009010Y010229D02*
X009350Y010229D01*
X009350Y010110D02*
X009010Y010110D01*
X009010Y009992D02*
X009350Y009992D01*
X009350Y009873D02*
X009010Y009873D01*
X009010Y009755D02*
X009350Y009755D01*
X009350Y009636D02*
X009010Y009636D01*
X009010Y009518D02*
X009350Y009518D01*
X009350Y009399D02*
X009010Y009399D01*
X009010Y009281D02*
X009350Y009281D01*
X009350Y009162D02*
X009010Y009162D01*
X009010Y009044D02*
X009350Y009044D01*
X009350Y008925D02*
X009010Y008925D01*
X009010Y008807D02*
X009350Y008807D01*
X009350Y008688D02*
X009010Y008688D01*
X009010Y008570D02*
X009350Y008570D01*
X009350Y008451D02*
X009090Y008451D01*
X009128Y008333D02*
X009350Y008333D01*
X009322Y008214D02*
X009117Y008214D01*
X009047Y008096D02*
X009247Y008096D01*
X009232Y007977D02*
X006950Y007977D01*
X007110Y008570D02*
X005810Y008570D01*
X005810Y008688D02*
X007110Y008688D01*
X007173Y008807D02*
X006820Y008807D01*
X006939Y008925D02*
X007291Y008925D01*
X007306Y009281D02*
X006950Y009281D01*
X006950Y009162D02*
X008650Y009162D01*
X008650Y009044D02*
X006950Y009044D01*
X006835Y009399D02*
X007187Y009399D01*
X007159Y009873D02*
X006797Y009873D01*
X006915Y009992D02*
X007278Y009992D01*
X007339Y010280D02*
X007070Y010550D01*
X007070Y010700D01*
X007490Y010700D01*
X007490Y010280D01*
X007339Y010280D01*
X007272Y010347D02*
X006950Y010347D01*
X006950Y010229D02*
X008650Y010229D01*
X008650Y010347D02*
X007788Y010347D01*
X007906Y010466D02*
X008650Y010466D01*
X008650Y010584D02*
X007990Y010584D01*
X007990Y010821D02*
X008650Y010821D01*
X008650Y010703D02*
X007570Y010703D01*
X007570Y010584D02*
X007490Y010584D01*
X007490Y010466D02*
X007570Y010466D01*
X007570Y010347D02*
X007490Y010347D01*
X007154Y010466D02*
X006858Y010466D01*
X006740Y010584D02*
X007070Y010584D01*
X006950Y010110D02*
X008650Y010110D01*
X008650Y009992D02*
X007782Y009992D01*
X007901Y009873D02*
X008650Y009873D01*
X008650Y009755D02*
X007950Y009755D01*
X007981Y010940D02*
X008650Y010940D01*
X008650Y011058D02*
X007863Y011058D01*
X009010Y011414D02*
X009950Y011414D01*
X009950Y011532D02*
X009010Y011532D01*
X009010Y011769D02*
X009039Y011769D01*
X009230Y012000D02*
X009230Y018700D01*
X009130Y018800D01*
X009354Y018998D02*
X012530Y018998D01*
X012530Y019116D02*
X009010Y019116D01*
X009010Y019235D02*
X012530Y019235D01*
X012530Y019353D02*
X009010Y019353D01*
X009010Y019472D02*
X012530Y019472D01*
X012530Y019590D02*
X009010Y019590D01*
X009010Y019709D02*
X012530Y019709D01*
X012530Y019827D02*
X009010Y019827D01*
X009010Y019946D02*
X012530Y019946D01*
X012530Y020064D02*
X009010Y020064D01*
X009010Y020420D02*
X012089Y020420D01*
X012033Y020538D02*
X009010Y020538D01*
X009010Y020657D02*
X012032Y020657D01*
X012083Y020775D02*
X009010Y020775D01*
X009010Y020894D02*
X012260Y020894D01*
X012400Y020894D02*
X012530Y020894D01*
X012530Y021012D02*
X009010Y021012D01*
X009010Y021131D02*
X012530Y021131D01*
X012530Y021249D02*
X009010Y021249D01*
X009010Y021368D02*
X012530Y021368D01*
X012530Y021486D02*
X009010Y021486D01*
X009010Y021605D02*
X014030Y021605D01*
X014030Y021723D02*
X009010Y021723D01*
X009010Y021842D02*
X014030Y021842D01*
X014030Y021960D02*
X009010Y021960D01*
X009010Y022079D02*
X014030Y022079D01*
X014030Y022197D02*
X009049Y022197D01*
X009118Y022316D02*
X014030Y022316D01*
X014030Y022434D02*
X009128Y022434D01*
X009089Y022553D02*
X014030Y022553D01*
X014030Y022671D02*
X008955Y022671D01*
X008650Y020894D02*
X007750Y020894D01*
X007869Y020775D02*
X008650Y020775D01*
X008650Y020657D02*
X007950Y020657D01*
X007950Y020538D02*
X008650Y020538D01*
X008650Y020420D02*
X007950Y020420D01*
X007905Y020301D02*
X008650Y020301D01*
X008650Y020183D02*
X007787Y020183D01*
X007727Y019827D02*
X008650Y019827D01*
X008650Y019709D02*
X007845Y019709D01*
X007950Y019590D02*
X008650Y019590D01*
X008650Y019472D02*
X007950Y019472D01*
X007950Y019353D02*
X008650Y019353D01*
X008650Y019235D02*
X007929Y019235D01*
X007810Y019116D02*
X008650Y019116D01*
X008650Y018998D02*
X006950Y018998D01*
X006898Y019116D02*
X007250Y019116D01*
X007110Y019472D02*
X004190Y019472D01*
X004190Y019590D02*
X006326Y019590D01*
X006207Y019709D02*
X004190Y019709D01*
X004190Y019827D02*
X006110Y019827D01*
X006110Y019946D02*
X004190Y019946D01*
X004190Y020064D02*
X006110Y020064D01*
X006139Y020183D02*
X004190Y020183D01*
X004190Y020301D02*
X006257Y020301D01*
X008455Y017080D02*
X008455Y017080D01*
X008830Y016700D02*
X009030Y016500D01*
X009030Y013900D01*
X008830Y013700D01*
X008830Y013200D02*
X008830Y008300D01*
X009266Y007859D02*
X007745Y007859D01*
X007864Y007740D02*
X009379Y007740D01*
X009530Y008000D02*
X009530Y010900D01*
X010130Y010000D02*
X010130Y015700D01*
X010330Y015900D02*
X010330Y009900D01*
X010430Y009800D01*
X010527Y009518D02*
X011293Y009518D01*
X011411Y009636D02*
X010685Y009636D01*
X010728Y009755D02*
X011530Y009755D01*
X011648Y009873D02*
X010722Y009873D01*
X010660Y009992D02*
X011767Y009992D01*
X011850Y010110D02*
X010510Y010110D01*
X010510Y010229D02*
X011850Y010229D01*
X011850Y010347D02*
X010510Y010347D01*
X010510Y010466D02*
X011850Y010466D01*
X011850Y010584D02*
X010510Y010584D01*
X010510Y010703D02*
X011850Y010703D01*
X011850Y010821D02*
X010510Y010821D01*
X010510Y010940D02*
X011580Y010940D01*
X011466Y011058D02*
X010510Y011058D01*
X010510Y011177D02*
X011432Y011177D01*
X011447Y011295D02*
X010510Y011295D01*
X010510Y011414D02*
X011522Y011414D01*
X011550Y011532D02*
X010510Y011532D01*
X010510Y011651D02*
X011550Y011651D01*
X011550Y011769D02*
X010510Y011769D01*
X010510Y011888D02*
X011550Y011888D01*
X011550Y012006D02*
X010510Y012006D01*
X010510Y012125D02*
X011550Y012125D01*
X011550Y012243D02*
X010510Y012243D01*
X010510Y012362D02*
X011550Y012362D01*
X011550Y012480D02*
X010510Y012480D01*
X010510Y012599D02*
X011550Y012599D01*
X011550Y012717D02*
X010510Y012717D01*
X010510Y012836D02*
X011550Y012836D01*
X011550Y012954D02*
X010510Y012954D01*
X010510Y013073D02*
X011550Y013073D01*
X011550Y013191D02*
X010510Y013191D01*
X010510Y013310D02*
X011550Y013310D01*
X011550Y013428D02*
X010510Y013428D01*
X010510Y013547D02*
X011550Y013547D01*
X011550Y013665D02*
X010510Y013665D01*
X010510Y013784D02*
X011550Y013784D01*
X011550Y013902D02*
X010510Y013902D01*
X010510Y014021D02*
X011550Y014021D01*
X011550Y014139D02*
X010510Y014139D01*
X010510Y014258D02*
X011550Y014258D01*
X011550Y014376D02*
X010510Y014376D01*
X010510Y014495D02*
X011481Y014495D01*
X011362Y014613D02*
X010510Y014613D01*
X010510Y014732D02*
X011244Y014732D01*
X011125Y014850D02*
X010510Y014850D01*
X010510Y014969D02*
X011007Y014969D01*
X010888Y015087D02*
X010510Y015087D01*
X010510Y015206D02*
X010662Y015206D01*
X010730Y015500D02*
X011730Y014500D01*
X011730Y011200D01*
X010130Y010000D02*
X010030Y009900D01*
X010030Y009000D01*
X010258Y008807D02*
X010582Y008807D01*
X010700Y008925D02*
X010322Y008925D01*
X010328Y009044D02*
X010819Y009044D01*
X010937Y009162D02*
X010286Y009162D01*
X010210Y009281D02*
X011056Y009281D01*
X011174Y009399D02*
X010210Y009399D01*
X010210Y009518D02*
X010333Y009518D01*
X009779Y007029D02*
X005623Y007029D01*
X005623Y006911D02*
X009950Y006911D01*
X010114Y005490D02*
X010073Y005479D01*
X010036Y005458D01*
X010007Y005428D01*
X009986Y005392D01*
X009975Y005351D01*
X009975Y005134D01*
X010370Y005134D01*
X010370Y005490D01*
X010114Y005490D01*
X010108Y005489D02*
X007865Y005489D01*
X007960Y005370D02*
X009980Y005370D01*
X009975Y005252D02*
X008028Y005252D01*
X008084Y005133D02*
X010370Y005133D01*
X010370Y005015D02*
X008116Y005015D01*
X008148Y004896D02*
X009975Y004896D01*
X009980Y004778D02*
X008150Y004778D01*
X008150Y004659D02*
X010042Y004659D01*
X010015Y004541D02*
X008136Y004541D01*
X008104Y004422D02*
X010015Y004422D01*
X010015Y004304D02*
X008071Y004304D01*
X008003Y004185D02*
X010015Y004185D01*
X010015Y004067D02*
X007934Y004067D01*
X007822Y003948D02*
X010190Y003948D01*
X010161Y003830D02*
X007693Y003830D01*
X007488Y003711D02*
X010132Y003711D01*
X010370Y005252D02*
X010490Y005252D01*
X010490Y005370D02*
X010370Y005370D01*
X010370Y005489D02*
X010490Y005489D01*
X007747Y005607D02*
X013452Y005607D01*
X013534Y005726D02*
X007563Y005726D01*
X005450Y007622D02*
X005210Y007622D01*
X005210Y007740D02*
X005450Y007740D01*
X005445Y007859D02*
X005450Y007859D01*
X005445Y007977D02*
X005450Y007977D01*
X005445Y008096D02*
X005450Y008096D01*
X005445Y008214D02*
X005450Y008214D01*
X005445Y008333D02*
X005450Y008333D01*
X005450Y008451D02*
X005426Y008451D01*
X005445Y008570D02*
X005450Y008570D01*
X005445Y008688D02*
X005450Y008688D01*
X005445Y008807D02*
X005450Y008807D01*
X005445Y008925D02*
X005450Y008925D01*
X005445Y009044D02*
X005450Y009044D01*
X005445Y009162D02*
X005450Y009162D01*
X005450Y009281D02*
X005210Y009281D01*
X005210Y009399D02*
X005474Y009399D01*
X005593Y009518D02*
X005210Y009518D01*
X005210Y009636D02*
X005711Y009636D01*
X005830Y009755D02*
X005210Y009755D01*
X005210Y009873D02*
X006263Y009873D01*
X006145Y009992D02*
X005210Y009992D01*
X005210Y010110D02*
X006110Y010110D01*
X006110Y010229D02*
X005210Y010229D01*
X005210Y010347D02*
X006110Y010347D01*
X006202Y010466D02*
X005210Y010466D01*
X005210Y010584D02*
X006320Y010584D01*
X006277Y010940D02*
X005210Y010940D01*
X005210Y011058D02*
X006158Y011058D01*
X006110Y011177D02*
X005261Y011177D01*
X005380Y011295D02*
X006110Y011295D01*
X006110Y011414D02*
X005498Y011414D01*
X005617Y011532D02*
X006188Y011532D01*
X006182Y012125D02*
X004190Y012125D01*
X004190Y012243D02*
X006110Y012243D01*
X006110Y012362D02*
X004190Y012362D01*
X004190Y012480D02*
X006110Y012480D01*
X006165Y012599D02*
X004190Y012599D01*
X004190Y012717D02*
X006283Y012717D01*
X006324Y013073D02*
X004190Y013073D01*
X004190Y013191D02*
X006205Y013191D01*
X006110Y013310D02*
X004190Y013310D01*
X004190Y013428D02*
X006110Y013428D01*
X006110Y013547D02*
X004190Y013547D01*
X004190Y013665D02*
X006141Y013665D01*
X006260Y013784D02*
X004190Y013784D01*
X004190Y013902D02*
X007110Y013902D01*
X007194Y014258D02*
X006841Y014258D01*
X007765Y014732D02*
X008362Y014732D01*
X008377Y014769D02*
X008332Y014660D01*
X008377Y014769D02*
X008458Y014850D01*
X008630Y014600D02*
X008330Y014300D01*
X008330Y013200D01*
X009530Y013300D02*
X009530Y015800D01*
X009450Y016154D02*
X009410Y016154D01*
X009410Y016272D02*
X009450Y016272D01*
X009450Y016391D02*
X009410Y016391D01*
X009410Y016509D02*
X009450Y016509D01*
X009450Y016628D02*
X009410Y016628D01*
X009410Y016746D02*
X009450Y016746D01*
X009450Y016865D02*
X009410Y016865D01*
X009410Y016983D02*
X009450Y016983D01*
X009450Y017102D02*
X009410Y017102D01*
X009410Y017220D02*
X009450Y017220D01*
X009450Y017339D02*
X009410Y017339D01*
X009410Y017457D02*
X009450Y017457D01*
X009450Y017576D02*
X009410Y017576D01*
X009410Y017694D02*
X009450Y017694D01*
X009450Y017813D02*
X009410Y017813D01*
X009410Y017931D02*
X009506Y017931D01*
X009410Y018050D02*
X009625Y018050D01*
X009743Y018168D02*
X009410Y018168D01*
X009410Y018287D02*
X009780Y018287D01*
X009840Y018405D02*
X009410Y018405D01*
X009410Y018524D02*
X011399Y018524D01*
X011350Y018405D02*
X011220Y018405D01*
X011280Y018287D02*
X011350Y018287D01*
X011710Y018287D02*
X011935Y018287D01*
X011935Y018405D02*
X011790Y018405D01*
X011908Y018524D02*
X011987Y018524D01*
X011754Y018879D02*
X009420Y018879D01*
X009428Y018761D02*
X011636Y018761D01*
X011517Y018642D02*
X009410Y018642D01*
X009810Y017576D02*
X012530Y017576D01*
X012530Y017694D02*
X011280Y017694D01*
X011280Y017813D02*
X012530Y017813D01*
X012530Y017931D02*
X011616Y017931D01*
X011710Y018050D02*
X011961Y018050D01*
X011935Y018168D02*
X011710Y018168D01*
X012430Y018250D02*
X012780Y018250D01*
X012710Y019235D02*
X015041Y019235D01*
X014922Y019353D02*
X012710Y019353D01*
X012710Y019472D02*
X014804Y019472D01*
X014685Y019590D02*
X012710Y019590D01*
X012710Y020894D02*
X023161Y020894D01*
X023161Y021012D02*
X012710Y021012D01*
X012710Y021131D02*
X023161Y021131D01*
X023161Y021249D02*
X012710Y021249D01*
X014152Y021368D02*
X023161Y021368D01*
X023161Y021486D02*
X014210Y021486D01*
X014210Y021605D02*
X023161Y021605D01*
X023161Y021723D02*
X014210Y021723D01*
X014210Y021842D02*
X023161Y021842D01*
X023161Y021960D02*
X014210Y021960D01*
X014210Y022079D02*
X023161Y022079D01*
X023161Y022197D02*
X014210Y022197D01*
X014210Y022316D02*
X017545Y022316D01*
X017510Y022351D02*
X017580Y022280D01*
X022980Y022280D01*
X023050Y022351D01*
X023050Y022450D01*
X023050Y024351D01*
X023050Y024450D01*
X022980Y024520D01*
X017580Y024520D01*
X017510Y024450D01*
X017510Y022351D01*
X017510Y022434D02*
X014210Y022434D01*
X014210Y022553D02*
X017510Y022553D01*
X017510Y022671D02*
X014210Y022671D01*
X014210Y022790D02*
X017510Y022790D01*
X017510Y022908D02*
X014210Y022908D01*
X014210Y023027D02*
X017510Y023027D01*
X017510Y023145D02*
X014210Y023145D01*
X014210Y023264D02*
X017510Y023264D01*
X017510Y023382D02*
X014210Y023382D01*
X014210Y023501D02*
X017510Y023501D01*
X017510Y023619D02*
X014210Y023619D01*
X014210Y023738D02*
X017510Y023738D01*
X017510Y023856D02*
X014210Y023856D01*
X014210Y023975D02*
X017510Y023975D01*
X017510Y024093D02*
X014210Y024093D01*
X014210Y024212D02*
X017510Y024212D01*
X017510Y024330D02*
X014210Y024330D01*
X014210Y024449D02*
X017510Y024449D01*
X014210Y024567D02*
X023161Y024567D01*
X023161Y024449D02*
X023050Y024449D01*
X023050Y024330D02*
X023161Y024330D01*
X023161Y024212D02*
X023050Y024212D01*
X023050Y024093D02*
X023161Y024093D01*
X023161Y023975D02*
X023050Y023975D01*
X023050Y023856D02*
X023161Y023856D01*
X023161Y023738D02*
X023050Y023738D01*
X023050Y023619D02*
X023161Y023619D01*
X023161Y023501D02*
X023050Y023501D01*
X023050Y023382D02*
X023161Y023382D01*
X023161Y023264D02*
X023050Y023264D01*
X023050Y023145D02*
X023161Y023145D01*
X023161Y023027D02*
X023050Y023027D01*
X023050Y022908D02*
X023161Y022908D01*
X023161Y022790D02*
X023050Y022790D01*
X023050Y022671D02*
X023161Y022671D01*
X023161Y022553D02*
X023050Y022553D01*
X023050Y022434D02*
X023161Y022434D01*
X023161Y022316D02*
X023015Y022316D01*
X020850Y017457D02*
X018342Y017457D01*
X018223Y017339D02*
X020850Y017339D01*
X022149Y016865D02*
X023161Y016865D01*
X023161Y016983D02*
X022268Y016983D01*
X021730Y011300D02*
X022230Y010800D01*
X022230Y008100D01*
X019930Y005800D01*
X019630Y005800D01*
X019530Y005700D01*
X019445Y005370D02*
X019226Y005370D01*
X019330Y005000D02*
X019030Y005000D01*
X019404Y007029D02*
X014423Y007029D01*
X012530Y012836D02*
X011910Y012836D01*
X011910Y012954D02*
X012530Y012954D01*
X012530Y013073D02*
X011910Y013073D01*
X011910Y013191D02*
X012530Y013191D01*
X012530Y013310D02*
X011910Y013310D01*
X011910Y013428D02*
X012530Y013428D01*
X012530Y013547D02*
X011910Y013547D01*
X011910Y013665D02*
X012530Y013665D01*
X012530Y013784D02*
X011910Y013784D01*
X011910Y013902D02*
X012530Y013902D01*
X012530Y014021D02*
X011910Y014021D01*
X011910Y014139D02*
X012530Y014139D01*
X012530Y014258D02*
X011910Y014258D01*
X011910Y014376D02*
X012530Y014376D01*
X012530Y014495D02*
X011910Y014495D01*
X011872Y014613D02*
X012530Y014613D01*
X012530Y014732D02*
X011753Y014732D01*
X011635Y014850D02*
X012530Y014850D01*
X012530Y014969D02*
X011516Y014969D01*
X011398Y015087D02*
X012530Y015087D01*
X012530Y015206D02*
X011279Y015206D01*
X011317Y015324D02*
X011161Y015324D01*
X011173Y015443D02*
X011042Y015443D01*
X011027Y015561D02*
X011132Y015561D01*
X011140Y015680D02*
X010972Y015680D01*
X010789Y015798D02*
X011206Y015798D01*
X010671Y015798D02*
X010510Y015798D01*
X010330Y015900D02*
X010156Y016074D01*
X010156Y016700D01*
X010475Y017102D02*
X010585Y017102D01*
X010904Y016700D02*
X011430Y016700D01*
X011980Y017250D01*
X012430Y017250D01*
X011993Y016983D02*
X011968Y016983D01*
X011935Y016865D02*
X011849Y016865D01*
X011935Y016746D02*
X011731Y016746D01*
X011612Y016628D02*
X011935Y016628D01*
X011577Y017102D02*
X011223Y017102D01*
X011280Y016983D02*
X011458Y016983D01*
X011695Y017220D02*
X009810Y017220D01*
X009810Y017102D02*
X009837Y017102D01*
X009810Y017339D02*
X011814Y017339D01*
X011967Y017457D02*
X009810Y017457D01*
X011543Y015324D02*
X012530Y015324D01*
X012827Y015443D02*
X015833Y015443D01*
X015714Y015561D02*
X012946Y015561D01*
X012730Y015900D02*
X012830Y016000D01*
X016030Y016000D01*
X016130Y015900D01*
X015786Y017102D02*
X016674Y017102D01*
X015396Y018879D02*
X015165Y018879D01*
X014633Y018879D02*
X014627Y018879D01*
X014627Y018761D02*
X014633Y018761D01*
X014627Y018998D02*
X014633Y018998D01*
X012468Y016154D02*
X012297Y016154D01*
X012130Y015900D02*
X012730Y015900D01*
X006225Y009399D02*
X005984Y009399D01*
X005865Y009281D02*
X006110Y009281D01*
X006110Y009162D02*
X005810Y009162D01*
X005810Y009044D02*
X006110Y009044D01*
X006121Y008925D02*
X005810Y008925D01*
X005810Y008807D02*
X006240Y008807D01*
X005030Y008874D02*
X005030Y011200D01*
X005107Y011532D02*
X004190Y011532D01*
X004190Y011651D02*
X005226Y011651D01*
X005344Y011769D02*
X004190Y011769D01*
X004190Y011888D02*
X005463Y011888D01*
X005581Y012006D02*
X004190Y012006D01*
X005030Y008126D02*
X005030Y007400D01*
X004617Y006987D01*
X004617Y006500D01*
X004797Y006911D02*
X005263Y006911D01*
X005263Y007029D02*
X004914Y007029D01*
X005032Y007148D02*
X005263Y007148D01*
X005263Y007266D02*
X005151Y007266D01*
X005210Y007385D02*
X005263Y007385D01*
X005210Y007503D02*
X005378Y007503D01*
X005093Y006792D02*
X004967Y006792D01*
X004973Y006674D02*
X005087Y006674D01*
X005087Y006555D02*
X004973Y006555D01*
X004973Y006437D02*
X005087Y006437D01*
X005087Y006318D02*
X004973Y006318D01*
X021130Y009800D02*
X021230Y009700D01*
X021230Y008600D01*
X014030Y024449D02*
X004190Y024449D01*
X004190Y024567D02*
X014030Y024567D01*
D21*
X014230Y006800D02*
X014504Y006526D01*
X015804Y006526D01*
X016530Y005800D01*
X016030Y004000D02*
X015330Y003300D01*
X010830Y003300D01*
X010430Y003700D01*
X010430Y004326D01*
X012830Y004326D02*
X012830Y003700D01*
X013730Y005500D02*
X013756Y005526D01*
M02*
