G75*
%MOIN*%
%OFA0B0*%
%FSLAX24Y24*%
%IPPOS*%
%LPD*%
%AMOC8*
5,1,8,0,0,1.08239X$1,22.5*
%
%ADD10C,0.0000*%
%ADD11C,0.0080*%
%ADD12C,0.0030*%
%ADD13C,0.0040*%
%ADD14C,0.0060*%
%ADD15C,0.0020*%
%ADD16C,0.0079*%
%ADD17R,0.0059X0.0118*%
%ADD18R,0.0118X0.0118*%
%ADD19C,0.0050*%
%ADD20R,0.0950X0.0100*%
%ADD21R,0.0650X0.0400*%
%ADD22R,0.0200X2.0900*%
%ADD23R,0.0300X1.6000*%
%ADD24R,0.2850X0.0320*%
%ADD25R,0.1850X0.0320*%
D10*
X004030Y003000D02*
X004030Y024792D01*
X023321Y024792D01*
X023321Y003000D01*
X004030Y003000D01*
D11*
X012093Y003762D02*
X012093Y000140D01*
X014192Y000140D01*
X014192Y000522D01*
X014774Y000522D01*
X014774Y000140D01*
X016789Y000140D01*
X018271Y000140D01*
X019192Y000140D01*
X019192Y000522D01*
X019774Y000522D01*
X019774Y000140D01*
X022967Y000140D01*
X022967Y003762D01*
X021572Y003762D01*
X021032Y001205D02*
X021534Y000191D01*
X020530Y000191D01*
X021032Y001205D01*
X021027Y001195D02*
X021037Y001195D01*
X021076Y001116D02*
X020988Y001116D01*
X020949Y001038D02*
X021115Y001038D01*
X021154Y000959D02*
X020910Y000959D01*
X020871Y000881D02*
X021193Y000881D01*
X021231Y000802D02*
X020833Y000802D01*
X020794Y000724D02*
X021270Y000724D01*
X021309Y000645D02*
X020755Y000645D01*
X020716Y000567D02*
X021348Y000567D01*
X021387Y000488D02*
X020677Y000488D01*
X020638Y000410D02*
X021426Y000410D01*
X021465Y000331D02*
X020599Y000331D01*
X020560Y000253D02*
X021503Y000253D01*
X019774Y000140D02*
X019192Y000140D01*
X018271Y000140D02*
X018271Y002921D01*
X016789Y002921D01*
X016789Y000140D01*
X014774Y000140D02*
X014192Y000140D01*
X013493Y003762D02*
X012093Y003762D01*
X013288Y006440D02*
X013288Y007360D01*
X013494Y007360D01*
X014772Y007360D01*
X014772Y006440D01*
X013288Y006440D01*
X013494Y006450D02*
X013494Y007360D01*
X013494Y007550D02*
X013494Y008460D01*
X013288Y008460D01*
X013288Y007540D01*
X014772Y007540D01*
X014772Y008460D01*
X013494Y008460D01*
X013494Y010050D02*
X013494Y011960D01*
X013288Y011960D01*
X013288Y010040D01*
X014772Y010040D01*
X014772Y011960D01*
X013494Y011960D01*
X013494Y013050D02*
X013494Y014960D01*
X013288Y014960D01*
X013288Y013040D01*
X014772Y013040D01*
X014772Y014960D01*
X013494Y014960D01*
X013288Y022040D02*
X014566Y022040D01*
X014772Y022040D01*
X014772Y022960D01*
X013288Y022960D01*
X013288Y022040D01*
X014566Y022040D02*
X014566Y022950D01*
D12*
X014360Y023115D02*
X014113Y023115D01*
X014360Y023362D01*
X014360Y023424D01*
X014298Y023486D01*
X014175Y023486D01*
X014113Y023424D01*
X013992Y023486D02*
X013992Y023177D01*
X013930Y023115D01*
X013807Y023115D01*
X013745Y023177D01*
X013745Y023486D01*
X013807Y021786D02*
X013745Y021724D01*
X013745Y021477D01*
X013807Y021415D01*
X013930Y021415D01*
X013992Y021477D01*
X014113Y021415D02*
X014360Y021662D01*
X014360Y021724D01*
X014298Y021786D01*
X014175Y021786D01*
X014113Y021724D01*
X013992Y021724D02*
X013930Y021786D01*
X013807Y021786D01*
X014113Y021415D02*
X014360Y021415D01*
X016845Y022815D02*
X016845Y023186D01*
X017030Y023186D01*
X017092Y023124D01*
X017092Y023000D01*
X017030Y022939D01*
X016845Y022939D01*
X016968Y022939D02*
X017092Y022815D01*
X017213Y022815D02*
X017460Y022815D01*
X017337Y022815D02*
X017337Y023186D01*
X017213Y023062D01*
X019545Y022670D02*
X019915Y022670D01*
X019915Y022547D02*
X019915Y022794D01*
X019668Y022547D02*
X019545Y022670D01*
X019606Y022425D02*
X019545Y022364D01*
X019545Y022179D01*
X019915Y022179D01*
X019915Y022364D01*
X019853Y022425D01*
X019606Y022425D01*
X019545Y022057D02*
X019545Y021810D01*
X019915Y021810D01*
X019915Y022057D01*
X019730Y021934D02*
X019730Y021810D01*
X019915Y021689D02*
X019915Y021442D01*
X019545Y021442D01*
X019606Y020944D02*
X019668Y020944D01*
X019730Y020882D01*
X019730Y020759D01*
X019668Y020697D01*
X019606Y020697D01*
X019545Y020759D01*
X019545Y020882D01*
X019606Y020944D01*
X019730Y020882D02*
X019792Y020944D01*
X019853Y020944D01*
X019915Y020882D01*
X019915Y020759D01*
X019853Y020697D01*
X019792Y020697D01*
X019730Y020759D01*
X019730Y020575D02*
X019792Y020514D01*
X019792Y020329D01*
X019915Y020329D02*
X019545Y020329D01*
X019545Y020514D01*
X019606Y020575D01*
X019730Y020575D01*
X019792Y020452D02*
X019915Y020575D01*
X018417Y018986D02*
X018479Y018924D01*
X018232Y018677D01*
X018293Y018615D01*
X018417Y018615D01*
X018479Y018677D01*
X018479Y018924D01*
X018417Y018986D02*
X018293Y018986D01*
X018232Y018924D01*
X018232Y018677D01*
X018110Y018615D02*
X017863Y018615D01*
X017742Y018615D02*
X017618Y018739D01*
X017680Y018739D02*
X017495Y018739D01*
X017495Y018615D02*
X017495Y018986D01*
X017680Y018986D01*
X017742Y018924D01*
X017742Y018800D01*
X017680Y018739D01*
X017863Y018862D02*
X017987Y018986D01*
X017987Y018615D01*
X019245Y018577D02*
X019307Y018515D01*
X019430Y018515D01*
X019492Y018577D01*
X019613Y018515D02*
X019860Y018515D01*
X019737Y018515D02*
X019737Y018886D01*
X019613Y018762D01*
X019492Y018824D02*
X019430Y018886D01*
X019307Y018886D01*
X019245Y018824D01*
X019245Y018577D01*
X020695Y018086D02*
X020695Y017715D01*
X020695Y017839D02*
X020880Y017839D01*
X020942Y017900D01*
X020942Y018024D01*
X020880Y018086D01*
X020695Y018086D01*
X020818Y017839D02*
X020942Y017715D01*
X021063Y017715D02*
X021310Y017715D01*
X021432Y017715D02*
X021679Y017715D01*
X021555Y017715D02*
X021555Y018086D01*
X021432Y017962D01*
X021187Y018086D02*
X021187Y017715D01*
X021063Y017962D02*
X021187Y018086D01*
X021144Y016086D02*
X020958Y016086D01*
X020958Y015715D01*
X020958Y015839D02*
X021144Y015839D01*
X021205Y015900D01*
X021205Y016024D01*
X021144Y016086D01*
X021082Y015839D02*
X021205Y015715D01*
X021327Y015777D02*
X021388Y015715D01*
X021512Y015715D01*
X021574Y015777D01*
X021574Y015839D01*
X021512Y015900D01*
X021327Y015900D01*
X021327Y015777D01*
X021327Y015900D02*
X021450Y016024D01*
X021574Y016086D01*
X021417Y015286D02*
X021293Y015286D01*
X021232Y015224D01*
X021232Y014977D01*
X021479Y015224D01*
X021479Y014977D01*
X021417Y014915D01*
X021293Y014915D01*
X021232Y014977D01*
X021110Y014915D02*
X020863Y014915D01*
X021110Y015162D01*
X021110Y015224D01*
X021048Y015286D01*
X020925Y015286D01*
X020863Y015224D01*
X020742Y015224D02*
X020742Y015100D01*
X020680Y015039D01*
X020495Y015039D01*
X020618Y015039D02*
X020742Y014915D01*
X020495Y014915D02*
X020495Y015286D01*
X020680Y015286D01*
X020742Y015224D01*
X021417Y015286D02*
X021479Y015224D01*
X021312Y013086D02*
X021188Y013086D01*
X021127Y013024D01*
X021005Y013024D02*
X020944Y013086D01*
X020820Y013086D01*
X020758Y013024D01*
X020637Y013024D02*
X020637Y012900D01*
X020575Y012839D01*
X020390Y012839D01*
X020513Y012839D02*
X020637Y012715D01*
X020758Y012715D02*
X021005Y012962D01*
X021005Y013024D01*
X021312Y013086D02*
X021374Y013024D01*
X021374Y012962D01*
X021127Y012715D01*
X021374Y012715D01*
X021005Y012715D02*
X020758Y012715D01*
X020820Y012286D02*
X020758Y012224D01*
X020820Y012286D02*
X020944Y012286D01*
X021005Y012224D01*
X021005Y012162D01*
X020758Y011915D01*
X021005Y011915D01*
X021127Y012100D02*
X021374Y012100D01*
X021312Y011915D02*
X021312Y012286D01*
X021127Y012100D01*
X020637Y012100D02*
X020575Y012039D01*
X020390Y012039D01*
X020513Y012039D02*
X020637Y011915D01*
X020637Y012100D02*
X020637Y012224D01*
X020575Y012286D01*
X020390Y012286D01*
X020390Y011915D01*
X020390Y012715D02*
X020390Y013086D01*
X020575Y013086D01*
X020637Y013024D01*
X019129Y012415D02*
X018882Y012415D01*
X018760Y012415D02*
X018513Y012415D01*
X018637Y012415D02*
X018637Y012786D01*
X018513Y012662D01*
X018392Y012724D02*
X018330Y012786D01*
X018207Y012786D01*
X018145Y012724D01*
X018145Y012477D01*
X018207Y012415D01*
X018330Y012415D01*
X018392Y012477D01*
X018882Y012662D02*
X019005Y012786D01*
X019005Y012415D01*
X017679Y012477D02*
X017679Y012539D01*
X017617Y012600D01*
X017432Y012600D01*
X017432Y012477D01*
X017493Y012415D01*
X017617Y012415D01*
X017679Y012477D01*
X017432Y012600D02*
X017555Y012724D01*
X017679Y012786D01*
X017187Y012786D02*
X017187Y012415D01*
X017310Y012415D02*
X017063Y012415D01*
X016942Y012415D02*
X016818Y012539D01*
X016880Y012539D02*
X016695Y012539D01*
X016695Y012415D02*
X016695Y012786D01*
X016880Y012786D01*
X016942Y012724D01*
X016942Y012600D01*
X016880Y012539D01*
X017063Y012662D02*
X017187Y012786D01*
X016479Y012786D02*
X016232Y012786D01*
X016232Y012600D01*
X016355Y012662D01*
X016417Y012662D01*
X016479Y012600D01*
X016479Y012477D01*
X016417Y012415D01*
X016293Y012415D01*
X016232Y012477D01*
X016110Y012415D02*
X015863Y012415D01*
X015742Y012415D02*
X015618Y012539D01*
X015680Y012539D02*
X015495Y012539D01*
X015495Y012415D02*
X015495Y012786D01*
X015680Y012786D01*
X015742Y012724D01*
X015742Y012600D01*
X015680Y012539D01*
X015863Y012662D02*
X015987Y012786D01*
X015987Y012415D01*
X015942Y013615D02*
X015818Y013739D01*
X015880Y013739D02*
X015695Y013739D01*
X015695Y013615D02*
X015695Y013986D01*
X015880Y013986D01*
X015942Y013924D01*
X015942Y013800D01*
X015880Y013739D01*
X016063Y013862D02*
X016187Y013986D01*
X016187Y013615D01*
X016310Y013615D02*
X016063Y013615D01*
X016432Y013677D02*
X016493Y013615D01*
X016617Y013615D01*
X016679Y013677D01*
X016679Y013739D01*
X016617Y013800D01*
X016555Y013800D01*
X016617Y013800D02*
X016679Y013862D01*
X016679Y013924D01*
X016617Y013986D01*
X016493Y013986D01*
X016432Y013924D01*
X017245Y015465D02*
X017245Y015650D01*
X017306Y015712D01*
X017430Y015712D01*
X017492Y015650D01*
X017492Y015465D01*
X017615Y015465D02*
X017245Y015465D01*
X017492Y015589D02*
X017615Y015712D01*
X017615Y015834D02*
X017615Y016080D01*
X017615Y015957D02*
X017245Y015957D01*
X017368Y015834D01*
X017430Y016202D02*
X017430Y016449D01*
X017615Y016387D02*
X017245Y016387D01*
X017430Y016202D01*
X018245Y015724D02*
X018245Y015477D01*
X018307Y015415D01*
X018430Y015415D01*
X018492Y015477D01*
X018613Y015415D02*
X018860Y015415D01*
X018737Y015415D02*
X018737Y015786D01*
X018613Y015662D01*
X018492Y015724D02*
X018430Y015786D01*
X018307Y015786D01*
X018245Y015724D01*
X018982Y015724D02*
X019043Y015786D01*
X019167Y015786D01*
X019229Y015724D01*
X018982Y015477D01*
X019043Y015415D01*
X019167Y015415D01*
X019229Y015477D01*
X019229Y015724D01*
X018982Y015724D02*
X018982Y015477D01*
X016615Y017665D02*
X016245Y017665D01*
X016245Y017850D01*
X016306Y017912D01*
X016430Y017912D01*
X016492Y017850D01*
X016492Y017665D01*
X016492Y017789D02*
X016615Y017912D01*
X016553Y018034D02*
X016615Y018095D01*
X016615Y018219D01*
X016553Y018280D01*
X016430Y018280D01*
X016368Y018219D01*
X016368Y018157D01*
X016430Y018034D01*
X016245Y018034D01*
X016245Y018280D01*
X014998Y016186D02*
X015060Y016124D01*
X015060Y016062D01*
X014998Y016000D01*
X014875Y016000D01*
X014813Y016062D01*
X014813Y016124D01*
X014875Y016186D01*
X014998Y016186D01*
X014998Y016000D02*
X015060Y015939D01*
X015060Y015877D01*
X014998Y015815D01*
X014875Y015815D01*
X014813Y015877D01*
X014813Y015939D01*
X014875Y016000D01*
X014692Y015877D02*
X014630Y015815D01*
X014507Y015815D01*
X014445Y015877D01*
X014445Y016124D01*
X014507Y016186D01*
X014630Y016186D01*
X014692Y016124D01*
X013960Y015486D02*
X013960Y015424D01*
X013713Y015177D01*
X013713Y015115D01*
X013592Y015177D02*
X013592Y015486D01*
X013713Y015486D02*
X013960Y015486D01*
X013592Y015177D02*
X013530Y015115D01*
X013407Y015115D01*
X013345Y015177D01*
X013345Y015486D01*
X010874Y014224D02*
X010874Y013977D01*
X010812Y013915D01*
X010688Y013915D01*
X010627Y013977D01*
X010505Y013915D02*
X010258Y013915D01*
X010137Y013915D02*
X010013Y014039D01*
X010075Y014039D02*
X009890Y014039D01*
X009890Y013915D02*
X009890Y014286D01*
X010075Y014286D01*
X010137Y014224D01*
X010137Y014100D01*
X010075Y014039D01*
X010258Y014162D02*
X010382Y014286D01*
X010382Y013915D01*
X010627Y014162D02*
X010688Y014100D01*
X010874Y014100D01*
X010874Y014224D02*
X010812Y014286D01*
X010688Y014286D01*
X010627Y014224D01*
X010627Y014162D01*
X010750Y012886D02*
X010750Y012515D01*
X010627Y012515D02*
X010874Y012515D01*
X010627Y012762D02*
X010750Y012886D01*
X010505Y012824D02*
X010444Y012886D01*
X010320Y012886D01*
X010258Y012824D01*
X010137Y012824D02*
X010137Y012700D01*
X010075Y012639D01*
X009890Y012639D01*
X010013Y012639D02*
X010137Y012515D01*
X010258Y012515D02*
X010505Y012762D01*
X010505Y012824D01*
X010505Y012515D02*
X010258Y012515D01*
X010137Y012824D02*
X010075Y012886D01*
X009890Y012886D01*
X009890Y012515D01*
X009890Y011586D02*
X010075Y011586D01*
X010137Y011524D01*
X010137Y011400D01*
X010075Y011339D01*
X009890Y011339D01*
X010013Y011339D02*
X010137Y011215D01*
X010258Y011215D02*
X010505Y011462D01*
X010505Y011524D01*
X010444Y011586D01*
X010320Y011586D01*
X010258Y011524D01*
X009890Y011586D02*
X009890Y011215D01*
X010258Y011215D02*
X010505Y011215D01*
X010627Y011277D02*
X010688Y011215D01*
X010812Y011215D01*
X010874Y011277D01*
X010874Y011339D01*
X010812Y011400D01*
X010750Y011400D01*
X010812Y011400D02*
X010874Y011462D01*
X010874Y011524D01*
X010812Y011586D01*
X010688Y011586D01*
X010627Y011524D01*
X010444Y010486D02*
X010320Y010486D01*
X010258Y010424D01*
X010137Y010424D02*
X010137Y010300D01*
X010075Y010239D01*
X009890Y010239D01*
X010013Y010239D02*
X010137Y010115D01*
X010258Y010115D02*
X010505Y010362D01*
X010505Y010424D01*
X010444Y010486D01*
X010627Y010300D02*
X010812Y010300D01*
X010874Y010239D01*
X010874Y010177D01*
X010812Y010115D01*
X010688Y010115D01*
X010627Y010177D01*
X010627Y010300D01*
X010750Y010424D01*
X010874Y010486D01*
X010505Y010115D02*
X010258Y010115D01*
X010137Y010424D02*
X010075Y010486D01*
X009890Y010486D01*
X009890Y010115D01*
X010595Y009186D02*
X010780Y009186D01*
X010842Y009124D01*
X010842Y009000D01*
X010780Y008939D01*
X010595Y008939D01*
X010718Y008939D02*
X010842Y008815D01*
X010963Y008815D02*
X011210Y009062D01*
X011210Y009124D01*
X011148Y009186D01*
X011025Y009186D01*
X010963Y009124D01*
X010963Y008815D02*
X011210Y008815D01*
X011332Y008877D02*
X011332Y008939D01*
X011393Y009000D01*
X011517Y009000D01*
X011579Y008939D01*
X011579Y008877D01*
X011517Y008815D01*
X011393Y008815D01*
X011332Y008877D01*
X011393Y009000D02*
X011332Y009062D01*
X011332Y009124D01*
X011393Y009186D01*
X011517Y009186D01*
X011579Y009124D01*
X011579Y009062D01*
X011517Y009000D01*
X010595Y008815D02*
X010595Y009186D01*
X010680Y007986D02*
X010495Y007986D01*
X010495Y007615D01*
X010495Y007739D02*
X010680Y007739D01*
X010742Y007800D01*
X010742Y007924D01*
X010680Y007986D01*
X010863Y007924D02*
X010925Y007986D01*
X011048Y007986D01*
X011110Y007924D01*
X011110Y007862D01*
X011048Y007800D01*
X011110Y007739D01*
X011110Y007677D01*
X011048Y007615D01*
X010925Y007615D01*
X010863Y007677D01*
X010742Y007615D02*
X010618Y007739D01*
X010987Y007800D02*
X011048Y007800D01*
X011232Y007677D02*
X011232Y007924D01*
X011293Y007986D01*
X011417Y007986D01*
X011479Y007924D01*
X011232Y007677D01*
X011293Y007615D01*
X011417Y007615D01*
X011479Y007677D01*
X011479Y007924D01*
X012218Y006379D02*
X012156Y006318D01*
X012156Y006071D01*
X012218Y006009D01*
X012341Y006009D01*
X012403Y006071D01*
X012524Y006071D02*
X012586Y006009D01*
X012709Y006009D01*
X012771Y006071D01*
X012771Y006132D01*
X012709Y006194D01*
X012648Y006194D01*
X012709Y006194D02*
X012771Y006256D01*
X012771Y006318D01*
X012709Y006379D01*
X012586Y006379D01*
X012524Y006318D01*
X012403Y006318D02*
X012341Y006379D01*
X012218Y006379D01*
X013440Y006286D02*
X013440Y005977D01*
X013502Y005915D01*
X013625Y005915D01*
X013687Y005977D01*
X013687Y006286D01*
X013808Y006162D02*
X013932Y006286D01*
X013932Y005915D01*
X014055Y005915D02*
X013808Y005915D01*
X014177Y005915D02*
X014424Y006162D01*
X014424Y006224D01*
X014362Y006286D01*
X014238Y006286D01*
X014177Y006224D01*
X014177Y005915D02*
X014424Y005915D01*
X015590Y007415D02*
X015590Y007786D01*
X015775Y007786D01*
X015837Y007724D01*
X015837Y007600D01*
X015775Y007539D01*
X015590Y007539D01*
X015713Y007539D02*
X015837Y007415D01*
X015958Y007415D02*
X016205Y007415D01*
X016327Y007415D02*
X016327Y007477D01*
X016574Y007724D01*
X016574Y007786D01*
X016327Y007786D01*
X016082Y007786D02*
X016082Y007415D01*
X015958Y007662D02*
X016082Y007786D01*
X016795Y009415D02*
X016795Y009786D01*
X016980Y009786D01*
X017042Y009724D01*
X017042Y009600D01*
X016980Y009539D01*
X016795Y009539D01*
X016918Y009539D02*
X017042Y009415D01*
X017163Y009415D02*
X017410Y009415D01*
X017287Y009415D02*
X017287Y009786D01*
X017163Y009662D01*
X017532Y009662D02*
X017532Y009724D01*
X017593Y009786D01*
X017717Y009786D01*
X017779Y009724D01*
X017779Y009662D01*
X017717Y009600D01*
X017593Y009600D01*
X017532Y009662D01*
X017593Y009600D02*
X017532Y009539D01*
X017532Y009477D01*
X017593Y009415D01*
X017717Y009415D01*
X017779Y009477D01*
X017779Y009539D01*
X017717Y009600D01*
X018345Y009224D02*
X018345Y008977D01*
X018407Y008915D01*
X018530Y008915D01*
X018592Y008977D01*
X018713Y008977D02*
X018775Y008915D01*
X018898Y008915D01*
X018960Y008977D01*
X018960Y009224D01*
X018898Y009286D01*
X018775Y009286D01*
X018713Y009224D01*
X018713Y009162D01*
X018775Y009100D01*
X018960Y009100D01*
X018592Y009224D02*
X018530Y009286D01*
X018407Y009286D01*
X018345Y009224D01*
X020595Y008786D02*
X020595Y008415D01*
X020595Y008539D02*
X020780Y008539D01*
X020842Y008600D01*
X020842Y008724D01*
X020780Y008786D01*
X020595Y008786D01*
X020718Y008539D02*
X020842Y008415D01*
X020963Y008415D02*
X021210Y008662D01*
X021210Y008724D01*
X021148Y008786D01*
X021025Y008786D01*
X020963Y008724D01*
X020963Y008415D02*
X021210Y008415D01*
X021332Y008415D02*
X021332Y008477D01*
X021579Y008724D01*
X021579Y008786D01*
X021332Y008786D01*
X021845Y009860D02*
X021845Y010045D01*
X021906Y010107D01*
X022030Y010107D01*
X022092Y010045D01*
X022092Y009860D01*
X022215Y009860D02*
X021845Y009860D01*
X021906Y010229D02*
X021845Y010290D01*
X021845Y010414D01*
X021906Y010475D01*
X021968Y010475D01*
X022215Y010229D01*
X022215Y010475D01*
X022153Y010597D02*
X022215Y010659D01*
X022215Y010782D01*
X022153Y010844D01*
X022030Y010844D01*
X021968Y010782D01*
X021968Y010720D01*
X022030Y010597D01*
X021845Y010597D01*
X021845Y010844D01*
X022215Y010107D02*
X022092Y009984D01*
X021312Y006586D02*
X021188Y006586D01*
X021127Y006524D01*
X021127Y006462D01*
X021188Y006400D01*
X021374Y006400D01*
X021374Y006277D02*
X021374Y006524D01*
X021312Y006586D01*
X021005Y006524D02*
X021005Y006462D01*
X020758Y006215D01*
X021005Y006215D01*
X021127Y006277D02*
X021188Y006215D01*
X021312Y006215D01*
X021374Y006277D01*
X021005Y006524D02*
X020944Y006586D01*
X020820Y006586D01*
X020758Y006524D01*
X020637Y006524D02*
X020637Y006400D01*
X020575Y006339D01*
X020390Y006339D01*
X020513Y006339D02*
X020637Y006215D01*
X020390Y006215D02*
X020390Y006586D01*
X020575Y006586D01*
X020637Y006524D01*
X021708Y004286D02*
X021955Y003915D01*
X022077Y003915D02*
X022324Y003915D01*
X022200Y003915D02*
X022200Y004286D01*
X022077Y004162D01*
X021955Y004286D02*
X021708Y003915D01*
X015460Y010024D02*
X015213Y009777D01*
X015213Y009715D01*
X015092Y009777D02*
X015030Y009715D01*
X014907Y009715D01*
X014845Y009777D01*
X014845Y010024D01*
X014907Y010086D01*
X015030Y010086D01*
X015092Y010024D01*
X015213Y010086D02*
X015460Y010086D01*
X015460Y010024D01*
X014105Y008986D02*
X014105Y008615D01*
X013982Y008615D02*
X014229Y008615D01*
X013982Y008862D02*
X014105Y008986D01*
X013737Y008986D02*
X013737Y008615D01*
X013860Y008615D02*
X013613Y008615D01*
X013492Y008677D02*
X013492Y008986D01*
X013613Y008862D02*
X013737Y008986D01*
X013492Y008677D02*
X013430Y008615D01*
X013307Y008615D01*
X013245Y008677D01*
X013245Y008986D01*
X013270Y009515D02*
X013394Y009515D01*
X013455Y009577D01*
X013455Y009886D01*
X013577Y009824D02*
X013577Y009762D01*
X013638Y009700D01*
X013824Y009700D01*
X013824Y009577D02*
X013824Y009824D01*
X013762Y009886D01*
X013638Y009886D01*
X013577Y009824D01*
X013577Y009577D02*
X013638Y009515D01*
X013762Y009515D01*
X013824Y009577D01*
X013270Y009515D02*
X013208Y009577D01*
X013208Y009886D01*
X009037Y006368D02*
X008790Y006368D01*
X008790Y006183D01*
X008913Y006245D01*
X008975Y006245D01*
X009037Y006183D01*
X009037Y006060D01*
X008975Y005998D01*
X008851Y005998D01*
X008790Y006060D01*
X008668Y006060D02*
X008607Y005998D01*
X008483Y005998D01*
X008421Y006060D01*
X008421Y006307D01*
X008483Y006368D01*
X008607Y006368D01*
X008668Y006307D01*
X009045Y016865D02*
X009045Y017050D01*
X009106Y017112D01*
X009230Y017112D01*
X009292Y017050D01*
X009292Y016865D01*
X009415Y016865D02*
X009045Y016865D01*
X009292Y016989D02*
X009415Y017112D01*
X009230Y017234D02*
X009230Y017480D01*
X009415Y017419D02*
X009045Y017419D01*
X009230Y017234D01*
X009292Y017765D02*
X009292Y017950D01*
X009230Y018012D01*
X009106Y018012D01*
X009045Y017950D01*
X009045Y017765D01*
X009415Y017765D01*
X009292Y017889D02*
X009415Y018012D01*
X009353Y018134D02*
X009415Y018195D01*
X009415Y018319D01*
X009353Y018380D01*
X009292Y018380D01*
X009230Y018319D01*
X009230Y018257D01*
X009230Y018319D02*
X009168Y018380D01*
X009106Y018380D01*
X009045Y018319D01*
X009045Y018195D01*
X009106Y018134D01*
X009945Y022915D02*
X009945Y023286D01*
X010130Y023286D01*
X010192Y023224D01*
X010192Y023100D01*
X010130Y023039D01*
X009945Y023039D01*
X010068Y023039D02*
X010192Y022915D01*
X010313Y022915D02*
X010560Y023162D01*
X010560Y023224D01*
X010498Y023286D01*
X010375Y023286D01*
X010313Y023224D01*
X010313Y022915D02*
X010560Y022915D01*
D13*
X008860Y023484D02*
X008500Y023724D01*
X008560Y023852D02*
X008500Y023912D01*
X008500Y024032D01*
X008560Y024092D01*
X008620Y024092D01*
X008860Y023852D01*
X008860Y024092D01*
X008860Y023724D02*
X008500Y023484D01*
X014170Y022280D02*
X014172Y022304D01*
X014178Y022328D01*
X014187Y022350D01*
X014200Y022370D01*
X014216Y022388D01*
X014235Y022403D01*
X014256Y022416D01*
X014278Y022424D01*
X014302Y022429D01*
X014326Y022430D01*
X014350Y022427D01*
X014373Y022420D01*
X014395Y022410D01*
X014415Y022396D01*
X014432Y022379D01*
X014447Y022360D01*
X014458Y022339D01*
X014466Y022316D01*
X014470Y022292D01*
X014470Y022268D01*
X014466Y022244D01*
X014458Y022221D01*
X014447Y022200D01*
X014432Y022181D01*
X014415Y022164D01*
X014395Y022150D01*
X014373Y022140D01*
X014350Y022133D01*
X014326Y022130D01*
X014302Y022131D01*
X014278Y022136D01*
X014256Y022144D01*
X014235Y022157D01*
X014216Y022172D01*
X014200Y022190D01*
X014187Y022210D01*
X014178Y022232D01*
X014172Y022256D01*
X014170Y022280D01*
X014850Y020931D02*
X014850Y020630D01*
X014910Y020570D01*
X015030Y020570D01*
X015090Y020630D01*
X015090Y020931D01*
X015218Y020810D02*
X015338Y020931D01*
X015338Y020570D01*
X015218Y020570D02*
X015459Y020570D01*
X018663Y016310D02*
X018663Y016010D01*
X018723Y015950D01*
X018844Y015950D01*
X018904Y016010D01*
X018904Y016310D01*
X019032Y016130D02*
X019272Y016130D01*
X019212Y015950D02*
X019212Y016310D01*
X019032Y016130D01*
X018904Y013310D02*
X018904Y013010D01*
X018844Y012950D01*
X018723Y012950D01*
X018663Y013010D01*
X018663Y013310D01*
X019032Y013130D02*
X019212Y013130D01*
X019272Y013070D01*
X019272Y013010D01*
X019212Y012950D01*
X019092Y012950D01*
X019032Y013010D01*
X019032Y013130D01*
X019152Y013250D01*
X019272Y013310D01*
X019112Y010310D02*
X018992Y010310D01*
X018932Y010250D01*
X018932Y010190D01*
X018992Y010130D01*
X019112Y010130D01*
X019172Y010070D01*
X019172Y010010D01*
X019112Y009950D01*
X018992Y009950D01*
X018932Y010010D01*
X018932Y010070D01*
X018992Y010130D01*
X019112Y010130D02*
X019172Y010190D01*
X019172Y010250D01*
X019112Y010310D01*
X018804Y010310D02*
X018804Y010010D01*
X018744Y009950D01*
X018623Y009950D01*
X018563Y010010D01*
X018563Y010310D01*
X018535Y006810D02*
X018535Y006510D01*
X018475Y006450D01*
X018355Y006450D01*
X018295Y006510D01*
X018295Y006810D01*
X018663Y006690D02*
X018783Y006810D01*
X018783Y006450D01*
X018663Y006450D02*
X018904Y006450D01*
X019032Y006510D02*
X019272Y006750D01*
X019272Y006510D01*
X019212Y006450D01*
X019092Y006450D01*
X019032Y006510D01*
X019032Y006750D01*
X019092Y006810D01*
X019212Y006810D01*
X019272Y006750D01*
X013590Y007120D02*
X013592Y007144D01*
X013598Y007168D01*
X013607Y007190D01*
X013620Y007210D01*
X013636Y007228D01*
X013655Y007243D01*
X013676Y007256D01*
X013698Y007264D01*
X013722Y007269D01*
X013746Y007270D01*
X013770Y007267D01*
X013793Y007260D01*
X013815Y007250D01*
X013835Y007236D01*
X013852Y007219D01*
X013867Y007200D01*
X013878Y007179D01*
X013886Y007156D01*
X013890Y007132D01*
X013890Y007108D01*
X013886Y007084D01*
X013878Y007061D01*
X013867Y007040D01*
X013852Y007021D01*
X013835Y007004D01*
X013815Y006990D01*
X013793Y006980D01*
X013770Y006973D01*
X013746Y006970D01*
X013722Y006971D01*
X013698Y006976D01*
X013676Y006984D01*
X013655Y006997D01*
X013636Y007012D01*
X013620Y007030D01*
X013607Y007050D01*
X013598Y007072D01*
X013592Y007096D01*
X013590Y007120D01*
X013590Y008220D02*
X013592Y008244D01*
X013598Y008268D01*
X013607Y008290D01*
X013620Y008310D01*
X013636Y008328D01*
X013655Y008343D01*
X013676Y008356D01*
X013698Y008364D01*
X013722Y008369D01*
X013746Y008370D01*
X013770Y008367D01*
X013793Y008360D01*
X013815Y008350D01*
X013835Y008336D01*
X013852Y008319D01*
X013867Y008300D01*
X013878Y008279D01*
X013886Y008256D01*
X013890Y008232D01*
X013890Y008208D01*
X013886Y008184D01*
X013878Y008161D01*
X013867Y008140D01*
X013852Y008121D01*
X013835Y008104D01*
X013815Y008090D01*
X013793Y008080D01*
X013770Y008073D01*
X013746Y008070D01*
X013722Y008071D01*
X013698Y008076D01*
X013676Y008084D01*
X013655Y008097D01*
X013636Y008112D01*
X013620Y008130D01*
X013607Y008150D01*
X013598Y008172D01*
X013592Y008196D01*
X013590Y008220D01*
X012654Y005824D02*
X012004Y005824D01*
X012654Y005824D02*
X012654Y004308D01*
X012122Y003777D01*
X012004Y003777D01*
X011256Y003777D02*
X011138Y003777D01*
X010606Y004308D01*
X010606Y005824D01*
X011256Y005824D01*
X010454Y005824D02*
X010454Y004308D01*
X009922Y003777D01*
X009804Y003777D01*
X009056Y003777D02*
X008938Y003777D01*
X008406Y004308D01*
X008406Y005824D01*
X009056Y005824D01*
X009804Y005824D02*
X010454Y005824D01*
X009095Y005705D02*
X009038Y005682D01*
X008983Y005655D01*
X008929Y005625D01*
X008877Y005591D01*
X008828Y005554D01*
X008781Y005514D01*
X008736Y005471D01*
X008695Y005425D01*
X008656Y005377D01*
X008621Y005326D01*
X008589Y005273D01*
X008560Y005218D01*
X008535Y005162D01*
X008514Y005104D01*
X008496Y005045D01*
X008483Y004984D01*
X008473Y004923D01*
X008467Y004862D01*
X008465Y004800D01*
X008467Y004738D01*
X008473Y004677D01*
X008483Y004616D01*
X008496Y004555D01*
X008514Y004496D01*
X008535Y004438D01*
X008560Y004382D01*
X008589Y004327D01*
X008621Y004274D01*
X008656Y004223D01*
X008695Y004175D01*
X008736Y004129D01*
X008781Y004086D01*
X008828Y004046D01*
X008877Y004009D01*
X008929Y003975D01*
X008983Y003945D01*
X009038Y003918D01*
X009095Y003895D01*
X009765Y003895D02*
X009822Y003918D01*
X009877Y003945D01*
X009931Y003975D01*
X009983Y004009D01*
X010032Y004046D01*
X010079Y004086D01*
X010124Y004129D01*
X010165Y004175D01*
X010204Y004223D01*
X010239Y004274D01*
X010271Y004327D01*
X010300Y004382D01*
X010325Y004438D01*
X010346Y004496D01*
X010364Y004555D01*
X010377Y004616D01*
X010387Y004677D01*
X010393Y004738D01*
X010395Y004800D01*
X010393Y004862D01*
X010387Y004923D01*
X010377Y004984D01*
X010364Y005045D01*
X010346Y005104D01*
X010325Y005162D01*
X010300Y005218D01*
X010271Y005273D01*
X010239Y005326D01*
X010204Y005377D01*
X010165Y005425D01*
X010124Y005471D01*
X010079Y005514D01*
X010032Y005554D01*
X009983Y005591D01*
X009931Y005625D01*
X009877Y005655D01*
X009822Y005682D01*
X009765Y005705D01*
X011295Y005705D02*
X011238Y005682D01*
X011183Y005655D01*
X011129Y005625D01*
X011077Y005591D01*
X011028Y005554D01*
X010981Y005514D01*
X010936Y005471D01*
X010895Y005425D01*
X010856Y005377D01*
X010821Y005326D01*
X010789Y005273D01*
X010760Y005218D01*
X010735Y005162D01*
X010714Y005104D01*
X010696Y005045D01*
X010683Y004984D01*
X010673Y004923D01*
X010667Y004862D01*
X010665Y004800D01*
X010667Y004738D01*
X010673Y004677D01*
X010683Y004616D01*
X010696Y004555D01*
X010714Y004496D01*
X010735Y004438D01*
X010760Y004382D01*
X010789Y004327D01*
X010821Y004274D01*
X010856Y004223D01*
X010895Y004175D01*
X010936Y004129D01*
X010981Y004086D01*
X011028Y004046D01*
X011077Y004009D01*
X011129Y003975D01*
X011183Y003945D01*
X011238Y003918D01*
X011295Y003895D01*
X011965Y003895D02*
X012022Y003918D01*
X012077Y003945D01*
X012131Y003975D01*
X012183Y004009D01*
X012232Y004046D01*
X012279Y004086D01*
X012324Y004129D01*
X012365Y004175D01*
X012404Y004223D01*
X012439Y004274D01*
X012471Y004327D01*
X012500Y004382D01*
X012525Y004438D01*
X012546Y004496D01*
X012564Y004555D01*
X012577Y004616D01*
X012587Y004677D01*
X012593Y004738D01*
X012595Y004800D01*
X012593Y004862D01*
X012587Y004923D01*
X012577Y004984D01*
X012564Y005045D01*
X012546Y005104D01*
X012525Y005162D01*
X012500Y005218D01*
X012471Y005273D01*
X012439Y005326D01*
X012404Y005377D01*
X012365Y005425D01*
X012324Y005471D01*
X012279Y005514D01*
X012232Y005554D01*
X012183Y005591D01*
X012131Y005625D01*
X012077Y005655D01*
X012022Y005682D01*
X011965Y005705D01*
X013590Y011720D02*
X013592Y011744D01*
X013598Y011768D01*
X013607Y011790D01*
X013620Y011810D01*
X013636Y011828D01*
X013655Y011843D01*
X013676Y011856D01*
X013698Y011864D01*
X013722Y011869D01*
X013746Y011870D01*
X013770Y011867D01*
X013793Y011860D01*
X013815Y011850D01*
X013835Y011836D01*
X013852Y011819D01*
X013867Y011800D01*
X013878Y011779D01*
X013886Y011756D01*
X013890Y011732D01*
X013890Y011708D01*
X013886Y011684D01*
X013878Y011661D01*
X013867Y011640D01*
X013852Y011621D01*
X013835Y011604D01*
X013815Y011590D01*
X013793Y011580D01*
X013770Y011573D01*
X013746Y011570D01*
X013722Y011571D01*
X013698Y011576D01*
X013676Y011584D01*
X013655Y011597D01*
X013636Y011612D01*
X013620Y011630D01*
X013607Y011650D01*
X013598Y011672D01*
X013592Y011696D01*
X013590Y011720D01*
X013590Y014720D02*
X013592Y014744D01*
X013598Y014768D01*
X013607Y014790D01*
X013620Y014810D01*
X013636Y014828D01*
X013655Y014843D01*
X013676Y014856D01*
X013698Y014864D01*
X013722Y014869D01*
X013746Y014870D01*
X013770Y014867D01*
X013793Y014860D01*
X013815Y014850D01*
X013835Y014836D01*
X013852Y014819D01*
X013867Y014800D01*
X013878Y014779D01*
X013886Y014756D01*
X013890Y014732D01*
X013890Y014708D01*
X013886Y014684D01*
X013878Y014661D01*
X013867Y014640D01*
X013852Y014621D01*
X013835Y014604D01*
X013815Y014590D01*
X013793Y014580D01*
X013770Y014573D01*
X013746Y014570D01*
X013722Y014571D01*
X013698Y014576D01*
X013676Y014584D01*
X013655Y014597D01*
X013636Y014612D01*
X013620Y014630D01*
X013607Y014650D01*
X013598Y014672D01*
X013592Y014696D01*
X013590Y014720D01*
D14*
X002430Y006350D02*
X002430Y003550D01*
X002630Y003550D01*
X002630Y004550D01*
X002830Y004550D01*
X002930Y004550D01*
X002930Y005550D01*
X002830Y005550D01*
X002830Y005600D01*
X003780Y005600D01*
X003810Y005602D01*
X003840Y005607D01*
X003869Y005616D01*
X003896Y005629D01*
X003922Y005644D01*
X003946Y005663D01*
X003967Y005684D01*
X003986Y005708D01*
X004001Y005734D01*
X004014Y005761D01*
X004023Y005790D01*
X004028Y005820D01*
X004030Y005850D01*
X004030Y005900D02*
X008080Y005900D01*
X008280Y005700D01*
X008280Y003800D01*
X008030Y003550D01*
X004080Y003550D01*
X004080Y005550D01*
X004030Y005550D01*
X004030Y005900D01*
X004030Y006000D01*
X004030Y022000D01*
X004030Y022100D01*
X008080Y022100D01*
X008280Y022300D01*
X008280Y024250D01*
X008080Y024450D01*
X004080Y024450D01*
X004080Y022450D01*
X004030Y022450D01*
X004030Y024450D01*
X004080Y024450D01*
X004030Y024450D02*
X002830Y024450D01*
X002830Y023450D01*
X002930Y023450D01*
X002930Y022450D01*
X002830Y022450D01*
X002830Y022400D01*
X003780Y022400D01*
X003810Y022398D01*
X003840Y022393D01*
X003869Y022384D01*
X003896Y022371D01*
X003922Y022356D01*
X003946Y022337D01*
X003967Y022316D01*
X003986Y022292D01*
X004001Y022266D01*
X004014Y022239D01*
X004023Y022210D01*
X004028Y022180D01*
X004030Y022150D01*
X004030Y022100D02*
X004030Y022450D01*
X004030Y022000D02*
X004330Y022000D01*
X004330Y006000D01*
X004030Y006000D01*
X004030Y005550D02*
X004030Y003550D01*
X004080Y003550D01*
X004030Y003550D02*
X002830Y003550D01*
X002630Y003550D01*
X002830Y003550D02*
X002830Y004550D01*
X002630Y004550D02*
X002630Y005550D01*
X002630Y022450D01*
X002830Y022450D01*
X002830Y022400D02*
X002830Y005600D01*
X002830Y005550D02*
X002630Y005550D01*
X002430Y005950D02*
X002428Y005980D01*
X002423Y006010D01*
X002414Y006039D01*
X002401Y006066D01*
X002386Y006092D01*
X002367Y006116D01*
X002346Y006137D01*
X002322Y006156D01*
X002296Y006171D01*
X002269Y006184D01*
X002240Y006193D01*
X002210Y006198D01*
X002180Y006200D01*
X000330Y006200D01*
X000330Y006350D02*
X002430Y006350D01*
X002430Y021650D01*
X002430Y024450D01*
X002630Y024450D01*
X002630Y023450D01*
X002630Y022450D01*
X002430Y022050D02*
X002428Y022020D01*
X002423Y021990D01*
X002414Y021961D01*
X002401Y021934D01*
X002386Y021908D01*
X002367Y021884D01*
X002346Y021863D01*
X002322Y021844D01*
X002296Y021829D01*
X002269Y021816D01*
X002240Y021807D01*
X002210Y021802D01*
X002180Y021800D01*
X000330Y021800D01*
X000330Y021650D02*
X002430Y021650D01*
X002230Y021500D02*
X000130Y021500D01*
X000130Y006500D01*
X002230Y006500D01*
X000330Y006200D02*
X000304Y006202D01*
X000278Y006207D01*
X000253Y006215D01*
X000230Y006227D01*
X000208Y006241D01*
X000189Y006259D01*
X000171Y006278D01*
X000157Y006300D01*
X000145Y006323D01*
X000137Y006348D01*
X000132Y006374D01*
X000130Y006400D01*
X000130Y006500D01*
X000630Y008900D02*
X000630Y009050D01*
X001380Y009050D01*
X001380Y009650D01*
X000630Y009650D01*
X000630Y009800D01*
X001530Y009800D01*
X001530Y008900D01*
X000630Y008900D01*
X000630Y010450D02*
X000630Y010600D01*
X001380Y010600D01*
X001380Y011200D01*
X000630Y011200D01*
X000630Y011350D01*
X001530Y011350D01*
X001530Y010450D01*
X000630Y010450D01*
X000630Y012000D02*
X000630Y012150D01*
X001380Y012150D01*
X001380Y012750D01*
X000630Y012750D01*
X000630Y012900D01*
X001530Y012900D01*
X001530Y012000D01*
X000630Y012000D01*
X000630Y013550D02*
X000630Y013700D01*
X001380Y013700D01*
X001380Y014300D01*
X000630Y014300D01*
X000630Y014450D01*
X001530Y014450D01*
X001530Y013550D01*
X000630Y013550D01*
X000630Y015100D02*
X000630Y015250D01*
X001380Y015250D01*
X001380Y015850D01*
X000630Y015850D01*
X000630Y016000D01*
X001530Y016000D01*
X001530Y015100D01*
X000630Y015100D01*
X000630Y016650D02*
X000630Y016800D01*
X001380Y016800D01*
X001380Y017400D01*
X000630Y017400D01*
X000630Y017550D01*
X001530Y017550D01*
X001530Y016650D01*
X000630Y016650D01*
X000630Y018200D02*
X000630Y018350D01*
X001380Y018350D01*
X001380Y018950D01*
X000630Y018950D01*
X000630Y019100D01*
X001530Y019100D01*
X001530Y018200D01*
X000630Y018200D01*
X000130Y021500D02*
X000130Y021600D01*
X000132Y021626D01*
X000137Y021652D01*
X000145Y021677D01*
X000157Y021700D01*
X000171Y021722D01*
X000189Y021741D01*
X000208Y021759D01*
X000230Y021773D01*
X000253Y021785D01*
X000278Y021793D01*
X000304Y021798D01*
X000330Y021800D01*
X002630Y023450D02*
X002830Y023450D01*
X002830Y024450D02*
X002630Y024450D01*
X006380Y023260D02*
X006382Y023310D01*
X006388Y023360D01*
X006398Y023410D01*
X006411Y023458D01*
X006428Y023506D01*
X006449Y023552D01*
X006473Y023596D01*
X006501Y023638D01*
X006532Y023678D01*
X006566Y023715D01*
X006603Y023750D01*
X006642Y023781D01*
X006683Y023810D01*
X006727Y023835D01*
X006773Y023857D01*
X006820Y023875D01*
X006868Y023889D01*
X006917Y023900D01*
X006967Y023907D01*
X007017Y023910D01*
X007068Y023909D01*
X007118Y023904D01*
X007168Y023895D01*
X007216Y023883D01*
X007264Y023866D01*
X007310Y023846D01*
X007355Y023823D01*
X007398Y023796D01*
X007438Y023766D01*
X007476Y023733D01*
X007511Y023697D01*
X007544Y023658D01*
X007573Y023617D01*
X007599Y023574D01*
X007622Y023529D01*
X007641Y023482D01*
X007656Y023434D01*
X007668Y023385D01*
X007676Y023335D01*
X007680Y023285D01*
X007680Y023235D01*
X007676Y023185D01*
X007668Y023135D01*
X007656Y023086D01*
X007641Y023038D01*
X007622Y022991D01*
X007599Y022946D01*
X007573Y022903D01*
X007544Y022862D01*
X007511Y022823D01*
X007476Y022787D01*
X007438Y022754D01*
X007398Y022724D01*
X007355Y022697D01*
X007310Y022674D01*
X007264Y022654D01*
X007216Y022637D01*
X007168Y022625D01*
X007118Y022616D01*
X007068Y022611D01*
X007017Y022610D01*
X006967Y022613D01*
X006917Y022620D01*
X006868Y022631D01*
X006820Y022645D01*
X006773Y022663D01*
X006727Y022685D01*
X006683Y022710D01*
X006642Y022739D01*
X006603Y022770D01*
X006566Y022805D01*
X006532Y022842D01*
X006501Y022882D01*
X006473Y022924D01*
X006449Y022968D01*
X006428Y023014D01*
X006411Y023062D01*
X006398Y023110D01*
X006388Y023160D01*
X006382Y023210D01*
X006380Y023260D01*
X013260Y020350D02*
X013260Y016650D01*
X013262Y016627D01*
X013267Y016604D01*
X013276Y016582D01*
X013289Y016562D01*
X013304Y016544D01*
X013322Y016529D01*
X013342Y016516D01*
X013364Y016507D01*
X013387Y016502D01*
X013410Y016500D01*
X014650Y016500D01*
X014673Y016502D01*
X014696Y016507D01*
X014718Y016516D01*
X014738Y016529D01*
X014756Y016544D01*
X014771Y016562D01*
X014784Y016582D01*
X014793Y016604D01*
X014798Y016627D01*
X014800Y016650D01*
X014800Y020350D01*
X014798Y020373D01*
X014793Y020396D01*
X014784Y020418D01*
X014771Y020438D01*
X014756Y020456D01*
X014738Y020471D01*
X014718Y020484D01*
X014696Y020493D01*
X014673Y020498D01*
X014650Y020500D01*
X014230Y020500D01*
X013830Y020500D01*
X013410Y020500D01*
X013387Y020498D01*
X013364Y020493D01*
X013342Y020484D01*
X013322Y020471D01*
X013304Y020456D01*
X013289Y020438D01*
X013276Y020418D01*
X013267Y020396D01*
X013262Y020373D01*
X013260Y020350D01*
X013830Y020500D02*
X013832Y020473D01*
X013837Y020446D01*
X013847Y020420D01*
X013859Y020396D01*
X013875Y020374D01*
X013893Y020354D01*
X013915Y020337D01*
X013938Y020322D01*
X013963Y020312D01*
X013989Y020304D01*
X014016Y020300D01*
X014044Y020300D01*
X014071Y020304D01*
X014097Y020312D01*
X014122Y020322D01*
X014145Y020337D01*
X014167Y020354D01*
X014185Y020374D01*
X014201Y020396D01*
X014213Y020420D01*
X014223Y020446D01*
X014228Y020473D01*
X014230Y020500D01*
X018723Y017560D02*
X019337Y017560D01*
X019337Y016440D02*
X018723Y016440D01*
X018723Y014560D02*
X019337Y014560D01*
X019337Y013440D02*
X018723Y013440D01*
X018723Y011560D02*
X019337Y011560D01*
X019337Y010440D02*
X018723Y010440D01*
X018723Y008060D02*
X019337Y008060D01*
X019337Y006940D02*
X018723Y006940D01*
X006380Y004740D02*
X006382Y004790D01*
X006388Y004840D01*
X006398Y004890D01*
X006411Y004938D01*
X006428Y004986D01*
X006449Y005032D01*
X006473Y005076D01*
X006501Y005118D01*
X006532Y005158D01*
X006566Y005195D01*
X006603Y005230D01*
X006642Y005261D01*
X006683Y005290D01*
X006727Y005315D01*
X006773Y005337D01*
X006820Y005355D01*
X006868Y005369D01*
X006917Y005380D01*
X006967Y005387D01*
X007017Y005390D01*
X007068Y005389D01*
X007118Y005384D01*
X007168Y005375D01*
X007216Y005363D01*
X007264Y005346D01*
X007310Y005326D01*
X007355Y005303D01*
X007398Y005276D01*
X007438Y005246D01*
X007476Y005213D01*
X007511Y005177D01*
X007544Y005138D01*
X007573Y005097D01*
X007599Y005054D01*
X007622Y005009D01*
X007641Y004962D01*
X007656Y004914D01*
X007668Y004865D01*
X007676Y004815D01*
X007680Y004765D01*
X007680Y004715D01*
X007676Y004665D01*
X007668Y004615D01*
X007656Y004566D01*
X007641Y004518D01*
X007622Y004471D01*
X007599Y004426D01*
X007573Y004383D01*
X007544Y004342D01*
X007511Y004303D01*
X007476Y004267D01*
X007438Y004234D01*
X007398Y004204D01*
X007355Y004177D01*
X007310Y004154D01*
X007264Y004134D01*
X007216Y004117D01*
X007168Y004105D01*
X007118Y004096D01*
X007068Y004091D01*
X007017Y004090D01*
X006967Y004093D01*
X006917Y004100D01*
X006868Y004111D01*
X006820Y004125D01*
X006773Y004143D01*
X006727Y004165D01*
X006683Y004190D01*
X006642Y004219D01*
X006603Y004250D01*
X006566Y004285D01*
X006532Y004322D01*
X006501Y004362D01*
X006473Y004404D01*
X006449Y004448D01*
X006428Y004494D01*
X006411Y004542D01*
X006398Y004590D01*
X006388Y004640D01*
X006382Y004690D01*
X006380Y004740D01*
D15*
X013400Y016500D02*
X013400Y020500D01*
D16*
X018833Y017453D03*
X018833Y014453D03*
X018833Y011453D03*
X018833Y007953D03*
D17*
X018794Y022259D03*
X019266Y022259D03*
D18*
X019030Y022259D03*
D19*
X007755Y021215D02*
X007755Y020915D01*
X007755Y021065D02*
X007305Y021065D01*
X007455Y020915D01*
X006705Y020904D02*
X006705Y021205D01*
X006705Y021055D02*
X006255Y021055D01*
X006405Y020904D01*
X006480Y021365D02*
X006480Y021665D01*
X006705Y021590D02*
X006255Y021590D01*
X006480Y021365D01*
X004815Y023575D02*
X004966Y023725D01*
X004890Y023725D01*
X004890Y023800D01*
X004966Y023800D01*
X004966Y023725D01*
X005122Y023800D02*
X005197Y023725D01*
X005348Y023725D01*
X005423Y023800D01*
X005423Y023950D01*
X005348Y024025D01*
X005272Y024025D01*
X005122Y023950D01*
X005122Y024176D01*
X005423Y024176D01*
X005583Y023950D02*
X005883Y023950D01*
X005808Y023725D02*
X005808Y024176D01*
X005583Y023950D01*
X004655Y024025D02*
X004655Y024101D01*
X004580Y024176D01*
X004430Y024176D01*
X004355Y024101D01*
X004655Y024025D02*
X004355Y023725D01*
X004655Y023725D01*
X003580Y021215D02*
X003430Y021215D01*
X003355Y021140D01*
X003355Y021065D01*
X003430Y020915D01*
X003205Y020915D01*
X003205Y021215D01*
X003280Y020755D02*
X003205Y020680D01*
X003205Y020530D01*
X003280Y020454D01*
X003205Y020294D02*
X003655Y020294D01*
X003655Y020454D02*
X003355Y020755D01*
X003280Y020755D01*
X003580Y020915D02*
X003655Y020990D01*
X003655Y021140D01*
X003580Y021215D01*
X003655Y020755D02*
X003655Y020454D01*
X003355Y020144D02*
X003205Y020294D01*
X003355Y020144D02*
X003205Y019994D01*
X003655Y019994D01*
X006305Y006915D02*
X006305Y006615D01*
X006530Y006615D01*
X006455Y006765D01*
X006455Y006840D01*
X006530Y006915D01*
X006680Y006915D01*
X006755Y006840D01*
X006755Y006690D01*
X006680Y006615D01*
X006755Y006455D02*
X006755Y006154D01*
X006455Y006455D01*
X006380Y006455D01*
X006305Y006380D01*
X006305Y006230D01*
X006380Y006154D01*
X007305Y006205D02*
X007755Y006205D01*
X007755Y006355D02*
X007755Y006054D01*
X007455Y006054D02*
X007305Y006205D01*
X007380Y006515D02*
X007305Y006590D01*
X007305Y006740D01*
X007380Y006815D01*
X007455Y006815D01*
X007530Y006740D01*
X007605Y006815D01*
X007680Y006815D01*
X007755Y006740D01*
X007755Y006590D01*
X007680Y006515D01*
X007530Y006665D02*
X007530Y006740D01*
D20*
X003305Y005800D03*
X003305Y022200D03*
D21*
X004355Y023280D03*
X004355Y004720D03*
D22*
X002530Y014000D03*
D23*
X004180Y014000D03*
D24*
X005755Y014000D03*
X005755Y015090D03*
X005755Y016170D03*
X005755Y017260D03*
X005755Y018350D03*
X005755Y019430D03*
X005755Y020520D03*
X005755Y012910D03*
X005755Y011830D03*
X005755Y010740D03*
X005755Y009650D03*
X005755Y008570D03*
X005755Y007480D03*
D25*
X005255Y008020D03*
X005255Y009110D03*
X005255Y010200D03*
X005255Y011280D03*
X005255Y012370D03*
X005255Y013460D03*
X005255Y014540D03*
X005255Y015630D03*
X005255Y016720D03*
X005255Y017800D03*
X005255Y018890D03*
X005255Y019980D03*
M02*
