%
M48
M72
T01C0.0236
T02C0.0394
T03C0.0400
T04C0.1300
%
T01
X8830Y7100
X9530Y8000
X8830Y8300
X10030Y9000
X10430Y9800
X9530Y10900
X9230Y12000
X8230Y12000
X8330Y12700
X8330Y13200
X8830Y13200
X8830Y13700
X9530Y13300
X8630Y14600
X8630Y15100
X8130Y15400
X8830Y16700
X9530Y15800
X10730Y15500
X11430Y15600
X12130Y15900
X12730Y16300
X12830Y15200
X12130Y15100
X13930Y16700
X15930Y16700
X16130Y15900
X16530Y15600
X16930Y15900
X17730Y15000
X17730Y14400
X18030Y14000
X16530Y14300
X16230Y13200
X17730Y12000
X17830Y11400
X18030Y11000
X16830Y10200
X15830Y10300
X16530Y11400
X14430Y12400
X12030Y12500
X11730Y11200
X14430Y8400
X14230Y6800
X14830Y5800
X13730Y5500
X12830Y3700
X10430Y3700
X10530Y5800
X10030Y7200
X11830Y6500
X16530Y5800
X16930Y7500
X16630Y8200
X17830Y7900
X18130Y7500
X17830Y8500
X20030Y9200
X21130Y9800
X22030Y11500
X22530Y13500
X22030Y14500
X22630Y15300
X22330Y16500
X22330Y17300
X22030Y18800
X22130Y20200
X22130Y20800
X21530Y20700
X20330Y21400
X18130Y20400
X17830Y19400
X18430Y17800
X17830Y17000
X17030Y17000
X15930Y18500
X16030Y19800
X15230Y21600
X13630Y20100
X12930Y21000
X12330Y21300
X12330Y20600
X11430Y21300
X11930Y22800
X8830Y22400
X9130Y18800
X8130Y17800
X8530Y17600
X11630Y17500
X19930Y12400
X20130Y15300
X20130Y17000
X20430Y18000
X18530Y6000
X19530Y5700
X22630Y4300
T02
X14030Y4000
X15030Y4000
X15030Y5000
X14030Y5000
X16030Y5000
X16030Y4000
X17030Y4000
X18030Y4000
X18030Y5000
X17030Y5000
X19030Y5000
X19030Y4000
X20030Y4000
X21030Y4000
X21030Y5000
X20030Y5000
T03
X7530Y7480
X7530Y8570
X7530Y9650
X7530Y10740
X7530Y11830
X7530Y12910
X7530Y14000
X7530Y15090
X7530Y16170
X7530Y17260
X7530Y18350
X7530Y19430
X7530Y20520
X6530Y19980
X6530Y18890
X6530Y17800
X6530Y16720
X6530Y15630
X6530Y14540
X6530Y13460
X6530Y12370
X6530Y11280
X6530Y10200
X6530Y9110
X6530Y8020
T04
X7030Y4740
X7030Y23260
M30
