G75*
%MOIN*%
%OFA0B0*%
%FSLAX24Y24*%
%IPPOS*%
%LPD*%
%AMOC8*
5,1,8,0,0,1.08239X$1,22.5*
%
%ADD10C,0.0000*%
%ADD11R,0.0591X0.0512*%
%ADD12R,0.0472X0.0472*%
%ADD13R,0.0512X0.0591*%
%ADD14R,0.0750X0.0250*%
D10*
X004062Y003000D02*
X004062Y022292D01*
X023353Y022292D01*
X023353Y003000D01*
X004062Y003000D01*
X006471Y007445D02*
X006473Y007493D01*
X006479Y007541D01*
X006489Y007588D01*
X006502Y007634D01*
X006520Y007679D01*
X006540Y007723D01*
X006565Y007765D01*
X006593Y007804D01*
X006623Y007841D01*
X006657Y007875D01*
X006694Y007907D01*
X006732Y007936D01*
X006773Y007961D01*
X006816Y007983D01*
X006861Y008001D01*
X006907Y008015D01*
X006954Y008026D01*
X007002Y008033D01*
X007050Y008036D01*
X007098Y008035D01*
X007146Y008030D01*
X007194Y008021D01*
X007240Y008009D01*
X007285Y007992D01*
X007329Y007972D01*
X007371Y007949D01*
X007411Y007922D01*
X007449Y007892D01*
X007484Y007859D01*
X007516Y007823D01*
X007546Y007785D01*
X007572Y007744D01*
X007594Y007701D01*
X007614Y007657D01*
X007629Y007612D01*
X007641Y007565D01*
X007649Y007517D01*
X007653Y007469D01*
X007653Y007421D01*
X007649Y007373D01*
X007641Y007325D01*
X007629Y007278D01*
X007614Y007233D01*
X007594Y007189D01*
X007572Y007146D01*
X007546Y007105D01*
X007516Y007067D01*
X007484Y007031D01*
X007449Y006998D01*
X007411Y006968D01*
X007371Y006941D01*
X007329Y006918D01*
X007285Y006898D01*
X007240Y006881D01*
X007194Y006869D01*
X007146Y006860D01*
X007098Y006855D01*
X007050Y006854D01*
X007002Y006857D01*
X006954Y006864D01*
X006907Y006875D01*
X006861Y006889D01*
X006816Y006907D01*
X006773Y006929D01*
X006732Y006954D01*
X006694Y006983D01*
X006657Y007015D01*
X006623Y007049D01*
X006593Y007086D01*
X006565Y007125D01*
X006540Y007167D01*
X006520Y007211D01*
X006502Y007256D01*
X006489Y007302D01*
X006479Y007349D01*
X006473Y007397D01*
X006471Y007445D01*
X006471Y020555D02*
X006473Y020603D01*
X006479Y020651D01*
X006489Y020698D01*
X006502Y020744D01*
X006520Y020789D01*
X006540Y020833D01*
X006565Y020875D01*
X006593Y020914D01*
X006623Y020951D01*
X006657Y020985D01*
X006694Y021017D01*
X006732Y021046D01*
X006773Y021071D01*
X006816Y021093D01*
X006861Y021111D01*
X006907Y021125D01*
X006954Y021136D01*
X007002Y021143D01*
X007050Y021146D01*
X007098Y021145D01*
X007146Y021140D01*
X007194Y021131D01*
X007240Y021119D01*
X007285Y021102D01*
X007329Y021082D01*
X007371Y021059D01*
X007411Y021032D01*
X007449Y021002D01*
X007484Y020969D01*
X007516Y020933D01*
X007546Y020895D01*
X007572Y020854D01*
X007594Y020811D01*
X007614Y020767D01*
X007629Y020722D01*
X007641Y020675D01*
X007649Y020627D01*
X007653Y020579D01*
X007653Y020531D01*
X007649Y020483D01*
X007641Y020435D01*
X007629Y020388D01*
X007614Y020343D01*
X007594Y020299D01*
X007572Y020256D01*
X007546Y020215D01*
X007516Y020177D01*
X007484Y020141D01*
X007449Y020108D01*
X007411Y020078D01*
X007371Y020051D01*
X007329Y020028D01*
X007285Y020008D01*
X007240Y019991D01*
X007194Y019979D01*
X007146Y019970D01*
X007098Y019965D01*
X007050Y019964D01*
X007002Y019967D01*
X006954Y019974D01*
X006907Y019985D01*
X006861Y019999D01*
X006816Y020017D01*
X006773Y020039D01*
X006732Y020064D01*
X006694Y020093D01*
X006657Y020125D01*
X006623Y020159D01*
X006593Y020196D01*
X006565Y020235D01*
X006540Y020277D01*
X006520Y020321D01*
X006502Y020366D01*
X006489Y020412D01*
X006479Y020459D01*
X006473Y020507D01*
X006471Y020555D01*
D11*
X005562Y007274D03*
X005562Y006526D03*
X004562Y006526D03*
X004562Y007274D03*
X009862Y005574D03*
X009862Y004826D03*
D12*
X005562Y004887D03*
X005562Y005714D03*
X004562Y005714D03*
X004562Y004887D03*
D13*
X011288Y006200D03*
X012036Y006200D03*
X010936Y017700D03*
X010188Y017700D03*
X010188Y019000D03*
X010936Y019000D03*
D14*
X011962Y018950D03*
X011962Y018450D03*
X011962Y017750D03*
X011962Y017250D03*
X014162Y017250D03*
X014162Y017750D03*
X014162Y018450D03*
X014162Y018950D03*
M02*
