%
M48
M72
T01C0.0236
T02C0.0354
T03C0.0394
T04C0.1181
%
T01
X4562Y3600
X8062Y9000
X8962Y9600
X8662Y10000
X10062Y9000
X9462Y8400
X10062Y7100
X9862Y6200
X9162Y4800
X10662Y4500
X12062Y5500
X13162Y6300
X13762Y5500
X13062Y4200
X16462Y7200
X16662Y8200
X17862Y7900
X18162Y7500
X17862Y8500
X16862Y10200
X15862Y10300
X16562Y11400
X17862Y11400
X18062Y11000
X17762Y12000
X17162Y13100
X18062Y14000
X17762Y14400
X17762Y15000
X16962Y15900
X16562Y15600
X16162Y15900
X15962Y16700
X17062Y16900
X17762Y17000
X18462Y17700
X17162Y19000
X17862Y19400
X16262Y21600
X15262Y21600
X13762Y20100
X13762Y19500
X13162Y21000
X10962Y20500
X10662Y21800
X5162Y18800
X5062Y16100
X5462Y15200
X5462Y12700
X5662Y9500
X4562Y9500
X8962Y12000
X8962Y12800
X9562Y13400
X8762Y14200
X9662Y15700
X10562Y15600
X11062Y15700
X12162Y15900
X12162Y15300
X13162Y15200
X13962Y16700
X11962Y16800
X9262Y17700
X11962Y13700
X12062Y12500
X12062Y10800
X11462Y10000
X13062Y9300
X15962Y12900
X16562Y14300
X20162Y15300
X20162Y17000
X20462Y18000
X20862Y19400
X22362Y19400
X22362Y17300
X22362Y16500
X22662Y15300
X22062Y14500
X22562Y13500
X22062Y11500
X21162Y9800
X20662Y9800
X18562Y6000
X19562Y5700
X22662Y4300
T02
X8062Y10201
X8062Y11101
X8062Y12001
X8062Y12901
X8062Y13801
X8062Y14701
X8062Y15601
X8062Y16501
X8062Y17401
X7062Y16951
X7062Y16051
X7062Y15151
X7062Y14251
X7062Y13351
X7062Y12451
X7062Y11551
X7062Y10651
X6062Y11101
X6062Y12001
X6062Y12901
X6062Y13801
X6062Y14701
X6062Y15601
X6062Y16501
X6062Y17401
X7062Y17851
T03
X14062Y5000
X14062Y4000
X15062Y4000
X16062Y4000
X17062Y4000
X18062Y4000
X19062Y4000
X20062Y4000
X21062Y4000
X21062Y5000
X20062Y5000
X19062Y5000
X18062Y5000
X17062Y5000
X16062Y5000
X15062Y5000
T04
X7062Y7445
X7062Y20555
M30
