G75*
%MOIN*%
%OFA0B0*%
%FSLAX24Y24*%
%IPPOS*%
%LPD*%
%AMOC8*
5,1,8,0,0,1.08239X$1,22.5*
%
%ADD10C,0.0000*%
%ADD11C,0.0594*%
%ADD12C,0.1221*%
%ADD13C,0.0634*%
%ADD14R,0.0790X0.0290*%
%ADD15R,0.0552X0.0631*%
%ADD16R,0.0631X0.0552*%
%ADD17R,0.0840X0.0300*%
%ADD18R,0.0670X0.0750*%
%ADD19R,0.0453X0.0276*%
%ADD20R,0.0512X0.0512*%
%ADD21R,0.1064X0.0591*%
%ADD22R,0.0591X0.1064*%
D10*
X004062Y003000D02*
X004062Y022292D01*
X023353Y022292D01*
X023353Y003000D01*
X004062Y003000D01*
X006471Y007445D02*
X006473Y007493D01*
X006479Y007541D01*
X006489Y007588D01*
X006502Y007634D01*
X006520Y007679D01*
X006540Y007723D01*
X006565Y007765D01*
X006593Y007804D01*
X006623Y007841D01*
X006657Y007875D01*
X006694Y007907D01*
X006732Y007936D01*
X006773Y007961D01*
X006816Y007983D01*
X006861Y008001D01*
X006907Y008015D01*
X006954Y008026D01*
X007002Y008033D01*
X007050Y008036D01*
X007098Y008035D01*
X007146Y008030D01*
X007194Y008021D01*
X007240Y008009D01*
X007285Y007992D01*
X007329Y007972D01*
X007371Y007949D01*
X007411Y007922D01*
X007449Y007892D01*
X007484Y007859D01*
X007516Y007823D01*
X007546Y007785D01*
X007572Y007744D01*
X007594Y007701D01*
X007614Y007657D01*
X007629Y007612D01*
X007641Y007565D01*
X007649Y007517D01*
X007653Y007469D01*
X007653Y007421D01*
X007649Y007373D01*
X007641Y007325D01*
X007629Y007278D01*
X007614Y007233D01*
X007594Y007189D01*
X007572Y007146D01*
X007546Y007105D01*
X007516Y007067D01*
X007484Y007031D01*
X007449Y006998D01*
X007411Y006968D01*
X007371Y006941D01*
X007329Y006918D01*
X007285Y006898D01*
X007240Y006881D01*
X007194Y006869D01*
X007146Y006860D01*
X007098Y006855D01*
X007050Y006854D01*
X007002Y006857D01*
X006954Y006864D01*
X006907Y006875D01*
X006861Y006889D01*
X006816Y006907D01*
X006773Y006929D01*
X006732Y006954D01*
X006694Y006983D01*
X006657Y007015D01*
X006623Y007049D01*
X006593Y007086D01*
X006565Y007125D01*
X006540Y007167D01*
X006520Y007211D01*
X006502Y007256D01*
X006489Y007302D01*
X006479Y007349D01*
X006473Y007397D01*
X006471Y007445D01*
X006471Y020555D02*
X006473Y020603D01*
X006479Y020651D01*
X006489Y020698D01*
X006502Y020744D01*
X006520Y020789D01*
X006540Y020833D01*
X006565Y020875D01*
X006593Y020914D01*
X006623Y020951D01*
X006657Y020985D01*
X006694Y021017D01*
X006732Y021046D01*
X006773Y021071D01*
X006816Y021093D01*
X006861Y021111D01*
X006907Y021125D01*
X006954Y021136D01*
X007002Y021143D01*
X007050Y021146D01*
X007098Y021145D01*
X007146Y021140D01*
X007194Y021131D01*
X007240Y021119D01*
X007285Y021102D01*
X007329Y021082D01*
X007371Y021059D01*
X007411Y021032D01*
X007449Y021002D01*
X007484Y020969D01*
X007516Y020933D01*
X007546Y020895D01*
X007572Y020854D01*
X007594Y020811D01*
X007614Y020767D01*
X007629Y020722D01*
X007641Y020675D01*
X007649Y020627D01*
X007653Y020579D01*
X007653Y020531D01*
X007649Y020483D01*
X007641Y020435D01*
X007629Y020388D01*
X007614Y020343D01*
X007594Y020299D01*
X007572Y020256D01*
X007546Y020215D01*
X007516Y020177D01*
X007484Y020141D01*
X007449Y020108D01*
X007411Y020078D01*
X007371Y020051D01*
X007329Y020028D01*
X007285Y020008D01*
X007240Y019991D01*
X007194Y019979D01*
X007146Y019970D01*
X007098Y019965D01*
X007050Y019964D01*
X007002Y019967D01*
X006954Y019974D01*
X006907Y019985D01*
X006861Y019999D01*
X006816Y020017D01*
X006773Y020039D01*
X006732Y020064D01*
X006694Y020093D01*
X006657Y020125D01*
X006623Y020159D01*
X006593Y020196D01*
X006565Y020235D01*
X006540Y020277D01*
X006520Y020321D01*
X006502Y020366D01*
X006489Y020412D01*
X006479Y020459D01*
X006473Y020507D01*
X006471Y020555D01*
D11*
X007062Y017851D03*
X007062Y016951D03*
X007062Y016051D03*
X007062Y015151D03*
X007062Y014251D03*
X007062Y013351D03*
X007062Y012451D03*
X007062Y011551D03*
X007062Y010651D03*
X008062Y010201D03*
X008062Y011101D03*
X008062Y012001D03*
X008062Y012901D03*
X008062Y013801D03*
X008062Y014701D03*
X008062Y015601D03*
X008062Y016501D03*
X008062Y017401D03*
X006062Y017401D03*
X006062Y016501D03*
X006062Y015601D03*
X006062Y014701D03*
X006062Y013801D03*
X006062Y012901D03*
X006062Y012001D03*
X006062Y011101D03*
D12*
X007062Y007445D03*
X007062Y020555D03*
D13*
X014062Y005000D03*
X014062Y004000D03*
X015062Y004000D03*
X016062Y004000D03*
X017062Y004000D03*
X018062Y004000D03*
X019062Y004000D03*
X020062Y004000D03*
X021062Y004000D03*
X021062Y005000D03*
X020062Y005000D03*
X019062Y005000D03*
X018062Y005000D03*
X017062Y005000D03*
X016062Y005000D03*
X015062Y005000D03*
D14*
X015162Y007150D03*
X015162Y007650D03*
X015162Y008150D03*
X015162Y008650D03*
X015162Y010250D03*
X015162Y010750D03*
X015162Y011250D03*
X015162Y011750D03*
X015162Y013250D03*
X015162Y013750D03*
X015162Y014250D03*
X015162Y014750D03*
X012962Y014750D03*
X012962Y014250D03*
X012962Y013750D03*
X012962Y013250D03*
X012962Y011750D03*
X012962Y011250D03*
X012962Y010750D03*
X012962Y010250D03*
X012962Y008650D03*
X012962Y008150D03*
X012962Y007650D03*
X012962Y007150D03*
D15*
X011436Y007100D03*
X010688Y007100D03*
X010688Y009000D03*
X011436Y009000D03*
X010936Y010500D03*
X010188Y010500D03*
X010188Y012000D03*
X010936Y012000D03*
X010936Y013500D03*
X010188Y013500D03*
X010188Y014900D03*
X010936Y014900D03*
X014488Y015400D03*
X015236Y015400D03*
X015236Y012400D03*
X014488Y012400D03*
X014588Y009300D03*
X015336Y009300D03*
X018288Y012000D03*
X019036Y012000D03*
X020688Y011500D03*
X021436Y011500D03*
X021436Y010500D03*
X020688Y010500D03*
X019136Y008500D03*
X018388Y008500D03*
X020688Y008000D03*
X021436Y008000D03*
X021436Y007000D03*
X020688Y007000D03*
X020688Y013500D03*
X021436Y013500D03*
X021436Y014500D03*
X020688Y014500D03*
X019036Y015000D03*
X018288Y015000D03*
X020888Y016500D03*
X021636Y016500D03*
X021636Y017300D03*
X020888Y017300D03*
X019936Y018000D03*
X019188Y018000D03*
X014436Y021000D03*
X013688Y021000D03*
D16*
X017062Y018274D03*
X017862Y018274D03*
X017862Y017526D03*
X017062Y017526D03*
X018562Y019226D03*
X018562Y019974D03*
X017162Y015074D03*
X017162Y014326D03*
X016062Y014326D03*
X016062Y015074D03*
X016062Y012074D03*
X016062Y011326D03*
X017162Y011326D03*
X017162Y012074D03*
X017262Y008974D03*
X017262Y008226D03*
X016162Y008226D03*
X016162Y008974D03*
D17*
X015272Y016750D03*
X015272Y017250D03*
X015272Y017750D03*
X015272Y018250D03*
X015272Y018750D03*
X015272Y019250D03*
X015272Y019750D03*
X015272Y020250D03*
X012852Y020250D03*
X012852Y019750D03*
X012852Y019250D03*
X012852Y018750D03*
X012852Y018250D03*
X012852Y017750D03*
X012852Y017250D03*
X012852Y016750D03*
D18*
X011122Y016400D03*
X011122Y017400D03*
X010002Y017400D03*
X010002Y016400D03*
X010002Y019800D03*
X011122Y019800D03*
D19*
X018530Y017374D03*
X018530Y017000D03*
X018530Y016626D03*
X019593Y016626D03*
X019593Y017000D03*
X019593Y017374D03*
X019593Y014374D03*
X019593Y014000D03*
X019593Y013626D03*
X018530Y013626D03*
X018530Y014000D03*
X018530Y014374D03*
X018530Y011374D03*
X018530Y011000D03*
X018530Y010626D03*
X019593Y010626D03*
X019593Y011000D03*
X019593Y011374D03*
X019593Y007874D03*
X019593Y007500D03*
X019593Y007126D03*
X018530Y007126D03*
X018530Y007500D03*
X018530Y007874D03*
D20*
X018562Y020787D03*
X018562Y021614D03*
D21*
X012869Y005500D03*
X011255Y005500D03*
D22*
X009162Y005607D03*
X009162Y003993D03*
M02*
