G75*
%MOIN*%
%OFA0B0*%
%FSLAX24Y24*%
%IPPOS*%
%LPD*%
%AMOC8*
5,1,8,0,0,1.08239X$1,22.5*
%
%ADD10C,0.0000*%
%ADD11C,0.0030*%
%ADD12R,0.0059X0.0118*%
%ADD13R,0.0118X0.0118*%
%ADD14C,0.0080*%
%ADD15C,0.0040*%
D10*
X004062Y003000D02*
X004062Y022292D01*
X023353Y022292D01*
X023353Y003000D01*
X004062Y003000D01*
X006471Y007445D02*
X006473Y007493D01*
X006479Y007541D01*
X006489Y007588D01*
X006502Y007634D01*
X006520Y007679D01*
X006540Y007723D01*
X006565Y007765D01*
X006593Y007804D01*
X006623Y007841D01*
X006657Y007875D01*
X006694Y007907D01*
X006732Y007936D01*
X006773Y007961D01*
X006816Y007983D01*
X006861Y008001D01*
X006907Y008015D01*
X006954Y008026D01*
X007002Y008033D01*
X007050Y008036D01*
X007098Y008035D01*
X007146Y008030D01*
X007194Y008021D01*
X007240Y008009D01*
X007285Y007992D01*
X007329Y007972D01*
X007371Y007949D01*
X007411Y007922D01*
X007449Y007892D01*
X007484Y007859D01*
X007516Y007823D01*
X007546Y007785D01*
X007572Y007744D01*
X007594Y007701D01*
X007614Y007657D01*
X007629Y007612D01*
X007641Y007565D01*
X007649Y007517D01*
X007653Y007469D01*
X007653Y007421D01*
X007649Y007373D01*
X007641Y007325D01*
X007629Y007278D01*
X007614Y007233D01*
X007594Y007189D01*
X007572Y007146D01*
X007546Y007105D01*
X007516Y007067D01*
X007484Y007031D01*
X007449Y006998D01*
X007411Y006968D01*
X007371Y006941D01*
X007329Y006918D01*
X007285Y006898D01*
X007240Y006881D01*
X007194Y006869D01*
X007146Y006860D01*
X007098Y006855D01*
X007050Y006854D01*
X007002Y006857D01*
X006954Y006864D01*
X006907Y006875D01*
X006861Y006889D01*
X006816Y006907D01*
X006773Y006929D01*
X006732Y006954D01*
X006694Y006983D01*
X006657Y007015D01*
X006623Y007049D01*
X006593Y007086D01*
X006565Y007125D01*
X006540Y007167D01*
X006520Y007211D01*
X006502Y007256D01*
X006489Y007302D01*
X006479Y007349D01*
X006473Y007397D01*
X006471Y007445D01*
X006471Y020555D02*
X006473Y020603D01*
X006479Y020651D01*
X006489Y020698D01*
X006502Y020744D01*
X006520Y020789D01*
X006540Y020833D01*
X006565Y020875D01*
X006593Y020914D01*
X006623Y020951D01*
X006657Y020985D01*
X006694Y021017D01*
X006732Y021046D01*
X006773Y021071D01*
X006816Y021093D01*
X006861Y021111D01*
X006907Y021125D01*
X006954Y021136D01*
X007002Y021143D01*
X007050Y021146D01*
X007098Y021145D01*
X007146Y021140D01*
X007194Y021131D01*
X007240Y021119D01*
X007285Y021102D01*
X007329Y021082D01*
X007371Y021059D01*
X007411Y021032D01*
X007449Y021002D01*
X007484Y020969D01*
X007516Y020933D01*
X007546Y020895D01*
X007572Y020854D01*
X007594Y020811D01*
X007614Y020767D01*
X007629Y020722D01*
X007641Y020675D01*
X007649Y020627D01*
X007653Y020579D01*
X007653Y020531D01*
X007649Y020483D01*
X007641Y020435D01*
X007629Y020388D01*
X007614Y020343D01*
X007594Y020299D01*
X007572Y020256D01*
X007546Y020215D01*
X007516Y020177D01*
X007484Y020141D01*
X007449Y020108D01*
X007411Y020078D01*
X007371Y020051D01*
X007329Y020028D01*
X007285Y020008D01*
X007240Y019991D01*
X007194Y019979D01*
X007146Y019970D01*
X007098Y019965D01*
X007050Y019964D01*
X007002Y019967D01*
X006954Y019974D01*
X006907Y019985D01*
X006861Y019999D01*
X006816Y020017D01*
X006773Y020039D01*
X006732Y020064D01*
X006694Y020093D01*
X006657Y020125D01*
X006623Y020159D01*
X006593Y020196D01*
X006565Y020235D01*
X006540Y020277D01*
X006520Y020321D01*
X006502Y020366D01*
X006489Y020412D01*
X006479Y020459D01*
X006473Y020507D01*
X006471Y020555D01*
D11*
X010432Y019724D02*
X010432Y019477D01*
X010493Y019415D01*
X010617Y019415D01*
X010679Y019477D01*
X010800Y019415D02*
X010923Y019539D01*
X010862Y019539D02*
X011047Y019539D01*
X011047Y019415D02*
X011047Y019786D01*
X010862Y019786D01*
X010800Y019724D01*
X010800Y019600D01*
X010862Y019539D01*
X010679Y019662D02*
X010617Y019600D01*
X010432Y019600D01*
X010432Y019724D02*
X010493Y019786D01*
X010617Y019786D01*
X010679Y019724D01*
X010679Y019662D01*
X010812Y018486D02*
X010750Y018424D01*
X010750Y018300D01*
X010812Y018239D01*
X010997Y018239D01*
X010873Y018239D02*
X010750Y018115D01*
X010629Y018177D02*
X010567Y018115D01*
X010443Y018115D01*
X010382Y018177D01*
X010382Y018239D01*
X010443Y018300D01*
X010629Y018300D01*
X010629Y018177D01*
X010629Y018300D02*
X010505Y018424D01*
X010382Y018486D01*
X010812Y018486D02*
X010997Y018486D01*
X010997Y018115D01*
X012568Y016824D02*
X012630Y016886D01*
X012753Y016886D01*
X012815Y016824D01*
X012937Y016886D02*
X012937Y016577D01*
X012998Y016515D01*
X013122Y016515D01*
X013184Y016577D01*
X013184Y016886D01*
X012815Y016515D02*
X012568Y016762D01*
X012568Y016824D01*
X012568Y016515D02*
X012815Y016515D01*
X012693Y019315D02*
X012693Y019686D01*
X012879Y019500D01*
X012632Y019500D01*
X013000Y019377D02*
X013062Y019315D01*
X013185Y019315D01*
X013247Y019377D01*
X013247Y019686D01*
X013000Y019686D02*
X013000Y019377D01*
X005377Y008649D02*
X005377Y008402D01*
X005377Y008280D02*
X005377Y008034D01*
X005377Y007912D02*
X005500Y007789D01*
X005500Y007850D02*
X005500Y007665D01*
X005377Y007665D02*
X005747Y007665D01*
X005747Y007850D01*
X005685Y007912D01*
X005562Y007912D01*
X005500Y007850D01*
X005624Y008034D02*
X005747Y008157D01*
X005377Y008157D01*
X005624Y008402D02*
X005747Y008525D01*
X005377Y008525D01*
X004747Y008564D02*
X004685Y008502D01*
X004747Y008564D02*
X004747Y008687D01*
X004685Y008749D01*
X004624Y008749D01*
X004377Y008502D01*
X004377Y008749D01*
X004377Y008380D02*
X004377Y008134D01*
X004377Y008012D02*
X004500Y007889D01*
X004500Y007950D02*
X004500Y007765D01*
X004377Y007765D02*
X004747Y007765D01*
X004747Y007950D01*
X004685Y008012D01*
X004562Y008012D01*
X004500Y007950D01*
X004624Y008134D02*
X004747Y008257D01*
X004377Y008257D01*
X006077Y006067D02*
X006077Y005820D01*
X006324Y006067D01*
X006385Y006067D01*
X006447Y006005D01*
X006447Y005882D01*
X006385Y005820D01*
X006385Y005699D02*
X006447Y005637D01*
X006447Y005452D01*
X006077Y005452D01*
X006077Y005637D01*
X006139Y005699D01*
X006385Y005699D01*
X006447Y005330D02*
X006447Y005084D01*
X006077Y005084D01*
X006077Y005330D01*
X006262Y005207D02*
X006262Y005084D01*
X006077Y004962D02*
X006077Y004715D01*
X006447Y004715D01*
X005720Y004486D02*
X005720Y004115D01*
X005473Y004115D01*
X005352Y004115D02*
X005352Y004486D01*
X005105Y004486D01*
X004984Y004486D02*
X004798Y004486D01*
X004737Y004424D01*
X004737Y004177D01*
X004798Y004115D01*
X004984Y004115D01*
X004984Y004486D01*
X005228Y004300D02*
X005352Y004300D01*
X005352Y004115D02*
X005105Y004115D01*
X004615Y004177D02*
X004553Y004115D01*
X004430Y004115D01*
X004368Y004177D01*
X004368Y004239D01*
X004430Y004300D01*
X004492Y004300D01*
X004430Y004300D02*
X004368Y004362D01*
X004368Y004424D01*
X004430Y004486D01*
X004553Y004486D01*
X004615Y004424D01*
X010377Y005077D02*
X010377Y005200D01*
X010439Y005262D01*
X010562Y005384D02*
X010562Y005630D01*
X010377Y005569D02*
X010747Y005569D01*
X010562Y005384D01*
X010685Y005262D02*
X010747Y005200D01*
X010747Y005077D01*
X010685Y005015D01*
X010439Y005015D01*
X010377Y005077D01*
X011393Y006715D02*
X011332Y006777D01*
X011332Y006839D01*
X011393Y006900D01*
X011579Y006900D01*
X011579Y006777D01*
X011517Y006715D01*
X011393Y006715D01*
X011579Y006900D02*
X011455Y007024D01*
X011332Y007086D01*
X011700Y007024D02*
X011762Y007086D01*
X011885Y007086D01*
X011947Y007024D01*
X011947Y006777D01*
X011885Y006715D01*
X011762Y006715D01*
X011700Y006777D01*
D12*
X005798Y005241D03*
X005326Y005241D03*
X004798Y005241D03*
X004326Y005241D03*
D13*
X004562Y005241D03*
X005562Y005241D03*
D14*
X012320Y017040D02*
X012320Y017960D01*
X013804Y017960D01*
X013804Y017040D01*
X012526Y017040D01*
X012320Y017040D01*
X012526Y017040D02*
X012526Y017950D01*
X012526Y018240D02*
X012320Y018240D01*
X012320Y019160D01*
X013804Y019160D01*
X013804Y018240D01*
X012526Y018240D01*
X012526Y019150D01*
D15*
X012622Y018480D02*
X012624Y018504D01*
X012630Y018528D01*
X012639Y018550D01*
X012652Y018570D01*
X012668Y018588D01*
X012687Y018603D01*
X012708Y018616D01*
X012730Y018624D01*
X012754Y018629D01*
X012778Y018630D01*
X012802Y018627D01*
X012825Y018620D01*
X012847Y018610D01*
X012867Y018596D01*
X012884Y018579D01*
X012899Y018560D01*
X012910Y018539D01*
X012918Y018516D01*
X012922Y018492D01*
X012922Y018468D01*
X012918Y018444D01*
X012910Y018421D01*
X012899Y018400D01*
X012884Y018381D01*
X012867Y018364D01*
X012847Y018350D01*
X012825Y018340D01*
X012802Y018333D01*
X012778Y018330D01*
X012754Y018331D01*
X012730Y018336D01*
X012708Y018344D01*
X012687Y018357D01*
X012668Y018372D01*
X012652Y018390D01*
X012639Y018410D01*
X012630Y018432D01*
X012624Y018456D01*
X012622Y018480D01*
X012622Y017280D02*
X012624Y017304D01*
X012630Y017328D01*
X012639Y017350D01*
X012652Y017370D01*
X012668Y017388D01*
X012687Y017403D01*
X012708Y017416D01*
X012730Y017424D01*
X012754Y017429D01*
X012778Y017430D01*
X012802Y017427D01*
X012825Y017420D01*
X012847Y017410D01*
X012867Y017396D01*
X012884Y017379D01*
X012899Y017360D01*
X012910Y017339D01*
X012918Y017316D01*
X012922Y017292D01*
X012922Y017268D01*
X012918Y017244D01*
X012910Y017221D01*
X012899Y017200D01*
X012884Y017181D01*
X012867Y017164D01*
X012847Y017150D01*
X012825Y017140D01*
X012802Y017133D01*
X012778Y017130D01*
X012754Y017131D01*
X012730Y017136D01*
X012708Y017144D01*
X012687Y017157D01*
X012668Y017172D01*
X012652Y017190D01*
X012639Y017210D01*
X012630Y017232D01*
X012624Y017256D01*
X012622Y017280D01*
M02*
