G75*
%MOIN*%
%OFA0B0*%
%FSLAX24Y24*%
%IPPOS*%
%LPD*%
%AMOC8*
5,1,8,0,0,1.08239X$1,22.5*
%
%ADD10C,0.0000*%
%ADD11C,0.0554*%
%ADD12C,0.0594*%
%ADD13R,0.0750X0.0250*%
%ADD14R,0.0512X0.0591*%
%ADD15R,0.0591X0.0512*%
%ADD16R,0.0800X0.0260*%
%ADD17R,0.0630X0.0710*%
%ADD18R,0.0413X0.0236*%
%ADD19R,0.0472X0.0472*%
%ADD20R,0.1024X0.0551*%
%ADD21R,0.0551X0.1024*%
%ADD22C,0.0120*%
%ADD23C,0.0356*%
%ADD24C,0.0240*%
D10*
X004062Y003000D02*
X004062Y022292D01*
X023353Y022292D01*
X023353Y003000D01*
X004062Y003000D01*
X006471Y007445D02*
X006473Y007493D01*
X006479Y007541D01*
X006489Y007588D01*
X006502Y007634D01*
X006520Y007679D01*
X006540Y007723D01*
X006565Y007765D01*
X006593Y007804D01*
X006623Y007841D01*
X006657Y007875D01*
X006694Y007907D01*
X006732Y007936D01*
X006773Y007961D01*
X006816Y007983D01*
X006861Y008001D01*
X006907Y008015D01*
X006954Y008026D01*
X007002Y008033D01*
X007050Y008036D01*
X007098Y008035D01*
X007146Y008030D01*
X007194Y008021D01*
X007240Y008009D01*
X007285Y007992D01*
X007329Y007972D01*
X007371Y007949D01*
X007411Y007922D01*
X007449Y007892D01*
X007484Y007859D01*
X007516Y007823D01*
X007546Y007785D01*
X007572Y007744D01*
X007594Y007701D01*
X007614Y007657D01*
X007629Y007612D01*
X007641Y007565D01*
X007649Y007517D01*
X007653Y007469D01*
X007653Y007421D01*
X007649Y007373D01*
X007641Y007325D01*
X007629Y007278D01*
X007614Y007233D01*
X007594Y007189D01*
X007572Y007146D01*
X007546Y007105D01*
X007516Y007067D01*
X007484Y007031D01*
X007449Y006998D01*
X007411Y006968D01*
X007371Y006941D01*
X007329Y006918D01*
X007285Y006898D01*
X007240Y006881D01*
X007194Y006869D01*
X007146Y006860D01*
X007098Y006855D01*
X007050Y006854D01*
X007002Y006857D01*
X006954Y006864D01*
X006907Y006875D01*
X006861Y006889D01*
X006816Y006907D01*
X006773Y006929D01*
X006732Y006954D01*
X006694Y006983D01*
X006657Y007015D01*
X006623Y007049D01*
X006593Y007086D01*
X006565Y007125D01*
X006540Y007167D01*
X006520Y007211D01*
X006502Y007256D01*
X006489Y007302D01*
X006479Y007349D01*
X006473Y007397D01*
X006471Y007445D01*
X006471Y020555D02*
X006473Y020603D01*
X006479Y020651D01*
X006489Y020698D01*
X006502Y020744D01*
X006520Y020789D01*
X006540Y020833D01*
X006565Y020875D01*
X006593Y020914D01*
X006623Y020951D01*
X006657Y020985D01*
X006694Y021017D01*
X006732Y021046D01*
X006773Y021071D01*
X006816Y021093D01*
X006861Y021111D01*
X006907Y021125D01*
X006954Y021136D01*
X007002Y021143D01*
X007050Y021146D01*
X007098Y021145D01*
X007146Y021140D01*
X007194Y021131D01*
X007240Y021119D01*
X007285Y021102D01*
X007329Y021082D01*
X007371Y021059D01*
X007411Y021032D01*
X007449Y021002D01*
X007484Y020969D01*
X007516Y020933D01*
X007546Y020895D01*
X007572Y020854D01*
X007594Y020811D01*
X007614Y020767D01*
X007629Y020722D01*
X007641Y020675D01*
X007649Y020627D01*
X007653Y020579D01*
X007653Y020531D01*
X007649Y020483D01*
X007641Y020435D01*
X007629Y020388D01*
X007614Y020343D01*
X007594Y020299D01*
X007572Y020256D01*
X007546Y020215D01*
X007516Y020177D01*
X007484Y020141D01*
X007449Y020108D01*
X007411Y020078D01*
X007371Y020051D01*
X007329Y020028D01*
X007285Y020008D01*
X007240Y019991D01*
X007194Y019979D01*
X007146Y019970D01*
X007098Y019965D01*
X007050Y019964D01*
X007002Y019967D01*
X006954Y019974D01*
X006907Y019985D01*
X006861Y019999D01*
X006816Y020017D01*
X006773Y020039D01*
X006732Y020064D01*
X006694Y020093D01*
X006657Y020125D01*
X006623Y020159D01*
X006593Y020196D01*
X006565Y020235D01*
X006540Y020277D01*
X006520Y020321D01*
X006502Y020366D01*
X006489Y020412D01*
X006479Y020459D01*
X006473Y020507D01*
X006471Y020555D01*
D11*
X007062Y017851D03*
X007062Y016951D03*
X007062Y016051D03*
X007062Y015151D03*
X007062Y014251D03*
X007062Y013351D03*
X007062Y012451D03*
X007062Y011551D03*
X007062Y010651D03*
X008062Y010201D03*
X008062Y011101D03*
X008062Y012001D03*
X008062Y012901D03*
X008062Y013801D03*
X008062Y014701D03*
X008062Y015601D03*
X008062Y016501D03*
X008062Y017401D03*
X006062Y017401D03*
X006062Y016501D03*
X006062Y015601D03*
X006062Y014701D03*
X006062Y013801D03*
X006062Y012901D03*
X006062Y012001D03*
X006062Y011101D03*
D12*
X014062Y005000D03*
X014062Y004000D03*
X015062Y004000D03*
X016062Y004000D03*
X017062Y004000D03*
X018062Y004000D03*
X019062Y004000D03*
X020062Y004000D03*
X021062Y004000D03*
X021062Y005000D03*
X020062Y005000D03*
X019062Y005000D03*
X018062Y005000D03*
X017062Y005000D03*
X016062Y005000D03*
X015062Y005000D03*
D13*
X015162Y007150D03*
X015162Y007650D03*
X015162Y008150D03*
X015162Y008650D03*
X015162Y010250D03*
X015162Y010750D03*
X015162Y011250D03*
X015162Y011750D03*
X015162Y013250D03*
X015162Y013750D03*
X015162Y014250D03*
X015162Y014750D03*
X012962Y014750D03*
X012962Y014250D03*
X012962Y013750D03*
X012962Y013250D03*
X012962Y011750D03*
X012962Y011250D03*
X012962Y010750D03*
X012962Y010250D03*
X012962Y008650D03*
X012962Y008150D03*
X012962Y007650D03*
X012962Y007150D03*
D14*
X011436Y007100D03*
X010688Y007100D03*
X010688Y009000D03*
X011436Y009000D03*
X010936Y010500D03*
X010188Y010500D03*
X010188Y012000D03*
X010936Y012000D03*
X010936Y013500D03*
X010188Y013500D03*
X010188Y014900D03*
X010936Y014900D03*
X014488Y015400D03*
X015236Y015400D03*
X015236Y012400D03*
X014488Y012400D03*
X014588Y009300D03*
X015336Y009300D03*
X018288Y012000D03*
X019036Y012000D03*
X020688Y011500D03*
X021436Y011500D03*
X021436Y010500D03*
X020688Y010500D03*
X019136Y008500D03*
X018388Y008500D03*
X020688Y008000D03*
X021436Y008000D03*
X021436Y007000D03*
X020688Y007000D03*
X020688Y013500D03*
X021436Y013500D03*
X021436Y014500D03*
X020688Y014500D03*
X019036Y015000D03*
X018288Y015000D03*
X020888Y016500D03*
X021636Y016500D03*
X021636Y017300D03*
X020888Y017300D03*
X019936Y018000D03*
X019188Y018000D03*
X014436Y021000D03*
X013688Y021000D03*
D15*
X017062Y018274D03*
X017862Y018274D03*
X017862Y017526D03*
X017062Y017526D03*
X018562Y019226D03*
X018562Y019974D03*
X017162Y015074D03*
X017162Y014326D03*
X016062Y014326D03*
X016062Y015074D03*
X016062Y012074D03*
X016062Y011326D03*
X017162Y011326D03*
X017162Y012074D03*
X017262Y008974D03*
X017262Y008226D03*
X016162Y008226D03*
X016162Y008974D03*
D16*
X015272Y016750D03*
X015272Y017250D03*
X015272Y017750D03*
X015272Y018250D03*
X015272Y018750D03*
X015272Y019250D03*
X015272Y019750D03*
X015272Y020250D03*
X012852Y020250D03*
X012852Y019750D03*
X012852Y019250D03*
X012852Y018750D03*
X012852Y018250D03*
X012852Y017750D03*
X012852Y017250D03*
X012852Y016750D03*
D17*
X011122Y016400D03*
X011122Y017400D03*
X010002Y017400D03*
X010002Y016400D03*
X010002Y019800D03*
X011122Y019800D03*
D18*
X018530Y017374D03*
X018530Y017000D03*
X018530Y016626D03*
X019593Y016626D03*
X019593Y017000D03*
X019593Y017374D03*
X019593Y014374D03*
X019593Y014000D03*
X019593Y013626D03*
X018530Y013626D03*
X018530Y014000D03*
X018530Y014374D03*
X018530Y011374D03*
X018530Y011000D03*
X018530Y010626D03*
X019593Y010626D03*
X019593Y011000D03*
X019593Y011374D03*
X019593Y007874D03*
X019593Y007500D03*
X019593Y007126D03*
X018530Y007126D03*
X018530Y007500D03*
X018530Y007874D03*
D19*
X018562Y020787D03*
X018562Y021614D03*
D20*
X012869Y005500D03*
X011255Y005500D03*
D21*
X009162Y005607D03*
X009162Y003993D03*
D22*
X008766Y003948D02*
X004222Y003948D01*
X004222Y003830D02*
X008766Y003830D01*
X008766Y003711D02*
X004222Y003711D01*
X004222Y003593D02*
X008766Y003593D01*
X008766Y003474D02*
X004222Y003474D01*
X004222Y003356D02*
X008967Y003356D01*
X008961Y003361D02*
X009026Y003297D01*
X009126Y003197D01*
X009214Y003160D01*
X015410Y003160D01*
X015498Y003197D01*
X015565Y003264D01*
X015765Y003464D01*
X015802Y003552D01*
X015802Y003671D01*
X015826Y003647D01*
X015979Y003583D01*
X016145Y003583D01*
X016298Y003647D01*
X016415Y003764D01*
X016479Y003917D01*
X016479Y004083D01*
X016415Y004236D01*
X016298Y004354D01*
X016145Y004417D01*
X015979Y004417D01*
X015826Y004354D01*
X015802Y004330D01*
X015802Y004548D01*
X015765Y004636D01*
X015698Y004704D01*
X015479Y004923D01*
X015479Y005083D01*
X015415Y005236D01*
X015326Y005325D01*
X016461Y006460D01*
X018910Y006460D01*
X018998Y006497D01*
X019065Y006564D01*
X019198Y006697D01*
X019265Y006764D01*
X019302Y006852D01*
X019302Y006923D01*
X019337Y006888D01*
X019541Y006888D01*
X019546Y006886D01*
X019936Y006886D01*
X019958Y006864D01*
X020026Y006797D01*
X020114Y006760D01*
X020312Y006760D01*
X020312Y006655D01*
X020382Y006585D01*
X020993Y006585D01*
X021062Y006653D01*
X021130Y006585D01*
X021638Y006585D01*
X021822Y006401D01*
X021822Y005700D01*
X021387Y005265D01*
X021298Y005354D01*
X021145Y005417D01*
X020979Y005417D01*
X020826Y005354D01*
X020709Y005236D01*
X020645Y005083D01*
X020645Y004917D01*
X020709Y004764D01*
X020826Y004647D01*
X020979Y004583D01*
X021145Y004583D01*
X021298Y004647D01*
X021411Y004760D01*
X021510Y004760D01*
X021598Y004797D01*
X022265Y005464D01*
X022302Y005552D01*
X022302Y006548D01*
X022265Y006636D01*
X021812Y007090D01*
X021812Y007345D01*
X021742Y007416D01*
X021130Y007416D01*
X021062Y007347D01*
X020993Y007416D01*
X020382Y007416D01*
X020312Y007345D01*
X020312Y007240D01*
X020261Y007240D01*
X020172Y007330D01*
X020084Y007366D01*
X019920Y007366D01*
X019920Y007634D01*
X020084Y007634D01*
X020172Y007671D01*
X020261Y007760D01*
X020312Y007760D01*
X020312Y007655D01*
X020382Y007585D01*
X020993Y007585D01*
X021062Y007653D01*
X021130Y007585D01*
X021742Y007585D01*
X021812Y007655D01*
X021812Y007760D01*
X021962Y007760D01*
X022322Y007401D01*
X022322Y005500D01*
X021212Y004389D01*
X021145Y004417D01*
X020979Y004417D01*
X020826Y004354D01*
X020709Y004236D01*
X020645Y004083D01*
X020645Y003917D01*
X020709Y003764D01*
X020826Y003647D01*
X020979Y003583D01*
X021145Y003583D01*
X021298Y003647D01*
X021415Y003764D01*
X021479Y003917D01*
X021479Y003978D01*
X022698Y005197D01*
X022765Y005264D01*
X022802Y005352D01*
X022802Y007548D01*
X022765Y007636D01*
X022698Y007704D01*
X022698Y007704D01*
X022265Y008136D01*
X022265Y008136D01*
X022198Y008204D01*
X022110Y008240D01*
X021812Y008240D01*
X021812Y008345D01*
X021742Y008416D01*
X021130Y008416D01*
X021062Y008347D01*
X020993Y008416D01*
X020382Y008416D01*
X020312Y008345D01*
X020312Y008240D01*
X020114Y008240D01*
X020026Y008204D01*
X019958Y008136D01*
X019936Y008114D01*
X019546Y008114D01*
X019541Y008112D01*
X019469Y008112D01*
X019512Y008155D01*
X019512Y008845D01*
X019442Y008916D01*
X019302Y008916D01*
X019302Y010423D01*
X019337Y010388D01*
X019541Y010388D01*
X019546Y010386D01*
X019836Y010386D01*
X019858Y010364D01*
X019926Y010297D01*
X020014Y010260D01*
X020312Y010260D01*
X020312Y010155D01*
X020382Y010085D01*
X020993Y010085D01*
X021062Y010153D01*
X021117Y010098D01*
X021103Y010098D01*
X020993Y010053D01*
X020909Y009969D01*
X020864Y009860D01*
X020864Y009741D01*
X020909Y009631D01*
X020993Y009548D01*
X021103Y009502D01*
X021221Y009502D01*
X021331Y009548D01*
X021415Y009631D01*
X021460Y009741D01*
X021460Y009844D01*
X021616Y010000D01*
X021616Y010085D01*
X021742Y010085D01*
X021812Y010155D01*
X021812Y010845D01*
X021742Y010916D01*
X021130Y010916D01*
X021062Y010847D01*
X020993Y010916D01*
X020382Y010916D01*
X020312Y010845D01*
X020312Y010740D01*
X020161Y010740D01*
X020072Y010830D01*
X019984Y010866D01*
X019920Y010866D01*
X019920Y011134D01*
X020184Y011134D01*
X020272Y011171D01*
X020312Y011211D01*
X020312Y011155D01*
X020382Y011085D01*
X020993Y011085D01*
X021062Y011153D01*
X021130Y011085D01*
X021742Y011085D01*
X021812Y011155D01*
X021812Y011320D01*
X021820Y011320D01*
X021893Y011248D01*
X022003Y011202D01*
X022121Y011202D01*
X022231Y011248D01*
X022315Y011331D01*
X022360Y011441D01*
X022360Y011560D01*
X022315Y011669D01*
X022231Y011753D01*
X022121Y011798D01*
X022003Y011798D01*
X021893Y011753D01*
X021820Y011680D01*
X021812Y011680D01*
X021812Y011845D01*
X021742Y011916D01*
X021130Y011916D01*
X021062Y011847D01*
X020993Y011916D01*
X020382Y011916D01*
X020312Y011845D01*
X020312Y011740D01*
X020214Y011740D01*
X020126Y011704D01*
X020058Y011636D01*
X020036Y011614D01*
X019546Y011614D01*
X019541Y011612D01*
X019369Y011612D01*
X019412Y011655D01*
X019412Y012345D01*
X019342Y012416D01*
X019302Y012416D01*
X019302Y013423D01*
X019337Y013388D01*
X019541Y013388D01*
X019546Y013386D01*
X019836Y013386D01*
X019926Y013297D01*
X020014Y013260D01*
X020312Y013260D01*
X020312Y013155D01*
X020382Y013085D01*
X020993Y013085D01*
X021062Y013153D01*
X021130Y013085D01*
X021742Y013085D01*
X021812Y013155D01*
X021812Y013320D01*
X022320Y013320D01*
X022393Y013248D01*
X022503Y013202D01*
X022621Y013202D01*
X022731Y013248D01*
X022815Y013331D01*
X022860Y013441D01*
X022860Y013560D01*
X022815Y013669D01*
X022731Y013753D01*
X022621Y013798D01*
X022503Y013798D01*
X022393Y013753D01*
X022320Y013680D01*
X021812Y013680D01*
X021812Y013845D01*
X021742Y013916D01*
X021130Y013916D01*
X021062Y013847D01*
X020993Y013916D01*
X020382Y013916D01*
X020312Y013845D01*
X020312Y013740D01*
X020161Y013740D01*
X020072Y013830D01*
X019984Y013866D01*
X019920Y013866D01*
X019920Y014134D01*
X020084Y014134D01*
X020172Y014171D01*
X020261Y014260D01*
X020312Y014260D01*
X020312Y014155D01*
X020382Y014085D01*
X020993Y014085D01*
X021062Y014153D01*
X021130Y014085D01*
X021742Y014085D01*
X021812Y014155D01*
X021812Y014320D01*
X021820Y014320D01*
X021893Y014248D01*
X022003Y014202D01*
X022121Y014202D01*
X022231Y014248D01*
X022315Y014331D01*
X022360Y014441D01*
X022360Y014560D01*
X022315Y014669D01*
X022231Y014753D01*
X022121Y014798D01*
X022003Y014798D01*
X021893Y014753D01*
X021820Y014680D01*
X021812Y014680D01*
X021812Y014845D01*
X021742Y014916D01*
X021130Y014916D01*
X021062Y014847D01*
X020993Y014916D01*
X020382Y014916D01*
X020312Y014845D01*
X020312Y014740D01*
X020114Y014740D01*
X020026Y014704D01*
X019958Y014636D01*
X019936Y014614D01*
X019546Y014614D01*
X019541Y014612D01*
X019369Y014612D01*
X019412Y014655D01*
X019412Y015345D01*
X019342Y015416D01*
X019302Y015416D01*
X019302Y016423D01*
X019337Y016388D01*
X019850Y016388D01*
X019908Y016446D01*
X020512Y016446D01*
X020512Y016155D01*
X020582Y016085D01*
X021193Y016085D01*
X021262Y016153D01*
X021330Y016085D01*
X021942Y016085D01*
X022012Y016155D01*
X022012Y016320D01*
X022120Y016320D01*
X022193Y016248D01*
X022303Y016202D01*
X022421Y016202D01*
X022531Y016248D01*
X022615Y016331D01*
X022660Y016441D01*
X022660Y016560D01*
X022615Y016669D01*
X022531Y016753D01*
X022421Y016798D01*
X022303Y016798D01*
X022193Y016753D01*
X022120Y016680D01*
X022012Y016680D01*
X022012Y016845D01*
X021957Y016900D01*
X022012Y016955D01*
X022012Y017120D01*
X022120Y017120D01*
X022193Y017048D01*
X022303Y017002D01*
X022421Y017002D01*
X022531Y017048D01*
X022615Y017131D01*
X022660Y017241D01*
X022660Y017360D01*
X022615Y017469D01*
X022531Y017553D01*
X022421Y017598D01*
X022303Y017598D01*
X022193Y017553D01*
X022120Y017480D01*
X022012Y017480D01*
X022012Y017645D01*
X021942Y017716D01*
X021330Y017716D01*
X021262Y017647D01*
X021193Y017716D01*
X020582Y017716D01*
X020512Y017645D01*
X020512Y017554D01*
X020248Y017554D01*
X020254Y017556D01*
X020290Y017577D01*
X020320Y017607D01*
X020341Y017643D01*
X020352Y017684D01*
X020352Y017940D01*
X019996Y017940D01*
X019996Y018060D01*
X020352Y018060D01*
X020352Y018317D01*
X020341Y018357D01*
X020320Y018394D01*
X020290Y018424D01*
X020254Y018445D01*
X020213Y018456D01*
X019996Y018456D01*
X019996Y018060D01*
X019876Y018060D01*
X019876Y018456D01*
X019659Y018456D01*
X019618Y018445D01*
X019582Y018424D01*
X019552Y018394D01*
X019539Y018370D01*
X019493Y018416D01*
X019302Y018416D01*
X019302Y018948D01*
X019265Y019036D01*
X019198Y019104D01*
X019198Y019104D01*
X018977Y019324D01*
X018977Y019532D01*
X018909Y019600D01*
X018977Y019669D01*
X018977Y020280D01*
X018907Y020350D01*
X018802Y020350D01*
X018802Y020431D01*
X018848Y020431D01*
X018918Y020501D01*
X018918Y021073D01*
X018848Y021143D01*
X018276Y021143D01*
X018206Y021073D01*
X018206Y020501D01*
X018276Y020431D01*
X018322Y020431D01*
X018322Y020350D01*
X018217Y020350D01*
X018147Y020280D01*
X018147Y019669D01*
X018215Y019600D01*
X018147Y019532D01*
X018147Y018921D01*
X018217Y018850D01*
X018772Y018850D01*
X018822Y018801D01*
X018822Y018514D01*
X018277Y018514D01*
X018277Y018580D01*
X018207Y018650D01*
X017517Y018650D01*
X017462Y018595D01*
X017407Y018650D01*
X016717Y018650D01*
X016647Y018580D01*
X016647Y017969D01*
X016715Y017900D01*
X016647Y017832D01*
X016647Y017670D01*
X016636Y017680D01*
X016386Y017930D01*
X015792Y017930D01*
X015722Y018000D01*
X014822Y018000D01*
X014752Y017930D01*
X014752Y017571D01*
X014822Y017500D01*
X014752Y017430D01*
X014752Y017071D01*
X014822Y017000D01*
X014752Y016930D01*
X014752Y016571D01*
X014822Y016500D01*
X015722Y016500D01*
X015731Y016510D01*
X015793Y016448D01*
X015903Y016402D01*
X016021Y016402D01*
X016131Y016448D01*
X016182Y016499D01*
X016182Y016198D01*
X016103Y016198D01*
X015993Y016153D01*
X015909Y016069D01*
X015864Y015960D01*
X015864Y015841D01*
X015909Y015731D01*
X015993Y015648D01*
X016103Y015602D01*
X016221Y015602D01*
X016264Y015620D01*
X016264Y015541D01*
X016301Y015450D01*
X015717Y015450D01*
X015647Y015380D01*
X015647Y015124D01*
X015612Y015090D01*
X015612Y015745D01*
X015542Y015816D01*
X014930Y015816D01*
X014885Y015770D01*
X014872Y015794D01*
X014842Y015824D01*
X014806Y015845D01*
X014765Y015856D01*
X014548Y015856D01*
X014548Y015460D01*
X014428Y015460D01*
X014428Y015856D01*
X014211Y015856D01*
X014202Y015853D01*
X014202Y015901D01*
X014639Y016338D01*
X014676Y016427D01*
X014676Y020010D01*
X014777Y020010D01*
X014774Y020008D01*
X014744Y019978D01*
X014723Y019942D01*
X014712Y019901D01*
X014712Y019755D01*
X015267Y019755D01*
X015267Y019745D01*
X014712Y019745D01*
X014712Y019599D01*
X014723Y019558D01*
X014744Y019522D01*
X014774Y019492D01*
X014799Y019477D01*
X014752Y019430D01*
X014752Y019071D01*
X014822Y019000D01*
X014752Y018930D01*
X014752Y018571D01*
X014822Y018500D01*
X014752Y018430D01*
X014752Y018071D01*
X014822Y018000D01*
X015722Y018000D01*
X015792Y018071D01*
X015792Y018430D01*
X015722Y018500D01*
X015792Y018571D01*
X015792Y018930D01*
X015722Y019000D01*
X015792Y019071D01*
X015792Y019430D01*
X015744Y019477D01*
X015770Y019492D01*
X015800Y019522D01*
X015821Y019558D01*
X015824Y019570D01*
X015886Y019570D01*
X016136Y019820D01*
X016787Y019820D01*
X016982Y019626D01*
X016982Y019242D01*
X016909Y019169D01*
X016864Y019060D01*
X016864Y018941D01*
X016909Y018831D01*
X016993Y018748D01*
X017103Y018702D01*
X017221Y018702D01*
X017331Y018748D01*
X017415Y018831D01*
X017460Y018941D01*
X017460Y019060D01*
X017415Y019169D01*
X017342Y019242D01*
X017342Y019775D01*
X017236Y019880D01*
X016936Y020180D01*
X015987Y020180D01*
X015882Y020075D01*
X015793Y019986D01*
X015770Y020008D01*
X015744Y020023D01*
X015792Y020071D01*
X015792Y020430D01*
X015722Y020500D01*
X014822Y020500D01*
X014812Y020490D01*
X014676Y020490D01*
X014676Y020585D01*
X014742Y020585D01*
X014812Y020655D01*
X014812Y021345D01*
X014742Y021416D01*
X014130Y021416D01*
X014085Y021370D01*
X014072Y021394D01*
X014042Y021424D01*
X014006Y021445D01*
X013965Y021456D01*
X013748Y021456D01*
X013748Y021060D01*
X013628Y021060D01*
X013628Y020940D01*
X013748Y020940D01*
X013748Y020545D01*
X013965Y020545D01*
X014006Y020556D01*
X014042Y020577D01*
X014072Y020607D01*
X014085Y020630D01*
X014130Y020585D01*
X014196Y020585D01*
X014196Y016888D01*
X014131Y016953D01*
X014021Y016998D01*
X013918Y016998D01*
X013486Y017430D01*
X013372Y017430D01*
X013302Y017500D01*
X012402Y017500D01*
X012332Y017430D01*
X012332Y017071D01*
X012379Y017023D01*
X012354Y017008D01*
X012324Y016978D01*
X012303Y016942D01*
X012292Y016901D01*
X012292Y016755D01*
X012847Y016755D01*
X012847Y016745D01*
X012857Y016745D01*
X012857Y016460D01*
X013273Y016460D01*
X013314Y016471D01*
X013350Y016492D01*
X013380Y016522D01*
X013401Y016558D01*
X013412Y016599D01*
X013412Y016745D01*
X012857Y016745D01*
X012857Y016755D01*
X013412Y016755D01*
X013412Y016901D01*
X013401Y016942D01*
X013380Y016978D01*
X013350Y017008D01*
X013324Y017023D01*
X013354Y017053D01*
X013664Y016744D01*
X013664Y016641D01*
X013709Y016531D01*
X013793Y016448D01*
X013903Y016402D01*
X014021Y016402D01*
X014027Y016404D01*
X013826Y016204D01*
X013758Y016136D01*
X013722Y016048D01*
X013722Y010695D01*
X013592Y010825D01*
X013486Y010930D01*
X013452Y010930D01*
X013387Y010995D01*
X012537Y010995D01*
X012467Y010925D01*
X012467Y010576D01*
X012537Y010505D01*
X013387Y010505D01*
X013394Y010513D01*
X013482Y010426D01*
X013482Y009975D01*
X013287Y009780D01*
X009203Y009780D01*
X009131Y009853D01*
X009021Y009898D01*
X008903Y009898D01*
X008793Y009853D01*
X008709Y009769D01*
X008664Y009660D01*
X008664Y009653D01*
X008636Y009680D01*
X007636Y009680D01*
X007062Y010254D01*
X007141Y010254D01*
X007287Y010315D01*
X007384Y010411D01*
X007512Y010411D01*
X007665Y010259D01*
X007665Y010122D01*
X007725Y009976D01*
X007837Y009865D01*
X007983Y009804D01*
X008141Y009804D01*
X008287Y009865D01*
X008399Y009976D01*
X008459Y010122D01*
X008459Y010280D01*
X008399Y010426D01*
X008287Y010538D01*
X008141Y010599D01*
X008004Y010599D01*
X007839Y010764D01*
X007983Y010704D01*
X008141Y010704D01*
X008287Y010765D01*
X008399Y010876D01*
X008459Y011022D01*
X008459Y011180D01*
X008399Y011326D01*
X008305Y011420D01*
X009187Y011420D01*
X009432Y011176D01*
X009537Y011070D01*
X010077Y011070D01*
X009982Y010975D01*
X009982Y010916D01*
X009882Y010916D01*
X009812Y010845D01*
X009812Y010155D01*
X009882Y010085D01*
X010493Y010085D01*
X010562Y010153D01*
X010630Y010085D01*
X011242Y010085D01*
X011312Y010155D01*
X011312Y010320D01*
X011487Y010320D01*
X011632Y010176D01*
X011737Y010070D01*
X012472Y010070D01*
X012537Y010005D01*
X013387Y010005D01*
X013457Y010076D01*
X013457Y010425D01*
X013387Y010495D01*
X012537Y010495D01*
X012472Y010430D01*
X011886Y010430D01*
X011636Y010680D01*
X011312Y010680D01*
X011312Y010820D01*
X011587Y010820D01*
X011682Y010726D01*
X011787Y010620D01*
X011820Y010620D01*
X011893Y010548D01*
X012003Y010502D01*
X012121Y010502D01*
X012231Y010548D01*
X012315Y010631D01*
X012360Y010741D01*
X012360Y010860D01*
X012315Y010969D01*
X012231Y011053D01*
X012189Y011070D01*
X012472Y011070D01*
X012537Y011005D01*
X013387Y011005D01*
X013457Y011076D01*
X013457Y011425D01*
X013387Y011495D01*
X012537Y011495D01*
X012472Y011430D01*
X009686Y011430D01*
X009336Y011780D01*
X008400Y011780D01*
X008459Y011922D01*
X008459Y012080D01*
X008401Y012220D01*
X009087Y012220D01*
X009382Y011926D01*
X009487Y011820D01*
X009812Y011820D01*
X009812Y011655D01*
X009882Y011585D01*
X010493Y011585D01*
X010562Y011653D01*
X010630Y011585D01*
X011242Y011585D01*
X011312Y011655D01*
X011312Y011820D01*
X011487Y011820D01*
X011737Y011570D01*
X012472Y011570D01*
X012537Y011505D01*
X013387Y011505D01*
X013457Y011576D01*
X013457Y011925D01*
X013387Y011995D01*
X012537Y011995D01*
X012472Y011930D01*
X011886Y011930D01*
X011742Y012075D01*
X011636Y012180D01*
X011312Y012180D01*
X011312Y012345D01*
X011242Y012416D01*
X010630Y012416D01*
X010562Y012347D01*
X010493Y012416D01*
X009882Y012416D01*
X009812Y012345D01*
X009812Y012180D01*
X009636Y012180D01*
X009236Y012580D01*
X008302Y012580D01*
X008399Y012676D01*
X008459Y012822D01*
X008459Y012980D01*
X008399Y013126D01*
X008305Y013220D01*
X008887Y013220D01*
X009382Y012726D01*
X009487Y012620D01*
X011687Y012620D01*
X011764Y012544D01*
X011764Y012441D01*
X011809Y012331D01*
X011893Y012248D01*
X012003Y012202D01*
X012121Y012202D01*
X012231Y012248D01*
X012315Y012331D01*
X012360Y012441D01*
X012360Y012560D01*
X012315Y012669D01*
X012231Y012753D01*
X012121Y012798D01*
X012018Y012798D01*
X011836Y012980D01*
X009636Y012980D01*
X009515Y013102D01*
X009621Y013102D01*
X009731Y013148D01*
X009803Y013220D01*
X009812Y013220D01*
X009812Y013155D01*
X009882Y013085D01*
X010493Y013085D01*
X010562Y013153D01*
X010630Y013085D01*
X011242Y013085D01*
X011312Y013155D01*
X011312Y013320D01*
X011487Y013320D01*
X011737Y013070D01*
X012472Y013070D01*
X012537Y013005D01*
X013387Y013005D01*
X013457Y013076D01*
X013457Y013425D01*
X013387Y013495D01*
X012537Y013495D01*
X012472Y013430D01*
X012089Y013430D01*
X012131Y013448D01*
X012203Y013520D01*
X012336Y013520D01*
X012386Y013570D01*
X012472Y013570D01*
X012537Y013505D01*
X013387Y013505D01*
X013457Y013576D01*
X013457Y013925D01*
X013387Y013995D01*
X012537Y013995D01*
X012472Y013930D01*
X012237Y013930D01*
X012195Y013888D01*
X012131Y013953D01*
X012021Y013998D01*
X011903Y013998D01*
X011793Y013953D01*
X011709Y013869D01*
X011664Y013760D01*
X011664Y013653D01*
X011636Y013680D01*
X011312Y013680D01*
X011312Y013845D01*
X011242Y013916D01*
X010630Y013916D01*
X010562Y013847D01*
X010493Y013916D01*
X009882Y013916D01*
X009812Y013845D01*
X009812Y013580D01*
X009803Y013580D01*
X009731Y013653D01*
X009621Y013698D01*
X009503Y013698D01*
X009393Y013653D01*
X009309Y013569D01*
X009264Y013460D01*
X009264Y013353D01*
X009036Y013580D01*
X008400Y013580D01*
X008459Y013722D01*
X008459Y013880D01*
X008399Y014026D01*
X008371Y014054D01*
X008464Y014148D01*
X008464Y014141D01*
X008509Y014031D01*
X008593Y013948D01*
X008703Y013902D01*
X008821Y013902D01*
X008931Y013948D01*
X009003Y014020D01*
X011636Y014020D01*
X011686Y014070D01*
X012472Y014070D01*
X012537Y014005D01*
X013387Y014005D01*
X013457Y014076D01*
X013457Y014425D01*
X013387Y014495D01*
X013722Y014495D01*
X013722Y014613D02*
X013457Y014613D01*
X013457Y014576D02*
X013457Y014925D01*
X013387Y014995D01*
X012537Y014995D01*
X012472Y014930D01*
X011312Y014930D01*
X011312Y015245D01*
X011242Y015316D01*
X010653Y015316D01*
X010731Y015348D01*
X010815Y015431D01*
X010860Y015541D01*
X010860Y015660D01*
X010815Y015769D01*
X010731Y015853D01*
X010621Y015898D01*
X010503Y015898D01*
X010393Y015853D01*
X010378Y015838D01*
X010291Y015925D01*
X010367Y015925D01*
X010437Y015996D01*
X010437Y016805D01*
X010367Y016875D01*
X009637Y016875D01*
X009567Y016805D01*
X009567Y015996D01*
X009637Y015925D01*
X009822Y015925D01*
X009822Y015886D01*
X009927Y015780D01*
X010287Y015420D01*
X010320Y015420D01*
X010393Y015348D01*
X010470Y015316D01*
X009882Y015316D01*
X009812Y015245D01*
X009812Y015080D01*
X008887Y015080D01*
X008782Y014975D01*
X008459Y014652D01*
X008459Y014780D01*
X008399Y014926D01*
X008287Y015038D01*
X008141Y015099D01*
X007983Y015099D01*
X007837Y015038D01*
X007808Y015009D01*
X007742Y015075D01*
X007742Y015360D01*
X007837Y015265D01*
X007983Y015204D01*
X008141Y015204D01*
X008287Y015265D01*
X008399Y015376D01*
X008417Y015421D01*
X008438Y015421D01*
X009336Y016320D01*
X009442Y016426D01*
X009442Y016926D01*
X009567Y017051D01*
X009567Y016996D01*
X009637Y016925D01*
X010367Y016925D01*
X010437Y016996D01*
X010437Y017805D01*
X010367Y017875D01*
X009637Y017875D01*
X009567Y017805D01*
X009567Y017560D01*
X009482Y017475D01*
X009082Y017075D01*
X009082Y016575D01*
X008366Y015859D01*
X008321Y015904D01*
X008936Y016520D01*
X009042Y016626D01*
X009042Y017926D01*
X009186Y018070D01*
X012332Y018070D01*
X012402Y018000D01*
X012332Y017930D01*
X011837Y017930D01*
X011557Y017650D01*
X011557Y017805D01*
X011486Y017875D01*
X010757Y017875D01*
X010687Y017805D01*
X010687Y016996D01*
X010757Y016925D01*
X011486Y016925D01*
X011557Y016996D01*
X011557Y017220D01*
X011636Y017220D01*
X011986Y017570D01*
X012332Y017570D01*
X012402Y017500D01*
X013302Y017500D01*
X013372Y017571D01*
X013372Y017930D01*
X013302Y018000D01*
X013372Y018071D01*
X013372Y018430D01*
X013302Y018500D01*
X012402Y018500D01*
X012332Y018430D01*
X009246Y018430D01*
X009886Y019070D01*
X012332Y019070D01*
X012402Y019000D01*
X012332Y018930D01*
X012332Y018571D01*
X012402Y018500D01*
X013302Y018500D01*
X013372Y018571D01*
X013372Y018930D01*
X013302Y019000D01*
X013372Y019071D01*
X013372Y019430D01*
X013302Y019500D01*
X013372Y019571D01*
X013372Y019930D01*
X013302Y020000D01*
X012402Y020000D01*
X012359Y019957D01*
X012336Y019980D01*
X011557Y019980D01*
X011557Y020205D01*
X011486Y020275D01*
X011158Y020275D01*
X011215Y020331D01*
X011260Y020441D01*
X011260Y020560D01*
X011215Y020669D01*
X011131Y020753D01*
X011021Y020798D01*
X010903Y020798D01*
X010793Y020753D01*
X010720Y020680D01*
X010187Y020680D01*
X009987Y020480D01*
X009882Y020375D01*
X009882Y020275D01*
X009637Y020275D01*
X009567Y020205D01*
X009567Y019980D01*
X009487Y019980D01*
X009382Y019875D01*
X007882Y018375D01*
X007882Y017757D01*
X007837Y017738D01*
X007725Y017626D01*
X007665Y017480D01*
X007665Y017322D01*
X007725Y017176D01*
X007837Y017065D01*
X007983Y017004D01*
X008141Y017004D01*
X008287Y017065D01*
X008399Y017176D01*
X008459Y017322D01*
X008459Y017480D01*
X008399Y017626D01*
X008287Y017738D01*
X008242Y017757D01*
X008242Y018226D01*
X009567Y019551D01*
X009567Y019396D01*
X009635Y019328D01*
X009632Y019325D01*
X009632Y019325D01*
X008587Y018280D01*
X008482Y018175D01*
X008482Y016875D01*
X008366Y016759D01*
X008287Y016838D01*
X008141Y016899D01*
X007983Y016899D01*
X007837Y016838D01*
X007725Y016726D01*
X007665Y016580D01*
X007665Y016422D01*
X007725Y016276D01*
X007821Y016180D01*
X007687Y016180D01*
X007582Y016075D01*
X007445Y015937D01*
X007459Y015972D01*
X007459Y016130D01*
X007399Y016276D01*
X007287Y016388D01*
X007141Y016449D01*
X006983Y016449D01*
X006837Y016388D01*
X006725Y016276D01*
X006671Y016146D01*
X006636Y016180D01*
X006440Y016377D01*
X006459Y016422D01*
X006459Y016580D01*
X006399Y016726D01*
X006287Y016838D01*
X006141Y016899D01*
X005983Y016899D01*
X005837Y016838D01*
X005725Y016726D01*
X005665Y016580D01*
X005665Y016422D01*
X005725Y016276D01*
X005837Y016165D01*
X005983Y016104D01*
X006141Y016104D01*
X006185Y016123D01*
X006382Y015926D01*
X006382Y015843D01*
X006287Y015938D01*
X006141Y015999D01*
X005983Y015999D01*
X005837Y015938D01*
X005725Y015826D01*
X005665Y015680D01*
X004802Y015680D01*
X004802Y015798D02*
X005714Y015798D01*
X005665Y015680D02*
X005665Y015522D01*
X005725Y015376D01*
X005837Y015265D01*
X005983Y015204D01*
X006141Y015204D01*
X006287Y015265D01*
X006382Y015360D01*
X006382Y014943D01*
X006287Y015038D01*
X006141Y015099D01*
X005983Y015099D01*
X005837Y015038D01*
X005725Y014926D01*
X005665Y014780D01*
X005665Y014622D01*
X005725Y014476D01*
X005837Y014365D01*
X005983Y014304D01*
X006141Y014304D01*
X006287Y014365D01*
X006399Y014476D01*
X006459Y014622D01*
X006459Y014749D01*
X006582Y014626D01*
X006687Y014520D01*
X006769Y014520D01*
X006725Y014476D01*
X006665Y014330D01*
X006665Y014172D01*
X006725Y014026D01*
X006837Y013915D01*
X006932Y013875D01*
X007059Y013749D01*
X006983Y013749D01*
X006837Y013688D01*
X006725Y013576D01*
X006707Y013531D01*
X006354Y013531D01*
X006399Y013576D01*
X006459Y013722D01*
X006459Y013880D01*
X006399Y014026D01*
X006287Y014138D01*
X006141Y014199D01*
X005983Y014199D01*
X005837Y014138D01*
X005725Y014026D01*
X005665Y013880D01*
X005665Y013722D01*
X005725Y013576D01*
X005770Y013531D01*
X005639Y013531D01*
X005387Y013280D01*
X005282Y013175D01*
X005282Y012942D01*
X005209Y012869D01*
X005164Y012760D01*
X005164Y012641D01*
X005209Y012531D01*
X005293Y012448D01*
X005403Y012402D01*
X005409Y012402D01*
X005387Y012380D01*
X005282Y012275D01*
X005282Y010826D01*
X005982Y010126D01*
X006087Y010020D01*
X006487Y010020D01*
X007582Y008926D01*
X007687Y008820D01*
X007820Y008820D01*
X007893Y008748D01*
X008003Y008702D01*
X008121Y008702D01*
X008231Y008748D01*
X008315Y008831D01*
X008360Y008941D01*
X008360Y009060D01*
X008315Y009169D01*
X008231Y009253D01*
X008121Y009298D01*
X008003Y009298D01*
X007893Y009253D01*
X007828Y009188D01*
X007696Y009320D01*
X008487Y009320D01*
X008882Y008926D01*
X008882Y007926D01*
X008987Y007820D01*
X009337Y007470D01*
X010337Y007470D01*
X010312Y007445D01*
X010312Y007280D01*
X010303Y007280D01*
X010231Y007353D01*
X010121Y007398D01*
X010003Y007398D01*
X009893Y007353D01*
X009809Y007269D01*
X009764Y007160D01*
X009764Y007041D01*
X009809Y006931D01*
X009893Y006848D01*
X010003Y006802D01*
X010121Y006802D01*
X010231Y006848D01*
X010303Y006920D01*
X010312Y006920D01*
X010312Y006755D01*
X010382Y006685D01*
X010993Y006685D01*
X011062Y006753D01*
X011130Y006685D01*
X011742Y006685D01*
X011812Y006755D01*
X011812Y006970D01*
X012472Y006970D01*
X012537Y006905D01*
X013387Y006905D01*
X013457Y006976D01*
X013457Y007325D01*
X013387Y007395D01*
X012537Y007395D01*
X012472Y007330D01*
X011812Y007330D01*
X011812Y007445D01*
X011787Y007470D01*
X012472Y007470D01*
X012537Y007405D01*
X013387Y007405D01*
X013457Y007476D01*
X013457Y007825D01*
X013387Y007895D01*
X012537Y007895D01*
X012472Y007830D01*
X009486Y007830D01*
X009242Y008075D01*
X009242Y008199D01*
X009293Y008148D01*
X009403Y008102D01*
X009505Y008102D01*
X009637Y007970D01*
X012472Y007970D01*
X012537Y007905D01*
X013387Y007905D01*
X013457Y007976D01*
X013457Y008325D01*
X013387Y008395D01*
X012537Y008395D01*
X012472Y008330D01*
X009786Y008330D01*
X009760Y008357D01*
X009760Y008460D01*
X009715Y008569D01*
X009631Y008653D01*
X009521Y008698D01*
X009403Y008698D01*
X009293Y008653D01*
X009242Y008602D01*
X009242Y009075D01*
X009015Y009302D01*
X009021Y009302D01*
X009131Y009348D01*
X009203Y009420D01*
X013436Y009420D01*
X013722Y009706D01*
X013722Y007052D01*
X013758Y006964D01*
X014322Y006401D01*
X014322Y005740D01*
X013943Y005740D01*
X013931Y005753D01*
X013821Y005798D01*
X013703Y005798D01*
X013593Y005753D01*
X013580Y005740D01*
X013501Y005740D01*
X013501Y005826D01*
X013430Y005896D01*
X012307Y005896D01*
X012237Y005826D01*
X012237Y005747D01*
X012231Y005753D01*
X012121Y005798D01*
X012003Y005798D01*
X011927Y005767D01*
X011927Y005797D01*
X011916Y005838D01*
X011895Y005874D01*
X011865Y005904D01*
X011828Y005925D01*
X011788Y005936D01*
X011315Y005936D01*
X011315Y005560D01*
X011195Y005560D01*
X011195Y005440D01*
X011315Y005440D01*
X011315Y005065D01*
X011788Y005065D01*
X011828Y005076D01*
X011865Y005097D01*
X011895Y005126D01*
X011916Y005163D01*
X011927Y005204D01*
X011927Y005234D01*
X012003Y005202D01*
X012121Y005202D01*
X012231Y005248D01*
X012237Y005254D01*
X012237Y005175D01*
X012307Y005105D01*
X013430Y005105D01*
X013501Y005175D01*
X013501Y005260D01*
X013580Y005260D01*
X013593Y005248D01*
X013661Y005219D01*
X013639Y005176D01*
X013616Y005107D01*
X013605Y005039D01*
X014023Y005039D01*
X014023Y004962D01*
X013605Y004962D01*
X013616Y004893D01*
X013639Y004825D01*
X013671Y004761D01*
X013713Y004703D01*
X013764Y004652D01*
X013822Y004610D01*
X013887Y004577D01*
X013955Y004555D01*
X014023Y004544D01*
X014023Y004962D01*
X014100Y004962D01*
X014100Y004544D01*
X014169Y004555D01*
X014237Y004577D01*
X014301Y004610D01*
X014322Y004624D01*
X014322Y004452D01*
X014358Y004364D01*
X014426Y004297D01*
X014645Y004078D01*
X014645Y003917D01*
X014709Y003764D01*
X014826Y003647D01*
X014842Y003640D01*
X014344Y003640D01*
X014360Y003652D01*
X014410Y003703D01*
X014453Y003761D01*
X014485Y003825D01*
X014507Y003893D01*
X014518Y003962D01*
X014100Y003962D01*
X014100Y004039D01*
X014023Y004039D01*
X014023Y003962D01*
X013605Y003962D01*
X013616Y003893D01*
X013639Y003825D01*
X013671Y003761D01*
X013713Y003703D01*
X013764Y003652D01*
X013780Y003640D01*
X009557Y003640D01*
X009557Y004555D01*
X009487Y004625D01*
X009408Y004625D01*
X009415Y004631D01*
X009460Y004741D01*
X009460Y004860D01*
X009429Y004936D01*
X009459Y004936D01*
X009499Y004946D01*
X009536Y004967D01*
X009566Y004997D01*
X009587Y005034D01*
X009597Y005074D01*
X009597Y005547D01*
X009222Y005547D01*
X009222Y005667D01*
X009597Y005667D01*
X009597Y006140D01*
X009587Y006181D01*
X009566Y006217D01*
X009536Y006247D01*
X009499Y006268D01*
X009459Y006279D01*
X009222Y006279D01*
X009222Y005667D01*
X009102Y005667D01*
X009102Y005547D01*
X008726Y005547D01*
X008726Y005074D01*
X008737Y005034D01*
X008758Y004997D01*
X008788Y004967D01*
X008825Y004946D01*
X008865Y004936D01*
X008895Y004936D01*
X008864Y004860D01*
X008864Y004741D01*
X008909Y004631D01*
X008916Y004625D01*
X008837Y004625D01*
X008766Y004555D01*
X008766Y003432D01*
X008837Y003361D01*
X008961Y003361D01*
X009085Y003237D02*
X004222Y003237D01*
X004222Y003160D02*
X004222Y022132D01*
X023193Y022132D01*
X023193Y003160D01*
X004222Y003160D01*
X004222Y004067D02*
X008766Y004067D01*
X008766Y004185D02*
X004222Y004185D01*
X004222Y004304D02*
X008766Y004304D01*
X008766Y004422D02*
X004222Y004422D01*
X004222Y004541D02*
X008766Y004541D01*
X008898Y004659D02*
X004222Y004659D01*
X004222Y004778D02*
X008864Y004778D01*
X008879Y004896D02*
X004222Y004896D01*
X004222Y005015D02*
X008748Y005015D01*
X008726Y005133D02*
X004222Y005133D01*
X004222Y005252D02*
X008726Y005252D01*
X008726Y005370D02*
X004222Y005370D01*
X004222Y005489D02*
X008726Y005489D01*
X008726Y005667D02*
X009102Y005667D01*
X009102Y006279D01*
X008865Y006279D01*
X008825Y006268D01*
X008788Y006247D01*
X008758Y006217D01*
X008737Y006181D01*
X008726Y006140D01*
X008726Y005667D01*
X008726Y005726D02*
X004222Y005726D01*
X004222Y005844D02*
X008726Y005844D01*
X008726Y005963D02*
X004222Y005963D01*
X004222Y006081D02*
X008726Y006081D01*
X008748Y006200D02*
X004222Y006200D01*
X004222Y006318D02*
X014322Y006318D01*
X014322Y006200D02*
X009576Y006200D01*
X009597Y006081D02*
X014322Y006081D01*
X014322Y005963D02*
X009597Y005963D01*
X009597Y005844D02*
X010598Y005844D01*
X010594Y005838D02*
X010583Y005797D01*
X010583Y005560D01*
X011195Y005560D01*
X011195Y005936D01*
X010722Y005936D01*
X010681Y005925D01*
X010645Y005904D01*
X010615Y005874D01*
X010594Y005838D01*
X010583Y005726D02*
X009597Y005726D01*
X009597Y005489D02*
X011195Y005489D01*
X011195Y005440D02*
X010583Y005440D01*
X010583Y005204D01*
X010594Y005163D01*
X010615Y005126D01*
X010645Y005097D01*
X010681Y005076D01*
X010722Y005065D01*
X011195Y005065D01*
X011195Y005440D01*
X011195Y005370D02*
X011315Y005370D01*
X011315Y005252D02*
X011195Y005252D01*
X011195Y005133D02*
X011315Y005133D01*
X011315Y005607D02*
X011195Y005607D01*
X011195Y005726D02*
X011315Y005726D01*
X011315Y005844D02*
X011195Y005844D01*
X010583Y005607D02*
X009222Y005607D01*
X009222Y005726D02*
X009102Y005726D01*
X009102Y005844D02*
X009222Y005844D01*
X009222Y005963D02*
X009102Y005963D01*
X009102Y006081D02*
X009222Y006081D01*
X009222Y006200D02*
X009102Y006200D01*
X009102Y005607D02*
X004222Y005607D01*
X004222Y006437D02*
X014286Y006437D01*
X014167Y006555D02*
X004222Y006555D01*
X004222Y006674D02*
X014049Y006674D01*
X013930Y006792D02*
X011812Y006792D01*
X011812Y006911D02*
X012532Y006911D01*
X012527Y007385D02*
X011812Y007385D01*
X011486Y007150D02*
X011436Y007100D01*
X011486Y007150D02*
X012962Y007150D01*
X013392Y006911D02*
X013812Y006911D01*
X013732Y007029D02*
X013457Y007029D01*
X013457Y007148D02*
X013722Y007148D01*
X013722Y007266D02*
X013457Y007266D01*
X013397Y007385D02*
X013722Y007385D01*
X013722Y007503D02*
X013457Y007503D01*
X013457Y007622D02*
X013722Y007622D01*
X013722Y007740D02*
X013457Y007740D01*
X013423Y007859D02*
X013722Y007859D01*
X013722Y007977D02*
X013457Y007977D01*
X013457Y008096D02*
X013722Y008096D01*
X013722Y008214D02*
X013457Y008214D01*
X013449Y008333D02*
X013722Y008333D01*
X013722Y008451D02*
X013433Y008451D01*
X013457Y008476D02*
X013457Y008825D01*
X013387Y008895D01*
X012537Y008895D01*
X012472Y008830D01*
X012186Y008830D01*
X011836Y009180D01*
X011812Y009180D01*
X011812Y009345D01*
X011742Y009416D01*
X011130Y009416D01*
X011062Y009347D01*
X010993Y009416D01*
X010382Y009416D01*
X010312Y009345D01*
X010312Y009180D01*
X010303Y009180D01*
X010231Y009253D01*
X010121Y009298D01*
X010003Y009298D01*
X009893Y009253D01*
X009809Y009169D01*
X009764Y009060D01*
X009764Y008941D01*
X009809Y008831D01*
X009893Y008748D01*
X010003Y008702D01*
X010121Y008702D01*
X010231Y008748D01*
X010303Y008820D01*
X010312Y008820D01*
X010312Y008655D01*
X010382Y008585D01*
X010993Y008585D01*
X011062Y008653D01*
X011130Y008585D01*
X011742Y008585D01*
X011812Y008655D01*
X011812Y008696D01*
X011932Y008576D01*
X012037Y008470D01*
X012472Y008470D01*
X012537Y008405D01*
X013387Y008405D01*
X013457Y008476D01*
X013457Y008570D02*
X013722Y008570D01*
X013722Y008688D02*
X013457Y008688D01*
X013457Y008807D02*
X013722Y008807D01*
X013722Y008925D02*
X012091Y008925D01*
X011973Y009044D02*
X013722Y009044D01*
X013722Y009162D02*
X011854Y009162D01*
X011812Y009281D02*
X013722Y009281D01*
X013722Y009399D02*
X011758Y009399D01*
X011762Y009000D02*
X011436Y009000D01*
X011762Y009000D02*
X012112Y008650D01*
X012962Y008650D01*
X012962Y008150D02*
X009712Y008150D01*
X009462Y008400D01*
X009546Y008688D02*
X010312Y008688D01*
X010312Y008807D02*
X010290Y008807D01*
X010062Y009000D02*
X010688Y009000D01*
X010312Y009281D02*
X010164Y009281D01*
X009960Y009281D02*
X009036Y009281D01*
X009154Y009162D02*
X009806Y009162D01*
X009764Y009044D02*
X009242Y009044D01*
X009242Y008925D02*
X009770Y008925D01*
X009834Y008807D02*
X009242Y008807D01*
X009242Y008688D02*
X009378Y008688D01*
X009714Y008570D02*
X011938Y008570D01*
X011819Y008688D02*
X011812Y008688D01*
X012491Y008451D02*
X009760Y008451D01*
X009784Y008333D02*
X012475Y008333D01*
X012501Y007859D02*
X009458Y007859D01*
X009339Y007977D02*
X009630Y007977D01*
X009512Y008096D02*
X009242Y008096D01*
X009062Y008000D02*
X009412Y007650D01*
X012962Y007650D01*
X014202Y007622D02*
X014667Y007622D01*
X014667Y007740D02*
X014202Y007740D01*
X014202Y007859D02*
X014701Y007859D01*
X014667Y007825D02*
X014667Y007476D01*
X014721Y007422D01*
X014689Y007403D01*
X014659Y007373D01*
X014638Y007337D01*
X014627Y007296D01*
X014627Y007153D01*
X015159Y007153D01*
X015159Y007148D01*
X014254Y007148D01*
X014202Y007200D02*
X014202Y008910D01*
X014204Y008907D01*
X014234Y008877D01*
X014270Y008856D01*
X014311Y008845D01*
X014528Y008845D01*
X014528Y009240D01*
X014648Y009240D01*
X014648Y008845D01*
X014687Y008845D01*
X014667Y008825D01*
X014667Y008476D01*
X014737Y008405D01*
X015587Y008405D01*
X015592Y008410D01*
X015660Y008410D01*
X015747Y008446D01*
X015747Y008330D01*
X015652Y008330D01*
X015587Y008395D01*
X014737Y008395D01*
X014667Y008325D01*
X014667Y007976D01*
X014737Y007905D01*
X015587Y007905D01*
X015652Y007970D01*
X015747Y007970D01*
X015747Y007921D01*
X015777Y007890D01*
X015592Y007890D01*
X015587Y007895D01*
X014737Y007895D01*
X014667Y007825D01*
X014667Y007977D02*
X014202Y007977D01*
X014202Y008096D02*
X014667Y008096D01*
X014667Y008214D02*
X014202Y008214D01*
X014202Y008333D02*
X014675Y008333D01*
X014691Y008451D02*
X014202Y008451D01*
X014202Y008570D02*
X014667Y008570D01*
X014667Y008688D02*
X014202Y008688D01*
X014202Y008807D02*
X014667Y008807D01*
X014648Y008925D02*
X014528Y008925D01*
X014528Y009044D02*
X014648Y009044D01*
X014648Y009162D02*
X014528Y009162D01*
X014528Y009360D02*
X014528Y009756D01*
X014311Y009756D01*
X014270Y009745D01*
X014234Y009724D01*
X014204Y009694D01*
X014202Y009690D01*
X014202Y011947D01*
X014211Y011945D01*
X014428Y011945D01*
X014428Y012340D01*
X014548Y012340D01*
X014548Y011945D01*
X014687Y011945D01*
X014667Y011925D01*
X014667Y011576D01*
X014737Y011505D01*
X015587Y011505D01*
X015614Y011533D01*
X015647Y011546D01*
X015647Y011490D01*
X015592Y011490D01*
X015587Y011495D01*
X014737Y011495D01*
X014667Y011425D01*
X014667Y011076D01*
X014737Y011005D01*
X015587Y011005D01*
X015592Y011010D01*
X015657Y011010D01*
X015677Y010990D01*
X015592Y010990D01*
X015587Y010995D01*
X014737Y010995D01*
X014667Y010925D01*
X014667Y010576D01*
X014721Y010522D01*
X014689Y010503D01*
X014659Y010473D01*
X014638Y010437D01*
X014627Y010396D01*
X014627Y010253D01*
X015159Y010253D01*
X015159Y010248D01*
X014627Y010248D01*
X014627Y010104D01*
X014638Y010063D01*
X014659Y010027D01*
X014689Y009997D01*
X014725Y009976D01*
X014766Y009965D01*
X015159Y009965D01*
X015159Y010248D01*
X015164Y010248D01*
X015164Y009965D01*
X015558Y009965D01*
X015599Y009976D01*
X015635Y009997D01*
X015665Y010027D01*
X015686Y010063D01*
X015697Y010104D01*
X015697Y010248D01*
X015164Y010248D01*
X015164Y010253D01*
X015697Y010253D01*
X015697Y010396D01*
X015686Y010437D01*
X015665Y010473D01*
X015635Y010503D01*
X015623Y010510D01*
X017012Y010510D01*
X017100Y010423D01*
X017188Y010386D01*
X018578Y010386D01*
X018583Y010388D01*
X018787Y010388D01*
X018822Y010423D01*
X018822Y009740D01*
X017414Y009740D01*
X017326Y009704D01*
X017258Y009636D01*
X017058Y009436D01*
X017023Y009350D01*
X016917Y009350D01*
X016847Y009280D01*
X016847Y009214D01*
X016577Y009214D01*
X016577Y009280D01*
X016507Y009350D01*
X015817Y009350D01*
X015747Y009280D01*
X015747Y009124D01*
X015712Y009090D01*
X015712Y009645D01*
X015642Y009716D01*
X015030Y009716D01*
X014985Y009670D01*
X014972Y009694D01*
X014942Y009724D01*
X014906Y009745D01*
X014865Y009756D01*
X014648Y009756D01*
X014648Y009360D01*
X014528Y009360D01*
X014528Y009399D02*
X014648Y009399D01*
X014648Y009518D02*
X014528Y009518D01*
X014528Y009636D02*
X014648Y009636D01*
X014648Y009755D02*
X014528Y009755D01*
X014308Y009755D02*
X014202Y009755D01*
X014202Y009873D02*
X018822Y009873D01*
X018822Y009755D02*
X014868Y009755D01*
X014698Y009992D02*
X014202Y009992D01*
X014202Y010110D02*
X014627Y010110D01*
X014627Y010229D02*
X014202Y010229D01*
X014202Y010347D02*
X014627Y010347D01*
X014654Y010466D02*
X014202Y010466D01*
X014202Y010584D02*
X014667Y010584D01*
X014667Y010703D02*
X014202Y010703D01*
X014202Y010821D02*
X014667Y010821D01*
X014682Y010940D02*
X014202Y010940D01*
X014202Y011058D02*
X014684Y011058D01*
X014667Y011177D02*
X014202Y011177D01*
X014202Y011295D02*
X014667Y011295D01*
X014667Y011414D02*
X014202Y011414D01*
X014202Y011532D02*
X014710Y011532D01*
X014667Y011651D02*
X014202Y011651D01*
X014202Y011769D02*
X014667Y011769D01*
X014667Y011888D02*
X014202Y011888D01*
X014428Y012006D02*
X014548Y012006D01*
X014548Y012125D02*
X014428Y012125D01*
X014428Y012243D02*
X014548Y012243D01*
X014548Y012460D02*
X014428Y012460D01*
X014428Y012856D01*
X014211Y012856D01*
X014202Y012853D01*
X014202Y014947D01*
X014211Y014945D01*
X014428Y014945D01*
X014428Y015340D01*
X014548Y015340D01*
X014548Y014945D01*
X014687Y014945D01*
X014667Y014925D01*
X014667Y014576D01*
X014737Y014505D01*
X015587Y014505D01*
X015592Y014510D01*
X015647Y014510D01*
X015647Y014490D01*
X015592Y014490D01*
X015587Y014495D01*
X015647Y014495D01*
X015587Y014495D02*
X014737Y014495D01*
X014667Y014425D01*
X014667Y014076D01*
X014737Y014005D01*
X015587Y014005D01*
X015592Y014010D01*
X015657Y014010D01*
X015677Y013990D01*
X015592Y013990D01*
X015587Y013995D01*
X014737Y013995D01*
X014667Y013925D01*
X014667Y013576D01*
X014721Y013522D01*
X014689Y013503D01*
X014659Y013473D01*
X014638Y013437D01*
X014627Y013396D01*
X014627Y013253D01*
X015159Y013253D01*
X015159Y013248D01*
X014627Y013248D01*
X014627Y013104D01*
X014638Y013063D01*
X014659Y013027D01*
X014689Y012997D01*
X014725Y012976D01*
X014766Y012965D01*
X015159Y012965D01*
X015159Y013248D01*
X015164Y013248D01*
X015164Y012965D01*
X015558Y012965D01*
X015599Y012976D01*
X015635Y012997D01*
X015665Y013027D01*
X015686Y013063D01*
X015697Y013104D01*
X015697Y013248D01*
X015164Y013248D01*
X015164Y013253D01*
X015697Y013253D01*
X015697Y013396D01*
X015686Y013437D01*
X015665Y013473D01*
X015635Y013503D01*
X015623Y013510D01*
X017012Y013510D01*
X017100Y013423D01*
X017188Y013386D01*
X018578Y013386D01*
X018583Y013388D01*
X018787Y013388D01*
X018822Y013423D01*
X018822Y012940D01*
X016314Y012940D01*
X016226Y012904D01*
X015858Y012536D01*
X015823Y012450D01*
X015717Y012450D01*
X015647Y012380D01*
X015647Y012212D01*
X015626Y012204D01*
X015612Y012190D01*
X015612Y012745D01*
X015542Y012816D01*
X014930Y012816D01*
X014885Y012770D01*
X014872Y012794D01*
X014842Y012824D01*
X014806Y012845D01*
X014765Y012856D01*
X014548Y012856D01*
X014548Y012460D01*
X014548Y012480D02*
X014428Y012480D01*
X014428Y012599D02*
X014548Y012599D01*
X014548Y012717D02*
X014428Y012717D01*
X014428Y012836D02*
X014548Y012836D01*
X014635Y013073D02*
X014202Y013073D01*
X014202Y013191D02*
X014627Y013191D01*
X014627Y013310D02*
X014202Y013310D01*
X014202Y013428D02*
X014635Y013428D01*
X014696Y013547D02*
X014202Y013547D01*
X014202Y013665D02*
X014667Y013665D01*
X014667Y013784D02*
X014202Y013784D01*
X014202Y013902D02*
X014667Y013902D01*
X014722Y014021D02*
X014202Y014021D01*
X014202Y014139D02*
X014667Y014139D01*
X014667Y014258D02*
X014202Y014258D01*
X014202Y014376D02*
X014667Y014376D01*
X014737Y014495D02*
X014202Y014495D01*
X014202Y014613D02*
X014667Y014613D01*
X014667Y014732D02*
X014202Y014732D01*
X014202Y014850D02*
X014667Y014850D01*
X014548Y014969D02*
X014428Y014969D01*
X014428Y015087D02*
X014548Y015087D01*
X014548Y015206D02*
X014428Y015206D01*
X014428Y015324D02*
X014548Y015324D01*
X014548Y015561D02*
X014428Y015561D01*
X014428Y015680D02*
X014548Y015680D01*
X014548Y015798D02*
X014428Y015798D01*
X014218Y015917D02*
X015864Y015917D01*
X015881Y015798D02*
X015559Y015798D01*
X015612Y015680D02*
X015961Y015680D01*
X016162Y015900D02*
X016362Y016100D01*
X016362Y017000D01*
X016162Y017200D01*
X015322Y017200D01*
X015272Y017250D01*
X014822Y017000D02*
X015722Y017000D01*
X014822Y017000D01*
X014805Y016983D02*
X014676Y016983D01*
X014676Y016865D02*
X014752Y016865D01*
X014752Y016746D02*
X014676Y016746D01*
X014676Y016628D02*
X014752Y016628D01*
X014813Y016509D02*
X014676Y016509D01*
X014661Y016391D02*
X016182Y016391D01*
X016182Y016272D02*
X014573Y016272D01*
X014455Y016154D02*
X015995Y016154D01*
X015895Y016035D02*
X014336Y016035D01*
X014013Y016391D02*
X011926Y016391D01*
X011807Y016509D02*
X012337Y016509D01*
X012324Y016522D02*
X012354Y016492D01*
X012390Y016471D01*
X012431Y016460D01*
X012847Y016460D01*
X012847Y016745D01*
X012292Y016745D01*
X012292Y016599D01*
X012303Y016558D01*
X012324Y016522D01*
X012292Y016628D02*
X011557Y016628D01*
X011557Y016580D02*
X011557Y016805D01*
X011486Y016875D01*
X010757Y016875D01*
X010687Y016805D01*
X010687Y015996D01*
X010757Y015925D01*
X011486Y015925D01*
X011557Y015996D01*
X011557Y016220D01*
X011587Y016220D01*
X011864Y015944D01*
X011864Y015841D01*
X011909Y015731D01*
X011993Y015648D01*
X012103Y015602D01*
X012221Y015602D01*
X012331Y015648D01*
X012415Y015731D01*
X012460Y015841D01*
X012460Y015960D01*
X012415Y016069D01*
X012331Y016153D01*
X012221Y016198D01*
X012118Y016198D01*
X011736Y016580D01*
X011557Y016580D01*
X011557Y016746D02*
X012847Y016746D01*
X012857Y016746D02*
X013661Y016746D01*
X013669Y016628D02*
X013412Y016628D01*
X013367Y016509D02*
X013731Y016509D01*
X013895Y016272D02*
X012044Y016272D01*
X012329Y016154D02*
X013776Y016154D01*
X013722Y016035D02*
X012429Y016035D01*
X012460Y015917D02*
X013722Y015917D01*
X013722Y015798D02*
X012442Y015798D01*
X012363Y015680D02*
X013722Y015680D01*
X013722Y015561D02*
X010860Y015561D01*
X010852Y015680D02*
X011961Y015680D01*
X011881Y015798D02*
X010785Y015798D01*
X010687Y016035D02*
X010437Y016035D01*
X010437Y016154D02*
X010687Y016154D01*
X010687Y016272D02*
X010437Y016272D01*
X010437Y016391D02*
X010687Y016391D01*
X010687Y016509D02*
X010437Y016509D01*
X010437Y016628D02*
X010687Y016628D01*
X010687Y016746D02*
X010437Y016746D01*
X010377Y016865D02*
X010747Y016865D01*
X010699Y016983D02*
X010425Y016983D01*
X010437Y017102D02*
X010687Y017102D01*
X010687Y017220D02*
X010437Y017220D01*
X010437Y017339D02*
X010687Y017339D01*
X010687Y017457D02*
X010437Y017457D01*
X010437Y017576D02*
X010687Y017576D01*
X010687Y017694D02*
X010437Y017694D01*
X010429Y017813D02*
X010695Y017813D01*
X011122Y017400D02*
X011562Y017400D01*
X011912Y017750D01*
X012852Y017750D01*
X012852Y017250D02*
X013412Y017250D01*
X013962Y016700D01*
X014058Y016983D02*
X014196Y016983D01*
X014196Y017102D02*
X013815Y017102D01*
X013696Y017220D02*
X014196Y017220D01*
X014196Y017339D02*
X013578Y017339D01*
X013345Y017457D02*
X014196Y017457D01*
X014196Y017576D02*
X013372Y017576D01*
X013372Y017694D02*
X014196Y017694D01*
X014196Y017813D02*
X013372Y017813D01*
X013371Y017931D02*
X014196Y017931D01*
X014196Y018050D02*
X013351Y018050D01*
X013302Y018000D02*
X012402Y018000D01*
X013302Y018000D01*
X013372Y018168D02*
X014196Y018168D01*
X014196Y018287D02*
X013372Y018287D01*
X013372Y018405D02*
X014196Y018405D01*
X014196Y018524D02*
X013325Y018524D01*
X013372Y018642D02*
X014196Y018642D01*
X014196Y018761D02*
X013372Y018761D01*
X013372Y018879D02*
X014196Y018879D01*
X014196Y018998D02*
X013304Y018998D01*
X013302Y019000D02*
X012402Y019000D01*
X013302Y019000D01*
X013372Y019116D02*
X014196Y019116D01*
X014196Y019235D02*
X013372Y019235D01*
X013372Y019353D02*
X014196Y019353D01*
X014196Y019472D02*
X013330Y019472D01*
X013302Y019500D02*
X012402Y019500D01*
X012332Y019430D01*
X011557Y019430D01*
X011557Y019620D01*
X012187Y019620D01*
X012237Y019570D01*
X012332Y019570D01*
X012402Y019500D01*
X013302Y019500D01*
X013372Y019590D02*
X014196Y019590D01*
X014196Y019709D02*
X013372Y019709D01*
X013372Y019827D02*
X013642Y019827D01*
X013593Y019848D02*
X013703Y019802D01*
X013821Y019802D01*
X013931Y019848D01*
X014015Y019931D01*
X014060Y020041D01*
X014060Y020160D01*
X014015Y020269D01*
X013931Y020353D01*
X013821Y020398D01*
X013718Y020398D01*
X013686Y020430D01*
X013372Y020430D01*
X013302Y020500D01*
X012402Y020500D01*
X012332Y020430D01*
X012332Y020071D01*
X012402Y020000D01*
X013302Y020000D01*
X013372Y020070D01*
X013464Y020070D01*
X013464Y020041D01*
X013509Y019931D01*
X013593Y019848D01*
X013503Y019946D02*
X013356Y019946D01*
X013366Y020064D02*
X013464Y020064D01*
X013612Y020250D02*
X013762Y020100D01*
X013612Y020250D02*
X012852Y020250D01*
X012852Y019750D02*
X012312Y019750D01*
X012262Y019800D01*
X011122Y019800D01*
X011557Y019590D02*
X012217Y019590D01*
X012374Y019472D02*
X011557Y019472D01*
X011557Y020064D02*
X012338Y020064D01*
X012332Y020183D02*
X011557Y020183D01*
X011251Y020420D02*
X012332Y020420D01*
X012332Y020301D02*
X011185Y020301D01*
X011260Y020538D02*
X014196Y020538D01*
X014196Y020420D02*
X013697Y020420D01*
X013628Y020545D02*
X013628Y020940D01*
X013272Y020940D01*
X013272Y020684D01*
X013283Y020643D01*
X013304Y020607D01*
X013334Y020577D01*
X013370Y020556D01*
X013411Y020545D01*
X013628Y020545D01*
X013628Y020657D02*
X013748Y020657D01*
X013748Y020775D02*
X013628Y020775D01*
X013628Y020894D02*
X013748Y020894D01*
X013628Y021012D02*
X007666Y021012D01*
X007698Y020981D02*
X007487Y021192D01*
X007211Y021306D01*
X006913Y021306D01*
X006637Y021192D01*
X006426Y020981D01*
X006311Y020705D01*
X006311Y020406D01*
X006426Y020130D01*
X006637Y019919D01*
X006913Y019805D01*
X007211Y019805D01*
X007487Y019919D01*
X007698Y020130D01*
X007812Y020406D01*
X007812Y020705D01*
X007698Y020981D01*
X007734Y020894D02*
X013272Y020894D01*
X013272Y020775D02*
X011077Y020775D01*
X011220Y020657D02*
X013279Y020657D01*
X013272Y021060D02*
X013628Y021060D01*
X013628Y021456D01*
X013411Y021456D01*
X013370Y021445D01*
X013334Y021424D01*
X013304Y021394D01*
X013283Y021357D01*
X013272Y021317D01*
X013272Y021060D01*
X013272Y021131D02*
X007548Y021131D01*
X007348Y021249D02*
X013272Y021249D01*
X013289Y021368D02*
X004222Y021368D01*
X004222Y021486D02*
X018166Y021486D01*
X018166Y021556D02*
X018166Y021356D01*
X018177Y021316D01*
X018198Y021279D01*
X018227Y021249D01*
X018264Y021228D01*
X018305Y021217D01*
X018504Y021217D01*
X018504Y021556D01*
X018166Y021556D01*
X018166Y021672D02*
X018504Y021672D01*
X018504Y022010D01*
X018305Y022010D01*
X018264Y021999D01*
X018227Y021978D01*
X018198Y021948D01*
X018177Y021912D01*
X018166Y021871D01*
X018166Y021672D01*
X018166Y021723D02*
X004222Y021723D01*
X004222Y021605D02*
X018504Y021605D01*
X018504Y021556D02*
X018504Y021672D01*
X018620Y021672D01*
X018620Y022010D01*
X018819Y022010D01*
X018860Y021999D01*
X018896Y021978D01*
X018926Y021948D01*
X018947Y021912D01*
X018958Y021871D01*
X018958Y021672D01*
X018620Y021672D01*
X018620Y021556D01*
X018958Y021556D01*
X018958Y021356D01*
X018947Y021316D01*
X018926Y021279D01*
X018896Y021249D01*
X023193Y021249D01*
X023193Y021131D02*
X018860Y021131D01*
X018819Y021217D02*
X018620Y021217D01*
X018620Y021556D01*
X018504Y021556D01*
X018504Y021486D02*
X018620Y021486D01*
X018620Y021368D02*
X018504Y021368D01*
X018504Y021249D02*
X018620Y021249D01*
X018819Y021217D02*
X018860Y021228D01*
X018896Y021249D01*
X018958Y021368D02*
X023193Y021368D01*
X023193Y021486D02*
X018958Y021486D01*
X018958Y021723D02*
X023193Y021723D01*
X023193Y021605D02*
X018620Y021605D01*
X018620Y021723D02*
X018504Y021723D01*
X018504Y021842D02*
X018620Y021842D01*
X018620Y021960D02*
X018504Y021960D01*
X018210Y021960D02*
X004222Y021960D01*
X004222Y021842D02*
X018166Y021842D01*
X018166Y021368D02*
X014789Y021368D01*
X014812Y021249D02*
X018228Y021249D01*
X018264Y021131D02*
X014812Y021131D01*
X014812Y021012D02*
X018206Y021012D01*
X018206Y020894D02*
X014812Y020894D01*
X014812Y020775D02*
X018206Y020775D01*
X018206Y020657D02*
X014812Y020657D01*
X014676Y020538D02*
X018206Y020538D01*
X018322Y020420D02*
X015792Y020420D01*
X015792Y020301D02*
X018168Y020301D01*
X018147Y020183D02*
X015792Y020183D01*
X015786Y020064D02*
X015871Y020064D01*
X016062Y020000D02*
X016862Y020000D01*
X017162Y019700D01*
X017162Y019000D01*
X016889Y018879D02*
X015792Y018879D01*
X015792Y018761D02*
X016980Y018761D01*
X016864Y018998D02*
X015724Y018998D01*
X015722Y019000D02*
X014822Y019000D01*
X015722Y019000D01*
X015792Y019116D02*
X016887Y019116D01*
X016975Y019235D02*
X015792Y019235D01*
X015792Y019353D02*
X016982Y019353D01*
X016982Y019472D02*
X015750Y019472D01*
X015906Y019590D02*
X016982Y019590D01*
X016899Y019709D02*
X016025Y019709D01*
X015812Y019750D02*
X016062Y020000D01*
X017052Y020064D02*
X018147Y020064D01*
X018147Y019946D02*
X017171Y019946D01*
X017289Y019827D02*
X018147Y019827D01*
X018147Y019709D02*
X017342Y019709D01*
X017342Y019590D02*
X018205Y019590D01*
X018147Y019472D02*
X017342Y019472D01*
X017342Y019353D02*
X018147Y019353D01*
X018147Y019235D02*
X017349Y019235D01*
X017436Y019116D02*
X018147Y019116D01*
X018147Y018998D02*
X017460Y018998D01*
X017434Y018879D02*
X018188Y018879D01*
X018215Y018642D02*
X018822Y018642D01*
X018822Y018524D02*
X018277Y018524D01*
X018822Y018761D02*
X017344Y018761D01*
X017415Y018642D02*
X017509Y018642D01*
X016709Y018642D02*
X015792Y018642D01*
X015745Y018524D02*
X016647Y018524D01*
X016647Y018405D02*
X015792Y018405D01*
X015792Y018287D02*
X016647Y018287D01*
X016647Y018168D02*
X015792Y018168D01*
X015771Y018050D02*
X016647Y018050D01*
X016684Y017931D02*
X015791Y017931D01*
X015792Y017570D02*
X016237Y017570D01*
X016382Y017426D01*
X016382Y017235D01*
X016342Y017275D01*
X016236Y017380D01*
X015792Y017380D01*
X015792Y017430D01*
X015722Y017500D01*
X014822Y017500D01*
X015722Y017500D01*
X015792Y017570D01*
X015765Y017457D02*
X016350Y017457D01*
X016382Y017339D02*
X016278Y017339D01*
X016562Y017500D02*
X016312Y017750D01*
X015272Y017750D01*
X014752Y017694D02*
X014676Y017694D01*
X014676Y017576D02*
X014752Y017576D01*
X014779Y017457D02*
X014676Y017457D01*
X014676Y017339D02*
X014752Y017339D01*
X014752Y017220D02*
X014676Y017220D01*
X014676Y017102D02*
X014752Y017102D01*
X015272Y016750D02*
X015912Y016750D01*
X015962Y016700D01*
X016182Y016902D02*
X016131Y016953D01*
X016021Y016998D01*
X015903Y016998D01*
X015793Y016953D01*
X015781Y016941D01*
X015722Y017000D01*
X015742Y017020D01*
X016087Y017020D01*
X016182Y016926D01*
X016182Y016902D01*
X016124Y016983D02*
X016058Y016983D01*
X015866Y016983D02*
X015739Y016983D01*
X015731Y016509D02*
X015731Y016509D01*
X014913Y015798D02*
X014867Y015798D01*
X015612Y015561D02*
X016264Y015561D01*
X016562Y015600D02*
X016562Y017500D01*
X016622Y017694D02*
X016647Y017694D01*
X016647Y017813D02*
X016504Y017813D01*
X017062Y017526D02*
X017062Y016900D01*
X017336Y016626D01*
X018530Y016626D01*
X018274Y016388D02*
X018787Y016388D01*
X018822Y016423D01*
X018822Y015840D01*
X017314Y015840D01*
X017226Y015804D01*
X017158Y015736D01*
X016958Y015536D01*
X016923Y015450D01*
X016822Y015450D01*
X016860Y015541D01*
X016860Y015660D01*
X016815Y015769D01*
X016742Y015842D01*
X016742Y017150D01*
X016882Y017150D01*
X016882Y017142D01*
X016809Y017069D01*
X016764Y016960D01*
X016764Y016841D01*
X016809Y016731D01*
X016893Y016648D01*
X017003Y016602D01*
X017105Y016602D01*
X017156Y016552D01*
X017261Y016446D01*
X018216Y016446D01*
X018274Y016388D01*
X018271Y016391D02*
X016742Y016391D01*
X016742Y016509D02*
X017198Y016509D01*
X016941Y016628D02*
X016742Y016628D01*
X016742Y016746D02*
X016803Y016746D01*
X016764Y016865D02*
X016742Y016865D01*
X016742Y016983D02*
X016774Y016983D01*
X016742Y017102D02*
X016842Y017102D01*
X017242Y017142D02*
X017315Y017069D01*
X017360Y016960D01*
X017360Y016857D01*
X017410Y016806D01*
X018183Y016806D01*
X018175Y016820D01*
X018164Y016861D01*
X018164Y017000D01*
X018530Y017000D01*
X018530Y017000D01*
X018164Y017000D01*
X018164Y017139D01*
X018167Y017150D01*
X017517Y017150D01*
X017462Y017205D01*
X017407Y017150D01*
X017242Y017150D01*
X017242Y017142D01*
X017282Y017102D02*
X018164Y017102D01*
X018164Y016983D02*
X017350Y016983D01*
X017360Y016865D02*
X018164Y016865D01*
X018789Y016391D02*
X018822Y016391D01*
X018822Y016272D02*
X016742Y016272D01*
X016742Y016154D02*
X018822Y016154D01*
X018822Y016035D02*
X016742Y016035D01*
X016742Y015917D02*
X018822Y015917D01*
X019302Y015917D02*
X023193Y015917D01*
X023193Y016035D02*
X019302Y016035D01*
X019302Y016154D02*
X020513Y016154D01*
X020512Y016272D02*
X019302Y016272D01*
X019302Y016391D02*
X019334Y016391D01*
X019593Y016626D02*
X020762Y016626D01*
X020888Y016500D01*
X020512Y016391D02*
X019852Y016391D01*
X019908Y016806D02*
X019901Y016813D01*
X019920Y016832D01*
X019920Y017168D01*
X019901Y017187D01*
X019908Y017194D01*
X020512Y017194D01*
X020512Y016955D01*
X020567Y016900D01*
X020512Y016845D01*
X020512Y016806D01*
X019908Y016806D01*
X019920Y016865D02*
X020532Y016865D01*
X020512Y016983D02*
X019920Y016983D01*
X019920Y017102D02*
X020512Y017102D01*
X020814Y017374D02*
X020888Y017300D01*
X020814Y017374D02*
X019593Y017374D01*
X020288Y017576D02*
X020512Y017576D01*
X020561Y017694D02*
X020352Y017694D01*
X020352Y017813D02*
X023193Y017813D01*
X023193Y017931D02*
X020352Y017931D01*
X020352Y018168D02*
X023193Y018168D01*
X023193Y018050D02*
X019996Y018050D01*
X019996Y018168D02*
X019876Y018168D01*
X019876Y018287D02*
X019996Y018287D01*
X019996Y018405D02*
X019876Y018405D01*
X019563Y018405D02*
X019504Y018405D01*
X019302Y018524D02*
X023193Y018524D01*
X023193Y018642D02*
X019302Y018642D01*
X019302Y018761D02*
X023193Y018761D01*
X023193Y018879D02*
X019302Y018879D01*
X019281Y018998D02*
X023193Y018998D01*
X023193Y019116D02*
X019185Y019116D01*
X019067Y019235D02*
X023193Y019235D01*
X023193Y019353D02*
X018977Y019353D01*
X018977Y019472D02*
X023193Y019472D01*
X023193Y019590D02*
X018919Y019590D01*
X018977Y019709D02*
X023193Y019709D01*
X023193Y019827D02*
X018977Y019827D01*
X018977Y019946D02*
X023193Y019946D01*
X023193Y020064D02*
X018977Y020064D01*
X018977Y020183D02*
X023193Y020183D01*
X023193Y020301D02*
X018956Y020301D01*
X018802Y020420D02*
X023193Y020420D01*
X023193Y020538D02*
X018918Y020538D01*
X018918Y020657D02*
X023193Y020657D01*
X023193Y020775D02*
X018918Y020775D01*
X018918Y020894D02*
X023193Y020894D01*
X023193Y021012D02*
X018918Y021012D01*
X018958Y021842D02*
X023193Y021842D01*
X023193Y021960D02*
X018914Y021960D01*
X015722Y018500D02*
X014822Y018500D01*
X015722Y018500D01*
X014820Y018998D02*
X014676Y018998D01*
X014676Y019116D02*
X014752Y019116D01*
X014752Y019235D02*
X014676Y019235D01*
X014676Y019353D02*
X014752Y019353D01*
X014794Y019472D02*
X014676Y019472D01*
X014676Y019590D02*
X014714Y019590D01*
X014712Y019709D02*
X014676Y019709D01*
X014676Y019827D02*
X014712Y019827D01*
X014725Y019946D02*
X014676Y019946D01*
X014196Y019946D02*
X014021Y019946D01*
X014060Y020064D02*
X014196Y020064D01*
X014196Y020183D02*
X014050Y020183D01*
X013982Y020301D02*
X014196Y020301D01*
X014196Y019827D02*
X013882Y019827D01*
X012852Y019250D02*
X009812Y019250D01*
X008662Y018100D01*
X008662Y016800D01*
X008363Y016501D01*
X008062Y016501D01*
X008223Y016865D02*
X008472Y016865D01*
X008482Y016983D02*
X007459Y016983D01*
X007459Y017030D02*
X007399Y017176D01*
X007287Y017288D01*
X007141Y017349D01*
X006983Y017349D01*
X006837Y017288D01*
X006725Y017176D01*
X006665Y017030D01*
X006665Y016872D01*
X006725Y016726D01*
X006837Y016615D01*
X006983Y016554D01*
X007141Y016554D01*
X007287Y016615D01*
X007399Y016726D01*
X007459Y016872D01*
X007459Y017030D01*
X007430Y017102D02*
X007800Y017102D01*
X007707Y017220D02*
X007355Y017220D01*
X007165Y017339D02*
X007665Y017339D01*
X007665Y017457D02*
X007148Y017457D01*
X007141Y017454D02*
X007287Y017515D01*
X007399Y017626D01*
X007459Y017772D01*
X007459Y017930D01*
X007399Y018076D01*
X007287Y018188D01*
X007141Y018249D01*
X006983Y018249D01*
X006837Y018188D01*
X006725Y018076D01*
X006665Y017930D01*
X006665Y017772D01*
X006725Y017626D01*
X006837Y017515D01*
X006983Y017454D01*
X007141Y017454D01*
X006976Y017457D02*
X006459Y017457D01*
X006459Y017480D02*
X006399Y017626D01*
X006287Y017738D01*
X006141Y017799D01*
X005983Y017799D01*
X005837Y017738D01*
X005740Y017641D01*
X005415Y017641D01*
X005327Y017605D01*
X004426Y016704D01*
X004358Y016636D01*
X004322Y016548D01*
X004322Y009682D01*
X004309Y009669D01*
X004264Y009560D01*
X004264Y009441D01*
X004309Y009331D01*
X004393Y009248D01*
X004503Y009202D01*
X004621Y009202D01*
X004731Y009248D01*
X004815Y009331D01*
X004860Y009441D01*
X004860Y009560D01*
X004815Y009669D01*
X004802Y009682D01*
X004802Y016401D01*
X005562Y017161D01*
X005740Y017161D01*
X005837Y017065D01*
X005983Y017004D01*
X006141Y017004D01*
X006287Y017065D01*
X006399Y017176D01*
X006459Y017322D01*
X006459Y017480D01*
X006420Y017576D02*
X006776Y017576D01*
X006697Y017694D02*
X006331Y017694D01*
X006459Y017339D02*
X006959Y017339D01*
X006769Y017220D02*
X006417Y017220D01*
X006324Y017102D02*
X006694Y017102D01*
X006665Y016983D02*
X005384Y016983D01*
X005266Y016865D02*
X005901Y016865D01*
X005745Y016746D02*
X005147Y016746D01*
X005029Y016628D02*
X005684Y016628D01*
X005665Y016509D02*
X004910Y016509D01*
X004802Y016391D02*
X005678Y016391D01*
X005729Y016272D02*
X004802Y016272D01*
X004802Y016154D02*
X005863Y016154D01*
X005816Y015917D02*
X004802Y015917D01*
X004802Y016035D02*
X006272Y016035D01*
X006308Y015917D02*
X006382Y015917D01*
X006562Y016000D02*
X006562Y014900D01*
X006762Y014700D01*
X007262Y014700D01*
X007762Y014200D01*
X008262Y014200D01*
X008962Y014900D01*
X010188Y014900D01*
X009812Y014720D02*
X009812Y014555D01*
X009882Y014485D01*
X010493Y014485D01*
X010562Y014553D01*
X010630Y014485D01*
X011242Y014485D01*
X011312Y014555D01*
X011312Y014570D01*
X012472Y014570D01*
X012537Y014505D01*
X013387Y014505D01*
X013457Y014576D01*
X013387Y014495D02*
X012537Y014495D01*
X012472Y014430D01*
X011537Y014430D01*
X011487Y014380D01*
X009003Y014380D01*
X008931Y014453D01*
X008821Y014498D01*
X008815Y014498D01*
X009036Y014720D01*
X009812Y014720D01*
X009812Y014613D02*
X008929Y014613D01*
X008830Y014495D02*
X009872Y014495D01*
X009869Y013902D02*
X008822Y013902D01*
X008702Y013902D02*
X008450Y013902D01*
X008459Y013784D02*
X009812Y013784D01*
X009812Y013665D02*
X009701Y013665D01*
X009423Y013665D02*
X008435Y013665D01*
X008401Y014021D02*
X008520Y014021D01*
X008464Y014139D02*
X008455Y014139D01*
X008762Y014200D02*
X011562Y014200D01*
X011612Y014250D01*
X012962Y014250D01*
X013402Y014021D02*
X013722Y014021D01*
X013722Y014139D02*
X013457Y014139D01*
X013457Y014258D02*
X013722Y014258D01*
X013722Y014376D02*
X013457Y014376D01*
X013457Y014732D02*
X013722Y014732D01*
X013722Y014850D02*
X013457Y014850D01*
X013413Y014969D02*
X013722Y014969D01*
X013722Y015087D02*
X011312Y015087D01*
X011312Y014969D02*
X012511Y014969D01*
X012537Y014495D02*
X011251Y014495D01*
X011086Y014750D02*
X010936Y014900D01*
X011086Y014750D02*
X012962Y014750D01*
X012522Y014021D02*
X011637Y014021D01*
X011742Y013902D02*
X011255Y013902D01*
X011312Y013784D02*
X011674Y013784D01*
X011664Y013665D02*
X011651Y013665D01*
X011562Y013500D02*
X010936Y013500D01*
X011312Y013310D02*
X011498Y013310D01*
X011616Y013191D02*
X011312Y013191D01*
X011735Y013073D02*
X009544Y013073D01*
X009775Y013191D02*
X009812Y013191D01*
X009562Y013400D02*
X010088Y013400D01*
X010188Y013500D01*
X010507Y013902D02*
X010617Y013902D01*
X010620Y014495D02*
X010503Y014495D01*
X009812Y015087D02*
X008168Y015087D01*
X008145Y015206D02*
X009812Y015206D01*
X010146Y015561D02*
X008577Y015561D01*
X008459Y015443D02*
X010265Y015443D01*
X010362Y015600D02*
X010002Y015960D01*
X010002Y016400D01*
X009567Y016391D02*
X009407Y016391D01*
X009442Y016509D02*
X009567Y016509D01*
X009567Y016628D02*
X009442Y016628D01*
X009442Y016746D02*
X009567Y016746D01*
X009627Y016865D02*
X009442Y016865D01*
X009499Y016983D02*
X009579Y016983D01*
X009262Y017000D02*
X009662Y017400D01*
X010002Y017400D01*
X009567Y017576D02*
X009042Y017576D01*
X009042Y017694D02*
X009567Y017694D01*
X009575Y017813D02*
X009042Y017813D01*
X009047Y017931D02*
X012333Y017931D01*
X012353Y018050D02*
X009166Y018050D01*
X009112Y018250D02*
X012852Y018250D01*
X012379Y018524D02*
X009340Y018524D01*
X009458Y018642D02*
X012332Y018642D01*
X012332Y018761D02*
X009577Y018761D01*
X009695Y018879D02*
X012332Y018879D01*
X012400Y018998D02*
X009814Y018998D01*
X009542Y019235D02*
X009251Y019235D01*
X009369Y019353D02*
X009609Y019353D01*
X009567Y019472D02*
X009488Y019472D01*
X009216Y019709D02*
X004222Y019709D01*
X004222Y019827D02*
X006858Y019827D01*
X006610Y019946D02*
X004222Y019946D01*
X004222Y020064D02*
X006492Y020064D01*
X006404Y020183D02*
X004222Y020183D01*
X004222Y020301D02*
X006355Y020301D01*
X006311Y020420D02*
X004222Y020420D01*
X004222Y020538D02*
X006311Y020538D01*
X006311Y020657D02*
X004222Y020657D01*
X004222Y020775D02*
X006341Y020775D01*
X006390Y020894D02*
X004222Y020894D01*
X004222Y021012D02*
X006457Y021012D01*
X006576Y021131D02*
X004222Y021131D01*
X004222Y021249D02*
X006776Y021249D01*
X007783Y020775D02*
X010847Y020775D01*
X010962Y020500D02*
X010262Y020500D01*
X010062Y020300D01*
X010062Y019860D01*
X010002Y019800D01*
X009562Y019800D01*
X008062Y018300D01*
X008062Y017401D01*
X008324Y017102D02*
X008482Y017102D01*
X008482Y017220D02*
X008417Y017220D01*
X008459Y017339D02*
X008482Y017339D01*
X008482Y017457D02*
X008459Y017457D01*
X008482Y017576D02*
X008420Y017576D01*
X008482Y017694D02*
X008331Y017694D01*
X008242Y017813D02*
X008482Y017813D01*
X008482Y017931D02*
X008242Y017931D01*
X008242Y018050D02*
X008482Y018050D01*
X008482Y018168D02*
X008242Y018168D01*
X008303Y018287D02*
X008594Y018287D01*
X008587Y018280D02*
X008587Y018280D01*
X008712Y018405D02*
X008421Y018405D01*
X008540Y018524D02*
X008831Y018524D01*
X008949Y018642D02*
X008658Y018642D01*
X008777Y018761D02*
X009068Y018761D01*
X009186Y018879D02*
X008895Y018879D01*
X009014Y018998D02*
X009305Y018998D01*
X009423Y019116D02*
X009132Y019116D01*
X008742Y019235D02*
X004222Y019235D01*
X004222Y019353D02*
X008860Y019353D01*
X008979Y019472D02*
X004222Y019472D01*
X004222Y019590D02*
X009097Y019590D01*
X009334Y019827D02*
X007265Y019827D01*
X007514Y019946D02*
X009453Y019946D01*
X009567Y020064D02*
X007632Y020064D01*
X007720Y020183D02*
X009567Y020183D01*
X009882Y020301D02*
X007769Y020301D01*
X007812Y020420D02*
X009927Y020420D01*
X010045Y020538D02*
X007812Y020538D01*
X007812Y020657D02*
X010164Y020657D01*
X008623Y019116D02*
X004222Y019116D01*
X004222Y018998D02*
X008505Y018998D01*
X008386Y018879D02*
X004222Y018879D01*
X004222Y018761D02*
X008268Y018761D01*
X008149Y018642D02*
X004222Y018642D01*
X004222Y018524D02*
X008031Y018524D01*
X007912Y018405D02*
X004222Y018405D01*
X004222Y018287D02*
X007882Y018287D01*
X007882Y018168D02*
X007307Y018168D01*
X007410Y018050D02*
X007882Y018050D01*
X007882Y017931D02*
X007459Y017931D01*
X007459Y017813D02*
X007882Y017813D01*
X007793Y017694D02*
X007427Y017694D01*
X007348Y017576D02*
X007704Y017576D01*
X007901Y016865D02*
X007456Y016865D01*
X007407Y016746D02*
X007745Y016746D01*
X007684Y016628D02*
X007300Y016628D01*
X007280Y016391D02*
X007678Y016391D01*
X007665Y016509D02*
X006459Y016509D01*
X006446Y016391D02*
X006843Y016391D01*
X006723Y016272D02*
X006544Y016272D01*
X006663Y016154D02*
X006674Y016154D01*
X006562Y016000D02*
X006062Y016500D01*
X006062Y016501D01*
X006223Y016865D02*
X006668Y016865D01*
X006717Y016746D02*
X006379Y016746D01*
X006439Y016628D02*
X006824Y016628D01*
X007400Y016272D02*
X007729Y016272D01*
X007661Y016154D02*
X007449Y016154D01*
X007459Y016035D02*
X007542Y016035D01*
X007762Y016000D02*
X008162Y016000D01*
X008862Y016700D01*
X008862Y018000D01*
X009112Y018250D01*
X009042Y017457D02*
X009464Y017457D01*
X009346Y017339D02*
X009042Y017339D01*
X009042Y017220D02*
X009227Y017220D01*
X009109Y017102D02*
X009042Y017102D01*
X009042Y016983D02*
X009082Y016983D01*
X009082Y016865D02*
X009042Y016865D01*
X009042Y016746D02*
X009082Y016746D01*
X009082Y016628D02*
X009042Y016628D01*
X009016Y016509D02*
X008925Y016509D01*
X008898Y016391D02*
X008807Y016391D01*
X008779Y016272D02*
X008688Y016272D01*
X008661Y016154D02*
X008570Y016154D01*
X008542Y016035D02*
X008451Y016035D01*
X008424Y015917D02*
X008333Y015917D01*
X008363Y015601D02*
X008062Y015601D01*
X008363Y015601D02*
X009262Y016500D01*
X009262Y017000D01*
X009288Y016272D02*
X009567Y016272D01*
X009567Y016154D02*
X009170Y016154D01*
X009051Y016035D02*
X009567Y016035D01*
X009822Y015917D02*
X008933Y015917D01*
X008814Y015798D02*
X009909Y015798D01*
X010028Y015680D02*
X008696Y015680D01*
X008346Y015324D02*
X010449Y015324D01*
X010675Y015324D02*
X013722Y015324D01*
X013722Y015206D02*
X011312Y015206D01*
X010819Y015443D02*
X013722Y015443D01*
X012857Y016509D02*
X012847Y016509D01*
X012847Y016628D02*
X012857Y016628D01*
X012292Y016865D02*
X011497Y016865D01*
X011544Y016983D02*
X012329Y016983D01*
X012332Y017102D02*
X011557Y017102D01*
X011636Y017220D02*
X012332Y017220D01*
X012332Y017339D02*
X011755Y017339D01*
X011873Y017457D02*
X012359Y017457D01*
X011720Y017813D02*
X011549Y017813D01*
X011557Y017694D02*
X011601Y017694D01*
X011662Y016400D02*
X011122Y016400D01*
X011557Y016154D02*
X011654Y016154D01*
X011557Y016035D02*
X011772Y016035D01*
X011864Y015917D02*
X010300Y015917D01*
X010362Y015600D02*
X010562Y015600D01*
X011662Y016400D02*
X012162Y015900D01*
X013375Y016983D02*
X013424Y016983D01*
X013412Y016865D02*
X013543Y016865D01*
X014676Y017813D02*
X014752Y017813D01*
X014753Y017931D02*
X014676Y017931D01*
X014676Y018050D02*
X014773Y018050D01*
X014752Y018168D02*
X014676Y018168D01*
X014676Y018287D02*
X014752Y018287D01*
X014752Y018405D02*
X014676Y018405D01*
X014676Y018524D02*
X014799Y018524D01*
X014752Y018642D02*
X014676Y018642D01*
X014676Y018761D02*
X014752Y018761D01*
X014752Y018879D02*
X014676Y018879D01*
X013748Y021131D02*
X013628Y021131D01*
X013628Y021249D02*
X013748Y021249D01*
X013748Y021368D02*
X013628Y021368D01*
X017862Y017526D02*
X018014Y017374D01*
X018530Y017374D01*
X018530Y017632D01*
X018462Y017700D01*
X019014Y018048D02*
X019062Y018000D01*
X020308Y018405D02*
X023193Y018405D01*
X023193Y018287D02*
X020352Y018287D01*
X021215Y017694D02*
X021309Y017694D01*
X021636Y017300D02*
X022362Y017300D01*
X022585Y017102D02*
X023193Y017102D01*
X023193Y017220D02*
X022651Y017220D01*
X022660Y017339D02*
X023193Y017339D01*
X023193Y017457D02*
X022620Y017457D01*
X022476Y017576D02*
X023193Y017576D01*
X023193Y017694D02*
X021963Y017694D01*
X022012Y017576D02*
X022248Y017576D01*
X022139Y017102D02*
X022012Y017102D01*
X022012Y016983D02*
X023193Y016983D01*
X023193Y016865D02*
X021992Y016865D01*
X022012Y016746D02*
X022186Y016746D01*
X022362Y016500D02*
X021636Y016500D01*
X022012Y016272D02*
X022168Y016272D01*
X022010Y016154D02*
X023193Y016154D01*
X023193Y016272D02*
X022556Y016272D01*
X022639Y016391D02*
X023193Y016391D01*
X023193Y016509D02*
X022660Y016509D01*
X022632Y016628D02*
X023193Y016628D01*
X023193Y016746D02*
X022537Y016746D01*
X023193Y015798D02*
X019302Y015798D01*
X019302Y015680D02*
X023193Y015680D01*
X023193Y015561D02*
X019302Y015561D01*
X019302Y015443D02*
X023193Y015443D01*
X023193Y015324D02*
X019412Y015324D01*
X019412Y015206D02*
X023193Y015206D01*
X023193Y015087D02*
X019412Y015087D01*
X019412Y014969D02*
X023193Y014969D01*
X023193Y014850D02*
X021807Y014850D01*
X021812Y014732D02*
X021872Y014732D01*
X022062Y014500D02*
X021436Y014500D01*
X021812Y014258D02*
X021883Y014258D01*
X021796Y014139D02*
X023193Y014139D01*
X023193Y014021D02*
X019920Y014021D01*
X019920Y013902D02*
X020369Y013902D01*
X020312Y013784D02*
X020118Y013784D01*
X020096Y014139D02*
X020328Y014139D01*
X020312Y014258D02*
X020259Y014258D01*
X020094Y014732D02*
X019412Y014732D01*
X019412Y014850D02*
X020317Y014850D01*
X021059Y014850D02*
X021065Y014850D01*
X021048Y014139D02*
X021076Y014139D01*
X021117Y013902D02*
X021007Y013902D01*
X021436Y013500D02*
X022562Y013500D01*
X022793Y013310D02*
X023193Y013310D01*
X023193Y013428D02*
X022855Y013428D01*
X022860Y013547D02*
X023193Y013547D01*
X023193Y013665D02*
X022816Y013665D01*
X022656Y013784D02*
X023193Y013784D01*
X023193Y013902D02*
X021755Y013902D01*
X021812Y013784D02*
X022467Y013784D01*
X022331Y013310D02*
X021812Y013310D01*
X021812Y013191D02*
X023193Y013191D01*
X023193Y013073D02*
X019302Y013073D01*
X019302Y013191D02*
X020312Y013191D01*
X019913Y013310D02*
X019302Y013310D01*
X019302Y012954D02*
X023193Y012954D01*
X023193Y012836D02*
X019302Y012836D01*
X019302Y012717D02*
X023193Y012717D01*
X023193Y012599D02*
X019302Y012599D01*
X019302Y012480D02*
X023193Y012480D01*
X023193Y012362D02*
X019395Y012362D01*
X019412Y012243D02*
X023193Y012243D01*
X023193Y012125D02*
X019412Y012125D01*
X019412Y012006D02*
X023193Y012006D01*
X023193Y011888D02*
X021769Y011888D01*
X021812Y011769D02*
X021932Y011769D01*
X022191Y011769D02*
X023193Y011769D01*
X023193Y011651D02*
X022322Y011651D01*
X022360Y011532D02*
X023193Y011532D01*
X023193Y011414D02*
X022349Y011414D01*
X022278Y011295D02*
X023193Y011295D01*
X023193Y011177D02*
X021812Y011177D01*
X021812Y011295D02*
X021845Y011295D01*
X022062Y011500D02*
X021436Y011500D01*
X021103Y011888D02*
X021021Y011888D01*
X020355Y011888D02*
X019412Y011888D01*
X019412Y011769D02*
X020312Y011769D01*
X020073Y011651D02*
X019407Y011651D01*
X019062Y012000D02*
X019036Y012000D01*
X018685Y012370D02*
X018672Y012394D01*
X018642Y012424D01*
X018606Y012445D01*
X018565Y012456D01*
X018348Y012456D01*
X018348Y012060D01*
X018228Y012060D01*
X018228Y011940D01*
X017872Y011940D01*
X017872Y011698D01*
X017803Y011698D01*
X017693Y011653D01*
X017609Y011569D01*
X017577Y011492D01*
X017577Y011632D01*
X017509Y011700D01*
X017577Y011769D01*
X017872Y011769D01*
X017872Y011888D02*
X017577Y011888D01*
X017577Y012006D02*
X018228Y012006D01*
X018228Y012060D02*
X017872Y012060D01*
X017872Y012317D01*
X017883Y012357D01*
X017904Y012394D01*
X017934Y012424D01*
X017970Y012445D01*
X018011Y012456D01*
X018228Y012456D01*
X018228Y012060D01*
X018228Y012125D02*
X018348Y012125D01*
X018348Y012243D02*
X018228Y012243D01*
X018228Y012362D02*
X018348Y012362D01*
X018685Y012370D02*
X018730Y012416D01*
X018822Y012416D01*
X018822Y012460D01*
X017402Y012460D01*
X017402Y012450D01*
X017507Y012450D01*
X017577Y012380D01*
X017577Y011769D01*
X017558Y011651D02*
X017691Y011651D01*
X017594Y011532D02*
X017577Y011532D01*
X017577Y011309D02*
X017609Y011231D01*
X017693Y011148D01*
X017803Y011102D01*
X017921Y011102D01*
X018031Y011148D01*
X018103Y011220D01*
X018199Y011220D01*
X018196Y011217D01*
X018175Y011180D01*
X018164Y011139D01*
X018164Y011000D01*
X018164Y010866D01*
X017402Y010866D01*
X017402Y010950D01*
X017507Y010950D01*
X017577Y011021D01*
X017577Y011309D01*
X017577Y011295D02*
X017583Y011295D01*
X017577Y011177D02*
X017664Y011177D01*
X017577Y011058D02*
X018164Y011058D01*
X018164Y011000D02*
X018530Y011000D01*
X018164Y011000D01*
X018164Y010940D02*
X017402Y010940D01*
X017057Y010466D02*
X015669Y010466D01*
X015697Y010347D02*
X018822Y010347D01*
X018822Y010229D02*
X015697Y010229D01*
X015697Y010110D02*
X018822Y010110D01*
X018822Y009992D02*
X015626Y009992D01*
X015712Y009636D02*
X017258Y009636D01*
X017140Y009518D02*
X015712Y009518D01*
X015712Y009399D02*
X017043Y009399D01*
X016848Y009281D02*
X016576Y009281D01*
X015748Y009281D02*
X015712Y009281D01*
X015712Y009162D02*
X015747Y009162D01*
X015747Y008333D02*
X015649Y008333D01*
X016086Y008150D02*
X015162Y008150D01*
X014667Y007503D02*
X014202Y007503D01*
X014202Y007385D02*
X014670Y007385D01*
X014627Y007266D02*
X014202Y007266D01*
X014202Y007200D02*
X014765Y006636D01*
X014802Y006548D01*
X014802Y005330D01*
X014822Y005350D01*
X014822Y005448D01*
X014858Y005536D01*
X014926Y005604D01*
X016226Y006904D01*
X016314Y006940D01*
X017632Y006940D01*
X017582Y006990D01*
X017162Y007410D01*
X015623Y007410D01*
X015635Y007403D01*
X015665Y007373D01*
X015686Y007337D01*
X015697Y007296D01*
X015697Y007153D01*
X015164Y007153D01*
X015164Y007148D01*
X017425Y007148D01*
X017306Y007266D02*
X015697Y007266D01*
X015697Y007148D02*
X015164Y007148D01*
X015164Y006865D01*
X015558Y006865D01*
X015599Y006876D01*
X015635Y006897D01*
X015665Y006927D01*
X015686Y006963D01*
X015697Y007004D01*
X015697Y007148D01*
X015697Y007029D02*
X017543Y007029D01*
X017867Y007385D02*
X018164Y007385D01*
X018164Y007366D02*
X017885Y007366D01*
X017502Y007750D01*
X017502Y007850D01*
X017564Y007850D01*
X017564Y007841D01*
X017609Y007731D01*
X017693Y007648D01*
X017803Y007602D01*
X017921Y007602D01*
X018031Y007648D01*
X018077Y007694D01*
X018183Y007694D01*
X018175Y007680D01*
X018164Y007639D01*
X018164Y007500D01*
X018164Y007366D01*
X018164Y007500D02*
X018530Y007500D01*
X018530Y007500D01*
X018164Y007500D01*
X018164Y007503D02*
X017748Y007503D01*
X017755Y007622D02*
X017630Y007622D01*
X017605Y007740D02*
X017511Y007740D01*
X017862Y007900D02*
X017888Y007874D01*
X018530Y007874D01*
X018164Y007622D02*
X017969Y007622D01*
X017974Y008176D02*
X017921Y008198D01*
X017803Y008198D01*
X017693Y008153D01*
X017677Y008137D01*
X017677Y008532D01*
X017609Y008600D01*
X017677Y008669D01*
X017677Y009260D01*
X018822Y009260D01*
X018822Y008907D01*
X018785Y008870D01*
X018772Y008894D01*
X018742Y008924D01*
X018706Y008945D01*
X018665Y008956D01*
X018448Y008956D01*
X018448Y008560D01*
X018328Y008560D01*
X018328Y008440D01*
X017972Y008440D01*
X017972Y008184D01*
X017974Y008176D01*
X017972Y008214D02*
X017677Y008214D01*
X017677Y008333D02*
X017972Y008333D01*
X017972Y008560D02*
X018328Y008560D01*
X018328Y008956D01*
X018111Y008956D01*
X018070Y008945D01*
X018034Y008924D01*
X018004Y008894D01*
X017983Y008857D01*
X017972Y008817D01*
X017972Y008560D01*
X017972Y008570D02*
X017639Y008570D01*
X017677Y008688D02*
X017972Y008688D01*
X017972Y008807D02*
X017677Y008807D01*
X017677Y008925D02*
X018037Y008925D01*
X018328Y008925D02*
X018448Y008925D01*
X018448Y008807D02*
X018328Y008807D01*
X018328Y008688D02*
X018448Y008688D01*
X018448Y008570D02*
X018328Y008570D01*
X018328Y008451D02*
X017677Y008451D01*
X017677Y009044D02*
X018822Y009044D01*
X018822Y009162D02*
X017677Y009162D01*
X018739Y008925D02*
X018822Y008925D01*
X019302Y008925D02*
X023193Y008925D01*
X023193Y008807D02*
X019512Y008807D01*
X019512Y008688D02*
X023193Y008688D01*
X023193Y008570D02*
X019512Y008570D01*
X019512Y008451D02*
X023193Y008451D01*
X023193Y008333D02*
X021812Y008333D01*
X022172Y008214D02*
X023193Y008214D01*
X023193Y008096D02*
X022306Y008096D01*
X022424Y007977D02*
X023193Y007977D01*
X023193Y007859D02*
X022543Y007859D01*
X022661Y007740D02*
X023193Y007740D01*
X023193Y007622D02*
X022771Y007622D01*
X022802Y007503D02*
X023193Y007503D01*
X023193Y007385D02*
X022802Y007385D01*
X022802Y007266D02*
X023193Y007266D01*
X023193Y007148D02*
X022802Y007148D01*
X022802Y007029D02*
X023193Y007029D01*
X023193Y006911D02*
X022802Y006911D01*
X022802Y006792D02*
X023193Y006792D01*
X023193Y006674D02*
X022802Y006674D01*
X022802Y006555D02*
X023193Y006555D01*
X023193Y006437D02*
X022802Y006437D01*
X022802Y006318D02*
X023193Y006318D01*
X023193Y006200D02*
X022802Y006200D01*
X022802Y006081D02*
X023193Y006081D01*
X023193Y005963D02*
X022802Y005963D01*
X022802Y005844D02*
X023193Y005844D01*
X023193Y005726D02*
X022802Y005726D01*
X022802Y005607D02*
X023193Y005607D01*
X023193Y005489D02*
X022802Y005489D01*
X022802Y005370D02*
X023193Y005370D01*
X023193Y005252D02*
X022753Y005252D01*
X022634Y005133D02*
X023193Y005133D01*
X023193Y005015D02*
X022516Y005015D01*
X022397Y004896D02*
X023193Y004896D01*
X023193Y004778D02*
X022279Y004778D01*
X022160Y004659D02*
X023193Y004659D01*
X023193Y004541D02*
X022042Y004541D01*
X021923Y004422D02*
X023193Y004422D01*
X023193Y004304D02*
X021805Y004304D01*
X021686Y004185D02*
X023193Y004185D01*
X023193Y004067D02*
X021568Y004067D01*
X021479Y003948D02*
X023193Y003948D01*
X023193Y003830D02*
X021442Y003830D01*
X021362Y003711D02*
X023193Y003711D01*
X023193Y003593D02*
X021167Y003593D01*
X020956Y003593D02*
X020167Y003593D01*
X020145Y003583D02*
X020298Y003647D01*
X020415Y003764D01*
X020479Y003917D01*
X020479Y004083D01*
X020415Y004236D01*
X020298Y004354D01*
X020145Y004417D01*
X019979Y004417D01*
X019826Y004354D01*
X019709Y004236D01*
X019645Y004083D01*
X019645Y003917D01*
X019709Y003764D01*
X019826Y003647D01*
X019979Y003583D01*
X020145Y003583D01*
X019956Y003593D02*
X019167Y003593D01*
X019145Y003583D02*
X019298Y003647D01*
X019415Y003764D01*
X019479Y003917D01*
X019479Y004083D01*
X019455Y004139D01*
X019636Y004320D01*
X019742Y004426D01*
X019742Y004731D01*
X019826Y004647D01*
X019979Y004583D01*
X020145Y004583D01*
X020298Y004647D01*
X020415Y004764D01*
X020479Y004917D01*
X020479Y005083D01*
X020415Y005236D01*
X020298Y005354D01*
X020145Y005417D01*
X019979Y005417D01*
X019826Y005354D01*
X019742Y005270D01*
X019742Y005459D01*
X019815Y005531D01*
X019860Y005641D01*
X019860Y005760D01*
X019815Y005869D01*
X019731Y005953D01*
X019621Y005998D01*
X019503Y005998D01*
X019393Y005953D01*
X019309Y005869D01*
X019264Y005760D01*
X019264Y005641D01*
X019309Y005531D01*
X019382Y005459D01*
X019382Y005270D01*
X019298Y005354D01*
X019145Y005417D01*
X018979Y005417D01*
X018826Y005354D01*
X018742Y005270D01*
X018742Y005759D01*
X018815Y005831D01*
X018860Y005941D01*
X018860Y006060D01*
X018815Y006169D01*
X018731Y006253D01*
X018621Y006298D01*
X018503Y006298D01*
X018393Y006253D01*
X018309Y006169D01*
X018264Y006060D01*
X018264Y005941D01*
X018309Y005831D01*
X018382Y005759D01*
X018382Y005270D01*
X018298Y005354D01*
X018145Y005417D01*
X017979Y005417D01*
X017826Y005354D01*
X017709Y005236D01*
X017645Y005083D01*
X017645Y004917D01*
X017709Y004764D01*
X017826Y004647D01*
X017979Y004583D01*
X018145Y004583D01*
X018298Y004647D01*
X018382Y004731D01*
X018382Y004575D01*
X018201Y004394D01*
X018145Y004417D01*
X017979Y004417D01*
X017826Y004354D01*
X017709Y004236D01*
X017645Y004083D01*
X017645Y003917D01*
X017709Y003764D01*
X017826Y003647D01*
X017979Y003583D01*
X018145Y003583D01*
X018298Y003647D01*
X018415Y003764D01*
X018479Y003917D01*
X018479Y004083D01*
X018455Y004139D01*
X018636Y004320D01*
X018742Y004426D01*
X018742Y004731D01*
X018826Y004647D01*
X018979Y004583D01*
X019145Y004583D01*
X019298Y004647D01*
X019382Y004731D01*
X019382Y004575D01*
X019201Y004394D01*
X019145Y004417D01*
X018979Y004417D01*
X018826Y004354D01*
X018709Y004236D01*
X018645Y004083D01*
X018645Y003917D01*
X018709Y003764D01*
X018826Y003647D01*
X018979Y003583D01*
X019145Y003583D01*
X018956Y003593D02*
X018167Y003593D01*
X017956Y003593D02*
X017167Y003593D01*
X017145Y003583D02*
X017298Y003647D01*
X017415Y003764D01*
X017479Y003917D01*
X017479Y004083D01*
X017415Y004236D01*
X017298Y004354D01*
X017145Y004417D01*
X016979Y004417D01*
X016826Y004354D01*
X016709Y004236D01*
X016645Y004083D01*
X016645Y003917D01*
X016709Y003764D01*
X016826Y003647D01*
X016979Y003583D01*
X017145Y003583D01*
X016956Y003593D02*
X016167Y003593D01*
X015956Y003593D02*
X015802Y003593D01*
X015769Y003474D02*
X023193Y003474D01*
X023193Y003356D02*
X015657Y003356D01*
X015538Y003237D02*
X023193Y003237D01*
X021600Y004778D02*
X021552Y004778D01*
X021481Y004659D02*
X021310Y004659D01*
X021363Y004541D02*
X019742Y004541D01*
X019742Y004659D02*
X019813Y004659D01*
X019738Y004422D02*
X021244Y004422D01*
X020776Y004304D02*
X020348Y004304D01*
X020436Y004185D02*
X020687Y004185D01*
X020645Y004067D02*
X020479Y004067D01*
X020479Y003948D02*
X020645Y003948D01*
X020681Y003830D02*
X020442Y003830D01*
X020362Y003711D02*
X020761Y003711D01*
X020813Y004659D02*
X020310Y004659D01*
X020421Y004778D02*
X020703Y004778D01*
X020654Y004896D02*
X020470Y004896D01*
X020479Y005015D02*
X020645Y005015D01*
X020666Y005133D02*
X020458Y005133D01*
X020400Y005252D02*
X020724Y005252D01*
X020866Y005370D02*
X020258Y005370D01*
X019866Y005370D02*
X019742Y005370D01*
X019772Y005489D02*
X021611Y005489D01*
X021729Y005607D02*
X019846Y005607D01*
X019860Y005726D02*
X021822Y005726D01*
X021822Y005844D02*
X019825Y005844D01*
X019707Y005963D02*
X021822Y005963D01*
X021822Y006081D02*
X018851Y006081D01*
X018860Y005963D02*
X019417Y005963D01*
X019299Y005844D02*
X018820Y005844D01*
X018742Y005726D02*
X019264Y005726D01*
X019278Y005607D02*
X018742Y005607D01*
X018742Y005489D02*
X019352Y005489D01*
X019382Y005370D02*
X019258Y005370D01*
X018866Y005370D02*
X018742Y005370D01*
X018382Y005370D02*
X018258Y005370D01*
X018382Y005489D02*
X015490Y005489D01*
X015608Y005607D02*
X018382Y005607D01*
X018382Y005726D02*
X015727Y005726D01*
X015845Y005844D02*
X018304Y005844D01*
X018264Y005963D02*
X015964Y005963D01*
X016082Y006081D02*
X018273Y006081D01*
X018340Y006200D02*
X016201Y006200D01*
X016319Y006318D02*
X021822Y006318D01*
X021822Y006200D02*
X018784Y006200D01*
X018562Y006000D02*
X018562Y004500D01*
X018062Y004000D01*
X017761Y003711D02*
X017362Y003711D01*
X017442Y003830D02*
X017681Y003830D01*
X017645Y003948D02*
X017479Y003948D01*
X017479Y004067D02*
X017645Y004067D01*
X017687Y004185D02*
X017436Y004185D01*
X017348Y004304D02*
X017776Y004304D01*
X017813Y004659D02*
X017310Y004659D01*
X017298Y004647D02*
X017415Y004764D01*
X017479Y004917D01*
X017479Y005083D01*
X017415Y005236D01*
X017298Y005354D01*
X017145Y005417D01*
X016979Y005417D01*
X016826Y005354D01*
X016709Y005236D01*
X016645Y005083D01*
X016645Y004917D01*
X016709Y004764D01*
X016826Y004647D01*
X016979Y004583D01*
X017145Y004583D01*
X017298Y004647D01*
X017421Y004778D02*
X017703Y004778D01*
X017654Y004896D02*
X017470Y004896D01*
X017479Y005015D02*
X017645Y005015D01*
X017666Y005133D02*
X017458Y005133D01*
X017400Y005252D02*
X017724Y005252D01*
X017866Y005370D02*
X017258Y005370D01*
X016866Y005370D02*
X016258Y005370D01*
X016298Y005354D02*
X016145Y005417D01*
X015979Y005417D01*
X015826Y005354D01*
X015709Y005236D01*
X015645Y005083D01*
X015645Y004917D01*
X015709Y004764D01*
X015826Y004647D01*
X015979Y004583D01*
X016145Y004583D01*
X016298Y004647D01*
X016415Y004764D01*
X016479Y004917D01*
X016479Y005083D01*
X016415Y005236D01*
X016298Y005354D01*
X016400Y005252D02*
X016724Y005252D01*
X016666Y005133D02*
X016458Y005133D01*
X016479Y005015D02*
X016645Y005015D01*
X016654Y004896D02*
X016470Y004896D01*
X016421Y004778D02*
X016703Y004778D01*
X016813Y004659D02*
X016310Y004659D01*
X016348Y004304D02*
X016776Y004304D01*
X016687Y004185D02*
X016436Y004185D01*
X016479Y004067D02*
X016645Y004067D01*
X016645Y003948D02*
X016479Y003948D01*
X016442Y003830D02*
X016681Y003830D01*
X016761Y003711D02*
X016362Y003711D01*
X015802Y004422D02*
X018229Y004422D01*
X018348Y004541D02*
X015802Y004541D01*
X015813Y004659D02*
X015742Y004659D01*
X015703Y004778D02*
X015624Y004778D01*
X015654Y004896D02*
X015505Y004896D01*
X015479Y005015D02*
X015645Y005015D01*
X015666Y005133D02*
X015458Y005133D01*
X015400Y005252D02*
X015724Y005252D01*
X015866Y005370D02*
X015371Y005370D01*
X015048Y005726D02*
X014802Y005726D01*
X014802Y005844D02*
X015166Y005844D01*
X015285Y005963D02*
X014802Y005963D01*
X014802Y006081D02*
X015403Y006081D01*
X015522Y006200D02*
X014802Y006200D01*
X014802Y006318D02*
X015640Y006318D01*
X015759Y006437D02*
X014802Y006437D01*
X014799Y006555D02*
X015877Y006555D01*
X015996Y006674D02*
X014728Y006674D01*
X014609Y006792D02*
X016114Y006792D01*
X016243Y006911D02*
X015649Y006911D01*
X015654Y007385D02*
X017188Y007385D01*
X016662Y008200D02*
X016636Y008226D01*
X016162Y008226D01*
X016086Y008150D01*
X015164Y007148D02*
X015159Y007148D01*
X014627Y007148D01*
X014627Y007004D01*
X014638Y006963D01*
X014659Y006927D01*
X014689Y006897D01*
X014725Y006876D01*
X014766Y006865D01*
X015159Y006865D01*
X015159Y007148D01*
X015159Y007029D02*
X015164Y007029D01*
X015159Y006911D02*
X015164Y006911D01*
X014675Y006911D02*
X014491Y006911D01*
X014372Y007029D02*
X014627Y007029D01*
X014322Y005844D02*
X013482Y005844D01*
X013501Y005252D02*
X013589Y005252D01*
X013625Y005133D02*
X013459Y005133D01*
X013616Y004896D02*
X009445Y004896D01*
X009460Y004778D02*
X013663Y004778D01*
X013757Y004659D02*
X009426Y004659D01*
X009557Y004541D02*
X014322Y004541D01*
X014334Y004422D02*
X014240Y004422D01*
X014237Y004424D02*
X014169Y004446D01*
X014100Y004457D01*
X014100Y004039D01*
X014518Y004039D01*
X014507Y004107D01*
X014485Y004176D01*
X014453Y004240D01*
X014410Y004298D01*
X014360Y004349D01*
X014301Y004391D01*
X014237Y004424D01*
X014100Y004422D02*
X014023Y004422D01*
X014023Y004457D02*
X013955Y004446D01*
X013887Y004424D01*
X013822Y004391D01*
X013764Y004349D01*
X013713Y004298D01*
X013671Y004240D01*
X013639Y004176D01*
X013616Y004107D01*
X013605Y004039D01*
X014023Y004039D01*
X014023Y004457D01*
X013884Y004422D02*
X009557Y004422D01*
X009557Y004304D02*
X013719Y004304D01*
X013643Y004185D02*
X009557Y004185D01*
X009557Y004067D02*
X013610Y004067D01*
X013608Y003948D02*
X009557Y003948D01*
X009557Y003830D02*
X013637Y003830D01*
X013707Y003711D02*
X009557Y003711D01*
X009576Y005015D02*
X014023Y005015D01*
X014023Y004896D02*
X014100Y004896D01*
X014100Y004778D02*
X014023Y004778D01*
X014023Y004659D02*
X014100Y004659D01*
X014100Y004304D02*
X014023Y004304D01*
X014023Y004185D02*
X014100Y004185D01*
X014100Y004067D02*
X014023Y004067D01*
X014404Y004304D02*
X014419Y004304D01*
X014426Y004297D02*
X014426Y004297D01*
X014480Y004185D02*
X014537Y004185D01*
X014514Y004067D02*
X014645Y004067D01*
X014645Y003948D02*
X014516Y003948D01*
X014487Y003830D02*
X014681Y003830D01*
X014761Y003711D02*
X014417Y003711D01*
X014802Y005370D02*
X014822Y005370D01*
X014802Y005489D02*
X014839Y005489D01*
X014802Y005607D02*
X014929Y005607D01*
X016438Y006437D02*
X021786Y006437D01*
X021667Y006555D02*
X019056Y006555D01*
X019065Y006564D02*
X019065Y006564D01*
X019175Y006674D02*
X020312Y006674D01*
X020037Y006792D02*
X019277Y006792D01*
X019302Y006911D02*
X019314Y006911D01*
X019198Y006697D02*
X019198Y006697D01*
X019920Y007385D02*
X020351Y007385D01*
X020312Y007266D02*
X020235Y007266D01*
X020345Y007622D02*
X019920Y007622D01*
X019920Y007503D02*
X022219Y007503D01*
X022322Y007385D02*
X021772Y007385D01*
X021812Y007266D02*
X022322Y007266D01*
X022322Y007148D02*
X021812Y007148D01*
X021872Y007029D02*
X022322Y007029D01*
X022322Y006911D02*
X021991Y006911D01*
X022109Y006792D02*
X022322Y006792D01*
X022322Y006674D02*
X022228Y006674D01*
X022299Y006555D02*
X022322Y006555D01*
X022322Y006437D02*
X022302Y006437D01*
X022302Y006318D02*
X022322Y006318D01*
X022322Y006200D02*
X022302Y006200D01*
X022302Y006081D02*
X022322Y006081D01*
X022322Y005963D02*
X022302Y005963D01*
X022302Y005844D02*
X022322Y005844D01*
X022322Y005726D02*
X022302Y005726D01*
X022302Y005607D02*
X022322Y005607D01*
X022311Y005489D02*
X022275Y005489D01*
X022192Y005370D02*
X022171Y005370D01*
X022074Y005252D02*
X022053Y005252D01*
X021955Y005133D02*
X021934Y005133D01*
X021837Y005015D02*
X021816Y005015D01*
X021718Y004896D02*
X021697Y004896D01*
X021492Y005370D02*
X021258Y005370D01*
X019776Y004304D02*
X019620Y004304D01*
X019687Y004185D02*
X019501Y004185D01*
X019479Y004067D02*
X019645Y004067D01*
X019645Y003948D02*
X019479Y003948D01*
X019442Y003830D02*
X019681Y003830D01*
X019761Y003711D02*
X019362Y003711D01*
X019062Y004000D02*
X019562Y004500D01*
X019562Y005700D01*
X019382Y004659D02*
X019310Y004659D01*
X019348Y004541D02*
X018742Y004541D01*
X018742Y004659D02*
X018813Y004659D01*
X018738Y004422D02*
X019229Y004422D01*
X018776Y004304D02*
X018620Y004304D01*
X018687Y004185D02*
X018501Y004185D01*
X018479Y004067D02*
X018645Y004067D01*
X018645Y003948D02*
X018479Y003948D01*
X018442Y003830D02*
X018681Y003830D01*
X018761Y003711D02*
X018362Y003711D01*
X018382Y004659D02*
X018310Y004659D01*
X021024Y007385D02*
X021100Y007385D01*
X021094Y007622D02*
X021030Y007622D01*
X020312Y007740D02*
X020241Y007740D01*
X020051Y008214D02*
X019512Y008214D01*
X019512Y008333D02*
X020312Y008333D01*
X019302Y009044D02*
X023193Y009044D01*
X023193Y009162D02*
X019302Y009162D01*
X019302Y009281D02*
X023193Y009281D01*
X023193Y009399D02*
X019302Y009399D01*
X019302Y009518D02*
X021065Y009518D01*
X021259Y009518D02*
X023193Y009518D01*
X023193Y009636D02*
X021417Y009636D01*
X021460Y009755D02*
X023193Y009755D01*
X023193Y009873D02*
X021489Y009873D01*
X021608Y009992D02*
X023193Y009992D01*
X023193Y010110D02*
X021767Y010110D01*
X021812Y010229D02*
X023193Y010229D01*
X023193Y010347D02*
X021812Y010347D01*
X021812Y010466D02*
X023193Y010466D01*
X023193Y010584D02*
X021812Y010584D01*
X021812Y010703D02*
X023193Y010703D01*
X023193Y010821D02*
X021812Y010821D01*
X021436Y010500D02*
X021436Y010074D01*
X021162Y009800D01*
X020932Y009992D02*
X019302Y009992D01*
X019302Y010110D02*
X020357Y010110D01*
X020312Y010229D02*
X019302Y010229D01*
X019302Y010347D02*
X019875Y010347D01*
X019302Y009873D02*
X020869Y009873D01*
X020864Y009755D02*
X019302Y009755D01*
X019302Y009636D02*
X020907Y009636D01*
X021019Y010110D02*
X021105Y010110D01*
X020312Y010821D02*
X020080Y010821D01*
X019920Y010940D02*
X023193Y010940D01*
X023193Y011058D02*
X019920Y011058D01*
X020278Y011177D02*
X020312Y011177D01*
X020058Y011636D02*
X020058Y011636D01*
X018822Y012954D02*
X014202Y012954D01*
X013722Y012954D02*
X011862Y012954D01*
X011981Y012836D02*
X013722Y012836D01*
X013722Y012717D02*
X012266Y012717D01*
X012344Y012599D02*
X013722Y012599D01*
X013722Y012480D02*
X012360Y012480D01*
X012327Y012362D02*
X013722Y012362D01*
X013722Y012243D02*
X012220Y012243D01*
X012062Y012500D02*
X011762Y012800D01*
X009562Y012800D01*
X008962Y013400D01*
X007662Y013400D01*
X007062Y014000D01*
X007062Y014251D01*
X006665Y014258D02*
X004802Y014258D01*
X004802Y014376D02*
X005825Y014376D01*
X005718Y014495D02*
X004802Y014495D01*
X004802Y014613D02*
X005669Y014613D01*
X005665Y014732D02*
X004802Y014732D01*
X004802Y014850D02*
X005694Y014850D01*
X005768Y014969D02*
X004802Y014969D01*
X004802Y015087D02*
X005956Y015087D01*
X005979Y015206D02*
X004802Y015206D01*
X004802Y015324D02*
X005777Y015324D01*
X005698Y015443D02*
X004802Y015443D01*
X004802Y015561D02*
X005665Y015561D01*
X006145Y015206D02*
X006382Y015206D01*
X006382Y015324D02*
X006346Y015324D01*
X006382Y015087D02*
X006168Y015087D01*
X006356Y014969D02*
X006382Y014969D01*
X006459Y014732D02*
X006476Y014732D01*
X006455Y014613D02*
X006594Y014613D01*
X006744Y014495D02*
X006406Y014495D01*
X006298Y014376D02*
X006684Y014376D01*
X006678Y014139D02*
X006284Y014139D01*
X006401Y014021D02*
X006731Y014021D01*
X006867Y013902D02*
X006450Y013902D01*
X006459Y013784D02*
X007024Y013784D01*
X006814Y013665D02*
X006435Y013665D01*
X006369Y013547D02*
X006713Y013547D01*
X007062Y013351D02*
X005713Y013351D01*
X005462Y013100D01*
X005462Y012700D01*
X005260Y012480D02*
X004802Y012480D01*
X004802Y012362D02*
X005369Y012362D01*
X005282Y012243D02*
X004802Y012243D01*
X004802Y012125D02*
X005282Y012125D01*
X005282Y012006D02*
X004802Y012006D01*
X004802Y011888D02*
X005282Y011888D01*
X005282Y011769D02*
X004802Y011769D01*
X004802Y011651D02*
X005282Y011651D01*
X005282Y011532D02*
X004802Y011532D01*
X004802Y011414D02*
X005282Y011414D01*
X005282Y011295D02*
X004802Y011295D01*
X004802Y011177D02*
X005282Y011177D01*
X005282Y011058D02*
X004802Y011058D01*
X004802Y010940D02*
X005282Y010940D01*
X005286Y010821D02*
X004802Y010821D01*
X004802Y010703D02*
X005405Y010703D01*
X005523Y010584D02*
X004802Y010584D01*
X004802Y010466D02*
X005642Y010466D01*
X005760Y010347D02*
X004802Y010347D01*
X004802Y010229D02*
X005879Y010229D01*
X005997Y010110D02*
X004802Y010110D01*
X004802Y009992D02*
X006516Y009992D01*
X006634Y009873D02*
X004802Y009873D01*
X004802Y009755D02*
X006753Y009755D01*
X006871Y009636D02*
X004828Y009636D01*
X004860Y009518D02*
X006990Y009518D01*
X007108Y009399D02*
X004843Y009399D01*
X004764Y009281D02*
X007227Y009281D01*
X007345Y009162D02*
X004222Y009162D01*
X004222Y009044D02*
X007464Y009044D01*
X007582Y008925D02*
X004222Y008925D01*
X004222Y008807D02*
X007834Y008807D01*
X007762Y009000D02*
X008062Y009000D01*
X008290Y008807D02*
X008882Y008807D01*
X008882Y008925D02*
X008354Y008925D01*
X008360Y009044D02*
X008764Y009044D01*
X008645Y009162D02*
X008317Y009162D01*
X008164Y009281D02*
X008527Y009281D01*
X008562Y009500D02*
X007562Y009500D01*
X006562Y010500D01*
X006562Y011051D01*
X007062Y011551D01*
X007261Y012001D02*
X007662Y011600D01*
X009262Y011600D01*
X009612Y011250D01*
X012962Y011250D01*
X013457Y011295D02*
X013722Y011295D01*
X013722Y011177D02*
X013457Y011177D01*
X013440Y011058D02*
X013722Y011058D01*
X013722Y010940D02*
X013442Y010940D01*
X013412Y010750D02*
X012962Y010750D01*
X013412Y010750D02*
X013662Y010500D01*
X013662Y009900D01*
X013362Y009600D01*
X008962Y009600D01*
X009182Y009399D02*
X010366Y009399D01*
X011010Y009399D02*
X011114Y009399D01*
X011267Y010110D02*
X011697Y010110D01*
X011579Y010229D02*
X011312Y010229D01*
X011562Y010500D02*
X011812Y010250D01*
X012962Y010250D01*
X013457Y010229D02*
X013482Y010229D01*
X013482Y010347D02*
X013457Y010347D01*
X013442Y010466D02*
X013416Y010466D01*
X013714Y010703D02*
X013722Y010703D01*
X013722Y010821D02*
X013595Y010821D01*
X013722Y011414D02*
X013457Y011414D01*
X013414Y011532D02*
X013722Y011532D01*
X013722Y011651D02*
X013457Y011651D01*
X013457Y011769D02*
X013722Y011769D01*
X013722Y011888D02*
X013457Y011888D01*
X013722Y012006D02*
X011810Y012006D01*
X011692Y012125D02*
X013722Y012125D01*
X012962Y011750D02*
X011812Y011750D01*
X011562Y012000D01*
X010936Y012000D01*
X011312Y011769D02*
X011538Y011769D01*
X011657Y011651D02*
X011307Y011651D01*
X011312Y012243D02*
X011903Y012243D01*
X011797Y012362D02*
X011295Y012362D01*
X011709Y012599D02*
X008321Y012599D01*
X008415Y012717D02*
X009390Y012717D01*
X009272Y012836D02*
X008459Y012836D01*
X008459Y012954D02*
X009153Y012954D01*
X009035Y013073D02*
X008421Y013073D01*
X008334Y013191D02*
X008916Y013191D01*
X009188Y013428D02*
X009264Y013428D01*
X009300Y013547D02*
X009070Y013547D01*
X009336Y012480D02*
X011764Y012480D01*
X011812Y013250D02*
X011562Y013500D01*
X011812Y013250D02*
X012962Y013250D01*
X013457Y013191D02*
X013722Y013191D01*
X013722Y013073D02*
X013454Y013073D01*
X013457Y013310D02*
X013722Y013310D01*
X013722Y013428D02*
X013454Y013428D01*
X013428Y013547D02*
X013722Y013547D01*
X013722Y013665D02*
X013457Y013665D01*
X013457Y013784D02*
X013722Y013784D01*
X013722Y013902D02*
X013457Y013902D01*
X012962Y013750D02*
X012312Y013750D01*
X012262Y013700D01*
X011962Y013700D01*
X012181Y013902D02*
X012209Y013902D01*
X012363Y013547D02*
X012496Y013547D01*
X012510Y011532D02*
X009584Y011532D01*
X009466Y011651D02*
X009816Y011651D01*
X009812Y011769D02*
X009347Y011769D01*
X009420Y011888D02*
X008445Y011888D01*
X008459Y012006D02*
X009301Y012006D01*
X009183Y012125D02*
X008441Y012125D01*
X008311Y011414D02*
X009194Y011414D01*
X009312Y011295D02*
X008411Y011295D01*
X008459Y011177D02*
X009431Y011177D01*
X009812Y010821D02*
X008343Y010821D01*
X008425Y010940D02*
X009982Y010940D01*
X010065Y011058D02*
X008459Y011058D01*
X008175Y010584D02*
X009812Y010584D01*
X009812Y010466D02*
X008359Y010466D01*
X008431Y010347D02*
X009812Y010347D01*
X009812Y010229D02*
X008459Y010229D01*
X008454Y010110D02*
X009857Y010110D01*
X010188Y010500D02*
X010162Y010526D01*
X010162Y010900D01*
X010262Y011000D01*
X011662Y011000D01*
X011862Y010800D01*
X012062Y010800D01*
X012267Y010584D02*
X012467Y010584D01*
X012467Y010703D02*
X012344Y010703D01*
X012360Y010821D02*
X012467Y010821D01*
X012482Y010940D02*
X012327Y010940D01*
X012218Y011058D02*
X012484Y011058D01*
X012508Y010466D02*
X011851Y010466D01*
X011856Y010584D02*
X011732Y010584D01*
X011705Y010703D02*
X011312Y010703D01*
X011562Y010500D02*
X010936Y010500D01*
X010605Y010110D02*
X010519Y010110D01*
X009812Y010703D02*
X007900Y010703D01*
X007577Y010347D02*
X007319Y010347D01*
X007088Y010229D02*
X007665Y010229D01*
X007670Y010110D02*
X007206Y010110D01*
X007325Y009992D02*
X007719Y009992D01*
X007828Y009873D02*
X007443Y009873D01*
X007562Y009755D02*
X008703Y009755D01*
X008842Y009873D02*
X008295Y009873D01*
X008405Y009992D02*
X013482Y009992D01*
X013482Y010110D02*
X013457Y010110D01*
X013380Y009873D02*
X009082Y009873D01*
X008562Y009500D02*
X009062Y009000D01*
X009062Y008000D01*
X008949Y007859D02*
X007703Y007859D01*
X007698Y007870D02*
X007487Y008081D01*
X007211Y008196D01*
X006913Y008196D01*
X006637Y008081D01*
X006426Y007870D01*
X006311Y007594D01*
X006311Y007296D01*
X006426Y007020D01*
X006637Y006809D01*
X006913Y006695D01*
X007211Y006695D01*
X007487Y006809D01*
X007698Y007020D01*
X007812Y007296D01*
X007812Y007594D01*
X007698Y007870D01*
X007752Y007740D02*
X009067Y007740D01*
X009186Y007622D02*
X007801Y007622D01*
X007812Y007503D02*
X009304Y007503D01*
X009808Y007266D02*
X007800Y007266D01*
X007812Y007385D02*
X009970Y007385D01*
X010154Y007385D02*
X010312Y007385D01*
X010062Y007100D02*
X010688Y007100D01*
X010312Y006911D02*
X010294Y006911D01*
X010312Y006792D02*
X007447Y006792D01*
X007589Y006911D02*
X009830Y006911D01*
X009769Y007029D02*
X007702Y007029D01*
X007751Y007148D02*
X009764Y007148D01*
X008882Y007977D02*
X007591Y007977D01*
X007452Y008096D02*
X008882Y008096D01*
X008882Y008214D02*
X004222Y008214D01*
X004222Y008096D02*
X006671Y008096D01*
X006533Y007977D02*
X004222Y007977D01*
X004222Y007859D02*
X006421Y007859D01*
X006372Y007740D02*
X004222Y007740D01*
X004222Y007622D02*
X006323Y007622D01*
X006311Y007503D02*
X004222Y007503D01*
X004222Y007385D02*
X006311Y007385D01*
X006324Y007266D02*
X004222Y007266D01*
X004222Y007148D02*
X006373Y007148D01*
X006422Y007029D02*
X004222Y007029D01*
X004222Y006911D02*
X006535Y006911D01*
X006677Y006792D02*
X004222Y006792D01*
X004222Y008333D02*
X008882Y008333D01*
X008882Y008451D02*
X004222Y008451D01*
X004222Y008570D02*
X008882Y008570D01*
X008882Y008688D02*
X004222Y008688D01*
X004222Y009281D02*
X004360Y009281D01*
X004281Y009399D02*
X004222Y009399D01*
X004222Y009518D02*
X004264Y009518D01*
X004296Y009636D02*
X004222Y009636D01*
X004222Y009755D02*
X004322Y009755D01*
X004322Y009873D02*
X004222Y009873D01*
X004222Y009992D02*
X004322Y009992D01*
X004322Y010110D02*
X004222Y010110D01*
X004222Y010229D02*
X004322Y010229D01*
X004322Y010347D02*
X004222Y010347D01*
X004222Y010466D02*
X004322Y010466D01*
X004322Y010584D02*
X004222Y010584D01*
X004222Y010703D02*
X004322Y010703D01*
X004322Y010821D02*
X004222Y010821D01*
X004222Y010940D02*
X004322Y010940D01*
X004322Y011058D02*
X004222Y011058D01*
X004222Y011177D02*
X004322Y011177D01*
X004322Y011295D02*
X004222Y011295D01*
X004222Y011414D02*
X004322Y011414D01*
X004322Y011532D02*
X004222Y011532D01*
X004222Y011651D02*
X004322Y011651D01*
X004322Y011769D02*
X004222Y011769D01*
X004222Y011888D02*
X004322Y011888D01*
X004322Y012006D02*
X004222Y012006D01*
X004222Y012125D02*
X004322Y012125D01*
X004322Y012243D02*
X004222Y012243D01*
X004222Y012362D02*
X004322Y012362D01*
X004322Y012480D02*
X004222Y012480D01*
X004222Y012599D02*
X004322Y012599D01*
X004322Y012717D02*
X004222Y012717D01*
X004222Y012836D02*
X004322Y012836D01*
X004322Y012954D02*
X004222Y012954D01*
X004222Y013073D02*
X004322Y013073D01*
X004322Y013191D02*
X004222Y013191D01*
X004222Y013310D02*
X004322Y013310D01*
X004322Y013428D02*
X004222Y013428D01*
X004222Y013547D02*
X004322Y013547D01*
X004322Y013665D02*
X004222Y013665D01*
X004222Y013784D02*
X004322Y013784D01*
X004322Y013902D02*
X004222Y013902D01*
X004222Y014021D02*
X004322Y014021D01*
X004322Y014139D02*
X004222Y014139D01*
X004222Y014258D02*
X004322Y014258D01*
X004322Y014376D02*
X004222Y014376D01*
X004222Y014495D02*
X004322Y014495D01*
X004322Y014613D02*
X004222Y014613D01*
X004222Y014732D02*
X004322Y014732D01*
X004322Y014850D02*
X004222Y014850D01*
X004222Y014969D02*
X004322Y014969D01*
X004322Y015087D02*
X004222Y015087D01*
X004222Y015206D02*
X004322Y015206D01*
X004322Y015324D02*
X004222Y015324D01*
X004222Y015443D02*
X004322Y015443D01*
X004322Y015561D02*
X004222Y015561D01*
X004222Y015680D02*
X004322Y015680D01*
X004322Y015798D02*
X004222Y015798D01*
X004222Y015917D02*
X004322Y015917D01*
X004322Y016035D02*
X004222Y016035D01*
X004222Y016154D02*
X004322Y016154D01*
X004322Y016272D02*
X004222Y016272D01*
X004222Y016391D02*
X004322Y016391D01*
X004322Y016509D02*
X004222Y016509D01*
X004222Y016628D02*
X004355Y016628D01*
X004469Y016746D02*
X004222Y016746D01*
X004222Y016865D02*
X004587Y016865D01*
X004706Y016983D02*
X004222Y016983D01*
X004222Y017102D02*
X004824Y017102D01*
X004943Y017220D02*
X004222Y017220D01*
X004222Y017339D02*
X005061Y017339D01*
X005180Y017457D02*
X004222Y017457D01*
X004222Y017576D02*
X005298Y017576D01*
X005793Y017694D02*
X004222Y017694D01*
X004222Y017813D02*
X006665Y017813D01*
X006665Y017931D02*
X004222Y017931D01*
X004222Y018050D02*
X006714Y018050D01*
X006817Y018168D02*
X004222Y018168D01*
X005503Y017102D02*
X005800Y017102D01*
X007562Y015800D02*
X007762Y016000D01*
X007562Y015800D02*
X007562Y015000D01*
X007861Y014701D01*
X008062Y014701D01*
X008430Y014850D02*
X008657Y014850D01*
X008539Y014732D02*
X008459Y014732D01*
X008356Y014969D02*
X008776Y014969D01*
X007956Y015087D02*
X007742Y015087D01*
X007742Y015206D02*
X007979Y015206D01*
X007777Y015324D02*
X007742Y015324D01*
X005840Y014139D02*
X004802Y014139D01*
X004802Y014021D02*
X005723Y014021D01*
X005674Y013902D02*
X004802Y013902D01*
X004802Y013784D02*
X005665Y013784D01*
X005688Y013665D02*
X004802Y013665D01*
X004802Y013547D02*
X005755Y013547D01*
X005535Y013428D02*
X004802Y013428D01*
X004802Y013310D02*
X005417Y013310D01*
X005298Y013191D02*
X004802Y013191D01*
X004802Y013073D02*
X005282Y013073D01*
X005282Y012954D02*
X004802Y012954D01*
X004802Y012836D02*
X005195Y012836D01*
X005164Y012717D02*
X004802Y012717D01*
X004802Y012599D02*
X005181Y012599D01*
X005462Y012200D02*
X005462Y010900D01*
X006162Y010200D01*
X006362Y010200D01*
X006562Y010200D01*
X007762Y009000D01*
X007736Y009281D02*
X007960Y009281D01*
X010559Y011651D02*
X010565Y011651D01*
X010188Y012000D02*
X009562Y012000D01*
X009162Y012400D01*
X007762Y012400D01*
X007261Y012901D01*
X006062Y012901D01*
X005713Y012451D02*
X005462Y012200D01*
X005713Y012451D02*
X007062Y012451D01*
X007261Y012001D02*
X006062Y012001D01*
X009455Y012362D02*
X009829Y012362D01*
X009812Y012243D02*
X009573Y012243D01*
X010547Y012362D02*
X010577Y012362D01*
X011682Y010726D02*
X011682Y010726D01*
X013534Y009518D02*
X013722Y009518D01*
X013722Y009636D02*
X013652Y009636D01*
X015159Y009992D02*
X015164Y009992D01*
X015159Y010110D02*
X015164Y010110D01*
X015159Y010229D02*
X015164Y010229D01*
X016062Y011326D02*
X016136Y011400D01*
X016562Y011400D01*
X015647Y011532D02*
X015614Y011532D01*
X015612Y012243D02*
X015647Y012243D01*
X015647Y012362D02*
X015612Y012362D01*
X015612Y012480D02*
X015835Y012480D01*
X015921Y012599D02*
X015612Y012599D01*
X015612Y012717D02*
X016039Y012717D01*
X016158Y012836D02*
X014821Y012836D01*
X015159Y013073D02*
X015164Y013073D01*
X015159Y013191D02*
X015164Y013191D01*
X015697Y013191D02*
X018822Y013191D01*
X018822Y013073D02*
X015688Y013073D01*
X015697Y013310D02*
X018822Y013310D01*
X018530Y014000D02*
X018164Y014000D01*
X018164Y013866D01*
X017402Y013866D01*
X017402Y013950D01*
X017507Y013950D01*
X017577Y014021D01*
X018164Y014021D01*
X018164Y014000D02*
X018530Y014000D01*
X018530Y014000D01*
X018164Y014000D02*
X018164Y014139D01*
X017911Y014139D01*
X017931Y014148D02*
X017977Y014194D01*
X018183Y014194D01*
X018175Y014180D01*
X018164Y014139D01*
X017931Y014148D02*
X017821Y014102D01*
X017703Y014102D01*
X017593Y014148D01*
X017577Y014163D01*
X017577Y014021D01*
X017577Y014139D02*
X017613Y014139D01*
X017788Y014374D02*
X017762Y014400D01*
X017788Y014374D02*
X018530Y014374D01*
X018164Y013902D02*
X017402Y013902D01*
X017094Y013428D02*
X015688Y013428D01*
X016062Y014326D02*
X016536Y014326D01*
X016562Y014300D01*
X017509Y014700D02*
X017575Y014634D01*
X017593Y014653D01*
X017703Y014698D01*
X017821Y014698D01*
X017874Y014676D01*
X017872Y014684D01*
X017872Y014940D01*
X018228Y014940D01*
X018228Y015060D01*
X017872Y015060D01*
X017872Y015317D01*
X017883Y015357D01*
X017885Y015360D01*
X017577Y015360D01*
X017577Y014769D01*
X017509Y014700D01*
X017540Y014732D02*
X017872Y014732D01*
X017872Y014850D02*
X017577Y014850D01*
X017577Y014969D02*
X018228Y014969D01*
X017872Y015087D02*
X017577Y015087D01*
X017577Y015206D02*
X017872Y015206D01*
X017874Y015324D02*
X017577Y015324D01*
X017221Y015798D02*
X016785Y015798D01*
X016852Y015680D02*
X017102Y015680D01*
X016984Y015561D02*
X016860Y015561D01*
X015710Y015443D02*
X015612Y015443D01*
X015612Y015324D02*
X015647Y015324D01*
X015647Y015206D02*
X015612Y015206D01*
X017577Y012362D02*
X017885Y012362D01*
X017872Y012243D02*
X017577Y012243D01*
X017577Y012125D02*
X017872Y012125D01*
X017862Y011400D02*
X018504Y011400D01*
X018530Y011374D01*
X018174Y011177D02*
X018060Y011177D01*
X018530Y011000D02*
X018530Y011000D01*
X021812Y007740D02*
X021982Y007740D01*
X022101Y007622D02*
X021778Y007622D01*
X022241Y014258D02*
X023193Y014258D01*
X023193Y014376D02*
X022333Y014376D01*
X022360Y014495D02*
X023193Y014495D01*
X023193Y014613D02*
X022338Y014613D01*
X022252Y014732D02*
X023193Y014732D01*
X019543Y014613D02*
X019370Y014613D01*
X019062Y015000D02*
X019036Y015000D01*
X023193Y022079D02*
X004222Y022079D01*
X011912Y005844D02*
X012256Y005844D01*
X012235Y005252D02*
X012237Y005252D01*
X012279Y005133D02*
X011899Y005133D01*
X010611Y005133D02*
X009597Y005133D01*
X009597Y005252D02*
X010583Y005252D01*
X010583Y005370D02*
X009597Y005370D01*
D23*
X009162Y004800D03*
X009862Y006200D03*
X010062Y007100D03*
X009462Y008400D03*
X010062Y009000D03*
X008962Y009600D03*
X008662Y010000D03*
X008062Y009000D03*
X005662Y009500D03*
X004562Y009500D03*
X005462Y012700D03*
X005462Y015200D03*
X005062Y016100D03*
X005162Y018800D03*
X009262Y017700D03*
X009662Y015700D03*
X010562Y015600D03*
X011062Y015700D03*
X012162Y015900D03*
X012162Y015300D03*
X013162Y015200D03*
X013962Y016700D03*
X015962Y016700D03*
X016162Y015900D03*
X016562Y015600D03*
X016962Y015900D03*
X017762Y015000D03*
X017762Y014400D03*
X018062Y014000D03*
X017162Y013100D03*
X015962Y012900D03*
X016562Y014300D03*
X017762Y012000D03*
X017862Y011400D03*
X018062Y011000D03*
X016862Y010200D03*
X015862Y010300D03*
X016562Y011400D03*
X017862Y008500D03*
X017862Y007900D03*
X018162Y007500D03*
X018562Y006000D03*
X019562Y005700D03*
X022662Y004300D03*
X021162Y009800D03*
X020662Y009800D03*
X022062Y011500D03*
X022562Y013500D03*
X022062Y014500D03*
X022662Y015300D03*
X022362Y016500D03*
X022362Y017300D03*
X020462Y018000D03*
X020162Y017000D03*
X020162Y015300D03*
X017762Y017000D03*
X017062Y016900D03*
X018462Y017700D03*
X017162Y019000D03*
X017862Y019400D03*
X016262Y021600D03*
X015262Y021600D03*
X013762Y020100D03*
X013762Y019500D03*
X013162Y021000D03*
X010962Y020500D03*
X010662Y021800D03*
X011962Y016800D03*
X008762Y014200D03*
X009562Y013400D03*
X008962Y012800D03*
X008962Y012000D03*
X011462Y010000D03*
X012062Y010800D03*
X013062Y009300D03*
X013162Y006300D03*
X013762Y005500D03*
X013062Y004200D03*
X012062Y005500D03*
X010662Y004500D03*
X016462Y007200D03*
X016662Y008200D03*
X012062Y012500D03*
X011962Y013700D03*
X020862Y019400D03*
X022362Y019400D03*
X004562Y003600D03*
D24*
X009162Y003500D02*
X009162Y003993D01*
X009162Y004800D01*
X009162Y003500D02*
X009262Y003400D01*
X015362Y003400D01*
X015562Y003600D01*
X015562Y004500D01*
X015062Y005000D01*
X015062Y005400D01*
X016362Y006700D01*
X018862Y006700D01*
X019062Y006900D01*
X019062Y007500D01*
X019593Y007500D01*
X019593Y007874D02*
X020036Y007874D01*
X020162Y008000D01*
X020688Y008000D01*
X021436Y008000D02*
X022062Y008000D01*
X022562Y007500D01*
X022562Y005400D01*
X021162Y004000D01*
X021062Y004000D01*
X021062Y005000D02*
X021462Y005000D01*
X022062Y005600D01*
X022062Y006500D01*
X021562Y007000D01*
X021436Y007000D01*
X020688Y007000D02*
X020162Y007000D01*
X020036Y007126D01*
X019593Y007126D01*
X019062Y007500D02*
X019062Y008500D01*
X019136Y008500D01*
X019062Y008500D02*
X019062Y009500D01*
X017462Y009500D01*
X017262Y009300D01*
X017262Y008974D01*
X016162Y008974D01*
X015936Y008974D01*
X015612Y008650D01*
X015362Y008650D01*
X015336Y008676D01*
X015336Y009300D01*
X015362Y008650D02*
X015162Y008650D01*
X015162Y007650D02*
X017262Y007650D01*
X017786Y007126D01*
X018530Y007126D01*
X018530Y007500D02*
X018162Y007500D01*
X017262Y007650D02*
X017262Y008226D01*
X017862Y008500D02*
X018388Y008500D01*
X019062Y009500D02*
X019062Y011000D01*
X019593Y011000D01*
X019593Y010626D02*
X019936Y010626D01*
X020062Y010500D01*
X020688Y010500D01*
X020136Y011374D02*
X019593Y011374D01*
X020136Y011374D02*
X020262Y011500D01*
X020688Y011500D01*
X019062Y011000D02*
X019062Y012000D01*
X019062Y012700D01*
X017062Y012700D01*
X017162Y012600D01*
X017162Y012074D01*
X017062Y012700D02*
X016362Y012700D01*
X016062Y012400D01*
X016062Y012074D01*
X015988Y012000D01*
X015762Y012000D01*
X015512Y011750D01*
X015262Y011750D01*
X015236Y011776D01*
X015236Y012400D01*
X015262Y011750D02*
X015162Y011750D01*
X015162Y011250D02*
X015986Y011250D01*
X016062Y011326D01*
X015162Y010750D02*
X017062Y010750D01*
X017162Y010850D01*
X017162Y011326D01*
X017112Y010750D02*
X017236Y010626D01*
X018530Y010626D01*
X018530Y011000D02*
X018062Y011000D01*
X017112Y010750D02*
X017062Y010750D01*
X015862Y010300D02*
X015812Y010250D01*
X015162Y010250D01*
X015162Y007150D02*
X015712Y007150D01*
X014562Y006500D02*
X013962Y007100D01*
X013962Y016000D01*
X014436Y016474D01*
X014436Y020200D01*
X014486Y020250D01*
X015272Y020250D01*
X014436Y020200D02*
X014436Y021000D01*
X013688Y021000D02*
X013162Y021000D01*
X016262Y021600D02*
X018549Y021600D01*
X018562Y021614D01*
X018562Y020787D02*
X018562Y019974D01*
X018562Y019226D02*
X018588Y019200D01*
X018762Y019200D01*
X019062Y018900D01*
X019062Y018300D01*
X019036Y018274D01*
X017862Y018274D01*
X017062Y018274D01*
X019062Y018300D02*
X019062Y018000D01*
X019188Y018000D01*
X019062Y018000D02*
X019062Y017000D01*
X019593Y017000D01*
X019062Y017000D02*
X019062Y015600D01*
X017362Y015600D01*
X017162Y015400D01*
X017162Y015074D01*
X016062Y015074D01*
X015988Y015000D01*
X015862Y015000D01*
X015612Y014750D01*
X015162Y014750D01*
X015236Y014824D01*
X015236Y015400D01*
X015162Y014250D02*
X015986Y014250D01*
X016062Y014326D01*
X015162Y013750D02*
X017112Y013750D01*
X017162Y013700D01*
X017236Y013626D01*
X018530Y013626D01*
X018530Y014000D02*
X018062Y014000D01*
X017162Y013700D02*
X017162Y014326D01*
X017762Y015000D02*
X018288Y015000D01*
X019062Y015000D02*
X019062Y014000D01*
X019593Y014000D01*
X019593Y014374D02*
X020036Y014374D01*
X020162Y014500D01*
X020688Y014500D01*
X020688Y013500D02*
X020062Y013500D01*
X019936Y013626D01*
X019593Y013626D01*
X019062Y014000D02*
X019062Y012700D01*
X019062Y015000D02*
X019062Y015600D01*
X019936Y018000D02*
X020462Y018000D01*
X014562Y006500D02*
X014562Y005500D01*
X014562Y004500D01*
X015062Y004000D01*
X014562Y005500D02*
X013762Y005500D01*
X012869Y005500D01*
X012062Y005500D01*
X008062Y010201D02*
X007612Y010651D01*
X007062Y010651D01*
X004562Y009500D02*
X004562Y016500D01*
X005463Y017401D01*
X006062Y017401D01*
M02*
