G75*
%MOIN*%
%OFA0B0*%
%FSLAX24Y24*%
%IPPOS*%
%LPD*%
%AMOC8*
5,1,8,0,0,1.08239X$1,22.5*
%
%ADD10C,0.0000*%
%ADD11C,0.0060*%
%ADD12C,0.0554*%
%ADD13C,0.0594*%
%ADD14R,0.0591X0.0512*%
%ADD15R,0.0472X0.0472*%
%ADD16R,0.0512X0.0591*%
%ADD17R,0.0750X0.0250*%
%ADD18C,0.0356*%
%ADD19C,0.0120*%
%ADD20C,0.0240*%
D10*
X004062Y003000D02*
X004062Y022292D01*
X023353Y022292D01*
X023353Y003000D01*
X004062Y003000D01*
X006471Y007445D02*
X006473Y007493D01*
X006479Y007541D01*
X006489Y007588D01*
X006502Y007634D01*
X006520Y007679D01*
X006540Y007723D01*
X006565Y007765D01*
X006593Y007804D01*
X006623Y007841D01*
X006657Y007875D01*
X006694Y007907D01*
X006732Y007936D01*
X006773Y007961D01*
X006816Y007983D01*
X006861Y008001D01*
X006907Y008015D01*
X006954Y008026D01*
X007002Y008033D01*
X007050Y008036D01*
X007098Y008035D01*
X007146Y008030D01*
X007194Y008021D01*
X007240Y008009D01*
X007285Y007992D01*
X007329Y007972D01*
X007371Y007949D01*
X007411Y007922D01*
X007449Y007892D01*
X007484Y007859D01*
X007516Y007823D01*
X007546Y007785D01*
X007572Y007744D01*
X007594Y007701D01*
X007614Y007657D01*
X007629Y007612D01*
X007641Y007565D01*
X007649Y007517D01*
X007653Y007469D01*
X007653Y007421D01*
X007649Y007373D01*
X007641Y007325D01*
X007629Y007278D01*
X007614Y007233D01*
X007594Y007189D01*
X007572Y007146D01*
X007546Y007105D01*
X007516Y007067D01*
X007484Y007031D01*
X007449Y006998D01*
X007411Y006968D01*
X007371Y006941D01*
X007329Y006918D01*
X007285Y006898D01*
X007240Y006881D01*
X007194Y006869D01*
X007146Y006860D01*
X007098Y006855D01*
X007050Y006854D01*
X007002Y006857D01*
X006954Y006864D01*
X006907Y006875D01*
X006861Y006889D01*
X006816Y006907D01*
X006773Y006929D01*
X006732Y006954D01*
X006694Y006983D01*
X006657Y007015D01*
X006623Y007049D01*
X006593Y007086D01*
X006565Y007125D01*
X006540Y007167D01*
X006520Y007211D01*
X006502Y007256D01*
X006489Y007302D01*
X006479Y007349D01*
X006473Y007397D01*
X006471Y007445D01*
X006471Y020555D02*
X006473Y020603D01*
X006479Y020651D01*
X006489Y020698D01*
X006502Y020744D01*
X006520Y020789D01*
X006540Y020833D01*
X006565Y020875D01*
X006593Y020914D01*
X006623Y020951D01*
X006657Y020985D01*
X006694Y021017D01*
X006732Y021046D01*
X006773Y021071D01*
X006816Y021093D01*
X006861Y021111D01*
X006907Y021125D01*
X006954Y021136D01*
X007002Y021143D01*
X007050Y021146D01*
X007098Y021145D01*
X007146Y021140D01*
X007194Y021131D01*
X007240Y021119D01*
X007285Y021102D01*
X007329Y021082D01*
X007371Y021059D01*
X007411Y021032D01*
X007449Y021002D01*
X007484Y020969D01*
X007516Y020933D01*
X007546Y020895D01*
X007572Y020854D01*
X007594Y020811D01*
X007614Y020767D01*
X007629Y020722D01*
X007641Y020675D01*
X007649Y020627D01*
X007653Y020579D01*
X007653Y020531D01*
X007649Y020483D01*
X007641Y020435D01*
X007629Y020388D01*
X007614Y020343D01*
X007594Y020299D01*
X007572Y020256D01*
X007546Y020215D01*
X007516Y020177D01*
X007484Y020141D01*
X007449Y020108D01*
X007411Y020078D01*
X007371Y020051D01*
X007329Y020028D01*
X007285Y020008D01*
X007240Y019991D01*
X007194Y019979D01*
X007146Y019970D01*
X007098Y019965D01*
X007050Y019964D01*
X007002Y019967D01*
X006954Y019974D01*
X006907Y019985D01*
X006861Y019999D01*
X006816Y020017D01*
X006773Y020039D01*
X006732Y020064D01*
X006694Y020093D01*
X006657Y020125D01*
X006623Y020159D01*
X006593Y020196D01*
X006565Y020235D01*
X006540Y020277D01*
X006520Y020321D01*
X006502Y020366D01*
X006489Y020412D01*
X006479Y020459D01*
X006473Y020507D01*
X006471Y020555D01*
D11*
X017939Y021330D02*
X018053Y021330D01*
X017996Y021330D02*
X017996Y021671D01*
X018053Y021671D01*
X018194Y021500D02*
X018251Y021557D01*
X018364Y021557D01*
X018421Y021500D01*
X018421Y021387D01*
X018364Y021330D01*
X018251Y021330D01*
X018194Y021387D01*
X018194Y021500D01*
X018558Y021557D02*
X018615Y021557D01*
X018728Y021444D01*
X018728Y021557D02*
X018728Y021330D01*
X018860Y021330D02*
X018917Y021387D01*
X018917Y021614D01*
X018973Y021557D02*
X018860Y021557D01*
X019115Y021500D02*
X019115Y021330D01*
X019115Y021500D02*
X019172Y021557D01*
X019342Y021557D01*
X019342Y021330D01*
X019483Y021387D02*
X019483Y021500D01*
X019540Y021557D01*
X019653Y021557D01*
X019710Y021500D01*
X019710Y021387D01*
X019653Y021330D01*
X019540Y021330D01*
X019483Y021387D01*
X019500Y021071D02*
X019557Y021014D01*
X019500Y021071D02*
X019387Y021071D01*
X019330Y021014D01*
X019330Y020957D01*
X019557Y020730D01*
X019330Y020730D01*
X019188Y020787D02*
X019188Y021014D01*
X019132Y021071D01*
X019018Y021071D01*
X018961Y021014D01*
X019188Y020787D01*
X019132Y020730D01*
X019018Y020730D01*
X018961Y020787D01*
X018961Y021014D01*
X018820Y020957D02*
X018707Y021071D01*
X018707Y020730D01*
X018820Y020730D02*
X018593Y020730D01*
X018452Y020787D02*
X018395Y020730D01*
X018282Y020730D01*
X018225Y020787D01*
X018225Y020900D01*
X018282Y020957D01*
X018338Y020957D01*
X018452Y020900D01*
X018452Y021071D01*
X018225Y021071D01*
X018711Y020471D02*
X018825Y020471D01*
X018881Y020414D01*
X018881Y020187D01*
X018825Y020130D01*
X018711Y020130D01*
X018655Y020187D01*
X018655Y020414D02*
X018711Y020471D01*
X019391Y020300D02*
X019391Y020130D01*
X019391Y020300D02*
X019448Y020357D01*
X019618Y020357D01*
X019618Y020130D01*
X019759Y020187D02*
X019759Y020300D01*
X019816Y020357D01*
X019930Y020357D01*
X019986Y020300D01*
X019986Y020187D01*
X019930Y020130D01*
X019816Y020130D01*
X019759Y020187D01*
X020118Y020130D02*
X020232Y020130D01*
X020175Y020130D02*
X020175Y020357D01*
X020232Y020357D01*
X020175Y020471D02*
X020175Y020527D01*
X020180Y020617D02*
X020123Y020617D01*
X020066Y020674D01*
X020066Y020957D01*
X020066Y020730D02*
X020237Y020730D01*
X020293Y020787D01*
X020293Y020957D01*
X020482Y021071D02*
X020482Y020730D01*
X020539Y020730D02*
X020425Y020730D01*
X020680Y020730D02*
X020680Y020957D01*
X020539Y021071D02*
X020482Y021071D01*
X020645Y021330D02*
X020588Y021387D01*
X020588Y021444D01*
X020645Y021500D01*
X020815Y021500D01*
X020815Y021387D01*
X020758Y021330D01*
X020645Y021330D01*
X020815Y021500D02*
X020702Y021614D01*
X020588Y021671D01*
X020957Y021614D02*
X020957Y021387D01*
X021013Y021330D01*
X021127Y021330D01*
X021183Y021387D01*
X020957Y021614D01*
X021013Y021671D01*
X021127Y021671D01*
X021183Y021614D01*
X021183Y021387D01*
X021325Y021387D02*
X021382Y021330D01*
X021495Y021330D01*
X021552Y021387D01*
X021552Y021444D01*
X021495Y021500D01*
X021382Y021500D01*
X021325Y021444D01*
X021325Y021387D01*
X021382Y021500D02*
X021325Y021557D01*
X021325Y021614D01*
X021382Y021671D01*
X021495Y021671D01*
X021552Y021614D01*
X021552Y021557D01*
X021495Y021500D01*
X021693Y021444D02*
X021693Y021387D01*
X021750Y021330D01*
X021863Y021330D01*
X021920Y021387D01*
X021863Y021500D02*
X021920Y021557D01*
X021920Y021614D01*
X021863Y021671D01*
X021750Y021671D01*
X021693Y021614D01*
X021750Y021500D02*
X021693Y021444D01*
X021750Y021500D02*
X021863Y021500D01*
X022061Y021387D02*
X022118Y021330D01*
X022232Y021330D01*
X022288Y021387D01*
X022288Y021614D01*
X022232Y021671D01*
X022118Y021671D01*
X022061Y021614D01*
X022430Y021557D02*
X022430Y021330D01*
X022430Y021500D02*
X022657Y021500D01*
X022657Y021557D02*
X022543Y021671D01*
X022430Y021557D01*
X022657Y021557D02*
X022657Y021330D01*
X022380Y020957D02*
X022267Y021071D01*
X022267Y020730D01*
X022380Y020730D02*
X022154Y020730D01*
X022012Y020730D02*
X021785Y020957D01*
X021785Y021014D01*
X021842Y021071D01*
X021955Y021071D01*
X022012Y021014D01*
X022012Y020730D02*
X021785Y020730D01*
X021781Y020471D02*
X021724Y020414D01*
X021724Y020300D01*
X021781Y020244D01*
X021951Y020244D01*
X021837Y020244D02*
X021724Y020130D01*
X021582Y020187D02*
X021582Y020300D01*
X021526Y020357D01*
X021412Y020357D01*
X021356Y020300D01*
X021356Y020244D01*
X021582Y020244D01*
X021582Y020187D02*
X021526Y020130D01*
X021412Y020130D01*
X021214Y020357D02*
X021101Y020130D01*
X020987Y020357D01*
X020846Y020357D02*
X020789Y020357D01*
X020789Y020130D01*
X020846Y020130D02*
X020732Y020130D01*
X020600Y020130D02*
X020430Y020130D01*
X020373Y020187D01*
X020430Y020244D01*
X020543Y020244D01*
X020600Y020300D01*
X020543Y020357D01*
X020373Y020357D01*
X020789Y020471D02*
X020789Y020527D01*
X020850Y020730D02*
X020680Y020730D01*
X020850Y020730D02*
X020907Y020787D01*
X020907Y020957D01*
X021049Y021071D02*
X021162Y021071D01*
X021105Y021071D02*
X021105Y020787D01*
X021162Y020730D01*
X021219Y020730D01*
X021275Y020787D01*
X021781Y020471D02*
X021951Y020471D01*
X021951Y020130D01*
X020078Y021387D02*
X020022Y021330D01*
X019908Y021330D01*
X019852Y021387D01*
X020078Y021387D02*
X020078Y021614D01*
X020022Y021671D01*
X019908Y021671D01*
X019852Y021614D01*
D12*
X008062Y017401D03*
X008062Y016501D03*
X008062Y015601D03*
X008062Y014701D03*
X008062Y013801D03*
X008062Y012901D03*
X008062Y012001D03*
X008062Y011101D03*
X008062Y010201D03*
X007062Y010651D03*
X007062Y011551D03*
X007062Y012451D03*
X007062Y013351D03*
X007062Y014251D03*
X007062Y015151D03*
X007062Y016051D03*
X007062Y016951D03*
X007062Y017851D03*
X006062Y017401D03*
X006062Y016501D03*
X006062Y015601D03*
X006062Y014701D03*
X006062Y013801D03*
X006062Y012901D03*
X006062Y012001D03*
X006062Y011101D03*
D13*
X014062Y005000D03*
X014062Y004000D03*
X015062Y004000D03*
X016062Y004000D03*
X017062Y004000D03*
X018062Y004000D03*
X019062Y004000D03*
X020062Y004000D03*
X021062Y004000D03*
X021062Y005000D03*
X020062Y005000D03*
X019062Y005000D03*
X018062Y005000D03*
X017062Y005000D03*
X016062Y005000D03*
X015062Y005000D03*
D14*
X009862Y004826D03*
X009862Y005574D03*
X005562Y006526D03*
X005562Y007274D03*
X004562Y007274D03*
X004562Y006526D03*
D15*
X004562Y005714D03*
X004562Y004887D03*
X005562Y004887D03*
X005562Y005714D03*
D16*
X011288Y006200D03*
X012036Y006200D03*
X010936Y017700D03*
X010188Y017700D03*
X010188Y019000D03*
X010936Y019000D03*
D17*
X011962Y018950D03*
X011962Y018450D03*
X011962Y017750D03*
X011962Y017250D03*
X014162Y017250D03*
X014162Y017750D03*
X014162Y018450D03*
X014162Y018950D03*
D18*
X013762Y019500D03*
X013762Y020100D03*
X013162Y021000D03*
X015262Y021600D03*
X016262Y021600D03*
X017862Y019400D03*
X017162Y019000D03*
X018462Y017700D03*
X017762Y017000D03*
X017062Y016900D03*
X016962Y015900D03*
X016562Y015600D03*
X016162Y015900D03*
X015962Y016700D03*
X013962Y016700D03*
X013162Y015200D03*
X012162Y015300D03*
X012162Y015900D03*
X011962Y016800D03*
X011062Y015700D03*
X010562Y015600D03*
X009662Y015700D03*
X008762Y014200D03*
X009562Y013400D03*
X008962Y012800D03*
X008962Y012000D03*
X008662Y010000D03*
X008962Y009600D03*
X008062Y009000D03*
X009462Y008400D03*
X010062Y009000D03*
X011462Y010000D03*
X012062Y010800D03*
X013062Y009300D03*
X015862Y010300D03*
X016862Y010200D03*
X016562Y011400D03*
X017862Y011400D03*
X018062Y011000D03*
X017762Y012000D03*
X017162Y013100D03*
X018062Y014000D03*
X017762Y014400D03*
X017762Y015000D03*
X016562Y014300D03*
X015962Y012900D03*
X012062Y012500D03*
X011962Y013700D03*
X009262Y017700D03*
X010962Y020500D03*
X010662Y021800D03*
X005162Y018800D03*
X005062Y016100D03*
X005462Y015200D03*
X005462Y012700D03*
X005662Y009500D03*
X004562Y009500D03*
X009162Y004800D03*
X009862Y006200D03*
X010062Y007100D03*
X012062Y005500D03*
X013162Y006300D03*
X013762Y005500D03*
X013062Y004200D03*
X010662Y004500D03*
X016462Y007200D03*
X016662Y008200D03*
X017862Y007900D03*
X018162Y007500D03*
X017862Y008500D03*
X018562Y006000D03*
X019562Y005700D03*
X022662Y004300D03*
X021162Y009800D03*
X020662Y009800D03*
X022062Y011500D03*
X022562Y013500D03*
X022062Y014500D03*
X022662Y015300D03*
X022362Y016500D03*
X022362Y017300D03*
X020462Y018000D03*
X020162Y017000D03*
X020162Y015300D03*
X020862Y019400D03*
X022362Y019400D03*
X004562Y003600D03*
D19*
X004222Y003593D02*
X006215Y003593D01*
X006287Y003520D02*
X011536Y003520D01*
X011642Y003626D01*
X012242Y004226D01*
X012242Y005259D01*
X012315Y005331D01*
X012360Y005441D01*
X012360Y005560D01*
X012315Y005669D01*
X012276Y005708D01*
X012276Y005785D01*
X012342Y005785D01*
X012412Y005855D01*
X012412Y006545D01*
X012342Y006616D01*
X011730Y006616D01*
X011685Y006570D01*
X011672Y006594D01*
X011642Y006624D01*
X011606Y006645D01*
X011565Y006656D01*
X011348Y006656D01*
X011348Y006260D01*
X011228Y006260D01*
X011228Y006140D01*
X011348Y006140D01*
X011348Y005745D01*
X011565Y005745D01*
X011606Y005756D01*
X011642Y005777D01*
X011672Y005807D01*
X011685Y005830D01*
X011730Y005785D01*
X011796Y005785D01*
X011796Y005637D01*
X011764Y005560D01*
X011764Y005441D01*
X011809Y005331D01*
X011882Y005259D01*
X011882Y004375D01*
X011387Y003880D01*
X006436Y003880D01*
X006242Y004075D01*
X006242Y006695D01*
X006380Y006557D01*
X006633Y006411D01*
X006916Y006335D01*
X007208Y006335D01*
X007490Y006411D01*
X007743Y006557D01*
X007950Y006764D01*
X008096Y007017D01*
X008172Y007299D01*
X008172Y007591D01*
X008096Y007874D01*
X007950Y008127D01*
X007743Y008333D01*
X007490Y008479D01*
X007208Y008555D01*
X006916Y008555D01*
X006633Y008479D01*
X006380Y008333D01*
X005242Y008333D01*
X005242Y008451D02*
X006585Y008451D01*
X006380Y008333D02*
X006174Y008127D01*
X006028Y007874D01*
X005955Y007602D01*
X005907Y007650D01*
X005242Y007650D01*
X005242Y010921D01*
X005707Y010921D01*
X005725Y010876D01*
X005837Y010765D01*
X005983Y010704D01*
X006141Y010704D01*
X006287Y010765D01*
X006384Y010861D01*
X006512Y010861D01*
X006665Y010709D01*
X006665Y010572D01*
X006725Y010426D01*
X006837Y010315D01*
X006983Y010254D01*
X007141Y010254D01*
X007287Y010315D01*
X007399Y010426D01*
X007459Y010572D01*
X007459Y010730D01*
X007399Y010876D01*
X007287Y010988D01*
X007141Y011049D01*
X007004Y011049D01*
X006839Y011214D01*
X006983Y011154D01*
X007141Y011154D01*
X007287Y011215D01*
X007399Y011326D01*
X007459Y011472D01*
X007459Y011549D01*
X007482Y011526D01*
X007482Y010726D01*
X007682Y010526D01*
X007753Y010454D01*
X007725Y010426D01*
X007665Y010280D01*
X007665Y010122D01*
X007725Y009976D01*
X007837Y009865D01*
X007983Y009804D01*
X008141Y009804D01*
X008287Y009865D01*
X008399Y009976D01*
X008459Y010122D01*
X008459Y010280D01*
X008401Y010420D01*
X008687Y010420D01*
X008882Y010226D01*
X008882Y009890D01*
X008793Y009853D01*
X008709Y009769D01*
X008664Y009660D01*
X008664Y009541D01*
X008709Y009431D01*
X008793Y009348D01*
X008903Y009302D01*
X009021Y009302D01*
X009131Y009348D01*
X009182Y009399D01*
X009182Y009035D01*
X009036Y009180D01*
X008303Y009180D01*
X008231Y009253D01*
X008121Y009298D01*
X008003Y009298D01*
X007893Y009253D01*
X007809Y009169D01*
X007764Y009060D01*
X007764Y008941D01*
X007809Y008831D01*
X007893Y008748D01*
X008003Y008702D01*
X008121Y008702D01*
X008231Y008748D01*
X008303Y008820D01*
X008887Y008820D01*
X009188Y008519D01*
X009164Y008460D01*
X009164Y008341D01*
X009209Y008231D01*
X009293Y008148D01*
X009403Y008102D01*
X009521Y008102D01*
X009631Y008148D01*
X009715Y008231D01*
X009760Y008341D01*
X009760Y008348D01*
X009882Y008226D01*
X009882Y007342D01*
X009809Y007269D01*
X009764Y007160D01*
X009764Y007041D01*
X009809Y006931D01*
X009893Y006848D01*
X010003Y006802D01*
X010121Y006802D01*
X010231Y006848D01*
X010315Y006931D01*
X010360Y007041D01*
X010360Y007160D01*
X010315Y007269D01*
X010242Y007342D01*
X010242Y008375D01*
X010136Y008480D01*
X009796Y008820D01*
X009820Y008820D01*
X009893Y008748D01*
X010003Y008702D01*
X010121Y008702D01*
X010231Y008748D01*
X010315Y008831D01*
X010360Y008941D01*
X010360Y009060D01*
X010315Y009169D01*
X010231Y009253D01*
X010121Y009298D01*
X010003Y009298D01*
X009893Y009253D01*
X009878Y009238D01*
X009742Y009375D01*
X009742Y010675D01*
X009636Y010780D01*
X008459Y011958D01*
X008459Y012080D01*
X008401Y012220D01*
X010736Y012220D01*
X011918Y013402D01*
X012021Y013402D01*
X012131Y013448D01*
X012215Y013531D01*
X012260Y013641D01*
X012260Y013760D01*
X012215Y013869D01*
X012131Y013953D01*
X012021Y013998D01*
X011903Y013998D01*
X011793Y013953D01*
X011709Y013869D01*
X011664Y013760D01*
X011664Y013657D01*
X010587Y012580D01*
X008302Y012580D01*
X008399Y012676D01*
X008417Y012721D01*
X008638Y012721D01*
X008836Y012920D01*
X009836Y012920D01*
X011036Y014120D01*
X011142Y014226D01*
X011142Y015026D01*
X011536Y015420D01*
X016320Y015420D01*
X016393Y015348D01*
X016503Y015302D01*
X016621Y015302D01*
X016731Y015348D01*
X016815Y015431D01*
X016860Y015541D01*
X016860Y015660D01*
X016815Y015769D01*
X016731Y015853D01*
X016621Y015898D01*
X016503Y015898D01*
X016460Y015881D01*
X016460Y015960D01*
X016435Y016020D01*
X020587Y016020D01*
X020782Y015826D01*
X020782Y010826D01*
X020887Y010720D01*
X020887Y010720D01*
X021282Y010326D01*
X021282Y010073D01*
X021221Y010098D01*
X021103Y010098D01*
X020993Y010053D01*
X020909Y009969D01*
X020864Y009860D01*
X020864Y009741D01*
X020909Y009631D01*
X020993Y009548D01*
X021082Y009511D01*
X021082Y008675D01*
X019387Y006980D01*
X018187Y006980D01*
X017687Y006480D01*
X017582Y006375D01*
X017582Y006075D01*
X017187Y005680D01*
X016787Y005680D01*
X016379Y005272D01*
X016298Y005354D01*
X016145Y005417D01*
X015979Y005417D01*
X015826Y005354D01*
X015709Y005236D01*
X015645Y005083D01*
X015645Y004917D01*
X015709Y004764D01*
X015826Y004647D01*
X015979Y004583D01*
X016145Y004583D01*
X016298Y004647D01*
X016415Y004764D01*
X016440Y004824D01*
X016542Y004926D01*
X016645Y005029D01*
X016645Y004917D01*
X016709Y004764D01*
X016826Y004647D01*
X016979Y004583D01*
X017145Y004583D01*
X017298Y004647D01*
X017382Y004731D01*
X017382Y004575D01*
X017201Y004394D01*
X017145Y004417D01*
X016979Y004417D01*
X016826Y004354D01*
X016709Y004236D01*
X016645Y004083D01*
X016645Y003917D01*
X016709Y003764D01*
X016826Y003647D01*
X016979Y003583D01*
X017145Y003583D01*
X017298Y003647D01*
X017415Y003764D01*
X017479Y003917D01*
X017479Y004083D01*
X017455Y004139D01*
X017636Y004320D01*
X017742Y004426D01*
X017742Y004731D01*
X017826Y004647D01*
X017979Y004583D01*
X018145Y004583D01*
X018298Y004647D01*
X018415Y004764D01*
X018479Y004917D01*
X018479Y005063D01*
X019236Y005820D01*
X019289Y005820D01*
X019264Y005760D01*
X019264Y005641D01*
X019309Y005531D01*
X019393Y005448D01*
X019503Y005402D01*
X019509Y005402D01*
X019379Y005272D01*
X019298Y005354D01*
X019145Y005417D01*
X018979Y005417D01*
X018826Y005354D01*
X018709Y005236D01*
X018645Y005083D01*
X018645Y004917D01*
X018709Y004764D01*
X018826Y004647D01*
X018979Y004583D01*
X019145Y004583D01*
X019298Y004647D01*
X019415Y004764D01*
X019440Y004824D01*
X019645Y005029D01*
X019645Y004917D01*
X019709Y004764D01*
X019826Y004647D01*
X019979Y004583D01*
X020145Y004583D01*
X020298Y004647D01*
X020382Y004731D01*
X020382Y004575D01*
X020201Y004394D01*
X020145Y004417D01*
X019979Y004417D01*
X019826Y004354D01*
X019709Y004236D01*
X019645Y004083D01*
X019645Y003917D01*
X019709Y003764D01*
X019826Y003647D01*
X019979Y003583D01*
X020145Y003583D01*
X020298Y003647D01*
X020415Y003764D01*
X020479Y003917D01*
X020479Y004083D01*
X020455Y004139D01*
X020636Y004320D01*
X020742Y004426D01*
X020742Y004731D01*
X020826Y004647D01*
X020979Y004583D01*
X021145Y004583D01*
X021298Y004647D01*
X021415Y004764D01*
X021479Y004917D01*
X021479Y005083D01*
X021415Y005236D01*
X021298Y005354D01*
X021145Y005417D01*
X020979Y005417D01*
X020826Y005354D01*
X020742Y005270D01*
X020742Y005426D01*
X022936Y007620D01*
X023042Y007726D01*
X023042Y011575D01*
X022342Y012275D01*
X022342Y013026D01*
X022518Y013202D01*
X022621Y013202D01*
X022731Y013248D01*
X022815Y013331D01*
X022860Y013441D01*
X022860Y013560D01*
X022815Y013669D01*
X022731Y013753D01*
X022621Y013798D01*
X022503Y013798D01*
X022393Y013753D01*
X022309Y013669D01*
X022264Y013560D01*
X022264Y013457D01*
X022142Y013335D01*
X022142Y014211D01*
X022231Y014248D01*
X022315Y014331D01*
X022360Y014441D01*
X022360Y014560D01*
X022315Y014669D01*
X022231Y014753D01*
X022121Y014798D01*
X022003Y014798D01*
X021942Y014773D01*
X021942Y015826D01*
X022318Y016202D01*
X022421Y016202D01*
X022531Y016248D01*
X022615Y016331D01*
X022660Y016441D01*
X022660Y016560D01*
X022615Y016669D01*
X022531Y016753D01*
X022421Y016798D01*
X022303Y016798D01*
X022193Y016753D01*
X022109Y016669D01*
X022064Y016560D01*
X022064Y016457D01*
X021742Y016135D01*
X021742Y016426D01*
X022318Y017002D01*
X022421Y017002D01*
X022531Y017048D01*
X022615Y017131D01*
X022660Y017241D01*
X022660Y017360D01*
X022615Y017469D01*
X022531Y017553D01*
X022421Y017598D01*
X022303Y017598D01*
X022193Y017553D01*
X022109Y017469D01*
X022064Y017360D01*
X022064Y017257D01*
X021382Y016575D01*
X021382Y016335D01*
X021242Y016475D01*
X021242Y018575D01*
X020742Y019075D01*
X020636Y019180D01*
X017403Y019180D01*
X017331Y019253D01*
X017221Y019298D01*
X017103Y019298D01*
X016993Y019253D01*
X016920Y019180D01*
X015636Y019180D01*
X014642Y020175D01*
X014536Y020280D01*
X014003Y020280D01*
X013931Y020353D01*
X013821Y020398D01*
X013703Y020398D01*
X013593Y020353D01*
X013509Y020269D01*
X013464Y020160D01*
X013464Y020041D01*
X013509Y019931D01*
X013593Y019848D01*
X013703Y019802D01*
X013821Y019802D01*
X013931Y019848D01*
X014003Y019920D01*
X014387Y019920D01*
X015487Y018820D01*
X016920Y018820D01*
X016993Y018748D01*
X017103Y018702D01*
X017221Y018702D01*
X017331Y018748D01*
X017403Y018820D01*
X020487Y018820D01*
X020882Y018426D01*
X020882Y016535D01*
X020836Y016580D01*
X016836Y016580D01*
X016536Y016880D01*
X016203Y016880D01*
X016131Y016953D01*
X016021Y016998D01*
X015903Y016998D01*
X015793Y016953D01*
X015709Y016869D01*
X015664Y016760D01*
X015664Y016641D01*
X015709Y016531D01*
X015793Y016448D01*
X015903Y016402D01*
X016021Y016402D01*
X016131Y016448D01*
X016203Y016520D01*
X016387Y016520D01*
X016527Y016380D01*
X014536Y016380D01*
X014260Y016657D01*
X014260Y016760D01*
X014215Y016869D01*
X014131Y016953D01*
X014021Y016998D01*
X013903Y016998D01*
X013793Y016953D01*
X013709Y016869D01*
X013664Y016760D01*
X013664Y016641D01*
X013709Y016531D01*
X013793Y016448D01*
X013903Y016402D01*
X014005Y016402D01*
X014282Y016126D01*
X014327Y016080D01*
X012403Y016080D01*
X012331Y016153D01*
X012221Y016198D01*
X012103Y016198D01*
X011993Y016153D01*
X011909Y016069D01*
X011864Y015960D01*
X011864Y015841D01*
X011889Y015780D01*
X011387Y015780D01*
X010782Y015175D01*
X010782Y014375D01*
X009860Y013453D01*
X009860Y013460D01*
X009815Y013569D01*
X009763Y013620D01*
X009936Y013620D01*
X010042Y013726D01*
X010742Y014426D01*
X010742Y015359D01*
X010815Y015431D01*
X010860Y015541D01*
X010860Y015660D01*
X010815Y015769D01*
X010731Y015853D01*
X010621Y015898D01*
X010503Y015898D01*
X010393Y015853D01*
X010309Y015769D01*
X010264Y015660D01*
X010264Y015541D01*
X010309Y015431D01*
X010382Y015359D01*
X010382Y014575D01*
X009787Y013980D01*
X008963Y013980D01*
X009015Y014031D01*
X009060Y014141D01*
X009060Y014260D01*
X009015Y014369D01*
X008931Y014453D01*
X008821Y014498D01*
X008703Y014498D01*
X008593Y014453D01*
X008520Y014380D01*
X008302Y014380D01*
X008399Y014476D01*
X008459Y014622D01*
X008459Y014780D01*
X008399Y014926D01*
X008287Y015038D01*
X008141Y015099D01*
X007983Y015099D01*
X007837Y015038D01*
X007725Y014926D01*
X007665Y014780D01*
X007665Y014622D01*
X007715Y014502D01*
X007344Y014872D01*
X007399Y014926D01*
X007459Y015072D01*
X007459Y015230D01*
X007399Y015376D01*
X007287Y015488D01*
X007141Y015549D01*
X006983Y015549D01*
X006938Y015530D01*
X006742Y015726D01*
X006742Y015810D01*
X006837Y015715D01*
X006983Y015654D01*
X007141Y015654D01*
X007287Y015715D01*
X007399Y015826D01*
X007417Y015871D01*
X007770Y015871D01*
X007725Y015826D01*
X007665Y015680D01*
X007202Y015680D01*
X007370Y015798D02*
X007714Y015798D01*
X007665Y015680D02*
X007665Y015522D01*
X007725Y015376D01*
X007837Y015265D01*
X007983Y015204D01*
X008141Y015204D01*
X008287Y015265D01*
X008399Y015376D01*
X008459Y015522D01*
X008459Y015680D01*
X010272Y015680D01*
X010264Y015561D02*
X008459Y015561D01*
X008459Y015680D02*
X008399Y015826D01*
X008354Y015871D01*
X008488Y015871D01*
X009901Y017285D01*
X010493Y017285D01*
X010562Y017353D01*
X010630Y017285D01*
X011242Y017285D01*
X011312Y017355D01*
X011312Y017570D01*
X011472Y017570D01*
X011537Y017505D01*
X012387Y017505D01*
X012422Y017541D01*
X012422Y017500D01*
X012412Y017490D01*
X012392Y017490D01*
X012387Y017495D01*
X011537Y017495D01*
X011467Y017425D01*
X011467Y017076D01*
X011537Y017005D01*
X012387Y017005D01*
X012392Y017010D01*
X012560Y017010D01*
X012648Y017047D01*
X012798Y017197D01*
X012865Y017264D01*
X012902Y017352D01*
X012902Y019448D01*
X012865Y019536D01*
X012798Y019604D01*
X012498Y019904D01*
X012410Y019940D01*
X008814Y019940D01*
X008726Y019904D01*
X008658Y019836D01*
X007962Y019140D01*
X006814Y019140D01*
X006726Y019104D01*
X006658Y019036D01*
X005926Y018304D01*
X005858Y018236D01*
X005822Y018148D01*
X005822Y017723D01*
X005725Y017626D01*
X005665Y017480D01*
X005665Y017322D01*
X005725Y017176D01*
X005837Y017065D01*
X005983Y017004D01*
X006141Y017004D01*
X006287Y017065D01*
X006399Y017176D01*
X006459Y017322D01*
X006459Y017480D01*
X006399Y017626D01*
X006302Y017723D01*
X006302Y018001D01*
X006961Y018660D01*
X008110Y018660D01*
X008198Y018697D01*
X008961Y019460D01*
X012262Y019460D01*
X012422Y019301D01*
X012422Y019160D01*
X012387Y019195D01*
X011537Y019195D01*
X011472Y019130D01*
X011312Y019130D01*
X011312Y019345D01*
X011242Y019416D01*
X010630Y019416D01*
X010562Y019347D01*
X010493Y019416D01*
X009882Y019416D01*
X009812Y019345D01*
X009812Y019180D01*
X008787Y019180D01*
X008682Y019075D01*
X007639Y018031D01*
X007417Y018031D01*
X007399Y018076D01*
X007287Y018188D01*
X007141Y018249D01*
X006983Y018249D01*
X006837Y018188D01*
X006725Y018076D01*
X006665Y017930D01*
X006665Y017772D01*
X006725Y017626D01*
X006837Y017515D01*
X006983Y017454D01*
X007141Y017454D01*
X007287Y017515D01*
X007399Y017626D01*
X007417Y017671D01*
X007770Y017671D01*
X007725Y017626D01*
X007665Y017480D01*
X007665Y017322D01*
X007725Y017176D01*
X007837Y017065D01*
X007983Y017004D01*
X008141Y017004D01*
X008287Y017065D01*
X008399Y017176D01*
X008459Y017322D01*
X008459Y017480D01*
X008399Y017626D01*
X008287Y017738D01*
X008141Y017799D01*
X007983Y017799D01*
X007867Y017750D01*
X008936Y018820D01*
X009812Y018820D01*
X009812Y018655D01*
X009882Y018585D01*
X010493Y018585D01*
X010562Y018653D01*
X010630Y018585D01*
X011242Y018585D01*
X011312Y018655D01*
X011312Y018770D01*
X011472Y018770D01*
X011537Y018705D01*
X012387Y018705D01*
X012422Y018741D01*
X012422Y018690D01*
X012392Y018690D01*
X012387Y018695D01*
X011537Y018695D01*
X011467Y018625D01*
X011467Y018276D01*
X011537Y018205D01*
X012387Y018205D01*
X012392Y018210D01*
X012422Y018210D01*
X012422Y017960D01*
X012387Y017995D01*
X011537Y017995D01*
X011472Y017930D01*
X011312Y017930D01*
X011312Y018045D01*
X011242Y018116D01*
X010630Y018116D01*
X010562Y018047D01*
X010493Y018116D01*
X009882Y018116D01*
X009812Y018045D01*
X009812Y017705D01*
X008409Y016302D01*
X008459Y016422D01*
X008459Y016580D01*
X008399Y016726D01*
X008287Y016838D01*
X008141Y016899D01*
X007983Y016899D01*
X007837Y016838D01*
X007725Y016726D01*
X007665Y016580D01*
X007665Y016422D01*
X007725Y016276D01*
X007770Y016231D01*
X007417Y016231D01*
X007399Y016276D01*
X007287Y016388D01*
X007141Y016449D01*
X006983Y016449D01*
X006837Y016388D01*
X006742Y016293D01*
X006742Y016426D01*
X006903Y016587D01*
X006983Y016554D01*
X007141Y016554D01*
X007287Y016615D01*
X007399Y016726D01*
X007459Y016872D01*
X007459Y017030D01*
X007399Y017176D01*
X007287Y017288D01*
X007141Y017349D01*
X006983Y017349D01*
X006837Y017288D01*
X006725Y017176D01*
X006665Y017030D01*
X006665Y016872D01*
X006669Y016862D01*
X006487Y016680D01*
X006438Y016631D01*
X006399Y016726D01*
X006287Y016838D01*
X006141Y016899D01*
X005983Y016899D01*
X005837Y016838D01*
X005725Y016726D01*
X005665Y016580D01*
X005665Y016422D01*
X005725Y016276D01*
X005821Y016180D01*
X005487Y016180D01*
X005382Y016075D01*
X004882Y015575D01*
X004882Y007650D01*
X004802Y007650D01*
X004802Y009319D01*
X004815Y009331D01*
X004860Y009441D01*
X004860Y009560D01*
X004815Y009669D01*
X004731Y009753D01*
X004621Y009798D01*
X004503Y009798D01*
X004393Y009753D01*
X004309Y009669D01*
X004264Y009560D01*
X004264Y009441D01*
X004309Y009331D01*
X004322Y009319D01*
X004322Y007650D01*
X004222Y007650D01*
X004222Y022132D01*
X023193Y022132D01*
X023193Y003160D01*
X004222Y003160D01*
X004222Y004585D01*
X004276Y004531D01*
X004848Y004531D01*
X004918Y004601D01*
X004918Y004707D01*
X005023Y004707D01*
X005242Y004926D01*
X005242Y004945D01*
X005504Y004945D01*
X005504Y005283D01*
X005305Y005283D01*
X005264Y005272D01*
X005242Y005259D01*
X005242Y005391D01*
X005276Y005357D01*
X005848Y005357D01*
X005882Y005391D01*
X005882Y005259D01*
X005860Y005272D01*
X005819Y005283D01*
X005620Y005283D01*
X005620Y004945D01*
X005504Y004945D01*
X005504Y004829D01*
X005166Y004829D01*
X005166Y004630D01*
X005177Y004589D01*
X005198Y004552D01*
X005227Y004523D01*
X005264Y004502D01*
X005305Y004491D01*
X005504Y004491D01*
X005504Y004829D01*
X005620Y004829D01*
X005620Y004491D01*
X005819Y004491D01*
X005860Y004502D01*
X005882Y004514D01*
X005882Y003926D01*
X005987Y003820D01*
X006287Y003520D01*
X006362Y003700D02*
X006062Y004000D01*
X006062Y007000D01*
X005788Y007274D01*
X005562Y007274D01*
X005935Y007622D02*
X005960Y007622D01*
X005992Y007740D02*
X005242Y007740D01*
X005242Y007859D02*
X006024Y007859D01*
X006087Y007977D02*
X005242Y007977D01*
X005242Y008096D02*
X006156Y008096D01*
X006261Y008214D02*
X005242Y008214D01*
X005242Y008570D02*
X009138Y008570D01*
X009164Y008451D02*
X007539Y008451D01*
X007744Y008333D02*
X009167Y008333D01*
X009226Y008214D02*
X007863Y008214D01*
X007968Y008096D02*
X009882Y008096D01*
X009882Y008214D02*
X009697Y008214D01*
X009757Y008333D02*
X009775Y008333D01*
X010062Y008300D02*
X010062Y007100D01*
X010294Y006911D02*
X018118Y006911D01*
X017999Y006792D02*
X007967Y006792D01*
X008035Y006911D02*
X009830Y006911D01*
X009769Y007029D02*
X008100Y007029D01*
X008131Y007148D02*
X009764Y007148D01*
X009808Y007266D02*
X008163Y007266D01*
X008172Y007385D02*
X009882Y007385D01*
X009882Y007503D02*
X008172Y007503D01*
X008164Y007622D02*
X009882Y007622D01*
X009882Y007740D02*
X008132Y007740D01*
X008100Y007859D02*
X009882Y007859D01*
X009882Y007977D02*
X008036Y007977D01*
X007834Y008807D02*
X005242Y008807D01*
X005242Y008925D02*
X007770Y008925D01*
X007764Y009044D02*
X005242Y009044D01*
X005242Y009162D02*
X007806Y009162D01*
X007960Y009281D02*
X005242Y009281D01*
X005242Y009399D02*
X008741Y009399D01*
X008673Y009518D02*
X005242Y009518D01*
X005242Y009636D02*
X008664Y009636D01*
X008703Y009755D02*
X005242Y009755D01*
X005242Y009873D02*
X007828Y009873D01*
X007719Y009992D02*
X005242Y009992D01*
X005242Y010110D02*
X007670Y010110D01*
X007665Y010229D02*
X005242Y010229D01*
X005242Y010347D02*
X006804Y010347D01*
X006709Y010466D02*
X005242Y010466D01*
X005242Y010584D02*
X006665Y010584D01*
X006665Y010703D02*
X005242Y010703D01*
X005242Y010821D02*
X005780Y010821D01*
X006062Y011101D02*
X005063Y011101D01*
X005062Y011100D01*
X005062Y015500D01*
X005562Y016000D01*
X006562Y016000D01*
X006562Y015651D01*
X007062Y015151D01*
X007332Y015443D02*
X007698Y015443D01*
X007665Y015561D02*
X006907Y015561D01*
X006921Y015680D02*
X006788Y015680D01*
X006753Y015798D02*
X006742Y015798D01*
X006562Y016000D02*
X006562Y016500D01*
X007013Y016951D01*
X007062Y016951D01*
X007430Y017102D02*
X007800Y017102D01*
X007707Y017220D02*
X007355Y017220D01*
X007165Y017339D02*
X007665Y017339D01*
X007665Y017457D02*
X007148Y017457D01*
X006976Y017457D02*
X006459Y017457D01*
X006459Y017339D02*
X006959Y017339D01*
X006769Y017220D02*
X006417Y017220D01*
X006324Y017102D02*
X006694Y017102D01*
X006665Y016983D02*
X004222Y016983D01*
X004222Y016865D02*
X005901Y016865D01*
X005745Y016746D02*
X004222Y016746D01*
X004222Y016628D02*
X005684Y016628D01*
X005665Y016509D02*
X004222Y016509D01*
X004222Y016391D02*
X005678Y016391D01*
X005729Y016272D02*
X004222Y016272D01*
X004222Y016154D02*
X005461Y016154D01*
X005342Y016035D02*
X004222Y016035D01*
X004222Y015917D02*
X005224Y015917D01*
X005105Y015798D02*
X004222Y015798D01*
X004222Y015680D02*
X004987Y015680D01*
X004882Y015561D02*
X004222Y015561D01*
X004222Y015443D02*
X004882Y015443D01*
X004882Y015324D02*
X004222Y015324D01*
X004222Y015206D02*
X004882Y015206D01*
X004882Y015087D02*
X004222Y015087D01*
X004222Y014969D02*
X004882Y014969D01*
X004882Y014850D02*
X004222Y014850D01*
X004222Y014732D02*
X004882Y014732D01*
X004882Y014613D02*
X004222Y014613D01*
X004222Y014495D02*
X004882Y014495D01*
X004882Y014376D02*
X004222Y014376D01*
X004222Y014258D02*
X004882Y014258D01*
X004882Y014139D02*
X004222Y014139D01*
X004222Y014021D02*
X004882Y014021D01*
X004882Y013902D02*
X004222Y013902D01*
X004222Y013784D02*
X004882Y013784D01*
X004882Y013665D02*
X004222Y013665D01*
X004222Y013547D02*
X004882Y013547D01*
X004882Y013428D02*
X004222Y013428D01*
X004222Y013310D02*
X004882Y013310D01*
X004882Y013191D02*
X004222Y013191D01*
X004222Y013073D02*
X004882Y013073D01*
X004882Y012954D02*
X004222Y012954D01*
X004222Y012836D02*
X004882Y012836D01*
X004882Y012717D02*
X004222Y012717D01*
X004222Y012599D02*
X004882Y012599D01*
X004882Y012480D02*
X004222Y012480D01*
X004222Y012362D02*
X004882Y012362D01*
X004882Y012243D02*
X004222Y012243D01*
X004222Y012125D02*
X004882Y012125D01*
X004882Y012006D02*
X004222Y012006D01*
X004222Y011888D02*
X004882Y011888D01*
X004882Y011769D02*
X004222Y011769D01*
X004222Y011651D02*
X004882Y011651D01*
X004882Y011532D02*
X004222Y011532D01*
X004222Y011414D02*
X004882Y011414D01*
X004882Y011295D02*
X004222Y011295D01*
X004222Y011177D02*
X004882Y011177D01*
X004882Y011058D02*
X004222Y011058D01*
X004222Y010940D02*
X004882Y010940D01*
X004882Y010821D02*
X004222Y010821D01*
X004222Y010703D02*
X004882Y010703D01*
X004882Y010584D02*
X004222Y010584D01*
X004222Y010466D02*
X004882Y010466D01*
X004882Y010347D02*
X004222Y010347D01*
X004222Y010229D02*
X004882Y010229D01*
X004882Y010110D02*
X004222Y010110D01*
X004222Y009992D02*
X004882Y009992D01*
X004882Y009873D02*
X004222Y009873D01*
X004222Y009755D02*
X004397Y009755D01*
X004296Y009636D02*
X004222Y009636D01*
X004222Y009518D02*
X004264Y009518D01*
X004281Y009399D02*
X004222Y009399D01*
X004222Y009281D02*
X004322Y009281D01*
X004322Y009162D02*
X004222Y009162D01*
X004222Y009044D02*
X004322Y009044D01*
X004322Y008925D02*
X004222Y008925D01*
X004222Y008807D02*
X004322Y008807D01*
X004322Y008688D02*
X004222Y008688D01*
X004222Y008570D02*
X004322Y008570D01*
X004322Y008451D02*
X004222Y008451D01*
X004222Y008333D02*
X004322Y008333D01*
X004322Y008214D02*
X004222Y008214D01*
X004222Y008096D02*
X004322Y008096D01*
X004322Y007977D02*
X004222Y007977D01*
X004222Y007859D02*
X004322Y007859D01*
X004322Y007740D02*
X004222Y007740D01*
X004802Y007740D02*
X004882Y007740D01*
X004882Y007859D02*
X004802Y007859D01*
X004802Y007977D02*
X004882Y007977D01*
X004882Y008096D02*
X004802Y008096D01*
X004802Y008214D02*
X004882Y008214D01*
X004882Y008333D02*
X004802Y008333D01*
X004802Y008451D02*
X004882Y008451D01*
X004882Y008570D02*
X004802Y008570D01*
X004802Y008688D02*
X004882Y008688D01*
X004882Y008807D02*
X004802Y008807D01*
X004802Y008925D02*
X004882Y008925D01*
X004882Y009044D02*
X004802Y009044D01*
X004802Y009162D02*
X004882Y009162D01*
X004882Y009281D02*
X004802Y009281D01*
X004843Y009399D02*
X004882Y009399D01*
X004882Y009518D02*
X004860Y009518D01*
X004882Y009636D02*
X004828Y009636D01*
X004882Y009755D02*
X004726Y009755D01*
X005242Y008688D02*
X009019Y008688D01*
X008901Y008807D02*
X008290Y008807D01*
X008062Y009000D02*
X008962Y009000D01*
X009462Y008500D01*
X009462Y008400D01*
X009810Y008807D02*
X009834Y008807D01*
X009928Y008688D02*
X021082Y008688D01*
X021082Y008807D02*
X010290Y008807D01*
X010354Y008925D02*
X021082Y008925D01*
X021082Y009044D02*
X010360Y009044D01*
X010317Y009162D02*
X021082Y009162D01*
X021082Y009281D02*
X010164Y009281D01*
X009960Y009281D02*
X009836Y009281D01*
X009742Y009399D02*
X021082Y009399D01*
X021065Y009518D02*
X009742Y009518D01*
X009742Y009636D02*
X020907Y009636D01*
X020864Y009755D02*
X009742Y009755D01*
X009742Y009873D02*
X020869Y009873D01*
X020932Y009992D02*
X009742Y009992D01*
X009742Y010110D02*
X021282Y010110D01*
X021282Y010229D02*
X009742Y010229D01*
X009742Y010347D02*
X021260Y010347D01*
X021142Y010466D02*
X009742Y010466D01*
X009742Y010584D02*
X011856Y010584D01*
X011893Y010548D02*
X011809Y010631D01*
X011764Y010741D01*
X011764Y010860D01*
X011809Y010969D01*
X011882Y011042D01*
X011882Y012259D01*
X011809Y012331D01*
X011764Y012441D01*
X011764Y012560D01*
X011809Y012669D01*
X011893Y012753D01*
X012003Y012798D01*
X012121Y012798D01*
X012231Y012753D01*
X012315Y012669D01*
X012360Y012560D01*
X012360Y012441D01*
X012315Y012331D01*
X012242Y012259D01*
X012242Y011042D01*
X012315Y010969D01*
X012360Y010860D01*
X012360Y010741D01*
X012315Y010631D01*
X012231Y010548D01*
X012121Y010502D01*
X012003Y010502D01*
X011893Y010548D01*
X011780Y010703D02*
X009714Y010703D01*
X009595Y010821D02*
X011764Y010821D01*
X011797Y010940D02*
X009477Y010940D01*
X009358Y011058D02*
X011882Y011058D01*
X011882Y011177D02*
X009240Y011177D01*
X009121Y011295D02*
X011882Y011295D01*
X011882Y011414D02*
X009003Y011414D01*
X008884Y011532D02*
X011882Y011532D01*
X011882Y011651D02*
X008766Y011651D01*
X008647Y011769D02*
X011882Y011769D01*
X011882Y011888D02*
X008529Y011888D01*
X008459Y012006D02*
X011882Y012006D01*
X011882Y012125D02*
X008441Y012125D01*
X008161Y012001D02*
X009562Y010600D01*
X009562Y009300D01*
X009862Y009000D01*
X010062Y009000D01*
X010047Y008570D02*
X020977Y008570D01*
X020858Y008451D02*
X016832Y008451D01*
X016831Y008453D02*
X016903Y008380D01*
X017636Y008380D01*
X017818Y008198D01*
X017921Y008198D01*
X018031Y008153D01*
X018115Y008069D01*
X018160Y007960D01*
X018160Y007841D01*
X018115Y007731D01*
X018031Y007648D01*
X017921Y007602D01*
X017803Y007602D01*
X017693Y007648D01*
X017609Y007731D01*
X017564Y007841D01*
X017564Y007944D01*
X017487Y008020D01*
X016903Y008020D01*
X016831Y007948D01*
X016721Y007902D01*
X016603Y007902D01*
X016493Y007948D01*
X016409Y008031D01*
X016364Y008141D01*
X016364Y008260D01*
X016409Y008369D01*
X016493Y008453D01*
X016603Y008498D01*
X016721Y008498D01*
X016831Y008453D01*
X016662Y008200D02*
X017562Y008200D01*
X017862Y007900D01*
X018088Y008096D02*
X020503Y008096D01*
X020621Y008214D02*
X017802Y008214D01*
X017684Y008333D02*
X020740Y008333D01*
X020384Y007977D02*
X018153Y007977D01*
X018160Y007859D02*
X020266Y007859D01*
X020147Y007740D02*
X018118Y007740D01*
X017969Y007622D02*
X020029Y007622D01*
X019910Y007503D02*
X010242Y007503D01*
X010242Y007385D02*
X019792Y007385D01*
X019673Y007266D02*
X010316Y007266D01*
X010360Y007148D02*
X019555Y007148D01*
X019436Y007029D02*
X010355Y007029D01*
X010242Y007622D02*
X017755Y007622D01*
X017605Y007740D02*
X010242Y007740D01*
X010242Y007859D02*
X017564Y007859D01*
X017530Y007977D02*
X016860Y007977D01*
X016463Y007977D02*
X010242Y007977D01*
X010242Y008096D02*
X016382Y008096D01*
X016364Y008214D02*
X010242Y008214D01*
X010242Y008333D02*
X016394Y008333D01*
X016491Y008451D02*
X010165Y008451D01*
X010062Y008300D02*
X009362Y009000D01*
X009362Y010500D01*
X008761Y011101D01*
X008062Y011101D01*
X007662Y010800D02*
X007662Y011600D01*
X007262Y012000D01*
X006762Y012000D01*
X006362Y012400D01*
X005762Y012400D01*
X005462Y012700D01*
X005665Y012919D02*
X005631Y012953D01*
X005521Y012998D01*
X005403Y012998D01*
X005293Y012953D01*
X005242Y012902D01*
X005242Y015426D01*
X005636Y015820D01*
X005723Y015820D01*
X005665Y015680D01*
X005496Y015680D01*
X005614Y015798D02*
X005714Y015798D01*
X005665Y015680D02*
X005665Y015522D01*
X005725Y015376D01*
X005837Y015265D01*
X005983Y015204D01*
X006003Y015204D01*
X006109Y015099D01*
X005983Y015099D01*
X005837Y015038D01*
X005725Y014926D01*
X005665Y014780D01*
X005665Y014622D01*
X005725Y014476D01*
X005837Y014365D01*
X005983Y014304D01*
X006003Y014304D01*
X006109Y014199D01*
X005983Y014199D01*
X005837Y014138D01*
X005725Y014026D01*
X005665Y013880D01*
X005665Y013722D01*
X005725Y013576D01*
X005837Y013465D01*
X005983Y013404D01*
X006003Y013404D01*
X006109Y013299D01*
X005983Y013299D01*
X005837Y013238D01*
X005725Y013126D01*
X005665Y012980D01*
X005665Y012919D01*
X005665Y012954D02*
X005628Y012954D01*
X005703Y013073D02*
X005242Y013073D01*
X005242Y013191D02*
X005790Y013191D01*
X005925Y013428D02*
X005242Y013428D01*
X005242Y013310D02*
X006098Y013310D01*
X006062Y013600D02*
X006762Y012900D01*
X007262Y012900D01*
X007762Y012400D01*
X010662Y012400D01*
X011962Y013700D01*
X012084Y013428D02*
X020782Y013428D01*
X020782Y013310D02*
X011826Y013310D01*
X011707Y013191D02*
X020782Y013191D01*
X020782Y013073D02*
X011589Y013073D01*
X011470Y012954D02*
X020782Y012954D01*
X020782Y012836D02*
X011352Y012836D01*
X011233Y012717D02*
X011857Y012717D01*
X011780Y012599D02*
X011115Y012599D01*
X010996Y012480D02*
X011764Y012480D01*
X011797Y012362D02*
X010878Y012362D01*
X010759Y012243D02*
X011882Y012243D01*
X012062Y012500D02*
X012062Y010800D01*
X012267Y010584D02*
X021023Y010584D01*
X020905Y010703D02*
X012344Y010703D01*
X012360Y010821D02*
X020786Y010821D01*
X020782Y010940D02*
X012327Y010940D01*
X012242Y011058D02*
X020782Y011058D01*
X020782Y011177D02*
X018060Y011177D01*
X018031Y011148D02*
X018115Y011231D01*
X018160Y011341D01*
X018160Y011460D01*
X018115Y011569D01*
X018031Y011653D01*
X017921Y011698D01*
X017803Y011698D01*
X017693Y011653D01*
X017620Y011580D01*
X016803Y011580D01*
X016731Y011653D01*
X016621Y011698D01*
X016503Y011698D01*
X016393Y011653D01*
X016309Y011569D01*
X016264Y011460D01*
X016264Y011341D01*
X016309Y011231D01*
X016393Y011148D01*
X016503Y011102D01*
X016621Y011102D01*
X016731Y011148D01*
X016803Y011220D01*
X017620Y011220D01*
X017693Y011148D01*
X017803Y011102D01*
X017921Y011102D01*
X018031Y011148D01*
X018141Y011295D02*
X020782Y011295D01*
X020782Y011414D02*
X018160Y011414D01*
X018130Y011532D02*
X020782Y011532D01*
X020782Y011651D02*
X018033Y011651D01*
X017862Y011400D02*
X016562Y011400D01*
X016283Y011295D02*
X012242Y011295D01*
X012242Y011177D02*
X016364Y011177D01*
X016264Y011414D02*
X012242Y011414D01*
X012242Y011532D02*
X016294Y011532D01*
X016391Y011651D02*
X012242Y011651D01*
X012242Y011769D02*
X020782Y011769D01*
X020782Y011888D02*
X012242Y011888D01*
X012242Y012006D02*
X020782Y012006D01*
X020782Y012125D02*
X012242Y012125D01*
X012242Y012243D02*
X020782Y012243D01*
X020782Y012362D02*
X012327Y012362D01*
X012360Y012480D02*
X020782Y012480D01*
X020782Y012599D02*
X012344Y012599D01*
X012266Y012717D02*
X020782Y012717D01*
X020782Y013547D02*
X012221Y013547D01*
X012260Y013665D02*
X020782Y013665D01*
X020782Y013784D02*
X012250Y013784D01*
X012181Y013902D02*
X020782Y013902D01*
X020782Y014021D02*
X016666Y014021D01*
X016621Y014002D02*
X016731Y014048D01*
X016803Y014120D01*
X017659Y014120D01*
X017703Y014102D01*
X017821Y014102D01*
X017931Y014148D01*
X018015Y014231D01*
X018060Y014341D01*
X018060Y014460D01*
X018015Y014569D01*
X017931Y014653D01*
X017821Y014698D01*
X017703Y014698D01*
X017593Y014653D01*
X017509Y014569D01*
X017472Y014480D01*
X016803Y014480D01*
X016731Y014553D01*
X016621Y014598D01*
X016503Y014598D01*
X016393Y014553D01*
X016309Y014469D01*
X016264Y014360D01*
X016264Y014241D01*
X016309Y014131D01*
X016393Y014048D01*
X016503Y014002D01*
X016621Y014002D01*
X016458Y014021D02*
X010937Y014021D01*
X011055Y014139D02*
X016306Y014139D01*
X016264Y014258D02*
X011142Y014258D01*
X011142Y014376D02*
X016271Y014376D01*
X016335Y014495D02*
X011142Y014495D01*
X011142Y014613D02*
X017553Y014613D01*
X017478Y014495D02*
X016789Y014495D01*
X016562Y014300D02*
X017662Y014300D01*
X017762Y014400D01*
X017970Y014613D02*
X020782Y014613D01*
X020782Y014495D02*
X018045Y014495D01*
X018060Y014376D02*
X020782Y014376D01*
X020782Y014258D02*
X018026Y014258D01*
X017911Y014139D02*
X020782Y014139D01*
X020782Y014732D02*
X011142Y014732D01*
X011142Y014850D02*
X020782Y014850D01*
X020782Y014969D02*
X011142Y014969D01*
X011203Y015087D02*
X020782Y015087D01*
X020782Y015206D02*
X011322Y015206D01*
X011440Y015324D02*
X016449Y015324D01*
X016675Y015324D02*
X020782Y015324D01*
X020782Y015443D02*
X016819Y015443D01*
X016860Y015561D02*
X020782Y015561D01*
X020782Y015680D02*
X016852Y015680D01*
X016785Y015798D02*
X020782Y015798D01*
X020691Y015917D02*
X016460Y015917D01*
X016162Y015900D02*
X012162Y015900D01*
X011881Y015798D02*
X010785Y015798D01*
X010852Y015680D02*
X011287Y015680D01*
X011168Y015561D02*
X010860Y015561D01*
X010819Y015443D02*
X011050Y015443D01*
X010931Y015324D02*
X010742Y015324D01*
X010742Y015206D02*
X010813Y015206D01*
X010782Y015087D02*
X010742Y015087D01*
X010742Y014969D02*
X010782Y014969D01*
X010782Y014850D02*
X010742Y014850D01*
X010742Y014732D02*
X010782Y014732D01*
X010782Y014613D02*
X010742Y014613D01*
X010742Y014495D02*
X010782Y014495D01*
X010782Y014376D02*
X010692Y014376D01*
X010665Y014258D02*
X010574Y014258D01*
X010546Y014139D02*
X010455Y014139D01*
X010428Y014021D02*
X010337Y014021D01*
X010309Y013902D02*
X010218Y013902D01*
X010191Y013784D02*
X010100Y013784D01*
X010072Y013665D02*
X009981Y013665D01*
X009954Y013547D02*
X009824Y013547D01*
X009862Y013800D02*
X008063Y013800D01*
X008062Y013801D01*
X007762Y014200D02*
X008762Y014200D01*
X009004Y014021D02*
X009828Y014021D01*
X009946Y014139D02*
X009059Y014139D01*
X009060Y014258D02*
X010065Y014258D01*
X010183Y014376D02*
X009007Y014376D01*
X008830Y014495D02*
X010302Y014495D01*
X010382Y014613D02*
X008455Y014613D01*
X008459Y014732D02*
X010382Y014732D01*
X010382Y014850D02*
X008430Y014850D01*
X008356Y014969D02*
X010382Y014969D01*
X010382Y015087D02*
X008168Y015087D01*
X008145Y015206D02*
X010382Y015206D01*
X010382Y015324D02*
X008346Y015324D01*
X008426Y015443D02*
X010304Y015443D01*
X010562Y015600D02*
X010562Y014500D01*
X009862Y013800D01*
X009562Y013400D02*
X007662Y013400D01*
X007262Y013800D01*
X006762Y013800D01*
X006062Y014500D01*
X006062Y014701D01*
X005694Y014850D02*
X005242Y014850D01*
X005242Y014732D02*
X005665Y014732D01*
X005669Y014613D02*
X005242Y014613D01*
X005242Y014495D02*
X005718Y014495D01*
X005825Y014376D02*
X005242Y014376D01*
X005242Y014258D02*
X006050Y014258D01*
X005840Y014139D02*
X005242Y014139D01*
X005242Y014021D02*
X005723Y014021D01*
X005674Y013902D02*
X005242Y013902D01*
X005242Y013784D02*
X005665Y013784D01*
X005688Y013665D02*
X005242Y013665D01*
X005242Y013547D02*
X005755Y013547D01*
X006062Y013600D02*
X006062Y013801D01*
X006762Y014700D02*
X007262Y014700D01*
X007762Y014200D01*
X007669Y014613D02*
X007603Y014613D01*
X007665Y014732D02*
X007485Y014732D01*
X007366Y014850D02*
X007694Y014850D01*
X007768Y014969D02*
X007416Y014969D01*
X007459Y015087D02*
X007956Y015087D01*
X007979Y015206D02*
X007459Y015206D01*
X007420Y015324D02*
X007777Y015324D01*
X008410Y015798D02*
X010338Y015798D01*
X010962Y015100D02*
X011462Y015600D01*
X016562Y015600D01*
X016517Y016391D02*
X014526Y016391D01*
X014407Y016509D02*
X015731Y016509D01*
X015669Y016628D02*
X014289Y016628D01*
X014260Y016746D02*
X015664Y016746D01*
X015707Y016865D02*
X014216Y016865D01*
X014058Y016983D02*
X015866Y016983D01*
X016058Y016983D02*
X016724Y016983D01*
X016764Y016944D02*
X016764Y016841D01*
X016809Y016731D01*
X016893Y016648D01*
X017003Y016602D01*
X017121Y016602D01*
X017231Y016648D01*
X017315Y016731D01*
X017360Y016841D01*
X017360Y016960D01*
X017315Y017069D01*
X017231Y017153D01*
X017121Y017198D01*
X017018Y017198D01*
X016892Y017325D01*
X016786Y017430D01*
X014652Y017430D01*
X014603Y017479D01*
X014635Y017497D01*
X014665Y017527D01*
X014686Y017563D01*
X014697Y017604D01*
X014697Y017748D01*
X014164Y017748D01*
X014164Y017753D01*
X014159Y017753D01*
X014159Y017748D01*
X013627Y017748D01*
X013627Y017604D01*
X013638Y017563D01*
X013659Y017527D01*
X013689Y017497D01*
X013721Y017479D01*
X013667Y017425D01*
X013667Y017076D01*
X013737Y017005D01*
X014587Y017005D01*
X014652Y017070D01*
X016637Y017070D01*
X016764Y016944D01*
X016764Y016865D02*
X016552Y016865D01*
X016670Y016746D02*
X016803Y016746D01*
X016789Y016628D02*
X016941Y016628D01*
X017183Y016628D02*
X020882Y016628D01*
X020882Y016746D02*
X017321Y016746D01*
X017360Y016865D02*
X020882Y016865D01*
X020882Y016983D02*
X017350Y016983D01*
X017282Y017102D02*
X020882Y017102D01*
X020882Y017220D02*
X016996Y017220D01*
X016878Y017339D02*
X020882Y017339D01*
X020882Y017457D02*
X018641Y017457D01*
X018631Y017448D02*
X018715Y017531D01*
X018760Y017641D01*
X018760Y017760D01*
X018715Y017869D01*
X018631Y017953D01*
X018521Y017998D01*
X018418Y017998D01*
X017786Y018630D01*
X014652Y018630D01*
X014603Y018679D01*
X014635Y018697D01*
X014665Y018727D01*
X014686Y018763D01*
X014697Y018804D01*
X014697Y018948D01*
X014164Y018948D01*
X014164Y018953D01*
X014159Y018953D01*
X014159Y018948D01*
X013627Y018948D01*
X013627Y018804D01*
X013638Y018763D01*
X013659Y018727D01*
X013689Y018697D01*
X013721Y018679D01*
X013667Y018625D01*
X013667Y018276D01*
X013737Y018205D01*
X014587Y018205D01*
X014652Y018270D01*
X017637Y018270D01*
X018164Y017744D01*
X018164Y017641D01*
X018209Y017531D01*
X018293Y017448D01*
X018403Y017402D01*
X018521Y017402D01*
X018631Y017448D01*
X018733Y017576D02*
X020882Y017576D01*
X020882Y017694D02*
X018760Y017694D01*
X018738Y017813D02*
X020882Y017813D01*
X020882Y017931D02*
X018652Y017931D01*
X018462Y017700D02*
X017712Y018450D01*
X014162Y018450D01*
X014164Y018035D02*
X014558Y018035D01*
X014599Y018024D01*
X014635Y018003D01*
X014665Y017973D01*
X014686Y017937D01*
X014697Y017896D01*
X014697Y017753D01*
X014164Y017753D01*
X014164Y018035D01*
X014159Y018035D02*
X013766Y018035D01*
X013725Y018024D01*
X013689Y018003D01*
X013659Y017973D01*
X013638Y017937D01*
X013627Y017896D01*
X013627Y017753D01*
X014159Y017753D01*
X014159Y018035D01*
X014159Y017931D02*
X014164Y017931D01*
X014159Y017813D02*
X014164Y017813D01*
X014697Y017813D02*
X018095Y017813D01*
X018164Y017694D02*
X014697Y017694D01*
X014689Y017576D02*
X018191Y017576D01*
X018283Y017457D02*
X014625Y017457D01*
X014688Y017931D02*
X017976Y017931D01*
X017858Y018050D02*
X012902Y018050D01*
X012902Y018168D02*
X017739Y018168D01*
X018011Y018405D02*
X020882Y018405D01*
X020882Y018287D02*
X018130Y018287D01*
X018248Y018168D02*
X020882Y018168D01*
X020882Y018050D02*
X018367Y018050D01*
X018412Y017750D02*
X018462Y017700D01*
X017893Y018524D02*
X020784Y018524D01*
X020665Y018642D02*
X014640Y018642D01*
X014684Y018761D02*
X016980Y018761D01*
X017162Y019000D02*
X015562Y019000D01*
X014462Y020100D01*
X013762Y020100D01*
X013882Y019827D02*
X014480Y019827D01*
X014599Y019709D02*
X012693Y019709D01*
X012811Y019590D02*
X014717Y019590D01*
X014836Y019472D02*
X012892Y019472D01*
X012902Y019353D02*
X014954Y019353D01*
X015073Y019235D02*
X014560Y019235D01*
X014558Y019235D02*
X014164Y019235D01*
X014159Y019235D01*
X013766Y019235D01*
X013725Y019224D01*
X013689Y019203D01*
X013659Y019173D01*
X013638Y019137D01*
X013627Y019096D01*
X013627Y018953D01*
X014159Y018953D01*
X014159Y019235D01*
X014164Y019235D02*
X014164Y018953D01*
X014697Y018953D01*
X014697Y019096D01*
X014686Y019137D01*
X014665Y019173D01*
X014635Y019203D01*
X014599Y019224D01*
X014558Y019235D01*
X014692Y019116D02*
X015191Y019116D01*
X015310Y018998D02*
X014697Y018998D01*
X014697Y018879D02*
X015428Y018879D01*
X015582Y019235D02*
X016975Y019235D01*
X017162Y019000D02*
X020562Y019000D01*
X021062Y018500D01*
X021062Y016400D01*
X021362Y016100D01*
X021362Y011100D01*
X021862Y010600D01*
X021862Y008300D01*
X019762Y006200D01*
X018762Y006200D01*
X018562Y006000D01*
X018162Y006100D02*
X018162Y005800D01*
X017562Y005200D01*
X017562Y004500D01*
X017062Y004000D01*
X017362Y003711D02*
X017761Y003711D01*
X017709Y003764D02*
X017826Y003647D01*
X017979Y003583D01*
X018145Y003583D01*
X018298Y003647D01*
X018415Y003764D01*
X018479Y003917D01*
X018479Y004083D01*
X018415Y004236D01*
X018298Y004354D01*
X018145Y004417D01*
X017979Y004417D01*
X017826Y004354D01*
X017709Y004236D01*
X017645Y004083D01*
X017645Y003917D01*
X017709Y003764D01*
X017681Y003830D02*
X017442Y003830D01*
X017479Y003948D02*
X017645Y003948D01*
X017645Y004067D02*
X017479Y004067D01*
X017501Y004185D02*
X017687Y004185D01*
X017620Y004304D02*
X017776Y004304D01*
X017738Y004422D02*
X020229Y004422D01*
X020348Y004541D02*
X017742Y004541D01*
X017742Y004659D02*
X017813Y004659D01*
X018062Y005000D02*
X018162Y005000D01*
X019162Y006000D01*
X019862Y006000D01*
X022062Y008200D01*
X022062Y010700D01*
X021562Y011200D01*
X021562Y016500D01*
X022362Y017300D01*
X022585Y017102D02*
X023193Y017102D01*
X023193Y017220D02*
X022651Y017220D01*
X022660Y017339D02*
X023193Y017339D01*
X023193Y017457D02*
X022620Y017457D01*
X022476Y017576D02*
X023193Y017576D01*
X023193Y017694D02*
X021242Y017694D01*
X021242Y017576D02*
X022248Y017576D01*
X022104Y017457D02*
X021242Y017457D01*
X021242Y017339D02*
X022064Y017339D01*
X022027Y017220D02*
X021242Y017220D01*
X021242Y017102D02*
X021909Y017102D01*
X021790Y016983D02*
X021242Y016983D01*
X021242Y016865D02*
X021672Y016865D01*
X021553Y016746D02*
X021242Y016746D01*
X021242Y016628D02*
X021435Y016628D01*
X021382Y016509D02*
X021242Y016509D01*
X021326Y016391D02*
X021382Y016391D01*
X021162Y016000D02*
X020762Y016400D01*
X016762Y016400D01*
X016462Y016700D01*
X015962Y016700D01*
X016193Y016509D02*
X016398Y016509D01*
X017062Y016900D02*
X016712Y017250D01*
X014162Y017250D01*
X013866Y016983D02*
X009599Y016983D01*
X009481Y016865D02*
X013707Y016865D01*
X013664Y016746D02*
X009362Y016746D01*
X009244Y016628D02*
X013669Y016628D01*
X013731Y016509D02*
X009125Y016509D01*
X009007Y016391D02*
X014017Y016391D01*
X014135Y016272D02*
X008888Y016272D01*
X008770Y016154D02*
X011995Y016154D01*
X011895Y016035D02*
X008651Y016035D01*
X008533Y015917D02*
X011864Y015917D01*
X012329Y016154D02*
X014254Y016154D01*
X014462Y016200D02*
X020662Y016200D01*
X020962Y015900D01*
X020962Y010900D01*
X021462Y010400D01*
X021462Y008500D01*
X019562Y006600D01*
X018362Y006600D01*
X017962Y006200D01*
X017962Y005900D01*
X017062Y005000D01*
X016703Y004778D02*
X016421Y004778D01*
X016512Y004896D02*
X016654Y004896D01*
X016645Y005015D02*
X016631Y005015D01*
X016362Y005000D02*
X016062Y005000D01*
X016362Y005000D02*
X016862Y005500D01*
X017262Y005500D01*
X017762Y006000D01*
X017762Y006300D01*
X018262Y006800D01*
X019462Y006800D01*
X021262Y008600D01*
X021262Y009700D01*
X021162Y009800D01*
X021662Y010500D02*
X021162Y011000D01*
X021162Y016000D01*
X021742Y016154D02*
X021761Y016154D01*
X021742Y016272D02*
X021879Y016272D01*
X021998Y016391D02*
X021742Y016391D01*
X021825Y016509D02*
X022064Y016509D01*
X022092Y016628D02*
X021944Y016628D01*
X022062Y016746D02*
X022186Y016746D01*
X022181Y016865D02*
X023193Y016865D01*
X023193Y016983D02*
X022299Y016983D01*
X022537Y016746D02*
X023193Y016746D01*
X023193Y016628D02*
X022632Y016628D01*
X022660Y016509D02*
X023193Y016509D01*
X023193Y016391D02*
X022639Y016391D01*
X022556Y016272D02*
X023193Y016272D01*
X023193Y016154D02*
X022270Y016154D01*
X022151Y016035D02*
X023193Y016035D01*
X023193Y015917D02*
X022033Y015917D01*
X021942Y015798D02*
X023193Y015798D01*
X023193Y015680D02*
X021942Y015680D01*
X021942Y015561D02*
X023193Y015561D01*
X023193Y015443D02*
X021942Y015443D01*
X021942Y015324D02*
X023193Y015324D01*
X023193Y015206D02*
X021942Y015206D01*
X021942Y015087D02*
X023193Y015087D01*
X023193Y014969D02*
X021942Y014969D01*
X021942Y014850D02*
X023193Y014850D01*
X023193Y014732D02*
X022252Y014732D01*
X022338Y014613D02*
X023193Y014613D01*
X023193Y014495D02*
X022360Y014495D01*
X022333Y014376D02*
X023193Y014376D01*
X023193Y014258D02*
X022241Y014258D01*
X022142Y014139D02*
X023193Y014139D01*
X023193Y014021D02*
X022142Y014021D01*
X022142Y013902D02*
X023193Y013902D01*
X023193Y013784D02*
X022656Y013784D01*
X022467Y013784D02*
X022142Y013784D01*
X022142Y013665D02*
X022308Y013665D01*
X022264Y013547D02*
X022142Y013547D01*
X022142Y013428D02*
X022235Y013428D01*
X022562Y013500D02*
X022162Y013100D01*
X022162Y012200D01*
X022862Y011500D01*
X022862Y007800D01*
X020562Y005500D01*
X020562Y004500D01*
X020062Y004000D01*
X020362Y003711D02*
X020761Y003711D01*
X020709Y003764D02*
X020826Y003647D01*
X020979Y003583D01*
X021145Y003583D01*
X021298Y003647D01*
X021415Y003764D01*
X021479Y003917D01*
X021479Y004083D01*
X021415Y004236D01*
X021298Y004354D01*
X021145Y004417D01*
X020979Y004417D01*
X020826Y004354D01*
X020709Y004236D01*
X020645Y004083D01*
X020645Y003917D01*
X020709Y003764D01*
X020681Y003830D02*
X020442Y003830D01*
X020479Y003948D02*
X020645Y003948D01*
X020645Y004067D02*
X020479Y004067D01*
X020501Y004185D02*
X020687Y004185D01*
X020620Y004304D02*
X020776Y004304D01*
X020738Y004422D02*
X023193Y004422D01*
X023193Y004304D02*
X021348Y004304D01*
X021436Y004185D02*
X023193Y004185D01*
X023193Y004067D02*
X021479Y004067D01*
X021479Y003948D02*
X023193Y003948D01*
X023193Y003830D02*
X021442Y003830D01*
X021362Y003711D02*
X023193Y003711D01*
X023193Y003593D02*
X021167Y003593D01*
X020956Y003593D02*
X020167Y003593D01*
X019956Y003593D02*
X019167Y003593D01*
X019145Y003583D02*
X019298Y003647D01*
X019415Y003764D01*
X019479Y003917D01*
X019479Y004083D01*
X019415Y004236D01*
X019298Y004354D01*
X019145Y004417D01*
X018979Y004417D01*
X018826Y004354D01*
X018709Y004236D01*
X018645Y004083D01*
X018645Y003917D01*
X018709Y003764D01*
X018826Y003647D01*
X018979Y003583D01*
X019145Y003583D01*
X018956Y003593D02*
X018167Y003593D01*
X017956Y003593D02*
X017167Y003593D01*
X016956Y003593D02*
X016167Y003593D01*
X016145Y003583D02*
X016298Y003647D01*
X016415Y003764D01*
X016479Y003917D01*
X016479Y004083D01*
X016415Y004236D01*
X016298Y004354D01*
X016145Y004417D01*
X015979Y004417D01*
X015826Y004354D01*
X015709Y004236D01*
X015645Y004083D01*
X015645Y003917D01*
X015709Y003764D01*
X015826Y003647D01*
X015979Y003583D01*
X016145Y003583D01*
X015956Y003593D02*
X015167Y003593D01*
X015145Y003583D02*
X015298Y003647D01*
X015415Y003764D01*
X015479Y003917D01*
X015479Y004083D01*
X015415Y004236D01*
X015298Y004354D01*
X015145Y004417D01*
X014979Y004417D01*
X014826Y004354D01*
X014709Y004236D01*
X014645Y004083D01*
X014645Y003917D01*
X014709Y003764D01*
X014826Y003647D01*
X014979Y003583D01*
X015145Y003583D01*
X014956Y003593D02*
X014268Y003593D01*
X014237Y003577D02*
X014301Y003610D01*
X014360Y003652D01*
X014410Y003703D01*
X014453Y003761D01*
X014485Y003825D01*
X014507Y003893D01*
X014518Y003962D01*
X014100Y003962D01*
X014100Y003544D01*
X014169Y003555D01*
X014237Y003577D01*
X014100Y003593D02*
X014023Y003593D01*
X014023Y003544D02*
X014023Y003962D01*
X013605Y003962D01*
X013616Y003893D01*
X013639Y003825D01*
X013671Y003761D01*
X013713Y003703D01*
X013764Y003652D01*
X013822Y003610D01*
X013887Y003577D01*
X013955Y003555D01*
X014023Y003544D01*
X014023Y003711D02*
X014100Y003711D01*
X014100Y003830D02*
X014023Y003830D01*
X014023Y003948D02*
X014100Y003948D01*
X014100Y003962D02*
X014023Y003962D01*
X014023Y004039D01*
X013605Y004039D01*
X013616Y004107D01*
X013639Y004176D01*
X013671Y004240D01*
X013713Y004298D01*
X013764Y004349D01*
X013822Y004391D01*
X013887Y004424D01*
X013955Y004446D01*
X014023Y004457D01*
X014023Y004039D01*
X014100Y004039D01*
X014100Y004457D01*
X014169Y004446D01*
X014237Y004424D01*
X014301Y004391D01*
X014360Y004349D01*
X014410Y004298D01*
X014453Y004240D01*
X014485Y004176D01*
X014507Y004107D01*
X014518Y004039D01*
X014100Y004039D01*
X014100Y003962D01*
X014100Y004067D02*
X014023Y004067D01*
X014023Y004185D02*
X014100Y004185D01*
X014100Y004304D02*
X014023Y004304D01*
X014023Y004422D02*
X014100Y004422D01*
X014100Y004544D02*
X014169Y004555D01*
X014237Y004577D01*
X014301Y004610D01*
X014360Y004652D01*
X014410Y004703D01*
X014453Y004761D01*
X014485Y004825D01*
X014507Y004893D01*
X014518Y004962D01*
X014100Y004962D01*
X014100Y004544D01*
X014023Y004544D02*
X014023Y004962D01*
X013605Y004962D01*
X013616Y004893D01*
X013639Y004825D01*
X013671Y004761D01*
X013713Y004703D01*
X013764Y004652D01*
X013822Y004610D01*
X013887Y004577D01*
X013955Y004555D01*
X014023Y004544D01*
X014023Y004659D02*
X014100Y004659D01*
X014100Y004778D02*
X014023Y004778D01*
X014023Y004896D02*
X014100Y004896D01*
X014100Y004962D02*
X014023Y004962D01*
X014023Y005039D01*
X013605Y005039D01*
X013616Y005107D01*
X013639Y005176D01*
X013661Y005219D01*
X013593Y005248D01*
X013509Y005331D01*
X013464Y005441D01*
X013464Y005560D01*
X013509Y005669D01*
X013593Y005753D01*
X013703Y005798D01*
X013821Y005798D01*
X013931Y005753D01*
X014015Y005669D01*
X014060Y005560D01*
X014060Y005441D01*
X014023Y005353D01*
X014023Y005039D01*
X014100Y005039D01*
X014100Y005457D01*
X014169Y005446D01*
X014237Y005424D01*
X014301Y005391D01*
X014360Y005349D01*
X014410Y005298D01*
X014453Y005240D01*
X014485Y005176D01*
X014507Y005107D01*
X014518Y005039D01*
X014100Y005039D01*
X014100Y004962D01*
X014100Y005015D02*
X014645Y005015D01*
X014645Y005083D02*
X014645Y004917D01*
X014709Y004764D01*
X014826Y004647D01*
X014979Y004583D01*
X015145Y004583D01*
X015298Y004647D01*
X015415Y004764D01*
X015479Y004917D01*
X015479Y005083D01*
X015415Y005236D01*
X015298Y005354D01*
X015145Y005417D01*
X014979Y005417D01*
X014826Y005354D01*
X014709Y005236D01*
X014645Y005083D01*
X014666Y005133D02*
X014499Y005133D01*
X014444Y005252D02*
X014724Y005252D01*
X014866Y005370D02*
X014330Y005370D01*
X014100Y005370D02*
X014031Y005370D01*
X014023Y005252D02*
X014100Y005252D01*
X014100Y005133D02*
X014023Y005133D01*
X014023Y005015D02*
X012242Y005015D01*
X012242Y005133D02*
X013625Y005133D01*
X013589Y005252D02*
X012242Y005252D01*
X012331Y005370D02*
X013493Y005370D01*
X013464Y005489D02*
X012360Y005489D01*
X012340Y005607D02*
X013484Y005607D01*
X013566Y005726D02*
X012276Y005726D01*
X012401Y005844D02*
X017351Y005844D01*
X017233Y005726D02*
X013958Y005726D01*
X014040Y005607D02*
X016714Y005607D01*
X016596Y005489D02*
X014060Y005489D01*
X013616Y004896D02*
X012242Y004896D01*
X012242Y004778D02*
X013663Y004778D01*
X013757Y004659D02*
X012242Y004659D01*
X012242Y004541D02*
X017348Y004541D01*
X017382Y004659D02*
X017310Y004659D01*
X017229Y004422D02*
X014240Y004422D01*
X014404Y004304D02*
X014776Y004304D01*
X014687Y004185D02*
X014480Y004185D01*
X014514Y004067D02*
X014645Y004067D01*
X014645Y003948D02*
X014516Y003948D01*
X014487Y003830D02*
X014681Y003830D01*
X014761Y003711D02*
X014417Y003711D01*
X013855Y003593D02*
X011609Y003593D01*
X011727Y003711D02*
X013707Y003711D01*
X013637Y003830D02*
X011846Y003830D01*
X011964Y003948D02*
X013608Y003948D01*
X013610Y004067D02*
X012083Y004067D01*
X012201Y004185D02*
X013643Y004185D01*
X013719Y004304D02*
X012242Y004304D01*
X012242Y004422D02*
X013884Y004422D01*
X014367Y004659D02*
X014813Y004659D01*
X014703Y004778D02*
X014461Y004778D01*
X014508Y004896D02*
X014654Y004896D01*
X015258Y005370D02*
X015866Y005370D01*
X015724Y005252D02*
X015400Y005252D01*
X015458Y005133D02*
X015666Y005133D01*
X015645Y005015D02*
X015479Y005015D01*
X015470Y004896D02*
X015654Y004896D01*
X015703Y004778D02*
X015421Y004778D01*
X015310Y004659D02*
X015813Y004659D01*
X015776Y004304D02*
X015348Y004304D01*
X015436Y004185D02*
X015687Y004185D01*
X015645Y004067D02*
X015479Y004067D01*
X015479Y003948D02*
X015645Y003948D01*
X015681Y003830D02*
X015442Y003830D01*
X015362Y003711D02*
X015761Y003711D01*
X016362Y003711D02*
X016761Y003711D01*
X016681Y003830D02*
X016442Y003830D01*
X016479Y003948D02*
X016645Y003948D01*
X016645Y004067D02*
X016479Y004067D01*
X016436Y004185D02*
X016687Y004185D01*
X016776Y004304D02*
X016348Y004304D01*
X016310Y004659D02*
X016813Y004659D01*
X016477Y005370D02*
X016258Y005370D01*
X017470Y005963D02*
X012412Y005963D01*
X012412Y006081D02*
X017582Y006081D01*
X017582Y006200D02*
X012412Y006200D01*
X012412Y006318D02*
X017582Y006318D01*
X017644Y006437D02*
X012412Y006437D01*
X012402Y006555D02*
X017762Y006555D01*
X017881Y006674D02*
X007860Y006674D01*
X007741Y006555D02*
X010882Y006555D01*
X010883Y006557D02*
X010872Y006517D01*
X010872Y006260D01*
X011228Y006260D01*
X011228Y006656D01*
X011011Y006656D01*
X010970Y006645D01*
X010934Y006624D01*
X010904Y006594D01*
X010883Y006557D01*
X010872Y006437D02*
X007535Y006437D01*
X006588Y006437D02*
X006242Y006437D01*
X006242Y006555D02*
X006383Y006555D01*
X006263Y006674D02*
X006242Y006674D01*
X006242Y006318D02*
X010872Y006318D01*
X010872Y006140D02*
X010872Y005884D01*
X010883Y005843D01*
X010904Y005807D01*
X010934Y005777D01*
X010970Y005756D01*
X011011Y005745D01*
X011228Y005745D01*
X011228Y006140D01*
X010872Y006140D01*
X010872Y006081D02*
X006242Y006081D01*
X006242Y005963D02*
X009476Y005963D01*
X009468Y005958D02*
X009439Y005928D01*
X009418Y005892D01*
X009407Y005851D01*
X009407Y005634D01*
X009802Y005634D01*
X009802Y005514D01*
X009407Y005514D01*
X009407Y005297D01*
X009418Y005257D01*
X009439Y005220D01*
X009468Y005190D01*
X009492Y005177D01*
X009447Y005132D01*
X009447Y005066D01*
X009299Y005066D01*
X009221Y005098D01*
X009103Y005098D01*
X008993Y005053D01*
X008909Y004969D01*
X008864Y004860D01*
X008864Y004741D01*
X008909Y004631D01*
X008993Y004548D01*
X009103Y004502D01*
X009221Y004502D01*
X009331Y004548D01*
X009369Y004586D01*
X009447Y004586D01*
X009447Y004521D01*
X009517Y004450D01*
X010207Y004450D01*
X010277Y004521D01*
X010277Y005132D01*
X010232Y005177D01*
X010255Y005190D01*
X010285Y005220D01*
X010306Y005257D01*
X010317Y005297D01*
X010317Y005514D01*
X009922Y005514D01*
X009922Y005634D01*
X010317Y005634D01*
X010317Y005851D01*
X010306Y005892D01*
X010285Y005928D01*
X010255Y005958D01*
X010219Y005979D01*
X010178Y005990D01*
X009922Y005990D01*
X009922Y005634D01*
X009802Y005634D01*
X009802Y005990D01*
X009546Y005990D01*
X009505Y005979D01*
X009468Y005958D01*
X009407Y005844D02*
X006242Y005844D01*
X006242Y005726D02*
X009407Y005726D01*
X009407Y005489D02*
X006242Y005489D01*
X006242Y005607D02*
X009802Y005607D01*
X009802Y005726D02*
X009922Y005726D01*
X009922Y005844D02*
X009802Y005844D01*
X009802Y005963D02*
X009922Y005963D01*
X010248Y005963D02*
X010872Y005963D01*
X010883Y005844D02*
X010317Y005844D01*
X010317Y005726D02*
X011796Y005726D01*
X011784Y005607D02*
X009922Y005607D01*
X010317Y005489D02*
X011764Y005489D01*
X011793Y005370D02*
X010317Y005370D01*
X010303Y005252D02*
X011882Y005252D01*
X011882Y005133D02*
X010276Y005133D01*
X010277Y005015D02*
X011882Y005015D01*
X011882Y004896D02*
X010277Y004896D01*
X010277Y004778D02*
X011882Y004778D01*
X011882Y004659D02*
X010277Y004659D01*
X010277Y004541D02*
X011882Y004541D01*
X011882Y004422D02*
X006242Y004422D01*
X006242Y004304D02*
X011811Y004304D01*
X011692Y004185D02*
X006242Y004185D01*
X006250Y004067D02*
X011574Y004067D01*
X011455Y003948D02*
X006368Y003948D01*
X006362Y003700D02*
X011462Y003700D01*
X012062Y004300D01*
X012062Y005500D01*
X011348Y005844D02*
X011228Y005844D01*
X011228Y005963D02*
X011348Y005963D01*
X011348Y006081D02*
X011228Y006081D01*
X011228Y006200D02*
X006242Y006200D01*
X005562Y006526D02*
X005562Y005714D01*
X005861Y005370D02*
X005882Y005370D01*
X006242Y005370D02*
X009407Y005370D01*
X009420Y005252D02*
X006242Y005252D01*
X006242Y005133D02*
X009448Y005133D01*
X008955Y005015D02*
X006242Y005015D01*
X006242Y004896D02*
X008879Y004896D01*
X008864Y004778D02*
X006242Y004778D01*
X006242Y004659D02*
X008898Y004659D01*
X009009Y004541D02*
X006242Y004541D01*
X005882Y004422D02*
X004222Y004422D01*
X004222Y004304D02*
X005882Y004304D01*
X005882Y004185D02*
X004222Y004185D01*
X004222Y004067D02*
X005882Y004067D01*
X005882Y003948D02*
X004222Y003948D01*
X004222Y003830D02*
X005978Y003830D01*
X006096Y003711D02*
X004222Y003711D01*
X004222Y003474D02*
X023193Y003474D01*
X023193Y003356D02*
X004222Y003356D01*
X004222Y003237D02*
X023193Y003237D01*
X023193Y004541D02*
X020742Y004541D01*
X020742Y004659D02*
X020813Y004659D01*
X020382Y004659D02*
X020310Y004659D01*
X020062Y005000D02*
X020062Y005300D01*
X022662Y007900D01*
X022662Y011400D01*
X021962Y012100D01*
X021962Y014400D01*
X022062Y014500D01*
X022816Y013665D02*
X023193Y013665D01*
X023193Y013547D02*
X022860Y013547D01*
X022855Y013428D02*
X023193Y013428D01*
X023193Y013310D02*
X022793Y013310D01*
X022507Y013191D02*
X023193Y013191D01*
X023193Y013073D02*
X022389Y013073D01*
X022342Y012954D02*
X023193Y012954D01*
X023193Y012836D02*
X022342Y012836D01*
X022342Y012717D02*
X023193Y012717D01*
X023193Y012599D02*
X022342Y012599D01*
X022342Y012480D02*
X023193Y012480D01*
X023193Y012362D02*
X022342Y012362D01*
X022373Y012243D02*
X023193Y012243D01*
X023193Y012125D02*
X022492Y012125D01*
X022610Y012006D02*
X023193Y012006D01*
X023193Y011888D02*
X022729Y011888D01*
X022847Y011769D02*
X023193Y011769D01*
X023193Y011651D02*
X022966Y011651D01*
X023042Y011532D02*
X023193Y011532D01*
X023193Y011414D02*
X023042Y011414D01*
X023042Y011295D02*
X023193Y011295D01*
X023193Y011177D02*
X023042Y011177D01*
X023042Y011058D02*
X023193Y011058D01*
X023193Y010940D02*
X023042Y010940D01*
X023042Y010821D02*
X023193Y010821D01*
X023193Y010703D02*
X023042Y010703D01*
X023042Y010584D02*
X023193Y010584D01*
X023193Y010466D02*
X023042Y010466D01*
X023042Y010347D02*
X023193Y010347D01*
X023193Y010229D02*
X023042Y010229D01*
X023042Y010110D02*
X023193Y010110D01*
X023193Y009992D02*
X023042Y009992D01*
X023042Y009873D02*
X023193Y009873D01*
X023193Y009755D02*
X023042Y009755D01*
X023042Y009636D02*
X023193Y009636D01*
X023193Y009518D02*
X023042Y009518D01*
X023042Y009399D02*
X023193Y009399D01*
X023193Y009281D02*
X023042Y009281D01*
X023042Y009162D02*
X023193Y009162D01*
X023193Y009044D02*
X023042Y009044D01*
X023042Y008925D02*
X023193Y008925D01*
X023193Y008807D02*
X023042Y008807D01*
X023042Y008688D02*
X023193Y008688D01*
X023193Y008570D02*
X023042Y008570D01*
X023042Y008451D02*
X023193Y008451D01*
X023193Y008333D02*
X023042Y008333D01*
X023042Y008214D02*
X023193Y008214D01*
X023193Y008096D02*
X023042Y008096D01*
X023042Y007977D02*
X023193Y007977D01*
X023193Y007859D02*
X023042Y007859D01*
X023042Y007740D02*
X023193Y007740D01*
X023193Y007622D02*
X022938Y007622D01*
X022819Y007503D02*
X023193Y007503D01*
X023193Y007385D02*
X022701Y007385D01*
X022582Y007266D02*
X023193Y007266D01*
X023193Y007148D02*
X022464Y007148D01*
X022345Y007029D02*
X023193Y007029D01*
X023193Y006911D02*
X022227Y006911D01*
X022108Y006792D02*
X023193Y006792D01*
X023193Y006674D02*
X021990Y006674D01*
X021871Y006555D02*
X023193Y006555D01*
X023193Y006437D02*
X021753Y006437D01*
X021634Y006318D02*
X023193Y006318D01*
X023193Y006200D02*
X021516Y006200D01*
X021397Y006081D02*
X023193Y006081D01*
X023193Y005963D02*
X021279Y005963D01*
X021160Y005844D02*
X023193Y005844D01*
X023193Y005726D02*
X021042Y005726D01*
X020923Y005607D02*
X023193Y005607D01*
X023193Y005489D02*
X020805Y005489D01*
X020866Y005370D02*
X020742Y005370D01*
X021258Y005370D02*
X023193Y005370D01*
X023193Y005252D02*
X021400Y005252D01*
X021458Y005133D02*
X023193Y005133D01*
X023193Y005015D02*
X021479Y005015D01*
X021470Y004896D02*
X023193Y004896D01*
X023193Y004778D02*
X021421Y004778D01*
X021310Y004659D02*
X023193Y004659D01*
X020062Y005600D02*
X022462Y008000D01*
X022462Y011100D01*
X022062Y011500D01*
X021762Y011300D02*
X021762Y015900D01*
X022362Y016500D01*
X023193Y017813D02*
X021242Y017813D01*
X021242Y017931D02*
X023193Y017931D01*
X023193Y018050D02*
X021242Y018050D01*
X021242Y018168D02*
X023193Y018168D01*
X023193Y018287D02*
X021242Y018287D01*
X021242Y018405D02*
X023193Y018405D01*
X023193Y018524D02*
X021242Y018524D01*
X021174Y018642D02*
X023193Y018642D01*
X023193Y018761D02*
X021056Y018761D01*
X020937Y018879D02*
X023193Y018879D01*
X023193Y018998D02*
X020819Y018998D01*
X020700Y019116D02*
X023193Y019116D01*
X023193Y019235D02*
X017349Y019235D01*
X017344Y018761D02*
X020547Y018761D01*
X023012Y019780D02*
X023082Y019851D01*
X023082Y019950D01*
X023082Y021851D01*
X023082Y021950D01*
X023012Y022020D01*
X017612Y022020D01*
X017542Y021950D01*
X017542Y019851D01*
X017612Y019780D01*
X023012Y019780D01*
X023059Y019827D02*
X023193Y019827D01*
X023193Y019709D02*
X015108Y019709D01*
X014989Y019827D02*
X017565Y019827D01*
X017542Y019946D02*
X014871Y019946D01*
X014752Y020064D02*
X017542Y020064D01*
X017542Y020183D02*
X014634Y020183D01*
X015226Y019590D02*
X023193Y019590D01*
X023193Y019472D02*
X015345Y019472D01*
X015463Y019353D02*
X023193Y019353D01*
X023193Y019946D02*
X023082Y019946D01*
X023082Y020064D02*
X023193Y020064D01*
X023193Y020183D02*
X023082Y020183D01*
X023082Y020301D02*
X023193Y020301D01*
X023193Y020420D02*
X023082Y020420D01*
X023082Y020538D02*
X023193Y020538D01*
X023193Y020657D02*
X023082Y020657D01*
X023082Y020775D02*
X023193Y020775D01*
X023193Y020894D02*
X023082Y020894D01*
X023082Y021012D02*
X023193Y021012D01*
X023193Y021131D02*
X023082Y021131D01*
X023082Y021249D02*
X023193Y021249D01*
X023193Y021368D02*
X023082Y021368D01*
X023082Y021486D02*
X023193Y021486D01*
X023193Y021605D02*
X023082Y021605D01*
X023082Y021723D02*
X023193Y021723D01*
X023193Y021842D02*
X023082Y021842D01*
X023072Y021960D02*
X023193Y021960D01*
X023193Y022079D02*
X004222Y022079D01*
X004222Y021960D02*
X017552Y021960D01*
X017542Y021842D02*
X004222Y021842D01*
X004222Y021723D02*
X017542Y021723D01*
X017542Y021605D02*
X007434Y021605D01*
X007490Y021590D02*
X007208Y021665D01*
X006916Y021665D01*
X006633Y021590D01*
X006380Y021444D01*
X006174Y021237D01*
X006028Y020984D01*
X005952Y020701D01*
X005952Y020409D01*
X006028Y020127D01*
X006174Y019874D01*
X006380Y019667D01*
X006633Y019521D01*
X006916Y019445D01*
X007208Y019445D01*
X007490Y019521D01*
X007743Y019667D01*
X007950Y019874D01*
X008096Y020127D01*
X008172Y020409D01*
X008172Y020701D01*
X008096Y020984D01*
X007950Y021237D01*
X007743Y021444D01*
X007490Y021590D01*
X007669Y021486D02*
X017542Y021486D01*
X017542Y021368D02*
X007819Y021368D01*
X007938Y021249D02*
X017542Y021249D01*
X017542Y021131D02*
X008011Y021131D01*
X008080Y021012D02*
X017542Y021012D01*
X017542Y020894D02*
X008120Y020894D01*
X008152Y020775D02*
X010847Y020775D01*
X010793Y020753D02*
X010903Y020798D01*
X011021Y020798D01*
X011131Y020753D01*
X011215Y020669D01*
X011260Y020560D01*
X011260Y020441D01*
X011215Y020331D01*
X011131Y020248D01*
X011021Y020202D01*
X010903Y020202D01*
X010793Y020248D01*
X010709Y020331D01*
X010664Y020441D01*
X010664Y020560D01*
X010709Y020669D01*
X010793Y020753D01*
X010704Y020657D02*
X008172Y020657D01*
X008172Y020538D02*
X010664Y020538D01*
X010673Y020420D02*
X008172Y020420D01*
X008143Y020301D02*
X010739Y020301D01*
X011185Y020301D02*
X013541Y020301D01*
X013473Y020183D02*
X008111Y020183D01*
X008060Y020064D02*
X013464Y020064D01*
X013503Y019946D02*
X007992Y019946D01*
X007904Y019827D02*
X008650Y019827D01*
X008531Y019709D02*
X007785Y019709D01*
X007610Y019590D02*
X008413Y019590D01*
X008294Y019472D02*
X007307Y019472D01*
X006817Y019472D02*
X004222Y019472D01*
X004222Y019590D02*
X006513Y019590D01*
X006339Y019709D02*
X004222Y019709D01*
X004222Y019827D02*
X006220Y019827D01*
X006132Y019946D02*
X004222Y019946D01*
X004222Y020064D02*
X006064Y020064D01*
X006013Y020183D02*
X004222Y020183D01*
X004222Y020301D02*
X005981Y020301D01*
X005952Y020420D02*
X004222Y020420D01*
X004222Y020538D02*
X005952Y020538D01*
X005952Y020657D02*
X004222Y020657D01*
X004222Y020775D02*
X005972Y020775D01*
X006003Y020894D02*
X004222Y020894D01*
X004222Y021012D02*
X006044Y021012D01*
X006112Y021131D02*
X004222Y021131D01*
X004222Y021249D02*
X006186Y021249D01*
X006305Y021368D02*
X004222Y021368D01*
X004222Y021486D02*
X006454Y021486D01*
X006690Y021605D02*
X004222Y021605D01*
X004222Y019353D02*
X008176Y019353D01*
X008057Y019235D02*
X004222Y019235D01*
X004222Y019116D02*
X006756Y019116D01*
X006620Y018998D02*
X004222Y018998D01*
X004222Y018879D02*
X006502Y018879D01*
X006383Y018761D02*
X004222Y018761D01*
X004222Y018642D02*
X006265Y018642D01*
X006146Y018524D02*
X004222Y018524D01*
X004222Y018405D02*
X006028Y018405D01*
X005909Y018287D02*
X004222Y018287D01*
X004222Y018168D02*
X005830Y018168D01*
X005822Y018050D02*
X004222Y018050D01*
X004222Y017931D02*
X005822Y017931D01*
X005822Y017813D02*
X004222Y017813D01*
X004222Y017694D02*
X005793Y017694D01*
X005704Y017576D02*
X004222Y017576D01*
X004222Y017457D02*
X005665Y017457D01*
X005665Y017339D02*
X004222Y017339D01*
X004222Y017220D02*
X005707Y017220D01*
X005800Y017102D02*
X004222Y017102D01*
X005377Y015561D02*
X005665Y015561D01*
X005698Y015443D02*
X005259Y015443D01*
X005242Y015324D02*
X005777Y015324D01*
X005979Y015206D02*
X005242Y015206D01*
X005242Y015087D02*
X005956Y015087D01*
X005768Y014969D02*
X005242Y014969D01*
X006062Y015400D02*
X006062Y015601D01*
X006062Y015400D02*
X006762Y014700D01*
X007062Y016051D02*
X008413Y016051D01*
X010062Y017700D01*
X010188Y017700D01*
X010547Y017339D02*
X010576Y017339D01*
X010936Y017700D02*
X010986Y017750D01*
X011962Y017750D01*
X011473Y017931D02*
X011312Y017931D01*
X011307Y018050D02*
X012422Y018050D01*
X012422Y018168D02*
X008284Y018168D01*
X008166Y018050D02*
X009817Y018050D01*
X009812Y017931D02*
X008047Y017931D01*
X007929Y017813D02*
X009812Y017813D01*
X009801Y017694D02*
X008331Y017694D01*
X008420Y017576D02*
X009683Y017576D01*
X009564Y017457D02*
X008459Y017457D01*
X008459Y017339D02*
X009446Y017339D01*
X009327Y017220D02*
X008417Y017220D01*
X008324Y017102D02*
X009209Y017102D01*
X009090Y016983D02*
X007459Y016983D01*
X007456Y016865D02*
X007901Y016865D01*
X007745Y016746D02*
X007407Y016746D01*
X007300Y016628D02*
X007684Y016628D01*
X007665Y016509D02*
X006825Y016509D01*
X006843Y016391D02*
X006742Y016391D01*
X006553Y016746D02*
X006379Y016746D01*
X006223Y016865D02*
X006668Y016865D01*
X007280Y016391D02*
X007678Y016391D01*
X007729Y016272D02*
X007400Y016272D01*
X008223Y016865D02*
X008972Y016865D01*
X008853Y016746D02*
X008379Y016746D01*
X008439Y016628D02*
X008735Y016628D01*
X008616Y016509D02*
X008459Y016509D01*
X008446Y016391D02*
X008498Y016391D01*
X009718Y017102D02*
X011467Y017102D01*
X011467Y017220D02*
X009836Y017220D01*
X010559Y018050D02*
X010565Y018050D01*
X010551Y018642D02*
X010573Y018642D01*
X010936Y019000D02*
X010986Y018950D01*
X011962Y018950D01*
X011482Y018761D02*
X011312Y018761D01*
X011299Y018642D02*
X011484Y018642D01*
X011467Y018524D02*
X008640Y018524D01*
X008758Y018642D02*
X009825Y018642D01*
X009812Y018761D02*
X008877Y018761D01*
X008862Y019000D02*
X010188Y019000D01*
X009812Y019235D02*
X008736Y019235D01*
X008723Y019116D02*
X008617Y019116D01*
X008605Y018998D02*
X008499Y018998D01*
X008486Y018879D02*
X008380Y018879D01*
X008368Y018761D02*
X008262Y018761D01*
X008249Y018642D02*
X006943Y018642D01*
X006825Y018524D02*
X008131Y018524D01*
X008012Y018405D02*
X006706Y018405D01*
X006588Y018287D02*
X007894Y018287D01*
X007775Y018168D02*
X007307Y018168D01*
X007410Y018050D02*
X007657Y018050D01*
X007713Y017851D02*
X008862Y019000D01*
X008854Y019353D02*
X009820Y019353D01*
X010556Y019353D02*
X010568Y019353D01*
X011304Y019353D02*
X012369Y019353D01*
X012422Y019235D02*
X011312Y019235D01*
X011467Y018405D02*
X008521Y018405D01*
X008403Y018287D02*
X011467Y018287D01*
X011499Y017457D02*
X011312Y017457D01*
X011295Y017339D02*
X011467Y017339D01*
X012703Y017102D02*
X013667Y017102D01*
X013667Y017220D02*
X012821Y017220D01*
X012798Y017197D02*
X012798Y017197D01*
X012896Y017339D02*
X013667Y017339D01*
X013699Y017457D02*
X012902Y017457D01*
X012902Y017576D02*
X013634Y017576D01*
X013627Y017694D02*
X012902Y017694D01*
X012902Y017813D02*
X013627Y017813D01*
X013636Y017931D02*
X012902Y017931D01*
X012902Y018287D02*
X013667Y018287D01*
X013667Y018405D02*
X012902Y018405D01*
X012902Y018524D02*
X013667Y018524D01*
X013684Y018642D02*
X012902Y018642D01*
X012902Y018761D02*
X013639Y018761D01*
X013627Y018879D02*
X012902Y018879D01*
X012902Y018998D02*
X013627Y018998D01*
X013632Y019116D02*
X012902Y019116D01*
X012902Y019235D02*
X013764Y019235D01*
X014159Y019116D02*
X014164Y019116D01*
X014159Y018998D02*
X014164Y018998D01*
X013642Y019827D02*
X012574Y019827D01*
X011251Y020420D02*
X017542Y020420D01*
X017542Y020538D02*
X011260Y020538D01*
X011220Y020657D02*
X017542Y020657D01*
X017542Y020775D02*
X011077Y020775D01*
X013982Y020301D02*
X017542Y020301D01*
X013962Y016700D02*
X014462Y016200D01*
X011742Y013902D02*
X010818Y013902D01*
X010700Y013784D02*
X011674Y013784D01*
X011664Y013665D02*
X010581Y013665D01*
X010463Y013547D02*
X011554Y013547D01*
X011435Y013428D02*
X010344Y013428D01*
X010226Y013310D02*
X011317Y013310D01*
X011198Y013191D02*
X010107Y013191D01*
X009989Y013073D02*
X011080Y013073D01*
X010961Y012954D02*
X009870Y012954D01*
X009762Y013100D02*
X010962Y014300D01*
X010962Y015100D01*
X009762Y013100D02*
X008762Y013100D01*
X008563Y012901D01*
X008062Y012901D01*
X008415Y012717D02*
X010724Y012717D01*
X010606Y012599D02*
X008321Y012599D01*
X008752Y012836D02*
X010843Y012836D01*
X008694Y014495D02*
X008406Y014495D01*
X008161Y012001D02*
X008062Y012001D01*
X007475Y011532D02*
X007459Y011532D01*
X007435Y011414D02*
X007482Y011414D01*
X007482Y011295D02*
X007367Y011295D01*
X007482Y011177D02*
X007195Y011177D01*
X006994Y011058D02*
X007482Y011058D01*
X007482Y010940D02*
X007335Y010940D01*
X007421Y010821D02*
X007482Y010821D01*
X007459Y010703D02*
X007505Y010703D01*
X007459Y010584D02*
X007623Y010584D01*
X007742Y010466D02*
X007415Y010466D01*
X007319Y010347D02*
X007692Y010347D01*
X007862Y010600D02*
X008762Y010600D01*
X009062Y010300D01*
X009062Y009700D01*
X008962Y009600D01*
X008842Y009873D02*
X008295Y009873D01*
X008405Y009992D02*
X008882Y009992D01*
X008882Y010110D02*
X008454Y010110D01*
X008459Y010229D02*
X008879Y010229D01*
X008760Y010347D02*
X008431Y010347D01*
X007862Y010600D02*
X007662Y010800D01*
X006929Y011177D02*
X006876Y011177D01*
X006553Y010821D02*
X006343Y010821D01*
X005062Y011100D02*
X005062Y005000D01*
X004949Y004887D01*
X004562Y004887D01*
X004918Y004659D02*
X005166Y004659D01*
X005166Y004778D02*
X005094Y004778D01*
X005212Y004896D02*
X005504Y004896D01*
X005504Y004778D02*
X005620Y004778D01*
X005620Y004659D02*
X005504Y004659D01*
X005504Y004541D02*
X005620Y004541D01*
X005209Y004541D02*
X004858Y004541D01*
X004266Y004541D02*
X004222Y004541D01*
X004562Y005714D02*
X004562Y006526D01*
X005242Y005370D02*
X005263Y005370D01*
X005504Y005252D02*
X005620Y005252D01*
X005620Y005133D02*
X005504Y005133D01*
X005504Y005015D02*
X005620Y005015D01*
X009314Y004541D02*
X009447Y004541D01*
X011228Y006318D02*
X011348Y006318D01*
X011348Y006437D02*
X011228Y006437D01*
X011228Y006555D02*
X011348Y006555D01*
X009182Y009044D02*
X009173Y009044D01*
X009182Y009162D02*
X009054Y009162D01*
X009182Y009281D02*
X008164Y009281D01*
X005296Y012954D02*
X005242Y012954D01*
X006420Y017576D02*
X006776Y017576D01*
X006697Y017694D02*
X006331Y017694D01*
X006302Y017813D02*
X006665Y017813D01*
X006665Y017931D02*
X006302Y017931D01*
X006351Y018050D02*
X006714Y018050D01*
X006817Y018168D02*
X006469Y018168D01*
X007062Y017851D02*
X007713Y017851D01*
X007704Y017576D02*
X007348Y017576D01*
X016733Y011651D02*
X017691Y011651D01*
X017664Y011177D02*
X016760Y011177D01*
X021662Y010500D02*
X021662Y008400D01*
X019662Y006400D01*
X018462Y006400D01*
X018162Y006100D01*
X018905Y005489D02*
X019352Y005489D01*
X019278Y005607D02*
X019023Y005607D01*
X019142Y005726D02*
X019264Y005726D01*
X019562Y005700D02*
X019662Y005800D01*
X019962Y005800D01*
X022262Y008100D01*
X022262Y010800D01*
X021762Y011300D01*
X020062Y005600D02*
X019962Y005600D01*
X019362Y005000D01*
X019062Y005000D01*
X019258Y005370D02*
X019477Y005370D01*
X019631Y005015D02*
X019645Y005015D01*
X019654Y004896D02*
X019512Y004896D01*
X019421Y004778D02*
X019703Y004778D01*
X019813Y004659D02*
X019310Y004659D01*
X019348Y004304D02*
X019776Y004304D01*
X019687Y004185D02*
X019436Y004185D01*
X019479Y004067D02*
X019645Y004067D01*
X019645Y003948D02*
X019479Y003948D01*
X019442Y003830D02*
X019681Y003830D01*
X019761Y003711D02*
X019362Y003711D01*
X018761Y003711D02*
X018362Y003711D01*
X018442Y003830D02*
X018681Y003830D01*
X018645Y003948D02*
X018479Y003948D01*
X018479Y004067D02*
X018645Y004067D01*
X018687Y004185D02*
X018436Y004185D01*
X018348Y004304D02*
X018776Y004304D01*
X018813Y004659D02*
X018310Y004659D01*
X018421Y004778D02*
X018703Y004778D01*
X018654Y004896D02*
X018470Y004896D01*
X018479Y005015D02*
X018645Y005015D01*
X018666Y005133D02*
X018549Y005133D01*
X018668Y005252D02*
X018724Y005252D01*
X018786Y005370D02*
X018866Y005370D01*
D20*
X013788Y005526D02*
X013762Y005500D01*
X012062Y005500D02*
X012036Y005526D01*
X012036Y006200D01*
X009862Y004826D02*
X009188Y004826D01*
X009162Y004800D01*
X004562Y007274D02*
X004562Y009500D01*
X006062Y011101D02*
X006612Y011101D01*
X007062Y010651D01*
X011962Y017250D02*
X012512Y017250D01*
X012662Y017400D01*
X012662Y018500D01*
X012612Y018450D01*
X011962Y018450D01*
X012662Y018500D02*
X012662Y019400D01*
X012362Y019700D01*
X008862Y019700D01*
X008062Y018900D01*
X006862Y018900D01*
X006062Y018100D01*
X006062Y017401D01*
X012962Y020000D02*
X013162Y020200D01*
X013162Y021000D01*
X013436Y021274D01*
M02*
